M48
; DRILL file {KiCad (5.1.9)-1} date 02/04/21 15:38:30
; FORMAT={-:-/ absolute / inch / decimal}
; #@! TF.CreationDate,2021-02-04T15:38:30+01:00
; #@! TF.GenerationSoftware,Kicad,Pcbnew,(5.1.9)-1
; #@! TF.FileFunction,Plated,1,2,PTH
FMAT,2
INCH
T1C0.0118
T2C0.0157
T3C0.0197
T4C0.0236
T5C0.0295
T6C0.0315
T7C0.0374
T8C0.0394
T9C0.0433
T10C0.0787
T11C0.1260
T12C0.2087
T13C0.3547
%
G90
G05
T1
X3.0445Y-4.6677
X3.202Y-4.6047
X3.2965Y-4.6677
X3.4224Y-4.6047
X3.5169Y-4.6677
X3.6744Y-4.6047
X3.7689Y-4.6677
X3.8634Y-4.6047
X3.9579Y-4.6677
X3.9579Y-5.0142
X4.0524Y-4.6047
X4.2098Y-4.6047
X4.3043Y-5.0457
X4.3358Y-4.6362
X4.4618Y-4.6677
X4.5563Y-4.6047
X4.6508Y-4.6677
X4.7453Y-4.6047
X4.8398Y-4.6677
X4.9972Y-4.6047
X5.0917Y-4.6677
X5.2177Y-4.6362
X5.3437Y-4.6677
X5.5012Y-4.6677
X5.6587Y-4.6677
X5.7531Y-5.0142
X6.0996Y-5.0457
X6.1311Y-4.6677
X6.2886Y-4.6677
X6.4146Y-4.6047
X6.5091Y-4.6677
X6.6035Y-4.6047
X6.698Y-4.6677
X6.824Y-4.6047
X6.9185Y-4.6677
X7.0445Y-4.6047
X7.139Y-4.6677
X7.2965Y-4.6047
X7.3909Y-4.6677
X7.5169Y-4.5732
X7.5799Y-4.6677
X7.5799Y-4.8252
X7.5799Y-4.9827
X7.6744Y-4.5732
X7.6744Y-5.0457
X7.8004Y-4.6047
X7.9264Y-4.5732
X7.9894Y-5.0457
X8.0209Y-4.6362
T2
X3.0472Y-4.5945
X3.0681Y-3.463
X3.0681Y-3.6205
X3.0681Y-3.778
X3.0681Y-3.9354
X3.0681Y-4.0929
X3.0681Y-4.2504
X3.0681Y-4.4079
X3.1469Y-3.5417
X3.1469Y-3.6992
X3.1469Y-4.1717
X3.1469Y-4.3291
X3.2256Y-3.463
X3.2256Y-3.6205
X3.2256Y-4.2504
X3.2256Y-4.4079
X3.3043Y-3.5417
X3.3043Y-4.1717
X3.3043Y-4.3291
X3.3437Y-3.6598
X3.3831Y-3.463
X3.3831Y-4.2504
X3.4016Y-4.5236
X3.4224Y-3.5811
X3.4224Y-4.1323
X3.4224Y-4.3685
X3.4618Y-3.6992
X3.4618Y-4.4866
X3.5012Y-3.5024
X3.5012Y-4.0535
X3.5012Y-4.211
X3.5406Y-3.6205
X3.5406Y-3.778
X3.5406Y-3.9354
X3.5406Y-4.3291
X3.5799Y-4.1323
X3.5984Y-3.437
X3.6193Y-3.8567
X3.6193Y-4.0142
X3.6193Y-4.2504
X3.6587Y-3.5811
X3.6587Y-3.7386
X3.6587Y-4.3685
X3.7126Y-4.2205
X3.7126Y-4.5236
X3.7205Y-4.0118
X3.7638Y-3.5866
X3.8161Y-4.3685
X3.8268Y-3.4094
X3.8386Y-4.0079
X3.8701Y-4.5236
X3.8819Y-4.0079
X3.8819Y-4.2205
X3.8949Y-3.6205
X3.8949Y-4.4472
X3.9343Y-3.7386
X3.9736Y-3.5417
X4.013Y-3.6598
X4.013Y-4.4079
X4.0157Y-4.2087
X4.0917Y-3.5024
X4.0917Y-3.7386
X4.0917Y-4.211
X4.0917Y-4.4866
X4.1188Y-4.0151
X4.1285Y-3.844
X4.1311Y-3.6205
X4.1311Y-4.3291
X4.2098Y-3.6992
X4.2098Y-4.0142
X4.2098Y-4.4079
X4.2886Y-4.0929
X4.2886Y-4.3291
X4.2886Y-4.4866
X4.328Y-3.7386
X4.3673Y-3.5417
X4.3673Y-4.1717
X4.3673Y-4.4079
X4.4461Y-3.6992
X4.4461Y-4.3291
X4.5248Y-3.778
X4.5642Y-4.3685
X4.6035Y-3.6992
X4.6063Y-4.5236
X4.6358Y-4.0965
X4.6429Y-3.8173
X4.6429Y-3.9748
X4.7217Y-4.0929
X4.7217Y-4.3685
X4.7323Y-4.2884
X4.7441Y-4.5236
X4.761Y-3.6992
X4.8004Y-4.2898
X4.8004Y-4.4472
X4.8791Y-4.3685
X4.9579Y-4.2898
X4.9972Y-4.4079
X5.0366Y-3.6992
X5.0748Y-4.5236
X5.076Y-4.0929
X5.076Y-4.3291
X5.0945Y-3.5827
X5.1648Y-4.117
X5.1941Y-4.2898
X5.1941Y-4.4472
X5.2008Y-4.5236
X5.2598Y-4.176
X5.2728Y-4.3685
X5.3122Y-4.4866
X5.3516Y-3.8173
X5.3516Y-3.9748
X5.3858Y-4.2598
X5.3909Y-4.3291
X5.4303Y-4.0535
X5.4409Y-3.5906
X5.4697Y-3.778
X5.4697Y-4.4079
X5.5091Y-4.2898
X5.5357Y-4.2129
X5.5484Y-3.8567
X5.5484Y-4.0929
X5.5878Y-4.3685
X5.626Y-3.6368
X5.6272Y-4.211
X5.6665Y-4.4472
X5.7059Y-3.8567
X5.7059Y-4.0929
X5.7059Y-4.2898
X5.7453Y-3.9748
X5.7598Y-3.6535
X5.7846Y-4.211
X5.7846Y-4.3685
X5.815Y-3.6496
X5.824Y-4.4866
X5.8583Y-3.6535
X5.8634Y-3.9354
X5.8634Y-4.0929
X5.8634Y-4.2898
X5.9094Y-3.6535
X5.9421Y-4.211
X5.9421Y-4.3685
X5.9567Y-3.6496
X5.9815Y-3.9748
X5.9961Y-3.6535
X6.0209Y-3.7386
X6.0209Y-4.0929
X6.0209Y-4.2898
X6.0602Y-4.4079
X6.0866Y-3.6496
X6.0996Y-4.211
X6.1378Y-3.6496
X6.139Y-3.778
X6.139Y-4.3291
X6.139Y-4.4866
X6.1783Y-3.9748
X6.2047Y-3.6535
X6.2177Y-3.8567
X6.2177Y-4.2504
X6.2177Y-4.4079
X6.2244Y-4.1772
X6.2425Y-3.6559
X6.2835Y-3.6535
X6.2965Y-3.778
X6.2965Y-4.3291
X6.3307Y-3.6535
X6.3752Y-4.2504
X6.3752Y-4.4079
X6.3858Y-3.6535
X6.4134Y-4.5236
X6.4539Y-4.0142
X6.4539Y-4.3291
X6.4764Y-3.6496
X6.4933Y-3.8961
X6.4933Y-4.211
X6.5276Y-3.6496
X6.5327Y-4.0929
X6.563Y-4.5236
X6.5709Y-3.6535
X6.572Y-4.2898
X6.572Y-4.4472
X6.6508Y-4.211
X6.6508Y-4.3685
X6.6902Y-4.4866
X6.7295Y-4.2898
X6.8083Y-4.211
X6.8083Y-4.3685
X6.887Y-4.2898
X6.887Y-4.4472
X6.8976Y-4.5236
X6.9173Y-3.6535
X6.9264Y-4.1323
X6.9535Y-3.6504
X6.9657Y-4.3685
X6.9764Y-4.0197
X6.9882Y-3.6535
X6.9921Y-3.9528
X7.0051Y-4.211
X7.0236Y-4.5236
X7.0276Y-3.6535
X7.0445Y-4.4472
X7.0638Y-3.6543
X7.0839Y-4.1323
X7.0839Y-4.2898
X7.0984Y-3.6535
X7.1232Y-3.778
X7.1378Y-3.6535
X7.1535Y-3.9764
X7.1626Y-4.0535
X7.1626Y-4.211
X7.1626Y-4.3685
X7.172Y-3.6547
X7.2047Y-3.6535
X7.2402Y-3.6496
X7.2413Y-4.1323
X7.2413Y-4.2898
X7.2717Y-3.6535
X7.3071Y-3.6535
X7.3201Y-3.778
X7.3201Y-4.211
X7.3594Y-3.8961
X7.3594Y-4.4472
X7.3661Y-4.5236
X7.4409Y-4.1614
X7.4409Y-4.378
X9.2913Y-2.7008
X9.4035Y-4.1122
X9.4626Y-2.813
X9.4685Y-3.1496
X9.5886Y-3.3996
X9.5925Y-3.1201
X9.5965Y-3.8228
X9.6289Y-4.0728
X9.6339Y-4.25
X9.6437Y-3.9843
X9.6535Y-3.8287
X9.7963Y-3.0098
X9.8031Y-3.4882
X9.8248Y-3.0965
X9.8819Y-4.189
X9.8961Y-3.2505
X9.9035Y-4.1181
X9.9291Y-3.7894
X10.002Y-3.3228
X10.0354Y-3.0394
X10.0374Y-3.3799
X10.0787Y-3.8937
X10.1102Y-4.7146
X10.1624Y-3.2544
X10.5374Y-3.7618
T3
X4.5055Y-2.7961
X4.5055Y-3.2291
X4.5332Y-2.7292
X4.5332Y-2.8629
X4.5332Y-3.1623
X4.5332Y-3.2959
X4.6Y-2.7016
X4.6Y-2.8906
X4.6Y-3.1346
X4.6Y-3.3236
X4.6668Y-2.7292
X4.6668Y-2.8629
X4.6668Y-3.1623
X4.6668Y-3.2959
X4.6945Y-2.7961
X4.6945Y-3.2291
T4
X3.1467Y-3.9083
X3.1925Y-3.7976
X3.1925Y-4.0189
X3.3031Y-3.7518
X3.3031Y-4.0648
X3.4138Y-3.7976
X3.4138Y-4.0189
X3.4596Y-3.9083
X3.9841Y-4.8433
X4.0299Y-4.7326
X4.0299Y-4.954
X4.1406Y-4.6868
X4.1406Y-4.9998
X4.2512Y-4.7326
X4.2512Y-4.954
X4.297Y-4.8433
X4.7321Y-3.9083
X4.7779Y-3.7976
X4.7779Y-4.0189
X4.8886Y-3.7518
X4.8886Y-4.0648
X4.9992Y-3.7976
X4.9992Y-4.0189
X5.0451Y-3.9083
X5.7852Y-4.8433
X5.8311Y-4.7326
X5.8311Y-4.954
X5.9417Y-4.6868
X5.9417Y-4.9998
X6.0524Y-4.7326
X6.0524Y-4.954
X6.0982Y-4.8433
X6.5955Y-3.9055
X6.6413Y-3.7949
X6.6413Y-4.0162
X6.752Y-3.749
X6.752Y-4.062
X6.8626Y-3.7949
X6.8626Y-4.0162
X6.9085Y-3.9055
X7.675Y-4.8433
X7.7208Y-4.7326
X7.7208Y-4.954
X7.8315Y-4.6868
X7.8315Y-4.9998
X7.9422Y-4.7326
X7.9422Y-4.954
X7.988Y-4.8433
T5
X5.1732Y-3.9134
X5.2232Y-3.9134
X5.2732Y-3.9134
T6
X9.2992Y-2.9898
X9.2992Y-3.0898
X9.2992Y-3.1898
X9.2992Y-3.2898
X9.2992Y-3.3898
X9.2992Y-3.4898
X9.2992Y-3.5898
X9.2992Y-3.6898
X9.2992Y-3.7898
X9.2992Y-3.8898
X9.2992Y-3.9898
X9.2992Y-4.0898
X9.2992Y-4.1898
X9.2992Y-4.2898
X9.2992Y-4.3898
X9.2992Y-4.4898
X9.2992Y-4.5898
X9.2992Y-4.6898
X9.2992Y-4.7898
X10.2992Y-2.9898
X10.2992Y-3.0898
X10.2992Y-3.1898
X10.2992Y-3.2898
X10.2992Y-3.3898
X10.2992Y-3.4898
X10.2992Y-3.5898
X10.2992Y-3.6898
X10.2992Y-3.7898
X10.2992Y-3.8898
X10.2992Y-3.9898
X10.2992Y-4.0898
X10.2992Y-4.1898
X10.2992Y-4.2898
X10.2992Y-4.3898
X10.2992Y-4.4898
X10.2992Y-4.5898
X10.2992Y-4.6898
X10.2992Y-4.7898
T7
X3.7559Y-3.9055
X3.8543Y-3.9055
X3.9528Y-3.9055
X4.0512Y-3.9055
X4.1496Y-3.9055
X4.248Y-3.9055
X4.3465Y-3.9055
X4.4449Y-3.9055
X4.5433Y-3.9055
X8.2736Y-2.752
X8.372Y-2.752
X8.4705Y-2.752
X8.4843Y-3.4488
X8.4843Y-3.5472
X8.4843Y-3.6457
X8.4843Y-3.7441
X8.4843Y-3.8425
X8.4843Y-3.9409
X8.4843Y-4.0394
X8.4843Y-4.1378
X8.5689Y-2.752
X8.687Y-4.4783
X8.7854Y-4.4783
X8.8839Y-4.4783
X8.9823Y-4.4783
X9.0807Y-4.4783
X9.5394Y-2.75
X9.6378Y-2.75
X9.7362Y-2.75
X9.8346Y-2.75
X9.9331Y-2.75
X10.0315Y-2.75
X10.1299Y-2.75
X10.2283Y-2.75
X10.3268Y-2.75
X10.5374Y-3.3996
X10.5374Y-3.498
X10.5374Y-3.5965
T8
X5.4409Y-3.9449
X5.6378Y-3.9449
X6.3071Y-3.9016
X6.4055Y-3.9016
X8.7776Y-3.2598
X8.813Y-3.6417
X8.813Y-4.2126
X8.9114Y-4.2126
X9.0098Y-3.6417
X9.0098Y-4.2126
X9.0571Y-2.7185
X9.0571Y-2.9154
X9.0768Y-3.2598
T9
X5.8661Y-3.8425
X5.9661Y-3.8425
X6.0661Y-3.8425
T11
X4.6Y-2.7961
X4.6Y-3.2291
X8.3445Y-3.1161
X8.3504Y-4.6063
X10.5256Y-3.1161
X10.5295Y-4.7047
T12
X3.3031Y-3.9083
X4.1406Y-4.8433
X4.8886Y-3.9083
X5.9417Y-4.8433
X6.752Y-3.9055
X7.8315Y-4.8433
T13
X5.2051Y-3.0323
X7.6051Y-3.0323
T10
G00X8.6909Y-3.9272
M15
G01X8.6909Y-3.9075
M16
G05
G00X9.1319Y-3.9272
M15
G01X9.1319Y-3.9075
M16
G05
T0
M30
