%TF.GenerationSoftware,KiCad,Pcbnew,(5.1.9)-1*%
%TF.CreationDate,2021-02-04T15:38:24+01:00*%
%TF.ProjectId,Spotwelderix,53706f74-7765-46c6-9465-7269782e6b69,v01*%
%TF.SameCoordinates,Original*%
%TF.FileFunction,Soldermask,Top*%
%TF.FilePolarity,Negative*%
%FSLAX46Y46*%
G04 Gerber Fmt 4.6, Leading zero omitted, Abs format (unit mm)*
G04 Created by KiCad (PCBNEW (5.1.9)-1) date 2021-02-04 15:38:24*
%MOMM*%
%LPD*%
G01*
G04 APERTURE LIST*
%ADD10R,0.400000X1.200000*%
%ADD11R,3.940000X5.840000*%
%ADD12R,0.900000X0.800000*%
%ADD13R,0.800000X0.900000*%
%ADD14O,1.700000X1.950000*%
%ADD15C,0.900000*%
%ADD16C,10.600000*%
%ADD17O,1.905000X2.000000*%
%ADD18R,1.905000X2.000000*%
%ADD19O,3.500000X3.500000*%
%ADD20R,1.525000X0.650000*%
%ADD21C,0.100000*%
%ADD22O,1.700000X2.000000*%
%ADD23R,2.500000X1.800000*%
%ADD24C,2.000000*%
%ADD25R,2.000000X2.000000*%
%ADD26R,0.650000X1.525000*%
%ADD27C,0.800000*%
%ADD28C,6.400000*%
%ADD29R,10.800000X9.400000*%
%ADD30R,1.100000X4.600000*%
%ADD31R,9.400000X10.800000*%
%ADD32R,4.600000X1.100000*%
%ADD33O,1.050000X1.500000*%
%ADD34R,1.050000X1.500000*%
%ADD35R,2.500000X3.000000*%
%ADD36O,2.000000X1.200000*%
%ADD37O,1.950000X1.700000*%
%ADD38C,5.600000*%
%ADD39C,3.600000*%
G04 APERTURE END LIST*
%TO.C,R12*%
G36*
G01*
X110712500Y-84150001D02*
X110712500Y-83249999D01*
G75*
G02*
X110962499Y-83000000I249999J0D01*
G01*
X111487501Y-83000000D01*
G75*
G02*
X111737500Y-83249999I0J-249999D01*
G01*
X111737500Y-84150001D01*
G75*
G02*
X111487501Y-84400000I-249999J0D01*
G01*
X110962499Y-84400000D01*
G75*
G02*
X110712500Y-84150001I0J249999D01*
G01*
G37*
G36*
G01*
X108887500Y-84150001D02*
X108887500Y-83249999D01*
G75*
G02*
X109137499Y-83000000I249999J0D01*
G01*
X109662501Y-83000000D01*
G75*
G02*
X109912500Y-83249999I0J-249999D01*
G01*
X109912500Y-84150001D01*
G75*
G02*
X109662501Y-84400000I-249999J0D01*
G01*
X109137499Y-84400000D01*
G75*
G02*
X108887500Y-84150001I0J249999D01*
G01*
G37*
%TD*%
%TO.C,R11*%
G36*
G01*
X107300000Y-85550001D02*
X107300000Y-84649999D01*
G75*
G02*
X107549999Y-84400000I249999J0D01*
G01*
X108075001Y-84400000D01*
G75*
G02*
X108325000Y-84649999I0J-249999D01*
G01*
X108325000Y-85550001D01*
G75*
G02*
X108075001Y-85800000I-249999J0D01*
G01*
X107549999Y-85800000D01*
G75*
G02*
X107300000Y-85550001I0J249999D01*
G01*
G37*
G36*
G01*
X105475000Y-85550001D02*
X105475000Y-84649999D01*
G75*
G02*
X105724999Y-84400000I249999J0D01*
G01*
X106250001Y-84400000D01*
G75*
G02*
X106500000Y-84649999I0J-249999D01*
G01*
X106500000Y-85550001D01*
G75*
G02*
X106250001Y-85800000I-249999J0D01*
G01*
X105724999Y-85800000D01*
G75*
G02*
X105475000Y-85550001I0J249999D01*
G01*
G37*
%TD*%
D10*
%TO.C,IC1*%
X101200000Y-85600000D03*
X101850000Y-85600000D03*
X102500000Y-85600000D03*
X102500000Y-87500000D03*
X101850000Y-87500000D03*
X101200000Y-87500000D03*
%TD*%
D11*
%TO.C,R1*%
X116875000Y-89500000D03*
X107725000Y-89500000D03*
%TD*%
D12*
%TO.C,U2*%
X92700000Y-89100000D03*
X94700000Y-88150000D03*
X94700000Y-90050000D03*
%TD*%
%TO.C,R10*%
G36*
G01*
X97287500Y-87349999D02*
X97287500Y-88250001D01*
G75*
G02*
X97037501Y-88500000I-249999J0D01*
G01*
X96512499Y-88500000D01*
G75*
G02*
X96262500Y-88250001I0J249999D01*
G01*
X96262500Y-87349999D01*
G75*
G02*
X96512499Y-87100000I249999J0D01*
G01*
X97037501Y-87100000D01*
G75*
G02*
X97287500Y-87349999I0J-249999D01*
G01*
G37*
G36*
G01*
X99112500Y-87349999D02*
X99112500Y-88250001D01*
G75*
G02*
X98862501Y-88500000I-249999J0D01*
G01*
X98337499Y-88500000D01*
G75*
G02*
X98087500Y-88250001I0J249999D01*
G01*
X98087500Y-87349999D01*
G75*
G02*
X98337499Y-87100000I249999J0D01*
G01*
X98862501Y-87100000D01*
G75*
G02*
X99112500Y-87349999I0J-249999D01*
G01*
G37*
%TD*%
%TO.C,R9*%
G36*
G01*
X97212500Y-89749999D02*
X97212500Y-90650001D01*
G75*
G02*
X96962501Y-90900000I-249999J0D01*
G01*
X96437499Y-90900000D01*
G75*
G02*
X96187500Y-90650001I0J249999D01*
G01*
X96187500Y-89749999D01*
G75*
G02*
X96437499Y-89500000I249999J0D01*
G01*
X96962501Y-89500000D01*
G75*
G02*
X97212500Y-89749999I0J-249999D01*
G01*
G37*
G36*
G01*
X99037500Y-89749999D02*
X99037500Y-90650001D01*
G75*
G02*
X98787501Y-90900000I-249999J0D01*
G01*
X98262499Y-90900000D01*
G75*
G02*
X98012500Y-90650001I0J249999D01*
G01*
X98012500Y-89749999D01*
G75*
G02*
X98262499Y-89500000I249999J0D01*
G01*
X98787501Y-89500000D01*
G75*
G02*
X99037500Y-89749999I0J-249999D01*
G01*
G37*
%TD*%
%TO.C,R2*%
G36*
G01*
X131712500Y-90649999D02*
X131712500Y-91550001D01*
G75*
G02*
X131462501Y-91800000I-249999J0D01*
G01*
X130937499Y-91800000D01*
G75*
G02*
X130687500Y-91550001I0J249999D01*
G01*
X130687500Y-90649999D01*
G75*
G02*
X130937499Y-90400000I249999J0D01*
G01*
X131462501Y-90400000D01*
G75*
G02*
X131712500Y-90649999I0J-249999D01*
G01*
G37*
G36*
G01*
X133537500Y-90649999D02*
X133537500Y-91550001D01*
G75*
G02*
X133287501Y-91800000I-249999J0D01*
G01*
X132762499Y-91800000D01*
G75*
G02*
X132512500Y-91550001I0J249999D01*
G01*
X132512500Y-90649999D01*
G75*
G02*
X132762499Y-90400000I249999J0D01*
G01*
X133287501Y-90400000D01*
G75*
G02*
X133537500Y-90649999I0J-249999D01*
G01*
G37*
%TD*%
D13*
%TO.C,Q9*%
X140550000Y-93200000D03*
X139600000Y-91200000D03*
X141500000Y-91200000D03*
%TD*%
D14*
%TO.C,P1*%
X95400000Y-99200000D03*
X97900000Y-99200000D03*
X100400000Y-99200000D03*
X102900000Y-99200000D03*
X105400000Y-99200000D03*
X107900000Y-99200000D03*
X110400000Y-99200000D03*
X112900000Y-99200000D03*
G36*
G01*
X116250000Y-98475000D02*
X116250000Y-99925000D01*
G75*
G02*
X116000000Y-100175000I-250000J0D01*
G01*
X114800000Y-100175000D01*
G75*
G02*
X114550000Y-99925000I0J250000D01*
G01*
X114550000Y-98475000D01*
G75*
G02*
X114800000Y-98225000I250000J0D01*
G01*
X116000000Y-98225000D01*
G75*
G02*
X116250000Y-98475000I0J-250000D01*
G01*
G37*
%TD*%
%TO.C,C10*%
G36*
G01*
X154289999Y-93645000D02*
X155590001Y-93645000D01*
G75*
G02*
X155840000Y-93894999I0J-249999D01*
G01*
X155840000Y-94545001D01*
G75*
G02*
X155590001Y-94795000I-249999J0D01*
G01*
X154289999Y-94795000D01*
G75*
G02*
X154040000Y-94545001I0J249999D01*
G01*
X154040000Y-93894999D01*
G75*
G02*
X154289999Y-93645000I249999J0D01*
G01*
G37*
G36*
G01*
X154289999Y-90695000D02*
X155590001Y-90695000D01*
G75*
G02*
X155840000Y-90944999I0J-249999D01*
G01*
X155840000Y-91595001D01*
G75*
G02*
X155590001Y-91845000I-249999J0D01*
G01*
X154289999Y-91845000D01*
G75*
G02*
X154040000Y-91595001I0J249999D01*
G01*
X154040000Y-90944999D01*
G75*
G02*
X154289999Y-90695000I249999J0D01*
G01*
G37*
%TD*%
%TO.C,C8*%
G36*
G01*
X157909999Y-93645000D02*
X159210001Y-93645000D01*
G75*
G02*
X159460000Y-93894999I0J-249999D01*
G01*
X159460000Y-94545001D01*
G75*
G02*
X159210001Y-94795000I-249999J0D01*
G01*
X157909999Y-94795000D01*
G75*
G02*
X157660000Y-94545001I0J249999D01*
G01*
X157660000Y-93894999D01*
G75*
G02*
X157909999Y-93645000I249999J0D01*
G01*
G37*
G36*
G01*
X157909999Y-90695000D02*
X159210001Y-90695000D01*
G75*
G02*
X159460000Y-90944999I0J-249999D01*
G01*
X159460000Y-91595001D01*
G75*
G02*
X159210001Y-91845000I-249999J0D01*
G01*
X157909999Y-91845000D01*
G75*
G02*
X157660000Y-91595001I0J249999D01*
G01*
X157660000Y-90944999D01*
G75*
G02*
X157909999Y-90695000I249999J0D01*
G01*
G37*
%TD*%
%TO.C,C6*%
G36*
G01*
X150669999Y-93645000D02*
X151970001Y-93645000D01*
G75*
G02*
X152220000Y-93894999I0J-249999D01*
G01*
X152220000Y-94545001D01*
G75*
G02*
X151970001Y-94795000I-249999J0D01*
G01*
X150669999Y-94795000D01*
G75*
G02*
X150420000Y-94545001I0J249999D01*
G01*
X150420000Y-93894999D01*
G75*
G02*
X150669999Y-93645000I249999J0D01*
G01*
G37*
G36*
G01*
X150669999Y-90695000D02*
X151970001Y-90695000D01*
G75*
G02*
X152220000Y-90944999I0J-249999D01*
G01*
X152220000Y-91595001D01*
G75*
G02*
X151970001Y-91845000I-249999J0D01*
G01*
X150669999Y-91845000D01*
G75*
G02*
X150420000Y-91595001I0J249999D01*
G01*
X150420000Y-90944999D01*
G75*
G02*
X150669999Y-90695000I249999J0D01*
G01*
G37*
%TD*%
%TO.C,C2*%
G36*
G01*
X147049999Y-93600000D02*
X148350001Y-93600000D01*
G75*
G02*
X148600000Y-93849999I0J-249999D01*
G01*
X148600000Y-94500001D01*
G75*
G02*
X148350001Y-94750000I-249999J0D01*
G01*
X147049999Y-94750000D01*
G75*
G02*
X146800000Y-94500001I0J249999D01*
G01*
X146800000Y-93849999D01*
G75*
G02*
X147049999Y-93600000I249999J0D01*
G01*
G37*
G36*
G01*
X147049999Y-90650000D02*
X148350001Y-90650000D01*
G75*
G02*
X148600000Y-90899999I0J-249999D01*
G01*
X148600000Y-91550001D01*
G75*
G02*
X148350001Y-91800000I-249999J0D01*
G01*
X147049999Y-91800000D01*
G75*
G02*
X146800000Y-91550001I0J249999D01*
G01*
X146800000Y-90899999D01*
G75*
G02*
X147049999Y-90650000I249999J0D01*
G01*
G37*
%TD*%
D15*
%TO.C,H6*%
X174310749Y-96389251D03*
X171500000Y-95225000D03*
X168689251Y-96389251D03*
X167525000Y-99200000D03*
X168689251Y-102010749D03*
X171500000Y-103175000D03*
X174310749Y-102010749D03*
X175475000Y-99200000D03*
D16*
X171500000Y-99200000D03*
%TD*%
D17*
%TO.C,Q10*%
X154080000Y-97600000D03*
X151540000Y-97600000D03*
D18*
X149000000Y-97600000D03*
D19*
X151540000Y-114260000D03*
%TD*%
%TO.C,R4*%
G36*
G01*
X178612500Y-96849999D02*
X178612500Y-97750001D01*
G75*
G02*
X178362501Y-98000000I-249999J0D01*
G01*
X177837499Y-98000000D01*
G75*
G02*
X177587500Y-97750001I0J249999D01*
G01*
X177587500Y-96849999D01*
G75*
G02*
X177837499Y-96600000I249999J0D01*
G01*
X178362501Y-96600000D01*
G75*
G02*
X178612500Y-96849999I0J-249999D01*
G01*
G37*
G36*
G01*
X180437500Y-96849999D02*
X180437500Y-97750001D01*
G75*
G02*
X180187501Y-98000000I-249999J0D01*
G01*
X179662499Y-98000000D01*
G75*
G02*
X179412500Y-97750001I0J249999D01*
G01*
X179412500Y-96849999D01*
G75*
G02*
X179662499Y-96600000I249999J0D01*
G01*
X180187501Y-96600000D01*
G75*
G02*
X180437500Y-96849999I0J-249999D01*
G01*
G37*
%TD*%
D20*
%TO.C,IC3*%
X184600000Y-100200000D03*
X184600000Y-101470000D03*
X184600000Y-102740000D03*
X184600000Y-104010000D03*
X179176000Y-104010000D03*
X179176000Y-102740000D03*
X179176000Y-101470000D03*
X179176000Y-100200000D03*
%TD*%
%TO.C,C12*%
G36*
G01*
X184100000Y-98150001D02*
X184100000Y-96849999D01*
G75*
G02*
X184349999Y-96600000I249999J0D01*
G01*
X185000001Y-96600000D01*
G75*
G02*
X185250000Y-96849999I0J-249999D01*
G01*
X185250000Y-98150001D01*
G75*
G02*
X185000001Y-98400000I-249999J0D01*
G01*
X184349999Y-98400000D01*
G75*
G02*
X184100000Y-98150001I0J249999D01*
G01*
G37*
G36*
G01*
X181150000Y-98150001D02*
X181150000Y-96849999D01*
G75*
G02*
X181399999Y-96600000I249999J0D01*
G01*
X182050001Y-96600000D01*
G75*
G02*
X182300000Y-96849999I0J-249999D01*
G01*
X182300000Y-98150001D01*
G75*
G02*
X182050001Y-98400000I-249999J0D01*
G01*
X181399999Y-98400000D01*
G75*
G02*
X181150000Y-98150001I0J249999D01*
G01*
G37*
%TD*%
%TO.C,R8*%
G36*
G01*
X162650001Y-104712500D02*
X161749999Y-104712500D01*
G75*
G02*
X161500000Y-104462501I0J249999D01*
G01*
X161500000Y-103937499D01*
G75*
G02*
X161749999Y-103687500I249999J0D01*
G01*
X162650001Y-103687500D01*
G75*
G02*
X162900000Y-103937499I0J-249999D01*
G01*
X162900000Y-104462501D01*
G75*
G02*
X162650001Y-104712500I-249999J0D01*
G01*
G37*
G36*
G01*
X162650001Y-106537500D02*
X161749999Y-106537500D01*
G75*
G02*
X161500000Y-106287501I0J249999D01*
G01*
X161500000Y-105762499D01*
G75*
G02*
X161749999Y-105512500I249999J0D01*
G01*
X162650001Y-105512500D01*
G75*
G02*
X162900000Y-105762499I0J-249999D01*
G01*
X162900000Y-106287501D01*
G75*
G02*
X162650001Y-106537500I-249999J0D01*
G01*
G37*
%TD*%
%TO.C,R7*%
G36*
G01*
X159549999Y-105512500D02*
X160450001Y-105512500D01*
G75*
G02*
X160700000Y-105762499I0J-249999D01*
G01*
X160700000Y-106287501D01*
G75*
G02*
X160450001Y-106537500I-249999J0D01*
G01*
X159549999Y-106537500D01*
G75*
G02*
X159300000Y-106287501I0J249999D01*
G01*
X159300000Y-105762499D01*
G75*
G02*
X159549999Y-105512500I249999J0D01*
G01*
G37*
G36*
G01*
X159549999Y-103687500D02*
X160450001Y-103687500D01*
G75*
G02*
X160700000Y-103937499I0J-249999D01*
G01*
X160700000Y-104462501D01*
G75*
G02*
X160450001Y-104712500I-249999J0D01*
G01*
X159549999Y-104712500D01*
G75*
G02*
X159300000Y-104462501I0J249999D01*
G01*
X159300000Y-103937499D01*
G75*
G02*
X159549999Y-103687500I249999J0D01*
G01*
G37*
%TD*%
%TO.C,R6*%
G36*
G01*
X144249999Y-92587500D02*
X145150001Y-92587500D01*
G75*
G02*
X145400000Y-92837499I0J-249999D01*
G01*
X145400000Y-93362501D01*
G75*
G02*
X145150001Y-93612500I-249999J0D01*
G01*
X144249999Y-93612500D01*
G75*
G02*
X144000000Y-93362501I0J249999D01*
G01*
X144000000Y-92837499D01*
G75*
G02*
X144249999Y-92587500I249999J0D01*
G01*
G37*
G36*
G01*
X144249999Y-90762500D02*
X145150001Y-90762500D01*
G75*
G02*
X145400000Y-91012499I0J-249999D01*
G01*
X145400000Y-91537501D01*
G75*
G02*
X145150001Y-91787500I-249999J0D01*
G01*
X144249999Y-91787500D01*
G75*
G02*
X144000000Y-91537501I0J249999D01*
G01*
X144000000Y-91012499D01*
G75*
G02*
X144249999Y-90762500I249999J0D01*
G01*
G37*
%TD*%
%TO.C,R5*%
G36*
G01*
X136187500Y-92650001D02*
X136187500Y-91749999D01*
G75*
G02*
X136437499Y-91500000I249999J0D01*
G01*
X136962501Y-91500000D01*
G75*
G02*
X137212500Y-91749999I0J-249999D01*
G01*
X137212500Y-92650001D01*
G75*
G02*
X136962501Y-92900000I-249999J0D01*
G01*
X136437499Y-92900000D01*
G75*
G02*
X136187500Y-92650001I0J249999D01*
G01*
G37*
G36*
G01*
X134362500Y-92650001D02*
X134362500Y-91749999D01*
G75*
G02*
X134612499Y-91500000I249999J0D01*
G01*
X135137501Y-91500000D01*
G75*
G02*
X135387500Y-91749999I0J-249999D01*
G01*
X135387500Y-92650001D01*
G75*
G02*
X135137501Y-92900000I-249999J0D01*
G01*
X134612499Y-92900000D01*
G75*
G02*
X134362500Y-92650001I0J249999D01*
G01*
G37*
%TD*%
D21*
%TO.C,JP1*%
G36*
X100500000Y-109549398D02*
G01*
X100475466Y-109549398D01*
X100426635Y-109544588D01*
X100378510Y-109535016D01*
X100331555Y-109520772D01*
X100286222Y-109501995D01*
X100242949Y-109478864D01*
X100202150Y-109451604D01*
X100164221Y-109420476D01*
X100129524Y-109385779D01*
X100098396Y-109347850D01*
X100071136Y-109307051D01*
X100048005Y-109263778D01*
X100029228Y-109218445D01*
X100014984Y-109171490D01*
X100005412Y-109123365D01*
X100000602Y-109074534D01*
X100000602Y-109050000D01*
X100000000Y-109050000D01*
X100000000Y-108550000D01*
X100000602Y-108550000D01*
X100000602Y-108525466D01*
X100005412Y-108476635D01*
X100014984Y-108428510D01*
X100029228Y-108381555D01*
X100048005Y-108336222D01*
X100071136Y-108292949D01*
X100098396Y-108252150D01*
X100129524Y-108214221D01*
X100164221Y-108179524D01*
X100202150Y-108148396D01*
X100242949Y-108121136D01*
X100286222Y-108098005D01*
X100331555Y-108079228D01*
X100378510Y-108064984D01*
X100426635Y-108055412D01*
X100475466Y-108050602D01*
X100500000Y-108050602D01*
X100500000Y-108050000D01*
X101000000Y-108050000D01*
X101000000Y-109550000D01*
X100500000Y-109550000D01*
X100500000Y-109549398D01*
G37*
G36*
X101300000Y-108050000D02*
G01*
X101800000Y-108050000D01*
X101800000Y-108050602D01*
X101824534Y-108050602D01*
X101873365Y-108055412D01*
X101921490Y-108064984D01*
X101968445Y-108079228D01*
X102013778Y-108098005D01*
X102057051Y-108121136D01*
X102097850Y-108148396D01*
X102135779Y-108179524D01*
X102170476Y-108214221D01*
X102201604Y-108252150D01*
X102228864Y-108292949D01*
X102251995Y-108336222D01*
X102270772Y-108381555D01*
X102285016Y-108428510D01*
X102294588Y-108476635D01*
X102299398Y-108525466D01*
X102299398Y-108550000D01*
X102300000Y-108550000D01*
X102300000Y-109050000D01*
X102299398Y-109050000D01*
X102299398Y-109074534D01*
X102294588Y-109123365D01*
X102285016Y-109171490D01*
X102270772Y-109218445D01*
X102251995Y-109263778D01*
X102228864Y-109307051D01*
X102201604Y-109347850D01*
X102170476Y-109385779D01*
X102135779Y-109420476D01*
X102097850Y-109451604D01*
X102057051Y-109478864D01*
X102013778Y-109501995D01*
X101968445Y-109520772D01*
X101921490Y-109535016D01*
X101873365Y-109544588D01*
X101824534Y-109549398D01*
X101800000Y-109549398D01*
X101800000Y-109550000D01*
X101300000Y-109550000D01*
X101300000Y-108050000D01*
G37*
%TD*%
D22*
%TO.C,J1*%
X162700000Y-99100000D03*
G36*
G01*
X159350000Y-99850000D02*
X159350000Y-98350000D01*
G75*
G02*
X159600000Y-98100000I250000J0D01*
G01*
X160800000Y-98100000D01*
G75*
G02*
X161050000Y-98350000I0J-250000D01*
G01*
X161050000Y-99850000D01*
G75*
G02*
X160800000Y-100100000I-250000J0D01*
G01*
X159600000Y-100100000D01*
G75*
G02*
X159350000Y-99850000I0J250000D01*
G01*
G37*
%TD*%
D23*
%TO.C,D2*%
X135100000Y-95100000D03*
X131100000Y-95100000D03*
%TD*%
D24*
%TO.C,C14*%
X143200000Y-100200000D03*
D25*
X138200000Y-100200000D03*
%TD*%
%TO.C,C13*%
G36*
G01*
X100950001Y-103825000D02*
X99649999Y-103825000D01*
G75*
G02*
X99400000Y-103575001I0J249999D01*
G01*
X99400000Y-102924999D01*
G75*
G02*
X99649999Y-102675000I249999J0D01*
G01*
X100950001Y-102675000D01*
G75*
G02*
X101200000Y-102924999I0J-249999D01*
G01*
X101200000Y-103575001D01*
G75*
G02*
X100950001Y-103825000I-249999J0D01*
G01*
G37*
G36*
G01*
X100950001Y-106775000D02*
X99649999Y-106775000D01*
G75*
G02*
X99400000Y-106525001I0J249999D01*
G01*
X99400000Y-105874999D01*
G75*
G02*
X99649999Y-105625000I249999J0D01*
G01*
X100950001Y-105625000D01*
G75*
G02*
X101200000Y-105874999I0J-249999D01*
G01*
X101200000Y-106525001D01*
G75*
G02*
X100950001Y-106775000I-249999J0D01*
G01*
G37*
%TD*%
%TO.C,R3*%
G36*
G01*
X103150002Y-103812500D02*
X102249998Y-103812500D01*
G75*
G02*
X102000000Y-103562502I0J249998D01*
G01*
X102000000Y-103037498D01*
G75*
G02*
X102249998Y-102787500I249998J0D01*
G01*
X103150002Y-102787500D01*
G75*
G02*
X103400000Y-103037498I0J-249998D01*
G01*
X103400000Y-103562502D01*
G75*
G02*
X103150002Y-103812500I-249998J0D01*
G01*
G37*
G36*
G01*
X103150002Y-105637500D02*
X102249998Y-105637500D01*
G75*
G02*
X102000000Y-105387502I0J249998D01*
G01*
X102000000Y-104862498D01*
G75*
G02*
X102249998Y-104612500I249998J0D01*
G01*
X103150002Y-104612500D01*
G75*
G02*
X103400000Y-104862498I0J-249998D01*
G01*
X103400000Y-105387502D01*
G75*
G02*
X103150002Y-105637500I-249998J0D01*
G01*
G37*
%TD*%
D26*
%TO.C,IC2*%
X98075000Y-108732000D03*
X96805000Y-108732000D03*
X95535000Y-108732000D03*
X94265000Y-108732000D03*
X94265000Y-103308000D03*
X95535000Y-103308000D03*
X96805000Y-103308000D03*
X98075000Y-103308000D03*
%TD*%
D27*
%TO.C,H7*%
X118537056Y-80322944D03*
X116840000Y-79620000D03*
X115142944Y-80322944D03*
X114440000Y-82020000D03*
X115142944Y-83717056D03*
X116840000Y-84420000D03*
X118537056Y-83717056D03*
X119240000Y-82020000D03*
D28*
X116840000Y-82020000D03*
%TD*%
D27*
%TO.C,H2*%
X118537056Y-69322944D03*
X116840000Y-68620000D03*
X115142944Y-69322944D03*
X114440000Y-71020000D03*
X115142944Y-72717056D03*
X116840000Y-73420000D03*
X118537056Y-72717056D03*
X119240000Y-71020000D03*
D28*
X116840000Y-71020000D03*
%TD*%
D15*
%TO.C,H5*%
X126980749Y-96459251D03*
X124170000Y-95295000D03*
X121359251Y-96459251D03*
X120195000Y-99270000D03*
X121359251Y-102080749D03*
X124170000Y-103245000D03*
X126980749Y-102080749D03*
X128145000Y-99270000D03*
D16*
X124170000Y-99270000D03*
%TD*%
D15*
%TO.C,H4*%
X86710749Y-96459251D03*
X83900000Y-95295000D03*
X81089251Y-96459251D03*
X79925000Y-99270000D03*
X81089251Y-102080749D03*
X83900000Y-103245000D03*
X86710749Y-102080749D03*
X87875000Y-99270000D03*
D16*
X83900000Y-99270000D03*
%TD*%
D15*
%TO.C,H3*%
X153730749Y-120209251D03*
X150920000Y-119045000D03*
X148109251Y-120209251D03*
X146945000Y-123020000D03*
X148109251Y-125830749D03*
X150920000Y-126995000D03*
X153730749Y-125830749D03*
X154895000Y-123020000D03*
D16*
X150920000Y-123020000D03*
%TD*%
D15*
%TO.C,H1*%
X107980749Y-120209251D03*
X105170000Y-119045000D03*
X102359251Y-120209251D03*
X101195000Y-123020000D03*
X102359251Y-125830749D03*
X105170000Y-126995000D03*
X107980749Y-125830749D03*
X109145000Y-123020000D03*
D16*
X105170000Y-123020000D03*
%TD*%
D29*
%TO.C,Q8*%
X127945000Y-123987000D03*
D30*
X125405000Y-114837000D03*
X130485000Y-114837000D03*
%TD*%
D29*
%TO.C,Q7*%
X162540000Y-123987000D03*
D30*
X160000000Y-114837000D03*
X165080000Y-114837000D03*
%TD*%
D29*
%TO.C,Q6*%
X186395000Y-123987000D03*
D30*
X183855000Y-114837000D03*
X188935000Y-114837000D03*
%TD*%
D29*
%TO.C,Q5*%
X93945000Y-123987000D03*
D30*
X91405000Y-114837000D03*
X96485000Y-114837000D03*
%TD*%
D31*
%TO.C,Q4*%
X198175000Y-106525000D03*
D32*
X189025000Y-109065000D03*
X189025000Y-103985000D03*
%TD*%
D29*
%TO.C,Q3*%
X82395000Y-123987000D03*
D30*
X79855000Y-114837000D03*
X84935000Y-114837000D03*
%TD*%
D29*
%TO.C,Q2*%
X174395000Y-123987000D03*
D30*
X171855000Y-114837000D03*
X176935000Y-114837000D03*
%TD*%
D29*
%TO.C,Q1*%
X116395000Y-123987000D03*
D30*
X113855000Y-114837000D03*
X118935000Y-114837000D03*
%TD*%
%TO.C,C1*%
G36*
G01*
X175969999Y-93645000D02*
X177270001Y-93645000D01*
G75*
G02*
X177520000Y-93894999I0J-249999D01*
G01*
X177520000Y-94545001D01*
G75*
G02*
X177270001Y-94795000I-249999J0D01*
G01*
X175969999Y-94795000D01*
G75*
G02*
X175720000Y-94545001I0J249999D01*
G01*
X175720000Y-93894999D01*
G75*
G02*
X175969999Y-93645000I249999J0D01*
G01*
G37*
G36*
G01*
X175969999Y-90695000D02*
X177270001Y-90695000D01*
G75*
G02*
X177520000Y-90944999I0J-249999D01*
G01*
X177520000Y-91595001D01*
G75*
G02*
X177270001Y-91845000I-249999J0D01*
G01*
X175969999Y-91845000D01*
G75*
G02*
X175720000Y-91595001I0J249999D01*
G01*
X175720000Y-90944999D01*
G75*
G02*
X175969999Y-90695000I249999J0D01*
G01*
G37*
%TD*%
%TO.C,C3*%
G36*
G01*
X181519999Y-93645000D02*
X182820001Y-93645000D01*
G75*
G02*
X183070000Y-93894999I0J-249999D01*
G01*
X183070000Y-94545001D01*
G75*
G02*
X182820001Y-94795000I-249999J0D01*
G01*
X181519999Y-94795000D01*
G75*
G02*
X181270000Y-94545001I0J249999D01*
G01*
X181270000Y-93894999D01*
G75*
G02*
X181519999Y-93645000I249999J0D01*
G01*
G37*
G36*
G01*
X181519999Y-90695000D02*
X182820001Y-90695000D01*
G75*
G02*
X183070000Y-90944999I0J-249999D01*
G01*
X183070000Y-91595001D01*
G75*
G02*
X182820001Y-91845000I-249999J0D01*
G01*
X181519999Y-91845000D01*
G75*
G02*
X181270000Y-91595001I0J249999D01*
G01*
X181270000Y-90944999D01*
G75*
G02*
X181519999Y-90695000I249999J0D01*
G01*
G37*
%TD*%
%TO.C,C4*%
G36*
G01*
X161529999Y-90695000D02*
X162830001Y-90695000D01*
G75*
G02*
X163080000Y-90944999I0J-249999D01*
G01*
X163080000Y-91595001D01*
G75*
G02*
X162830001Y-91845000I-249999J0D01*
G01*
X161529999Y-91845000D01*
G75*
G02*
X161280000Y-91595001I0J249999D01*
G01*
X161280000Y-90944999D01*
G75*
G02*
X161529999Y-90695000I249999J0D01*
G01*
G37*
G36*
G01*
X161529999Y-93645000D02*
X162830001Y-93645000D01*
G75*
G02*
X163080000Y-93894999I0J-249999D01*
G01*
X163080000Y-94545001D01*
G75*
G02*
X162830001Y-94795000I-249999J0D01*
G01*
X161529999Y-94795000D01*
G75*
G02*
X161280000Y-94545001I0J249999D01*
G01*
X161280000Y-93894999D01*
G75*
G02*
X161529999Y-93645000I249999J0D01*
G01*
G37*
%TD*%
%TO.C,C5*%
G36*
G01*
X165149999Y-93645000D02*
X166450001Y-93645000D01*
G75*
G02*
X166700000Y-93894999I0J-249999D01*
G01*
X166700000Y-94545001D01*
G75*
G02*
X166450001Y-94795000I-249999J0D01*
G01*
X165149999Y-94795000D01*
G75*
G02*
X164900000Y-94545001I0J249999D01*
G01*
X164900000Y-93894999D01*
G75*
G02*
X165149999Y-93645000I249999J0D01*
G01*
G37*
G36*
G01*
X165149999Y-90695000D02*
X166450001Y-90695000D01*
G75*
G02*
X166700000Y-90944999I0J-249999D01*
G01*
X166700000Y-91595001D01*
G75*
G02*
X166450001Y-91845000I-249999J0D01*
G01*
X165149999Y-91845000D01*
G75*
G02*
X164900000Y-91595001I0J249999D01*
G01*
X164900000Y-90944999D01*
G75*
G02*
X165149999Y-90695000I249999J0D01*
G01*
G37*
%TD*%
%TO.C,C7*%
G36*
G01*
X184019999Y-93645000D02*
X185320001Y-93645000D01*
G75*
G02*
X185570000Y-93894999I0J-249999D01*
G01*
X185570000Y-94545001D01*
G75*
G02*
X185320001Y-94795000I-249999J0D01*
G01*
X184019999Y-94795000D01*
G75*
G02*
X183770000Y-94545001I0J249999D01*
G01*
X183770000Y-93894999D01*
G75*
G02*
X184019999Y-93645000I249999J0D01*
G01*
G37*
G36*
G01*
X184019999Y-90695000D02*
X185320001Y-90695000D01*
G75*
G02*
X185570000Y-90944999I0J-249999D01*
G01*
X185570000Y-91595001D01*
G75*
G02*
X185320001Y-91845000I-249999J0D01*
G01*
X184019999Y-91845000D01*
G75*
G02*
X183770000Y-91595001I0J249999D01*
G01*
X183770000Y-90944999D01*
G75*
G02*
X184019999Y-90695000I249999J0D01*
G01*
G37*
%TD*%
%TO.C,C9*%
G36*
G01*
X178769999Y-93645000D02*
X180070001Y-93645000D01*
G75*
G02*
X180320000Y-93894999I0J-249999D01*
G01*
X180320000Y-94545001D01*
G75*
G02*
X180070001Y-94795000I-249999J0D01*
G01*
X178769999Y-94795000D01*
G75*
G02*
X178520000Y-94545001I0J249999D01*
G01*
X178520000Y-93894999D01*
G75*
G02*
X178769999Y-93645000I249999J0D01*
G01*
G37*
G36*
G01*
X178769999Y-90695000D02*
X180070001Y-90695000D01*
G75*
G02*
X180320000Y-90944999I0J-249999D01*
G01*
X180320000Y-91595001D01*
G75*
G02*
X180070001Y-91845000I-249999J0D01*
G01*
X178769999Y-91845000D01*
G75*
G02*
X178520000Y-91595001I0J249999D01*
G01*
X178520000Y-90944999D01*
G75*
G02*
X178769999Y-90695000I249999J0D01*
G01*
G37*
%TD*%
%TO.C,D1*%
X142040000Y-114850000D03*
X136960000Y-114850000D03*
D29*
X139500000Y-124000000D03*
%TD*%
D32*
%TO.C,D3*%
X189043000Y-92480000D03*
X189043000Y-97560000D03*
D31*
X198193000Y-95020000D03*
%TD*%
%TO.C,F1*%
G36*
G01*
X202675000Y-71767500D02*
X202675000Y-82272500D01*
G75*
G02*
X197922500Y-87025000I-4752500J0D01*
G01*
X188417500Y-87025000D01*
G75*
G02*
X183665000Y-82272500I0J4752500D01*
G01*
X183665000Y-71767500D01*
G75*
G02*
X188417500Y-67015000I4752500J0D01*
G01*
X197922500Y-67015000D01*
G75*
G02*
X202675000Y-71767500I0J-4752500D01*
G01*
G37*
G36*
G01*
X141715000Y-71767500D02*
X141715000Y-82272500D01*
G75*
G02*
X136962500Y-87025000I-4752500J0D01*
G01*
X127457500Y-87025000D01*
G75*
G02*
X122705000Y-82272500I0J4752500D01*
G01*
X122705000Y-71767500D01*
G75*
G02*
X127457500Y-67015000I4752500J0D01*
G01*
X136962500Y-67015000D01*
G75*
G02*
X141715000Y-71767500I0J-4752500D01*
G01*
G37*
%TD*%
D15*
%TO.C,J4*%
X201730749Y-120209251D03*
X198920000Y-119045000D03*
X196109251Y-120209251D03*
X194945000Y-123020000D03*
X196109251Y-125830749D03*
X198920000Y-126995000D03*
X201730749Y-125830749D03*
X202895000Y-123020000D03*
D16*
X198920000Y-123020000D03*
%TD*%
D33*
%TO.C,U1*%
X132670000Y-99400000D03*
X133940000Y-99400000D03*
D34*
X131400000Y-99400000D03*
%TD*%
D25*
%TO.C,ENC1*%
X223850000Y-107000000D03*
D24*
X226350000Y-107000000D03*
X228850000Y-107000000D03*
D35*
X220750000Y-99500000D03*
X231950000Y-99500000D03*
D24*
X223850000Y-92500000D03*
X228850000Y-92500000D03*
%TD*%
D36*
%TO.C,U1*%
X261600000Y-75940000D03*
X236200000Y-75940000D03*
X261600000Y-78480000D03*
X236200000Y-78480000D03*
X261600000Y-81020000D03*
X236200000Y-81020000D03*
X261600000Y-83560000D03*
X236200000Y-83560000D03*
X261600000Y-86100000D03*
X236200000Y-86100000D03*
X261600000Y-88640000D03*
X236200000Y-88640000D03*
X261600000Y-91180000D03*
X236200000Y-91180000D03*
X261600000Y-93720000D03*
X236200000Y-93720000D03*
X261600000Y-96260000D03*
X236200000Y-96260000D03*
X261600000Y-98800000D03*
X236200000Y-98800000D03*
X261600000Y-101340000D03*
X236200000Y-101340000D03*
X261600000Y-103880000D03*
X236200000Y-103880000D03*
X261600000Y-106420000D03*
X236200000Y-106420000D03*
X261600000Y-108960000D03*
X236200000Y-108960000D03*
X261600000Y-111500000D03*
X236200000Y-111500000D03*
X261600000Y-114040000D03*
X236200000Y-114040000D03*
X261600000Y-116580000D03*
X236200000Y-116580000D03*
X261600000Y-119120000D03*
X236200000Y-119120000D03*
X261600000Y-121660000D03*
X236200000Y-121660000D03*
%TD*%
D37*
%TO.C,P1*%
X215500000Y-105100000D03*
X215500000Y-102600000D03*
X215500000Y-100100000D03*
X215500000Y-97600000D03*
X215500000Y-95100000D03*
X215500000Y-92600000D03*
X215500000Y-90100000D03*
G36*
G01*
X214775000Y-86750000D02*
X216225000Y-86750000D01*
G75*
G02*
X216475000Y-87000000I0J-250000D01*
G01*
X216475000Y-88200000D01*
G75*
G02*
X216225000Y-88450000I-250000J0D01*
G01*
X214775000Y-88450000D01*
G75*
G02*
X214525000Y-88200000I0J250000D01*
G01*
X214525000Y-87000000D01*
G75*
G02*
X214775000Y-86750000I250000J0D01*
G01*
G37*
%TD*%
%TO.C,R14*%
G36*
G01*
X216237500Y-112350001D02*
X216237500Y-111449999D01*
G75*
G02*
X216487499Y-111200000I249999J0D01*
G01*
X217012501Y-111200000D01*
G75*
G02*
X217262500Y-111449999I0J-249999D01*
G01*
X217262500Y-112350001D01*
G75*
G02*
X217012501Y-112600000I-249999J0D01*
G01*
X216487499Y-112600000D01*
G75*
G02*
X216237500Y-112350001I0J249999D01*
G01*
G37*
G36*
G01*
X214412500Y-112350001D02*
X214412500Y-111449999D01*
G75*
G02*
X214662499Y-111200000I249999J0D01*
G01*
X215187501Y-111200000D01*
G75*
G02*
X215437500Y-111449999I0J-249999D01*
G01*
X215437500Y-112350001D01*
G75*
G02*
X215187501Y-112600000I-249999J0D01*
G01*
X214662499Y-112600000D01*
G75*
G02*
X214412500Y-112350001I0J249999D01*
G01*
G37*
%TD*%
%TO.C,R12*%
G36*
G01*
X265812500Y-101950001D02*
X265812500Y-101049999D01*
G75*
G02*
X266062499Y-100800000I249999J0D01*
G01*
X266587501Y-100800000D01*
G75*
G02*
X266837500Y-101049999I0J-249999D01*
G01*
X266837500Y-101950001D01*
G75*
G02*
X266587501Y-102200000I-249999J0D01*
G01*
X266062499Y-102200000D01*
G75*
G02*
X265812500Y-101950001I0J249999D01*
G01*
G37*
G36*
G01*
X263987500Y-101950001D02*
X263987500Y-101049999D01*
G75*
G02*
X264237499Y-100800000I249999J0D01*
G01*
X264762501Y-100800000D01*
G75*
G02*
X265012500Y-101049999I0J-249999D01*
G01*
X265012500Y-101950001D01*
G75*
G02*
X264762501Y-102200000I-249999J0D01*
G01*
X264237499Y-102200000D01*
G75*
G02*
X263987500Y-101950001I0J249999D01*
G01*
G37*
%TD*%
%TO.C,R11*%
G36*
G01*
X232437500Y-110350001D02*
X232437500Y-109449999D01*
G75*
G02*
X232687499Y-109200000I249999J0D01*
G01*
X233212501Y-109200000D01*
G75*
G02*
X233462500Y-109449999I0J-249999D01*
G01*
X233462500Y-110350001D01*
G75*
G02*
X233212501Y-110600000I-249999J0D01*
G01*
X232687499Y-110600000D01*
G75*
G02*
X232437500Y-110350001I0J249999D01*
G01*
G37*
G36*
G01*
X230612500Y-110350001D02*
X230612500Y-109449999D01*
G75*
G02*
X230862499Y-109200000I249999J0D01*
G01*
X231387501Y-109200000D01*
G75*
G02*
X231637500Y-109449999I0J-249999D01*
G01*
X231637500Y-110350001D01*
G75*
G02*
X231387501Y-110600000I-249999J0D01*
G01*
X230862499Y-110600000D01*
G75*
G02*
X230612500Y-110350001I0J249999D01*
G01*
G37*
%TD*%
D12*
%TO.C,Q5*%
X242000000Y-77300000D03*
X240000000Y-78250000D03*
X240000000Y-76350000D03*
%TD*%
%TO.C,Q2*%
X245850000Y-90750000D03*
X247850000Y-89800000D03*
X247850000Y-91700000D03*
%TD*%
%TO.C,Q1*%
X239700000Y-107850000D03*
X241700000Y-106900000D03*
X241700000Y-108800000D03*
%TD*%
D14*
%TO.C,P2*%
X242300000Y-69850000D03*
X244800000Y-69850000D03*
X247300000Y-69850000D03*
X249800000Y-69850000D03*
X252300000Y-69850000D03*
X254800000Y-69850000D03*
X257300000Y-69850000D03*
X259800000Y-69850000D03*
G36*
G01*
X263150000Y-69125000D02*
X263150000Y-70575000D01*
G75*
G02*
X262900000Y-70825000I-250000J0D01*
G01*
X261700000Y-70825000D01*
G75*
G02*
X261450000Y-70575000I0J250000D01*
G01*
X261450000Y-69125000D01*
G75*
G02*
X261700000Y-68875000I250000J0D01*
G01*
X262900000Y-68875000D01*
G75*
G02*
X263150000Y-69125000I0J-250000D01*
G01*
G37*
%TD*%
%TO.C,J3*%
X210150000Y-69900000D03*
X212650000Y-69900000D03*
X215150000Y-69900000D03*
G36*
G01*
X218500000Y-69175000D02*
X218500000Y-70625000D01*
G75*
G02*
X218250000Y-70875000I-250000J0D01*
G01*
X217050000Y-70875000D01*
G75*
G02*
X216800000Y-70625000I0J250000D01*
G01*
X216800000Y-69175000D01*
G75*
G02*
X217050000Y-68925000I250000J0D01*
G01*
X218250000Y-68925000D01*
G75*
G02*
X218500000Y-69175000I0J-250000D01*
G01*
G37*
%TD*%
%TO.C,J1*%
X230650000Y-113750000D03*
X228150000Y-113750000D03*
X225650000Y-113750000D03*
X223150000Y-113750000D03*
G36*
G01*
X219800000Y-114475000D02*
X219800000Y-113025000D01*
G75*
G02*
X220050000Y-112775000I250000J0D01*
G01*
X221250000Y-112775000D01*
G75*
G02*
X221500000Y-113025000I0J-250000D01*
G01*
X221500000Y-114475000D01*
G75*
G02*
X221250000Y-114725000I-250000J0D01*
G01*
X220050000Y-114725000D01*
G75*
G02*
X219800000Y-114475000I0J250000D01*
G01*
G37*
%TD*%
%TO.C,C7*%
G36*
G01*
X216300000Y-110075000D02*
X216300000Y-109125000D01*
G75*
G02*
X216550000Y-108875000I250000J0D01*
G01*
X217050000Y-108875000D01*
G75*
G02*
X217300000Y-109125000I0J-250000D01*
G01*
X217300000Y-110075000D01*
G75*
G02*
X217050000Y-110325000I-250000J0D01*
G01*
X216550000Y-110325000D01*
G75*
G02*
X216300000Y-110075000I0J250000D01*
G01*
G37*
G36*
G01*
X214400000Y-110075000D02*
X214400000Y-109125000D01*
G75*
G02*
X214650000Y-108875000I250000J0D01*
G01*
X215150000Y-108875000D01*
G75*
G02*
X215400000Y-109125000I0J-250000D01*
G01*
X215400000Y-110075000D01*
G75*
G02*
X215150000Y-110325000I-250000J0D01*
G01*
X214650000Y-110325000D01*
G75*
G02*
X214400000Y-110075000I0J250000D01*
G01*
G37*
%TD*%
D37*
%TO.C,J2*%
X267650000Y-91350000D03*
X267650000Y-88850000D03*
G36*
G01*
X266925000Y-85500000D02*
X268375000Y-85500000D01*
G75*
G02*
X268625000Y-85750000I0J-250000D01*
G01*
X268625000Y-86950000D01*
G75*
G02*
X268375000Y-87200000I-250000J0D01*
G01*
X266925000Y-87200000D01*
G75*
G02*
X266675000Y-86950000I0J250000D01*
G01*
X266675000Y-85750000D01*
G75*
G02*
X266925000Y-85500000I250000J0D01*
G01*
G37*
%TD*%
D23*
%TO.C,D3*%
X222300000Y-70050000D03*
X226300000Y-70050000D03*
%TD*%
%TO.C,D2*%
X233800000Y-69950000D03*
X237800000Y-69950000D03*
%TD*%
D24*
%TO.C,BZ1*%
X230550000Y-82800000D03*
D25*
X222950000Y-82800000D03*
%TD*%
D24*
%TO.C,C4*%
X230050000Y-69050000D03*
D25*
X230050000Y-74050000D03*
%TD*%
%TO.C,R1*%
G36*
G01*
X241337500Y-94999999D02*
X241337500Y-95900001D01*
G75*
G02*
X241087501Y-96150000I-249999J0D01*
G01*
X240562499Y-96150000D01*
G75*
G02*
X240312500Y-95900001I0J249999D01*
G01*
X240312500Y-94999999D01*
G75*
G02*
X240562499Y-94750000I249999J0D01*
G01*
X241087501Y-94750000D01*
G75*
G02*
X241337500Y-94999999I0J-249999D01*
G01*
G37*
G36*
G01*
X243162500Y-94999999D02*
X243162500Y-95900001D01*
G75*
G02*
X242912501Y-96150000I-249999J0D01*
G01*
X242387499Y-96150000D01*
G75*
G02*
X242137500Y-95900001I0J249999D01*
G01*
X242137500Y-94999999D01*
G75*
G02*
X242387499Y-94750000I249999J0D01*
G01*
X242912501Y-94750000D01*
G75*
G02*
X243162500Y-94999999I0J-249999D01*
G01*
G37*
%TD*%
%TO.C,C5*%
G36*
G01*
X248425000Y-107000001D02*
X248425000Y-105699999D01*
G75*
G02*
X248674999Y-105450000I249999J0D01*
G01*
X249325001Y-105450000D01*
G75*
G02*
X249575000Y-105699999I0J-249999D01*
G01*
X249575000Y-107000001D01*
G75*
G02*
X249325001Y-107250000I-249999J0D01*
G01*
X248674999Y-107250000D01*
G75*
G02*
X248425000Y-107000001I0J249999D01*
G01*
G37*
G36*
G01*
X245475000Y-107000001D02*
X245475000Y-105699999D01*
G75*
G02*
X245724999Y-105450000I249999J0D01*
G01*
X246375001Y-105450000D01*
G75*
G02*
X246625000Y-105699999I0J-249999D01*
G01*
X246625000Y-107000001D01*
G75*
G02*
X246375001Y-107250000I-249999J0D01*
G01*
X245724999Y-107250000D01*
G75*
G02*
X245475000Y-107000001I0J249999D01*
G01*
G37*
%TD*%
%TO.C,R3*%
G36*
G01*
X241250000Y-102999999D02*
X241250000Y-103900001D01*
G75*
G02*
X241000001Y-104150000I-249999J0D01*
G01*
X240474999Y-104150000D01*
G75*
G02*
X240225000Y-103900001I0J249999D01*
G01*
X240225000Y-102999999D01*
G75*
G02*
X240474999Y-102750000I249999J0D01*
G01*
X241000001Y-102750000D01*
G75*
G02*
X241250000Y-102999999I0J-249999D01*
G01*
G37*
G36*
G01*
X243075000Y-102999999D02*
X243075000Y-103900001D01*
G75*
G02*
X242825001Y-104150000I-249999J0D01*
G01*
X242299999Y-104150000D01*
G75*
G02*
X242050000Y-103900001I0J249999D01*
G01*
X242050000Y-102999999D01*
G75*
G02*
X242299999Y-102750000I249999J0D01*
G01*
X242825001Y-102750000D01*
G75*
G02*
X243075000Y-102999999I0J-249999D01*
G01*
G37*
%TD*%
%TO.C,C3*%
G36*
G01*
X246200000Y-102975000D02*
X246200000Y-103925000D01*
G75*
G02*
X245950000Y-104175000I-250000J0D01*
G01*
X245450000Y-104175000D01*
G75*
G02*
X245200000Y-103925000I0J250000D01*
G01*
X245200000Y-102975000D01*
G75*
G02*
X245450000Y-102725000I250000J0D01*
G01*
X245950000Y-102725000D01*
G75*
G02*
X246200000Y-102975000I0J-250000D01*
G01*
G37*
G36*
G01*
X248100000Y-102975000D02*
X248100000Y-103925000D01*
G75*
G02*
X247850000Y-104175000I-250000J0D01*
G01*
X247350000Y-104175000D01*
G75*
G02*
X247100000Y-103925000I0J250000D01*
G01*
X247100000Y-102975000D01*
G75*
G02*
X247350000Y-102725000I250000J0D01*
G01*
X247850000Y-102725000D01*
G75*
G02*
X248100000Y-102975000I0J-250000D01*
G01*
G37*
%TD*%
%TO.C,C2*%
G36*
G01*
X247050000Y-99925000D02*
X247050000Y-98975000D01*
G75*
G02*
X247300000Y-98725000I250000J0D01*
G01*
X247800000Y-98725000D01*
G75*
G02*
X248050000Y-98975000I0J-250000D01*
G01*
X248050000Y-99925000D01*
G75*
G02*
X247800000Y-100175000I-250000J0D01*
G01*
X247300000Y-100175000D01*
G75*
G02*
X247050000Y-99925000I0J250000D01*
G01*
G37*
G36*
G01*
X245150000Y-99925000D02*
X245150000Y-98975000D01*
G75*
G02*
X245400000Y-98725000I250000J0D01*
G01*
X245900000Y-98725000D01*
G75*
G02*
X246150000Y-98975000I0J-250000D01*
G01*
X246150000Y-99925000D01*
G75*
G02*
X245900000Y-100175000I-250000J0D01*
G01*
X245400000Y-100175000D01*
G75*
G02*
X245150000Y-99925000I0J250000D01*
G01*
G37*
%TD*%
%TO.C,C1*%
G36*
G01*
X246200000Y-94975000D02*
X246200000Y-95925000D01*
G75*
G02*
X245950000Y-96175000I-250000J0D01*
G01*
X245450000Y-96175000D01*
G75*
G02*
X245200000Y-95925000I0J250000D01*
G01*
X245200000Y-94975000D01*
G75*
G02*
X245450000Y-94725000I250000J0D01*
G01*
X245950000Y-94725000D01*
G75*
G02*
X246200000Y-94975000I0J-250000D01*
G01*
G37*
G36*
G01*
X248100000Y-94975000D02*
X248100000Y-95925000D01*
G75*
G02*
X247850000Y-96175000I-250000J0D01*
G01*
X247350000Y-96175000D01*
G75*
G02*
X247100000Y-95925000I0J250000D01*
G01*
X247100000Y-94975000D01*
G75*
G02*
X247350000Y-94725000I250000J0D01*
G01*
X247850000Y-94725000D01*
G75*
G02*
X248100000Y-94975000I0J-250000D01*
G01*
G37*
%TD*%
%TO.C,R2*%
G36*
G01*
X241337500Y-98999999D02*
X241337500Y-99900001D01*
G75*
G02*
X241087501Y-100150000I-249999J0D01*
G01*
X240562499Y-100150000D01*
G75*
G02*
X240312500Y-99900001I0J249999D01*
G01*
X240312500Y-98999999D01*
G75*
G02*
X240562499Y-98750000I249999J0D01*
G01*
X241087501Y-98750000D01*
G75*
G02*
X241337500Y-98999999I0J-249999D01*
G01*
G37*
G36*
G01*
X243162500Y-98999999D02*
X243162500Y-99900001D01*
G75*
G02*
X242912501Y-100150000I-249999J0D01*
G01*
X242387499Y-100150000D01*
G75*
G02*
X242137500Y-99900001I0J249999D01*
G01*
X242137500Y-98999999D01*
G75*
G02*
X242387499Y-98750000I249999J0D01*
G01*
X242912501Y-98750000D01*
G75*
G02*
X243162500Y-98999999I0J-249999D01*
G01*
G37*
%TD*%
%TO.C,R6*%
G36*
G01*
X252877999Y-77698500D02*
X253778001Y-77698500D01*
G75*
G02*
X254028000Y-77948499I0J-249999D01*
G01*
X254028000Y-78473501D01*
G75*
G02*
X253778001Y-78723500I-249999J0D01*
G01*
X252877999Y-78723500D01*
G75*
G02*
X252628000Y-78473501I0J249999D01*
G01*
X252628000Y-77948499D01*
G75*
G02*
X252877999Y-77698500I249999J0D01*
G01*
G37*
G36*
G01*
X252877999Y-75873500D02*
X253778001Y-75873500D01*
G75*
G02*
X254028000Y-76123499I0J-249999D01*
G01*
X254028000Y-76648501D01*
G75*
G02*
X253778001Y-76898500I-249999J0D01*
G01*
X252877999Y-76898500D01*
G75*
G02*
X252628000Y-76648501I0J249999D01*
G01*
X252628000Y-76123499D01*
G75*
G02*
X252877999Y-75873500I249999J0D01*
G01*
G37*
%TD*%
D38*
%TO.C,H3*%
X267450000Y-119500000D03*
D39*
X267450000Y-119500000D03*
%TD*%
%TO.C,C6*%
G36*
G01*
X265850000Y-96675000D02*
X265850000Y-95725000D01*
G75*
G02*
X266100000Y-95475000I250000J0D01*
G01*
X266600000Y-95475000D01*
G75*
G02*
X266850000Y-95725000I0J-250000D01*
G01*
X266850000Y-96675000D01*
G75*
G02*
X266600000Y-96925000I-250000J0D01*
G01*
X266100000Y-96925000D01*
G75*
G02*
X265850000Y-96675000I0J250000D01*
G01*
G37*
G36*
G01*
X263950000Y-96675000D02*
X263950000Y-95725000D01*
G75*
G02*
X264200000Y-95475000I250000J0D01*
G01*
X264700000Y-95475000D01*
G75*
G02*
X264950000Y-95725000I0J-250000D01*
G01*
X264950000Y-96675000D01*
G75*
G02*
X264700000Y-96925000I-250000J0D01*
G01*
X264200000Y-96925000D01*
G75*
G02*
X263950000Y-96675000I0J250000D01*
G01*
G37*
%TD*%
D38*
%TO.C,H1*%
X212100000Y-117000000D03*
D39*
X212100000Y-117000000D03*
%TD*%
D38*
%TO.C,H4*%
X211950000Y-79150000D03*
D39*
X211950000Y-79150000D03*
%TD*%
D38*
%TO.C,H2*%
X267350000Y-79150000D03*
D39*
X267350000Y-79150000D03*
%TD*%
%TO.C,R9*%
G36*
G01*
X255637999Y-82149500D02*
X256538001Y-82149500D01*
G75*
G02*
X256788000Y-82399499I0J-249999D01*
G01*
X256788000Y-82924501D01*
G75*
G02*
X256538001Y-83174500I-249999J0D01*
G01*
X255637999Y-83174500D01*
G75*
G02*
X255388000Y-82924501I0J249999D01*
G01*
X255388000Y-82399499D01*
G75*
G02*
X255637999Y-82149500I249999J0D01*
G01*
G37*
G36*
G01*
X255637999Y-80324500D02*
X256538001Y-80324500D01*
G75*
G02*
X256788000Y-80574499I0J-249999D01*
G01*
X256788000Y-81099501D01*
G75*
G02*
X256538001Y-81349500I-249999J0D01*
G01*
X255637999Y-81349500D01*
G75*
G02*
X255388000Y-81099501I0J249999D01*
G01*
X255388000Y-80574499D01*
G75*
G02*
X255637999Y-80324500I249999J0D01*
G01*
G37*
%TD*%
D29*
%TO.C,U3*%
X248890000Y-119750000D03*
D30*
X246350000Y-110600000D03*
X248890000Y-110600000D03*
X251430000Y-110600000D03*
%TD*%
%TO.C,R8*%
G36*
G01*
X255637999Y-77648000D02*
X256538001Y-77648000D01*
G75*
G02*
X256788000Y-77897999I0J-249999D01*
G01*
X256788000Y-78423001D01*
G75*
G02*
X256538001Y-78673000I-249999J0D01*
G01*
X255637999Y-78673000D01*
G75*
G02*
X255388000Y-78423001I0J249999D01*
G01*
X255388000Y-77897999D01*
G75*
G02*
X255637999Y-77648000I249999J0D01*
G01*
G37*
G36*
G01*
X255637999Y-75823000D02*
X256538001Y-75823000D01*
G75*
G02*
X256788000Y-76072999I0J-249999D01*
G01*
X256788000Y-76598001D01*
G75*
G02*
X256538001Y-76848000I-249999J0D01*
G01*
X255637999Y-76848000D01*
G75*
G02*
X255388000Y-76598001I0J249999D01*
G01*
X255388000Y-76072999D01*
G75*
G02*
X255637999Y-75823000I249999J0D01*
G01*
G37*
%TD*%
%TO.C,R7*%
G36*
G01*
X252877999Y-82049500D02*
X253778001Y-82049500D01*
G75*
G02*
X254028000Y-82299499I0J-249999D01*
G01*
X254028000Y-82824501D01*
G75*
G02*
X253778001Y-83074500I-249999J0D01*
G01*
X252877999Y-83074500D01*
G75*
G02*
X252628000Y-82824501I0J249999D01*
G01*
X252628000Y-82299499D01*
G75*
G02*
X252877999Y-82049500I249999J0D01*
G01*
G37*
G36*
G01*
X252877999Y-80224500D02*
X253778001Y-80224500D01*
G75*
G02*
X254028000Y-80474499I0J-249999D01*
G01*
X254028000Y-80999501D01*
G75*
G02*
X253778001Y-81249500I-249999J0D01*
G01*
X252877999Y-81249500D01*
G75*
G02*
X252628000Y-80999501I0J249999D01*
G01*
X252628000Y-80474499D01*
G75*
G02*
X252877999Y-80224500I249999J0D01*
G01*
G37*
%TD*%
M02*
