%TF.GenerationSoftware,KiCad,Pcbnew,(5.1.9)-1*%
%TF.CreationDate,2021-01-31T20:50:21+01:00*%
%TF.ProjectId,Spotwelderix,53706f74-7765-46c6-9465-7269782e6b69,rev?*%
%TF.SameCoordinates,Original*%
%TF.FileFunction,Soldermask,Top*%
%TF.FilePolarity,Negative*%
%FSLAX46Y46*%
G04 Gerber Fmt 4.6, Leading zero omitted, Abs format (unit mm)*
G04 Created by KiCad (PCBNEW (5.1.9)-1) date 2021-01-31 20:50:21*
%MOMM*%
%LPD*%
G01*
G04 APERTURE LIST*
%ADD10R,0.650000X1.525000*%
%ADD11C,0.800000*%
%ADD12C,6.400000*%
%ADD13C,0.900000*%
%ADD14C,10.600000*%
%ADD15R,10.800000X9.400000*%
%ADD16R,1.100000X4.600000*%
%ADD17R,4.600000X1.100000*%
%ADD18R,9.400000X10.800000*%
%ADD19O,1.700000X1.950000*%
%ADD20R,2.950000X1.495000*%
%ADD21R,0.700000X1.495000*%
%ADD22O,1.050000X1.500000*%
%ADD23R,1.050000X1.500000*%
G04 APERTURE END LIST*
%TO.C,C13*%
G36*
G01*
X101070001Y-105395000D02*
X99769999Y-105395000D01*
G75*
G02*
X99520000Y-105145001I0J249999D01*
G01*
X99520000Y-104494999D01*
G75*
G02*
X99769999Y-104245000I249999J0D01*
G01*
X101070001Y-104245000D01*
G75*
G02*
X101320000Y-104494999I0J-249999D01*
G01*
X101320000Y-105145001D01*
G75*
G02*
X101070001Y-105395000I-249999J0D01*
G01*
G37*
G36*
G01*
X101070001Y-108345000D02*
X99769999Y-108345000D01*
G75*
G02*
X99520000Y-108095001I0J249999D01*
G01*
X99520000Y-107444999D01*
G75*
G02*
X99769999Y-107195000I249999J0D01*
G01*
X101070001Y-107195000D01*
G75*
G02*
X101320000Y-107444999I0J-249999D01*
G01*
X101320000Y-108095001D01*
G75*
G02*
X101070001Y-108345000I-249999J0D01*
G01*
G37*
%TD*%
%TO.C,C12*%
G36*
G01*
X132820001Y-97895000D02*
X131519999Y-97895000D01*
G75*
G02*
X131270000Y-97645001I0J249999D01*
G01*
X131270000Y-96994999D01*
G75*
G02*
X131519999Y-96745000I249999J0D01*
G01*
X132820001Y-96745000D01*
G75*
G02*
X133070000Y-96994999I0J-249999D01*
G01*
X133070000Y-97645001D01*
G75*
G02*
X132820001Y-97895000I-249999J0D01*
G01*
G37*
G36*
G01*
X132820001Y-100845000D02*
X131519999Y-100845000D01*
G75*
G02*
X131270000Y-100595001I0J249999D01*
G01*
X131270000Y-99944999D01*
G75*
G02*
X131519999Y-99695000I249999J0D01*
G01*
X132820001Y-99695000D01*
G75*
G02*
X133070000Y-99944999I0J-249999D01*
G01*
X133070000Y-100595001D01*
G75*
G02*
X132820001Y-100845000I-249999J0D01*
G01*
G37*
%TD*%
%TO.C,C11*%
G36*
G01*
X161820001Y-102595000D02*
X160519999Y-102595000D01*
G75*
G02*
X160270000Y-102345001I0J249999D01*
G01*
X160270000Y-101694999D01*
G75*
G02*
X160519999Y-101445000I249999J0D01*
G01*
X161820001Y-101445000D01*
G75*
G02*
X162070000Y-101694999I0J-249999D01*
G01*
X162070000Y-102345001D01*
G75*
G02*
X161820001Y-102595000I-249999J0D01*
G01*
G37*
G36*
G01*
X161820001Y-105545000D02*
X160519999Y-105545000D01*
G75*
G02*
X160270000Y-105295001I0J249999D01*
G01*
X160270000Y-104644999D01*
G75*
G02*
X160519999Y-104395000I249999J0D01*
G01*
X161820001Y-104395000D01*
G75*
G02*
X162070000Y-104644999I0J-249999D01*
G01*
X162070000Y-105295001D01*
G75*
G02*
X161820001Y-105545000I-249999J0D01*
G01*
G37*
%TD*%
%TO.C,R4*%
G36*
G01*
X160719999Y-99507500D02*
X161620001Y-99507500D01*
G75*
G02*
X161870000Y-99757499I0J-249999D01*
G01*
X161870000Y-100282501D01*
G75*
G02*
X161620001Y-100532500I-249999J0D01*
G01*
X160719999Y-100532500D01*
G75*
G02*
X160470000Y-100282501I0J249999D01*
G01*
X160470000Y-99757499D01*
G75*
G02*
X160719999Y-99507500I249999J0D01*
G01*
G37*
G36*
G01*
X160719999Y-97682500D02*
X161620001Y-97682500D01*
G75*
G02*
X161870000Y-97932499I0J-249999D01*
G01*
X161870000Y-98457501D01*
G75*
G02*
X161620001Y-98707500I-249999J0D01*
G01*
X160719999Y-98707500D01*
G75*
G02*
X160470000Y-98457501I0J249999D01*
G01*
X160470000Y-97932499D01*
G75*
G02*
X160719999Y-97682500I249999J0D01*
G01*
G37*
%TD*%
%TO.C,R3*%
G36*
G01*
X102969999Y-104170000D02*
X103870001Y-104170000D01*
G75*
G02*
X104120000Y-104419999I0J-249999D01*
G01*
X104120000Y-104945001D01*
G75*
G02*
X103870001Y-105195000I-249999J0D01*
G01*
X102969999Y-105195000D01*
G75*
G02*
X102720000Y-104945001I0J249999D01*
G01*
X102720000Y-104419999D01*
G75*
G02*
X102969999Y-104170000I249999J0D01*
G01*
G37*
G36*
G01*
X102969999Y-102345000D02*
X103870001Y-102345000D01*
G75*
G02*
X104120000Y-102594999I0J-249999D01*
G01*
X104120000Y-103120001D01*
G75*
G02*
X103870001Y-103370000I-249999J0D01*
G01*
X102969999Y-103370000D01*
G75*
G02*
X102720000Y-103120001I0J249999D01*
G01*
X102720000Y-102594999D01*
G75*
G02*
X102969999Y-102345000I249999J0D01*
G01*
G37*
%TD*%
%TO.C,R2*%
G36*
G01*
X139719999Y-99257500D02*
X140620001Y-99257500D01*
G75*
G02*
X140870000Y-99507499I0J-249999D01*
G01*
X140870000Y-100032501D01*
G75*
G02*
X140620001Y-100282500I-249999J0D01*
G01*
X139719999Y-100282500D01*
G75*
G02*
X139470000Y-100032501I0J249999D01*
G01*
X139470000Y-99507499D01*
G75*
G02*
X139719999Y-99257500I249999J0D01*
G01*
G37*
G36*
G01*
X139719999Y-97432500D02*
X140620001Y-97432500D01*
G75*
G02*
X140870000Y-97682499I0J-249999D01*
G01*
X140870000Y-98207501D01*
G75*
G02*
X140620001Y-98457500I-249999J0D01*
G01*
X139719999Y-98457500D01*
G75*
G02*
X139470000Y-98207501I0J249999D01*
G01*
X139470000Y-97682499D01*
G75*
G02*
X139719999Y-97432500I249999J0D01*
G01*
G37*
%TD*%
D10*
%TO.C,IC3*%
X157710000Y-104444000D03*
X156440000Y-104444000D03*
X155170000Y-104444000D03*
X153900000Y-104444000D03*
X153900000Y-99020000D03*
X155170000Y-99020000D03*
X156440000Y-99020000D03*
X157710000Y-99020000D03*
%TD*%
%TO.C,IC2*%
X98075000Y-108732000D03*
X96805000Y-108732000D03*
X95535000Y-108732000D03*
X94265000Y-108732000D03*
X94265000Y-103308000D03*
X95535000Y-103308000D03*
X96805000Y-103308000D03*
X98075000Y-103308000D03*
%TD*%
D11*
%TO.C,H7*%
X118537056Y-80322944D03*
X116840000Y-79620000D03*
X115142944Y-80322944D03*
X114440000Y-82020000D03*
X115142944Y-83717056D03*
X116840000Y-84420000D03*
X118537056Y-83717056D03*
X119240000Y-82020000D03*
D12*
X116840000Y-82020000D03*
%TD*%
D11*
%TO.C,H2*%
X118537056Y-69322944D03*
X116840000Y-68620000D03*
X115142944Y-69322944D03*
X114440000Y-71020000D03*
X115142944Y-72717056D03*
X116840000Y-73420000D03*
X118537056Y-72717056D03*
X119240000Y-71020000D03*
D12*
X116840000Y-71020000D03*
%TD*%
D13*
%TO.C,H6*%
X172730749Y-96459251D03*
X169920000Y-95295000D03*
X167109251Y-96459251D03*
X165945000Y-99270000D03*
X167109251Y-102080749D03*
X169920000Y-103245000D03*
X172730749Y-102080749D03*
X173895000Y-99270000D03*
D14*
X169920000Y-99270000D03*
%TD*%
D13*
%TO.C,H5*%
X126980749Y-96459251D03*
X124170000Y-95295000D03*
X121359251Y-96459251D03*
X120195000Y-99270000D03*
X121359251Y-102080749D03*
X124170000Y-103245000D03*
X126980749Y-102080749D03*
X128145000Y-99270000D03*
D14*
X124170000Y-99270000D03*
%TD*%
D13*
%TO.C,H4*%
X87980749Y-96459251D03*
X85170000Y-95295000D03*
X82359251Y-96459251D03*
X81195000Y-99270000D03*
X82359251Y-102080749D03*
X85170000Y-103245000D03*
X87980749Y-102080749D03*
X89145000Y-99270000D03*
D14*
X85170000Y-99270000D03*
%TD*%
D13*
%TO.C,H3*%
X153730749Y-120209251D03*
X150920000Y-119045000D03*
X148109251Y-120209251D03*
X146945000Y-123020000D03*
X148109251Y-125830749D03*
X150920000Y-126995000D03*
X153730749Y-125830749D03*
X154895000Y-123020000D03*
D14*
X150920000Y-123020000D03*
%TD*%
D13*
%TO.C,H1*%
X107980749Y-120209251D03*
X105170000Y-119045000D03*
X102359251Y-120209251D03*
X101195000Y-123020000D03*
X102359251Y-125830749D03*
X105170000Y-126995000D03*
X107980749Y-125830749D03*
X109145000Y-123020000D03*
D14*
X105170000Y-123020000D03*
%TD*%
D15*
%TO.C,Q8*%
X127945000Y-123987000D03*
D16*
X125405000Y-114837000D03*
X130485000Y-114837000D03*
%TD*%
D15*
%TO.C,Q7*%
X162395000Y-123987000D03*
D16*
X159855000Y-114837000D03*
X164935000Y-114837000D03*
%TD*%
D15*
%TO.C,Q6*%
X186395000Y-123987000D03*
D16*
X183855000Y-114837000D03*
X188935000Y-114837000D03*
%TD*%
D15*
%TO.C,Q5*%
X93945000Y-123987000D03*
D16*
X91405000Y-114837000D03*
X96485000Y-114837000D03*
%TD*%
D15*
%TO.C,Q4*%
X139395000Y-123987000D03*
D16*
X136855000Y-114837000D03*
X141935000Y-114837000D03*
%TD*%
D15*
%TO.C,Q3*%
X82395000Y-123987000D03*
D16*
X79855000Y-114837000D03*
X84935000Y-114837000D03*
%TD*%
D15*
%TO.C,Q2*%
X174395000Y-123987000D03*
D16*
X171855000Y-114837000D03*
X176935000Y-114837000D03*
%TD*%
D15*
%TO.C,Q1*%
X116395000Y-123987000D03*
D16*
X113855000Y-114837000D03*
X118935000Y-114837000D03*
%TD*%
%TO.C,C1*%
G36*
G01*
X175769999Y-93670000D02*
X177070001Y-93670000D01*
G75*
G02*
X177320000Y-93919999I0J-249999D01*
G01*
X177320000Y-94570001D01*
G75*
G02*
X177070001Y-94820000I-249999J0D01*
G01*
X175769999Y-94820000D01*
G75*
G02*
X175520000Y-94570001I0J249999D01*
G01*
X175520000Y-93919999D01*
G75*
G02*
X175769999Y-93670000I249999J0D01*
G01*
G37*
G36*
G01*
X175769999Y-90720000D02*
X177070001Y-90720000D01*
G75*
G02*
X177320000Y-90969999I0J-249999D01*
G01*
X177320000Y-91620001D01*
G75*
G02*
X177070001Y-91870000I-249999J0D01*
G01*
X175769999Y-91870000D01*
G75*
G02*
X175520000Y-91620001I0J249999D01*
G01*
X175520000Y-90969999D01*
G75*
G02*
X175769999Y-90720000I249999J0D01*
G01*
G37*
%TD*%
%TO.C,C2*%
G36*
G01*
X153403999Y-90995000D02*
X154704001Y-90995000D01*
G75*
G02*
X154954000Y-91244999I0J-249999D01*
G01*
X154954000Y-91895001D01*
G75*
G02*
X154704001Y-92145000I-249999J0D01*
G01*
X153403999Y-92145000D01*
G75*
G02*
X153154000Y-91895001I0J249999D01*
G01*
X153154000Y-91244999D01*
G75*
G02*
X153403999Y-90995000I249999J0D01*
G01*
G37*
G36*
G01*
X153403999Y-93945000D02*
X154704001Y-93945000D01*
G75*
G02*
X154954000Y-94194999I0J-249999D01*
G01*
X154954000Y-94845001D01*
G75*
G02*
X154704001Y-95095000I-249999J0D01*
G01*
X153403999Y-95095000D01*
G75*
G02*
X153154000Y-94845001I0J249999D01*
G01*
X153154000Y-94194999D01*
G75*
G02*
X153403999Y-93945000I249999J0D01*
G01*
G37*
%TD*%
%TO.C,C3*%
G36*
G01*
X181519999Y-93645000D02*
X182820001Y-93645000D01*
G75*
G02*
X183070000Y-93894999I0J-249999D01*
G01*
X183070000Y-94545001D01*
G75*
G02*
X182820001Y-94795000I-249999J0D01*
G01*
X181519999Y-94795000D01*
G75*
G02*
X181270000Y-94545001I0J249999D01*
G01*
X181270000Y-93894999D01*
G75*
G02*
X181519999Y-93645000I249999J0D01*
G01*
G37*
G36*
G01*
X181519999Y-90695000D02*
X182820001Y-90695000D01*
G75*
G02*
X183070000Y-90944999I0J-249999D01*
G01*
X183070000Y-91595001D01*
G75*
G02*
X182820001Y-91845000I-249999J0D01*
G01*
X181519999Y-91845000D01*
G75*
G02*
X181270000Y-91595001I0J249999D01*
G01*
X181270000Y-90944999D01*
G75*
G02*
X181519999Y-90695000I249999J0D01*
G01*
G37*
%TD*%
%TO.C,C4*%
G36*
G01*
X162269999Y-90995000D02*
X163570001Y-90995000D01*
G75*
G02*
X163820000Y-91244999I0J-249999D01*
G01*
X163820000Y-91895001D01*
G75*
G02*
X163570001Y-92145000I-249999J0D01*
G01*
X162269999Y-92145000D01*
G75*
G02*
X162020000Y-91895001I0J249999D01*
G01*
X162020000Y-91244999D01*
G75*
G02*
X162269999Y-90995000I249999J0D01*
G01*
G37*
G36*
G01*
X162269999Y-93945000D02*
X163570001Y-93945000D01*
G75*
G02*
X163820000Y-94194999I0J-249999D01*
G01*
X163820000Y-94845001D01*
G75*
G02*
X163570001Y-95095000I-249999J0D01*
G01*
X162269999Y-95095000D01*
G75*
G02*
X162020000Y-94845001I0J249999D01*
G01*
X162020000Y-94194999D01*
G75*
G02*
X162269999Y-93945000I249999J0D01*
G01*
G37*
%TD*%
%TO.C,C5*%
G36*
G01*
X157975999Y-93945000D02*
X159276001Y-93945000D01*
G75*
G02*
X159526000Y-94194999I0J-249999D01*
G01*
X159526000Y-94845001D01*
G75*
G02*
X159276001Y-95095000I-249999J0D01*
G01*
X157975999Y-95095000D01*
G75*
G02*
X157726000Y-94845001I0J249999D01*
G01*
X157726000Y-94194999D01*
G75*
G02*
X157975999Y-93945000I249999J0D01*
G01*
G37*
G36*
G01*
X157975999Y-90995000D02*
X159276001Y-90995000D01*
G75*
G02*
X159526000Y-91244999I0J-249999D01*
G01*
X159526000Y-91895001D01*
G75*
G02*
X159276001Y-92145000I-249999J0D01*
G01*
X157975999Y-92145000D01*
G75*
G02*
X157726000Y-91895001I0J249999D01*
G01*
X157726000Y-91244999D01*
G75*
G02*
X157975999Y-90995000I249999J0D01*
G01*
G37*
%TD*%
%TO.C,C6*%
G36*
G01*
X145470998Y-90995000D02*
X146771000Y-90995000D01*
G75*
G02*
X147020999Y-91244999I0J-249999D01*
G01*
X147020999Y-91895001D01*
G75*
G02*
X146771000Y-92145000I-249999J0D01*
G01*
X145470998Y-92145000D01*
G75*
G02*
X145220999Y-91895001I0J249999D01*
G01*
X145220999Y-91244999D01*
G75*
G02*
X145470998Y-90995000I249999J0D01*
G01*
G37*
G36*
G01*
X145470998Y-93945000D02*
X146771000Y-93945000D01*
G75*
G02*
X147020999Y-94194999I0J-249999D01*
G01*
X147020999Y-94845001D01*
G75*
G02*
X146771000Y-95095000I-249999J0D01*
G01*
X145470998Y-95095000D01*
G75*
G02*
X145220999Y-94845001I0J249999D01*
G01*
X145220999Y-94194999D01*
G75*
G02*
X145470998Y-93945000I249999J0D01*
G01*
G37*
%TD*%
%TO.C,C7*%
G36*
G01*
X184019999Y-93645000D02*
X185320001Y-93645000D01*
G75*
G02*
X185570000Y-93894999I0J-249999D01*
G01*
X185570000Y-94545001D01*
G75*
G02*
X185320001Y-94795000I-249999J0D01*
G01*
X184019999Y-94795000D01*
G75*
G02*
X183770000Y-94545001I0J249999D01*
G01*
X183770000Y-93894999D01*
G75*
G02*
X184019999Y-93645000I249999J0D01*
G01*
G37*
G36*
G01*
X184019999Y-90695000D02*
X185320001Y-90695000D01*
G75*
G02*
X185570000Y-90944999I0J-249999D01*
G01*
X185570000Y-91595001D01*
G75*
G02*
X185320001Y-91845000I-249999J0D01*
G01*
X184019999Y-91845000D01*
G75*
G02*
X183770000Y-91595001I0J249999D01*
G01*
X183770000Y-90944999D01*
G75*
G02*
X184019999Y-90695000I249999J0D01*
G01*
G37*
%TD*%
%TO.C,C8*%
G36*
G01*
X149339999Y-90995000D02*
X150640001Y-90995000D01*
G75*
G02*
X150890000Y-91244999I0J-249999D01*
G01*
X150890000Y-91895001D01*
G75*
G02*
X150640001Y-92145000I-249999J0D01*
G01*
X149339999Y-92145000D01*
G75*
G02*
X149090000Y-91895001I0J249999D01*
G01*
X149090000Y-91244999D01*
G75*
G02*
X149339999Y-90995000I249999J0D01*
G01*
G37*
G36*
G01*
X149339999Y-93945000D02*
X150640001Y-93945000D01*
G75*
G02*
X150890000Y-94194999I0J-249999D01*
G01*
X150890000Y-94845001D01*
G75*
G02*
X150640001Y-95095000I-249999J0D01*
G01*
X149339999Y-95095000D01*
G75*
G02*
X149090000Y-94845001I0J249999D01*
G01*
X149090000Y-94194999D01*
G75*
G02*
X149339999Y-93945000I249999J0D01*
G01*
G37*
%TD*%
%TO.C,C9*%
G36*
G01*
X178769999Y-93645000D02*
X180070001Y-93645000D01*
G75*
G02*
X180320000Y-93894999I0J-249999D01*
G01*
X180320000Y-94545001D01*
G75*
G02*
X180070001Y-94795000I-249999J0D01*
G01*
X178769999Y-94795000D01*
G75*
G02*
X178520000Y-94545001I0J249999D01*
G01*
X178520000Y-93894999D01*
G75*
G02*
X178769999Y-93645000I249999J0D01*
G01*
G37*
G36*
G01*
X178769999Y-90695000D02*
X180070001Y-90695000D01*
G75*
G02*
X180320000Y-90944999I0J-249999D01*
G01*
X180320000Y-91595001D01*
G75*
G02*
X180070001Y-91845000I-249999J0D01*
G01*
X178769999Y-91845000D01*
G75*
G02*
X178520000Y-91595001I0J249999D01*
G01*
X178520000Y-90944999D01*
G75*
G02*
X178769999Y-90695000I249999J0D01*
G01*
G37*
%TD*%
%TO.C,C10*%
G36*
G01*
X141211999Y-90995000D02*
X142512001Y-90995000D01*
G75*
G02*
X142762000Y-91244999I0J-249999D01*
G01*
X142762000Y-91895001D01*
G75*
G02*
X142512001Y-92145000I-249999J0D01*
G01*
X141211999Y-92145000D01*
G75*
G02*
X140962000Y-91895001I0J249999D01*
G01*
X140962000Y-91244999D01*
G75*
G02*
X141211999Y-90995000I249999J0D01*
G01*
G37*
G36*
G01*
X141211999Y-93945000D02*
X142512001Y-93945000D01*
G75*
G02*
X142762000Y-94194999I0J-249999D01*
G01*
X142762000Y-94845001D01*
G75*
G02*
X142512001Y-95095000I-249999J0D01*
G01*
X141211999Y-95095000D01*
G75*
G02*
X140962000Y-94845001I0J249999D01*
G01*
X140962000Y-94194999D01*
G75*
G02*
X141211999Y-93945000I249999J0D01*
G01*
G37*
%TD*%
D17*
%TO.C,D1*%
X189020000Y-103980000D03*
X189020000Y-109060000D03*
D18*
X198170000Y-106520000D03*
%TD*%
D17*
%TO.C,D3*%
X189043000Y-92480000D03*
X189043000Y-97560000D03*
D18*
X198193000Y-95020000D03*
%TD*%
%TO.C,F1*%
G36*
G01*
X202675000Y-71767500D02*
X202675000Y-82272500D01*
G75*
G02*
X197922500Y-87025000I-4752500J0D01*
G01*
X188417500Y-87025000D01*
G75*
G02*
X183665000Y-82272500I0J4752500D01*
G01*
X183665000Y-71767500D01*
G75*
G02*
X188417500Y-67015000I4752500J0D01*
G01*
X197922500Y-67015000D01*
G75*
G02*
X202675000Y-71767500I0J-4752500D01*
G01*
G37*
G36*
G01*
X141715000Y-71767500D02*
X141715000Y-82272500D01*
G75*
G02*
X136962500Y-87025000I-4752500J0D01*
G01*
X127457500Y-87025000D01*
G75*
G02*
X122705000Y-82272500I0J4752500D01*
G01*
X122705000Y-71767500D01*
G75*
G02*
X127457500Y-67015000I4752500J0D01*
G01*
X136962500Y-67015000D01*
G75*
G02*
X141715000Y-71767500I0J-4752500D01*
G01*
G37*
%TD*%
D10*
%TO.C,IC1*%
X138075000Y-96308000D03*
X136805000Y-96308000D03*
X135535000Y-96308000D03*
X134265000Y-96308000D03*
X134265000Y-101732000D03*
X135535000Y-101732000D03*
X136805000Y-101732000D03*
X138075000Y-101732000D03*
%TD*%
D13*
%TO.C,J4*%
X201730749Y-120209251D03*
X198920000Y-119045000D03*
X196109251Y-120209251D03*
X194945000Y-123020000D03*
X196109251Y-125830749D03*
X198920000Y-126995000D03*
X201730749Y-125830749D03*
X202895000Y-123020000D03*
D14*
X198920000Y-123020000D03*
%TD*%
D19*
%TO.C,P1*%
X95670000Y-99020000D03*
X98170000Y-99020000D03*
X100670000Y-99020000D03*
X103170000Y-99020000D03*
X105670000Y-99020000D03*
X108170000Y-99020000D03*
X110670000Y-99020000D03*
G36*
G01*
X114020000Y-98295000D02*
X114020000Y-99745000D01*
G75*
G02*
X113770000Y-99995000I-250000J0D01*
G01*
X112570000Y-99995000D01*
G75*
G02*
X112320000Y-99745000I0J250000D01*
G01*
X112320000Y-98295000D01*
G75*
G02*
X112570000Y-98045000I250000J0D01*
G01*
X113770000Y-98045000D01*
G75*
G02*
X114020000Y-98295000I0J-250000D01*
G01*
G37*
%TD*%
D20*
%TO.C,R1*%
X111770000Y-90073000D03*
D21*
X109445000Y-90073000D03*
X109445000Y-87967000D03*
D20*
X111770000Y-87967000D03*
%TD*%
D22*
%TO.C,U1*%
X148440000Y-99020000D03*
X149710000Y-99020000D03*
D23*
X147170000Y-99020000D03*
%TD*%
M02*
