%TF.GenerationSoftware,KiCad,Pcbnew,(5.1.9)-1*%
%TF.CreationDate,2021-01-31T20:50:21+01:00*%
%TF.ProjectId,Spotwelderix,53706f74-7765-46c6-9465-7269782e6b69,rev?*%
%TF.SameCoordinates,Original*%
%TF.FileFunction,Copper,L2,Bot*%
%TF.FilePolarity,Positive*%
%FSLAX46Y46*%
G04 Gerber Fmt 4.6, Leading zero omitted, Abs format (unit mm)*
G04 Created by KiCad (PCBNEW (5.1.9)-1) date 2021-01-31 20:50:21*
%MOMM*%
%LPD*%
G01*
G04 APERTURE LIST*
%TA.AperFunction,ComponentPad*%
%ADD10C,0.800000*%
%TD*%
%TA.AperFunction,ComponentPad*%
%ADD11C,6.400000*%
%TD*%
%TA.AperFunction,ComponentPad*%
%ADD12C,0.900000*%
%TD*%
%TA.AperFunction,ComponentPad*%
%ADD13C,10.600000*%
%TD*%
%TA.AperFunction,ComponentPad*%
%ADD14O,1.700000X1.950000*%
%TD*%
%TA.AperFunction,ComponentPad*%
%ADD15O,1.050000X1.500000*%
%TD*%
%TA.AperFunction,ComponentPad*%
%ADD16R,1.050000X1.500000*%
%TD*%
%TA.AperFunction,ViaPad*%
%ADD17C,0.800000*%
%TD*%
%TA.AperFunction,Conductor*%
%ADD18C,0.250000*%
%TD*%
%TA.AperFunction,Conductor*%
%ADD19C,0.254000*%
%TD*%
%TA.AperFunction,Conductor*%
%ADD20C,0.100000*%
%TD*%
G04 APERTURE END LIST*
D10*
%TO.P,H7,1*%
%TO.N,GND*%
X118537056Y-80322944D03*
X116840000Y-79620000D03*
X115142944Y-80322944D03*
X114440000Y-82020000D03*
X115142944Y-83717056D03*
X116840000Y-84420000D03*
X118537056Y-83717056D03*
X119240000Y-82020000D03*
D11*
X116840000Y-82020000D03*
%TD*%
D10*
%TO.P,H2,1*%
%TO.N,+BATT*%
X118537056Y-69322944D03*
X116840000Y-68620000D03*
X115142944Y-69322944D03*
X114440000Y-71020000D03*
X115142944Y-72717056D03*
X116840000Y-73420000D03*
X118537056Y-72717056D03*
X119240000Y-71020000D03*
D11*
X116840000Y-71020000D03*
%TD*%
D12*
%TO.P,H6,1*%
%TO.N,FET_GND*%
X172730749Y-96459251D03*
X169920000Y-95295000D03*
X167109251Y-96459251D03*
X165945000Y-99270000D03*
X167109251Y-102080749D03*
X169920000Y-103245000D03*
X172730749Y-102080749D03*
X173895000Y-99270000D03*
D13*
X169920000Y-99270000D03*
%TD*%
D12*
%TO.P,H5,1*%
%TO.N,FET_GND*%
X126980749Y-96459251D03*
X124170000Y-95295000D03*
X121359251Y-96459251D03*
X120195000Y-99270000D03*
X121359251Y-102080749D03*
X124170000Y-103245000D03*
X126980749Y-102080749D03*
X128145000Y-99270000D03*
D13*
X124170000Y-99270000D03*
%TD*%
D12*
%TO.P,H4,1*%
%TO.N,FET_GND*%
X87980749Y-96459251D03*
X85170000Y-95295000D03*
X82359251Y-96459251D03*
X81195000Y-99270000D03*
X82359251Y-102080749D03*
X85170000Y-103245000D03*
X87980749Y-102080749D03*
X89145000Y-99270000D03*
D13*
X85170000Y-99270000D03*
%TD*%
D12*
%TO.P,H3,1*%
%TO.N,Probe-*%
X153730749Y-120209251D03*
X150920000Y-119045000D03*
X148109251Y-120209251D03*
X146945000Y-123020000D03*
X148109251Y-125830749D03*
X150920000Y-126995000D03*
X153730749Y-125830749D03*
X154895000Y-123020000D03*
D13*
X150920000Y-123020000D03*
%TD*%
D12*
%TO.P,H1,1*%
%TO.N,Probe-*%
X107980749Y-120209251D03*
X105170000Y-119045000D03*
X102359251Y-120209251D03*
X101195000Y-123020000D03*
X102359251Y-125830749D03*
X105170000Y-126995000D03*
X107980749Y-125830749D03*
X109145000Y-123020000D03*
D13*
X105170000Y-123020000D03*
%TD*%
%TO.P,F1,1*%
%TO.N,VCC*%
%TA.AperFunction,ComponentPad*%
G36*
G01*
X202675000Y-71767500D02*
X202675000Y-82272500D01*
G75*
G02*
X197922500Y-87025000I-4752500J0D01*
G01*
X188417500Y-87025000D01*
G75*
G02*
X183665000Y-82272500I0J4752500D01*
G01*
X183665000Y-71767500D01*
G75*
G02*
X188417500Y-67015000I4752500J0D01*
G01*
X197922500Y-67015000D01*
G75*
G02*
X202675000Y-71767500I0J-4752500D01*
G01*
G37*
%TD.AperFunction*%
%TO.P,F1,2*%
%TO.N,+BATT*%
%TA.AperFunction,ComponentPad*%
G36*
G01*
X141715000Y-71767500D02*
X141715000Y-82272500D01*
G75*
G02*
X136962500Y-87025000I-4752500J0D01*
G01*
X127457500Y-87025000D01*
G75*
G02*
X122705000Y-82272500I0J4752500D01*
G01*
X122705000Y-71767500D01*
G75*
G02*
X127457500Y-67015000I4752500J0D01*
G01*
X136962500Y-67015000D01*
G75*
G02*
X141715000Y-71767500I0J-4752500D01*
G01*
G37*
%TD.AperFunction*%
%TD*%
D12*
%TO.P,J4,1*%
%TO.N,Probe-*%
X201730749Y-120209251D03*
X198920000Y-119045000D03*
X196109251Y-120209251D03*
X194945000Y-123020000D03*
X196109251Y-125830749D03*
X198920000Y-126995000D03*
X201730749Y-125830749D03*
X202895000Y-123020000D03*
D13*
X198920000Y-123020000D03*
%TD*%
D14*
%TO.P,P1,8*%
%TO.N,R_Schunt_L*%
X95670000Y-99020000D03*
%TO.P,P1,7*%
%TO.N,R_Schunt_H*%
X98170000Y-99020000D03*
%TO.P,P1,6*%
%TO.N,+5V*%
X100670000Y-99020000D03*
%TO.P,P1,5*%
%TO.N,Probe-*%
X103170000Y-99020000D03*
%TO.P,P1,4*%
%TO.N,Dallas*%
X105670000Y-99020000D03*
%TO.P,P1,3*%
%TO.N,Gate_logic*%
X108170000Y-99020000D03*
%TO.P,P1,2*%
%TO.N,VCC*%
X110670000Y-99020000D03*
%TO.P,P1,1*%
%TO.N,GND*%
%TA.AperFunction,ComponentPad*%
G36*
G01*
X114020000Y-98295000D02*
X114020000Y-99745000D01*
G75*
G02*
X113770000Y-99995000I-250000J0D01*
G01*
X112570000Y-99995000D01*
G75*
G02*
X112320000Y-99745000I0J250000D01*
G01*
X112320000Y-98295000D01*
G75*
G02*
X112570000Y-98045000I250000J0D01*
G01*
X113770000Y-98045000D01*
G75*
G02*
X114020000Y-98295000I0J-250000D01*
G01*
G37*
%TD.AperFunction*%
%TD*%
D15*
%TO.P,U1,2*%
%TO.N,Dallas*%
X148440000Y-99020000D03*
%TO.P,U1,3*%
%TO.N,+5V*%
X149710000Y-99020000D03*
D16*
%TO.P,U1,1*%
%TO.N,GND*%
X147170000Y-99020000D03*
%TD*%
D17*
%TO.N,GND*%
X184670000Y-92770000D03*
X182170000Y-92770000D03*
X179420000Y-92770000D03*
X176420000Y-92770000D03*
X162920000Y-93020000D03*
X158626000Y-93064000D03*
X146120999Y-92819001D03*
X141862000Y-93078000D03*
X149990000Y-92840000D03*
X135420000Y-92270000D03*
X156593749Y-100846251D03*
X155670000Y-92520000D03*
X119500000Y-95000000D03*
%TO.N,VCC*%
X104420000Y-107770000D03*
X120500000Y-94500000D03*
%TO.N,Gate_logic*%
X143670000Y-97270000D03*
X151920000Y-97270000D03*
X131670000Y-96020000D03*
X135000000Y-98000000D03*
X138055000Y-97945000D03*
%TO.N,Gate*%
X86170000Y-116020000D03*
X94170000Y-116020000D03*
X94170000Y-113020000D03*
X94170000Y-107020000D03*
X105420000Y-114770000D03*
X116670000Y-114770000D03*
X120920000Y-114770000D03*
X128920000Y-114770000D03*
X132420000Y-114770000D03*
X140170000Y-114770000D03*
X156920000Y-114770000D03*
X162420000Y-114770000D03*
X167420000Y-114770000D03*
X174670000Y-114770000D03*
X179170000Y-114770000D03*
X186670000Y-114770000D03*
X156420000Y-107020000D03*
X156670000Y-111270000D03*
X131920000Y-104270000D03*
X130420000Y-110270000D03*
%TO.N,Dallas*%
X147920000Y-94270000D03*
%TO.N,+5V*%
X149670000Y-96020000D03*
X108682653Y-97032653D03*
%TO.N,R_Schunt_H*%
X98170000Y-90020000D03*
%TO.N,R_Schunt_L*%
X95670000Y-88020000D03*
%TO.N,FET_GND*%
X77930000Y-91244999D03*
X77930000Y-95244999D03*
X77930000Y-99244999D03*
X77930000Y-103244999D03*
X77930000Y-107244999D03*
X77930000Y-111244999D03*
X78930000Y-88244999D03*
X79930000Y-93244999D03*
X79930000Y-105244999D03*
X79930000Y-109244999D03*
X80930000Y-90244999D03*
X81930000Y-107244999D03*
X81930000Y-111244999D03*
X82930000Y-88244999D03*
X82930000Y-92244999D03*
X82930000Y-114244999D03*
X83930000Y-105244999D03*
X83930000Y-109244999D03*
X84930000Y-90244999D03*
X85930000Y-107244999D03*
X85930000Y-111244999D03*
X86930000Y-88244999D03*
X86930000Y-92244999D03*
X86930000Y-114244999D03*
X87930000Y-105244999D03*
X87930000Y-109244999D03*
X88930000Y-90244999D03*
X88930000Y-112244999D03*
X89930000Y-93244999D03*
X89930000Y-103244999D03*
X89930000Y-107244999D03*
X90930000Y-88244999D03*
X90930000Y-96244999D03*
X90930000Y-110244999D03*
X91930000Y-91244999D03*
X91930000Y-99244999D03*
X91930000Y-105244999D03*
X92930000Y-94244999D03*
X92930000Y-102244999D03*
X93930000Y-89244999D03*
X93930000Y-97244999D03*
X94930000Y-92244999D03*
X94930000Y-111244999D03*
X95930000Y-101244999D03*
X95930000Y-106244999D03*
X96930000Y-94244999D03*
X97930000Y-110244999D03*
X98930000Y-92244999D03*
X98930000Y-96244999D03*
X98930000Y-113244999D03*
X99930000Y-89244999D03*
X99930000Y-101244999D03*
X99930000Y-106244999D03*
X100930000Y-94244999D03*
X100930000Y-109244999D03*
X101930000Y-91244999D03*
X101930000Y-103244999D03*
X101930000Y-112244999D03*
X103930000Y-93244999D03*
X103930000Y-101244999D03*
X103930000Y-110244999D03*
X104930000Y-96244999D03*
X104930000Y-113244999D03*
X105930000Y-91244999D03*
X105930000Y-106244999D03*
X106930000Y-94244999D03*
X106930000Y-109244999D03*
X107930000Y-112244999D03*
X108930000Y-92244999D03*
X108930000Y-105244999D03*
X109930000Y-108244999D03*
X110930000Y-103244999D03*
X110930000Y-111244999D03*
X111930000Y-106244999D03*
X112930000Y-101244999D03*
X112930000Y-109244999D03*
X113930000Y-104244999D03*
X114930000Y-107244999D03*
X114930000Y-111244999D03*
X115930000Y-98244999D03*
X115930000Y-102244999D03*
X116930000Y-105244999D03*
X116930000Y-109244999D03*
X116930000Y-113244999D03*
X117930000Y-100244999D03*
X118930000Y-103244999D03*
X118930000Y-107244999D03*
X118930000Y-111244999D03*
X120930000Y-105244999D03*
X120930000Y-109244999D03*
X120930000Y-113244999D03*
X122930000Y-107244999D03*
X122930000Y-111244999D03*
X124930000Y-105244999D03*
X124930000Y-109244999D03*
X126930000Y-107244999D03*
X126930000Y-111244999D03*
X127930000Y-104244999D03*
X128930000Y-109244999D03*
X128930000Y-113244999D03*
X129930000Y-101244999D03*
X131930000Y-106244999D03*
X131930000Y-110244999D03*
X132930000Y-113244999D03*
X133930000Y-99244999D03*
X133930000Y-104244999D03*
X133930000Y-108244999D03*
X134930000Y-111244999D03*
X135930000Y-106244999D03*
X136930000Y-109244999D03*
X137930000Y-103244999D03*
X138930000Y-107244999D03*
X138930000Y-111244999D03*
X139930000Y-96244999D03*
X140930000Y-102244999D03*
X140930000Y-109244999D03*
X141930000Y-105244999D03*
X142930000Y-111244999D03*
X143930000Y-100244999D03*
X143930000Y-107244999D03*
X144930000Y-103244999D03*
X144930000Y-113244999D03*
X145930000Y-109244999D03*
X146930000Y-101244999D03*
X146930000Y-105244999D03*
X147930000Y-111244999D03*
X148930000Y-103244999D03*
X148930000Y-107244999D03*
X149930000Y-113244999D03*
X150930000Y-101244999D03*
X150930000Y-105244999D03*
X150930000Y-109244999D03*
X152930000Y-103244999D03*
X152930000Y-107244999D03*
X152930000Y-111244999D03*
X153930000Y-96244999D03*
X154930000Y-109244999D03*
X154930000Y-113244999D03*
X157930000Y-96244999D03*
X157930000Y-106244999D03*
X158930000Y-99244999D03*
X158930000Y-109244999D03*
X160930000Y-95244999D03*
X160930000Y-103244999D03*
X160930000Y-107244999D03*
X160930000Y-111244999D03*
X162930000Y-97244999D03*
X162930000Y-101244999D03*
X162930000Y-105244999D03*
X162930000Y-109244999D03*
X162930000Y-113244999D03*
X164930000Y-95244999D03*
X164930000Y-107244999D03*
X164930000Y-111244999D03*
X166930000Y-109244999D03*
X166930000Y-113244999D03*
X167930000Y-106244999D03*
X168930000Y-111244999D03*
X169930000Y-108244999D03*
X171930000Y-106244999D03*
X171930000Y-110244999D03*
X173930000Y-95244999D03*
X173930000Y-108244999D03*
X173930000Y-112244999D03*
X174930000Y-104244999D03*
X175930000Y-97244999D03*
X175930000Y-101244999D03*
X175930000Y-110244999D03*
X176930000Y-106244999D03*
X177930000Y-99244999D03*
X177930000Y-103244999D03*
X178930000Y-96244999D03*
X178930000Y-108244999D03*
X178930000Y-112244999D03*
X179930000Y-101244999D03*
X179930000Y-105244999D03*
X180930000Y-98244999D03*
X180930000Y-110244999D03*
X181930000Y-103244999D03*
X181930000Y-107244999D03*
X181930000Y-113244999D03*
X182930000Y-96244999D03*
X182930000Y-100244999D03*
X183930000Y-105244999D03*
X183930000Y-111244999D03*
X184930000Y-98244999D03*
X184930000Y-102244999D03*
X184930000Y-108244999D03*
X185930000Y-113244999D03*
X186930000Y-96244999D03*
X186930000Y-100244999D03*
X186930000Y-106244999D03*
X117930000Y-96244999D03*
%TO.N,Probe-*%
X77670000Y-117020000D03*
%TD*%
D18*
%TO.N,GND*%
X156593749Y-100846251D02*
X156593749Y-92346251D01*
X147370999Y-92819001D02*
X148170000Y-92020000D01*
X146120999Y-92819001D02*
X147370999Y-92819001D01*
X148170000Y-92020000D02*
X148670000Y-92520000D01*
X149670000Y-92520000D02*
X149990000Y-92840000D01*
X148670000Y-92520000D02*
X149670000Y-92520000D01*
X156420000Y-92520000D02*
X156593749Y-92346251D01*
X155670000Y-92520000D02*
X156420000Y-92520000D01*
X156593749Y-92346251D02*
X156593749Y-92443749D01*
X157214000Y-93064000D02*
X158626000Y-93064000D01*
X156593749Y-92443749D02*
X157214000Y-93064000D01*
X162876000Y-93064000D02*
X162920000Y-93020000D01*
X158626000Y-93064000D02*
X162876000Y-93064000D01*
X176170000Y-93020000D02*
X176420000Y-92770000D01*
X162920000Y-93020000D02*
X176170000Y-93020000D01*
X176420000Y-92770000D02*
X179420000Y-92770000D01*
X179420000Y-92770000D02*
X182170000Y-92770000D01*
X182170000Y-92770000D02*
X184670000Y-92770000D01*
X150310000Y-92520000D02*
X149990000Y-92840000D01*
X155670000Y-92520000D02*
X150310000Y-92520000D01*
X145862000Y-93078000D02*
X146120999Y-92819001D01*
X141862000Y-93078000D02*
X145862000Y-93078000D01*
X136228000Y-93078000D02*
X135420000Y-92270000D01*
X141862000Y-93078000D02*
X136228000Y-93078000D01*
X113170000Y-99020000D02*
X116420000Y-95770000D01*
X117190000Y-95000000D02*
X119500000Y-95000000D01*
X116420000Y-95770000D02*
X117190000Y-95000000D01*
%TO.N,VCC*%
X104420000Y-105270000D02*
X110670000Y-99020000D01*
X104420000Y-107770000D02*
X104420000Y-105270000D01*
X110670000Y-99020000D02*
X115420000Y-94270000D01*
X120270000Y-94270000D02*
X120500000Y-94500000D01*
X115420000Y-94270000D02*
X120270000Y-94270000D01*
%TO.N,Gate_logic*%
X143670000Y-97270000D02*
X151920000Y-97270000D01*
X108170000Y-99020000D02*
X108170000Y-98770000D01*
X108170000Y-98770000D02*
X113670000Y-93270000D01*
X113670000Y-93270000D02*
X127670000Y-93270000D01*
X130420000Y-96020000D02*
X131670000Y-96020000D01*
X127670000Y-93270000D02*
X130420000Y-96020000D01*
X138000000Y-98000000D02*
X138055000Y-97945000D01*
X135000000Y-98000000D02*
X138000000Y-98000000D01*
%TO.N,Gate*%
X86170000Y-116020000D02*
X94170000Y-116020000D01*
X94170000Y-113020000D02*
X94170000Y-107020000D01*
X105420000Y-114770000D02*
X116670000Y-114770000D01*
X120920000Y-114770000D02*
X128920000Y-114770000D01*
X132420000Y-114770000D02*
X140170000Y-114770000D01*
X156920000Y-114770000D02*
X162420000Y-114770000D01*
X167420000Y-114770000D02*
X174670000Y-114770000D01*
X179170000Y-114770000D02*
X186670000Y-114770000D01*
X156420000Y-111020000D02*
X156670000Y-111270000D01*
X156420000Y-107020000D02*
X156420000Y-111020000D01*
X131920000Y-104270000D02*
X130420000Y-105770000D01*
X130420000Y-105770000D02*
X130420000Y-110270000D01*
%TO.N,Dallas*%
X146670000Y-94020000D02*
X130670000Y-94020000D01*
X130670000Y-94020000D02*
X128420000Y-91770000D01*
X112920000Y-91770000D02*
X105670000Y-99020000D01*
X128420000Y-91770000D02*
X112920000Y-91770000D01*
X146920000Y-94270000D02*
X146670000Y-94020000D01*
X147920000Y-94270000D02*
X146920000Y-94270000D01*
%TO.N,+5V*%
X149670000Y-96020000D02*
X148670000Y-95020000D01*
X148670000Y-95020000D02*
X130420000Y-95020000D01*
X130420000Y-95020000D02*
X127920000Y-92520000D01*
X127920000Y-92520000D02*
X113170000Y-92520000D01*
X113170000Y-92545306D02*
X108682653Y-97032653D01*
X113170000Y-92520000D02*
X113170000Y-92545306D01*
%TO.N,R_Schunt_H*%
X98170000Y-90020000D02*
X98170000Y-99020000D01*
%TO.N,R_Schunt_L*%
X95670000Y-88020000D02*
X95670000Y-99020000D01*
%TO.N,Probe-*%
X103170000Y-99020000D02*
X103170000Y-87270000D01*
X103170000Y-87270000D02*
X102920000Y-87020000D01*
X102920000Y-87020000D02*
X88844998Y-87020000D01*
X88844998Y-87020000D02*
X76920000Y-87020000D01*
X76920000Y-116270000D02*
X77670000Y-117020000D01*
X76920000Y-87020000D02*
X76920000Y-116270000D01*
%TD*%
D19*
%TO.N,GND*%
X117012895Y-78188860D02*
X116617867Y-78172853D01*
X115871593Y-78290111D01*
X115162536Y-78550706D01*
X114887336Y-78697803D01*
X114504476Y-79156974D01*
X114763313Y-79415811D01*
X114743495Y-79537415D01*
X115142944Y-79936864D01*
X115213655Y-79866153D01*
X115599735Y-80252233D01*
X115529024Y-80322944D01*
X115928473Y-80722393D01*
X116050077Y-80702575D01*
X116840000Y-81492498D01*
X116854142Y-81478356D01*
X117381644Y-82005858D01*
X117367502Y-82020000D01*
X118157425Y-82809923D01*
X118137607Y-82931527D01*
X118537056Y-83330976D01*
X118607767Y-83260265D01*
X118993847Y-83646345D01*
X118923136Y-83717056D01*
X119322585Y-84116505D01*
X119444189Y-84096687D01*
X119703026Y-84355524D01*
X120162197Y-83972664D01*
X120479308Y-83287016D01*
X120566279Y-82926706D01*
X121039429Y-83557572D01*
X120793439Y-86509453D01*
X120794728Y-86540879D01*
X121294728Y-89540879D01*
X121301208Y-89564917D01*
X121312254Y-89587229D01*
X121327440Y-89606957D01*
X121346183Y-89623344D01*
X121367763Y-89635759D01*
X121391350Y-89643726D01*
X121416266Y-89646945D01*
X129916266Y-89896945D01*
X129920000Y-89897000D01*
X185793000Y-89897000D01*
X185793000Y-93017538D01*
X130115613Y-92815075D01*
X128761245Y-91460708D01*
X128746842Y-91443158D01*
X128676798Y-91385674D01*
X128596886Y-91342960D01*
X128510176Y-91316657D01*
X128442590Y-91310000D01*
X128442582Y-91310000D01*
X128420000Y-91307776D01*
X128397418Y-91310000D01*
X116389354Y-91310000D01*
X114279603Y-87705842D01*
X114264980Y-87685693D01*
X114246708Y-87668783D01*
X114225487Y-87655763D01*
X114202135Y-87647133D01*
X114173097Y-87643038D01*
X104047000Y-87396060D01*
X104047000Y-84883026D01*
X114504476Y-84883026D01*
X114887336Y-85342197D01*
X115572984Y-85659308D01*
X116307324Y-85836562D01*
X117062133Y-85867147D01*
X117808407Y-85749889D01*
X118517464Y-85489294D01*
X118792664Y-85342197D01*
X119175524Y-84883026D01*
X118916687Y-84624189D01*
X118936505Y-84502585D01*
X118537056Y-84103136D01*
X118466345Y-84173847D01*
X118080265Y-83787767D01*
X118150976Y-83717056D01*
X117751527Y-83317607D01*
X117629923Y-83337425D01*
X116840000Y-82547502D01*
X116050077Y-83337425D01*
X115928473Y-83317607D01*
X115529024Y-83717056D01*
X115599735Y-83787767D01*
X115213655Y-84173847D01*
X115142944Y-84103136D01*
X114743495Y-84502585D01*
X114763313Y-84624189D01*
X114504476Y-84883026D01*
X104047000Y-84883026D01*
X104047000Y-82242133D01*
X112992853Y-82242133D01*
X113110111Y-82988407D01*
X113370706Y-83697464D01*
X113517803Y-83972664D01*
X113976974Y-84355524D01*
X114235811Y-84096687D01*
X114357415Y-84116505D01*
X114756864Y-83717056D01*
X114686153Y-83646345D01*
X115072233Y-83260265D01*
X115142944Y-83330976D01*
X115542393Y-82931527D01*
X115522575Y-82809923D01*
X116312498Y-82020000D01*
X115522575Y-81230077D01*
X115542393Y-81108473D01*
X115142944Y-80709024D01*
X115072233Y-80779735D01*
X114686153Y-80393655D01*
X114756864Y-80322944D01*
X114357415Y-79923495D01*
X114235811Y-79943313D01*
X113976974Y-79684476D01*
X113517803Y-80067336D01*
X113200692Y-80752984D01*
X113023438Y-81487324D01*
X112992853Y-82242133D01*
X104047000Y-82242133D01*
X104047000Y-77647000D01*
X116606500Y-77647000D01*
X117012895Y-78188860D01*
%TA.AperFunction,Conductor*%
D20*
G36*
X117012895Y-78188860D02*
G01*
X116617867Y-78172853D01*
X115871593Y-78290111D01*
X115162536Y-78550706D01*
X114887336Y-78697803D01*
X114504476Y-79156974D01*
X114763313Y-79415811D01*
X114743495Y-79537415D01*
X115142944Y-79936864D01*
X115213655Y-79866153D01*
X115599735Y-80252233D01*
X115529024Y-80322944D01*
X115928473Y-80722393D01*
X116050077Y-80702575D01*
X116840000Y-81492498D01*
X116854142Y-81478356D01*
X117381644Y-82005858D01*
X117367502Y-82020000D01*
X118157425Y-82809923D01*
X118137607Y-82931527D01*
X118537056Y-83330976D01*
X118607767Y-83260265D01*
X118993847Y-83646345D01*
X118923136Y-83717056D01*
X119322585Y-84116505D01*
X119444189Y-84096687D01*
X119703026Y-84355524D01*
X120162197Y-83972664D01*
X120479308Y-83287016D01*
X120566279Y-82926706D01*
X121039429Y-83557572D01*
X120793439Y-86509453D01*
X120794728Y-86540879D01*
X121294728Y-89540879D01*
X121301208Y-89564917D01*
X121312254Y-89587229D01*
X121327440Y-89606957D01*
X121346183Y-89623344D01*
X121367763Y-89635759D01*
X121391350Y-89643726D01*
X121416266Y-89646945D01*
X129916266Y-89896945D01*
X129920000Y-89897000D01*
X185793000Y-89897000D01*
X185793000Y-93017538D01*
X130115613Y-92815075D01*
X128761245Y-91460708D01*
X128746842Y-91443158D01*
X128676798Y-91385674D01*
X128596886Y-91342960D01*
X128510176Y-91316657D01*
X128442590Y-91310000D01*
X128442582Y-91310000D01*
X128420000Y-91307776D01*
X128397418Y-91310000D01*
X116389354Y-91310000D01*
X114279603Y-87705842D01*
X114264980Y-87685693D01*
X114246708Y-87668783D01*
X114225487Y-87655763D01*
X114202135Y-87647133D01*
X114173097Y-87643038D01*
X104047000Y-87396060D01*
X104047000Y-84883026D01*
X114504476Y-84883026D01*
X114887336Y-85342197D01*
X115572984Y-85659308D01*
X116307324Y-85836562D01*
X117062133Y-85867147D01*
X117808407Y-85749889D01*
X118517464Y-85489294D01*
X118792664Y-85342197D01*
X119175524Y-84883026D01*
X118916687Y-84624189D01*
X118936505Y-84502585D01*
X118537056Y-84103136D01*
X118466345Y-84173847D01*
X118080265Y-83787767D01*
X118150976Y-83717056D01*
X117751527Y-83317607D01*
X117629923Y-83337425D01*
X116840000Y-82547502D01*
X116050077Y-83337425D01*
X115928473Y-83317607D01*
X115529024Y-83717056D01*
X115599735Y-83787767D01*
X115213655Y-84173847D01*
X115142944Y-84103136D01*
X114743495Y-84502585D01*
X114763313Y-84624189D01*
X114504476Y-84883026D01*
X104047000Y-84883026D01*
X104047000Y-82242133D01*
X112992853Y-82242133D01*
X113110111Y-82988407D01*
X113370706Y-83697464D01*
X113517803Y-83972664D01*
X113976974Y-84355524D01*
X114235811Y-84096687D01*
X114357415Y-84116505D01*
X114756864Y-83717056D01*
X114686153Y-83646345D01*
X115072233Y-83260265D01*
X115142944Y-83330976D01*
X115542393Y-82931527D01*
X115522575Y-82809923D01*
X116312498Y-82020000D01*
X115522575Y-81230077D01*
X115542393Y-81108473D01*
X115142944Y-80709024D01*
X115072233Y-80779735D01*
X114686153Y-80393655D01*
X114756864Y-80322944D01*
X114357415Y-79923495D01*
X114235811Y-79943313D01*
X113976974Y-79684476D01*
X113517803Y-80067336D01*
X113200692Y-80752984D01*
X113023438Y-81487324D01*
X112992853Y-82242133D01*
X104047000Y-82242133D01*
X104047000Y-77647000D01*
X116606500Y-77647000D01*
X117012895Y-78188860D01*
G37*
%TD.AperFunction*%
%TD*%
D19*
%TO.N,+BATT*%
X143043000Y-88893000D02*
X129471855Y-88893000D01*
X127593346Y-87052061D01*
X131830250Y-87052000D01*
X131837000Y-87045250D01*
X131837000Y-77393000D01*
X132583000Y-77393000D01*
X132583000Y-87045250D01*
X132589750Y-87052000D01*
X141715000Y-87052131D01*
X141720293Y-87051610D01*
X141725383Y-87050066D01*
X141730073Y-87047559D01*
X141734185Y-87044185D01*
X141737559Y-87040073D01*
X141740066Y-87035383D01*
X141741610Y-87030293D01*
X141742131Y-87025000D01*
X141742000Y-77399750D01*
X141735250Y-77393000D01*
X132583000Y-77393000D01*
X131837000Y-77393000D01*
X122684750Y-77393000D01*
X122678000Y-77399750D01*
X122677934Y-82234957D01*
X117008891Y-76679295D01*
X116989487Y-76663696D01*
X116967413Y-76652182D01*
X116943517Y-76645196D01*
X116920000Y-76643000D01*
X104297000Y-76643000D01*
X104297000Y-73556600D01*
X114830902Y-73556600D01*
X115248455Y-73845160D01*
X115830197Y-74101370D01*
X116450745Y-74239165D01*
X117086253Y-74253250D01*
X117712297Y-74143083D01*
X118304819Y-73912898D01*
X118431545Y-73845160D01*
X118849098Y-73556600D01*
X118430434Y-73137936D01*
X118502256Y-73137936D01*
X118510758Y-73145316D01*
X118571856Y-73137936D01*
X118537056Y-73103136D01*
X118502256Y-73137936D01*
X118430434Y-73137936D01*
X117983256Y-72690758D01*
X118108796Y-72690758D01*
X118116176Y-72751856D01*
X118150976Y-72717056D01*
X118923136Y-72717056D01*
X118957936Y-72751856D01*
X118965316Y-72743354D01*
X118957936Y-72682256D01*
X118923136Y-72717056D01*
X118150976Y-72717056D01*
X118116176Y-72682256D01*
X118108796Y-72690758D01*
X117983256Y-72690758D01*
X117588674Y-72296176D01*
X118502256Y-72296176D01*
X118537056Y-72330976D01*
X118571856Y-72296176D01*
X118563354Y-72288796D01*
X118502256Y-72296176D01*
X117588674Y-72296176D01*
X116840000Y-71547502D01*
X114830902Y-73556600D01*
X104297000Y-73556600D01*
X104297000Y-73137936D01*
X115108144Y-73137936D01*
X115116646Y-73145316D01*
X115177744Y-73137936D01*
X115142944Y-73103136D01*
X115108144Y-73137936D01*
X104297000Y-73137936D01*
X104297000Y-71266253D01*
X113606750Y-71266253D01*
X113716917Y-71892297D01*
X113947102Y-72484819D01*
X114014840Y-72611545D01*
X114303400Y-73029098D01*
X114641740Y-72690758D01*
X114714684Y-72690758D01*
X114722064Y-72751856D01*
X114756864Y-72717056D01*
X115529024Y-72717056D01*
X115563824Y-72751856D01*
X115571204Y-72743354D01*
X115563824Y-72682256D01*
X115529024Y-72717056D01*
X114756864Y-72717056D01*
X114722064Y-72682256D01*
X114714684Y-72690758D01*
X114641740Y-72690758D01*
X115036322Y-72296176D01*
X115108144Y-72296176D01*
X115142944Y-72330976D01*
X115177744Y-72296176D01*
X115169242Y-72288796D01*
X115108144Y-72296176D01*
X115036322Y-72296176D01*
X116312498Y-71020000D01*
X117367502Y-71020000D01*
X119376600Y-73029098D01*
X119665160Y-72611545D01*
X119921370Y-72029803D01*
X120059165Y-71409255D01*
X120073250Y-70773747D01*
X119963083Y-70147703D01*
X119732898Y-69555181D01*
X119665160Y-69428455D01*
X119376600Y-69010902D01*
X117367502Y-71020000D01*
X116312498Y-71020000D01*
X115036322Y-69743824D01*
X115108144Y-69743824D01*
X115116646Y-69751204D01*
X115177744Y-69743824D01*
X115142944Y-69709024D01*
X115108144Y-69743824D01*
X115036322Y-69743824D01*
X114589144Y-69296646D01*
X114714684Y-69296646D01*
X114722064Y-69357744D01*
X114756864Y-69322944D01*
X115529024Y-69322944D01*
X115563824Y-69357744D01*
X115571204Y-69349242D01*
X115563824Y-69288144D01*
X115529024Y-69322944D01*
X114756864Y-69322944D01*
X114722064Y-69288144D01*
X114714684Y-69296646D01*
X114589144Y-69296646D01*
X114303400Y-69010902D01*
X114014840Y-69428455D01*
X113758630Y-70010197D01*
X113620835Y-70630745D01*
X113606750Y-71266253D01*
X104297000Y-71266253D01*
X104297000Y-68902064D01*
X115108144Y-68902064D01*
X115142944Y-68936864D01*
X115177744Y-68902064D01*
X115169242Y-68894684D01*
X115108144Y-68902064D01*
X104297000Y-68902064D01*
X104297000Y-68483400D01*
X114830902Y-68483400D01*
X116840000Y-70492498D01*
X117588674Y-69743824D01*
X118502256Y-69743824D01*
X118510758Y-69751204D01*
X118571856Y-69743824D01*
X118537056Y-69709024D01*
X118502256Y-69743824D01*
X117588674Y-69743824D01*
X118035852Y-69296646D01*
X118108796Y-69296646D01*
X118116176Y-69357744D01*
X118150976Y-69322944D01*
X118923136Y-69322944D01*
X118957936Y-69357744D01*
X118965316Y-69349242D01*
X118957936Y-69288144D01*
X118923136Y-69322944D01*
X118150976Y-69322944D01*
X118116176Y-69288144D01*
X118108796Y-69296646D01*
X118035852Y-69296646D01*
X118430434Y-68902064D01*
X118502256Y-68902064D01*
X118537056Y-68936864D01*
X118571856Y-68902064D01*
X118563354Y-68894684D01*
X118502256Y-68902064D01*
X118430434Y-68902064D01*
X118849098Y-68483400D01*
X118431545Y-68194840D01*
X117849803Y-67938630D01*
X117229255Y-67800835D01*
X116593747Y-67786750D01*
X115967703Y-67896917D01*
X115375181Y-68127102D01*
X115248455Y-68194840D01*
X114830902Y-68483400D01*
X104297000Y-68483400D01*
X104297000Y-67015000D01*
X122677869Y-67015000D01*
X122678000Y-76640250D01*
X122684750Y-76647000D01*
X131837000Y-76647000D01*
X131837000Y-66994750D01*
X132583000Y-66994750D01*
X132583000Y-76647000D01*
X141735250Y-76647000D01*
X141742000Y-76640250D01*
X141742131Y-67015000D01*
X141741610Y-67009707D01*
X141740066Y-67004617D01*
X141737559Y-66999927D01*
X141734185Y-66995815D01*
X141730073Y-66992441D01*
X141725383Y-66989934D01*
X141720293Y-66988390D01*
X141715000Y-66987869D01*
X132589750Y-66988000D01*
X132583000Y-66994750D01*
X131837000Y-66994750D01*
X131830250Y-66988000D01*
X122705000Y-66987869D01*
X122699707Y-66988390D01*
X122694617Y-66989934D01*
X122689927Y-66992441D01*
X122685815Y-66995815D01*
X122682441Y-66999927D01*
X122679934Y-67004617D01*
X122678390Y-67009707D01*
X122677869Y-67015000D01*
X104297000Y-67015000D01*
X104297000Y-65647000D01*
X143043000Y-65647000D01*
X143043000Y-88893000D01*
%TA.AperFunction,Conductor*%
D20*
G36*
X143043000Y-88893000D02*
G01*
X129471855Y-88893000D01*
X127593346Y-87052061D01*
X131830250Y-87052000D01*
X131837000Y-87045250D01*
X131837000Y-77393000D01*
X132583000Y-77393000D01*
X132583000Y-87045250D01*
X132589750Y-87052000D01*
X141715000Y-87052131D01*
X141720293Y-87051610D01*
X141725383Y-87050066D01*
X141730073Y-87047559D01*
X141734185Y-87044185D01*
X141737559Y-87040073D01*
X141740066Y-87035383D01*
X141741610Y-87030293D01*
X141742131Y-87025000D01*
X141742000Y-77399750D01*
X141735250Y-77393000D01*
X132583000Y-77393000D01*
X131837000Y-77393000D01*
X122684750Y-77393000D01*
X122678000Y-77399750D01*
X122677934Y-82234957D01*
X117008891Y-76679295D01*
X116989487Y-76663696D01*
X116967413Y-76652182D01*
X116943517Y-76645196D01*
X116920000Y-76643000D01*
X104297000Y-76643000D01*
X104297000Y-73556600D01*
X114830902Y-73556600D01*
X115248455Y-73845160D01*
X115830197Y-74101370D01*
X116450745Y-74239165D01*
X117086253Y-74253250D01*
X117712297Y-74143083D01*
X118304819Y-73912898D01*
X118431545Y-73845160D01*
X118849098Y-73556600D01*
X118430434Y-73137936D01*
X118502256Y-73137936D01*
X118510758Y-73145316D01*
X118571856Y-73137936D01*
X118537056Y-73103136D01*
X118502256Y-73137936D01*
X118430434Y-73137936D01*
X117983256Y-72690758D01*
X118108796Y-72690758D01*
X118116176Y-72751856D01*
X118150976Y-72717056D01*
X118923136Y-72717056D01*
X118957936Y-72751856D01*
X118965316Y-72743354D01*
X118957936Y-72682256D01*
X118923136Y-72717056D01*
X118150976Y-72717056D01*
X118116176Y-72682256D01*
X118108796Y-72690758D01*
X117983256Y-72690758D01*
X117588674Y-72296176D01*
X118502256Y-72296176D01*
X118537056Y-72330976D01*
X118571856Y-72296176D01*
X118563354Y-72288796D01*
X118502256Y-72296176D01*
X117588674Y-72296176D01*
X116840000Y-71547502D01*
X114830902Y-73556600D01*
X104297000Y-73556600D01*
X104297000Y-73137936D01*
X115108144Y-73137936D01*
X115116646Y-73145316D01*
X115177744Y-73137936D01*
X115142944Y-73103136D01*
X115108144Y-73137936D01*
X104297000Y-73137936D01*
X104297000Y-71266253D01*
X113606750Y-71266253D01*
X113716917Y-71892297D01*
X113947102Y-72484819D01*
X114014840Y-72611545D01*
X114303400Y-73029098D01*
X114641740Y-72690758D01*
X114714684Y-72690758D01*
X114722064Y-72751856D01*
X114756864Y-72717056D01*
X115529024Y-72717056D01*
X115563824Y-72751856D01*
X115571204Y-72743354D01*
X115563824Y-72682256D01*
X115529024Y-72717056D01*
X114756864Y-72717056D01*
X114722064Y-72682256D01*
X114714684Y-72690758D01*
X114641740Y-72690758D01*
X115036322Y-72296176D01*
X115108144Y-72296176D01*
X115142944Y-72330976D01*
X115177744Y-72296176D01*
X115169242Y-72288796D01*
X115108144Y-72296176D01*
X115036322Y-72296176D01*
X116312498Y-71020000D01*
X117367502Y-71020000D01*
X119376600Y-73029098D01*
X119665160Y-72611545D01*
X119921370Y-72029803D01*
X120059165Y-71409255D01*
X120073250Y-70773747D01*
X119963083Y-70147703D01*
X119732898Y-69555181D01*
X119665160Y-69428455D01*
X119376600Y-69010902D01*
X117367502Y-71020000D01*
X116312498Y-71020000D01*
X115036322Y-69743824D01*
X115108144Y-69743824D01*
X115116646Y-69751204D01*
X115177744Y-69743824D01*
X115142944Y-69709024D01*
X115108144Y-69743824D01*
X115036322Y-69743824D01*
X114589144Y-69296646D01*
X114714684Y-69296646D01*
X114722064Y-69357744D01*
X114756864Y-69322944D01*
X115529024Y-69322944D01*
X115563824Y-69357744D01*
X115571204Y-69349242D01*
X115563824Y-69288144D01*
X115529024Y-69322944D01*
X114756864Y-69322944D01*
X114722064Y-69288144D01*
X114714684Y-69296646D01*
X114589144Y-69296646D01*
X114303400Y-69010902D01*
X114014840Y-69428455D01*
X113758630Y-70010197D01*
X113620835Y-70630745D01*
X113606750Y-71266253D01*
X104297000Y-71266253D01*
X104297000Y-68902064D01*
X115108144Y-68902064D01*
X115142944Y-68936864D01*
X115177744Y-68902064D01*
X115169242Y-68894684D01*
X115108144Y-68902064D01*
X104297000Y-68902064D01*
X104297000Y-68483400D01*
X114830902Y-68483400D01*
X116840000Y-70492498D01*
X117588674Y-69743824D01*
X118502256Y-69743824D01*
X118510758Y-69751204D01*
X118571856Y-69743824D01*
X118537056Y-69709024D01*
X118502256Y-69743824D01*
X117588674Y-69743824D01*
X118035852Y-69296646D01*
X118108796Y-69296646D01*
X118116176Y-69357744D01*
X118150976Y-69322944D01*
X118923136Y-69322944D01*
X118957936Y-69357744D01*
X118965316Y-69349242D01*
X118957936Y-69288144D01*
X118923136Y-69322944D01*
X118150976Y-69322944D01*
X118116176Y-69288144D01*
X118108796Y-69296646D01*
X118035852Y-69296646D01*
X118430434Y-68902064D01*
X118502256Y-68902064D01*
X118537056Y-68936864D01*
X118571856Y-68902064D01*
X118563354Y-68894684D01*
X118502256Y-68902064D01*
X118430434Y-68902064D01*
X118849098Y-68483400D01*
X118431545Y-68194840D01*
X117849803Y-67938630D01*
X117229255Y-67800835D01*
X116593747Y-67786750D01*
X115967703Y-67896917D01*
X115375181Y-68127102D01*
X115248455Y-68194840D01*
X114830902Y-68483400D01*
X104297000Y-68483400D01*
X104297000Y-67015000D01*
X122677869Y-67015000D01*
X122678000Y-76640250D01*
X122684750Y-76647000D01*
X131837000Y-76647000D01*
X131837000Y-66994750D01*
X132583000Y-66994750D01*
X132583000Y-76647000D01*
X141735250Y-76647000D01*
X141742000Y-76640250D01*
X141742131Y-67015000D01*
X141741610Y-67009707D01*
X141740066Y-67004617D01*
X141737559Y-66999927D01*
X141734185Y-66995815D01*
X141730073Y-66992441D01*
X141725383Y-66989934D01*
X141720293Y-66988390D01*
X141715000Y-66987869D01*
X132589750Y-66988000D01*
X132583000Y-66994750D01*
X131837000Y-66994750D01*
X131830250Y-66988000D01*
X122705000Y-66987869D01*
X122699707Y-66988390D01*
X122694617Y-66989934D01*
X122689927Y-66992441D01*
X122685815Y-66995815D01*
X122682441Y-66999927D01*
X122679934Y-67004617D01*
X122678390Y-67009707D01*
X122677869Y-67015000D01*
X104297000Y-67015000D01*
X104297000Y-65647000D01*
X143043000Y-65647000D01*
X143043000Y-88893000D01*
G37*
%TD.AperFunction*%
%TD*%
D19*
%TO.N,Probe-*%
X85443000Y-115948397D02*
X85443000Y-116091603D01*
X85470938Y-116232058D01*
X85525741Y-116364364D01*
X85605302Y-116483436D01*
X85706564Y-116584698D01*
X85825636Y-116664259D01*
X85957942Y-116719062D01*
X86098397Y-116747000D01*
X86241603Y-116747000D01*
X86382058Y-116719062D01*
X86514364Y-116664259D01*
X86633436Y-116584698D01*
X86734698Y-116483436D01*
X86742339Y-116472000D01*
X93597661Y-116472000D01*
X93605302Y-116483436D01*
X93706564Y-116584698D01*
X93825636Y-116664259D01*
X93957942Y-116719062D01*
X94098397Y-116747000D01*
X94241603Y-116747000D01*
X94382058Y-116719062D01*
X94514364Y-116664259D01*
X94633436Y-116584698D01*
X94734698Y-116483436D01*
X94814259Y-116364364D01*
X94869062Y-116232058D01*
X94897000Y-116091603D01*
X94897000Y-115948397D01*
X94886777Y-115897000D01*
X204318001Y-115897000D01*
X204318001Y-129168000D01*
X76522000Y-129168000D01*
X76522000Y-127054749D01*
X101662752Y-127054749D01*
X102333129Y-127559203D01*
X103273194Y-128025430D01*
X104286151Y-128299301D01*
X105333074Y-128370291D01*
X106373731Y-128235673D01*
X107368129Y-127900619D01*
X108006871Y-127559203D01*
X108677248Y-127054749D01*
X147412752Y-127054749D01*
X148083129Y-127559203D01*
X149023194Y-128025430D01*
X150036151Y-128299301D01*
X151083074Y-128370291D01*
X152123731Y-128235673D01*
X153118129Y-127900619D01*
X153756871Y-127559203D01*
X154427248Y-127054749D01*
X195412752Y-127054749D01*
X196083129Y-127559203D01*
X197023194Y-128025430D01*
X198036151Y-128299301D01*
X199083074Y-128370291D01*
X200123731Y-128235673D01*
X201118129Y-127900619D01*
X201756871Y-127559203D01*
X202427248Y-127054749D01*
X201679487Y-126306988D01*
X201746262Y-126303052D01*
X201730749Y-126287540D01*
X201715236Y-126303052D01*
X201679404Y-126306905D01*
X201150088Y-125777589D01*
X201254398Y-125777589D01*
X201258446Y-125846262D01*
X201273958Y-125830749D01*
X202187540Y-125830749D01*
X202203052Y-125846262D01*
X202207100Y-125883909D01*
X202203052Y-125815236D01*
X202187540Y-125830749D01*
X201273958Y-125830749D01*
X201258446Y-125815236D01*
X201254398Y-125777589D01*
X201150088Y-125777589D01*
X198920000Y-123547502D01*
X196585490Y-125882011D01*
X196581554Y-125815236D01*
X196566042Y-125830749D01*
X196581554Y-125846262D01*
X196585407Y-125882094D01*
X195412752Y-127054749D01*
X154427248Y-127054749D01*
X153679487Y-126306988D01*
X153746262Y-126303052D01*
X153730749Y-126287540D01*
X153715236Y-126303052D01*
X153679404Y-126306905D01*
X153150088Y-125777589D01*
X153254398Y-125777589D01*
X153258446Y-125846262D01*
X153273958Y-125830749D01*
X154187540Y-125830749D01*
X154203052Y-125846262D01*
X154207100Y-125883909D01*
X154203052Y-125815236D01*
X154187540Y-125830749D01*
X153273958Y-125830749D01*
X153258446Y-125815236D01*
X153254398Y-125777589D01*
X153150088Y-125777589D01*
X150920000Y-123547502D01*
X148585490Y-125882011D01*
X148581554Y-125815236D01*
X148566042Y-125830749D01*
X148581554Y-125846262D01*
X148585407Y-125882094D01*
X147412752Y-127054749D01*
X108677248Y-127054749D01*
X107929487Y-126306988D01*
X107996262Y-126303052D01*
X107980749Y-126287540D01*
X107965236Y-126303052D01*
X107929404Y-126306905D01*
X107400088Y-125777589D01*
X107504398Y-125777589D01*
X107508446Y-125846262D01*
X107523958Y-125830749D01*
X108437540Y-125830749D01*
X108453052Y-125846262D01*
X108457100Y-125883909D01*
X108453052Y-125815236D01*
X108437540Y-125830749D01*
X107523958Y-125830749D01*
X107508446Y-125815236D01*
X107504398Y-125777589D01*
X107400088Y-125777589D01*
X105170000Y-123547502D01*
X102835490Y-125882011D01*
X102831554Y-125815236D01*
X102816042Y-125830749D01*
X102831554Y-125846262D01*
X102835407Y-125882094D01*
X101662752Y-127054749D01*
X76522000Y-127054749D01*
X76522000Y-123183074D01*
X99819709Y-123183074D01*
X99954327Y-124223731D01*
X100289381Y-125218129D01*
X100630797Y-125856871D01*
X101135251Y-126527248D01*
X101355399Y-126307100D01*
X102306091Y-126307100D01*
X102374764Y-126303052D01*
X102359251Y-126287540D01*
X102343738Y-126303052D01*
X102306091Y-126307100D01*
X101355399Y-126307100D01*
X101883012Y-125779487D01*
X101886948Y-125846262D01*
X101902460Y-125830749D01*
X101886948Y-125815236D01*
X101883095Y-125779404D01*
X102304052Y-125358446D01*
X102343738Y-125358446D01*
X102359251Y-125373958D01*
X102374764Y-125358446D01*
X102412411Y-125354398D01*
X102343738Y-125358446D01*
X102304052Y-125358446D01*
X104642498Y-123020000D01*
X105697502Y-123020000D01*
X108032011Y-125354510D01*
X107965236Y-125358446D01*
X107980749Y-125373958D01*
X107996262Y-125358446D01*
X108032094Y-125354593D01*
X109204749Y-126527248D01*
X109709203Y-125856871D01*
X110175430Y-124916806D01*
X110449301Y-123903849D01*
X110498175Y-123183074D01*
X145569709Y-123183074D01*
X145704327Y-124223731D01*
X146039381Y-125218129D01*
X146380797Y-125856871D01*
X146885251Y-126527248D01*
X147105399Y-126307100D01*
X148056091Y-126307100D01*
X148124764Y-126303052D01*
X148109251Y-126287540D01*
X148093738Y-126303052D01*
X148056091Y-126307100D01*
X147105399Y-126307100D01*
X147633012Y-125779487D01*
X147636948Y-125846262D01*
X147652460Y-125830749D01*
X147636948Y-125815236D01*
X147633095Y-125779404D01*
X148054052Y-125358446D01*
X148093738Y-125358446D01*
X148109251Y-125373958D01*
X148124764Y-125358446D01*
X148162411Y-125354398D01*
X148093738Y-125358446D01*
X148054052Y-125358446D01*
X150392498Y-123020000D01*
X151447502Y-123020000D01*
X153782011Y-125354510D01*
X153715236Y-125358446D01*
X153730749Y-125373958D01*
X153746262Y-125358446D01*
X153782094Y-125354593D01*
X154954749Y-126527248D01*
X155459203Y-125856871D01*
X155925430Y-124916806D01*
X156199301Y-123903849D01*
X156248175Y-123183074D01*
X193569709Y-123183074D01*
X193704327Y-124223731D01*
X194039381Y-125218129D01*
X194380797Y-125856871D01*
X194885251Y-126527248D01*
X195105399Y-126307100D01*
X196056091Y-126307100D01*
X196124764Y-126303052D01*
X196109251Y-126287540D01*
X196093738Y-126303052D01*
X196056091Y-126307100D01*
X195105399Y-126307100D01*
X195633012Y-125779487D01*
X195636948Y-125846262D01*
X195652460Y-125830749D01*
X195636948Y-125815236D01*
X195633095Y-125779404D01*
X196054052Y-125358446D01*
X196093738Y-125358446D01*
X196109251Y-125373958D01*
X196124764Y-125358446D01*
X196162411Y-125354398D01*
X196093738Y-125358446D01*
X196054052Y-125358446D01*
X198392498Y-123020000D01*
X199447502Y-123020000D01*
X201782011Y-125354510D01*
X201715236Y-125358446D01*
X201730749Y-125373958D01*
X201746262Y-125358446D01*
X201782094Y-125354593D01*
X202954749Y-126527248D01*
X203459203Y-125856871D01*
X203925430Y-124916806D01*
X204199301Y-123903849D01*
X204270291Y-122856926D01*
X204135673Y-121816269D01*
X203800619Y-120821871D01*
X203459203Y-120183129D01*
X202954749Y-119512752D01*
X202206988Y-120260513D01*
X202203052Y-120193738D01*
X202187540Y-120209251D01*
X202203052Y-120224764D01*
X202206905Y-120260596D01*
X199447502Y-123020000D01*
X198392498Y-123020000D01*
X196057989Y-120685490D01*
X196124764Y-120681554D01*
X196109251Y-120666042D01*
X196093738Y-120681554D01*
X196057906Y-120685407D01*
X195528590Y-120156091D01*
X195632900Y-120156091D01*
X195636948Y-120224764D01*
X195652460Y-120209251D01*
X196566042Y-120209251D01*
X196581554Y-120224764D01*
X196585602Y-120262411D01*
X196581554Y-120193738D01*
X196566042Y-120209251D01*
X195652460Y-120209251D01*
X195636948Y-120193738D01*
X195632900Y-120156091D01*
X195528590Y-120156091D01*
X194885251Y-119512752D01*
X194380797Y-120183129D01*
X193914570Y-121123194D01*
X193640699Y-122136151D01*
X193569709Y-123183074D01*
X156248175Y-123183074D01*
X156270291Y-122856926D01*
X156135673Y-121816269D01*
X155800619Y-120821871D01*
X155459203Y-120183129D01*
X154954749Y-119512752D01*
X154206988Y-120260513D01*
X154203052Y-120193738D01*
X154187540Y-120209251D01*
X154203052Y-120224764D01*
X154206905Y-120260596D01*
X151447502Y-123020000D01*
X150392498Y-123020000D01*
X148057989Y-120685490D01*
X148124764Y-120681554D01*
X148109251Y-120666042D01*
X148093738Y-120681554D01*
X148057906Y-120685407D01*
X147528590Y-120156091D01*
X147632900Y-120156091D01*
X147636948Y-120224764D01*
X147652460Y-120209251D01*
X148566042Y-120209251D01*
X148581554Y-120224764D01*
X148585602Y-120262411D01*
X148581554Y-120193738D01*
X148566042Y-120209251D01*
X147652460Y-120209251D01*
X147636948Y-120193738D01*
X147632900Y-120156091D01*
X147528590Y-120156091D01*
X146885251Y-119512752D01*
X146380797Y-120183129D01*
X145914570Y-121123194D01*
X145640699Y-122136151D01*
X145569709Y-123183074D01*
X110498175Y-123183074D01*
X110520291Y-122856926D01*
X110385673Y-121816269D01*
X110050619Y-120821871D01*
X109709203Y-120183129D01*
X109204749Y-119512752D01*
X108456988Y-120260513D01*
X108453052Y-120193738D01*
X108437540Y-120209251D01*
X108453052Y-120224764D01*
X108456905Y-120260596D01*
X105697502Y-123020000D01*
X104642498Y-123020000D01*
X102307989Y-120685490D01*
X102374764Y-120681554D01*
X102359251Y-120666042D01*
X102343738Y-120681554D01*
X102307906Y-120685407D01*
X101778590Y-120156091D01*
X101882900Y-120156091D01*
X101886948Y-120224764D01*
X101902460Y-120209251D01*
X102816042Y-120209251D01*
X102831554Y-120224764D01*
X102835602Y-120262411D01*
X102831554Y-120193738D01*
X102816042Y-120209251D01*
X101902460Y-120209251D01*
X101886948Y-120193738D01*
X101882900Y-120156091D01*
X101778590Y-120156091D01*
X101135251Y-119512752D01*
X100630797Y-120183129D01*
X100164570Y-121123194D01*
X99890699Y-122136151D01*
X99819709Y-123183074D01*
X76522000Y-123183074D01*
X76522000Y-118985251D01*
X101662752Y-118985251D01*
X102410513Y-119733012D01*
X102343738Y-119736948D01*
X102359251Y-119752460D01*
X102374764Y-119736948D01*
X102410596Y-119733095D01*
X105170000Y-122492498D01*
X106976896Y-120685602D01*
X107927589Y-120685602D01*
X107996262Y-120681554D01*
X107980749Y-120666042D01*
X107965236Y-120681554D01*
X107927589Y-120685602D01*
X106976896Y-120685602D01*
X107504510Y-120157989D01*
X107508446Y-120224764D01*
X107523958Y-120209251D01*
X107508446Y-120193738D01*
X107504593Y-120157906D01*
X107925551Y-119736948D01*
X107965236Y-119736948D01*
X107980749Y-119752460D01*
X107996262Y-119736948D01*
X108033909Y-119732900D01*
X107965236Y-119736948D01*
X107925551Y-119736948D01*
X108677248Y-118985251D01*
X147412752Y-118985251D01*
X148160513Y-119733012D01*
X148093738Y-119736948D01*
X148109251Y-119752460D01*
X148124764Y-119736948D01*
X148160596Y-119733095D01*
X150920000Y-122492498D01*
X152726896Y-120685602D01*
X153677589Y-120685602D01*
X153746262Y-120681554D01*
X153730749Y-120666042D01*
X153715236Y-120681554D01*
X153677589Y-120685602D01*
X152726896Y-120685602D01*
X153254510Y-120157989D01*
X153258446Y-120224764D01*
X153273958Y-120209251D01*
X153258446Y-120193738D01*
X153254593Y-120157906D01*
X153675551Y-119736948D01*
X153715236Y-119736948D01*
X153730749Y-119752460D01*
X153746262Y-119736948D01*
X153783909Y-119732900D01*
X153715236Y-119736948D01*
X153675551Y-119736948D01*
X154427248Y-118985251D01*
X195412752Y-118985251D01*
X196160513Y-119733012D01*
X196093738Y-119736948D01*
X196109251Y-119752460D01*
X196124764Y-119736948D01*
X196160596Y-119733095D01*
X198920000Y-122492498D01*
X200726896Y-120685602D01*
X201677589Y-120685602D01*
X201746262Y-120681554D01*
X201730749Y-120666042D01*
X201715236Y-120681554D01*
X201677589Y-120685602D01*
X200726896Y-120685602D01*
X201254510Y-120157989D01*
X201258446Y-120224764D01*
X201273958Y-120209251D01*
X201258446Y-120193738D01*
X201254593Y-120157906D01*
X201675551Y-119736948D01*
X201715236Y-119736948D01*
X201730749Y-119752460D01*
X201746262Y-119736948D01*
X201783909Y-119732900D01*
X201715236Y-119736948D01*
X201675551Y-119736948D01*
X202427248Y-118985251D01*
X201756871Y-118480797D01*
X200816806Y-118014570D01*
X199803849Y-117740699D01*
X198756926Y-117669709D01*
X197716269Y-117804327D01*
X196721871Y-118139381D01*
X196083129Y-118480797D01*
X195412752Y-118985251D01*
X154427248Y-118985251D01*
X153756871Y-118480797D01*
X152816806Y-118014570D01*
X151803849Y-117740699D01*
X150756926Y-117669709D01*
X149716269Y-117804327D01*
X148721871Y-118139381D01*
X148083129Y-118480797D01*
X147412752Y-118985251D01*
X108677248Y-118985251D01*
X108006871Y-118480797D01*
X107066806Y-118014570D01*
X106053849Y-117740699D01*
X105006926Y-117669709D01*
X103966269Y-117804327D01*
X102971871Y-118139381D01*
X102333129Y-118480797D01*
X101662752Y-118985251D01*
X76522000Y-118985251D01*
X76522000Y-115897000D01*
X85453223Y-115897000D01*
X85443000Y-115948397D01*
%TA.AperFunction,Conductor*%
D20*
G36*
X85443000Y-115948397D02*
G01*
X85443000Y-116091603D01*
X85470938Y-116232058D01*
X85525741Y-116364364D01*
X85605302Y-116483436D01*
X85706564Y-116584698D01*
X85825636Y-116664259D01*
X85957942Y-116719062D01*
X86098397Y-116747000D01*
X86241603Y-116747000D01*
X86382058Y-116719062D01*
X86514364Y-116664259D01*
X86633436Y-116584698D01*
X86734698Y-116483436D01*
X86742339Y-116472000D01*
X93597661Y-116472000D01*
X93605302Y-116483436D01*
X93706564Y-116584698D01*
X93825636Y-116664259D01*
X93957942Y-116719062D01*
X94098397Y-116747000D01*
X94241603Y-116747000D01*
X94382058Y-116719062D01*
X94514364Y-116664259D01*
X94633436Y-116584698D01*
X94734698Y-116483436D01*
X94814259Y-116364364D01*
X94869062Y-116232058D01*
X94897000Y-116091603D01*
X94897000Y-115948397D01*
X94886777Y-115897000D01*
X204318001Y-115897000D01*
X204318001Y-129168000D01*
X76522000Y-129168000D01*
X76522000Y-127054749D01*
X101662752Y-127054749D01*
X102333129Y-127559203D01*
X103273194Y-128025430D01*
X104286151Y-128299301D01*
X105333074Y-128370291D01*
X106373731Y-128235673D01*
X107368129Y-127900619D01*
X108006871Y-127559203D01*
X108677248Y-127054749D01*
X147412752Y-127054749D01*
X148083129Y-127559203D01*
X149023194Y-128025430D01*
X150036151Y-128299301D01*
X151083074Y-128370291D01*
X152123731Y-128235673D01*
X153118129Y-127900619D01*
X153756871Y-127559203D01*
X154427248Y-127054749D01*
X195412752Y-127054749D01*
X196083129Y-127559203D01*
X197023194Y-128025430D01*
X198036151Y-128299301D01*
X199083074Y-128370291D01*
X200123731Y-128235673D01*
X201118129Y-127900619D01*
X201756871Y-127559203D01*
X202427248Y-127054749D01*
X201679487Y-126306988D01*
X201746262Y-126303052D01*
X201730749Y-126287540D01*
X201715236Y-126303052D01*
X201679404Y-126306905D01*
X201150088Y-125777589D01*
X201254398Y-125777589D01*
X201258446Y-125846262D01*
X201273958Y-125830749D01*
X202187540Y-125830749D01*
X202203052Y-125846262D01*
X202207100Y-125883909D01*
X202203052Y-125815236D01*
X202187540Y-125830749D01*
X201273958Y-125830749D01*
X201258446Y-125815236D01*
X201254398Y-125777589D01*
X201150088Y-125777589D01*
X198920000Y-123547502D01*
X196585490Y-125882011D01*
X196581554Y-125815236D01*
X196566042Y-125830749D01*
X196581554Y-125846262D01*
X196585407Y-125882094D01*
X195412752Y-127054749D01*
X154427248Y-127054749D01*
X153679487Y-126306988D01*
X153746262Y-126303052D01*
X153730749Y-126287540D01*
X153715236Y-126303052D01*
X153679404Y-126306905D01*
X153150088Y-125777589D01*
X153254398Y-125777589D01*
X153258446Y-125846262D01*
X153273958Y-125830749D01*
X154187540Y-125830749D01*
X154203052Y-125846262D01*
X154207100Y-125883909D01*
X154203052Y-125815236D01*
X154187540Y-125830749D01*
X153273958Y-125830749D01*
X153258446Y-125815236D01*
X153254398Y-125777589D01*
X153150088Y-125777589D01*
X150920000Y-123547502D01*
X148585490Y-125882011D01*
X148581554Y-125815236D01*
X148566042Y-125830749D01*
X148581554Y-125846262D01*
X148585407Y-125882094D01*
X147412752Y-127054749D01*
X108677248Y-127054749D01*
X107929487Y-126306988D01*
X107996262Y-126303052D01*
X107980749Y-126287540D01*
X107965236Y-126303052D01*
X107929404Y-126306905D01*
X107400088Y-125777589D01*
X107504398Y-125777589D01*
X107508446Y-125846262D01*
X107523958Y-125830749D01*
X108437540Y-125830749D01*
X108453052Y-125846262D01*
X108457100Y-125883909D01*
X108453052Y-125815236D01*
X108437540Y-125830749D01*
X107523958Y-125830749D01*
X107508446Y-125815236D01*
X107504398Y-125777589D01*
X107400088Y-125777589D01*
X105170000Y-123547502D01*
X102835490Y-125882011D01*
X102831554Y-125815236D01*
X102816042Y-125830749D01*
X102831554Y-125846262D01*
X102835407Y-125882094D01*
X101662752Y-127054749D01*
X76522000Y-127054749D01*
X76522000Y-123183074D01*
X99819709Y-123183074D01*
X99954327Y-124223731D01*
X100289381Y-125218129D01*
X100630797Y-125856871D01*
X101135251Y-126527248D01*
X101355399Y-126307100D01*
X102306091Y-126307100D01*
X102374764Y-126303052D01*
X102359251Y-126287540D01*
X102343738Y-126303052D01*
X102306091Y-126307100D01*
X101355399Y-126307100D01*
X101883012Y-125779487D01*
X101886948Y-125846262D01*
X101902460Y-125830749D01*
X101886948Y-125815236D01*
X101883095Y-125779404D01*
X102304052Y-125358446D01*
X102343738Y-125358446D01*
X102359251Y-125373958D01*
X102374764Y-125358446D01*
X102412411Y-125354398D01*
X102343738Y-125358446D01*
X102304052Y-125358446D01*
X104642498Y-123020000D01*
X105697502Y-123020000D01*
X108032011Y-125354510D01*
X107965236Y-125358446D01*
X107980749Y-125373958D01*
X107996262Y-125358446D01*
X108032094Y-125354593D01*
X109204749Y-126527248D01*
X109709203Y-125856871D01*
X110175430Y-124916806D01*
X110449301Y-123903849D01*
X110498175Y-123183074D01*
X145569709Y-123183074D01*
X145704327Y-124223731D01*
X146039381Y-125218129D01*
X146380797Y-125856871D01*
X146885251Y-126527248D01*
X147105399Y-126307100D01*
X148056091Y-126307100D01*
X148124764Y-126303052D01*
X148109251Y-126287540D01*
X148093738Y-126303052D01*
X148056091Y-126307100D01*
X147105399Y-126307100D01*
X147633012Y-125779487D01*
X147636948Y-125846262D01*
X147652460Y-125830749D01*
X147636948Y-125815236D01*
X147633095Y-125779404D01*
X148054052Y-125358446D01*
X148093738Y-125358446D01*
X148109251Y-125373958D01*
X148124764Y-125358446D01*
X148162411Y-125354398D01*
X148093738Y-125358446D01*
X148054052Y-125358446D01*
X150392498Y-123020000D01*
X151447502Y-123020000D01*
X153782011Y-125354510D01*
X153715236Y-125358446D01*
X153730749Y-125373958D01*
X153746262Y-125358446D01*
X153782094Y-125354593D01*
X154954749Y-126527248D01*
X155459203Y-125856871D01*
X155925430Y-124916806D01*
X156199301Y-123903849D01*
X156248175Y-123183074D01*
X193569709Y-123183074D01*
X193704327Y-124223731D01*
X194039381Y-125218129D01*
X194380797Y-125856871D01*
X194885251Y-126527248D01*
X195105399Y-126307100D01*
X196056091Y-126307100D01*
X196124764Y-126303052D01*
X196109251Y-126287540D01*
X196093738Y-126303052D01*
X196056091Y-126307100D01*
X195105399Y-126307100D01*
X195633012Y-125779487D01*
X195636948Y-125846262D01*
X195652460Y-125830749D01*
X195636948Y-125815236D01*
X195633095Y-125779404D01*
X196054052Y-125358446D01*
X196093738Y-125358446D01*
X196109251Y-125373958D01*
X196124764Y-125358446D01*
X196162411Y-125354398D01*
X196093738Y-125358446D01*
X196054052Y-125358446D01*
X198392498Y-123020000D01*
X199447502Y-123020000D01*
X201782011Y-125354510D01*
X201715236Y-125358446D01*
X201730749Y-125373958D01*
X201746262Y-125358446D01*
X201782094Y-125354593D01*
X202954749Y-126527248D01*
X203459203Y-125856871D01*
X203925430Y-124916806D01*
X204199301Y-123903849D01*
X204270291Y-122856926D01*
X204135673Y-121816269D01*
X203800619Y-120821871D01*
X203459203Y-120183129D01*
X202954749Y-119512752D01*
X202206988Y-120260513D01*
X202203052Y-120193738D01*
X202187540Y-120209251D01*
X202203052Y-120224764D01*
X202206905Y-120260596D01*
X199447502Y-123020000D01*
X198392498Y-123020000D01*
X196057989Y-120685490D01*
X196124764Y-120681554D01*
X196109251Y-120666042D01*
X196093738Y-120681554D01*
X196057906Y-120685407D01*
X195528590Y-120156091D01*
X195632900Y-120156091D01*
X195636948Y-120224764D01*
X195652460Y-120209251D01*
X196566042Y-120209251D01*
X196581554Y-120224764D01*
X196585602Y-120262411D01*
X196581554Y-120193738D01*
X196566042Y-120209251D01*
X195652460Y-120209251D01*
X195636948Y-120193738D01*
X195632900Y-120156091D01*
X195528590Y-120156091D01*
X194885251Y-119512752D01*
X194380797Y-120183129D01*
X193914570Y-121123194D01*
X193640699Y-122136151D01*
X193569709Y-123183074D01*
X156248175Y-123183074D01*
X156270291Y-122856926D01*
X156135673Y-121816269D01*
X155800619Y-120821871D01*
X155459203Y-120183129D01*
X154954749Y-119512752D01*
X154206988Y-120260513D01*
X154203052Y-120193738D01*
X154187540Y-120209251D01*
X154203052Y-120224764D01*
X154206905Y-120260596D01*
X151447502Y-123020000D01*
X150392498Y-123020000D01*
X148057989Y-120685490D01*
X148124764Y-120681554D01*
X148109251Y-120666042D01*
X148093738Y-120681554D01*
X148057906Y-120685407D01*
X147528590Y-120156091D01*
X147632900Y-120156091D01*
X147636948Y-120224764D01*
X147652460Y-120209251D01*
X148566042Y-120209251D01*
X148581554Y-120224764D01*
X148585602Y-120262411D01*
X148581554Y-120193738D01*
X148566042Y-120209251D01*
X147652460Y-120209251D01*
X147636948Y-120193738D01*
X147632900Y-120156091D01*
X147528590Y-120156091D01*
X146885251Y-119512752D01*
X146380797Y-120183129D01*
X145914570Y-121123194D01*
X145640699Y-122136151D01*
X145569709Y-123183074D01*
X110498175Y-123183074D01*
X110520291Y-122856926D01*
X110385673Y-121816269D01*
X110050619Y-120821871D01*
X109709203Y-120183129D01*
X109204749Y-119512752D01*
X108456988Y-120260513D01*
X108453052Y-120193738D01*
X108437540Y-120209251D01*
X108453052Y-120224764D01*
X108456905Y-120260596D01*
X105697502Y-123020000D01*
X104642498Y-123020000D01*
X102307989Y-120685490D01*
X102374764Y-120681554D01*
X102359251Y-120666042D01*
X102343738Y-120681554D01*
X102307906Y-120685407D01*
X101778590Y-120156091D01*
X101882900Y-120156091D01*
X101886948Y-120224764D01*
X101902460Y-120209251D01*
X102816042Y-120209251D01*
X102831554Y-120224764D01*
X102835602Y-120262411D01*
X102831554Y-120193738D01*
X102816042Y-120209251D01*
X101902460Y-120209251D01*
X101886948Y-120193738D01*
X101882900Y-120156091D01*
X101778590Y-120156091D01*
X101135251Y-119512752D01*
X100630797Y-120183129D01*
X100164570Y-121123194D01*
X99890699Y-122136151D01*
X99819709Y-123183074D01*
X76522000Y-123183074D01*
X76522000Y-118985251D01*
X101662752Y-118985251D01*
X102410513Y-119733012D01*
X102343738Y-119736948D01*
X102359251Y-119752460D01*
X102374764Y-119736948D01*
X102410596Y-119733095D01*
X105170000Y-122492498D01*
X106976896Y-120685602D01*
X107927589Y-120685602D01*
X107996262Y-120681554D01*
X107980749Y-120666042D01*
X107965236Y-120681554D01*
X107927589Y-120685602D01*
X106976896Y-120685602D01*
X107504510Y-120157989D01*
X107508446Y-120224764D01*
X107523958Y-120209251D01*
X107508446Y-120193738D01*
X107504593Y-120157906D01*
X107925551Y-119736948D01*
X107965236Y-119736948D01*
X107980749Y-119752460D01*
X107996262Y-119736948D01*
X108033909Y-119732900D01*
X107965236Y-119736948D01*
X107925551Y-119736948D01*
X108677248Y-118985251D01*
X147412752Y-118985251D01*
X148160513Y-119733012D01*
X148093738Y-119736948D01*
X148109251Y-119752460D01*
X148124764Y-119736948D01*
X148160596Y-119733095D01*
X150920000Y-122492498D01*
X152726896Y-120685602D01*
X153677589Y-120685602D01*
X153746262Y-120681554D01*
X153730749Y-120666042D01*
X153715236Y-120681554D01*
X153677589Y-120685602D01*
X152726896Y-120685602D01*
X153254510Y-120157989D01*
X153258446Y-120224764D01*
X153273958Y-120209251D01*
X153258446Y-120193738D01*
X153254593Y-120157906D01*
X153675551Y-119736948D01*
X153715236Y-119736948D01*
X153730749Y-119752460D01*
X153746262Y-119736948D01*
X153783909Y-119732900D01*
X153715236Y-119736948D01*
X153675551Y-119736948D01*
X154427248Y-118985251D01*
X195412752Y-118985251D01*
X196160513Y-119733012D01*
X196093738Y-119736948D01*
X196109251Y-119752460D01*
X196124764Y-119736948D01*
X196160596Y-119733095D01*
X198920000Y-122492498D01*
X200726896Y-120685602D01*
X201677589Y-120685602D01*
X201746262Y-120681554D01*
X201730749Y-120666042D01*
X201715236Y-120681554D01*
X201677589Y-120685602D01*
X200726896Y-120685602D01*
X201254510Y-120157989D01*
X201258446Y-120224764D01*
X201273958Y-120209251D01*
X201258446Y-120193738D01*
X201254593Y-120157906D01*
X201675551Y-119736948D01*
X201715236Y-119736948D01*
X201730749Y-119752460D01*
X201746262Y-119736948D01*
X201783909Y-119732900D01*
X201715236Y-119736948D01*
X201675551Y-119736948D01*
X202427248Y-118985251D01*
X201756871Y-118480797D01*
X200816806Y-118014570D01*
X199803849Y-117740699D01*
X198756926Y-117669709D01*
X197716269Y-117804327D01*
X196721871Y-118139381D01*
X196083129Y-118480797D01*
X195412752Y-118985251D01*
X154427248Y-118985251D01*
X153756871Y-118480797D01*
X152816806Y-118014570D01*
X151803849Y-117740699D01*
X150756926Y-117669709D01*
X149716269Y-117804327D01*
X148721871Y-118139381D01*
X148083129Y-118480797D01*
X147412752Y-118985251D01*
X108677248Y-118985251D01*
X108006871Y-118480797D01*
X107066806Y-118014570D01*
X106053849Y-117740699D01*
X105006926Y-117669709D01*
X103966269Y-117804327D01*
X102971871Y-118139381D01*
X102333129Y-118480797D01*
X101662752Y-118985251D01*
X76522000Y-118985251D01*
X76522000Y-115897000D01*
X85453223Y-115897000D01*
X85443000Y-115948397D01*
G37*
%TD.AperFunction*%
%TD*%
D19*
%TO.N,FET_GND*%
X95218001Y-97802152D02*
X95217404Y-97802333D01*
X95012931Y-97911626D01*
X94833710Y-98058709D01*
X94686626Y-98237930D01*
X94577333Y-98442403D01*
X94510031Y-98664268D01*
X94493000Y-98837188D01*
X94493000Y-99202811D01*
X94510031Y-99375731D01*
X94577333Y-99597596D01*
X94686626Y-99802069D01*
X94833709Y-99981291D01*
X95012930Y-100128374D01*
X95217403Y-100237667D01*
X95439268Y-100304969D01*
X95670000Y-100327694D01*
X95900731Y-100304969D01*
X96122596Y-100237667D01*
X96327069Y-100128374D01*
X96506291Y-99981291D01*
X96653374Y-99802070D01*
X96762667Y-99597597D01*
X96829969Y-99375732D01*
X96847000Y-99202812D01*
X96847000Y-98837189D01*
X96829969Y-98664269D01*
X96762667Y-98442404D01*
X96653374Y-98237931D01*
X96506291Y-98058709D01*
X96327070Y-97911626D01*
X96122597Y-97802333D01*
X96122000Y-97802152D01*
X96122000Y-93647000D01*
X97718000Y-93647000D01*
X97718001Y-97802152D01*
X97717404Y-97802333D01*
X97512931Y-97911626D01*
X97333710Y-98058709D01*
X97186626Y-98237930D01*
X97077333Y-98442403D01*
X97010031Y-98664268D01*
X96993000Y-98837188D01*
X96993000Y-99202811D01*
X97010031Y-99375731D01*
X97077333Y-99597596D01*
X97186626Y-99802069D01*
X97333709Y-99981291D01*
X97512930Y-100128374D01*
X97717403Y-100237667D01*
X97939268Y-100304969D01*
X98170000Y-100327694D01*
X98400731Y-100304969D01*
X98622596Y-100237667D01*
X98827069Y-100128374D01*
X99006291Y-99981291D01*
X99153374Y-99802070D01*
X99262667Y-99597597D01*
X99329969Y-99375732D01*
X99347000Y-99202812D01*
X99347000Y-98837189D01*
X99347000Y-98837188D01*
X99493000Y-98837188D01*
X99493000Y-99202811D01*
X99510031Y-99375731D01*
X99577333Y-99597596D01*
X99686626Y-99802069D01*
X99833709Y-99981291D01*
X100012930Y-100128374D01*
X100217403Y-100237667D01*
X100439268Y-100304969D01*
X100670000Y-100327694D01*
X100900731Y-100304969D01*
X101122596Y-100237667D01*
X101327069Y-100128374D01*
X101506291Y-99981291D01*
X101653374Y-99802070D01*
X101762667Y-99597597D01*
X101829969Y-99375732D01*
X101847000Y-99202812D01*
X101847000Y-98837189D01*
X101829969Y-98664269D01*
X101762667Y-98442404D01*
X101653374Y-98237931D01*
X101506291Y-98058709D01*
X101327070Y-97911626D01*
X101122597Y-97802333D01*
X100900732Y-97735031D01*
X100670000Y-97712306D01*
X100439269Y-97735031D01*
X100217404Y-97802333D01*
X100012931Y-97911626D01*
X99833710Y-98058709D01*
X99686626Y-98237930D01*
X99577333Y-98442403D01*
X99510031Y-98664268D01*
X99493000Y-98837188D01*
X99347000Y-98837188D01*
X99329969Y-98664269D01*
X99262667Y-98442404D01*
X99153374Y-98237931D01*
X99006291Y-98058709D01*
X98827070Y-97911626D01*
X98622597Y-97802333D01*
X98622000Y-97802152D01*
X98622000Y-93647000D01*
X102718000Y-93647000D01*
X102718000Y-97802152D01*
X102717404Y-97802333D01*
X102512931Y-97911626D01*
X102333710Y-98058709D01*
X102186626Y-98237930D01*
X102077333Y-98442403D01*
X102010031Y-98664268D01*
X101993000Y-98837188D01*
X101993000Y-99202811D01*
X102010031Y-99375731D01*
X102077333Y-99597596D01*
X102186626Y-99802069D01*
X102333709Y-99981291D01*
X102512930Y-100128374D01*
X102717403Y-100237667D01*
X102939268Y-100304969D01*
X103170000Y-100327694D01*
X103400731Y-100304969D01*
X103622596Y-100237667D01*
X103827069Y-100128374D01*
X104006291Y-99981291D01*
X104153374Y-99802070D01*
X104262667Y-99597597D01*
X104329969Y-99375732D01*
X104347000Y-99202812D01*
X104347000Y-98837189D01*
X104329969Y-98664269D01*
X104262667Y-98442404D01*
X104153374Y-98237931D01*
X104006291Y-98058709D01*
X103827070Y-97911626D01*
X103622597Y-97802333D01*
X103622000Y-97802152D01*
X103622000Y-93647000D01*
X110403776Y-93647000D01*
X106204608Y-97846169D01*
X106122597Y-97802333D01*
X105900732Y-97735031D01*
X105670000Y-97712306D01*
X105439269Y-97735031D01*
X105217404Y-97802333D01*
X105012931Y-97911626D01*
X104833710Y-98058709D01*
X104686626Y-98237930D01*
X104577333Y-98442403D01*
X104510031Y-98664268D01*
X104493000Y-98837188D01*
X104493000Y-99202811D01*
X104510031Y-99375731D01*
X104577333Y-99597596D01*
X104686626Y-99802069D01*
X104833709Y-99981291D01*
X105012930Y-100128374D01*
X105217403Y-100237667D01*
X105439268Y-100304969D01*
X105670000Y-100327694D01*
X105900731Y-100304969D01*
X106122596Y-100237667D01*
X106327069Y-100128374D01*
X106506291Y-99981291D01*
X106653374Y-99802070D01*
X106762667Y-99597597D01*
X106829969Y-99375732D01*
X106847000Y-99202812D01*
X106847000Y-98837189D01*
X106829969Y-98664269D01*
X106791563Y-98537660D01*
X108013150Y-97316073D01*
X108038394Y-97377017D01*
X108117955Y-97496089D01*
X108219217Y-97597351D01*
X108338289Y-97676912D01*
X108470595Y-97731715D01*
X108552725Y-97748052D01*
X108527340Y-97773437D01*
X108400732Y-97735031D01*
X108170000Y-97712306D01*
X107939269Y-97735031D01*
X107717404Y-97802333D01*
X107512931Y-97911626D01*
X107333710Y-98058709D01*
X107186626Y-98237930D01*
X107077333Y-98442403D01*
X107010031Y-98664268D01*
X106993000Y-98837188D01*
X106993000Y-99202811D01*
X107010031Y-99375731D01*
X107077333Y-99597596D01*
X107186626Y-99802069D01*
X107333709Y-99981291D01*
X107512930Y-100128374D01*
X107717403Y-100237667D01*
X107939268Y-100304969D01*
X108170000Y-100327694D01*
X108400731Y-100304969D01*
X108622596Y-100237667D01*
X108827069Y-100128374D01*
X109006291Y-99981291D01*
X109153374Y-99802070D01*
X109262667Y-99597597D01*
X109329969Y-99375732D01*
X109347000Y-99202812D01*
X109347000Y-98837189D01*
X109329969Y-98664269D01*
X109262667Y-98442404D01*
X109218831Y-98360392D01*
X113857224Y-93722000D01*
X127482777Y-93722000D01*
X130084686Y-96323911D01*
X130098841Y-96341159D01*
X130167667Y-96397643D01*
X130246190Y-96439614D01*
X130310925Y-96459251D01*
X130331392Y-96465460D01*
X130419999Y-96474187D01*
X130442204Y-96472000D01*
X131097661Y-96472000D01*
X131105302Y-96483436D01*
X131206564Y-96584698D01*
X131325636Y-96664259D01*
X131457942Y-96719062D01*
X131598397Y-96747000D01*
X131741603Y-96747000D01*
X131882058Y-96719062D01*
X132014364Y-96664259D01*
X132133436Y-96584698D01*
X132234698Y-96483436D01*
X132314259Y-96364364D01*
X132369062Y-96232058D01*
X132397000Y-96091603D01*
X132397000Y-95948397D01*
X132369062Y-95807942D01*
X132314259Y-95675636D01*
X132234698Y-95556564D01*
X132150134Y-95472000D01*
X148482777Y-95472000D01*
X148945683Y-95934907D01*
X148943000Y-95948397D01*
X148943000Y-96091603D01*
X148970938Y-96232058D01*
X149025741Y-96364364D01*
X149105302Y-96483436D01*
X149206564Y-96584698D01*
X149325636Y-96664259D01*
X149457942Y-96719062D01*
X149598397Y-96747000D01*
X149741603Y-96747000D01*
X149882058Y-96719062D01*
X150014364Y-96664259D01*
X150133436Y-96584698D01*
X150234698Y-96483436D01*
X150314259Y-96364364D01*
X150369062Y-96232058D01*
X150397000Y-96091603D01*
X150397000Y-95948397D01*
X150369062Y-95807942D01*
X150314259Y-95675636D01*
X150234698Y-95556564D01*
X150133436Y-95455302D01*
X150014364Y-95375741D01*
X149882058Y-95320938D01*
X149741603Y-95293000D01*
X149598397Y-95293000D01*
X149584907Y-95295683D01*
X149005323Y-94716100D01*
X148991159Y-94698841D01*
X148922333Y-94642357D01*
X148843810Y-94600386D01*
X148758607Y-94574540D01*
X148692205Y-94568000D01*
X148670000Y-94565813D01*
X148647795Y-94568000D01*
X148583464Y-94568000D01*
X148619062Y-94482058D01*
X148647000Y-94341603D01*
X148647000Y-94198397D01*
X148619062Y-94057942D01*
X148564259Y-93925636D01*
X148484698Y-93806564D01*
X148383436Y-93705302D01*
X148296180Y-93647000D01*
X156141750Y-93647000D01*
X156141749Y-100273912D01*
X156130313Y-100281553D01*
X156029051Y-100382815D01*
X155949490Y-100501887D01*
X155894687Y-100634193D01*
X155866749Y-100774648D01*
X155866749Y-100917854D01*
X155894687Y-101058309D01*
X155949490Y-101190615D01*
X156029051Y-101309687D01*
X156130313Y-101410949D01*
X156249385Y-101490510D01*
X156381691Y-101545313D01*
X156522146Y-101573251D01*
X156665352Y-101573251D01*
X156805807Y-101545313D01*
X156938113Y-101490510D01*
X157057185Y-101410949D01*
X157158447Y-101309687D01*
X157238008Y-101190615D01*
X157292811Y-101058309D01*
X157320749Y-100917854D01*
X157320749Y-100774648D01*
X157292811Y-100634193D01*
X157238008Y-100501887D01*
X157158447Y-100382815D01*
X157057185Y-100281553D01*
X157045749Y-100273912D01*
X157045749Y-99433074D01*
X164569709Y-99433074D01*
X164704327Y-100473731D01*
X165039381Y-101468129D01*
X165380797Y-102106871D01*
X165885251Y-102777248D01*
X166105399Y-102557100D01*
X167056091Y-102557100D01*
X167124764Y-102553052D01*
X167109251Y-102537540D01*
X167093738Y-102553052D01*
X167056091Y-102557100D01*
X166105399Y-102557100D01*
X166633012Y-102029487D01*
X166636948Y-102096262D01*
X166652460Y-102080749D01*
X166636948Y-102065236D01*
X166633095Y-102029404D01*
X167054052Y-101608446D01*
X167093738Y-101608446D01*
X167109251Y-101623958D01*
X167124764Y-101608446D01*
X167162411Y-101604398D01*
X167093738Y-101608446D01*
X167054052Y-101608446D01*
X169392498Y-99270000D01*
X170447502Y-99270000D01*
X172782011Y-101604510D01*
X172715236Y-101608446D01*
X172730749Y-101623958D01*
X172746262Y-101608446D01*
X172782094Y-101604593D01*
X173954749Y-102777248D01*
X174459203Y-102106871D01*
X174925430Y-101166806D01*
X175199301Y-100153849D01*
X175270291Y-99106926D01*
X175135673Y-98066269D01*
X174800619Y-97071871D01*
X174459203Y-96433129D01*
X173954749Y-95762752D01*
X173206988Y-96510513D01*
X173203052Y-96443738D01*
X173187540Y-96459251D01*
X173203052Y-96474764D01*
X173206905Y-96510596D01*
X170447502Y-99270000D01*
X169392498Y-99270000D01*
X167057989Y-96935490D01*
X167124764Y-96931554D01*
X167109251Y-96916042D01*
X167093738Y-96931554D01*
X167057906Y-96935407D01*
X166528590Y-96406091D01*
X166632900Y-96406091D01*
X166636948Y-96474764D01*
X166652460Y-96459251D01*
X167566042Y-96459251D01*
X167581554Y-96474764D01*
X167585602Y-96512411D01*
X167581554Y-96443738D01*
X167566042Y-96459251D01*
X166652460Y-96459251D01*
X166636948Y-96443738D01*
X166632900Y-96406091D01*
X166528590Y-96406091D01*
X165885251Y-95762752D01*
X165380797Y-96433129D01*
X164914570Y-97373194D01*
X164640699Y-98386151D01*
X164569709Y-99433074D01*
X157045749Y-99433074D01*
X157045749Y-95235251D01*
X166412752Y-95235251D01*
X167160513Y-95983012D01*
X167093738Y-95986948D01*
X167109251Y-96002460D01*
X167124764Y-95986948D01*
X167160596Y-95983095D01*
X169920000Y-98742498D01*
X171726896Y-96935602D01*
X172677589Y-96935602D01*
X172746262Y-96931554D01*
X172730749Y-96916042D01*
X172715236Y-96931554D01*
X172677589Y-96935602D01*
X171726896Y-96935602D01*
X172254510Y-96407989D01*
X172258446Y-96474764D01*
X172273958Y-96459251D01*
X172258446Y-96443738D01*
X172254593Y-96407906D01*
X172675551Y-95986948D01*
X172715236Y-95986948D01*
X172730749Y-96002460D01*
X172746262Y-95986948D01*
X172783909Y-95982900D01*
X172715236Y-95986948D01*
X172675551Y-95986948D01*
X173427248Y-95235251D01*
X172756871Y-94730797D01*
X171816806Y-94264570D01*
X170803849Y-93990699D01*
X169756926Y-93919709D01*
X168716269Y-94054327D01*
X167721871Y-94389381D01*
X167083129Y-94730797D01*
X166412752Y-95235251D01*
X157045749Y-95235251D01*
X157045749Y-93647000D01*
X158189955Y-93647000D01*
X158281636Y-93708259D01*
X158413942Y-93763062D01*
X158554397Y-93791000D01*
X158697603Y-93791000D01*
X158838058Y-93763062D01*
X158970364Y-93708259D01*
X159062045Y-93647000D01*
X162549806Y-93647000D01*
X162575636Y-93664259D01*
X162707942Y-93719062D01*
X162848397Y-93747000D01*
X162991603Y-93747000D01*
X163132058Y-93719062D01*
X163264364Y-93664259D01*
X163290194Y-93647000D01*
X204318000Y-93647000D01*
X204318001Y-115143000D01*
X187295125Y-115143000D01*
X187314259Y-115114364D01*
X187369062Y-114982058D01*
X187397000Y-114841603D01*
X187397000Y-114698397D01*
X187369062Y-114557942D01*
X187314259Y-114425636D01*
X187234698Y-114306564D01*
X187133436Y-114205302D01*
X187014364Y-114125741D01*
X186882058Y-114070938D01*
X186741603Y-114043000D01*
X186598397Y-114043000D01*
X186457942Y-114070938D01*
X186325636Y-114125741D01*
X186206564Y-114205302D01*
X186105302Y-114306564D01*
X186097661Y-114318000D01*
X179742339Y-114318000D01*
X179734698Y-114306564D01*
X179633436Y-114205302D01*
X179514364Y-114125741D01*
X179382058Y-114070938D01*
X179241603Y-114043000D01*
X179098397Y-114043000D01*
X178957942Y-114070938D01*
X178825636Y-114125741D01*
X178706564Y-114205302D01*
X178605302Y-114306564D01*
X178525741Y-114425636D01*
X178470938Y-114557942D01*
X178443000Y-114698397D01*
X178443000Y-114841603D01*
X178470938Y-114982058D01*
X178525741Y-115114364D01*
X178544875Y-115143000D01*
X175295125Y-115143000D01*
X175314259Y-115114364D01*
X175369062Y-114982058D01*
X175397000Y-114841603D01*
X175397000Y-114698397D01*
X175369062Y-114557942D01*
X175314259Y-114425636D01*
X175234698Y-114306564D01*
X175133436Y-114205302D01*
X175014364Y-114125741D01*
X174882058Y-114070938D01*
X174741603Y-114043000D01*
X174598397Y-114043000D01*
X174457942Y-114070938D01*
X174325636Y-114125741D01*
X174206564Y-114205302D01*
X174105302Y-114306564D01*
X174097661Y-114318000D01*
X167992339Y-114318000D01*
X167984698Y-114306564D01*
X167883436Y-114205302D01*
X167764364Y-114125741D01*
X167632058Y-114070938D01*
X167491603Y-114043000D01*
X167348397Y-114043000D01*
X167207942Y-114070938D01*
X167075636Y-114125741D01*
X166956564Y-114205302D01*
X166855302Y-114306564D01*
X166775741Y-114425636D01*
X166720938Y-114557942D01*
X166693000Y-114698397D01*
X166693000Y-114841603D01*
X166720938Y-114982058D01*
X166775741Y-115114364D01*
X166794875Y-115143000D01*
X163045125Y-115143000D01*
X163064259Y-115114364D01*
X163119062Y-114982058D01*
X163147000Y-114841603D01*
X163147000Y-114698397D01*
X163119062Y-114557942D01*
X163064259Y-114425636D01*
X162984698Y-114306564D01*
X162883436Y-114205302D01*
X162764364Y-114125741D01*
X162632058Y-114070938D01*
X162491603Y-114043000D01*
X162348397Y-114043000D01*
X162207942Y-114070938D01*
X162075636Y-114125741D01*
X161956564Y-114205302D01*
X161855302Y-114306564D01*
X161847661Y-114318000D01*
X157492339Y-114318000D01*
X157484698Y-114306564D01*
X157383436Y-114205302D01*
X157264364Y-114125741D01*
X157132058Y-114070938D01*
X156991603Y-114043000D01*
X156848397Y-114043000D01*
X156707942Y-114070938D01*
X156575636Y-114125741D01*
X156456564Y-114205302D01*
X156355302Y-114306564D01*
X156275741Y-114425636D01*
X156220938Y-114557942D01*
X156193000Y-114698397D01*
X156193000Y-114841603D01*
X156220938Y-114982058D01*
X156275741Y-115114364D01*
X156294875Y-115143000D01*
X140795125Y-115143000D01*
X140814259Y-115114364D01*
X140869062Y-114982058D01*
X140897000Y-114841603D01*
X140897000Y-114698397D01*
X140869062Y-114557942D01*
X140814259Y-114425636D01*
X140734698Y-114306564D01*
X140633436Y-114205302D01*
X140514364Y-114125741D01*
X140382058Y-114070938D01*
X140241603Y-114043000D01*
X140098397Y-114043000D01*
X139957942Y-114070938D01*
X139825636Y-114125741D01*
X139706564Y-114205302D01*
X139605302Y-114306564D01*
X139597661Y-114318000D01*
X132992339Y-114318000D01*
X132984698Y-114306564D01*
X132883436Y-114205302D01*
X132764364Y-114125741D01*
X132632058Y-114070938D01*
X132491603Y-114043000D01*
X132348397Y-114043000D01*
X132207942Y-114070938D01*
X132075636Y-114125741D01*
X131956564Y-114205302D01*
X131855302Y-114306564D01*
X131775741Y-114425636D01*
X131720938Y-114557942D01*
X131693000Y-114698397D01*
X131693000Y-114841603D01*
X131720938Y-114982058D01*
X131775741Y-115114364D01*
X131794875Y-115143000D01*
X129545125Y-115143000D01*
X129564259Y-115114364D01*
X129619062Y-114982058D01*
X129647000Y-114841603D01*
X129647000Y-114698397D01*
X129619062Y-114557942D01*
X129564259Y-114425636D01*
X129484698Y-114306564D01*
X129383436Y-114205302D01*
X129264364Y-114125741D01*
X129132058Y-114070938D01*
X128991603Y-114043000D01*
X128848397Y-114043000D01*
X128707942Y-114070938D01*
X128575636Y-114125741D01*
X128456564Y-114205302D01*
X128355302Y-114306564D01*
X128347661Y-114318000D01*
X121492339Y-114318000D01*
X121484698Y-114306564D01*
X121383436Y-114205302D01*
X121264364Y-114125741D01*
X121132058Y-114070938D01*
X120991603Y-114043000D01*
X120848397Y-114043000D01*
X120707942Y-114070938D01*
X120575636Y-114125741D01*
X120456564Y-114205302D01*
X120355302Y-114306564D01*
X120275741Y-114425636D01*
X120220938Y-114557942D01*
X120193000Y-114698397D01*
X120193000Y-114841603D01*
X120220938Y-114982058D01*
X120275741Y-115114364D01*
X120294875Y-115143000D01*
X117295125Y-115143000D01*
X117314259Y-115114364D01*
X117369062Y-114982058D01*
X117397000Y-114841603D01*
X117397000Y-114698397D01*
X117369062Y-114557942D01*
X117314259Y-114425636D01*
X117234698Y-114306564D01*
X117133436Y-114205302D01*
X117014364Y-114125741D01*
X116882058Y-114070938D01*
X116741603Y-114043000D01*
X116598397Y-114043000D01*
X116457942Y-114070938D01*
X116325636Y-114125741D01*
X116206564Y-114205302D01*
X116105302Y-114306564D01*
X116097661Y-114318000D01*
X105992339Y-114318000D01*
X105984698Y-114306564D01*
X105883436Y-114205302D01*
X105764364Y-114125741D01*
X105632058Y-114070938D01*
X105491603Y-114043000D01*
X105348397Y-114043000D01*
X105207942Y-114070938D01*
X105075636Y-114125741D01*
X104956564Y-114205302D01*
X104855302Y-114306564D01*
X104775741Y-114425636D01*
X104720938Y-114557942D01*
X104693000Y-114698397D01*
X104693000Y-114841603D01*
X104720938Y-114982058D01*
X104775741Y-115114364D01*
X104794875Y-115143000D01*
X77372000Y-115143000D01*
X77372000Y-106948397D01*
X93443000Y-106948397D01*
X93443000Y-107091603D01*
X93470938Y-107232058D01*
X93525741Y-107364364D01*
X93605302Y-107483436D01*
X93706564Y-107584698D01*
X93718001Y-107592340D01*
X93718000Y-112447661D01*
X93706564Y-112455302D01*
X93605302Y-112556564D01*
X93525741Y-112675636D01*
X93470938Y-112807942D01*
X93443000Y-112948397D01*
X93443000Y-113091603D01*
X93470938Y-113232058D01*
X93525741Y-113364364D01*
X93605302Y-113483436D01*
X93706564Y-113584698D01*
X93825636Y-113664259D01*
X93957942Y-113719062D01*
X94098397Y-113747000D01*
X94241603Y-113747000D01*
X94382058Y-113719062D01*
X94514364Y-113664259D01*
X94633436Y-113584698D01*
X94734698Y-113483436D01*
X94814259Y-113364364D01*
X94869062Y-113232058D01*
X94897000Y-113091603D01*
X94897000Y-112948397D01*
X94869062Y-112807942D01*
X94814259Y-112675636D01*
X94734698Y-112556564D01*
X94633436Y-112455302D01*
X94622000Y-112447661D01*
X94622000Y-110198397D01*
X129693000Y-110198397D01*
X129693000Y-110341603D01*
X129720938Y-110482058D01*
X129775741Y-110614364D01*
X129855302Y-110733436D01*
X129956564Y-110834698D01*
X130075636Y-110914259D01*
X130207942Y-110969062D01*
X130348397Y-110997000D01*
X130491603Y-110997000D01*
X130632058Y-110969062D01*
X130764364Y-110914259D01*
X130883436Y-110834698D01*
X130984698Y-110733436D01*
X131064259Y-110614364D01*
X131119062Y-110482058D01*
X131147000Y-110341603D01*
X131147000Y-110198397D01*
X131119062Y-110057942D01*
X131064259Y-109925636D01*
X130984698Y-109806564D01*
X130883436Y-109705302D01*
X130872000Y-109697661D01*
X130872000Y-106948397D01*
X155693000Y-106948397D01*
X155693000Y-107091603D01*
X155720938Y-107232058D01*
X155775741Y-107364364D01*
X155855302Y-107483436D01*
X155956564Y-107584698D01*
X155968000Y-107592339D01*
X155968001Y-110997785D01*
X155965813Y-111020000D01*
X155970010Y-111062609D01*
X155943000Y-111198397D01*
X155943000Y-111341603D01*
X155970938Y-111482058D01*
X156025741Y-111614364D01*
X156105302Y-111733436D01*
X156206564Y-111834698D01*
X156325636Y-111914259D01*
X156457942Y-111969062D01*
X156598397Y-111997000D01*
X156741603Y-111997000D01*
X156882058Y-111969062D01*
X157014364Y-111914259D01*
X157133436Y-111834698D01*
X157234698Y-111733436D01*
X157314259Y-111614364D01*
X157369062Y-111482058D01*
X157397000Y-111341603D01*
X157397000Y-111198397D01*
X157369062Y-111057942D01*
X157314259Y-110925636D01*
X157234698Y-110806564D01*
X157133436Y-110705302D01*
X157014364Y-110625741D01*
X156882058Y-110570938D01*
X156872000Y-110568937D01*
X156872000Y-107592339D01*
X156883436Y-107584698D01*
X156984698Y-107483436D01*
X157064259Y-107364364D01*
X157119062Y-107232058D01*
X157147000Y-107091603D01*
X157147000Y-106948397D01*
X157119062Y-106807942D01*
X157064259Y-106675636D01*
X156984698Y-106556564D01*
X156883436Y-106455302D01*
X156764364Y-106375741D01*
X156632058Y-106320938D01*
X156491603Y-106293000D01*
X156348397Y-106293000D01*
X156207942Y-106320938D01*
X156075636Y-106375741D01*
X155956564Y-106455302D01*
X155855302Y-106556564D01*
X155775741Y-106675636D01*
X155720938Y-106807942D01*
X155693000Y-106948397D01*
X130872000Y-106948397D01*
X130872000Y-105957223D01*
X131834908Y-104994317D01*
X131848397Y-104997000D01*
X131991603Y-104997000D01*
X132132058Y-104969062D01*
X132264364Y-104914259D01*
X132383436Y-104834698D01*
X132484698Y-104733436D01*
X132564259Y-104614364D01*
X132619062Y-104482058D01*
X132647000Y-104341603D01*
X132647000Y-104198397D01*
X132619062Y-104057942D01*
X132564259Y-103925636D01*
X132484698Y-103806564D01*
X132383436Y-103705302D01*
X132264364Y-103625741D01*
X132132058Y-103570938D01*
X131991603Y-103543000D01*
X131848397Y-103543000D01*
X131707942Y-103570938D01*
X131575636Y-103625741D01*
X131456564Y-103705302D01*
X131355302Y-103806564D01*
X131275741Y-103925636D01*
X131220938Y-104057942D01*
X131193000Y-104198397D01*
X131193000Y-104341603D01*
X131195683Y-104355092D01*
X130116100Y-105434677D01*
X130098841Y-105448841D01*
X130042358Y-105517667D01*
X130000386Y-105596191D01*
X129974540Y-105681393D01*
X129965813Y-105770000D01*
X129968000Y-105792205D01*
X129968001Y-109697660D01*
X129956564Y-109705302D01*
X129855302Y-109806564D01*
X129775741Y-109925636D01*
X129720938Y-110057942D01*
X129693000Y-110198397D01*
X94622000Y-110198397D01*
X94622000Y-107698397D01*
X103693000Y-107698397D01*
X103693000Y-107841603D01*
X103720938Y-107982058D01*
X103775741Y-108114364D01*
X103855302Y-108233436D01*
X103956564Y-108334698D01*
X104075636Y-108414259D01*
X104207942Y-108469062D01*
X104348397Y-108497000D01*
X104491603Y-108497000D01*
X104632058Y-108469062D01*
X104764364Y-108414259D01*
X104883436Y-108334698D01*
X104984698Y-108233436D01*
X105064259Y-108114364D01*
X105119062Y-107982058D01*
X105147000Y-107841603D01*
X105147000Y-107698397D01*
X105119062Y-107557942D01*
X105064259Y-107425636D01*
X104984698Y-107306564D01*
X104883436Y-107205302D01*
X104872000Y-107197661D01*
X104872000Y-105457223D01*
X107024474Y-103304749D01*
X120662752Y-103304749D01*
X121333129Y-103809203D01*
X122273194Y-104275430D01*
X123286151Y-104549301D01*
X124333074Y-104620291D01*
X125373731Y-104485673D01*
X126368129Y-104150619D01*
X127006871Y-103809203D01*
X127677248Y-103304749D01*
X166412752Y-103304749D01*
X167083129Y-103809203D01*
X168023194Y-104275430D01*
X169036151Y-104549301D01*
X170083074Y-104620291D01*
X171123731Y-104485673D01*
X172118129Y-104150619D01*
X172756871Y-103809203D01*
X173427248Y-103304749D01*
X172679487Y-102556988D01*
X172746262Y-102553052D01*
X172730749Y-102537540D01*
X172715236Y-102553052D01*
X172679404Y-102556905D01*
X172150088Y-102027589D01*
X172254398Y-102027589D01*
X172258446Y-102096262D01*
X172273958Y-102080749D01*
X173187540Y-102080749D01*
X173203052Y-102096262D01*
X173207100Y-102133909D01*
X173203052Y-102065236D01*
X173187540Y-102080749D01*
X172273958Y-102080749D01*
X172258446Y-102065236D01*
X172254398Y-102027589D01*
X172150088Y-102027589D01*
X169920000Y-99797502D01*
X167585490Y-102132011D01*
X167581554Y-102065236D01*
X167566042Y-102080749D01*
X167581554Y-102096262D01*
X167585407Y-102132094D01*
X166412752Y-103304749D01*
X127677248Y-103304749D01*
X126929487Y-102556988D01*
X126996262Y-102553052D01*
X126980749Y-102537540D01*
X126965236Y-102553052D01*
X126929404Y-102556905D01*
X126400088Y-102027589D01*
X126504398Y-102027589D01*
X126508446Y-102096262D01*
X126523958Y-102080749D01*
X127437540Y-102080749D01*
X127453052Y-102096262D01*
X127457100Y-102133909D01*
X127453052Y-102065236D01*
X127437540Y-102080749D01*
X126523958Y-102080749D01*
X126508446Y-102065236D01*
X126504398Y-102027589D01*
X126400088Y-102027589D01*
X124170000Y-99797502D01*
X121835490Y-102132011D01*
X121831554Y-102065236D01*
X121816042Y-102080749D01*
X121831554Y-102096262D01*
X121835407Y-102132094D01*
X120662752Y-103304749D01*
X107024474Y-103304749D01*
X110135392Y-100193831D01*
X110217403Y-100237667D01*
X110439268Y-100304969D01*
X110670000Y-100327694D01*
X110900731Y-100304969D01*
X111122596Y-100237667D01*
X111327069Y-100128374D01*
X111506291Y-99981291D01*
X111653374Y-99802070D01*
X111762667Y-99597597D01*
X111829969Y-99375732D01*
X111847000Y-99202812D01*
X111847000Y-98837189D01*
X111829969Y-98664269D01*
X111791563Y-98537661D01*
X111991418Y-98337805D01*
X111991418Y-99745000D01*
X112002535Y-99857876D01*
X112035460Y-99966414D01*
X112088927Y-100066443D01*
X112160881Y-100154119D01*
X112248557Y-100226073D01*
X112348586Y-100279540D01*
X112457124Y-100312465D01*
X112570000Y-100323582D01*
X113770000Y-100323582D01*
X113882876Y-100312465D01*
X113991414Y-100279540D01*
X114091443Y-100226073D01*
X114179119Y-100154119D01*
X114251073Y-100066443D01*
X114304540Y-99966414D01*
X114337465Y-99857876D01*
X114348582Y-99745000D01*
X114348582Y-99433074D01*
X118819709Y-99433074D01*
X118954327Y-100473731D01*
X119289381Y-101468129D01*
X119630797Y-102106871D01*
X120135251Y-102777248D01*
X120355399Y-102557100D01*
X121306091Y-102557100D01*
X121374764Y-102553052D01*
X121359251Y-102537540D01*
X121343738Y-102553052D01*
X121306091Y-102557100D01*
X120355399Y-102557100D01*
X120883012Y-102029487D01*
X120886948Y-102096262D01*
X120902460Y-102080749D01*
X120886948Y-102065236D01*
X120883095Y-102029404D01*
X121304052Y-101608446D01*
X121343738Y-101608446D01*
X121359251Y-101623958D01*
X121374764Y-101608446D01*
X121412411Y-101604398D01*
X121343738Y-101608446D01*
X121304052Y-101608446D01*
X123642498Y-99270000D01*
X124697502Y-99270000D01*
X127032011Y-101604510D01*
X126965236Y-101608446D01*
X126980749Y-101623958D01*
X126996262Y-101608446D01*
X127032094Y-101604593D01*
X128204749Y-102777248D01*
X128709203Y-102106871D01*
X129175430Y-101166806D01*
X129449301Y-100153849D01*
X129520291Y-99106926D01*
X129385673Y-98066269D01*
X129339219Y-97928397D01*
X134273000Y-97928397D01*
X134273000Y-98071603D01*
X134300938Y-98212058D01*
X134355741Y-98344364D01*
X134435302Y-98463436D01*
X134536564Y-98564698D01*
X134655636Y-98644259D01*
X134787942Y-98699062D01*
X134928397Y-98727000D01*
X135071603Y-98727000D01*
X135212058Y-98699062D01*
X135344364Y-98644259D01*
X135463436Y-98564698D01*
X135564698Y-98463436D01*
X135572339Y-98452000D01*
X137533866Y-98452000D01*
X137591564Y-98509698D01*
X137710636Y-98589259D01*
X137842942Y-98644062D01*
X137983397Y-98672000D01*
X138126603Y-98672000D01*
X138267058Y-98644062D01*
X138399364Y-98589259D01*
X138518436Y-98509698D01*
X138619698Y-98408436D01*
X138699259Y-98289364D01*
X138707279Y-98270000D01*
X146316418Y-98270000D01*
X146316418Y-99770000D01*
X146322732Y-99834103D01*
X146341430Y-99895743D01*
X146371794Y-99952550D01*
X146412657Y-100002343D01*
X146462450Y-100043206D01*
X146519257Y-100073570D01*
X146580897Y-100092268D01*
X146645000Y-100098582D01*
X147695000Y-100098582D01*
X147759103Y-100092268D01*
X147820743Y-100073570D01*
X147877550Y-100043206D01*
X147927343Y-100002343D01*
X147964588Y-99956958D01*
X148112377Y-100035954D01*
X148272980Y-100084672D01*
X148440000Y-100101122D01*
X148607021Y-100084672D01*
X148767624Y-100035954D01*
X148915636Y-99956839D01*
X149045370Y-99850370D01*
X149075000Y-99814265D01*
X149104631Y-99850370D01*
X149234365Y-99956839D01*
X149382377Y-100035954D01*
X149542980Y-100084672D01*
X149710000Y-100101122D01*
X149877021Y-100084672D01*
X150037624Y-100035954D01*
X150185636Y-99956839D01*
X150315370Y-99850370D01*
X150421839Y-99720636D01*
X150500954Y-99572624D01*
X150549672Y-99412021D01*
X150562000Y-99286851D01*
X150562000Y-98753148D01*
X150549672Y-98627979D01*
X150500954Y-98467376D01*
X150421839Y-98319364D01*
X150315370Y-98189630D01*
X150185635Y-98083161D01*
X150037623Y-98004046D01*
X149877020Y-97955328D01*
X149710000Y-97938878D01*
X149542979Y-97955328D01*
X149382376Y-98004046D01*
X149234364Y-98083161D01*
X149104630Y-98189630D01*
X149075000Y-98225735D01*
X149045370Y-98189630D01*
X148915635Y-98083161D01*
X148767623Y-98004046D01*
X148607020Y-97955328D01*
X148440000Y-97938878D01*
X148272979Y-97955328D01*
X148112376Y-98004046D01*
X147964588Y-98083041D01*
X147927343Y-98037657D01*
X147877550Y-97996794D01*
X147820743Y-97966430D01*
X147759103Y-97947732D01*
X147695000Y-97941418D01*
X146645000Y-97941418D01*
X146580897Y-97947732D01*
X146519257Y-97966430D01*
X146462450Y-97996794D01*
X146412657Y-98037657D01*
X146371794Y-98087450D01*
X146341430Y-98144257D01*
X146322732Y-98205897D01*
X146316418Y-98270000D01*
X138707279Y-98270000D01*
X138754062Y-98157058D01*
X138782000Y-98016603D01*
X138782000Y-97873397D01*
X138754062Y-97732942D01*
X138699259Y-97600636D01*
X138619698Y-97481564D01*
X138518436Y-97380302D01*
X138399364Y-97300741D01*
X138267058Y-97245938D01*
X138126603Y-97218000D01*
X137983397Y-97218000D01*
X137842942Y-97245938D01*
X137710636Y-97300741D01*
X137591564Y-97380302D01*
X137490302Y-97481564D01*
X137445911Y-97548000D01*
X135572339Y-97548000D01*
X135564698Y-97536564D01*
X135463436Y-97435302D01*
X135344364Y-97355741D01*
X135212058Y-97300938D01*
X135071603Y-97273000D01*
X134928397Y-97273000D01*
X134787942Y-97300938D01*
X134655636Y-97355741D01*
X134536564Y-97435302D01*
X134435302Y-97536564D01*
X134355741Y-97655636D01*
X134300938Y-97787942D01*
X134273000Y-97928397D01*
X129339219Y-97928397D01*
X129093251Y-97198397D01*
X142943000Y-97198397D01*
X142943000Y-97341603D01*
X142970938Y-97482058D01*
X143025741Y-97614364D01*
X143105302Y-97733436D01*
X143206564Y-97834698D01*
X143325636Y-97914259D01*
X143457942Y-97969062D01*
X143598397Y-97997000D01*
X143741603Y-97997000D01*
X143882058Y-97969062D01*
X144014364Y-97914259D01*
X144133436Y-97834698D01*
X144234698Y-97733436D01*
X144242339Y-97722000D01*
X151347661Y-97722000D01*
X151355302Y-97733436D01*
X151456564Y-97834698D01*
X151575636Y-97914259D01*
X151707942Y-97969062D01*
X151848397Y-97997000D01*
X151991603Y-97997000D01*
X152132058Y-97969062D01*
X152264364Y-97914259D01*
X152383436Y-97834698D01*
X152484698Y-97733436D01*
X152564259Y-97614364D01*
X152619062Y-97482058D01*
X152647000Y-97341603D01*
X152647000Y-97198397D01*
X152619062Y-97057942D01*
X152564259Y-96925636D01*
X152484698Y-96806564D01*
X152383436Y-96705302D01*
X152264364Y-96625741D01*
X152132058Y-96570938D01*
X151991603Y-96543000D01*
X151848397Y-96543000D01*
X151707942Y-96570938D01*
X151575636Y-96625741D01*
X151456564Y-96705302D01*
X151355302Y-96806564D01*
X151347661Y-96818000D01*
X144242339Y-96818000D01*
X144234698Y-96806564D01*
X144133436Y-96705302D01*
X144014364Y-96625741D01*
X143882058Y-96570938D01*
X143741603Y-96543000D01*
X143598397Y-96543000D01*
X143457942Y-96570938D01*
X143325636Y-96625741D01*
X143206564Y-96705302D01*
X143105302Y-96806564D01*
X143025741Y-96925636D01*
X142970938Y-97057942D01*
X142943000Y-97198397D01*
X129093251Y-97198397D01*
X129050619Y-97071871D01*
X128709203Y-96433129D01*
X128204749Y-95762752D01*
X127456988Y-96510513D01*
X127453052Y-96443738D01*
X127437540Y-96459251D01*
X127453052Y-96474764D01*
X127456905Y-96510596D01*
X124697502Y-99270000D01*
X123642498Y-99270000D01*
X121307989Y-96935490D01*
X121374764Y-96931554D01*
X121359251Y-96916042D01*
X121343738Y-96931554D01*
X121307906Y-96935407D01*
X120778590Y-96406091D01*
X120882900Y-96406091D01*
X120886948Y-96474764D01*
X120902460Y-96459251D01*
X121816042Y-96459251D01*
X121831554Y-96474764D01*
X121835602Y-96512411D01*
X121831554Y-96443738D01*
X121816042Y-96459251D01*
X120902460Y-96459251D01*
X120886948Y-96443738D01*
X120882900Y-96406091D01*
X120778590Y-96406091D01*
X120135251Y-95762752D01*
X119630797Y-96433129D01*
X119164570Y-97373194D01*
X118890699Y-98386151D01*
X118819709Y-99433074D01*
X114348582Y-99433074D01*
X114348582Y-98480642D01*
X116755313Y-96073912D01*
X116755322Y-96073901D01*
X117377225Y-95452000D01*
X118927661Y-95452000D01*
X118935302Y-95463436D01*
X119036564Y-95564698D01*
X119155636Y-95644259D01*
X119287942Y-95699062D01*
X119428397Y-95727000D01*
X119571603Y-95727000D01*
X119712058Y-95699062D01*
X119844364Y-95644259D01*
X119963436Y-95564698D01*
X120064698Y-95463436D01*
X120144259Y-95344364D01*
X120199062Y-95212058D01*
X120208216Y-95166038D01*
X120287942Y-95199062D01*
X120428397Y-95227000D01*
X120571603Y-95227000D01*
X120710408Y-95199390D01*
X120662752Y-95235251D01*
X121410513Y-95983012D01*
X121343738Y-95986948D01*
X121359251Y-96002460D01*
X121374764Y-95986948D01*
X121410596Y-95983095D01*
X124170000Y-98742498D01*
X125976896Y-96935602D01*
X126927589Y-96935602D01*
X126996262Y-96931554D01*
X126980749Y-96916042D01*
X126965236Y-96931554D01*
X126927589Y-96935602D01*
X125976896Y-96935602D01*
X126504510Y-96407989D01*
X126508446Y-96474764D01*
X126523958Y-96459251D01*
X126508446Y-96443738D01*
X126504593Y-96407906D01*
X126925551Y-95986948D01*
X126965236Y-95986948D01*
X126980749Y-96002460D01*
X126996262Y-95986948D01*
X127033909Y-95982900D01*
X126965236Y-95986948D01*
X126925551Y-95986948D01*
X127677248Y-95235251D01*
X127006871Y-94730797D01*
X126066806Y-94264570D01*
X125053849Y-93990699D01*
X124006926Y-93919709D01*
X122966269Y-94054327D01*
X121971871Y-94389381D01*
X121333129Y-94730797D01*
X121105883Y-94901798D01*
X121144259Y-94844364D01*
X121199062Y-94712058D01*
X121227000Y-94571603D01*
X121227000Y-94428397D01*
X121199062Y-94287942D01*
X121144259Y-94155636D01*
X121064698Y-94036564D01*
X120963436Y-93935302D01*
X120844364Y-93855741D01*
X120712058Y-93800938D01*
X120571603Y-93773000D01*
X120428397Y-93773000D01*
X120287942Y-93800938D01*
X120246751Y-93818000D01*
X115442204Y-93818000D01*
X115419999Y-93815813D01*
X115331392Y-93824540D01*
X115311562Y-93830556D01*
X115246190Y-93850386D01*
X115167667Y-93892357D01*
X115098841Y-93948841D01*
X115084686Y-93966089D01*
X111204608Y-97846169D01*
X111122597Y-97802333D01*
X110900732Y-97735031D01*
X110670000Y-97712306D01*
X110439269Y-97735031D01*
X110217404Y-97802333D01*
X110012931Y-97911626D01*
X109833710Y-98058709D01*
X109686626Y-98237930D01*
X109577333Y-98442403D01*
X109510031Y-98664268D01*
X109493000Y-98837188D01*
X109493000Y-99202811D01*
X109510031Y-99375731D01*
X109548437Y-99502339D01*
X104116096Y-104934681D01*
X104098842Y-104948841D01*
X104059319Y-104997000D01*
X104042358Y-105017667D01*
X104000386Y-105096191D01*
X103974540Y-105181393D01*
X103965813Y-105270000D01*
X103968001Y-105292215D01*
X103968000Y-107197661D01*
X103956564Y-107205302D01*
X103855302Y-107306564D01*
X103775741Y-107425636D01*
X103720938Y-107557942D01*
X103693000Y-107698397D01*
X94622000Y-107698397D01*
X94622000Y-107592339D01*
X94633436Y-107584698D01*
X94734698Y-107483436D01*
X94814259Y-107364364D01*
X94869062Y-107232058D01*
X94897000Y-107091603D01*
X94897000Y-106948397D01*
X94869062Y-106807942D01*
X94814259Y-106675636D01*
X94734698Y-106556564D01*
X94633436Y-106455302D01*
X94514364Y-106375741D01*
X94382058Y-106320938D01*
X94241603Y-106293000D01*
X94098397Y-106293000D01*
X93957942Y-106320938D01*
X93825636Y-106375741D01*
X93706564Y-106455302D01*
X93605302Y-106556564D01*
X93525741Y-106675636D01*
X93470938Y-106807942D01*
X93443000Y-106948397D01*
X77372000Y-106948397D01*
X77372000Y-103304749D01*
X81662752Y-103304749D01*
X82333129Y-103809203D01*
X83273194Y-104275430D01*
X84286151Y-104549301D01*
X85333074Y-104620291D01*
X86373731Y-104485673D01*
X87368129Y-104150619D01*
X88006871Y-103809203D01*
X88677248Y-103304749D01*
X87929487Y-102556988D01*
X87996262Y-102553052D01*
X87980749Y-102537540D01*
X87965236Y-102553052D01*
X87929404Y-102556905D01*
X87400088Y-102027589D01*
X87504398Y-102027589D01*
X87508446Y-102096262D01*
X87523958Y-102080749D01*
X88437540Y-102080749D01*
X88453052Y-102096262D01*
X88457100Y-102133909D01*
X88453052Y-102065236D01*
X88437540Y-102080749D01*
X87523958Y-102080749D01*
X87508446Y-102065236D01*
X87504398Y-102027589D01*
X87400088Y-102027589D01*
X85170000Y-99797502D01*
X82835490Y-102132011D01*
X82831554Y-102065236D01*
X82816042Y-102080749D01*
X82831554Y-102096262D01*
X82835407Y-102132094D01*
X81662752Y-103304749D01*
X77372000Y-103304749D01*
X77372000Y-99433074D01*
X79819709Y-99433074D01*
X79954327Y-100473731D01*
X80289381Y-101468129D01*
X80630797Y-102106871D01*
X81135251Y-102777248D01*
X81355399Y-102557100D01*
X82306091Y-102557100D01*
X82374764Y-102553052D01*
X82359251Y-102537540D01*
X82343738Y-102553052D01*
X82306091Y-102557100D01*
X81355399Y-102557100D01*
X81883012Y-102029487D01*
X81886948Y-102096262D01*
X81902460Y-102080749D01*
X81886948Y-102065236D01*
X81883095Y-102029404D01*
X82304052Y-101608446D01*
X82343738Y-101608446D01*
X82359251Y-101623958D01*
X82374764Y-101608446D01*
X82412411Y-101604398D01*
X82343738Y-101608446D01*
X82304052Y-101608446D01*
X84642498Y-99270000D01*
X85697502Y-99270000D01*
X88032011Y-101604510D01*
X87965236Y-101608446D01*
X87980749Y-101623958D01*
X87996262Y-101608446D01*
X88032094Y-101604593D01*
X89204749Y-102777248D01*
X89709203Y-102106871D01*
X90175430Y-101166806D01*
X90449301Y-100153849D01*
X90520291Y-99106926D01*
X90385673Y-98066269D01*
X90050619Y-97071871D01*
X89709203Y-96433129D01*
X89204749Y-95762752D01*
X88456988Y-96510513D01*
X88453052Y-96443738D01*
X88437540Y-96459251D01*
X88453052Y-96474764D01*
X88456905Y-96510596D01*
X85697502Y-99270000D01*
X84642498Y-99270000D01*
X82307989Y-96935490D01*
X82374764Y-96931554D01*
X82359251Y-96916042D01*
X82343738Y-96931554D01*
X82307906Y-96935407D01*
X81778590Y-96406091D01*
X81882900Y-96406091D01*
X81886948Y-96474764D01*
X81902460Y-96459251D01*
X82816042Y-96459251D01*
X82831554Y-96474764D01*
X82835602Y-96512411D01*
X82831554Y-96443738D01*
X82816042Y-96459251D01*
X81902460Y-96459251D01*
X81886948Y-96443738D01*
X81882900Y-96406091D01*
X81778590Y-96406091D01*
X81135251Y-95762752D01*
X80630797Y-96433129D01*
X80164570Y-97373194D01*
X79890699Y-98386151D01*
X79819709Y-99433074D01*
X77372000Y-99433074D01*
X77372000Y-95235251D01*
X81662752Y-95235251D01*
X82410513Y-95983012D01*
X82343738Y-95986948D01*
X82359251Y-96002460D01*
X82374764Y-95986948D01*
X82410596Y-95983095D01*
X85170000Y-98742498D01*
X86976896Y-96935602D01*
X87927589Y-96935602D01*
X87996262Y-96931554D01*
X87980749Y-96916042D01*
X87965236Y-96931554D01*
X87927589Y-96935602D01*
X86976896Y-96935602D01*
X87504510Y-96407989D01*
X87508446Y-96474764D01*
X87523958Y-96459251D01*
X87508446Y-96443738D01*
X87504593Y-96407906D01*
X87925551Y-95986948D01*
X87965236Y-95986948D01*
X87980749Y-96002460D01*
X87996262Y-95986948D01*
X88033909Y-95982900D01*
X87965236Y-95986948D01*
X87925551Y-95986948D01*
X88677248Y-95235251D01*
X88006871Y-94730797D01*
X87066806Y-94264570D01*
X86053849Y-93990699D01*
X85006926Y-93919709D01*
X83966269Y-94054327D01*
X82971871Y-94389381D01*
X82333129Y-94730797D01*
X81662752Y-95235251D01*
X77372000Y-95235251D01*
X77372000Y-93647000D01*
X95218001Y-93647000D01*
X95218001Y-97802152D01*
%TA.AperFunction,Conductor*%
D20*
G36*
X95218001Y-97802152D02*
G01*
X95217404Y-97802333D01*
X95012931Y-97911626D01*
X94833710Y-98058709D01*
X94686626Y-98237930D01*
X94577333Y-98442403D01*
X94510031Y-98664268D01*
X94493000Y-98837188D01*
X94493000Y-99202811D01*
X94510031Y-99375731D01*
X94577333Y-99597596D01*
X94686626Y-99802069D01*
X94833709Y-99981291D01*
X95012930Y-100128374D01*
X95217403Y-100237667D01*
X95439268Y-100304969D01*
X95670000Y-100327694D01*
X95900731Y-100304969D01*
X96122596Y-100237667D01*
X96327069Y-100128374D01*
X96506291Y-99981291D01*
X96653374Y-99802070D01*
X96762667Y-99597597D01*
X96829969Y-99375732D01*
X96847000Y-99202812D01*
X96847000Y-98837189D01*
X96829969Y-98664269D01*
X96762667Y-98442404D01*
X96653374Y-98237931D01*
X96506291Y-98058709D01*
X96327070Y-97911626D01*
X96122597Y-97802333D01*
X96122000Y-97802152D01*
X96122000Y-93647000D01*
X97718000Y-93647000D01*
X97718001Y-97802152D01*
X97717404Y-97802333D01*
X97512931Y-97911626D01*
X97333710Y-98058709D01*
X97186626Y-98237930D01*
X97077333Y-98442403D01*
X97010031Y-98664268D01*
X96993000Y-98837188D01*
X96993000Y-99202811D01*
X97010031Y-99375731D01*
X97077333Y-99597596D01*
X97186626Y-99802069D01*
X97333709Y-99981291D01*
X97512930Y-100128374D01*
X97717403Y-100237667D01*
X97939268Y-100304969D01*
X98170000Y-100327694D01*
X98400731Y-100304969D01*
X98622596Y-100237667D01*
X98827069Y-100128374D01*
X99006291Y-99981291D01*
X99153374Y-99802070D01*
X99262667Y-99597597D01*
X99329969Y-99375732D01*
X99347000Y-99202812D01*
X99347000Y-98837189D01*
X99347000Y-98837188D01*
X99493000Y-98837188D01*
X99493000Y-99202811D01*
X99510031Y-99375731D01*
X99577333Y-99597596D01*
X99686626Y-99802069D01*
X99833709Y-99981291D01*
X100012930Y-100128374D01*
X100217403Y-100237667D01*
X100439268Y-100304969D01*
X100670000Y-100327694D01*
X100900731Y-100304969D01*
X101122596Y-100237667D01*
X101327069Y-100128374D01*
X101506291Y-99981291D01*
X101653374Y-99802070D01*
X101762667Y-99597597D01*
X101829969Y-99375732D01*
X101847000Y-99202812D01*
X101847000Y-98837189D01*
X101829969Y-98664269D01*
X101762667Y-98442404D01*
X101653374Y-98237931D01*
X101506291Y-98058709D01*
X101327070Y-97911626D01*
X101122597Y-97802333D01*
X100900732Y-97735031D01*
X100670000Y-97712306D01*
X100439269Y-97735031D01*
X100217404Y-97802333D01*
X100012931Y-97911626D01*
X99833710Y-98058709D01*
X99686626Y-98237930D01*
X99577333Y-98442403D01*
X99510031Y-98664268D01*
X99493000Y-98837188D01*
X99347000Y-98837188D01*
X99329969Y-98664269D01*
X99262667Y-98442404D01*
X99153374Y-98237931D01*
X99006291Y-98058709D01*
X98827070Y-97911626D01*
X98622597Y-97802333D01*
X98622000Y-97802152D01*
X98622000Y-93647000D01*
X102718000Y-93647000D01*
X102718000Y-97802152D01*
X102717404Y-97802333D01*
X102512931Y-97911626D01*
X102333710Y-98058709D01*
X102186626Y-98237930D01*
X102077333Y-98442403D01*
X102010031Y-98664268D01*
X101993000Y-98837188D01*
X101993000Y-99202811D01*
X102010031Y-99375731D01*
X102077333Y-99597596D01*
X102186626Y-99802069D01*
X102333709Y-99981291D01*
X102512930Y-100128374D01*
X102717403Y-100237667D01*
X102939268Y-100304969D01*
X103170000Y-100327694D01*
X103400731Y-100304969D01*
X103622596Y-100237667D01*
X103827069Y-100128374D01*
X104006291Y-99981291D01*
X104153374Y-99802070D01*
X104262667Y-99597597D01*
X104329969Y-99375732D01*
X104347000Y-99202812D01*
X104347000Y-98837189D01*
X104329969Y-98664269D01*
X104262667Y-98442404D01*
X104153374Y-98237931D01*
X104006291Y-98058709D01*
X103827070Y-97911626D01*
X103622597Y-97802333D01*
X103622000Y-97802152D01*
X103622000Y-93647000D01*
X110403776Y-93647000D01*
X106204608Y-97846169D01*
X106122597Y-97802333D01*
X105900732Y-97735031D01*
X105670000Y-97712306D01*
X105439269Y-97735031D01*
X105217404Y-97802333D01*
X105012931Y-97911626D01*
X104833710Y-98058709D01*
X104686626Y-98237930D01*
X104577333Y-98442403D01*
X104510031Y-98664268D01*
X104493000Y-98837188D01*
X104493000Y-99202811D01*
X104510031Y-99375731D01*
X104577333Y-99597596D01*
X104686626Y-99802069D01*
X104833709Y-99981291D01*
X105012930Y-100128374D01*
X105217403Y-100237667D01*
X105439268Y-100304969D01*
X105670000Y-100327694D01*
X105900731Y-100304969D01*
X106122596Y-100237667D01*
X106327069Y-100128374D01*
X106506291Y-99981291D01*
X106653374Y-99802070D01*
X106762667Y-99597597D01*
X106829969Y-99375732D01*
X106847000Y-99202812D01*
X106847000Y-98837189D01*
X106829969Y-98664269D01*
X106791563Y-98537660D01*
X108013150Y-97316073D01*
X108038394Y-97377017D01*
X108117955Y-97496089D01*
X108219217Y-97597351D01*
X108338289Y-97676912D01*
X108470595Y-97731715D01*
X108552725Y-97748052D01*
X108527340Y-97773437D01*
X108400732Y-97735031D01*
X108170000Y-97712306D01*
X107939269Y-97735031D01*
X107717404Y-97802333D01*
X107512931Y-97911626D01*
X107333710Y-98058709D01*
X107186626Y-98237930D01*
X107077333Y-98442403D01*
X107010031Y-98664268D01*
X106993000Y-98837188D01*
X106993000Y-99202811D01*
X107010031Y-99375731D01*
X107077333Y-99597596D01*
X107186626Y-99802069D01*
X107333709Y-99981291D01*
X107512930Y-100128374D01*
X107717403Y-100237667D01*
X107939268Y-100304969D01*
X108170000Y-100327694D01*
X108400731Y-100304969D01*
X108622596Y-100237667D01*
X108827069Y-100128374D01*
X109006291Y-99981291D01*
X109153374Y-99802070D01*
X109262667Y-99597597D01*
X109329969Y-99375732D01*
X109347000Y-99202812D01*
X109347000Y-98837189D01*
X109329969Y-98664269D01*
X109262667Y-98442404D01*
X109218831Y-98360392D01*
X113857224Y-93722000D01*
X127482777Y-93722000D01*
X130084686Y-96323911D01*
X130098841Y-96341159D01*
X130167667Y-96397643D01*
X130246190Y-96439614D01*
X130310925Y-96459251D01*
X130331392Y-96465460D01*
X130419999Y-96474187D01*
X130442204Y-96472000D01*
X131097661Y-96472000D01*
X131105302Y-96483436D01*
X131206564Y-96584698D01*
X131325636Y-96664259D01*
X131457942Y-96719062D01*
X131598397Y-96747000D01*
X131741603Y-96747000D01*
X131882058Y-96719062D01*
X132014364Y-96664259D01*
X132133436Y-96584698D01*
X132234698Y-96483436D01*
X132314259Y-96364364D01*
X132369062Y-96232058D01*
X132397000Y-96091603D01*
X132397000Y-95948397D01*
X132369062Y-95807942D01*
X132314259Y-95675636D01*
X132234698Y-95556564D01*
X132150134Y-95472000D01*
X148482777Y-95472000D01*
X148945683Y-95934907D01*
X148943000Y-95948397D01*
X148943000Y-96091603D01*
X148970938Y-96232058D01*
X149025741Y-96364364D01*
X149105302Y-96483436D01*
X149206564Y-96584698D01*
X149325636Y-96664259D01*
X149457942Y-96719062D01*
X149598397Y-96747000D01*
X149741603Y-96747000D01*
X149882058Y-96719062D01*
X150014364Y-96664259D01*
X150133436Y-96584698D01*
X150234698Y-96483436D01*
X150314259Y-96364364D01*
X150369062Y-96232058D01*
X150397000Y-96091603D01*
X150397000Y-95948397D01*
X150369062Y-95807942D01*
X150314259Y-95675636D01*
X150234698Y-95556564D01*
X150133436Y-95455302D01*
X150014364Y-95375741D01*
X149882058Y-95320938D01*
X149741603Y-95293000D01*
X149598397Y-95293000D01*
X149584907Y-95295683D01*
X149005323Y-94716100D01*
X148991159Y-94698841D01*
X148922333Y-94642357D01*
X148843810Y-94600386D01*
X148758607Y-94574540D01*
X148692205Y-94568000D01*
X148670000Y-94565813D01*
X148647795Y-94568000D01*
X148583464Y-94568000D01*
X148619062Y-94482058D01*
X148647000Y-94341603D01*
X148647000Y-94198397D01*
X148619062Y-94057942D01*
X148564259Y-93925636D01*
X148484698Y-93806564D01*
X148383436Y-93705302D01*
X148296180Y-93647000D01*
X156141750Y-93647000D01*
X156141749Y-100273912D01*
X156130313Y-100281553D01*
X156029051Y-100382815D01*
X155949490Y-100501887D01*
X155894687Y-100634193D01*
X155866749Y-100774648D01*
X155866749Y-100917854D01*
X155894687Y-101058309D01*
X155949490Y-101190615D01*
X156029051Y-101309687D01*
X156130313Y-101410949D01*
X156249385Y-101490510D01*
X156381691Y-101545313D01*
X156522146Y-101573251D01*
X156665352Y-101573251D01*
X156805807Y-101545313D01*
X156938113Y-101490510D01*
X157057185Y-101410949D01*
X157158447Y-101309687D01*
X157238008Y-101190615D01*
X157292811Y-101058309D01*
X157320749Y-100917854D01*
X157320749Y-100774648D01*
X157292811Y-100634193D01*
X157238008Y-100501887D01*
X157158447Y-100382815D01*
X157057185Y-100281553D01*
X157045749Y-100273912D01*
X157045749Y-99433074D01*
X164569709Y-99433074D01*
X164704327Y-100473731D01*
X165039381Y-101468129D01*
X165380797Y-102106871D01*
X165885251Y-102777248D01*
X166105399Y-102557100D01*
X167056091Y-102557100D01*
X167124764Y-102553052D01*
X167109251Y-102537540D01*
X167093738Y-102553052D01*
X167056091Y-102557100D01*
X166105399Y-102557100D01*
X166633012Y-102029487D01*
X166636948Y-102096262D01*
X166652460Y-102080749D01*
X166636948Y-102065236D01*
X166633095Y-102029404D01*
X167054052Y-101608446D01*
X167093738Y-101608446D01*
X167109251Y-101623958D01*
X167124764Y-101608446D01*
X167162411Y-101604398D01*
X167093738Y-101608446D01*
X167054052Y-101608446D01*
X169392498Y-99270000D01*
X170447502Y-99270000D01*
X172782011Y-101604510D01*
X172715236Y-101608446D01*
X172730749Y-101623958D01*
X172746262Y-101608446D01*
X172782094Y-101604593D01*
X173954749Y-102777248D01*
X174459203Y-102106871D01*
X174925430Y-101166806D01*
X175199301Y-100153849D01*
X175270291Y-99106926D01*
X175135673Y-98066269D01*
X174800619Y-97071871D01*
X174459203Y-96433129D01*
X173954749Y-95762752D01*
X173206988Y-96510513D01*
X173203052Y-96443738D01*
X173187540Y-96459251D01*
X173203052Y-96474764D01*
X173206905Y-96510596D01*
X170447502Y-99270000D01*
X169392498Y-99270000D01*
X167057989Y-96935490D01*
X167124764Y-96931554D01*
X167109251Y-96916042D01*
X167093738Y-96931554D01*
X167057906Y-96935407D01*
X166528590Y-96406091D01*
X166632900Y-96406091D01*
X166636948Y-96474764D01*
X166652460Y-96459251D01*
X167566042Y-96459251D01*
X167581554Y-96474764D01*
X167585602Y-96512411D01*
X167581554Y-96443738D01*
X167566042Y-96459251D01*
X166652460Y-96459251D01*
X166636948Y-96443738D01*
X166632900Y-96406091D01*
X166528590Y-96406091D01*
X165885251Y-95762752D01*
X165380797Y-96433129D01*
X164914570Y-97373194D01*
X164640699Y-98386151D01*
X164569709Y-99433074D01*
X157045749Y-99433074D01*
X157045749Y-95235251D01*
X166412752Y-95235251D01*
X167160513Y-95983012D01*
X167093738Y-95986948D01*
X167109251Y-96002460D01*
X167124764Y-95986948D01*
X167160596Y-95983095D01*
X169920000Y-98742498D01*
X171726896Y-96935602D01*
X172677589Y-96935602D01*
X172746262Y-96931554D01*
X172730749Y-96916042D01*
X172715236Y-96931554D01*
X172677589Y-96935602D01*
X171726896Y-96935602D01*
X172254510Y-96407989D01*
X172258446Y-96474764D01*
X172273958Y-96459251D01*
X172258446Y-96443738D01*
X172254593Y-96407906D01*
X172675551Y-95986948D01*
X172715236Y-95986948D01*
X172730749Y-96002460D01*
X172746262Y-95986948D01*
X172783909Y-95982900D01*
X172715236Y-95986948D01*
X172675551Y-95986948D01*
X173427248Y-95235251D01*
X172756871Y-94730797D01*
X171816806Y-94264570D01*
X170803849Y-93990699D01*
X169756926Y-93919709D01*
X168716269Y-94054327D01*
X167721871Y-94389381D01*
X167083129Y-94730797D01*
X166412752Y-95235251D01*
X157045749Y-95235251D01*
X157045749Y-93647000D01*
X158189955Y-93647000D01*
X158281636Y-93708259D01*
X158413942Y-93763062D01*
X158554397Y-93791000D01*
X158697603Y-93791000D01*
X158838058Y-93763062D01*
X158970364Y-93708259D01*
X159062045Y-93647000D01*
X162549806Y-93647000D01*
X162575636Y-93664259D01*
X162707942Y-93719062D01*
X162848397Y-93747000D01*
X162991603Y-93747000D01*
X163132058Y-93719062D01*
X163264364Y-93664259D01*
X163290194Y-93647000D01*
X204318000Y-93647000D01*
X204318001Y-115143000D01*
X187295125Y-115143000D01*
X187314259Y-115114364D01*
X187369062Y-114982058D01*
X187397000Y-114841603D01*
X187397000Y-114698397D01*
X187369062Y-114557942D01*
X187314259Y-114425636D01*
X187234698Y-114306564D01*
X187133436Y-114205302D01*
X187014364Y-114125741D01*
X186882058Y-114070938D01*
X186741603Y-114043000D01*
X186598397Y-114043000D01*
X186457942Y-114070938D01*
X186325636Y-114125741D01*
X186206564Y-114205302D01*
X186105302Y-114306564D01*
X186097661Y-114318000D01*
X179742339Y-114318000D01*
X179734698Y-114306564D01*
X179633436Y-114205302D01*
X179514364Y-114125741D01*
X179382058Y-114070938D01*
X179241603Y-114043000D01*
X179098397Y-114043000D01*
X178957942Y-114070938D01*
X178825636Y-114125741D01*
X178706564Y-114205302D01*
X178605302Y-114306564D01*
X178525741Y-114425636D01*
X178470938Y-114557942D01*
X178443000Y-114698397D01*
X178443000Y-114841603D01*
X178470938Y-114982058D01*
X178525741Y-115114364D01*
X178544875Y-115143000D01*
X175295125Y-115143000D01*
X175314259Y-115114364D01*
X175369062Y-114982058D01*
X175397000Y-114841603D01*
X175397000Y-114698397D01*
X175369062Y-114557942D01*
X175314259Y-114425636D01*
X175234698Y-114306564D01*
X175133436Y-114205302D01*
X175014364Y-114125741D01*
X174882058Y-114070938D01*
X174741603Y-114043000D01*
X174598397Y-114043000D01*
X174457942Y-114070938D01*
X174325636Y-114125741D01*
X174206564Y-114205302D01*
X174105302Y-114306564D01*
X174097661Y-114318000D01*
X167992339Y-114318000D01*
X167984698Y-114306564D01*
X167883436Y-114205302D01*
X167764364Y-114125741D01*
X167632058Y-114070938D01*
X167491603Y-114043000D01*
X167348397Y-114043000D01*
X167207942Y-114070938D01*
X167075636Y-114125741D01*
X166956564Y-114205302D01*
X166855302Y-114306564D01*
X166775741Y-114425636D01*
X166720938Y-114557942D01*
X166693000Y-114698397D01*
X166693000Y-114841603D01*
X166720938Y-114982058D01*
X166775741Y-115114364D01*
X166794875Y-115143000D01*
X163045125Y-115143000D01*
X163064259Y-115114364D01*
X163119062Y-114982058D01*
X163147000Y-114841603D01*
X163147000Y-114698397D01*
X163119062Y-114557942D01*
X163064259Y-114425636D01*
X162984698Y-114306564D01*
X162883436Y-114205302D01*
X162764364Y-114125741D01*
X162632058Y-114070938D01*
X162491603Y-114043000D01*
X162348397Y-114043000D01*
X162207942Y-114070938D01*
X162075636Y-114125741D01*
X161956564Y-114205302D01*
X161855302Y-114306564D01*
X161847661Y-114318000D01*
X157492339Y-114318000D01*
X157484698Y-114306564D01*
X157383436Y-114205302D01*
X157264364Y-114125741D01*
X157132058Y-114070938D01*
X156991603Y-114043000D01*
X156848397Y-114043000D01*
X156707942Y-114070938D01*
X156575636Y-114125741D01*
X156456564Y-114205302D01*
X156355302Y-114306564D01*
X156275741Y-114425636D01*
X156220938Y-114557942D01*
X156193000Y-114698397D01*
X156193000Y-114841603D01*
X156220938Y-114982058D01*
X156275741Y-115114364D01*
X156294875Y-115143000D01*
X140795125Y-115143000D01*
X140814259Y-115114364D01*
X140869062Y-114982058D01*
X140897000Y-114841603D01*
X140897000Y-114698397D01*
X140869062Y-114557942D01*
X140814259Y-114425636D01*
X140734698Y-114306564D01*
X140633436Y-114205302D01*
X140514364Y-114125741D01*
X140382058Y-114070938D01*
X140241603Y-114043000D01*
X140098397Y-114043000D01*
X139957942Y-114070938D01*
X139825636Y-114125741D01*
X139706564Y-114205302D01*
X139605302Y-114306564D01*
X139597661Y-114318000D01*
X132992339Y-114318000D01*
X132984698Y-114306564D01*
X132883436Y-114205302D01*
X132764364Y-114125741D01*
X132632058Y-114070938D01*
X132491603Y-114043000D01*
X132348397Y-114043000D01*
X132207942Y-114070938D01*
X132075636Y-114125741D01*
X131956564Y-114205302D01*
X131855302Y-114306564D01*
X131775741Y-114425636D01*
X131720938Y-114557942D01*
X131693000Y-114698397D01*
X131693000Y-114841603D01*
X131720938Y-114982058D01*
X131775741Y-115114364D01*
X131794875Y-115143000D01*
X129545125Y-115143000D01*
X129564259Y-115114364D01*
X129619062Y-114982058D01*
X129647000Y-114841603D01*
X129647000Y-114698397D01*
X129619062Y-114557942D01*
X129564259Y-114425636D01*
X129484698Y-114306564D01*
X129383436Y-114205302D01*
X129264364Y-114125741D01*
X129132058Y-114070938D01*
X128991603Y-114043000D01*
X128848397Y-114043000D01*
X128707942Y-114070938D01*
X128575636Y-114125741D01*
X128456564Y-114205302D01*
X128355302Y-114306564D01*
X128347661Y-114318000D01*
X121492339Y-114318000D01*
X121484698Y-114306564D01*
X121383436Y-114205302D01*
X121264364Y-114125741D01*
X121132058Y-114070938D01*
X120991603Y-114043000D01*
X120848397Y-114043000D01*
X120707942Y-114070938D01*
X120575636Y-114125741D01*
X120456564Y-114205302D01*
X120355302Y-114306564D01*
X120275741Y-114425636D01*
X120220938Y-114557942D01*
X120193000Y-114698397D01*
X120193000Y-114841603D01*
X120220938Y-114982058D01*
X120275741Y-115114364D01*
X120294875Y-115143000D01*
X117295125Y-115143000D01*
X117314259Y-115114364D01*
X117369062Y-114982058D01*
X117397000Y-114841603D01*
X117397000Y-114698397D01*
X117369062Y-114557942D01*
X117314259Y-114425636D01*
X117234698Y-114306564D01*
X117133436Y-114205302D01*
X117014364Y-114125741D01*
X116882058Y-114070938D01*
X116741603Y-114043000D01*
X116598397Y-114043000D01*
X116457942Y-114070938D01*
X116325636Y-114125741D01*
X116206564Y-114205302D01*
X116105302Y-114306564D01*
X116097661Y-114318000D01*
X105992339Y-114318000D01*
X105984698Y-114306564D01*
X105883436Y-114205302D01*
X105764364Y-114125741D01*
X105632058Y-114070938D01*
X105491603Y-114043000D01*
X105348397Y-114043000D01*
X105207942Y-114070938D01*
X105075636Y-114125741D01*
X104956564Y-114205302D01*
X104855302Y-114306564D01*
X104775741Y-114425636D01*
X104720938Y-114557942D01*
X104693000Y-114698397D01*
X104693000Y-114841603D01*
X104720938Y-114982058D01*
X104775741Y-115114364D01*
X104794875Y-115143000D01*
X77372000Y-115143000D01*
X77372000Y-106948397D01*
X93443000Y-106948397D01*
X93443000Y-107091603D01*
X93470938Y-107232058D01*
X93525741Y-107364364D01*
X93605302Y-107483436D01*
X93706564Y-107584698D01*
X93718001Y-107592340D01*
X93718000Y-112447661D01*
X93706564Y-112455302D01*
X93605302Y-112556564D01*
X93525741Y-112675636D01*
X93470938Y-112807942D01*
X93443000Y-112948397D01*
X93443000Y-113091603D01*
X93470938Y-113232058D01*
X93525741Y-113364364D01*
X93605302Y-113483436D01*
X93706564Y-113584698D01*
X93825636Y-113664259D01*
X93957942Y-113719062D01*
X94098397Y-113747000D01*
X94241603Y-113747000D01*
X94382058Y-113719062D01*
X94514364Y-113664259D01*
X94633436Y-113584698D01*
X94734698Y-113483436D01*
X94814259Y-113364364D01*
X94869062Y-113232058D01*
X94897000Y-113091603D01*
X94897000Y-112948397D01*
X94869062Y-112807942D01*
X94814259Y-112675636D01*
X94734698Y-112556564D01*
X94633436Y-112455302D01*
X94622000Y-112447661D01*
X94622000Y-110198397D01*
X129693000Y-110198397D01*
X129693000Y-110341603D01*
X129720938Y-110482058D01*
X129775741Y-110614364D01*
X129855302Y-110733436D01*
X129956564Y-110834698D01*
X130075636Y-110914259D01*
X130207942Y-110969062D01*
X130348397Y-110997000D01*
X130491603Y-110997000D01*
X130632058Y-110969062D01*
X130764364Y-110914259D01*
X130883436Y-110834698D01*
X130984698Y-110733436D01*
X131064259Y-110614364D01*
X131119062Y-110482058D01*
X131147000Y-110341603D01*
X131147000Y-110198397D01*
X131119062Y-110057942D01*
X131064259Y-109925636D01*
X130984698Y-109806564D01*
X130883436Y-109705302D01*
X130872000Y-109697661D01*
X130872000Y-106948397D01*
X155693000Y-106948397D01*
X155693000Y-107091603D01*
X155720938Y-107232058D01*
X155775741Y-107364364D01*
X155855302Y-107483436D01*
X155956564Y-107584698D01*
X155968000Y-107592339D01*
X155968001Y-110997785D01*
X155965813Y-111020000D01*
X155970010Y-111062609D01*
X155943000Y-111198397D01*
X155943000Y-111341603D01*
X155970938Y-111482058D01*
X156025741Y-111614364D01*
X156105302Y-111733436D01*
X156206564Y-111834698D01*
X156325636Y-111914259D01*
X156457942Y-111969062D01*
X156598397Y-111997000D01*
X156741603Y-111997000D01*
X156882058Y-111969062D01*
X157014364Y-111914259D01*
X157133436Y-111834698D01*
X157234698Y-111733436D01*
X157314259Y-111614364D01*
X157369062Y-111482058D01*
X157397000Y-111341603D01*
X157397000Y-111198397D01*
X157369062Y-111057942D01*
X157314259Y-110925636D01*
X157234698Y-110806564D01*
X157133436Y-110705302D01*
X157014364Y-110625741D01*
X156882058Y-110570938D01*
X156872000Y-110568937D01*
X156872000Y-107592339D01*
X156883436Y-107584698D01*
X156984698Y-107483436D01*
X157064259Y-107364364D01*
X157119062Y-107232058D01*
X157147000Y-107091603D01*
X157147000Y-106948397D01*
X157119062Y-106807942D01*
X157064259Y-106675636D01*
X156984698Y-106556564D01*
X156883436Y-106455302D01*
X156764364Y-106375741D01*
X156632058Y-106320938D01*
X156491603Y-106293000D01*
X156348397Y-106293000D01*
X156207942Y-106320938D01*
X156075636Y-106375741D01*
X155956564Y-106455302D01*
X155855302Y-106556564D01*
X155775741Y-106675636D01*
X155720938Y-106807942D01*
X155693000Y-106948397D01*
X130872000Y-106948397D01*
X130872000Y-105957223D01*
X131834908Y-104994317D01*
X131848397Y-104997000D01*
X131991603Y-104997000D01*
X132132058Y-104969062D01*
X132264364Y-104914259D01*
X132383436Y-104834698D01*
X132484698Y-104733436D01*
X132564259Y-104614364D01*
X132619062Y-104482058D01*
X132647000Y-104341603D01*
X132647000Y-104198397D01*
X132619062Y-104057942D01*
X132564259Y-103925636D01*
X132484698Y-103806564D01*
X132383436Y-103705302D01*
X132264364Y-103625741D01*
X132132058Y-103570938D01*
X131991603Y-103543000D01*
X131848397Y-103543000D01*
X131707942Y-103570938D01*
X131575636Y-103625741D01*
X131456564Y-103705302D01*
X131355302Y-103806564D01*
X131275741Y-103925636D01*
X131220938Y-104057942D01*
X131193000Y-104198397D01*
X131193000Y-104341603D01*
X131195683Y-104355092D01*
X130116100Y-105434677D01*
X130098841Y-105448841D01*
X130042358Y-105517667D01*
X130000386Y-105596191D01*
X129974540Y-105681393D01*
X129965813Y-105770000D01*
X129968000Y-105792205D01*
X129968001Y-109697660D01*
X129956564Y-109705302D01*
X129855302Y-109806564D01*
X129775741Y-109925636D01*
X129720938Y-110057942D01*
X129693000Y-110198397D01*
X94622000Y-110198397D01*
X94622000Y-107698397D01*
X103693000Y-107698397D01*
X103693000Y-107841603D01*
X103720938Y-107982058D01*
X103775741Y-108114364D01*
X103855302Y-108233436D01*
X103956564Y-108334698D01*
X104075636Y-108414259D01*
X104207942Y-108469062D01*
X104348397Y-108497000D01*
X104491603Y-108497000D01*
X104632058Y-108469062D01*
X104764364Y-108414259D01*
X104883436Y-108334698D01*
X104984698Y-108233436D01*
X105064259Y-108114364D01*
X105119062Y-107982058D01*
X105147000Y-107841603D01*
X105147000Y-107698397D01*
X105119062Y-107557942D01*
X105064259Y-107425636D01*
X104984698Y-107306564D01*
X104883436Y-107205302D01*
X104872000Y-107197661D01*
X104872000Y-105457223D01*
X107024474Y-103304749D01*
X120662752Y-103304749D01*
X121333129Y-103809203D01*
X122273194Y-104275430D01*
X123286151Y-104549301D01*
X124333074Y-104620291D01*
X125373731Y-104485673D01*
X126368129Y-104150619D01*
X127006871Y-103809203D01*
X127677248Y-103304749D01*
X166412752Y-103304749D01*
X167083129Y-103809203D01*
X168023194Y-104275430D01*
X169036151Y-104549301D01*
X170083074Y-104620291D01*
X171123731Y-104485673D01*
X172118129Y-104150619D01*
X172756871Y-103809203D01*
X173427248Y-103304749D01*
X172679487Y-102556988D01*
X172746262Y-102553052D01*
X172730749Y-102537540D01*
X172715236Y-102553052D01*
X172679404Y-102556905D01*
X172150088Y-102027589D01*
X172254398Y-102027589D01*
X172258446Y-102096262D01*
X172273958Y-102080749D01*
X173187540Y-102080749D01*
X173203052Y-102096262D01*
X173207100Y-102133909D01*
X173203052Y-102065236D01*
X173187540Y-102080749D01*
X172273958Y-102080749D01*
X172258446Y-102065236D01*
X172254398Y-102027589D01*
X172150088Y-102027589D01*
X169920000Y-99797502D01*
X167585490Y-102132011D01*
X167581554Y-102065236D01*
X167566042Y-102080749D01*
X167581554Y-102096262D01*
X167585407Y-102132094D01*
X166412752Y-103304749D01*
X127677248Y-103304749D01*
X126929487Y-102556988D01*
X126996262Y-102553052D01*
X126980749Y-102537540D01*
X126965236Y-102553052D01*
X126929404Y-102556905D01*
X126400088Y-102027589D01*
X126504398Y-102027589D01*
X126508446Y-102096262D01*
X126523958Y-102080749D01*
X127437540Y-102080749D01*
X127453052Y-102096262D01*
X127457100Y-102133909D01*
X127453052Y-102065236D01*
X127437540Y-102080749D01*
X126523958Y-102080749D01*
X126508446Y-102065236D01*
X126504398Y-102027589D01*
X126400088Y-102027589D01*
X124170000Y-99797502D01*
X121835490Y-102132011D01*
X121831554Y-102065236D01*
X121816042Y-102080749D01*
X121831554Y-102096262D01*
X121835407Y-102132094D01*
X120662752Y-103304749D01*
X107024474Y-103304749D01*
X110135392Y-100193831D01*
X110217403Y-100237667D01*
X110439268Y-100304969D01*
X110670000Y-100327694D01*
X110900731Y-100304969D01*
X111122596Y-100237667D01*
X111327069Y-100128374D01*
X111506291Y-99981291D01*
X111653374Y-99802070D01*
X111762667Y-99597597D01*
X111829969Y-99375732D01*
X111847000Y-99202812D01*
X111847000Y-98837189D01*
X111829969Y-98664269D01*
X111791563Y-98537661D01*
X111991418Y-98337805D01*
X111991418Y-99745000D01*
X112002535Y-99857876D01*
X112035460Y-99966414D01*
X112088927Y-100066443D01*
X112160881Y-100154119D01*
X112248557Y-100226073D01*
X112348586Y-100279540D01*
X112457124Y-100312465D01*
X112570000Y-100323582D01*
X113770000Y-100323582D01*
X113882876Y-100312465D01*
X113991414Y-100279540D01*
X114091443Y-100226073D01*
X114179119Y-100154119D01*
X114251073Y-100066443D01*
X114304540Y-99966414D01*
X114337465Y-99857876D01*
X114348582Y-99745000D01*
X114348582Y-99433074D01*
X118819709Y-99433074D01*
X118954327Y-100473731D01*
X119289381Y-101468129D01*
X119630797Y-102106871D01*
X120135251Y-102777248D01*
X120355399Y-102557100D01*
X121306091Y-102557100D01*
X121374764Y-102553052D01*
X121359251Y-102537540D01*
X121343738Y-102553052D01*
X121306091Y-102557100D01*
X120355399Y-102557100D01*
X120883012Y-102029487D01*
X120886948Y-102096262D01*
X120902460Y-102080749D01*
X120886948Y-102065236D01*
X120883095Y-102029404D01*
X121304052Y-101608446D01*
X121343738Y-101608446D01*
X121359251Y-101623958D01*
X121374764Y-101608446D01*
X121412411Y-101604398D01*
X121343738Y-101608446D01*
X121304052Y-101608446D01*
X123642498Y-99270000D01*
X124697502Y-99270000D01*
X127032011Y-101604510D01*
X126965236Y-101608446D01*
X126980749Y-101623958D01*
X126996262Y-101608446D01*
X127032094Y-101604593D01*
X128204749Y-102777248D01*
X128709203Y-102106871D01*
X129175430Y-101166806D01*
X129449301Y-100153849D01*
X129520291Y-99106926D01*
X129385673Y-98066269D01*
X129339219Y-97928397D01*
X134273000Y-97928397D01*
X134273000Y-98071603D01*
X134300938Y-98212058D01*
X134355741Y-98344364D01*
X134435302Y-98463436D01*
X134536564Y-98564698D01*
X134655636Y-98644259D01*
X134787942Y-98699062D01*
X134928397Y-98727000D01*
X135071603Y-98727000D01*
X135212058Y-98699062D01*
X135344364Y-98644259D01*
X135463436Y-98564698D01*
X135564698Y-98463436D01*
X135572339Y-98452000D01*
X137533866Y-98452000D01*
X137591564Y-98509698D01*
X137710636Y-98589259D01*
X137842942Y-98644062D01*
X137983397Y-98672000D01*
X138126603Y-98672000D01*
X138267058Y-98644062D01*
X138399364Y-98589259D01*
X138518436Y-98509698D01*
X138619698Y-98408436D01*
X138699259Y-98289364D01*
X138707279Y-98270000D01*
X146316418Y-98270000D01*
X146316418Y-99770000D01*
X146322732Y-99834103D01*
X146341430Y-99895743D01*
X146371794Y-99952550D01*
X146412657Y-100002343D01*
X146462450Y-100043206D01*
X146519257Y-100073570D01*
X146580897Y-100092268D01*
X146645000Y-100098582D01*
X147695000Y-100098582D01*
X147759103Y-100092268D01*
X147820743Y-100073570D01*
X147877550Y-100043206D01*
X147927343Y-100002343D01*
X147964588Y-99956958D01*
X148112377Y-100035954D01*
X148272980Y-100084672D01*
X148440000Y-100101122D01*
X148607021Y-100084672D01*
X148767624Y-100035954D01*
X148915636Y-99956839D01*
X149045370Y-99850370D01*
X149075000Y-99814265D01*
X149104631Y-99850370D01*
X149234365Y-99956839D01*
X149382377Y-100035954D01*
X149542980Y-100084672D01*
X149710000Y-100101122D01*
X149877021Y-100084672D01*
X150037624Y-100035954D01*
X150185636Y-99956839D01*
X150315370Y-99850370D01*
X150421839Y-99720636D01*
X150500954Y-99572624D01*
X150549672Y-99412021D01*
X150562000Y-99286851D01*
X150562000Y-98753148D01*
X150549672Y-98627979D01*
X150500954Y-98467376D01*
X150421839Y-98319364D01*
X150315370Y-98189630D01*
X150185635Y-98083161D01*
X150037623Y-98004046D01*
X149877020Y-97955328D01*
X149710000Y-97938878D01*
X149542979Y-97955328D01*
X149382376Y-98004046D01*
X149234364Y-98083161D01*
X149104630Y-98189630D01*
X149075000Y-98225735D01*
X149045370Y-98189630D01*
X148915635Y-98083161D01*
X148767623Y-98004046D01*
X148607020Y-97955328D01*
X148440000Y-97938878D01*
X148272979Y-97955328D01*
X148112376Y-98004046D01*
X147964588Y-98083041D01*
X147927343Y-98037657D01*
X147877550Y-97996794D01*
X147820743Y-97966430D01*
X147759103Y-97947732D01*
X147695000Y-97941418D01*
X146645000Y-97941418D01*
X146580897Y-97947732D01*
X146519257Y-97966430D01*
X146462450Y-97996794D01*
X146412657Y-98037657D01*
X146371794Y-98087450D01*
X146341430Y-98144257D01*
X146322732Y-98205897D01*
X146316418Y-98270000D01*
X138707279Y-98270000D01*
X138754062Y-98157058D01*
X138782000Y-98016603D01*
X138782000Y-97873397D01*
X138754062Y-97732942D01*
X138699259Y-97600636D01*
X138619698Y-97481564D01*
X138518436Y-97380302D01*
X138399364Y-97300741D01*
X138267058Y-97245938D01*
X138126603Y-97218000D01*
X137983397Y-97218000D01*
X137842942Y-97245938D01*
X137710636Y-97300741D01*
X137591564Y-97380302D01*
X137490302Y-97481564D01*
X137445911Y-97548000D01*
X135572339Y-97548000D01*
X135564698Y-97536564D01*
X135463436Y-97435302D01*
X135344364Y-97355741D01*
X135212058Y-97300938D01*
X135071603Y-97273000D01*
X134928397Y-97273000D01*
X134787942Y-97300938D01*
X134655636Y-97355741D01*
X134536564Y-97435302D01*
X134435302Y-97536564D01*
X134355741Y-97655636D01*
X134300938Y-97787942D01*
X134273000Y-97928397D01*
X129339219Y-97928397D01*
X129093251Y-97198397D01*
X142943000Y-97198397D01*
X142943000Y-97341603D01*
X142970938Y-97482058D01*
X143025741Y-97614364D01*
X143105302Y-97733436D01*
X143206564Y-97834698D01*
X143325636Y-97914259D01*
X143457942Y-97969062D01*
X143598397Y-97997000D01*
X143741603Y-97997000D01*
X143882058Y-97969062D01*
X144014364Y-97914259D01*
X144133436Y-97834698D01*
X144234698Y-97733436D01*
X144242339Y-97722000D01*
X151347661Y-97722000D01*
X151355302Y-97733436D01*
X151456564Y-97834698D01*
X151575636Y-97914259D01*
X151707942Y-97969062D01*
X151848397Y-97997000D01*
X151991603Y-97997000D01*
X152132058Y-97969062D01*
X152264364Y-97914259D01*
X152383436Y-97834698D01*
X152484698Y-97733436D01*
X152564259Y-97614364D01*
X152619062Y-97482058D01*
X152647000Y-97341603D01*
X152647000Y-97198397D01*
X152619062Y-97057942D01*
X152564259Y-96925636D01*
X152484698Y-96806564D01*
X152383436Y-96705302D01*
X152264364Y-96625741D01*
X152132058Y-96570938D01*
X151991603Y-96543000D01*
X151848397Y-96543000D01*
X151707942Y-96570938D01*
X151575636Y-96625741D01*
X151456564Y-96705302D01*
X151355302Y-96806564D01*
X151347661Y-96818000D01*
X144242339Y-96818000D01*
X144234698Y-96806564D01*
X144133436Y-96705302D01*
X144014364Y-96625741D01*
X143882058Y-96570938D01*
X143741603Y-96543000D01*
X143598397Y-96543000D01*
X143457942Y-96570938D01*
X143325636Y-96625741D01*
X143206564Y-96705302D01*
X143105302Y-96806564D01*
X143025741Y-96925636D01*
X142970938Y-97057942D01*
X142943000Y-97198397D01*
X129093251Y-97198397D01*
X129050619Y-97071871D01*
X128709203Y-96433129D01*
X128204749Y-95762752D01*
X127456988Y-96510513D01*
X127453052Y-96443738D01*
X127437540Y-96459251D01*
X127453052Y-96474764D01*
X127456905Y-96510596D01*
X124697502Y-99270000D01*
X123642498Y-99270000D01*
X121307989Y-96935490D01*
X121374764Y-96931554D01*
X121359251Y-96916042D01*
X121343738Y-96931554D01*
X121307906Y-96935407D01*
X120778590Y-96406091D01*
X120882900Y-96406091D01*
X120886948Y-96474764D01*
X120902460Y-96459251D01*
X121816042Y-96459251D01*
X121831554Y-96474764D01*
X121835602Y-96512411D01*
X121831554Y-96443738D01*
X121816042Y-96459251D01*
X120902460Y-96459251D01*
X120886948Y-96443738D01*
X120882900Y-96406091D01*
X120778590Y-96406091D01*
X120135251Y-95762752D01*
X119630797Y-96433129D01*
X119164570Y-97373194D01*
X118890699Y-98386151D01*
X118819709Y-99433074D01*
X114348582Y-99433074D01*
X114348582Y-98480642D01*
X116755313Y-96073912D01*
X116755322Y-96073901D01*
X117377225Y-95452000D01*
X118927661Y-95452000D01*
X118935302Y-95463436D01*
X119036564Y-95564698D01*
X119155636Y-95644259D01*
X119287942Y-95699062D01*
X119428397Y-95727000D01*
X119571603Y-95727000D01*
X119712058Y-95699062D01*
X119844364Y-95644259D01*
X119963436Y-95564698D01*
X120064698Y-95463436D01*
X120144259Y-95344364D01*
X120199062Y-95212058D01*
X120208216Y-95166038D01*
X120287942Y-95199062D01*
X120428397Y-95227000D01*
X120571603Y-95227000D01*
X120710408Y-95199390D01*
X120662752Y-95235251D01*
X121410513Y-95983012D01*
X121343738Y-95986948D01*
X121359251Y-96002460D01*
X121374764Y-95986948D01*
X121410596Y-95983095D01*
X124170000Y-98742498D01*
X125976896Y-96935602D01*
X126927589Y-96935602D01*
X126996262Y-96931554D01*
X126980749Y-96916042D01*
X126965236Y-96931554D01*
X126927589Y-96935602D01*
X125976896Y-96935602D01*
X126504510Y-96407989D01*
X126508446Y-96474764D01*
X126523958Y-96459251D01*
X126508446Y-96443738D01*
X126504593Y-96407906D01*
X126925551Y-95986948D01*
X126965236Y-95986948D01*
X126980749Y-96002460D01*
X126996262Y-95986948D01*
X127033909Y-95982900D01*
X126965236Y-95986948D01*
X126925551Y-95986948D01*
X127677248Y-95235251D01*
X127006871Y-94730797D01*
X126066806Y-94264570D01*
X125053849Y-93990699D01*
X124006926Y-93919709D01*
X122966269Y-94054327D01*
X121971871Y-94389381D01*
X121333129Y-94730797D01*
X121105883Y-94901798D01*
X121144259Y-94844364D01*
X121199062Y-94712058D01*
X121227000Y-94571603D01*
X121227000Y-94428397D01*
X121199062Y-94287942D01*
X121144259Y-94155636D01*
X121064698Y-94036564D01*
X120963436Y-93935302D01*
X120844364Y-93855741D01*
X120712058Y-93800938D01*
X120571603Y-93773000D01*
X120428397Y-93773000D01*
X120287942Y-93800938D01*
X120246751Y-93818000D01*
X115442204Y-93818000D01*
X115419999Y-93815813D01*
X115331392Y-93824540D01*
X115311562Y-93830556D01*
X115246190Y-93850386D01*
X115167667Y-93892357D01*
X115098841Y-93948841D01*
X115084686Y-93966089D01*
X111204608Y-97846169D01*
X111122597Y-97802333D01*
X110900732Y-97735031D01*
X110670000Y-97712306D01*
X110439269Y-97735031D01*
X110217404Y-97802333D01*
X110012931Y-97911626D01*
X109833710Y-98058709D01*
X109686626Y-98237930D01*
X109577333Y-98442403D01*
X109510031Y-98664268D01*
X109493000Y-98837188D01*
X109493000Y-99202811D01*
X109510031Y-99375731D01*
X109548437Y-99502339D01*
X104116096Y-104934681D01*
X104098842Y-104948841D01*
X104059319Y-104997000D01*
X104042358Y-105017667D01*
X104000386Y-105096191D01*
X103974540Y-105181393D01*
X103965813Y-105270000D01*
X103968001Y-105292215D01*
X103968000Y-107197661D01*
X103956564Y-107205302D01*
X103855302Y-107306564D01*
X103775741Y-107425636D01*
X103720938Y-107557942D01*
X103693000Y-107698397D01*
X94622000Y-107698397D01*
X94622000Y-107592339D01*
X94633436Y-107584698D01*
X94734698Y-107483436D01*
X94814259Y-107364364D01*
X94869062Y-107232058D01*
X94897000Y-107091603D01*
X94897000Y-106948397D01*
X94869062Y-106807942D01*
X94814259Y-106675636D01*
X94734698Y-106556564D01*
X94633436Y-106455302D01*
X94514364Y-106375741D01*
X94382058Y-106320938D01*
X94241603Y-106293000D01*
X94098397Y-106293000D01*
X93957942Y-106320938D01*
X93825636Y-106375741D01*
X93706564Y-106455302D01*
X93605302Y-106556564D01*
X93525741Y-106675636D01*
X93470938Y-106807942D01*
X93443000Y-106948397D01*
X77372000Y-106948397D01*
X77372000Y-103304749D01*
X81662752Y-103304749D01*
X82333129Y-103809203D01*
X83273194Y-104275430D01*
X84286151Y-104549301D01*
X85333074Y-104620291D01*
X86373731Y-104485673D01*
X87368129Y-104150619D01*
X88006871Y-103809203D01*
X88677248Y-103304749D01*
X87929487Y-102556988D01*
X87996262Y-102553052D01*
X87980749Y-102537540D01*
X87965236Y-102553052D01*
X87929404Y-102556905D01*
X87400088Y-102027589D01*
X87504398Y-102027589D01*
X87508446Y-102096262D01*
X87523958Y-102080749D01*
X88437540Y-102080749D01*
X88453052Y-102096262D01*
X88457100Y-102133909D01*
X88453052Y-102065236D01*
X88437540Y-102080749D01*
X87523958Y-102080749D01*
X87508446Y-102065236D01*
X87504398Y-102027589D01*
X87400088Y-102027589D01*
X85170000Y-99797502D01*
X82835490Y-102132011D01*
X82831554Y-102065236D01*
X82816042Y-102080749D01*
X82831554Y-102096262D01*
X82835407Y-102132094D01*
X81662752Y-103304749D01*
X77372000Y-103304749D01*
X77372000Y-99433074D01*
X79819709Y-99433074D01*
X79954327Y-100473731D01*
X80289381Y-101468129D01*
X80630797Y-102106871D01*
X81135251Y-102777248D01*
X81355399Y-102557100D01*
X82306091Y-102557100D01*
X82374764Y-102553052D01*
X82359251Y-102537540D01*
X82343738Y-102553052D01*
X82306091Y-102557100D01*
X81355399Y-102557100D01*
X81883012Y-102029487D01*
X81886948Y-102096262D01*
X81902460Y-102080749D01*
X81886948Y-102065236D01*
X81883095Y-102029404D01*
X82304052Y-101608446D01*
X82343738Y-101608446D01*
X82359251Y-101623958D01*
X82374764Y-101608446D01*
X82412411Y-101604398D01*
X82343738Y-101608446D01*
X82304052Y-101608446D01*
X84642498Y-99270000D01*
X85697502Y-99270000D01*
X88032011Y-101604510D01*
X87965236Y-101608446D01*
X87980749Y-101623958D01*
X87996262Y-101608446D01*
X88032094Y-101604593D01*
X89204749Y-102777248D01*
X89709203Y-102106871D01*
X90175430Y-101166806D01*
X90449301Y-100153849D01*
X90520291Y-99106926D01*
X90385673Y-98066269D01*
X90050619Y-97071871D01*
X89709203Y-96433129D01*
X89204749Y-95762752D01*
X88456988Y-96510513D01*
X88453052Y-96443738D01*
X88437540Y-96459251D01*
X88453052Y-96474764D01*
X88456905Y-96510596D01*
X85697502Y-99270000D01*
X84642498Y-99270000D01*
X82307989Y-96935490D01*
X82374764Y-96931554D01*
X82359251Y-96916042D01*
X82343738Y-96931554D01*
X82307906Y-96935407D01*
X81778590Y-96406091D01*
X81882900Y-96406091D01*
X81886948Y-96474764D01*
X81902460Y-96459251D01*
X82816042Y-96459251D01*
X82831554Y-96474764D01*
X82835602Y-96512411D01*
X82831554Y-96443738D01*
X82816042Y-96459251D01*
X81902460Y-96459251D01*
X81886948Y-96443738D01*
X81882900Y-96406091D01*
X81778590Y-96406091D01*
X81135251Y-95762752D01*
X80630797Y-96433129D01*
X80164570Y-97373194D01*
X79890699Y-98386151D01*
X79819709Y-99433074D01*
X77372000Y-99433074D01*
X77372000Y-95235251D01*
X81662752Y-95235251D01*
X82410513Y-95983012D01*
X82343738Y-95986948D01*
X82359251Y-96002460D01*
X82374764Y-95986948D01*
X82410596Y-95983095D01*
X85170000Y-98742498D01*
X86976896Y-96935602D01*
X87927589Y-96935602D01*
X87996262Y-96931554D01*
X87980749Y-96916042D01*
X87965236Y-96931554D01*
X87927589Y-96935602D01*
X86976896Y-96935602D01*
X87504510Y-96407989D01*
X87508446Y-96474764D01*
X87523958Y-96459251D01*
X87508446Y-96443738D01*
X87504593Y-96407906D01*
X87925551Y-95986948D01*
X87965236Y-95986948D01*
X87980749Y-96002460D01*
X87996262Y-95986948D01*
X88033909Y-95982900D01*
X87965236Y-95986948D01*
X87925551Y-95986948D01*
X88677248Y-95235251D01*
X88006871Y-94730797D01*
X87066806Y-94264570D01*
X86053849Y-93990699D01*
X85006926Y-93919709D01*
X83966269Y-94054327D01*
X82971871Y-94389381D01*
X82333129Y-94730797D01*
X81662752Y-95235251D01*
X77372000Y-95235251D01*
X77372000Y-93647000D01*
X95218001Y-93647000D01*
X95218001Y-97802152D01*
G37*
%TD.AperFunction*%
%TD*%
D19*
%TO.N,FET_GND*%
X95105302Y-87556564D02*
X95025741Y-87675636D01*
X94970938Y-87807942D01*
X94943000Y-87948397D01*
X94943000Y-88091603D01*
X94970938Y-88232058D01*
X95025741Y-88364364D01*
X95105302Y-88483436D01*
X95206564Y-88584698D01*
X95218000Y-88592339D01*
X95218001Y-93853000D01*
X87642023Y-93853000D01*
X87550867Y-93802149D01*
X86438395Y-93442728D01*
X85277178Y-93307246D01*
X84111844Y-93400910D01*
X82987173Y-93720119D01*
X82727447Y-93853000D01*
X77372000Y-93853000D01*
X77372000Y-87472000D01*
X95189866Y-87472000D01*
X95105302Y-87556564D01*
%TA.AperFunction,Conductor*%
D20*
G36*
X95105302Y-87556564D02*
G01*
X95025741Y-87675636D01*
X94970938Y-87807942D01*
X94943000Y-87948397D01*
X94943000Y-88091603D01*
X94970938Y-88232058D01*
X95025741Y-88364364D01*
X95105302Y-88483436D01*
X95206564Y-88584698D01*
X95218000Y-88592339D01*
X95218001Y-93853000D01*
X87642023Y-93853000D01*
X87550867Y-93802149D01*
X86438395Y-93442728D01*
X85277178Y-93307246D01*
X84111844Y-93400910D01*
X82987173Y-93720119D01*
X82727447Y-93853000D01*
X77372000Y-93853000D01*
X77372000Y-87472000D01*
X95189866Y-87472000D01*
X95105302Y-87556564D01*
G37*
%TD.AperFunction*%
D19*
X102718000Y-93853000D02*
X98622000Y-93853000D01*
X98622000Y-90592339D01*
X98633436Y-90584698D01*
X98734698Y-90483436D01*
X98814259Y-90364364D01*
X98869062Y-90232058D01*
X98897000Y-90091603D01*
X98897000Y-89948397D01*
X98869062Y-89807942D01*
X98814259Y-89675636D01*
X98734698Y-89556564D01*
X98633436Y-89455302D01*
X98514364Y-89375741D01*
X98382058Y-89320938D01*
X98241603Y-89293000D01*
X98098397Y-89293000D01*
X97957942Y-89320938D01*
X97825636Y-89375741D01*
X97706564Y-89455302D01*
X97605302Y-89556564D01*
X97525741Y-89675636D01*
X97470938Y-89807942D01*
X97443000Y-89948397D01*
X97443000Y-90091603D01*
X97470938Y-90232058D01*
X97525741Y-90364364D01*
X97605302Y-90483436D01*
X97706564Y-90584698D01*
X97718000Y-90592339D01*
X97718000Y-93853000D01*
X96122000Y-93853000D01*
X96122000Y-88592339D01*
X96133436Y-88584698D01*
X96234698Y-88483436D01*
X96314259Y-88364364D01*
X96369062Y-88232058D01*
X96397000Y-88091603D01*
X96397000Y-87948397D01*
X96369062Y-87807942D01*
X96314259Y-87675636D01*
X96234698Y-87556564D01*
X96150134Y-87472000D01*
X102718001Y-87472000D01*
X102718000Y-93853000D01*
%TA.AperFunction,Conductor*%
D20*
G36*
X102718000Y-93853000D02*
G01*
X98622000Y-93853000D01*
X98622000Y-90592339D01*
X98633436Y-90584698D01*
X98734698Y-90483436D01*
X98814259Y-90364364D01*
X98869062Y-90232058D01*
X98897000Y-90091603D01*
X98897000Y-89948397D01*
X98869062Y-89807942D01*
X98814259Y-89675636D01*
X98734698Y-89556564D01*
X98633436Y-89455302D01*
X98514364Y-89375741D01*
X98382058Y-89320938D01*
X98241603Y-89293000D01*
X98098397Y-89293000D01*
X97957942Y-89320938D01*
X97825636Y-89375741D01*
X97706564Y-89455302D01*
X97605302Y-89556564D01*
X97525741Y-89675636D01*
X97470938Y-89807942D01*
X97443000Y-89948397D01*
X97443000Y-90091603D01*
X97470938Y-90232058D01*
X97525741Y-90364364D01*
X97605302Y-90483436D01*
X97706564Y-90584698D01*
X97718000Y-90592339D01*
X97718000Y-93853000D01*
X96122000Y-93853000D01*
X96122000Y-88592339D01*
X96133436Y-88584698D01*
X96234698Y-88483436D01*
X96314259Y-88364364D01*
X96369062Y-88232058D01*
X96397000Y-88091603D01*
X96397000Y-87948397D01*
X96369062Y-87807942D01*
X96314259Y-87675636D01*
X96234698Y-87556564D01*
X96150134Y-87472000D01*
X102718001Y-87472000D01*
X102718000Y-93853000D01*
G37*
%TD.AperFunction*%
D19*
X109093000Y-93853000D02*
X103622000Y-93853000D01*
X103622000Y-89027000D01*
X109093000Y-89027000D01*
X109093000Y-93853000D01*
%TA.AperFunction,Conductor*%
D20*
G36*
X109093000Y-93853000D02*
G01*
X103622000Y-93853000D01*
X103622000Y-89027000D01*
X109093000Y-89027000D01*
X109093000Y-93853000D01*
G37*
%TD.AperFunction*%
%TD*%
M02*
