%TF.GenerationSoftware,KiCad,Pcbnew,(5.1.9)-1*%
%TF.CreationDate,2021-02-05T08:05:51+01:00*%
%TF.ProjectId,Spotwelderix,53706f74-7765-46c6-9465-7269782e6b69,rev?*%
%TF.SameCoordinates,Original*%
%TF.FileFunction,Copper,L2,Bot*%
%TF.FilePolarity,Positive*%
%FSLAX46Y46*%
G04 Gerber Fmt 4.6, Leading zero omitted, Abs format (unit mm)*
G04 Created by KiCad (PCBNEW (5.1.9)-1) date 2021-02-05 08:05:51*
%MOMM*%
%LPD*%
G01*
G04 APERTURE LIST*
%TA.AperFunction,ComponentPad*%
%ADD10O,1.700000X1.950000*%
%TD*%
%TA.AperFunction,ComponentPad*%
%ADD11C,0.900000*%
%TD*%
%TA.AperFunction,ComponentPad*%
%ADD12C,10.600000*%
%TD*%
%TA.AperFunction,ComponentPad*%
%ADD13O,1.905000X2.000000*%
%TD*%
%TA.AperFunction,ComponentPad*%
%ADD14R,1.905000X2.000000*%
%TD*%
%TA.AperFunction,ComponentPad*%
%ADD15O,1.700000X2.000000*%
%TD*%
%TA.AperFunction,ComponentPad*%
%ADD16C,2.000000*%
%TD*%
%TA.AperFunction,ComponentPad*%
%ADD17R,2.000000X2.000000*%
%TD*%
%TA.AperFunction,ComponentPad*%
%ADD18C,0.800000*%
%TD*%
%TA.AperFunction,ComponentPad*%
%ADD19C,6.400000*%
%TD*%
%TA.AperFunction,ComponentPad*%
%ADD20O,1.050000X1.500000*%
%TD*%
%TA.AperFunction,ComponentPad*%
%ADD21R,1.050000X1.500000*%
%TD*%
%TA.AperFunction,ViaPad*%
%ADD22C,0.800000*%
%TD*%
%TA.AperFunction,ViaPad*%
%ADD23C,0.600000*%
%TD*%
%TA.AperFunction,Conductor*%
%ADD24C,0.250000*%
%TD*%
%TA.AperFunction,Conductor*%
%ADD25C,0.254000*%
%TD*%
%TA.AperFunction,Conductor*%
%ADD26C,0.100000*%
%TD*%
G04 APERTURE END LIST*
D10*
%TO.P,P1,9*%
%TO.N,R_Schunt_Stab*%
X95400000Y-99200000D03*
%TO.P,P1,8*%
%TO.N,+5V*%
X97900000Y-99200000D03*
%TO.P,P1,7*%
%TO.N,EnablePower*%
X100400000Y-99200000D03*
%TO.P,P1,6*%
%TO.N,V_Batt*%
X102900000Y-99200000D03*
%TO.P,P1,5*%
%TO.N,Probe-*%
X105400000Y-99200000D03*
%TO.P,P1,4*%
%TO.N,Dallas*%
X107900000Y-99200000D03*
%TO.P,P1,3*%
%TO.N,Gate_logic*%
X110400000Y-99200000D03*
%TO.P,P1,2*%
%TO.N,VCC*%
X112900000Y-99200000D03*
%TO.P,P1,1*%
%TO.N,GND*%
%TA.AperFunction,ComponentPad*%
G36*
G01*
X116250000Y-98475000D02*
X116250000Y-99925000D01*
G75*
G02*
X116000000Y-100175000I-250000J0D01*
G01*
X114800000Y-100175000D01*
G75*
G02*
X114550000Y-99925000I0J250000D01*
G01*
X114550000Y-98475000D01*
G75*
G02*
X114800000Y-98225000I250000J0D01*
G01*
X116000000Y-98225000D01*
G75*
G02*
X116250000Y-98475000I0J-250000D01*
G01*
G37*
%TD.AperFunction*%
%TD*%
D11*
%TO.P,H6,1*%
%TO.N,FET_GND*%
X174310749Y-96389251D03*
X171500000Y-95225000D03*
X168689251Y-96389251D03*
X167525000Y-99200000D03*
X168689251Y-102010749D03*
X171500000Y-103175000D03*
X174310749Y-102010749D03*
X175475000Y-99200000D03*
D12*
X171500000Y-99200000D03*
%TD*%
D13*
%TO.P,Q10,3*%
%TO.N,VCCQ*%
X154080000Y-97600000D03*
%TO.P,Q10,2*%
%TO.N,Net-(D2-Pad2)*%
X151540000Y-97600000D03*
D14*
%TO.P,Q10,1*%
%TO.N,Net-(J1-Pad1)*%
X149000000Y-97600000D03*
%TD*%
D15*
%TO.P,J1,2*%
%TO.N,GND*%
X162700000Y-99100000D03*
%TO.P,J1,1*%
%TO.N,Net-(J1-Pad1)*%
%TA.AperFunction,ComponentPad*%
G36*
G01*
X159350000Y-99850000D02*
X159350000Y-98350000D01*
G75*
G02*
X159600000Y-98100000I250000J0D01*
G01*
X160800000Y-98100000D01*
G75*
G02*
X161050000Y-98350000I0J-250000D01*
G01*
X161050000Y-99850000D01*
G75*
G02*
X160800000Y-100100000I-250000J0D01*
G01*
X159600000Y-100100000D01*
G75*
G02*
X159350000Y-99850000I0J250000D01*
G01*
G37*
%TD.AperFunction*%
%TD*%
D16*
%TO.P,C14,2*%
%TO.N,GND*%
X143200000Y-100200000D03*
D17*
%TO.P,C14,1*%
%TO.N,VCC*%
X138200000Y-100200000D03*
%TD*%
D18*
%TO.P,H7,1*%
%TO.N,GND*%
X118537056Y-80322944D03*
X116840000Y-79620000D03*
X115142944Y-80322944D03*
X114440000Y-82020000D03*
X115142944Y-83717056D03*
X116840000Y-84420000D03*
X118537056Y-83717056D03*
X119240000Y-82020000D03*
D19*
X116840000Y-82020000D03*
%TD*%
D18*
%TO.P,H2,1*%
%TO.N,+BATT*%
X118537056Y-69322944D03*
X116840000Y-68620000D03*
X115142944Y-69322944D03*
X114440000Y-71020000D03*
X115142944Y-72717056D03*
X116840000Y-73420000D03*
X118537056Y-72717056D03*
X119240000Y-71020000D03*
D19*
X116840000Y-71020000D03*
%TD*%
D11*
%TO.P,H5,1*%
%TO.N,FET_GND*%
X126980749Y-96459251D03*
X124170000Y-95295000D03*
X121359251Y-96459251D03*
X120195000Y-99270000D03*
X121359251Y-102080749D03*
X124170000Y-103245000D03*
X126980749Y-102080749D03*
X128145000Y-99270000D03*
D12*
X124170000Y-99270000D03*
%TD*%
D11*
%TO.P,H4,1*%
%TO.N,FET_GND*%
X86710749Y-96459251D03*
X83900000Y-95295000D03*
X81089251Y-96459251D03*
X79925000Y-99270000D03*
X81089251Y-102080749D03*
X83900000Y-103245000D03*
X86710749Y-102080749D03*
X87875000Y-99270000D03*
D12*
X83900000Y-99270000D03*
%TD*%
D11*
%TO.P,H3,1*%
%TO.N,Probe-*%
X153730749Y-120209251D03*
X150920000Y-119045000D03*
X148109251Y-120209251D03*
X146945000Y-123020000D03*
X148109251Y-125830749D03*
X150920000Y-126995000D03*
X153730749Y-125830749D03*
X154895000Y-123020000D03*
D12*
X150920000Y-123020000D03*
%TD*%
D11*
%TO.P,H1,1*%
%TO.N,Probe-*%
X107980749Y-120209251D03*
X105170000Y-119045000D03*
X102359251Y-120209251D03*
X101195000Y-123020000D03*
X102359251Y-125830749D03*
X105170000Y-126995000D03*
X107980749Y-125830749D03*
X109145000Y-123020000D03*
D12*
X105170000Y-123020000D03*
%TD*%
%TO.P,F1,1*%
%TO.N,VCCQ*%
%TA.AperFunction,ComponentPad*%
G36*
G01*
X202675000Y-71767500D02*
X202675000Y-82272500D01*
G75*
G02*
X197922500Y-87025000I-4752500J0D01*
G01*
X188417500Y-87025000D01*
G75*
G02*
X183665000Y-82272500I0J4752500D01*
G01*
X183665000Y-71767500D01*
G75*
G02*
X188417500Y-67015000I4752500J0D01*
G01*
X197922500Y-67015000D01*
G75*
G02*
X202675000Y-71767500I0J-4752500D01*
G01*
G37*
%TD.AperFunction*%
%TO.P,F1,2*%
%TO.N,+BATT*%
%TA.AperFunction,ComponentPad*%
G36*
G01*
X141715000Y-71767500D02*
X141715000Y-82272500D01*
G75*
G02*
X136962500Y-87025000I-4752500J0D01*
G01*
X127457500Y-87025000D01*
G75*
G02*
X122705000Y-82272500I0J4752500D01*
G01*
X122705000Y-71767500D01*
G75*
G02*
X127457500Y-67015000I4752500J0D01*
G01*
X136962500Y-67015000D01*
G75*
G02*
X141715000Y-71767500I0J-4752500D01*
G01*
G37*
%TD.AperFunction*%
%TD*%
D11*
%TO.P,J4,1*%
%TO.N,Probe-*%
X201730749Y-120209251D03*
X198920000Y-119045000D03*
X196109251Y-120209251D03*
X194945000Y-123020000D03*
X196109251Y-125830749D03*
X198920000Y-126995000D03*
X201730749Y-125830749D03*
X202895000Y-123020000D03*
D12*
X198920000Y-123020000D03*
%TD*%
D20*
%TO.P,U1,2*%
%TO.N,Dallas*%
X132670000Y-99400000D03*
%TO.P,U1,3*%
%TO.N,+5V*%
X133940000Y-99400000D03*
D21*
%TO.P,U1,1*%
%TO.N,GND*%
X131400000Y-99400000D03*
%TD*%
D22*
%TO.N,GND*%
X142900000Y-92375000D03*
X146300000Y-92800000D03*
X147700000Y-92700000D03*
X148800000Y-92800000D03*
X150100000Y-92800000D03*
X151300000Y-92700000D03*
X152300000Y-92800000D03*
X154600000Y-92700000D03*
X155900000Y-92700000D03*
X157600000Y-92800000D03*
X158560000Y-92860000D03*
X159600000Y-92800000D03*
X160800000Y-92800000D03*
X162200000Y-92800000D03*
X164500000Y-92700000D03*
X165800000Y-92700000D03*
X166900000Y-92800000D03*
X175700000Y-92800000D03*
X176620000Y-92720000D03*
X177500000Y-92800000D03*
X178500000Y-92800000D03*
X179420000Y-92820000D03*
X180300000Y-92800000D03*
X181300000Y-92800000D03*
X182170000Y-92830000D03*
X183000000Y-92800000D03*
X183900000Y-92700000D03*
X184700000Y-92800000D03*
X185600000Y-92800000D03*
X138200000Y-91200000D03*
X129400000Y-91000000D03*
X104862653Y-97637347D03*
X97200000Y-86600000D03*
%TO.N,VCC*%
X131186106Y-104570956D03*
X102000000Y-106900000D03*
X120200000Y-108925000D03*
X117750000Y-104050000D03*
X181700000Y-101000000D03*
X177600000Y-100400000D03*
%TO.N,Gate_logic*%
X177200000Y-102100000D03*
X104617641Y-101982359D03*
X97500000Y-101800000D03*
X94500000Y-101900000D03*
%TO.N,Gate*%
X94300000Y-114900000D03*
X86400000Y-114900000D03*
X98300000Y-114900000D03*
X117000000Y-114900000D03*
X120500000Y-114900000D03*
X128900000Y-114900000D03*
X132100000Y-114900000D03*
X162900000Y-114900000D03*
X166700000Y-114900000D03*
X175200000Y-114900000D03*
X178400000Y-114900000D03*
X187100000Y-114900000D03*
X189000000Y-111200000D03*
X189000000Y-105700000D03*
X94300000Y-107200000D03*
%TO.N,Dallas*%
X133600000Y-106070011D03*
%TO.N,+5V*%
X136800000Y-108200000D03*
X95600000Y-91100000D03*
%TO.N,FET_GND*%
X77930000Y-87959999D03*
X77930000Y-91959999D03*
X77930000Y-95959999D03*
X77930000Y-99959999D03*
X77930000Y-103959999D03*
X77930000Y-107959999D03*
X77930000Y-111959999D03*
X79930000Y-89959999D03*
X79930000Y-93959999D03*
X79930000Y-105959999D03*
X79930000Y-109959999D03*
X81930000Y-87959999D03*
X81930000Y-91959999D03*
X81930000Y-107959999D03*
X81930000Y-111959999D03*
X83930000Y-89959999D03*
X83930000Y-105959999D03*
X83930000Y-109959999D03*
X84930000Y-92959999D03*
X85930000Y-87959999D03*
X85930000Y-107959999D03*
X86930000Y-90959999D03*
X86930000Y-104959999D03*
X86930000Y-110959999D03*
X87930000Y-93959999D03*
X87930000Y-113959999D03*
X88930000Y-88959999D03*
X88930000Y-102959999D03*
X88930000Y-106959999D03*
X89930000Y-91959999D03*
X89930000Y-95959999D03*
X89930000Y-99959999D03*
X89930000Y-109959999D03*
X90930000Y-104959999D03*
X91930000Y-97959999D03*
X91930000Y-101959999D03*
X91930000Y-107959999D03*
X92930000Y-90959999D03*
X92930000Y-94959999D03*
X92930000Y-110959999D03*
X96930000Y-110959999D03*
X98930000Y-91959999D03*
X98930000Y-112959999D03*
X99930000Y-94959999D03*
X100930000Y-89959999D03*
X101930000Y-92959999D03*
X101930000Y-111959999D03*
X103930000Y-88959999D03*
X103930000Y-94959999D03*
X103930000Y-106959999D03*
X103930000Y-113959999D03*
X104930000Y-91959999D03*
X104930000Y-109959999D03*
X106930000Y-93959999D03*
X106930000Y-101959999D03*
X106930000Y-111959999D03*
X108930000Y-103959999D03*
X108930000Y-109959999D03*
X108930000Y-113959999D03*
X109930000Y-94959999D03*
X110930000Y-89959999D03*
X110930000Y-105959999D03*
X110930000Y-111959999D03*
X112930000Y-93959999D03*
X112930000Y-109959999D03*
X114930000Y-95959999D03*
X115930000Y-110959999D03*
X116930000Y-93959999D03*
X117930000Y-96959999D03*
X117930000Y-100959999D03*
X119930000Y-103959999D03*
X119930000Y-110959999D03*
X120930000Y-93959999D03*
X121930000Y-108959999D03*
X121930000Y-112959999D03*
X123930000Y-110959999D03*
X125930000Y-108959999D03*
X126930000Y-111959999D03*
X127930000Y-93959999D03*
X128930000Y-103959999D03*
X128930000Y-109959999D03*
X131930000Y-108959999D03*
X131930000Y-112959999D03*
X133930000Y-110959999D03*
X134930000Y-113959999D03*
X135930000Y-96959999D03*
X135930000Y-100959999D03*
X136930000Y-109959999D03*
X137930000Y-102959999D03*
X138930000Y-95959999D03*
X138930000Y-111959999D03*
X139930000Y-108959999D03*
X140930000Y-97959999D03*
X140930000Y-103959999D03*
X141930000Y-110959999D03*
X142930000Y-106959999D03*
X143930000Y-112959999D03*
X144930000Y-97959999D03*
X144930000Y-103959999D03*
X144930000Y-108959999D03*
X145930000Y-100959999D03*
X146930000Y-106959999D03*
X146930000Y-110959999D03*
X147930000Y-113959999D03*
X148930000Y-99959999D03*
X148930000Y-103959999D03*
X148930000Y-108959999D03*
X150930000Y-106959999D03*
X150930000Y-110959999D03*
X151930000Y-100959999D03*
X152930000Y-94959999D03*
X152930000Y-103959999D03*
X152930000Y-108959999D03*
X153930000Y-111959999D03*
X154930000Y-106959999D03*
X155930000Y-95959999D03*
X155930000Y-109959999D03*
X155930000Y-113959999D03*
X156930000Y-100959999D03*
X157930000Y-97959999D03*
X157930000Y-107959999D03*
X157930000Y-111959999D03*
X159930000Y-95959999D03*
X159930000Y-109959999D03*
X161930000Y-107959999D03*
X161930000Y-111959999D03*
X163930000Y-101959999D03*
X163930000Y-109959999D03*
X164930000Y-98959999D03*
X164930000Y-106959999D03*
X165930000Y-103959999D03*
X166930000Y-108959999D03*
X166930000Y-112959999D03*
X168930000Y-106959999D03*
X168930000Y-110959999D03*
X169930000Y-113959999D03*
X170930000Y-108959999D03*
X172930000Y-106959999D03*
X172930000Y-110959999D03*
X174930000Y-108959999D03*
X174930000Y-112959999D03*
X175930000Y-104959999D03*
X176930000Y-110959999D03*
X177930000Y-106959999D03*
X178930000Y-112959999D03*
X179930000Y-104959999D03*
X179930000Y-108959999D03*
X180930000Y-95959999D03*
X181930000Y-102959999D03*
X181930000Y-106959999D03*
X181930000Y-110959999D03*
X183930000Y-104959999D03*
X183930000Y-108959999D03*
X185930000Y-95959999D03*
X185930000Y-106959999D03*
X186930000Y-98959999D03*
X186930000Y-112959999D03*
%TO.N,Probe-*%
X77400000Y-116700000D03*
D23*
X77330000Y-118559999D03*
X81330000Y-116959999D03*
X83730000Y-118559999D03*
X86930000Y-116959999D03*
X89330000Y-118559999D03*
X93330000Y-116959999D03*
X95730000Y-118559999D03*
X98130000Y-116959999D03*
X100530000Y-118559999D03*
X100530000Y-127359999D03*
X102930000Y-116959999D03*
X106930000Y-116959999D03*
X109330000Y-128159999D03*
X110130000Y-117759999D03*
X113330000Y-118559999D03*
X115730000Y-116959999D03*
X118130000Y-118559999D03*
X120530000Y-116959999D03*
X122930000Y-118559999D03*
X126930000Y-116959999D03*
X129330000Y-118559999D03*
X132530000Y-117759999D03*
X135730000Y-118559999D03*
X139730000Y-118559999D03*
X143730000Y-118559999D03*
X146130000Y-127359999D03*
X154930000Y-128159999D03*
X155730000Y-118559999D03*
X159730000Y-118559999D03*
X162930000Y-116959999D03*
X165330000Y-118559999D03*
X167730000Y-116959999D03*
X170130000Y-118559999D03*
X173330000Y-116959999D03*
X175730000Y-118559999D03*
X178930000Y-116959999D03*
X181330000Y-118559999D03*
X185330000Y-116959999D03*
X187730000Y-118559999D03*
X190930000Y-116159999D03*
X192530000Y-118559999D03*
X192530000Y-122559999D03*
X192530000Y-126559999D03*
X194930000Y-116159999D03*
X194930000Y-128159999D03*
X198130000Y-116959999D03*
X201330000Y-116159999D03*
X202930000Y-128159999D03*
X203730000Y-117759999D03*
D22*
%TO.N,Net-(IC2-Pad1)*%
X98600000Y-107200000D03*
X98600000Y-101800000D03*
%TO.N,EnablePower*%
X140607108Y-107007108D03*
%TO.N,V_Batt*%
X158100000Y-106100000D03*
%TO.N,R_Schunt_Stab*%
X91400000Y-87300000D03*
%TD*%
D24*
%TO.N,GND*%
X115400000Y-99200000D02*
X112800000Y-96600000D01*
X97600000Y-96600000D02*
X97500000Y-96500000D01*
X97500000Y-96500000D02*
X97500000Y-86000000D01*
X101480000Y-82020000D02*
X116840000Y-82020000D01*
X162700000Y-99100000D02*
X162700000Y-92600000D01*
X131400000Y-99400000D02*
X131400000Y-92600000D01*
X143400000Y-100400000D02*
X143200000Y-100200000D01*
X143400000Y-92875000D02*
X143400000Y-100400000D01*
X142900000Y-92375000D02*
X143400000Y-92875000D01*
X99050000Y-84450000D02*
X101480000Y-82020000D01*
X97500000Y-86000000D02*
X99050000Y-84450000D01*
X104862653Y-96937347D02*
X105200000Y-96600000D01*
X104862653Y-97637347D02*
X104862653Y-96937347D01*
X105200000Y-96600000D02*
X97600000Y-96600000D01*
X112800000Y-96600000D02*
X105200000Y-96600000D01*
X97500000Y-86300000D02*
X97200000Y-86600000D01*
X97500000Y-86000000D02*
X97500000Y-86300000D01*
%TO.N,VCC*%
X130904999Y-104895001D02*
X118595001Y-104895001D01*
X104025000Y-108925000D02*
X120200000Y-108925000D01*
X102000000Y-106900000D02*
X104025000Y-108925000D01*
X117750000Y-104050000D02*
X112900000Y-99200000D01*
X118595001Y-104895001D02*
X117750000Y-104050000D01*
X160986714Y-102625001D02*
X139725001Y-102625001D01*
X163875010Y-99736705D02*
X160986714Y-102625001D01*
X163875010Y-98499988D02*
X163875010Y-99736705D01*
X168799999Y-93574999D02*
X163875010Y-98499988D01*
X174274999Y-93574999D02*
X168799999Y-93574999D01*
X181700000Y-101000000D02*
X174274999Y-93574999D01*
X178200000Y-101000000D02*
X181700000Y-101000000D01*
X177600000Y-100400000D02*
X178200000Y-101000000D01*
X130904999Y-104852063D02*
X131186106Y-104570956D01*
X130904999Y-104895001D02*
X130904999Y-104852063D01*
X134429044Y-104570956D02*
X138700000Y-100300000D01*
X131186106Y-104570956D02*
X134429044Y-104570956D01*
X138700000Y-101600000D02*
X139725001Y-102625001D01*
X138700000Y-100300000D02*
X138700000Y-101600000D01*
%TO.N,Gate_logic*%
X116545011Y-105345011D02*
X110400000Y-99200000D01*
X173954988Y-105345011D02*
X116545011Y-105345011D01*
X177200000Y-102100000D02*
X173954988Y-105345011D01*
X107413295Y-97899990D02*
X109099990Y-97899990D01*
X106724990Y-98588295D02*
X107413295Y-97899990D01*
X106724990Y-100675010D02*
X106724990Y-98588295D01*
X109099990Y-97899990D02*
X110400000Y-99200000D01*
X105417641Y-101982359D02*
X106724990Y-100675010D01*
X104617641Y-101982359D02*
X105417641Y-101982359D01*
X94600000Y-101800000D02*
X94500000Y-101900000D01*
X97500000Y-101800000D02*
X94600000Y-101800000D01*
%TO.N,Gate*%
X94300000Y-114900000D02*
X86400000Y-114900000D01*
X98300000Y-114900000D02*
X117000000Y-114900000D01*
X120500000Y-114900000D02*
X128900000Y-114900000D01*
X160864999Y-116935001D02*
X162900000Y-114900000D01*
X134135001Y-116935001D02*
X160864999Y-116935001D01*
X132100000Y-114900000D02*
X134135001Y-116935001D01*
X166700000Y-114900000D02*
X175200000Y-114900000D01*
X178400000Y-114900000D02*
X187100000Y-114900000D01*
X189000000Y-111200000D02*
X189000000Y-105700000D01*
X94300000Y-107200000D02*
X94300000Y-114900000D01*
%TO.N,Dallas*%
X132670000Y-99400000D02*
X132600000Y-99400000D01*
X114770011Y-106070011D02*
X107900000Y-99200000D01*
X133600000Y-106070011D02*
X114770011Y-106070011D01*
%TO.N,+5V*%
X106900000Y-108200000D02*
X136800000Y-108200000D01*
X97900000Y-99200000D02*
X106900000Y-108200000D01*
X97663590Y-99200000D02*
X95500000Y-97036410D01*
X97900000Y-99200000D02*
X97663590Y-99200000D01*
X95500000Y-91200000D02*
X95600000Y-91100000D01*
X95500000Y-97036410D02*
X95500000Y-91200000D01*
%TO.N,Probe-*%
X105400000Y-99200000D02*
X103600000Y-97400000D01*
X103600000Y-97400000D02*
X96500000Y-97400000D01*
X96500000Y-97400000D02*
X96500000Y-86800000D01*
X96500000Y-86800000D02*
X95900000Y-86200000D01*
X95900000Y-86200000D02*
X87300000Y-86200000D01*
X87300000Y-86200000D02*
X79600000Y-86200000D01*
X79600000Y-86200000D02*
X77000000Y-86200000D01*
X77000000Y-116300000D02*
X77400000Y-116700000D01*
X77000000Y-86200000D02*
X77000000Y-116300000D01*
%TO.N,Net-(IC2-Pad1)*%
X98600000Y-107200000D02*
X98600000Y-101800000D01*
%TO.N,Net-(J1-Pad1)*%
X159700000Y-99600000D02*
X160200000Y-99100000D01*
X150985829Y-99600000D02*
X159700000Y-99600000D01*
X149585829Y-98200000D02*
X150985829Y-99600000D01*
X148900000Y-98200000D02*
X149585829Y-98200000D01*
%TO.N,EnablePower*%
X100400000Y-99573002D02*
X100400000Y-99200000D01*
X108234105Y-107407107D02*
X100400000Y-99573002D01*
X140207109Y-107407107D02*
X108234105Y-107407107D01*
X140607108Y-107007108D02*
X140207109Y-107407107D01*
%TO.N,V_Batt*%
X102900000Y-101290024D02*
X102900000Y-99200000D01*
X108404988Y-106795012D02*
X102900000Y-101290024D01*
X133948001Y-106795012D02*
X108404988Y-106795012D01*
X134643013Y-106100000D02*
X133948001Y-106795012D01*
X158100000Y-106100000D02*
X134643013Y-106100000D01*
%TO.N,R_Schunt_Stab*%
X95600000Y-99000000D02*
X95400000Y-99200000D01*
X91400000Y-87300000D02*
X91400000Y-95200000D01*
X91400000Y-95200000D02*
X95400000Y-99200000D01*
%TD*%
D25*
%TO.N,+BATT*%
X143043000Y-88892271D02*
X122322895Y-88773701D01*
X121926931Y-76795804D01*
X121923673Y-76771122D01*
X121915663Y-76747549D01*
X121903208Y-76725992D01*
X121886786Y-76707279D01*
X121867030Y-76692130D01*
X121844698Y-76681126D01*
X121820648Y-76674690D01*
X121800216Y-76673000D01*
X104297000Y-76643216D01*
X104297000Y-65647000D01*
X143043000Y-65647000D01*
X143043000Y-88892271D01*
%TA.AperFunction,Conductor*%
D26*
G36*
X143043000Y-88892271D02*
G01*
X122322895Y-88773701D01*
X121926931Y-76795804D01*
X121923673Y-76771122D01*
X121915663Y-76747549D01*
X121903208Y-76725992D01*
X121886786Y-76707279D01*
X121867030Y-76692130D01*
X121844698Y-76681126D01*
X121820648Y-76674690D01*
X121800216Y-76673000D01*
X104297000Y-76643216D01*
X104297000Y-65647000D01*
X143043000Y-65647000D01*
X143043000Y-88892271D01*
G37*
%TD.AperFunction*%
%TD*%
D25*
%TO.N,Probe-*%
X133799682Y-117238906D02*
X133813842Y-117256160D01*
X133882668Y-117312644D01*
X133961191Y-117354615D01*
X134046393Y-117380461D01*
X134135000Y-117389188D01*
X134157205Y-117387001D01*
X160842794Y-117387001D01*
X160864999Y-117389188D01*
X160887204Y-117387001D01*
X160953606Y-117380461D01*
X161038809Y-117354615D01*
X161117332Y-117312644D01*
X161186158Y-117256160D01*
X161200322Y-117238901D01*
X162542224Y-115897000D01*
X204318001Y-115897000D01*
X204318001Y-129168000D01*
X76522236Y-129168000D01*
X76523656Y-127054749D01*
X101662752Y-127054749D01*
X102333129Y-127559203D01*
X103273194Y-128025430D01*
X104286151Y-128299301D01*
X105333074Y-128370291D01*
X106373731Y-128235673D01*
X107368129Y-127900619D01*
X108006871Y-127559203D01*
X108677248Y-127054749D01*
X147412752Y-127054749D01*
X148083129Y-127559203D01*
X149023194Y-128025430D01*
X150036151Y-128299301D01*
X151083074Y-128370291D01*
X152123731Y-128235673D01*
X153118129Y-127900619D01*
X153756871Y-127559203D01*
X154427248Y-127054749D01*
X195412752Y-127054749D01*
X196083129Y-127559203D01*
X197023194Y-128025430D01*
X198036151Y-128299301D01*
X199083074Y-128370291D01*
X200123731Y-128235673D01*
X201118129Y-127900619D01*
X201756871Y-127559203D01*
X202427248Y-127054749D01*
X201679487Y-126306988D01*
X201746262Y-126303052D01*
X201730749Y-126287540D01*
X201715236Y-126303052D01*
X201679404Y-126306905D01*
X201150088Y-125777589D01*
X201254398Y-125777589D01*
X201258446Y-125846262D01*
X201273958Y-125830749D01*
X202187540Y-125830749D01*
X202203052Y-125846262D01*
X202207100Y-125883909D01*
X202203052Y-125815236D01*
X202187540Y-125830749D01*
X201273958Y-125830749D01*
X201258446Y-125815236D01*
X201254398Y-125777589D01*
X201150088Y-125777589D01*
X198920000Y-123547502D01*
X196585490Y-125882011D01*
X196581554Y-125815236D01*
X196566042Y-125830749D01*
X196581554Y-125846262D01*
X196585407Y-125882094D01*
X195412752Y-127054749D01*
X154427248Y-127054749D01*
X153679487Y-126306988D01*
X153746262Y-126303052D01*
X153730749Y-126287540D01*
X153715236Y-126303052D01*
X153679404Y-126306905D01*
X153150088Y-125777589D01*
X153254398Y-125777589D01*
X153258446Y-125846262D01*
X153273958Y-125830749D01*
X154187540Y-125830749D01*
X154203052Y-125846262D01*
X154207100Y-125883909D01*
X154203052Y-125815236D01*
X154187540Y-125830749D01*
X153273958Y-125830749D01*
X153258446Y-125815236D01*
X153254398Y-125777589D01*
X153150088Y-125777589D01*
X150920000Y-123547502D01*
X148585490Y-125882011D01*
X148581554Y-125815236D01*
X148566042Y-125830749D01*
X148581554Y-125846262D01*
X148585407Y-125882094D01*
X147412752Y-127054749D01*
X108677248Y-127054749D01*
X107929487Y-126306988D01*
X107996262Y-126303052D01*
X107980749Y-126287540D01*
X107965236Y-126303052D01*
X107929404Y-126306905D01*
X107400088Y-125777589D01*
X107504398Y-125777589D01*
X107508446Y-125846262D01*
X107523958Y-125830749D01*
X108437540Y-125830749D01*
X108453052Y-125846262D01*
X108457100Y-125883909D01*
X108453052Y-125815236D01*
X108437540Y-125830749D01*
X107523958Y-125830749D01*
X107508446Y-125815236D01*
X107504398Y-125777589D01*
X107400088Y-125777589D01*
X105170000Y-123547502D01*
X102835490Y-125882011D01*
X102831554Y-125815236D01*
X102816042Y-125830749D01*
X102831554Y-125846262D01*
X102835407Y-125882094D01*
X101662752Y-127054749D01*
X76523656Y-127054749D01*
X76526260Y-123183074D01*
X99819709Y-123183074D01*
X99954327Y-124223731D01*
X100289381Y-125218129D01*
X100630797Y-125856871D01*
X101135251Y-126527248D01*
X101355399Y-126307100D01*
X102306091Y-126307100D01*
X102374764Y-126303052D01*
X102359251Y-126287540D01*
X102343738Y-126303052D01*
X102306091Y-126307100D01*
X101355399Y-126307100D01*
X101883012Y-125779487D01*
X101886948Y-125846262D01*
X101902460Y-125830749D01*
X101886948Y-125815236D01*
X101883095Y-125779404D01*
X102304052Y-125358446D01*
X102343738Y-125358446D01*
X102359251Y-125373958D01*
X102374764Y-125358446D01*
X102412411Y-125354398D01*
X102343738Y-125358446D01*
X102304052Y-125358446D01*
X104642498Y-123020000D01*
X105697502Y-123020000D01*
X108032011Y-125354510D01*
X107965236Y-125358446D01*
X107980749Y-125373958D01*
X107996262Y-125358446D01*
X108032094Y-125354593D01*
X109204749Y-126527248D01*
X109709203Y-125856871D01*
X110175430Y-124916806D01*
X110449301Y-123903849D01*
X110498175Y-123183074D01*
X145569709Y-123183074D01*
X145704327Y-124223731D01*
X146039381Y-125218129D01*
X146380797Y-125856871D01*
X146885251Y-126527248D01*
X147105399Y-126307100D01*
X148056091Y-126307100D01*
X148124764Y-126303052D01*
X148109251Y-126287540D01*
X148093738Y-126303052D01*
X148056091Y-126307100D01*
X147105399Y-126307100D01*
X147633012Y-125779487D01*
X147636948Y-125846262D01*
X147652460Y-125830749D01*
X147636948Y-125815236D01*
X147633095Y-125779404D01*
X148054052Y-125358446D01*
X148093738Y-125358446D01*
X148109251Y-125373958D01*
X148124764Y-125358446D01*
X148162411Y-125354398D01*
X148093738Y-125358446D01*
X148054052Y-125358446D01*
X150392498Y-123020000D01*
X151447502Y-123020000D01*
X153782011Y-125354510D01*
X153715236Y-125358446D01*
X153730749Y-125373958D01*
X153746262Y-125358446D01*
X153782094Y-125354593D01*
X154954749Y-126527248D01*
X155459203Y-125856871D01*
X155925430Y-124916806D01*
X156199301Y-123903849D01*
X156248175Y-123183074D01*
X193569709Y-123183074D01*
X193704327Y-124223731D01*
X194039381Y-125218129D01*
X194380797Y-125856871D01*
X194885251Y-126527248D01*
X195105399Y-126307100D01*
X196056091Y-126307100D01*
X196124764Y-126303052D01*
X196109251Y-126287540D01*
X196093738Y-126303052D01*
X196056091Y-126307100D01*
X195105399Y-126307100D01*
X195633012Y-125779487D01*
X195636948Y-125846262D01*
X195652460Y-125830749D01*
X195636948Y-125815236D01*
X195633095Y-125779404D01*
X196054052Y-125358446D01*
X196093738Y-125358446D01*
X196109251Y-125373958D01*
X196124764Y-125358446D01*
X196162411Y-125354398D01*
X196093738Y-125358446D01*
X196054052Y-125358446D01*
X198392498Y-123020000D01*
X199447502Y-123020000D01*
X201782011Y-125354510D01*
X201715236Y-125358446D01*
X201730749Y-125373958D01*
X201746262Y-125358446D01*
X201782094Y-125354593D01*
X202954749Y-126527248D01*
X203459203Y-125856871D01*
X203925430Y-124916806D01*
X204199301Y-123903849D01*
X204270291Y-122856926D01*
X204135673Y-121816269D01*
X203800619Y-120821871D01*
X203459203Y-120183129D01*
X202954749Y-119512752D01*
X202206988Y-120260513D01*
X202203052Y-120193738D01*
X202187540Y-120209251D01*
X202203052Y-120224764D01*
X202206905Y-120260596D01*
X199447502Y-123020000D01*
X198392498Y-123020000D01*
X196057989Y-120685490D01*
X196124764Y-120681554D01*
X196109251Y-120666042D01*
X196093738Y-120681554D01*
X196057906Y-120685407D01*
X195528590Y-120156091D01*
X195632900Y-120156091D01*
X195636948Y-120224764D01*
X195652460Y-120209251D01*
X196566042Y-120209251D01*
X196581554Y-120224764D01*
X196585602Y-120262411D01*
X196581554Y-120193738D01*
X196566042Y-120209251D01*
X195652460Y-120209251D01*
X195636948Y-120193738D01*
X195632900Y-120156091D01*
X195528590Y-120156091D01*
X194885251Y-119512752D01*
X194380797Y-120183129D01*
X193914570Y-121123194D01*
X193640699Y-122136151D01*
X193569709Y-123183074D01*
X156248175Y-123183074D01*
X156270291Y-122856926D01*
X156135673Y-121816269D01*
X155800619Y-120821871D01*
X155459203Y-120183129D01*
X154954749Y-119512752D01*
X154206988Y-120260513D01*
X154203052Y-120193738D01*
X154187540Y-120209251D01*
X154203052Y-120224764D01*
X154206905Y-120260596D01*
X151447502Y-123020000D01*
X150392498Y-123020000D01*
X148057989Y-120685490D01*
X148124764Y-120681554D01*
X148109251Y-120666042D01*
X148093738Y-120681554D01*
X148057906Y-120685407D01*
X147528590Y-120156091D01*
X147632900Y-120156091D01*
X147636948Y-120224764D01*
X147652460Y-120209251D01*
X148566042Y-120209251D01*
X148581554Y-120224764D01*
X148585602Y-120262411D01*
X148581554Y-120193738D01*
X148566042Y-120209251D01*
X147652460Y-120209251D01*
X147636948Y-120193738D01*
X147632900Y-120156091D01*
X147528590Y-120156091D01*
X146885251Y-119512752D01*
X146380797Y-120183129D01*
X145914570Y-121123194D01*
X145640699Y-122136151D01*
X145569709Y-123183074D01*
X110498175Y-123183074D01*
X110520291Y-122856926D01*
X110385673Y-121816269D01*
X110050619Y-120821871D01*
X109709203Y-120183129D01*
X109204749Y-119512752D01*
X108456988Y-120260513D01*
X108453052Y-120193738D01*
X108437540Y-120209251D01*
X108453052Y-120224764D01*
X108456905Y-120260596D01*
X105697502Y-123020000D01*
X104642498Y-123020000D01*
X102307989Y-120685490D01*
X102374764Y-120681554D01*
X102359251Y-120666042D01*
X102343738Y-120681554D01*
X102307906Y-120685407D01*
X101778590Y-120156091D01*
X101882900Y-120156091D01*
X101886948Y-120224764D01*
X101902460Y-120209251D01*
X102816042Y-120209251D01*
X102831554Y-120224764D01*
X102835602Y-120262411D01*
X102831554Y-120193738D01*
X102816042Y-120209251D01*
X101902460Y-120209251D01*
X101886948Y-120193738D01*
X101882900Y-120156091D01*
X101778590Y-120156091D01*
X101135251Y-119512752D01*
X100630797Y-120183129D01*
X100164570Y-121123194D01*
X99890699Y-122136151D01*
X99819709Y-123183074D01*
X76526260Y-123183074D01*
X76529082Y-118985251D01*
X101662752Y-118985251D01*
X102410513Y-119733012D01*
X102343738Y-119736948D01*
X102359251Y-119752460D01*
X102374764Y-119736948D01*
X102410596Y-119733095D01*
X105170000Y-122492498D01*
X106976896Y-120685602D01*
X107927589Y-120685602D01*
X107996262Y-120681554D01*
X107980749Y-120666042D01*
X107965236Y-120681554D01*
X107927589Y-120685602D01*
X106976896Y-120685602D01*
X107504510Y-120157989D01*
X107508446Y-120224764D01*
X107523958Y-120209251D01*
X107508446Y-120193738D01*
X107504593Y-120157906D01*
X107925551Y-119736948D01*
X107965236Y-119736948D01*
X107980749Y-119752460D01*
X107996262Y-119736948D01*
X108033909Y-119732900D01*
X107965236Y-119736948D01*
X107925551Y-119736948D01*
X108677248Y-118985251D01*
X147412752Y-118985251D01*
X148160513Y-119733012D01*
X148093738Y-119736948D01*
X148109251Y-119752460D01*
X148124764Y-119736948D01*
X148160596Y-119733095D01*
X150920000Y-122492498D01*
X152726896Y-120685602D01*
X153677589Y-120685602D01*
X153746262Y-120681554D01*
X153730749Y-120666042D01*
X153715236Y-120681554D01*
X153677589Y-120685602D01*
X152726896Y-120685602D01*
X153254510Y-120157989D01*
X153258446Y-120224764D01*
X153273958Y-120209251D01*
X153258446Y-120193738D01*
X153254593Y-120157906D01*
X153675551Y-119736948D01*
X153715236Y-119736948D01*
X153730749Y-119752460D01*
X153746262Y-119736948D01*
X153783909Y-119732900D01*
X153715236Y-119736948D01*
X153675551Y-119736948D01*
X154427248Y-118985251D01*
X195412752Y-118985251D01*
X196160513Y-119733012D01*
X196093738Y-119736948D01*
X196109251Y-119752460D01*
X196124764Y-119736948D01*
X196160596Y-119733095D01*
X198920000Y-122492498D01*
X200726896Y-120685602D01*
X201677589Y-120685602D01*
X201746262Y-120681554D01*
X201730749Y-120666042D01*
X201715236Y-120681554D01*
X201677589Y-120685602D01*
X200726896Y-120685602D01*
X201254510Y-120157989D01*
X201258446Y-120224764D01*
X201273958Y-120209251D01*
X201258446Y-120193738D01*
X201254593Y-120157906D01*
X201675551Y-119736948D01*
X201715236Y-119736948D01*
X201730749Y-119752460D01*
X201746262Y-119736948D01*
X201783909Y-119732900D01*
X201715236Y-119736948D01*
X201675551Y-119736948D01*
X202427248Y-118985251D01*
X201756871Y-118480797D01*
X200816806Y-118014570D01*
X199803849Y-117740699D01*
X198756926Y-117669709D01*
X197716269Y-117804327D01*
X196721871Y-118139381D01*
X196083129Y-118480797D01*
X195412752Y-118985251D01*
X154427248Y-118985251D01*
X153756871Y-118480797D01*
X152816806Y-118014570D01*
X151803849Y-117740699D01*
X150756926Y-117669709D01*
X149716269Y-117804327D01*
X148721871Y-118139381D01*
X148083129Y-118480797D01*
X147412752Y-118985251D01*
X108677248Y-118985251D01*
X108006871Y-118480797D01*
X107066806Y-118014570D01*
X106053849Y-117740699D01*
X105006926Y-117669709D01*
X103966269Y-117804327D01*
X102971871Y-118139381D01*
X102333129Y-118480797D01*
X101662752Y-118985251D01*
X76529082Y-118985251D01*
X76531159Y-115897000D01*
X132457777Y-115897000D01*
X133799682Y-117238906D01*
%TA.AperFunction,Conductor*%
D26*
G36*
X133799682Y-117238906D02*
G01*
X133813842Y-117256160D01*
X133882668Y-117312644D01*
X133961191Y-117354615D01*
X134046393Y-117380461D01*
X134135000Y-117389188D01*
X134157205Y-117387001D01*
X160842794Y-117387001D01*
X160864999Y-117389188D01*
X160887204Y-117387001D01*
X160953606Y-117380461D01*
X161038809Y-117354615D01*
X161117332Y-117312644D01*
X161186158Y-117256160D01*
X161200322Y-117238901D01*
X162542224Y-115897000D01*
X204318001Y-115897000D01*
X204318001Y-129168000D01*
X76522236Y-129168000D01*
X76523656Y-127054749D01*
X101662752Y-127054749D01*
X102333129Y-127559203D01*
X103273194Y-128025430D01*
X104286151Y-128299301D01*
X105333074Y-128370291D01*
X106373731Y-128235673D01*
X107368129Y-127900619D01*
X108006871Y-127559203D01*
X108677248Y-127054749D01*
X147412752Y-127054749D01*
X148083129Y-127559203D01*
X149023194Y-128025430D01*
X150036151Y-128299301D01*
X151083074Y-128370291D01*
X152123731Y-128235673D01*
X153118129Y-127900619D01*
X153756871Y-127559203D01*
X154427248Y-127054749D01*
X195412752Y-127054749D01*
X196083129Y-127559203D01*
X197023194Y-128025430D01*
X198036151Y-128299301D01*
X199083074Y-128370291D01*
X200123731Y-128235673D01*
X201118129Y-127900619D01*
X201756871Y-127559203D01*
X202427248Y-127054749D01*
X201679487Y-126306988D01*
X201746262Y-126303052D01*
X201730749Y-126287540D01*
X201715236Y-126303052D01*
X201679404Y-126306905D01*
X201150088Y-125777589D01*
X201254398Y-125777589D01*
X201258446Y-125846262D01*
X201273958Y-125830749D01*
X202187540Y-125830749D01*
X202203052Y-125846262D01*
X202207100Y-125883909D01*
X202203052Y-125815236D01*
X202187540Y-125830749D01*
X201273958Y-125830749D01*
X201258446Y-125815236D01*
X201254398Y-125777589D01*
X201150088Y-125777589D01*
X198920000Y-123547502D01*
X196585490Y-125882011D01*
X196581554Y-125815236D01*
X196566042Y-125830749D01*
X196581554Y-125846262D01*
X196585407Y-125882094D01*
X195412752Y-127054749D01*
X154427248Y-127054749D01*
X153679487Y-126306988D01*
X153746262Y-126303052D01*
X153730749Y-126287540D01*
X153715236Y-126303052D01*
X153679404Y-126306905D01*
X153150088Y-125777589D01*
X153254398Y-125777589D01*
X153258446Y-125846262D01*
X153273958Y-125830749D01*
X154187540Y-125830749D01*
X154203052Y-125846262D01*
X154207100Y-125883909D01*
X154203052Y-125815236D01*
X154187540Y-125830749D01*
X153273958Y-125830749D01*
X153258446Y-125815236D01*
X153254398Y-125777589D01*
X153150088Y-125777589D01*
X150920000Y-123547502D01*
X148585490Y-125882011D01*
X148581554Y-125815236D01*
X148566042Y-125830749D01*
X148581554Y-125846262D01*
X148585407Y-125882094D01*
X147412752Y-127054749D01*
X108677248Y-127054749D01*
X107929487Y-126306988D01*
X107996262Y-126303052D01*
X107980749Y-126287540D01*
X107965236Y-126303052D01*
X107929404Y-126306905D01*
X107400088Y-125777589D01*
X107504398Y-125777589D01*
X107508446Y-125846262D01*
X107523958Y-125830749D01*
X108437540Y-125830749D01*
X108453052Y-125846262D01*
X108457100Y-125883909D01*
X108453052Y-125815236D01*
X108437540Y-125830749D01*
X107523958Y-125830749D01*
X107508446Y-125815236D01*
X107504398Y-125777589D01*
X107400088Y-125777589D01*
X105170000Y-123547502D01*
X102835490Y-125882011D01*
X102831554Y-125815236D01*
X102816042Y-125830749D01*
X102831554Y-125846262D01*
X102835407Y-125882094D01*
X101662752Y-127054749D01*
X76523656Y-127054749D01*
X76526260Y-123183074D01*
X99819709Y-123183074D01*
X99954327Y-124223731D01*
X100289381Y-125218129D01*
X100630797Y-125856871D01*
X101135251Y-126527248D01*
X101355399Y-126307100D01*
X102306091Y-126307100D01*
X102374764Y-126303052D01*
X102359251Y-126287540D01*
X102343738Y-126303052D01*
X102306091Y-126307100D01*
X101355399Y-126307100D01*
X101883012Y-125779487D01*
X101886948Y-125846262D01*
X101902460Y-125830749D01*
X101886948Y-125815236D01*
X101883095Y-125779404D01*
X102304052Y-125358446D01*
X102343738Y-125358446D01*
X102359251Y-125373958D01*
X102374764Y-125358446D01*
X102412411Y-125354398D01*
X102343738Y-125358446D01*
X102304052Y-125358446D01*
X104642498Y-123020000D01*
X105697502Y-123020000D01*
X108032011Y-125354510D01*
X107965236Y-125358446D01*
X107980749Y-125373958D01*
X107996262Y-125358446D01*
X108032094Y-125354593D01*
X109204749Y-126527248D01*
X109709203Y-125856871D01*
X110175430Y-124916806D01*
X110449301Y-123903849D01*
X110498175Y-123183074D01*
X145569709Y-123183074D01*
X145704327Y-124223731D01*
X146039381Y-125218129D01*
X146380797Y-125856871D01*
X146885251Y-126527248D01*
X147105399Y-126307100D01*
X148056091Y-126307100D01*
X148124764Y-126303052D01*
X148109251Y-126287540D01*
X148093738Y-126303052D01*
X148056091Y-126307100D01*
X147105399Y-126307100D01*
X147633012Y-125779487D01*
X147636948Y-125846262D01*
X147652460Y-125830749D01*
X147636948Y-125815236D01*
X147633095Y-125779404D01*
X148054052Y-125358446D01*
X148093738Y-125358446D01*
X148109251Y-125373958D01*
X148124764Y-125358446D01*
X148162411Y-125354398D01*
X148093738Y-125358446D01*
X148054052Y-125358446D01*
X150392498Y-123020000D01*
X151447502Y-123020000D01*
X153782011Y-125354510D01*
X153715236Y-125358446D01*
X153730749Y-125373958D01*
X153746262Y-125358446D01*
X153782094Y-125354593D01*
X154954749Y-126527248D01*
X155459203Y-125856871D01*
X155925430Y-124916806D01*
X156199301Y-123903849D01*
X156248175Y-123183074D01*
X193569709Y-123183074D01*
X193704327Y-124223731D01*
X194039381Y-125218129D01*
X194380797Y-125856871D01*
X194885251Y-126527248D01*
X195105399Y-126307100D01*
X196056091Y-126307100D01*
X196124764Y-126303052D01*
X196109251Y-126287540D01*
X196093738Y-126303052D01*
X196056091Y-126307100D01*
X195105399Y-126307100D01*
X195633012Y-125779487D01*
X195636948Y-125846262D01*
X195652460Y-125830749D01*
X195636948Y-125815236D01*
X195633095Y-125779404D01*
X196054052Y-125358446D01*
X196093738Y-125358446D01*
X196109251Y-125373958D01*
X196124764Y-125358446D01*
X196162411Y-125354398D01*
X196093738Y-125358446D01*
X196054052Y-125358446D01*
X198392498Y-123020000D01*
X199447502Y-123020000D01*
X201782011Y-125354510D01*
X201715236Y-125358446D01*
X201730749Y-125373958D01*
X201746262Y-125358446D01*
X201782094Y-125354593D01*
X202954749Y-126527248D01*
X203459203Y-125856871D01*
X203925430Y-124916806D01*
X204199301Y-123903849D01*
X204270291Y-122856926D01*
X204135673Y-121816269D01*
X203800619Y-120821871D01*
X203459203Y-120183129D01*
X202954749Y-119512752D01*
X202206988Y-120260513D01*
X202203052Y-120193738D01*
X202187540Y-120209251D01*
X202203052Y-120224764D01*
X202206905Y-120260596D01*
X199447502Y-123020000D01*
X198392498Y-123020000D01*
X196057989Y-120685490D01*
X196124764Y-120681554D01*
X196109251Y-120666042D01*
X196093738Y-120681554D01*
X196057906Y-120685407D01*
X195528590Y-120156091D01*
X195632900Y-120156091D01*
X195636948Y-120224764D01*
X195652460Y-120209251D01*
X196566042Y-120209251D01*
X196581554Y-120224764D01*
X196585602Y-120262411D01*
X196581554Y-120193738D01*
X196566042Y-120209251D01*
X195652460Y-120209251D01*
X195636948Y-120193738D01*
X195632900Y-120156091D01*
X195528590Y-120156091D01*
X194885251Y-119512752D01*
X194380797Y-120183129D01*
X193914570Y-121123194D01*
X193640699Y-122136151D01*
X193569709Y-123183074D01*
X156248175Y-123183074D01*
X156270291Y-122856926D01*
X156135673Y-121816269D01*
X155800619Y-120821871D01*
X155459203Y-120183129D01*
X154954749Y-119512752D01*
X154206988Y-120260513D01*
X154203052Y-120193738D01*
X154187540Y-120209251D01*
X154203052Y-120224764D01*
X154206905Y-120260596D01*
X151447502Y-123020000D01*
X150392498Y-123020000D01*
X148057989Y-120685490D01*
X148124764Y-120681554D01*
X148109251Y-120666042D01*
X148093738Y-120681554D01*
X148057906Y-120685407D01*
X147528590Y-120156091D01*
X147632900Y-120156091D01*
X147636948Y-120224764D01*
X147652460Y-120209251D01*
X148566042Y-120209251D01*
X148581554Y-120224764D01*
X148585602Y-120262411D01*
X148581554Y-120193738D01*
X148566042Y-120209251D01*
X147652460Y-120209251D01*
X147636948Y-120193738D01*
X147632900Y-120156091D01*
X147528590Y-120156091D01*
X146885251Y-119512752D01*
X146380797Y-120183129D01*
X145914570Y-121123194D01*
X145640699Y-122136151D01*
X145569709Y-123183074D01*
X110498175Y-123183074D01*
X110520291Y-122856926D01*
X110385673Y-121816269D01*
X110050619Y-120821871D01*
X109709203Y-120183129D01*
X109204749Y-119512752D01*
X108456988Y-120260513D01*
X108453052Y-120193738D01*
X108437540Y-120209251D01*
X108453052Y-120224764D01*
X108456905Y-120260596D01*
X105697502Y-123020000D01*
X104642498Y-123020000D01*
X102307989Y-120685490D01*
X102374764Y-120681554D01*
X102359251Y-120666042D01*
X102343738Y-120681554D01*
X102307906Y-120685407D01*
X101778590Y-120156091D01*
X101882900Y-120156091D01*
X101886948Y-120224764D01*
X101902460Y-120209251D01*
X102816042Y-120209251D01*
X102831554Y-120224764D01*
X102835602Y-120262411D01*
X102831554Y-120193738D01*
X102816042Y-120209251D01*
X101902460Y-120209251D01*
X101886948Y-120193738D01*
X101882900Y-120156091D01*
X101778590Y-120156091D01*
X101135251Y-119512752D01*
X100630797Y-120183129D01*
X100164570Y-121123194D01*
X99890699Y-122136151D01*
X99819709Y-123183074D01*
X76526260Y-123183074D01*
X76529082Y-118985251D01*
X101662752Y-118985251D01*
X102410513Y-119733012D01*
X102343738Y-119736948D01*
X102359251Y-119752460D01*
X102374764Y-119736948D01*
X102410596Y-119733095D01*
X105170000Y-122492498D01*
X106976896Y-120685602D01*
X107927589Y-120685602D01*
X107996262Y-120681554D01*
X107980749Y-120666042D01*
X107965236Y-120681554D01*
X107927589Y-120685602D01*
X106976896Y-120685602D01*
X107504510Y-120157989D01*
X107508446Y-120224764D01*
X107523958Y-120209251D01*
X107508446Y-120193738D01*
X107504593Y-120157906D01*
X107925551Y-119736948D01*
X107965236Y-119736948D01*
X107980749Y-119752460D01*
X107996262Y-119736948D01*
X108033909Y-119732900D01*
X107965236Y-119736948D01*
X107925551Y-119736948D01*
X108677248Y-118985251D01*
X147412752Y-118985251D01*
X148160513Y-119733012D01*
X148093738Y-119736948D01*
X148109251Y-119752460D01*
X148124764Y-119736948D01*
X148160596Y-119733095D01*
X150920000Y-122492498D01*
X152726896Y-120685602D01*
X153677589Y-120685602D01*
X153746262Y-120681554D01*
X153730749Y-120666042D01*
X153715236Y-120681554D01*
X153677589Y-120685602D01*
X152726896Y-120685602D01*
X153254510Y-120157989D01*
X153258446Y-120224764D01*
X153273958Y-120209251D01*
X153258446Y-120193738D01*
X153254593Y-120157906D01*
X153675551Y-119736948D01*
X153715236Y-119736948D01*
X153730749Y-119752460D01*
X153746262Y-119736948D01*
X153783909Y-119732900D01*
X153715236Y-119736948D01*
X153675551Y-119736948D01*
X154427248Y-118985251D01*
X195412752Y-118985251D01*
X196160513Y-119733012D01*
X196093738Y-119736948D01*
X196109251Y-119752460D01*
X196124764Y-119736948D01*
X196160596Y-119733095D01*
X198920000Y-122492498D01*
X200726896Y-120685602D01*
X201677589Y-120685602D01*
X201746262Y-120681554D01*
X201730749Y-120666042D01*
X201715236Y-120681554D01*
X201677589Y-120685602D01*
X200726896Y-120685602D01*
X201254510Y-120157989D01*
X201258446Y-120224764D01*
X201273958Y-120209251D01*
X201258446Y-120193738D01*
X201254593Y-120157906D01*
X201675551Y-119736948D01*
X201715236Y-119736948D01*
X201730749Y-119752460D01*
X201746262Y-119736948D01*
X201783909Y-119732900D01*
X201715236Y-119736948D01*
X201675551Y-119736948D01*
X202427248Y-118985251D01*
X201756871Y-118480797D01*
X200816806Y-118014570D01*
X199803849Y-117740699D01*
X198756926Y-117669709D01*
X197716269Y-117804327D01*
X196721871Y-118139381D01*
X196083129Y-118480797D01*
X195412752Y-118985251D01*
X154427248Y-118985251D01*
X153756871Y-118480797D01*
X152816806Y-118014570D01*
X151803849Y-117740699D01*
X150756926Y-117669709D01*
X149716269Y-117804327D01*
X148721871Y-118139381D01*
X148083129Y-118480797D01*
X147412752Y-118985251D01*
X108677248Y-118985251D01*
X108006871Y-118480797D01*
X107066806Y-118014570D01*
X106053849Y-117740699D01*
X105006926Y-117669709D01*
X103966269Y-117804327D01*
X102971871Y-118139381D01*
X102333129Y-118480797D01*
X101662752Y-118985251D01*
X76529082Y-118985251D01*
X76531159Y-115897000D01*
X132457777Y-115897000D01*
X133799682Y-117238906D01*
G37*
%TD.AperFunction*%
%TD*%
D25*
%TO.N,FET_GND*%
X91055636Y-86655741D02*
X90936564Y-86735302D01*
X90835302Y-86836564D01*
X90755741Y-86955636D01*
X90700938Y-87087942D01*
X90673000Y-87228397D01*
X90673000Y-87371603D01*
X90700938Y-87512058D01*
X90755741Y-87644364D01*
X90835302Y-87763436D01*
X90936564Y-87864698D01*
X90948000Y-87872339D01*
X90948001Y-93746893D01*
X86207041Y-93778297D01*
X85168395Y-93442728D01*
X84007178Y-93307246D01*
X82841844Y-93400910D01*
X81717173Y-93720119D01*
X81543074Y-93809192D01*
X77452000Y-93836291D01*
X77452000Y-86652000D01*
X91064668Y-86652000D01*
X91055636Y-86655741D01*
%TA.AperFunction,Conductor*%
D26*
G36*
X91055636Y-86655741D02*
G01*
X90936564Y-86735302D01*
X90835302Y-86836564D01*
X90755741Y-86955636D01*
X90700938Y-87087942D01*
X90673000Y-87228397D01*
X90673000Y-87371603D01*
X90700938Y-87512058D01*
X90755741Y-87644364D01*
X90835302Y-87763436D01*
X90936564Y-87864698D01*
X90948000Y-87872339D01*
X90948001Y-93746893D01*
X86207041Y-93778297D01*
X85168395Y-93442728D01*
X84007178Y-93307246D01*
X82841844Y-93400910D01*
X81717173Y-93720119D01*
X81543074Y-93809192D01*
X77452000Y-93836291D01*
X77452000Y-86652000D01*
X91064668Y-86652000D01*
X91055636Y-86655741D01*
G37*
%TD.AperFunction*%
D25*
X96048001Y-86987226D02*
X96048001Y-90524988D01*
X95944364Y-90455741D01*
X95812058Y-90400938D01*
X95671603Y-90373000D01*
X95528397Y-90373000D01*
X95387942Y-90400938D01*
X95255636Y-90455741D01*
X95136564Y-90535302D01*
X95035302Y-90636564D01*
X94955741Y-90755636D01*
X94900938Y-90887942D01*
X94873000Y-91028397D01*
X94873000Y-91171603D01*
X94900938Y-91312058D01*
X94955741Y-91444364D01*
X95035302Y-91563436D01*
X95048001Y-91576135D01*
X95048001Y-93719734D01*
X91852000Y-93740904D01*
X91852000Y-87872339D01*
X91863436Y-87864698D01*
X91964698Y-87763436D01*
X92044259Y-87644364D01*
X92099062Y-87512058D01*
X92127000Y-87371603D01*
X92127000Y-87228397D01*
X92099062Y-87087942D01*
X92044259Y-86955636D01*
X91964698Y-86836564D01*
X91863436Y-86735302D01*
X91744364Y-86655741D01*
X91735332Y-86652000D01*
X95712777Y-86652000D01*
X96048001Y-86987226D01*
%TA.AperFunction,Conductor*%
D26*
G36*
X96048001Y-86987226D02*
G01*
X96048001Y-90524988D01*
X95944364Y-90455741D01*
X95812058Y-90400938D01*
X95671603Y-90373000D01*
X95528397Y-90373000D01*
X95387942Y-90400938D01*
X95255636Y-90455741D01*
X95136564Y-90535302D01*
X95035302Y-90636564D01*
X94955741Y-90755636D01*
X94900938Y-90887942D01*
X94873000Y-91028397D01*
X94873000Y-91171603D01*
X94900938Y-91312058D01*
X94955741Y-91444364D01*
X95035302Y-91563436D01*
X95048001Y-91576135D01*
X95048001Y-93719734D01*
X91852000Y-93740904D01*
X91852000Y-87872339D01*
X91863436Y-87864698D01*
X91964698Y-87763436D01*
X92044259Y-87644364D01*
X92099062Y-87512058D01*
X92127000Y-87371603D01*
X92127000Y-87228397D01*
X92099062Y-87087942D01*
X92044259Y-86955636D01*
X91964698Y-86836564D01*
X91863436Y-86735302D01*
X91744364Y-86655741D01*
X91735332Y-86652000D01*
X95712777Y-86652000D01*
X96048001Y-86987226D01*
G37*
%TD.AperFunction*%
D25*
X102743000Y-88900000D02*
X102745440Y-88924776D01*
X102752667Y-88948601D01*
X102764403Y-88970557D01*
X102780197Y-88989803D01*
X102799443Y-89005597D01*
X102821399Y-89017333D01*
X102845224Y-89024560D01*
X102870000Y-89027000D01*
X114327055Y-89027000D01*
X116979738Y-93574456D01*
X97952000Y-93700497D01*
X97952000Y-86487000D01*
X102743000Y-86487000D01*
X102743000Y-88900000D01*
%TA.AperFunction,Conductor*%
D26*
G36*
X102743000Y-88900000D02*
G01*
X102745440Y-88924776D01*
X102752667Y-88948601D01*
X102764403Y-88970557D01*
X102780197Y-88989803D01*
X102799443Y-89005597D01*
X102821399Y-89017333D01*
X102845224Y-89024560D01*
X102870000Y-89027000D01*
X114327055Y-89027000D01*
X116979738Y-93574456D01*
X97952000Y-93700497D01*
X97952000Y-86487000D01*
X102743000Y-86487000D01*
X102743000Y-88900000D01*
G37*
%TD.AperFunction*%
%TD*%
D25*
%TO.N,FET_GND*%
X90948001Y-95177785D02*
X90945813Y-95200000D01*
X90954540Y-95288607D01*
X90980386Y-95373809D01*
X90980387Y-95373810D01*
X91022358Y-95452333D01*
X91078842Y-95521159D01*
X91096096Y-95535319D01*
X94278437Y-98717661D01*
X94240031Y-98844268D01*
X94223000Y-99017188D01*
X94223000Y-99382811D01*
X94240031Y-99555731D01*
X94307333Y-99777596D01*
X94416626Y-99982069D01*
X94563709Y-100161291D01*
X94742930Y-100308374D01*
X94947403Y-100417667D01*
X95169268Y-100484969D01*
X95400000Y-100507694D01*
X95630731Y-100484969D01*
X95852596Y-100417667D01*
X96057069Y-100308374D01*
X96236291Y-100161291D01*
X96383374Y-99982070D01*
X96492667Y-99777597D01*
X96559969Y-99555732D01*
X96577000Y-99382812D01*
X96577000Y-99017189D01*
X96559969Y-98844269D01*
X96512652Y-98688286D01*
X96733630Y-98909264D01*
X96723000Y-99017188D01*
X96723000Y-99382811D01*
X96740031Y-99555731D01*
X96807333Y-99777596D01*
X96916626Y-99982069D01*
X97063709Y-100161291D01*
X97242930Y-100308374D01*
X97447403Y-100417667D01*
X97669268Y-100484969D01*
X97900000Y-100507694D01*
X98130731Y-100484969D01*
X98352596Y-100417667D01*
X98434608Y-100373831D01*
X106533775Y-108473000D01*
X104212225Y-108473000D01*
X102724317Y-106985093D01*
X102727000Y-106971603D01*
X102727000Y-106828397D01*
X102699062Y-106687942D01*
X102644259Y-106555636D01*
X102564698Y-106436564D01*
X102463436Y-106335302D01*
X102344364Y-106255741D01*
X102212058Y-106200938D01*
X102071603Y-106173000D01*
X101928397Y-106173000D01*
X101787942Y-106200938D01*
X101655636Y-106255741D01*
X101536564Y-106335302D01*
X101435302Y-106436564D01*
X101355741Y-106555636D01*
X101300938Y-106687942D01*
X101273000Y-106828397D01*
X101273000Y-106971603D01*
X101300938Y-107112058D01*
X101355741Y-107244364D01*
X101435302Y-107363436D01*
X101536564Y-107464698D01*
X101655636Y-107544259D01*
X101787942Y-107599062D01*
X101928397Y-107627000D01*
X102071603Y-107627000D01*
X102085093Y-107624317D01*
X103689686Y-109228911D01*
X103703841Y-109246159D01*
X103772667Y-109302643D01*
X103851190Y-109344614D01*
X103936393Y-109370460D01*
X104002795Y-109377000D01*
X104002796Y-109377000D01*
X104024999Y-109379187D01*
X104047202Y-109377000D01*
X119627661Y-109377000D01*
X119635302Y-109388436D01*
X119736564Y-109489698D01*
X119855636Y-109569259D01*
X119987942Y-109624062D01*
X120128397Y-109652000D01*
X120271603Y-109652000D01*
X120412058Y-109624062D01*
X120544364Y-109569259D01*
X120663436Y-109489698D01*
X120764698Y-109388436D01*
X120844259Y-109269364D01*
X120899062Y-109137058D01*
X120927000Y-108996603D01*
X120927000Y-108853397D01*
X120899062Y-108712942D01*
X120873819Y-108652000D01*
X136227661Y-108652000D01*
X136235302Y-108663436D01*
X136336564Y-108764698D01*
X136455636Y-108844259D01*
X136587942Y-108899062D01*
X136728397Y-108927000D01*
X136871603Y-108927000D01*
X137012058Y-108899062D01*
X137144364Y-108844259D01*
X137263436Y-108764698D01*
X137364698Y-108663436D01*
X137444259Y-108544364D01*
X137499062Y-108412058D01*
X137527000Y-108271603D01*
X137527000Y-108128397D01*
X137499062Y-107987942D01*
X137445697Y-107859107D01*
X140184904Y-107859107D01*
X140207109Y-107861294D01*
X140229314Y-107859107D01*
X140295716Y-107852567D01*
X140380919Y-107826721D01*
X140459442Y-107784750D01*
X140523950Y-107731810D01*
X140535505Y-107734108D01*
X140678711Y-107734108D01*
X140819166Y-107706170D01*
X140951472Y-107651367D01*
X141070544Y-107571806D01*
X141171806Y-107470544D01*
X141251367Y-107351472D01*
X141306170Y-107219166D01*
X141334108Y-107078711D01*
X141334108Y-106935505D01*
X141306170Y-106795050D01*
X141251367Y-106662744D01*
X141177371Y-106552000D01*
X157527661Y-106552000D01*
X157535302Y-106563436D01*
X157636564Y-106664698D01*
X157755636Y-106744259D01*
X157887942Y-106799062D01*
X158028397Y-106827000D01*
X158171603Y-106827000D01*
X158312058Y-106799062D01*
X158444364Y-106744259D01*
X158563436Y-106664698D01*
X158664698Y-106563436D01*
X158744259Y-106444364D01*
X158799062Y-106312058D01*
X158827000Y-106171603D01*
X158827000Y-106028397D01*
X158799062Y-105887942D01*
X158761397Y-105797011D01*
X173932783Y-105797011D01*
X173954988Y-105799198D01*
X173977193Y-105797011D01*
X174043595Y-105790471D01*
X174128798Y-105764625D01*
X174207321Y-105722654D01*
X174276147Y-105666170D01*
X174290311Y-105648911D01*
X174310825Y-105628397D01*
X188273000Y-105628397D01*
X188273000Y-105771603D01*
X188300938Y-105912058D01*
X188355741Y-106044364D01*
X188435302Y-106163436D01*
X188536564Y-106264698D01*
X188548001Y-106272340D01*
X188548000Y-110627661D01*
X188536564Y-110635302D01*
X188435302Y-110736564D01*
X188355741Y-110855636D01*
X188300938Y-110987942D01*
X188273000Y-111128397D01*
X188273000Y-111271603D01*
X188300938Y-111412058D01*
X188355741Y-111544364D01*
X188435302Y-111663436D01*
X188536564Y-111764698D01*
X188655636Y-111844259D01*
X188787942Y-111899062D01*
X188928397Y-111927000D01*
X189071603Y-111927000D01*
X189212058Y-111899062D01*
X189344364Y-111844259D01*
X189463436Y-111764698D01*
X189564698Y-111663436D01*
X189644259Y-111544364D01*
X189699062Y-111412058D01*
X189727000Y-111271603D01*
X189727000Y-111128397D01*
X189699062Y-110987942D01*
X189644259Y-110855636D01*
X189564698Y-110736564D01*
X189463436Y-110635302D01*
X189452000Y-110627661D01*
X189452000Y-106272339D01*
X189463436Y-106264698D01*
X189564698Y-106163436D01*
X189644259Y-106044364D01*
X189699062Y-105912058D01*
X189727000Y-105771603D01*
X189727000Y-105628397D01*
X189699062Y-105487942D01*
X189644259Y-105355636D01*
X189564698Y-105236564D01*
X189463436Y-105135302D01*
X189344364Y-105055741D01*
X189212058Y-105000938D01*
X189071603Y-104973000D01*
X188928397Y-104973000D01*
X188787942Y-105000938D01*
X188655636Y-105055741D01*
X188536564Y-105135302D01*
X188435302Y-105236564D01*
X188355741Y-105355636D01*
X188300938Y-105487942D01*
X188273000Y-105628397D01*
X174310825Y-105628397D01*
X177114908Y-102824317D01*
X177128397Y-102827000D01*
X177271603Y-102827000D01*
X177412058Y-102799062D01*
X177544364Y-102744259D01*
X177663436Y-102664698D01*
X177764698Y-102563436D01*
X177844259Y-102444364D01*
X177899062Y-102312058D01*
X177927000Y-102171603D01*
X177927000Y-102028397D01*
X177899062Y-101887942D01*
X177844259Y-101755636D01*
X177764698Y-101636564D01*
X177663436Y-101535302D01*
X177544364Y-101455741D01*
X177412058Y-101400938D01*
X177271603Y-101373000D01*
X177128397Y-101373000D01*
X176987942Y-101400938D01*
X176855636Y-101455741D01*
X176736564Y-101535302D01*
X176635302Y-101636564D01*
X176555741Y-101755636D01*
X176500938Y-101887942D01*
X176473000Y-102028397D01*
X176473000Y-102171603D01*
X176475683Y-102185092D01*
X173767764Y-104893011D01*
X134749111Y-104893011D01*
X134750203Y-104892115D01*
X134764367Y-104874856D01*
X136404474Y-103234749D01*
X167992752Y-103234749D01*
X168663129Y-103739203D01*
X169603194Y-104205430D01*
X170616151Y-104479301D01*
X171663074Y-104550291D01*
X172703731Y-104415673D01*
X173698129Y-104080619D01*
X174336871Y-103739203D01*
X175007248Y-103234749D01*
X174259487Y-102486988D01*
X174326262Y-102483052D01*
X174310749Y-102467540D01*
X174295236Y-102483052D01*
X174259404Y-102486905D01*
X173730088Y-101957589D01*
X173834398Y-101957589D01*
X173838446Y-102026262D01*
X173853958Y-102010749D01*
X174767540Y-102010749D01*
X174783052Y-102026262D01*
X174787100Y-102063909D01*
X174783052Y-101995236D01*
X174767540Y-102010749D01*
X173853958Y-102010749D01*
X173838446Y-101995236D01*
X173834398Y-101957589D01*
X173730088Y-101957589D01*
X171500000Y-99727502D01*
X169165490Y-102062011D01*
X169161554Y-101995236D01*
X169146042Y-102010749D01*
X169161554Y-102026262D01*
X169165407Y-102062094D01*
X167992752Y-103234749D01*
X136404474Y-103234749D01*
X138110642Y-101528582D01*
X138248001Y-101528582D01*
X138248001Y-101577785D01*
X138245813Y-101600000D01*
X138254540Y-101688607D01*
X138280386Y-101773809D01*
X138300475Y-101811393D01*
X138322358Y-101852333D01*
X138378842Y-101921159D01*
X138396096Y-101935319D01*
X139389686Y-102928911D01*
X139403842Y-102946160D01*
X139472668Y-103002644D01*
X139551191Y-103044615D01*
X139616563Y-103064445D01*
X139636393Y-103070461D01*
X139725000Y-103079188D01*
X139747205Y-103077001D01*
X160964509Y-103077001D01*
X160986714Y-103079188D01*
X161008919Y-103077001D01*
X161075321Y-103070461D01*
X161160524Y-103044615D01*
X161239047Y-103002644D01*
X161307873Y-102946160D01*
X161322037Y-102928901D01*
X164178921Y-100072019D01*
X164196169Y-100057864D01*
X164252653Y-99989038D01*
X164294624Y-99910515D01*
X164320463Y-99825335D01*
X164320470Y-99825313D01*
X164329197Y-99736706D01*
X164327010Y-99714501D01*
X164327010Y-99363074D01*
X166149709Y-99363074D01*
X166284327Y-100403731D01*
X166619381Y-101398129D01*
X166960797Y-102036871D01*
X167465251Y-102707248D01*
X167685399Y-102487100D01*
X168636091Y-102487100D01*
X168704764Y-102483052D01*
X168689251Y-102467540D01*
X168673738Y-102483052D01*
X168636091Y-102487100D01*
X167685399Y-102487100D01*
X168213012Y-101959487D01*
X168216948Y-102026262D01*
X168232460Y-102010749D01*
X168216948Y-101995236D01*
X168213095Y-101959404D01*
X168634052Y-101538446D01*
X168673738Y-101538446D01*
X168689251Y-101553958D01*
X168704764Y-101538446D01*
X168742411Y-101534398D01*
X168673738Y-101538446D01*
X168634052Y-101538446D01*
X170972498Y-99200000D01*
X172027502Y-99200000D01*
X174362011Y-101534510D01*
X174295236Y-101538446D01*
X174310749Y-101553958D01*
X174326262Y-101538446D01*
X174362094Y-101534593D01*
X175534749Y-102707248D01*
X176039203Y-102036871D01*
X176505430Y-101096806D01*
X176779301Y-100083849D01*
X176850291Y-99036926D01*
X176715673Y-97996269D01*
X176380619Y-97001871D01*
X176039203Y-96363129D01*
X175534749Y-95692752D01*
X174786988Y-96440513D01*
X174783052Y-96373738D01*
X174767540Y-96389251D01*
X174783052Y-96404764D01*
X174786905Y-96440596D01*
X172027502Y-99200000D01*
X170972498Y-99200000D01*
X168637989Y-96865490D01*
X168704764Y-96861554D01*
X168689251Y-96846042D01*
X168673738Y-96861554D01*
X168637906Y-96865407D01*
X168108590Y-96336091D01*
X168212900Y-96336091D01*
X168216948Y-96404764D01*
X168232460Y-96389251D01*
X169146042Y-96389251D01*
X169161554Y-96404764D01*
X169165602Y-96442411D01*
X169161554Y-96373738D01*
X169146042Y-96389251D01*
X168232460Y-96389251D01*
X168216948Y-96373738D01*
X168212900Y-96336091D01*
X168108590Y-96336091D01*
X167465251Y-95692752D01*
X166960797Y-96363129D01*
X166494570Y-97303194D01*
X166220699Y-98316151D01*
X166149709Y-99363074D01*
X164327010Y-99363074D01*
X164327010Y-98687211D01*
X168987224Y-94026999D01*
X170169624Y-94026999D01*
X169301871Y-94319381D01*
X168663129Y-94660797D01*
X167992752Y-95165251D01*
X168740513Y-95913012D01*
X168673738Y-95916948D01*
X168689251Y-95932460D01*
X168704764Y-95916948D01*
X168740596Y-95913095D01*
X171500000Y-98672498D01*
X173306896Y-96865602D01*
X174257589Y-96865602D01*
X174326262Y-96861554D01*
X174310749Y-96846042D01*
X174295236Y-96861554D01*
X174257589Y-96865602D01*
X173306896Y-96865602D01*
X173834510Y-96337989D01*
X173838446Y-96404764D01*
X173853958Y-96389251D01*
X173838446Y-96373738D01*
X173834593Y-96337906D01*
X174255551Y-95916948D01*
X174295236Y-95916948D01*
X174310749Y-95932460D01*
X174326262Y-95916948D01*
X174363909Y-95912900D01*
X174295236Y-95916948D01*
X174255551Y-95916948D01*
X175007248Y-95165251D01*
X174336871Y-94660797D01*
X173396806Y-94194570D01*
X172777017Y-94026999D01*
X174087776Y-94026999D01*
X180608775Y-100548000D01*
X178387225Y-100548000D01*
X178324317Y-100485092D01*
X178327000Y-100471603D01*
X178327000Y-100328397D01*
X178299062Y-100187942D01*
X178244259Y-100055636D01*
X178164698Y-99936564D01*
X178063436Y-99835302D01*
X177944364Y-99755741D01*
X177812058Y-99700938D01*
X177671603Y-99673000D01*
X177528397Y-99673000D01*
X177387942Y-99700938D01*
X177255636Y-99755741D01*
X177136564Y-99835302D01*
X177035302Y-99936564D01*
X176955741Y-100055636D01*
X176900938Y-100187942D01*
X176873000Y-100328397D01*
X176873000Y-100471603D01*
X176900938Y-100612058D01*
X176955741Y-100744364D01*
X177035302Y-100863436D01*
X177136564Y-100964698D01*
X177255636Y-101044259D01*
X177387942Y-101099062D01*
X177528397Y-101127000D01*
X177671603Y-101127000D01*
X177685092Y-101124317D01*
X177864685Y-101303910D01*
X177878841Y-101321159D01*
X177947667Y-101377643D01*
X178022536Y-101417661D01*
X178026190Y-101419614D01*
X178111392Y-101445460D01*
X178199999Y-101454187D01*
X178222204Y-101452000D01*
X181127661Y-101452000D01*
X181135302Y-101463436D01*
X181236564Y-101564698D01*
X181355636Y-101644259D01*
X181487942Y-101699062D01*
X181628397Y-101727000D01*
X181771603Y-101727000D01*
X181912058Y-101699062D01*
X182044364Y-101644259D01*
X182163436Y-101564698D01*
X182264698Y-101463436D01*
X182344259Y-101344364D01*
X182399062Y-101212058D01*
X182427000Y-101071603D01*
X182427000Y-100928397D01*
X182399062Y-100787942D01*
X182344259Y-100655636D01*
X182264698Y-100536564D01*
X182163436Y-100435302D01*
X182044364Y-100355741D01*
X181912058Y-100300938D01*
X181771603Y-100273000D01*
X181628397Y-100273000D01*
X181614908Y-100275683D01*
X174986223Y-93647000D01*
X204318000Y-93647000D01*
X204318001Y-115143000D01*
X187786245Y-115143000D01*
X187799062Y-115112058D01*
X187827000Y-114971603D01*
X187827000Y-114828397D01*
X187799062Y-114687942D01*
X187744259Y-114555636D01*
X187664698Y-114436564D01*
X187563436Y-114335302D01*
X187444364Y-114255741D01*
X187312058Y-114200938D01*
X187171603Y-114173000D01*
X187028397Y-114173000D01*
X186887942Y-114200938D01*
X186755636Y-114255741D01*
X186636564Y-114335302D01*
X186535302Y-114436564D01*
X186527661Y-114448000D01*
X178972339Y-114448000D01*
X178964698Y-114436564D01*
X178863436Y-114335302D01*
X178744364Y-114255741D01*
X178612058Y-114200938D01*
X178471603Y-114173000D01*
X178328397Y-114173000D01*
X178187942Y-114200938D01*
X178055636Y-114255741D01*
X177936564Y-114335302D01*
X177835302Y-114436564D01*
X177755741Y-114555636D01*
X177700938Y-114687942D01*
X177673000Y-114828397D01*
X177673000Y-114971603D01*
X177700938Y-115112058D01*
X177713755Y-115143000D01*
X175886245Y-115143000D01*
X175899062Y-115112058D01*
X175927000Y-114971603D01*
X175927000Y-114828397D01*
X175899062Y-114687942D01*
X175844259Y-114555636D01*
X175764698Y-114436564D01*
X175663436Y-114335302D01*
X175544364Y-114255741D01*
X175412058Y-114200938D01*
X175271603Y-114173000D01*
X175128397Y-114173000D01*
X174987942Y-114200938D01*
X174855636Y-114255741D01*
X174736564Y-114335302D01*
X174635302Y-114436564D01*
X174627661Y-114448000D01*
X167272339Y-114448000D01*
X167264698Y-114436564D01*
X167163436Y-114335302D01*
X167044364Y-114255741D01*
X166912058Y-114200938D01*
X166771603Y-114173000D01*
X166628397Y-114173000D01*
X166487942Y-114200938D01*
X166355636Y-114255741D01*
X166236564Y-114335302D01*
X166135302Y-114436564D01*
X166055741Y-114555636D01*
X166000938Y-114687942D01*
X165973000Y-114828397D01*
X165973000Y-114971603D01*
X166000938Y-115112058D01*
X166013755Y-115143000D01*
X163586245Y-115143000D01*
X163599062Y-115112058D01*
X163627000Y-114971603D01*
X163627000Y-114828397D01*
X163599062Y-114687942D01*
X163544259Y-114555636D01*
X163464698Y-114436564D01*
X163363436Y-114335302D01*
X163244364Y-114255741D01*
X163112058Y-114200938D01*
X162971603Y-114173000D01*
X162828397Y-114173000D01*
X162687942Y-114200938D01*
X162555636Y-114255741D01*
X162436564Y-114335302D01*
X162335302Y-114436564D01*
X162255741Y-114555636D01*
X162200938Y-114687942D01*
X162173000Y-114828397D01*
X162173000Y-114971603D01*
X162175683Y-114985093D01*
X162017776Y-115143000D01*
X153422379Y-115143000D01*
X153537182Y-114865839D01*
X153617000Y-114464567D01*
X153617000Y-114055433D01*
X153537182Y-113654161D01*
X153380614Y-113276171D01*
X153153311Y-112935989D01*
X152864011Y-112646689D01*
X152523829Y-112419386D01*
X152145839Y-112262818D01*
X151744567Y-112183000D01*
X151335433Y-112183000D01*
X150934161Y-112262818D01*
X150556171Y-112419386D01*
X150215989Y-112646689D01*
X149926689Y-112935989D01*
X149699386Y-113276171D01*
X149542818Y-113654161D01*
X149463000Y-114055433D01*
X149463000Y-114464567D01*
X149542818Y-114865839D01*
X149657621Y-115143000D01*
X132982224Y-115143000D01*
X132824317Y-114985093D01*
X132827000Y-114971603D01*
X132827000Y-114828397D01*
X132799062Y-114687942D01*
X132744259Y-114555636D01*
X132664698Y-114436564D01*
X132563436Y-114335302D01*
X132444364Y-114255741D01*
X132312058Y-114200938D01*
X132171603Y-114173000D01*
X132028397Y-114173000D01*
X131887942Y-114200938D01*
X131755636Y-114255741D01*
X131636564Y-114335302D01*
X131535302Y-114436564D01*
X131455741Y-114555636D01*
X131400938Y-114687942D01*
X131373000Y-114828397D01*
X131373000Y-114971603D01*
X131400938Y-115112058D01*
X131413755Y-115143000D01*
X129586245Y-115143000D01*
X129599062Y-115112058D01*
X129627000Y-114971603D01*
X129627000Y-114828397D01*
X129599062Y-114687942D01*
X129544259Y-114555636D01*
X129464698Y-114436564D01*
X129363436Y-114335302D01*
X129244364Y-114255741D01*
X129112058Y-114200938D01*
X128971603Y-114173000D01*
X128828397Y-114173000D01*
X128687942Y-114200938D01*
X128555636Y-114255741D01*
X128436564Y-114335302D01*
X128335302Y-114436564D01*
X128327661Y-114448000D01*
X121072339Y-114448000D01*
X121064698Y-114436564D01*
X120963436Y-114335302D01*
X120844364Y-114255741D01*
X120712058Y-114200938D01*
X120571603Y-114173000D01*
X120428397Y-114173000D01*
X120287942Y-114200938D01*
X120155636Y-114255741D01*
X120036564Y-114335302D01*
X119935302Y-114436564D01*
X119855741Y-114555636D01*
X119800938Y-114687942D01*
X119773000Y-114828397D01*
X119773000Y-114971603D01*
X119800938Y-115112058D01*
X119813755Y-115143000D01*
X117686245Y-115143000D01*
X117699062Y-115112058D01*
X117727000Y-114971603D01*
X117727000Y-114828397D01*
X117699062Y-114687942D01*
X117644259Y-114555636D01*
X117564698Y-114436564D01*
X117463436Y-114335302D01*
X117344364Y-114255741D01*
X117212058Y-114200938D01*
X117071603Y-114173000D01*
X116928397Y-114173000D01*
X116787942Y-114200938D01*
X116655636Y-114255741D01*
X116536564Y-114335302D01*
X116435302Y-114436564D01*
X116427661Y-114448000D01*
X98872339Y-114448000D01*
X98864698Y-114436564D01*
X98763436Y-114335302D01*
X98644364Y-114255741D01*
X98512058Y-114200938D01*
X98371603Y-114173000D01*
X98228397Y-114173000D01*
X98087942Y-114200938D01*
X97955636Y-114255741D01*
X97836564Y-114335302D01*
X97735302Y-114436564D01*
X97655741Y-114555636D01*
X97600938Y-114687942D01*
X97573000Y-114828397D01*
X97573000Y-114971603D01*
X97600938Y-115112058D01*
X97613755Y-115143000D01*
X94986245Y-115143000D01*
X94999062Y-115112058D01*
X95027000Y-114971603D01*
X95027000Y-114828397D01*
X94999062Y-114687942D01*
X94944259Y-114555636D01*
X94864698Y-114436564D01*
X94763436Y-114335302D01*
X94752000Y-114327661D01*
X94752000Y-107772339D01*
X94763436Y-107764698D01*
X94864698Y-107663436D01*
X94944259Y-107544364D01*
X94999062Y-107412058D01*
X95027000Y-107271603D01*
X95027000Y-107128397D01*
X94999062Y-106987942D01*
X94944259Y-106855636D01*
X94864698Y-106736564D01*
X94763436Y-106635302D01*
X94644364Y-106555741D01*
X94512058Y-106500938D01*
X94371603Y-106473000D01*
X94228397Y-106473000D01*
X94087942Y-106500938D01*
X93955636Y-106555741D01*
X93836564Y-106635302D01*
X93735302Y-106736564D01*
X93655741Y-106855636D01*
X93600938Y-106987942D01*
X93573000Y-107128397D01*
X93573000Y-107271603D01*
X93600938Y-107412058D01*
X93655741Y-107544364D01*
X93735302Y-107663436D01*
X93836564Y-107764698D01*
X93848000Y-107772339D01*
X93848001Y-114327660D01*
X93836564Y-114335302D01*
X93735302Y-114436564D01*
X93727661Y-114448000D01*
X86972339Y-114448000D01*
X86964698Y-114436564D01*
X86863436Y-114335302D01*
X86744364Y-114255741D01*
X86612058Y-114200938D01*
X86471603Y-114173000D01*
X86328397Y-114173000D01*
X86187942Y-114200938D01*
X86055636Y-114255741D01*
X85936564Y-114335302D01*
X85835302Y-114436564D01*
X85755741Y-114555636D01*
X85700938Y-114687942D01*
X85673000Y-114828397D01*
X85673000Y-114971603D01*
X85700938Y-115112058D01*
X85713755Y-115143000D01*
X77452000Y-115143000D01*
X77452000Y-103304749D01*
X80392752Y-103304749D01*
X81063129Y-103809203D01*
X82003194Y-104275430D01*
X83016151Y-104549301D01*
X84063074Y-104620291D01*
X85103731Y-104485673D01*
X86098129Y-104150619D01*
X86736871Y-103809203D01*
X87407248Y-103304749D01*
X86659487Y-102556988D01*
X86726262Y-102553052D01*
X86710749Y-102537540D01*
X86695236Y-102553052D01*
X86659404Y-102556905D01*
X86130088Y-102027589D01*
X86234398Y-102027589D01*
X86238446Y-102096262D01*
X86253958Y-102080749D01*
X87167540Y-102080749D01*
X87183052Y-102096262D01*
X87187100Y-102133909D01*
X87183052Y-102065236D01*
X87167540Y-102080749D01*
X86253958Y-102080749D01*
X86238446Y-102065236D01*
X86234398Y-102027589D01*
X86130088Y-102027589D01*
X83900000Y-99797502D01*
X81565490Y-102132011D01*
X81561554Y-102065236D01*
X81546042Y-102080749D01*
X81561554Y-102096262D01*
X81565407Y-102132094D01*
X80392752Y-103304749D01*
X77452000Y-103304749D01*
X77452000Y-99433074D01*
X78549709Y-99433074D01*
X78684327Y-100473731D01*
X79019381Y-101468129D01*
X79360797Y-102106871D01*
X79865251Y-102777248D01*
X80085399Y-102557100D01*
X81036091Y-102557100D01*
X81104764Y-102553052D01*
X81089251Y-102537540D01*
X81073738Y-102553052D01*
X81036091Y-102557100D01*
X80085399Y-102557100D01*
X80613012Y-102029487D01*
X80616948Y-102096262D01*
X80632460Y-102080749D01*
X80616948Y-102065236D01*
X80613095Y-102029404D01*
X81034052Y-101608446D01*
X81073738Y-101608446D01*
X81089251Y-101623958D01*
X81104764Y-101608446D01*
X81142411Y-101604398D01*
X81073738Y-101608446D01*
X81034052Y-101608446D01*
X83372498Y-99270000D01*
X84427502Y-99270000D01*
X86762011Y-101604510D01*
X86695236Y-101608446D01*
X86710749Y-101623958D01*
X86726262Y-101608446D01*
X86762094Y-101604593D01*
X87934749Y-102777248D01*
X88439203Y-102106871D01*
X88577312Y-101828397D01*
X93773000Y-101828397D01*
X93773000Y-101971603D01*
X93800938Y-102112058D01*
X93855741Y-102244364D01*
X93935302Y-102363436D01*
X94036564Y-102464698D01*
X94155636Y-102544259D01*
X94287942Y-102599062D01*
X94428397Y-102627000D01*
X94571603Y-102627000D01*
X94712058Y-102599062D01*
X94844364Y-102544259D01*
X94963436Y-102464698D01*
X95064698Y-102363436D01*
X95139157Y-102252000D01*
X96927661Y-102252000D01*
X96935302Y-102263436D01*
X97036564Y-102364698D01*
X97155636Y-102444259D01*
X97287942Y-102499062D01*
X97428397Y-102527000D01*
X97571603Y-102527000D01*
X97712058Y-102499062D01*
X97844364Y-102444259D01*
X97963436Y-102364698D01*
X98050000Y-102278134D01*
X98136564Y-102364698D01*
X98148001Y-102372340D01*
X98148000Y-106627661D01*
X98136564Y-106635302D01*
X98035302Y-106736564D01*
X97955741Y-106855636D01*
X97900938Y-106987942D01*
X97873000Y-107128397D01*
X97873000Y-107271603D01*
X97900938Y-107412058D01*
X97955741Y-107544364D01*
X98035302Y-107663436D01*
X98136564Y-107764698D01*
X98255636Y-107844259D01*
X98387942Y-107899062D01*
X98528397Y-107927000D01*
X98671603Y-107927000D01*
X98812058Y-107899062D01*
X98944364Y-107844259D01*
X99063436Y-107764698D01*
X99164698Y-107663436D01*
X99244259Y-107544364D01*
X99299062Y-107412058D01*
X99327000Y-107271603D01*
X99327000Y-107128397D01*
X99299062Y-106987942D01*
X99244259Y-106855636D01*
X99164698Y-106736564D01*
X99063436Y-106635302D01*
X99052000Y-106627661D01*
X99052000Y-102372339D01*
X99063436Y-102364698D01*
X99164698Y-102263436D01*
X99244259Y-102144364D01*
X99299062Y-102012058D01*
X99327000Y-101871603D01*
X99327000Y-101728397D01*
X99299062Y-101587942D01*
X99244259Y-101455636D01*
X99164698Y-101336564D01*
X99063436Y-101235302D01*
X98944364Y-101155741D01*
X98812058Y-101100938D01*
X98671603Y-101073000D01*
X98528397Y-101073000D01*
X98387942Y-101100938D01*
X98255636Y-101155741D01*
X98136564Y-101235302D01*
X98050000Y-101321866D01*
X97963436Y-101235302D01*
X97844364Y-101155741D01*
X97712058Y-101100938D01*
X97571603Y-101073000D01*
X97428397Y-101073000D01*
X97287942Y-101100938D01*
X97155636Y-101155741D01*
X97036564Y-101235302D01*
X96935302Y-101336564D01*
X96927661Y-101348000D01*
X94976134Y-101348000D01*
X94963436Y-101335302D01*
X94844364Y-101255741D01*
X94712058Y-101200938D01*
X94571603Y-101173000D01*
X94428397Y-101173000D01*
X94287942Y-101200938D01*
X94155636Y-101255741D01*
X94036564Y-101335302D01*
X93935302Y-101436564D01*
X93855741Y-101555636D01*
X93800938Y-101687942D01*
X93773000Y-101828397D01*
X88577312Y-101828397D01*
X88905430Y-101166806D01*
X89179301Y-100153849D01*
X89250291Y-99106926D01*
X89115673Y-98066269D01*
X88780619Y-97071871D01*
X88439203Y-96433129D01*
X87934749Y-95762752D01*
X87186988Y-96510513D01*
X87183052Y-96443738D01*
X87167540Y-96459251D01*
X87183052Y-96474764D01*
X87186905Y-96510596D01*
X84427502Y-99270000D01*
X83372498Y-99270000D01*
X81037989Y-96935490D01*
X81104764Y-96931554D01*
X81089251Y-96916042D01*
X81073738Y-96931554D01*
X81037906Y-96935407D01*
X80508590Y-96406091D01*
X80612900Y-96406091D01*
X80616948Y-96474764D01*
X80632460Y-96459251D01*
X81546042Y-96459251D01*
X81561554Y-96474764D01*
X81565602Y-96512411D01*
X81561554Y-96443738D01*
X81546042Y-96459251D01*
X80632460Y-96459251D01*
X80616948Y-96443738D01*
X80612900Y-96406091D01*
X80508590Y-96406091D01*
X79865251Y-95762752D01*
X79360797Y-96433129D01*
X78894570Y-97373194D01*
X78620699Y-98386151D01*
X78549709Y-99433074D01*
X77452000Y-99433074D01*
X77452000Y-95235251D01*
X80392752Y-95235251D01*
X81140513Y-95983012D01*
X81073738Y-95986948D01*
X81089251Y-96002460D01*
X81104764Y-95986948D01*
X81140596Y-95983095D01*
X83900000Y-98742498D01*
X85706896Y-96935602D01*
X86657589Y-96935602D01*
X86726262Y-96931554D01*
X86710749Y-96916042D01*
X86695236Y-96931554D01*
X86657589Y-96935602D01*
X85706896Y-96935602D01*
X86234510Y-96407989D01*
X86238446Y-96474764D01*
X86253958Y-96459251D01*
X86238446Y-96443738D01*
X86234593Y-96407906D01*
X86655551Y-95986948D01*
X86695236Y-95986948D01*
X86710749Y-96002460D01*
X86726262Y-95986948D01*
X86763909Y-95982900D01*
X86695236Y-95986948D01*
X86655551Y-95986948D01*
X87407248Y-95235251D01*
X86736871Y-94730797D01*
X85796806Y-94264570D01*
X84783849Y-93990699D01*
X83736926Y-93919709D01*
X82696269Y-94054327D01*
X81701871Y-94389381D01*
X81063129Y-94730797D01*
X80392752Y-95235251D01*
X77452000Y-95235251D01*
X77452000Y-93647000D01*
X90948001Y-93647000D01*
X90948001Y-95177785D01*
%TA.AperFunction,Conductor*%
D26*
G36*
X90948001Y-95177785D02*
G01*
X90945813Y-95200000D01*
X90954540Y-95288607D01*
X90980386Y-95373809D01*
X90980387Y-95373810D01*
X91022358Y-95452333D01*
X91078842Y-95521159D01*
X91096096Y-95535319D01*
X94278437Y-98717661D01*
X94240031Y-98844268D01*
X94223000Y-99017188D01*
X94223000Y-99382811D01*
X94240031Y-99555731D01*
X94307333Y-99777596D01*
X94416626Y-99982069D01*
X94563709Y-100161291D01*
X94742930Y-100308374D01*
X94947403Y-100417667D01*
X95169268Y-100484969D01*
X95400000Y-100507694D01*
X95630731Y-100484969D01*
X95852596Y-100417667D01*
X96057069Y-100308374D01*
X96236291Y-100161291D01*
X96383374Y-99982070D01*
X96492667Y-99777597D01*
X96559969Y-99555732D01*
X96577000Y-99382812D01*
X96577000Y-99017189D01*
X96559969Y-98844269D01*
X96512652Y-98688286D01*
X96733630Y-98909264D01*
X96723000Y-99017188D01*
X96723000Y-99382811D01*
X96740031Y-99555731D01*
X96807333Y-99777596D01*
X96916626Y-99982069D01*
X97063709Y-100161291D01*
X97242930Y-100308374D01*
X97447403Y-100417667D01*
X97669268Y-100484969D01*
X97900000Y-100507694D01*
X98130731Y-100484969D01*
X98352596Y-100417667D01*
X98434608Y-100373831D01*
X106533775Y-108473000D01*
X104212225Y-108473000D01*
X102724317Y-106985093D01*
X102727000Y-106971603D01*
X102727000Y-106828397D01*
X102699062Y-106687942D01*
X102644259Y-106555636D01*
X102564698Y-106436564D01*
X102463436Y-106335302D01*
X102344364Y-106255741D01*
X102212058Y-106200938D01*
X102071603Y-106173000D01*
X101928397Y-106173000D01*
X101787942Y-106200938D01*
X101655636Y-106255741D01*
X101536564Y-106335302D01*
X101435302Y-106436564D01*
X101355741Y-106555636D01*
X101300938Y-106687942D01*
X101273000Y-106828397D01*
X101273000Y-106971603D01*
X101300938Y-107112058D01*
X101355741Y-107244364D01*
X101435302Y-107363436D01*
X101536564Y-107464698D01*
X101655636Y-107544259D01*
X101787942Y-107599062D01*
X101928397Y-107627000D01*
X102071603Y-107627000D01*
X102085093Y-107624317D01*
X103689686Y-109228911D01*
X103703841Y-109246159D01*
X103772667Y-109302643D01*
X103851190Y-109344614D01*
X103936393Y-109370460D01*
X104002795Y-109377000D01*
X104002796Y-109377000D01*
X104024999Y-109379187D01*
X104047202Y-109377000D01*
X119627661Y-109377000D01*
X119635302Y-109388436D01*
X119736564Y-109489698D01*
X119855636Y-109569259D01*
X119987942Y-109624062D01*
X120128397Y-109652000D01*
X120271603Y-109652000D01*
X120412058Y-109624062D01*
X120544364Y-109569259D01*
X120663436Y-109489698D01*
X120764698Y-109388436D01*
X120844259Y-109269364D01*
X120899062Y-109137058D01*
X120927000Y-108996603D01*
X120927000Y-108853397D01*
X120899062Y-108712942D01*
X120873819Y-108652000D01*
X136227661Y-108652000D01*
X136235302Y-108663436D01*
X136336564Y-108764698D01*
X136455636Y-108844259D01*
X136587942Y-108899062D01*
X136728397Y-108927000D01*
X136871603Y-108927000D01*
X137012058Y-108899062D01*
X137144364Y-108844259D01*
X137263436Y-108764698D01*
X137364698Y-108663436D01*
X137444259Y-108544364D01*
X137499062Y-108412058D01*
X137527000Y-108271603D01*
X137527000Y-108128397D01*
X137499062Y-107987942D01*
X137445697Y-107859107D01*
X140184904Y-107859107D01*
X140207109Y-107861294D01*
X140229314Y-107859107D01*
X140295716Y-107852567D01*
X140380919Y-107826721D01*
X140459442Y-107784750D01*
X140523950Y-107731810D01*
X140535505Y-107734108D01*
X140678711Y-107734108D01*
X140819166Y-107706170D01*
X140951472Y-107651367D01*
X141070544Y-107571806D01*
X141171806Y-107470544D01*
X141251367Y-107351472D01*
X141306170Y-107219166D01*
X141334108Y-107078711D01*
X141334108Y-106935505D01*
X141306170Y-106795050D01*
X141251367Y-106662744D01*
X141177371Y-106552000D01*
X157527661Y-106552000D01*
X157535302Y-106563436D01*
X157636564Y-106664698D01*
X157755636Y-106744259D01*
X157887942Y-106799062D01*
X158028397Y-106827000D01*
X158171603Y-106827000D01*
X158312058Y-106799062D01*
X158444364Y-106744259D01*
X158563436Y-106664698D01*
X158664698Y-106563436D01*
X158744259Y-106444364D01*
X158799062Y-106312058D01*
X158827000Y-106171603D01*
X158827000Y-106028397D01*
X158799062Y-105887942D01*
X158761397Y-105797011D01*
X173932783Y-105797011D01*
X173954988Y-105799198D01*
X173977193Y-105797011D01*
X174043595Y-105790471D01*
X174128798Y-105764625D01*
X174207321Y-105722654D01*
X174276147Y-105666170D01*
X174290311Y-105648911D01*
X174310825Y-105628397D01*
X188273000Y-105628397D01*
X188273000Y-105771603D01*
X188300938Y-105912058D01*
X188355741Y-106044364D01*
X188435302Y-106163436D01*
X188536564Y-106264698D01*
X188548001Y-106272340D01*
X188548000Y-110627661D01*
X188536564Y-110635302D01*
X188435302Y-110736564D01*
X188355741Y-110855636D01*
X188300938Y-110987942D01*
X188273000Y-111128397D01*
X188273000Y-111271603D01*
X188300938Y-111412058D01*
X188355741Y-111544364D01*
X188435302Y-111663436D01*
X188536564Y-111764698D01*
X188655636Y-111844259D01*
X188787942Y-111899062D01*
X188928397Y-111927000D01*
X189071603Y-111927000D01*
X189212058Y-111899062D01*
X189344364Y-111844259D01*
X189463436Y-111764698D01*
X189564698Y-111663436D01*
X189644259Y-111544364D01*
X189699062Y-111412058D01*
X189727000Y-111271603D01*
X189727000Y-111128397D01*
X189699062Y-110987942D01*
X189644259Y-110855636D01*
X189564698Y-110736564D01*
X189463436Y-110635302D01*
X189452000Y-110627661D01*
X189452000Y-106272339D01*
X189463436Y-106264698D01*
X189564698Y-106163436D01*
X189644259Y-106044364D01*
X189699062Y-105912058D01*
X189727000Y-105771603D01*
X189727000Y-105628397D01*
X189699062Y-105487942D01*
X189644259Y-105355636D01*
X189564698Y-105236564D01*
X189463436Y-105135302D01*
X189344364Y-105055741D01*
X189212058Y-105000938D01*
X189071603Y-104973000D01*
X188928397Y-104973000D01*
X188787942Y-105000938D01*
X188655636Y-105055741D01*
X188536564Y-105135302D01*
X188435302Y-105236564D01*
X188355741Y-105355636D01*
X188300938Y-105487942D01*
X188273000Y-105628397D01*
X174310825Y-105628397D01*
X177114908Y-102824317D01*
X177128397Y-102827000D01*
X177271603Y-102827000D01*
X177412058Y-102799062D01*
X177544364Y-102744259D01*
X177663436Y-102664698D01*
X177764698Y-102563436D01*
X177844259Y-102444364D01*
X177899062Y-102312058D01*
X177927000Y-102171603D01*
X177927000Y-102028397D01*
X177899062Y-101887942D01*
X177844259Y-101755636D01*
X177764698Y-101636564D01*
X177663436Y-101535302D01*
X177544364Y-101455741D01*
X177412058Y-101400938D01*
X177271603Y-101373000D01*
X177128397Y-101373000D01*
X176987942Y-101400938D01*
X176855636Y-101455741D01*
X176736564Y-101535302D01*
X176635302Y-101636564D01*
X176555741Y-101755636D01*
X176500938Y-101887942D01*
X176473000Y-102028397D01*
X176473000Y-102171603D01*
X176475683Y-102185092D01*
X173767764Y-104893011D01*
X134749111Y-104893011D01*
X134750203Y-104892115D01*
X134764367Y-104874856D01*
X136404474Y-103234749D01*
X167992752Y-103234749D01*
X168663129Y-103739203D01*
X169603194Y-104205430D01*
X170616151Y-104479301D01*
X171663074Y-104550291D01*
X172703731Y-104415673D01*
X173698129Y-104080619D01*
X174336871Y-103739203D01*
X175007248Y-103234749D01*
X174259487Y-102486988D01*
X174326262Y-102483052D01*
X174310749Y-102467540D01*
X174295236Y-102483052D01*
X174259404Y-102486905D01*
X173730088Y-101957589D01*
X173834398Y-101957589D01*
X173838446Y-102026262D01*
X173853958Y-102010749D01*
X174767540Y-102010749D01*
X174783052Y-102026262D01*
X174787100Y-102063909D01*
X174783052Y-101995236D01*
X174767540Y-102010749D01*
X173853958Y-102010749D01*
X173838446Y-101995236D01*
X173834398Y-101957589D01*
X173730088Y-101957589D01*
X171500000Y-99727502D01*
X169165490Y-102062011D01*
X169161554Y-101995236D01*
X169146042Y-102010749D01*
X169161554Y-102026262D01*
X169165407Y-102062094D01*
X167992752Y-103234749D01*
X136404474Y-103234749D01*
X138110642Y-101528582D01*
X138248001Y-101528582D01*
X138248001Y-101577785D01*
X138245813Y-101600000D01*
X138254540Y-101688607D01*
X138280386Y-101773809D01*
X138300475Y-101811393D01*
X138322358Y-101852333D01*
X138378842Y-101921159D01*
X138396096Y-101935319D01*
X139389686Y-102928911D01*
X139403842Y-102946160D01*
X139472668Y-103002644D01*
X139551191Y-103044615D01*
X139616563Y-103064445D01*
X139636393Y-103070461D01*
X139725000Y-103079188D01*
X139747205Y-103077001D01*
X160964509Y-103077001D01*
X160986714Y-103079188D01*
X161008919Y-103077001D01*
X161075321Y-103070461D01*
X161160524Y-103044615D01*
X161239047Y-103002644D01*
X161307873Y-102946160D01*
X161322037Y-102928901D01*
X164178921Y-100072019D01*
X164196169Y-100057864D01*
X164252653Y-99989038D01*
X164294624Y-99910515D01*
X164320463Y-99825335D01*
X164320470Y-99825313D01*
X164329197Y-99736706D01*
X164327010Y-99714501D01*
X164327010Y-99363074D01*
X166149709Y-99363074D01*
X166284327Y-100403731D01*
X166619381Y-101398129D01*
X166960797Y-102036871D01*
X167465251Y-102707248D01*
X167685399Y-102487100D01*
X168636091Y-102487100D01*
X168704764Y-102483052D01*
X168689251Y-102467540D01*
X168673738Y-102483052D01*
X168636091Y-102487100D01*
X167685399Y-102487100D01*
X168213012Y-101959487D01*
X168216948Y-102026262D01*
X168232460Y-102010749D01*
X168216948Y-101995236D01*
X168213095Y-101959404D01*
X168634052Y-101538446D01*
X168673738Y-101538446D01*
X168689251Y-101553958D01*
X168704764Y-101538446D01*
X168742411Y-101534398D01*
X168673738Y-101538446D01*
X168634052Y-101538446D01*
X170972498Y-99200000D01*
X172027502Y-99200000D01*
X174362011Y-101534510D01*
X174295236Y-101538446D01*
X174310749Y-101553958D01*
X174326262Y-101538446D01*
X174362094Y-101534593D01*
X175534749Y-102707248D01*
X176039203Y-102036871D01*
X176505430Y-101096806D01*
X176779301Y-100083849D01*
X176850291Y-99036926D01*
X176715673Y-97996269D01*
X176380619Y-97001871D01*
X176039203Y-96363129D01*
X175534749Y-95692752D01*
X174786988Y-96440513D01*
X174783052Y-96373738D01*
X174767540Y-96389251D01*
X174783052Y-96404764D01*
X174786905Y-96440596D01*
X172027502Y-99200000D01*
X170972498Y-99200000D01*
X168637989Y-96865490D01*
X168704764Y-96861554D01*
X168689251Y-96846042D01*
X168673738Y-96861554D01*
X168637906Y-96865407D01*
X168108590Y-96336091D01*
X168212900Y-96336091D01*
X168216948Y-96404764D01*
X168232460Y-96389251D01*
X169146042Y-96389251D01*
X169161554Y-96404764D01*
X169165602Y-96442411D01*
X169161554Y-96373738D01*
X169146042Y-96389251D01*
X168232460Y-96389251D01*
X168216948Y-96373738D01*
X168212900Y-96336091D01*
X168108590Y-96336091D01*
X167465251Y-95692752D01*
X166960797Y-96363129D01*
X166494570Y-97303194D01*
X166220699Y-98316151D01*
X166149709Y-99363074D01*
X164327010Y-99363074D01*
X164327010Y-98687211D01*
X168987224Y-94026999D01*
X170169624Y-94026999D01*
X169301871Y-94319381D01*
X168663129Y-94660797D01*
X167992752Y-95165251D01*
X168740513Y-95913012D01*
X168673738Y-95916948D01*
X168689251Y-95932460D01*
X168704764Y-95916948D01*
X168740596Y-95913095D01*
X171500000Y-98672498D01*
X173306896Y-96865602D01*
X174257589Y-96865602D01*
X174326262Y-96861554D01*
X174310749Y-96846042D01*
X174295236Y-96861554D01*
X174257589Y-96865602D01*
X173306896Y-96865602D01*
X173834510Y-96337989D01*
X173838446Y-96404764D01*
X173853958Y-96389251D01*
X173838446Y-96373738D01*
X173834593Y-96337906D01*
X174255551Y-95916948D01*
X174295236Y-95916948D01*
X174310749Y-95932460D01*
X174326262Y-95916948D01*
X174363909Y-95912900D01*
X174295236Y-95916948D01*
X174255551Y-95916948D01*
X175007248Y-95165251D01*
X174336871Y-94660797D01*
X173396806Y-94194570D01*
X172777017Y-94026999D01*
X174087776Y-94026999D01*
X180608775Y-100548000D01*
X178387225Y-100548000D01*
X178324317Y-100485092D01*
X178327000Y-100471603D01*
X178327000Y-100328397D01*
X178299062Y-100187942D01*
X178244259Y-100055636D01*
X178164698Y-99936564D01*
X178063436Y-99835302D01*
X177944364Y-99755741D01*
X177812058Y-99700938D01*
X177671603Y-99673000D01*
X177528397Y-99673000D01*
X177387942Y-99700938D01*
X177255636Y-99755741D01*
X177136564Y-99835302D01*
X177035302Y-99936564D01*
X176955741Y-100055636D01*
X176900938Y-100187942D01*
X176873000Y-100328397D01*
X176873000Y-100471603D01*
X176900938Y-100612058D01*
X176955741Y-100744364D01*
X177035302Y-100863436D01*
X177136564Y-100964698D01*
X177255636Y-101044259D01*
X177387942Y-101099062D01*
X177528397Y-101127000D01*
X177671603Y-101127000D01*
X177685092Y-101124317D01*
X177864685Y-101303910D01*
X177878841Y-101321159D01*
X177947667Y-101377643D01*
X178022536Y-101417661D01*
X178026190Y-101419614D01*
X178111392Y-101445460D01*
X178199999Y-101454187D01*
X178222204Y-101452000D01*
X181127661Y-101452000D01*
X181135302Y-101463436D01*
X181236564Y-101564698D01*
X181355636Y-101644259D01*
X181487942Y-101699062D01*
X181628397Y-101727000D01*
X181771603Y-101727000D01*
X181912058Y-101699062D01*
X182044364Y-101644259D01*
X182163436Y-101564698D01*
X182264698Y-101463436D01*
X182344259Y-101344364D01*
X182399062Y-101212058D01*
X182427000Y-101071603D01*
X182427000Y-100928397D01*
X182399062Y-100787942D01*
X182344259Y-100655636D01*
X182264698Y-100536564D01*
X182163436Y-100435302D01*
X182044364Y-100355741D01*
X181912058Y-100300938D01*
X181771603Y-100273000D01*
X181628397Y-100273000D01*
X181614908Y-100275683D01*
X174986223Y-93647000D01*
X204318000Y-93647000D01*
X204318001Y-115143000D01*
X187786245Y-115143000D01*
X187799062Y-115112058D01*
X187827000Y-114971603D01*
X187827000Y-114828397D01*
X187799062Y-114687942D01*
X187744259Y-114555636D01*
X187664698Y-114436564D01*
X187563436Y-114335302D01*
X187444364Y-114255741D01*
X187312058Y-114200938D01*
X187171603Y-114173000D01*
X187028397Y-114173000D01*
X186887942Y-114200938D01*
X186755636Y-114255741D01*
X186636564Y-114335302D01*
X186535302Y-114436564D01*
X186527661Y-114448000D01*
X178972339Y-114448000D01*
X178964698Y-114436564D01*
X178863436Y-114335302D01*
X178744364Y-114255741D01*
X178612058Y-114200938D01*
X178471603Y-114173000D01*
X178328397Y-114173000D01*
X178187942Y-114200938D01*
X178055636Y-114255741D01*
X177936564Y-114335302D01*
X177835302Y-114436564D01*
X177755741Y-114555636D01*
X177700938Y-114687942D01*
X177673000Y-114828397D01*
X177673000Y-114971603D01*
X177700938Y-115112058D01*
X177713755Y-115143000D01*
X175886245Y-115143000D01*
X175899062Y-115112058D01*
X175927000Y-114971603D01*
X175927000Y-114828397D01*
X175899062Y-114687942D01*
X175844259Y-114555636D01*
X175764698Y-114436564D01*
X175663436Y-114335302D01*
X175544364Y-114255741D01*
X175412058Y-114200938D01*
X175271603Y-114173000D01*
X175128397Y-114173000D01*
X174987942Y-114200938D01*
X174855636Y-114255741D01*
X174736564Y-114335302D01*
X174635302Y-114436564D01*
X174627661Y-114448000D01*
X167272339Y-114448000D01*
X167264698Y-114436564D01*
X167163436Y-114335302D01*
X167044364Y-114255741D01*
X166912058Y-114200938D01*
X166771603Y-114173000D01*
X166628397Y-114173000D01*
X166487942Y-114200938D01*
X166355636Y-114255741D01*
X166236564Y-114335302D01*
X166135302Y-114436564D01*
X166055741Y-114555636D01*
X166000938Y-114687942D01*
X165973000Y-114828397D01*
X165973000Y-114971603D01*
X166000938Y-115112058D01*
X166013755Y-115143000D01*
X163586245Y-115143000D01*
X163599062Y-115112058D01*
X163627000Y-114971603D01*
X163627000Y-114828397D01*
X163599062Y-114687942D01*
X163544259Y-114555636D01*
X163464698Y-114436564D01*
X163363436Y-114335302D01*
X163244364Y-114255741D01*
X163112058Y-114200938D01*
X162971603Y-114173000D01*
X162828397Y-114173000D01*
X162687942Y-114200938D01*
X162555636Y-114255741D01*
X162436564Y-114335302D01*
X162335302Y-114436564D01*
X162255741Y-114555636D01*
X162200938Y-114687942D01*
X162173000Y-114828397D01*
X162173000Y-114971603D01*
X162175683Y-114985093D01*
X162017776Y-115143000D01*
X153422379Y-115143000D01*
X153537182Y-114865839D01*
X153617000Y-114464567D01*
X153617000Y-114055433D01*
X153537182Y-113654161D01*
X153380614Y-113276171D01*
X153153311Y-112935989D01*
X152864011Y-112646689D01*
X152523829Y-112419386D01*
X152145839Y-112262818D01*
X151744567Y-112183000D01*
X151335433Y-112183000D01*
X150934161Y-112262818D01*
X150556171Y-112419386D01*
X150215989Y-112646689D01*
X149926689Y-112935989D01*
X149699386Y-113276171D01*
X149542818Y-113654161D01*
X149463000Y-114055433D01*
X149463000Y-114464567D01*
X149542818Y-114865839D01*
X149657621Y-115143000D01*
X132982224Y-115143000D01*
X132824317Y-114985093D01*
X132827000Y-114971603D01*
X132827000Y-114828397D01*
X132799062Y-114687942D01*
X132744259Y-114555636D01*
X132664698Y-114436564D01*
X132563436Y-114335302D01*
X132444364Y-114255741D01*
X132312058Y-114200938D01*
X132171603Y-114173000D01*
X132028397Y-114173000D01*
X131887942Y-114200938D01*
X131755636Y-114255741D01*
X131636564Y-114335302D01*
X131535302Y-114436564D01*
X131455741Y-114555636D01*
X131400938Y-114687942D01*
X131373000Y-114828397D01*
X131373000Y-114971603D01*
X131400938Y-115112058D01*
X131413755Y-115143000D01*
X129586245Y-115143000D01*
X129599062Y-115112058D01*
X129627000Y-114971603D01*
X129627000Y-114828397D01*
X129599062Y-114687942D01*
X129544259Y-114555636D01*
X129464698Y-114436564D01*
X129363436Y-114335302D01*
X129244364Y-114255741D01*
X129112058Y-114200938D01*
X128971603Y-114173000D01*
X128828397Y-114173000D01*
X128687942Y-114200938D01*
X128555636Y-114255741D01*
X128436564Y-114335302D01*
X128335302Y-114436564D01*
X128327661Y-114448000D01*
X121072339Y-114448000D01*
X121064698Y-114436564D01*
X120963436Y-114335302D01*
X120844364Y-114255741D01*
X120712058Y-114200938D01*
X120571603Y-114173000D01*
X120428397Y-114173000D01*
X120287942Y-114200938D01*
X120155636Y-114255741D01*
X120036564Y-114335302D01*
X119935302Y-114436564D01*
X119855741Y-114555636D01*
X119800938Y-114687942D01*
X119773000Y-114828397D01*
X119773000Y-114971603D01*
X119800938Y-115112058D01*
X119813755Y-115143000D01*
X117686245Y-115143000D01*
X117699062Y-115112058D01*
X117727000Y-114971603D01*
X117727000Y-114828397D01*
X117699062Y-114687942D01*
X117644259Y-114555636D01*
X117564698Y-114436564D01*
X117463436Y-114335302D01*
X117344364Y-114255741D01*
X117212058Y-114200938D01*
X117071603Y-114173000D01*
X116928397Y-114173000D01*
X116787942Y-114200938D01*
X116655636Y-114255741D01*
X116536564Y-114335302D01*
X116435302Y-114436564D01*
X116427661Y-114448000D01*
X98872339Y-114448000D01*
X98864698Y-114436564D01*
X98763436Y-114335302D01*
X98644364Y-114255741D01*
X98512058Y-114200938D01*
X98371603Y-114173000D01*
X98228397Y-114173000D01*
X98087942Y-114200938D01*
X97955636Y-114255741D01*
X97836564Y-114335302D01*
X97735302Y-114436564D01*
X97655741Y-114555636D01*
X97600938Y-114687942D01*
X97573000Y-114828397D01*
X97573000Y-114971603D01*
X97600938Y-115112058D01*
X97613755Y-115143000D01*
X94986245Y-115143000D01*
X94999062Y-115112058D01*
X95027000Y-114971603D01*
X95027000Y-114828397D01*
X94999062Y-114687942D01*
X94944259Y-114555636D01*
X94864698Y-114436564D01*
X94763436Y-114335302D01*
X94752000Y-114327661D01*
X94752000Y-107772339D01*
X94763436Y-107764698D01*
X94864698Y-107663436D01*
X94944259Y-107544364D01*
X94999062Y-107412058D01*
X95027000Y-107271603D01*
X95027000Y-107128397D01*
X94999062Y-106987942D01*
X94944259Y-106855636D01*
X94864698Y-106736564D01*
X94763436Y-106635302D01*
X94644364Y-106555741D01*
X94512058Y-106500938D01*
X94371603Y-106473000D01*
X94228397Y-106473000D01*
X94087942Y-106500938D01*
X93955636Y-106555741D01*
X93836564Y-106635302D01*
X93735302Y-106736564D01*
X93655741Y-106855636D01*
X93600938Y-106987942D01*
X93573000Y-107128397D01*
X93573000Y-107271603D01*
X93600938Y-107412058D01*
X93655741Y-107544364D01*
X93735302Y-107663436D01*
X93836564Y-107764698D01*
X93848000Y-107772339D01*
X93848001Y-114327660D01*
X93836564Y-114335302D01*
X93735302Y-114436564D01*
X93727661Y-114448000D01*
X86972339Y-114448000D01*
X86964698Y-114436564D01*
X86863436Y-114335302D01*
X86744364Y-114255741D01*
X86612058Y-114200938D01*
X86471603Y-114173000D01*
X86328397Y-114173000D01*
X86187942Y-114200938D01*
X86055636Y-114255741D01*
X85936564Y-114335302D01*
X85835302Y-114436564D01*
X85755741Y-114555636D01*
X85700938Y-114687942D01*
X85673000Y-114828397D01*
X85673000Y-114971603D01*
X85700938Y-115112058D01*
X85713755Y-115143000D01*
X77452000Y-115143000D01*
X77452000Y-103304749D01*
X80392752Y-103304749D01*
X81063129Y-103809203D01*
X82003194Y-104275430D01*
X83016151Y-104549301D01*
X84063074Y-104620291D01*
X85103731Y-104485673D01*
X86098129Y-104150619D01*
X86736871Y-103809203D01*
X87407248Y-103304749D01*
X86659487Y-102556988D01*
X86726262Y-102553052D01*
X86710749Y-102537540D01*
X86695236Y-102553052D01*
X86659404Y-102556905D01*
X86130088Y-102027589D01*
X86234398Y-102027589D01*
X86238446Y-102096262D01*
X86253958Y-102080749D01*
X87167540Y-102080749D01*
X87183052Y-102096262D01*
X87187100Y-102133909D01*
X87183052Y-102065236D01*
X87167540Y-102080749D01*
X86253958Y-102080749D01*
X86238446Y-102065236D01*
X86234398Y-102027589D01*
X86130088Y-102027589D01*
X83900000Y-99797502D01*
X81565490Y-102132011D01*
X81561554Y-102065236D01*
X81546042Y-102080749D01*
X81561554Y-102096262D01*
X81565407Y-102132094D01*
X80392752Y-103304749D01*
X77452000Y-103304749D01*
X77452000Y-99433074D01*
X78549709Y-99433074D01*
X78684327Y-100473731D01*
X79019381Y-101468129D01*
X79360797Y-102106871D01*
X79865251Y-102777248D01*
X80085399Y-102557100D01*
X81036091Y-102557100D01*
X81104764Y-102553052D01*
X81089251Y-102537540D01*
X81073738Y-102553052D01*
X81036091Y-102557100D01*
X80085399Y-102557100D01*
X80613012Y-102029487D01*
X80616948Y-102096262D01*
X80632460Y-102080749D01*
X80616948Y-102065236D01*
X80613095Y-102029404D01*
X81034052Y-101608446D01*
X81073738Y-101608446D01*
X81089251Y-101623958D01*
X81104764Y-101608446D01*
X81142411Y-101604398D01*
X81073738Y-101608446D01*
X81034052Y-101608446D01*
X83372498Y-99270000D01*
X84427502Y-99270000D01*
X86762011Y-101604510D01*
X86695236Y-101608446D01*
X86710749Y-101623958D01*
X86726262Y-101608446D01*
X86762094Y-101604593D01*
X87934749Y-102777248D01*
X88439203Y-102106871D01*
X88577312Y-101828397D01*
X93773000Y-101828397D01*
X93773000Y-101971603D01*
X93800938Y-102112058D01*
X93855741Y-102244364D01*
X93935302Y-102363436D01*
X94036564Y-102464698D01*
X94155636Y-102544259D01*
X94287942Y-102599062D01*
X94428397Y-102627000D01*
X94571603Y-102627000D01*
X94712058Y-102599062D01*
X94844364Y-102544259D01*
X94963436Y-102464698D01*
X95064698Y-102363436D01*
X95139157Y-102252000D01*
X96927661Y-102252000D01*
X96935302Y-102263436D01*
X97036564Y-102364698D01*
X97155636Y-102444259D01*
X97287942Y-102499062D01*
X97428397Y-102527000D01*
X97571603Y-102527000D01*
X97712058Y-102499062D01*
X97844364Y-102444259D01*
X97963436Y-102364698D01*
X98050000Y-102278134D01*
X98136564Y-102364698D01*
X98148001Y-102372340D01*
X98148000Y-106627661D01*
X98136564Y-106635302D01*
X98035302Y-106736564D01*
X97955741Y-106855636D01*
X97900938Y-106987942D01*
X97873000Y-107128397D01*
X97873000Y-107271603D01*
X97900938Y-107412058D01*
X97955741Y-107544364D01*
X98035302Y-107663436D01*
X98136564Y-107764698D01*
X98255636Y-107844259D01*
X98387942Y-107899062D01*
X98528397Y-107927000D01*
X98671603Y-107927000D01*
X98812058Y-107899062D01*
X98944364Y-107844259D01*
X99063436Y-107764698D01*
X99164698Y-107663436D01*
X99244259Y-107544364D01*
X99299062Y-107412058D01*
X99327000Y-107271603D01*
X99327000Y-107128397D01*
X99299062Y-106987942D01*
X99244259Y-106855636D01*
X99164698Y-106736564D01*
X99063436Y-106635302D01*
X99052000Y-106627661D01*
X99052000Y-102372339D01*
X99063436Y-102364698D01*
X99164698Y-102263436D01*
X99244259Y-102144364D01*
X99299062Y-102012058D01*
X99327000Y-101871603D01*
X99327000Y-101728397D01*
X99299062Y-101587942D01*
X99244259Y-101455636D01*
X99164698Y-101336564D01*
X99063436Y-101235302D01*
X98944364Y-101155741D01*
X98812058Y-101100938D01*
X98671603Y-101073000D01*
X98528397Y-101073000D01*
X98387942Y-101100938D01*
X98255636Y-101155741D01*
X98136564Y-101235302D01*
X98050000Y-101321866D01*
X97963436Y-101235302D01*
X97844364Y-101155741D01*
X97712058Y-101100938D01*
X97571603Y-101073000D01*
X97428397Y-101073000D01*
X97287942Y-101100938D01*
X97155636Y-101155741D01*
X97036564Y-101235302D01*
X96935302Y-101336564D01*
X96927661Y-101348000D01*
X94976134Y-101348000D01*
X94963436Y-101335302D01*
X94844364Y-101255741D01*
X94712058Y-101200938D01*
X94571603Y-101173000D01*
X94428397Y-101173000D01*
X94287942Y-101200938D01*
X94155636Y-101255741D01*
X94036564Y-101335302D01*
X93935302Y-101436564D01*
X93855741Y-101555636D01*
X93800938Y-101687942D01*
X93773000Y-101828397D01*
X88577312Y-101828397D01*
X88905430Y-101166806D01*
X89179301Y-100153849D01*
X89250291Y-99106926D01*
X89115673Y-98066269D01*
X88780619Y-97071871D01*
X88439203Y-96433129D01*
X87934749Y-95762752D01*
X87186988Y-96510513D01*
X87183052Y-96443738D01*
X87167540Y-96459251D01*
X87183052Y-96474764D01*
X87186905Y-96510596D01*
X84427502Y-99270000D01*
X83372498Y-99270000D01*
X81037989Y-96935490D01*
X81104764Y-96931554D01*
X81089251Y-96916042D01*
X81073738Y-96931554D01*
X81037906Y-96935407D01*
X80508590Y-96406091D01*
X80612900Y-96406091D01*
X80616948Y-96474764D01*
X80632460Y-96459251D01*
X81546042Y-96459251D01*
X81561554Y-96474764D01*
X81565602Y-96512411D01*
X81561554Y-96443738D01*
X81546042Y-96459251D01*
X80632460Y-96459251D01*
X80616948Y-96443738D01*
X80612900Y-96406091D01*
X80508590Y-96406091D01*
X79865251Y-95762752D01*
X79360797Y-96433129D01*
X78894570Y-97373194D01*
X78620699Y-98386151D01*
X78549709Y-99433074D01*
X77452000Y-99433074D01*
X77452000Y-95235251D01*
X80392752Y-95235251D01*
X81140513Y-95983012D01*
X81073738Y-95986948D01*
X81089251Y-96002460D01*
X81104764Y-95986948D01*
X81140596Y-95983095D01*
X83900000Y-98742498D01*
X85706896Y-96935602D01*
X86657589Y-96935602D01*
X86726262Y-96931554D01*
X86710749Y-96916042D01*
X86695236Y-96931554D01*
X86657589Y-96935602D01*
X85706896Y-96935602D01*
X86234510Y-96407989D01*
X86238446Y-96474764D01*
X86253958Y-96459251D01*
X86238446Y-96443738D01*
X86234593Y-96407906D01*
X86655551Y-95986948D01*
X86695236Y-95986948D01*
X86710749Y-96002460D01*
X86726262Y-95986948D01*
X86763909Y-95982900D01*
X86695236Y-95986948D01*
X86655551Y-95986948D01*
X87407248Y-95235251D01*
X86736871Y-94730797D01*
X85796806Y-94264570D01*
X84783849Y-93990699D01*
X83736926Y-93919709D01*
X82696269Y-94054327D01*
X81701871Y-94389381D01*
X81063129Y-94730797D01*
X80392752Y-95235251D01*
X77452000Y-95235251D01*
X77452000Y-93647000D01*
X90948001Y-93647000D01*
X90948001Y-95177785D01*
G37*
%TD.AperFunction*%
D25*
X107242930Y-100308374D02*
X107447403Y-100417667D01*
X107669268Y-100484969D01*
X107900000Y-100507694D01*
X108130731Y-100484969D01*
X108352596Y-100417667D01*
X108434608Y-100373831D01*
X114403788Y-106343012D01*
X108592212Y-106343012D01*
X104901061Y-102651862D01*
X104962005Y-102626618D01*
X105081077Y-102547057D01*
X105182339Y-102445795D01*
X105189980Y-102434359D01*
X105395436Y-102434359D01*
X105417641Y-102436546D01*
X105439846Y-102434359D01*
X105506248Y-102427819D01*
X105591451Y-102401973D01*
X105669974Y-102360002D01*
X105738800Y-102303518D01*
X105752964Y-102286259D01*
X107028896Y-101010328D01*
X107046149Y-100996169D01*
X107102633Y-100927343D01*
X107144604Y-100848820D01*
X107163071Y-100787942D01*
X107170450Y-100763618D01*
X107179177Y-100675010D01*
X107176990Y-100652805D01*
X107176990Y-100254258D01*
X107242930Y-100308374D01*
%TA.AperFunction,Conductor*%
D26*
G36*
X107242930Y-100308374D02*
G01*
X107447403Y-100417667D01*
X107669268Y-100484969D01*
X107900000Y-100507694D01*
X108130731Y-100484969D01*
X108352596Y-100417667D01*
X108434608Y-100373831D01*
X114403788Y-106343012D01*
X108592212Y-106343012D01*
X104901061Y-102651862D01*
X104962005Y-102626618D01*
X105081077Y-102547057D01*
X105182339Y-102445795D01*
X105189980Y-102434359D01*
X105395436Y-102434359D01*
X105417641Y-102436546D01*
X105439846Y-102434359D01*
X105506248Y-102427819D01*
X105591451Y-102401973D01*
X105669974Y-102360002D01*
X105738800Y-102303518D01*
X105752964Y-102286259D01*
X107028896Y-101010328D01*
X107046149Y-100996169D01*
X107102633Y-100927343D01*
X107144604Y-100848820D01*
X107163071Y-100787942D01*
X107170450Y-100763618D01*
X107179177Y-100675010D01*
X107176990Y-100652805D01*
X107176990Y-100254258D01*
X107242930Y-100308374D01*
G37*
%TD.AperFunction*%
D25*
X130948000Y-98321418D02*
X130875000Y-98321418D01*
X130810897Y-98327732D01*
X130749257Y-98346430D01*
X130692450Y-98376794D01*
X130642657Y-98417657D01*
X130601794Y-98467450D01*
X130571430Y-98524257D01*
X130552732Y-98585897D01*
X130546418Y-98650000D01*
X130546418Y-100150000D01*
X130552732Y-100214103D01*
X130571430Y-100275743D01*
X130601794Y-100332550D01*
X130642657Y-100382343D01*
X130692450Y-100423206D01*
X130749257Y-100453570D01*
X130810897Y-100472268D01*
X130875000Y-100478582D01*
X131925000Y-100478582D01*
X131989103Y-100472268D01*
X132050743Y-100453570D01*
X132107550Y-100423206D01*
X132157343Y-100382343D01*
X132194588Y-100336958D01*
X132342377Y-100415954D01*
X132502980Y-100464672D01*
X132670000Y-100481122D01*
X132837021Y-100464672D01*
X132997624Y-100415954D01*
X133145636Y-100336839D01*
X133275370Y-100230370D01*
X133305000Y-100194265D01*
X133334631Y-100230370D01*
X133464365Y-100336839D01*
X133612377Y-100415954D01*
X133772980Y-100464672D01*
X133940000Y-100481122D01*
X134107021Y-100464672D01*
X134267624Y-100415954D01*
X134415636Y-100336839D01*
X134545370Y-100230370D01*
X134651839Y-100100636D01*
X134730954Y-99952624D01*
X134779672Y-99792021D01*
X134792000Y-99666851D01*
X134792000Y-99133148D01*
X134779672Y-99007979D01*
X134730954Y-98847376D01*
X134651839Y-98699364D01*
X134545370Y-98569630D01*
X134415635Y-98463161D01*
X134267623Y-98384046D01*
X134107020Y-98335328D01*
X133940000Y-98318878D01*
X133772979Y-98335328D01*
X133612376Y-98384046D01*
X133464364Y-98463161D01*
X133334630Y-98569630D01*
X133305000Y-98605735D01*
X133275370Y-98569630D01*
X133145635Y-98463161D01*
X132997623Y-98384046D01*
X132837020Y-98335328D01*
X132670000Y-98318878D01*
X132502979Y-98335328D01*
X132342376Y-98384046D01*
X132194588Y-98463041D01*
X132157343Y-98417657D01*
X132107550Y-98376794D01*
X132050743Y-98346430D01*
X131989103Y-98327732D01*
X131925000Y-98321418D01*
X131852000Y-98321418D01*
X131852000Y-93647000D01*
X142948000Y-93647000D01*
X142948001Y-98897128D01*
X142812928Y-98923996D01*
X142571430Y-99024028D01*
X142354087Y-99169252D01*
X142169252Y-99354087D01*
X142024028Y-99571430D01*
X141923996Y-99812928D01*
X141873000Y-100069302D01*
X141873000Y-100330698D01*
X141923996Y-100587072D01*
X142024028Y-100828570D01*
X142169252Y-101045913D01*
X142354087Y-101230748D01*
X142571430Y-101375972D01*
X142812928Y-101476004D01*
X143069302Y-101527000D01*
X143330698Y-101527000D01*
X143587072Y-101476004D01*
X143828570Y-101375972D01*
X144045913Y-101230748D01*
X144230748Y-101045913D01*
X144375972Y-100828570D01*
X144476004Y-100587072D01*
X144527000Y-100330698D01*
X144527000Y-100069302D01*
X144476004Y-99812928D01*
X144375972Y-99571430D01*
X144230748Y-99354087D01*
X144045913Y-99169252D01*
X143852000Y-99039683D01*
X143852000Y-96600000D01*
X147718918Y-96600000D01*
X147718918Y-98600000D01*
X147725232Y-98664103D01*
X147743930Y-98725743D01*
X147774294Y-98782550D01*
X147815157Y-98832343D01*
X147864950Y-98873206D01*
X147921757Y-98903570D01*
X147983397Y-98922268D01*
X148047500Y-98928582D01*
X149675188Y-98928582D01*
X150650510Y-99903905D01*
X150664670Y-99921159D01*
X150733496Y-99977643D01*
X150754815Y-99989038D01*
X150812019Y-100019614D01*
X150897221Y-100045460D01*
X150985829Y-100054187D01*
X151008034Y-100052000D01*
X159059571Y-100052000D01*
X159065460Y-100071414D01*
X159118927Y-100171443D01*
X159190881Y-100259119D01*
X159278557Y-100331073D01*
X159378586Y-100384540D01*
X159487124Y-100417465D01*
X159600000Y-100428582D01*
X160800000Y-100428582D01*
X160912876Y-100417465D01*
X161021414Y-100384540D01*
X161121443Y-100331073D01*
X161209119Y-100259119D01*
X161281073Y-100171443D01*
X161334540Y-100071414D01*
X161367465Y-99962876D01*
X161378582Y-99850000D01*
X161378582Y-98350000D01*
X161367465Y-98237124D01*
X161334540Y-98128586D01*
X161281073Y-98028557D01*
X161209119Y-97940881D01*
X161121443Y-97868927D01*
X161021414Y-97815460D01*
X160912876Y-97782535D01*
X160800000Y-97771418D01*
X159600000Y-97771418D01*
X159487124Y-97782535D01*
X159378586Y-97815460D01*
X159278557Y-97868927D01*
X159190881Y-97940881D01*
X159118927Y-98028557D01*
X159065460Y-98128586D01*
X159032535Y-98237124D01*
X159021418Y-98350000D01*
X159021418Y-99148000D01*
X151173053Y-99148000D01*
X150281082Y-98256030D01*
X150281082Y-97905143D01*
X150352177Y-98139512D01*
X150470988Y-98361791D01*
X150630881Y-98556620D01*
X150825710Y-98716512D01*
X151047989Y-98835323D01*
X151289175Y-98908486D01*
X151540000Y-98933190D01*
X151790826Y-98908486D01*
X152032012Y-98835323D01*
X152254291Y-98716512D01*
X152449120Y-98556620D01*
X152609012Y-98361790D01*
X152727823Y-98139511D01*
X152800986Y-97898325D01*
X152810000Y-97806804D01*
X152819014Y-97898326D01*
X152892177Y-98139512D01*
X153010988Y-98361791D01*
X153170881Y-98556620D01*
X153365710Y-98716512D01*
X153587989Y-98835323D01*
X153829175Y-98908486D01*
X154080000Y-98933190D01*
X154330826Y-98908486D01*
X154572012Y-98835323D01*
X154794291Y-98716512D01*
X154989120Y-98556620D01*
X155149012Y-98361790D01*
X155267823Y-98139511D01*
X155340986Y-97898325D01*
X155359500Y-97710348D01*
X155359500Y-97489651D01*
X155340986Y-97301674D01*
X155267823Y-97060488D01*
X155149012Y-96838209D01*
X154989120Y-96643380D01*
X154794290Y-96483488D01*
X154572011Y-96364677D01*
X154330825Y-96291514D01*
X154080000Y-96266810D01*
X153829174Y-96291514D01*
X153587988Y-96364677D01*
X153365709Y-96483488D01*
X153170880Y-96643380D01*
X153010988Y-96838210D01*
X152892177Y-97060489D01*
X152819014Y-97301675D01*
X152810000Y-97393196D01*
X152800986Y-97301674D01*
X152727823Y-97060488D01*
X152609012Y-96838209D01*
X152449120Y-96643380D01*
X152254290Y-96483488D01*
X152032011Y-96364677D01*
X151790825Y-96291514D01*
X151540000Y-96266810D01*
X151289174Y-96291514D01*
X151047988Y-96364677D01*
X150825709Y-96483488D01*
X150630880Y-96643380D01*
X150470988Y-96838210D01*
X150352177Y-97060489D01*
X150281082Y-97294858D01*
X150281082Y-96600000D01*
X150274768Y-96535897D01*
X150256070Y-96474257D01*
X150225706Y-96417450D01*
X150184843Y-96367657D01*
X150135050Y-96326794D01*
X150078243Y-96296430D01*
X150016603Y-96277732D01*
X149952500Y-96271418D01*
X148047500Y-96271418D01*
X147983397Y-96277732D01*
X147921757Y-96296430D01*
X147864950Y-96326794D01*
X147815157Y-96367657D01*
X147774294Y-96417450D01*
X147743930Y-96474257D01*
X147725232Y-96535897D01*
X147718918Y-96600000D01*
X143852000Y-96600000D01*
X143852000Y-93647000D01*
X162248001Y-93647000D01*
X162248000Y-97857152D01*
X162247403Y-97857333D01*
X162042930Y-97966626D01*
X161863709Y-98113709D01*
X161716626Y-98292931D01*
X161607333Y-98497404D01*
X161540031Y-98719269D01*
X161523000Y-98892189D01*
X161523000Y-99307812D01*
X161540031Y-99480732D01*
X161607333Y-99702597D01*
X161716627Y-99907070D01*
X161863710Y-100086291D01*
X162042931Y-100233374D01*
X162247404Y-100342667D01*
X162469269Y-100409969D01*
X162554161Y-100418330D01*
X160799491Y-102173001D01*
X139912226Y-102173001D01*
X139261726Y-101522502D01*
X139264103Y-101522268D01*
X139325743Y-101503570D01*
X139382550Y-101473206D01*
X139432343Y-101432343D01*
X139473206Y-101382550D01*
X139503570Y-101325743D01*
X139522268Y-101264103D01*
X139528582Y-101200000D01*
X139528582Y-99200000D01*
X139522268Y-99135897D01*
X139503570Y-99074257D01*
X139473206Y-99017450D01*
X139432343Y-98967657D01*
X139382550Y-98926794D01*
X139325743Y-98896430D01*
X139264103Y-98877732D01*
X139200000Y-98871418D01*
X137200000Y-98871418D01*
X137135897Y-98877732D01*
X137074257Y-98896430D01*
X137017450Y-98926794D01*
X136967657Y-98967657D01*
X136926794Y-99017450D01*
X136896430Y-99074257D01*
X136877732Y-99135897D01*
X136871418Y-99200000D01*
X136871418Y-101200000D01*
X136877732Y-101264103D01*
X136896430Y-101325743D01*
X136926794Y-101382550D01*
X136949977Y-101410799D01*
X134241821Y-104118956D01*
X131758445Y-104118956D01*
X131750804Y-104107520D01*
X131649542Y-104006258D01*
X131530470Y-103926697D01*
X131398164Y-103871894D01*
X131257709Y-103843956D01*
X131114503Y-103843956D01*
X130974048Y-103871894D01*
X130841742Y-103926697D01*
X130722670Y-104006258D01*
X130621408Y-104107520D01*
X130541847Y-104226592D01*
X130487044Y-104358898D01*
X130470315Y-104443001D01*
X125500376Y-104443001D01*
X126368129Y-104150619D01*
X127006871Y-103809203D01*
X127677248Y-103304749D01*
X126929487Y-102556988D01*
X126996262Y-102553052D01*
X126980749Y-102537540D01*
X126965236Y-102553052D01*
X126929404Y-102556905D01*
X126400088Y-102027589D01*
X126504398Y-102027589D01*
X126508446Y-102096262D01*
X126523958Y-102080749D01*
X127437540Y-102080749D01*
X127453052Y-102096262D01*
X127457100Y-102133909D01*
X127453052Y-102065236D01*
X127437540Y-102080749D01*
X126523958Y-102080749D01*
X126508446Y-102065236D01*
X126504398Y-102027589D01*
X126400088Y-102027589D01*
X124170000Y-99797502D01*
X121835490Y-102132011D01*
X121831554Y-102065236D01*
X121816042Y-102080749D01*
X121831554Y-102096262D01*
X121835407Y-102132094D01*
X120662752Y-103304749D01*
X121333129Y-103809203D01*
X122273194Y-104275430D01*
X122892983Y-104443001D01*
X118782225Y-104443001D01*
X118474317Y-104135093D01*
X118477000Y-104121603D01*
X118477000Y-103978397D01*
X118449062Y-103837942D01*
X118394259Y-103705636D01*
X118314698Y-103586564D01*
X118213436Y-103485302D01*
X118094364Y-103405741D01*
X117962058Y-103350938D01*
X117821603Y-103323000D01*
X117678397Y-103323000D01*
X117664907Y-103325683D01*
X114842805Y-100503582D01*
X116000000Y-100503582D01*
X116112876Y-100492465D01*
X116221414Y-100459540D01*
X116321443Y-100406073D01*
X116409119Y-100334119D01*
X116481073Y-100246443D01*
X116534540Y-100146414D01*
X116567465Y-100037876D01*
X116578582Y-99925000D01*
X116578582Y-99433074D01*
X118819709Y-99433074D01*
X118954327Y-100473731D01*
X119289381Y-101468129D01*
X119630797Y-102106871D01*
X120135251Y-102777248D01*
X120355399Y-102557100D01*
X121306091Y-102557100D01*
X121374764Y-102553052D01*
X121359251Y-102537540D01*
X121343738Y-102553052D01*
X121306091Y-102557100D01*
X120355399Y-102557100D01*
X120883012Y-102029487D01*
X120886948Y-102096262D01*
X120902460Y-102080749D01*
X120886948Y-102065236D01*
X120883095Y-102029404D01*
X121304052Y-101608446D01*
X121343738Y-101608446D01*
X121359251Y-101623958D01*
X121374764Y-101608446D01*
X121412411Y-101604398D01*
X121343738Y-101608446D01*
X121304052Y-101608446D01*
X123642498Y-99270000D01*
X124697502Y-99270000D01*
X127032011Y-101604510D01*
X126965236Y-101608446D01*
X126980749Y-101623958D01*
X126996262Y-101608446D01*
X127032094Y-101604593D01*
X128204749Y-102777248D01*
X128709203Y-102106871D01*
X129175430Y-101166806D01*
X129449301Y-100153849D01*
X129520291Y-99106926D01*
X129385673Y-98066269D01*
X129050619Y-97071871D01*
X128709203Y-96433129D01*
X128204749Y-95762752D01*
X127456988Y-96510513D01*
X127453052Y-96443738D01*
X127437540Y-96459251D01*
X127453052Y-96474764D01*
X127456905Y-96510596D01*
X124697502Y-99270000D01*
X123642498Y-99270000D01*
X121307989Y-96935490D01*
X121374764Y-96931554D01*
X121359251Y-96916042D01*
X121343738Y-96931554D01*
X121307906Y-96935407D01*
X120778590Y-96406091D01*
X120882900Y-96406091D01*
X120886948Y-96474764D01*
X120902460Y-96459251D01*
X121816042Y-96459251D01*
X121831554Y-96474764D01*
X121835602Y-96512411D01*
X121831554Y-96443738D01*
X121816042Y-96459251D01*
X120902460Y-96459251D01*
X120886948Y-96443738D01*
X120882900Y-96406091D01*
X120778590Y-96406091D01*
X120135251Y-95762752D01*
X119630797Y-96433129D01*
X119164570Y-97373194D01*
X118890699Y-98386151D01*
X118819709Y-99433074D01*
X116578582Y-99433074D01*
X116578582Y-98475000D01*
X116567465Y-98362124D01*
X116534540Y-98253586D01*
X116481073Y-98153557D01*
X116409119Y-98065881D01*
X116321443Y-97993927D01*
X116221414Y-97940460D01*
X116112876Y-97907535D01*
X116000000Y-97896418D01*
X114800000Y-97896418D01*
X114741412Y-97902188D01*
X113135323Y-96296100D01*
X113121159Y-96278841D01*
X113052333Y-96222357D01*
X112973810Y-96180386D01*
X112888607Y-96154540D01*
X112822205Y-96148000D01*
X112800000Y-96145813D01*
X112777795Y-96148000D01*
X105222205Y-96148000D01*
X105200000Y-96145813D01*
X105177795Y-96148000D01*
X97952000Y-96148000D01*
X97952000Y-95235251D01*
X120662752Y-95235251D01*
X121410513Y-95983012D01*
X121343738Y-95986948D01*
X121359251Y-96002460D01*
X121374764Y-95986948D01*
X121410596Y-95983095D01*
X124170000Y-98742498D01*
X125976896Y-96935602D01*
X126927589Y-96935602D01*
X126996262Y-96931554D01*
X126980749Y-96916042D01*
X126965236Y-96931554D01*
X126927589Y-96935602D01*
X125976896Y-96935602D01*
X126504510Y-96407989D01*
X126508446Y-96474764D01*
X126523958Y-96459251D01*
X126508446Y-96443738D01*
X126504593Y-96407906D01*
X126925551Y-95986948D01*
X126965236Y-95986948D01*
X126980749Y-96002460D01*
X126996262Y-95986948D01*
X127033909Y-95982900D01*
X126965236Y-95986948D01*
X126925551Y-95986948D01*
X127677248Y-95235251D01*
X127006871Y-94730797D01*
X126066806Y-94264570D01*
X125053849Y-93990699D01*
X124006926Y-93919709D01*
X122966269Y-94054327D01*
X121971871Y-94389381D01*
X121333129Y-94730797D01*
X120662752Y-95235251D01*
X97952000Y-95235251D01*
X97952000Y-93647000D01*
X130948001Y-93647000D01*
X130948000Y-98321418D01*
%TA.AperFunction,Conductor*%
D26*
G36*
X130948000Y-98321418D02*
G01*
X130875000Y-98321418D01*
X130810897Y-98327732D01*
X130749257Y-98346430D01*
X130692450Y-98376794D01*
X130642657Y-98417657D01*
X130601794Y-98467450D01*
X130571430Y-98524257D01*
X130552732Y-98585897D01*
X130546418Y-98650000D01*
X130546418Y-100150000D01*
X130552732Y-100214103D01*
X130571430Y-100275743D01*
X130601794Y-100332550D01*
X130642657Y-100382343D01*
X130692450Y-100423206D01*
X130749257Y-100453570D01*
X130810897Y-100472268D01*
X130875000Y-100478582D01*
X131925000Y-100478582D01*
X131989103Y-100472268D01*
X132050743Y-100453570D01*
X132107550Y-100423206D01*
X132157343Y-100382343D01*
X132194588Y-100336958D01*
X132342377Y-100415954D01*
X132502980Y-100464672D01*
X132670000Y-100481122D01*
X132837021Y-100464672D01*
X132997624Y-100415954D01*
X133145636Y-100336839D01*
X133275370Y-100230370D01*
X133305000Y-100194265D01*
X133334631Y-100230370D01*
X133464365Y-100336839D01*
X133612377Y-100415954D01*
X133772980Y-100464672D01*
X133940000Y-100481122D01*
X134107021Y-100464672D01*
X134267624Y-100415954D01*
X134415636Y-100336839D01*
X134545370Y-100230370D01*
X134651839Y-100100636D01*
X134730954Y-99952624D01*
X134779672Y-99792021D01*
X134792000Y-99666851D01*
X134792000Y-99133148D01*
X134779672Y-99007979D01*
X134730954Y-98847376D01*
X134651839Y-98699364D01*
X134545370Y-98569630D01*
X134415635Y-98463161D01*
X134267623Y-98384046D01*
X134107020Y-98335328D01*
X133940000Y-98318878D01*
X133772979Y-98335328D01*
X133612376Y-98384046D01*
X133464364Y-98463161D01*
X133334630Y-98569630D01*
X133305000Y-98605735D01*
X133275370Y-98569630D01*
X133145635Y-98463161D01*
X132997623Y-98384046D01*
X132837020Y-98335328D01*
X132670000Y-98318878D01*
X132502979Y-98335328D01*
X132342376Y-98384046D01*
X132194588Y-98463041D01*
X132157343Y-98417657D01*
X132107550Y-98376794D01*
X132050743Y-98346430D01*
X131989103Y-98327732D01*
X131925000Y-98321418D01*
X131852000Y-98321418D01*
X131852000Y-93647000D01*
X142948000Y-93647000D01*
X142948001Y-98897128D01*
X142812928Y-98923996D01*
X142571430Y-99024028D01*
X142354087Y-99169252D01*
X142169252Y-99354087D01*
X142024028Y-99571430D01*
X141923996Y-99812928D01*
X141873000Y-100069302D01*
X141873000Y-100330698D01*
X141923996Y-100587072D01*
X142024028Y-100828570D01*
X142169252Y-101045913D01*
X142354087Y-101230748D01*
X142571430Y-101375972D01*
X142812928Y-101476004D01*
X143069302Y-101527000D01*
X143330698Y-101527000D01*
X143587072Y-101476004D01*
X143828570Y-101375972D01*
X144045913Y-101230748D01*
X144230748Y-101045913D01*
X144375972Y-100828570D01*
X144476004Y-100587072D01*
X144527000Y-100330698D01*
X144527000Y-100069302D01*
X144476004Y-99812928D01*
X144375972Y-99571430D01*
X144230748Y-99354087D01*
X144045913Y-99169252D01*
X143852000Y-99039683D01*
X143852000Y-96600000D01*
X147718918Y-96600000D01*
X147718918Y-98600000D01*
X147725232Y-98664103D01*
X147743930Y-98725743D01*
X147774294Y-98782550D01*
X147815157Y-98832343D01*
X147864950Y-98873206D01*
X147921757Y-98903570D01*
X147983397Y-98922268D01*
X148047500Y-98928582D01*
X149675188Y-98928582D01*
X150650510Y-99903905D01*
X150664670Y-99921159D01*
X150733496Y-99977643D01*
X150754815Y-99989038D01*
X150812019Y-100019614D01*
X150897221Y-100045460D01*
X150985829Y-100054187D01*
X151008034Y-100052000D01*
X159059571Y-100052000D01*
X159065460Y-100071414D01*
X159118927Y-100171443D01*
X159190881Y-100259119D01*
X159278557Y-100331073D01*
X159378586Y-100384540D01*
X159487124Y-100417465D01*
X159600000Y-100428582D01*
X160800000Y-100428582D01*
X160912876Y-100417465D01*
X161021414Y-100384540D01*
X161121443Y-100331073D01*
X161209119Y-100259119D01*
X161281073Y-100171443D01*
X161334540Y-100071414D01*
X161367465Y-99962876D01*
X161378582Y-99850000D01*
X161378582Y-98350000D01*
X161367465Y-98237124D01*
X161334540Y-98128586D01*
X161281073Y-98028557D01*
X161209119Y-97940881D01*
X161121443Y-97868927D01*
X161021414Y-97815460D01*
X160912876Y-97782535D01*
X160800000Y-97771418D01*
X159600000Y-97771418D01*
X159487124Y-97782535D01*
X159378586Y-97815460D01*
X159278557Y-97868927D01*
X159190881Y-97940881D01*
X159118927Y-98028557D01*
X159065460Y-98128586D01*
X159032535Y-98237124D01*
X159021418Y-98350000D01*
X159021418Y-99148000D01*
X151173053Y-99148000D01*
X150281082Y-98256030D01*
X150281082Y-97905143D01*
X150352177Y-98139512D01*
X150470988Y-98361791D01*
X150630881Y-98556620D01*
X150825710Y-98716512D01*
X151047989Y-98835323D01*
X151289175Y-98908486D01*
X151540000Y-98933190D01*
X151790826Y-98908486D01*
X152032012Y-98835323D01*
X152254291Y-98716512D01*
X152449120Y-98556620D01*
X152609012Y-98361790D01*
X152727823Y-98139511D01*
X152800986Y-97898325D01*
X152810000Y-97806804D01*
X152819014Y-97898326D01*
X152892177Y-98139512D01*
X153010988Y-98361791D01*
X153170881Y-98556620D01*
X153365710Y-98716512D01*
X153587989Y-98835323D01*
X153829175Y-98908486D01*
X154080000Y-98933190D01*
X154330826Y-98908486D01*
X154572012Y-98835323D01*
X154794291Y-98716512D01*
X154989120Y-98556620D01*
X155149012Y-98361790D01*
X155267823Y-98139511D01*
X155340986Y-97898325D01*
X155359500Y-97710348D01*
X155359500Y-97489651D01*
X155340986Y-97301674D01*
X155267823Y-97060488D01*
X155149012Y-96838209D01*
X154989120Y-96643380D01*
X154794290Y-96483488D01*
X154572011Y-96364677D01*
X154330825Y-96291514D01*
X154080000Y-96266810D01*
X153829174Y-96291514D01*
X153587988Y-96364677D01*
X153365709Y-96483488D01*
X153170880Y-96643380D01*
X153010988Y-96838210D01*
X152892177Y-97060489D01*
X152819014Y-97301675D01*
X152810000Y-97393196D01*
X152800986Y-97301674D01*
X152727823Y-97060488D01*
X152609012Y-96838209D01*
X152449120Y-96643380D01*
X152254290Y-96483488D01*
X152032011Y-96364677D01*
X151790825Y-96291514D01*
X151540000Y-96266810D01*
X151289174Y-96291514D01*
X151047988Y-96364677D01*
X150825709Y-96483488D01*
X150630880Y-96643380D01*
X150470988Y-96838210D01*
X150352177Y-97060489D01*
X150281082Y-97294858D01*
X150281082Y-96600000D01*
X150274768Y-96535897D01*
X150256070Y-96474257D01*
X150225706Y-96417450D01*
X150184843Y-96367657D01*
X150135050Y-96326794D01*
X150078243Y-96296430D01*
X150016603Y-96277732D01*
X149952500Y-96271418D01*
X148047500Y-96271418D01*
X147983397Y-96277732D01*
X147921757Y-96296430D01*
X147864950Y-96326794D01*
X147815157Y-96367657D01*
X147774294Y-96417450D01*
X147743930Y-96474257D01*
X147725232Y-96535897D01*
X147718918Y-96600000D01*
X143852000Y-96600000D01*
X143852000Y-93647000D01*
X162248001Y-93647000D01*
X162248000Y-97857152D01*
X162247403Y-97857333D01*
X162042930Y-97966626D01*
X161863709Y-98113709D01*
X161716626Y-98292931D01*
X161607333Y-98497404D01*
X161540031Y-98719269D01*
X161523000Y-98892189D01*
X161523000Y-99307812D01*
X161540031Y-99480732D01*
X161607333Y-99702597D01*
X161716627Y-99907070D01*
X161863710Y-100086291D01*
X162042931Y-100233374D01*
X162247404Y-100342667D01*
X162469269Y-100409969D01*
X162554161Y-100418330D01*
X160799491Y-102173001D01*
X139912226Y-102173001D01*
X139261726Y-101522502D01*
X139264103Y-101522268D01*
X139325743Y-101503570D01*
X139382550Y-101473206D01*
X139432343Y-101432343D01*
X139473206Y-101382550D01*
X139503570Y-101325743D01*
X139522268Y-101264103D01*
X139528582Y-101200000D01*
X139528582Y-99200000D01*
X139522268Y-99135897D01*
X139503570Y-99074257D01*
X139473206Y-99017450D01*
X139432343Y-98967657D01*
X139382550Y-98926794D01*
X139325743Y-98896430D01*
X139264103Y-98877732D01*
X139200000Y-98871418D01*
X137200000Y-98871418D01*
X137135897Y-98877732D01*
X137074257Y-98896430D01*
X137017450Y-98926794D01*
X136967657Y-98967657D01*
X136926794Y-99017450D01*
X136896430Y-99074257D01*
X136877732Y-99135897D01*
X136871418Y-99200000D01*
X136871418Y-101200000D01*
X136877732Y-101264103D01*
X136896430Y-101325743D01*
X136926794Y-101382550D01*
X136949977Y-101410799D01*
X134241821Y-104118956D01*
X131758445Y-104118956D01*
X131750804Y-104107520D01*
X131649542Y-104006258D01*
X131530470Y-103926697D01*
X131398164Y-103871894D01*
X131257709Y-103843956D01*
X131114503Y-103843956D01*
X130974048Y-103871894D01*
X130841742Y-103926697D01*
X130722670Y-104006258D01*
X130621408Y-104107520D01*
X130541847Y-104226592D01*
X130487044Y-104358898D01*
X130470315Y-104443001D01*
X125500376Y-104443001D01*
X126368129Y-104150619D01*
X127006871Y-103809203D01*
X127677248Y-103304749D01*
X126929487Y-102556988D01*
X126996262Y-102553052D01*
X126980749Y-102537540D01*
X126965236Y-102553052D01*
X126929404Y-102556905D01*
X126400088Y-102027589D01*
X126504398Y-102027589D01*
X126508446Y-102096262D01*
X126523958Y-102080749D01*
X127437540Y-102080749D01*
X127453052Y-102096262D01*
X127457100Y-102133909D01*
X127453052Y-102065236D01*
X127437540Y-102080749D01*
X126523958Y-102080749D01*
X126508446Y-102065236D01*
X126504398Y-102027589D01*
X126400088Y-102027589D01*
X124170000Y-99797502D01*
X121835490Y-102132011D01*
X121831554Y-102065236D01*
X121816042Y-102080749D01*
X121831554Y-102096262D01*
X121835407Y-102132094D01*
X120662752Y-103304749D01*
X121333129Y-103809203D01*
X122273194Y-104275430D01*
X122892983Y-104443001D01*
X118782225Y-104443001D01*
X118474317Y-104135093D01*
X118477000Y-104121603D01*
X118477000Y-103978397D01*
X118449062Y-103837942D01*
X118394259Y-103705636D01*
X118314698Y-103586564D01*
X118213436Y-103485302D01*
X118094364Y-103405741D01*
X117962058Y-103350938D01*
X117821603Y-103323000D01*
X117678397Y-103323000D01*
X117664907Y-103325683D01*
X114842805Y-100503582D01*
X116000000Y-100503582D01*
X116112876Y-100492465D01*
X116221414Y-100459540D01*
X116321443Y-100406073D01*
X116409119Y-100334119D01*
X116481073Y-100246443D01*
X116534540Y-100146414D01*
X116567465Y-100037876D01*
X116578582Y-99925000D01*
X116578582Y-99433074D01*
X118819709Y-99433074D01*
X118954327Y-100473731D01*
X119289381Y-101468129D01*
X119630797Y-102106871D01*
X120135251Y-102777248D01*
X120355399Y-102557100D01*
X121306091Y-102557100D01*
X121374764Y-102553052D01*
X121359251Y-102537540D01*
X121343738Y-102553052D01*
X121306091Y-102557100D01*
X120355399Y-102557100D01*
X120883012Y-102029487D01*
X120886948Y-102096262D01*
X120902460Y-102080749D01*
X120886948Y-102065236D01*
X120883095Y-102029404D01*
X121304052Y-101608446D01*
X121343738Y-101608446D01*
X121359251Y-101623958D01*
X121374764Y-101608446D01*
X121412411Y-101604398D01*
X121343738Y-101608446D01*
X121304052Y-101608446D01*
X123642498Y-99270000D01*
X124697502Y-99270000D01*
X127032011Y-101604510D01*
X126965236Y-101608446D01*
X126980749Y-101623958D01*
X126996262Y-101608446D01*
X127032094Y-101604593D01*
X128204749Y-102777248D01*
X128709203Y-102106871D01*
X129175430Y-101166806D01*
X129449301Y-100153849D01*
X129520291Y-99106926D01*
X129385673Y-98066269D01*
X129050619Y-97071871D01*
X128709203Y-96433129D01*
X128204749Y-95762752D01*
X127456988Y-96510513D01*
X127453052Y-96443738D01*
X127437540Y-96459251D01*
X127453052Y-96474764D01*
X127456905Y-96510596D01*
X124697502Y-99270000D01*
X123642498Y-99270000D01*
X121307989Y-96935490D01*
X121374764Y-96931554D01*
X121359251Y-96916042D01*
X121343738Y-96931554D01*
X121307906Y-96935407D01*
X120778590Y-96406091D01*
X120882900Y-96406091D01*
X120886948Y-96474764D01*
X120902460Y-96459251D01*
X121816042Y-96459251D01*
X121831554Y-96474764D01*
X121835602Y-96512411D01*
X121831554Y-96443738D01*
X121816042Y-96459251D01*
X120902460Y-96459251D01*
X120886948Y-96443738D01*
X120882900Y-96406091D01*
X120778590Y-96406091D01*
X120135251Y-95762752D01*
X119630797Y-96433129D01*
X119164570Y-97373194D01*
X118890699Y-98386151D01*
X118819709Y-99433074D01*
X116578582Y-99433074D01*
X116578582Y-98475000D01*
X116567465Y-98362124D01*
X116534540Y-98253586D01*
X116481073Y-98153557D01*
X116409119Y-98065881D01*
X116321443Y-97993927D01*
X116221414Y-97940460D01*
X116112876Y-97907535D01*
X116000000Y-97896418D01*
X114800000Y-97896418D01*
X114741412Y-97902188D01*
X113135323Y-96296100D01*
X113121159Y-96278841D01*
X113052333Y-96222357D01*
X112973810Y-96180386D01*
X112888607Y-96154540D01*
X112822205Y-96148000D01*
X112800000Y-96145813D01*
X112777795Y-96148000D01*
X105222205Y-96148000D01*
X105200000Y-96145813D01*
X105177795Y-96148000D01*
X97952000Y-96148000D01*
X97952000Y-95235251D01*
X120662752Y-95235251D01*
X121410513Y-95983012D01*
X121343738Y-95986948D01*
X121359251Y-96002460D01*
X121374764Y-95986948D01*
X121410596Y-95983095D01*
X124170000Y-98742498D01*
X125976896Y-96935602D01*
X126927589Y-96935602D01*
X126996262Y-96931554D01*
X126980749Y-96916042D01*
X126965236Y-96931554D01*
X126927589Y-96935602D01*
X125976896Y-96935602D01*
X126504510Y-96407989D01*
X126508446Y-96474764D01*
X126523958Y-96459251D01*
X126508446Y-96443738D01*
X126504593Y-96407906D01*
X126925551Y-95986948D01*
X126965236Y-95986948D01*
X126980749Y-96002460D01*
X126996262Y-95986948D01*
X127033909Y-95982900D01*
X126965236Y-95986948D01*
X126925551Y-95986948D01*
X127677248Y-95235251D01*
X127006871Y-94730797D01*
X126066806Y-94264570D01*
X125053849Y-93990699D01*
X124006926Y-93919709D01*
X122966269Y-94054327D01*
X121971871Y-94389381D01*
X121333129Y-94730797D01*
X120662752Y-95235251D01*
X97952000Y-95235251D01*
X97952000Y-93647000D01*
X130948001Y-93647000D01*
X130948000Y-98321418D01*
G37*
%TD.AperFunction*%
D25*
X95048000Y-97014205D02*
X95045813Y-97036410D01*
X95048185Y-97060489D01*
X95054540Y-97125016D01*
X95080386Y-97210219D01*
X95122357Y-97288742D01*
X95178841Y-97357569D01*
X95196100Y-97371733D01*
X95786714Y-97962348D01*
X95630732Y-97915031D01*
X95400000Y-97892306D01*
X95169269Y-97915031D01*
X94947404Y-97982333D01*
X94865393Y-98026169D01*
X91852000Y-95012777D01*
X91852000Y-93647000D01*
X95048001Y-93647000D01*
X95048000Y-97014205D01*
%TA.AperFunction,Conductor*%
D26*
G36*
X95048000Y-97014205D02*
G01*
X95045813Y-97036410D01*
X95048185Y-97060489D01*
X95054540Y-97125016D01*
X95080386Y-97210219D01*
X95122357Y-97288742D01*
X95178841Y-97357569D01*
X95196100Y-97371733D01*
X95786714Y-97962348D01*
X95630732Y-97915031D01*
X95400000Y-97892306D01*
X95169269Y-97915031D01*
X94947404Y-97982333D01*
X94865393Y-98026169D01*
X91852000Y-95012777D01*
X91852000Y-93647000D01*
X95048001Y-93647000D01*
X95048000Y-97014205D01*
G37*
%TD.AperFunction*%
%TD*%
D25*
%TO.N,GND*%
X120573000Y-86900693D02*
X120573000Y-89800000D01*
X120575440Y-89824776D01*
X120582667Y-89848601D01*
X120594403Y-89870557D01*
X120610197Y-89889803D01*
X120629443Y-89905597D01*
X120651399Y-89917333D01*
X120675224Y-89924560D01*
X120700413Y-89926999D01*
X129920106Y-89897000D01*
X185793000Y-89897000D01*
X185793000Y-93017538D01*
X117242972Y-92768265D01*
X114279603Y-87705842D01*
X114264980Y-87685693D01*
X114246708Y-87668783D01*
X114225487Y-87655763D01*
X114202135Y-87647133D01*
X114173097Y-87643038D01*
X104047000Y-87396060D01*
X104047000Y-77647000D01*
X116670000Y-77647000D01*
X116670646Y-77646998D01*
X120474351Y-77627641D01*
X120573000Y-86900693D01*
%TA.AperFunction,Conductor*%
D26*
G36*
X120573000Y-86900693D02*
G01*
X120573000Y-89800000D01*
X120575440Y-89824776D01*
X120582667Y-89848601D01*
X120594403Y-89870557D01*
X120610197Y-89889803D01*
X120629443Y-89905597D01*
X120651399Y-89917333D01*
X120675224Y-89924560D01*
X120700413Y-89926999D01*
X129920106Y-89897000D01*
X185793000Y-89897000D01*
X185793000Y-93017538D01*
X117242972Y-92768265D01*
X114279603Y-87705842D01*
X114264980Y-87685693D01*
X114246708Y-87668783D01*
X114225487Y-87655763D01*
X114202135Y-87647133D01*
X114173097Y-87643038D01*
X104047000Y-87396060D01*
X104047000Y-77647000D01*
X116670000Y-77647000D01*
X116670646Y-77646998D01*
X120474351Y-77627641D01*
X120573000Y-86900693D01*
G37*
%TD.AperFunction*%
%TD*%
M02*
