M48
; DRILL file {KiCad (5.1.9)-1} date 01/31/21 20:50:24
; FORMAT={-:-/ absolute / inch / decimal}
; #@! TF.CreationDate,2021-01-31T20:50:24+01:00
; #@! TF.GenerationSoftware,Kicad,Pcbnew,(5.1.9)-1
; #@! TF.FileFunction,Plated,1,2,PTH
FMAT,2
INCH
T1C0.0157
T2C0.0197
T3C0.0236
T4C0.0295
T5C0.0374
T6C0.1260
T7C0.2087
T8C0.3547
%
G90
G05
T1
X3.0579Y-4.6071
X3.0681Y-3.5923
X3.0681Y-3.7498
X3.0681Y-3.9073
X3.0681Y-4.0648
X3.0681Y-4.2222
X3.0681Y-4.3797
X3.1075Y-3.4742
X3.1469Y-3.6711
X3.1469Y-4.1435
X3.1469Y-4.301
X3.1862Y-3.553
X3.2256Y-4.2222
X3.2256Y-4.3797
X3.265Y-3.4742
X3.265Y-3.6317
X3.265Y-4.4978
X3.3043Y-4.1435
X3.3043Y-4.301
X3.3437Y-3.553
X3.3831Y-4.2222
X3.3831Y-4.3797
X3.3925Y-4.5677
X3.4224Y-3.4742
X3.4224Y-3.6317
X3.4224Y-4.4978
X3.4618Y-4.1435
X3.4618Y-4.301
X3.5012Y-3.553
X3.5012Y-4.4191
X3.5406Y-3.6711
X3.5406Y-4.0648
X3.5406Y-4.2222
X3.5799Y-3.4742
X3.5799Y-3.7892
X3.5799Y-4.3404
X3.6193Y-3.5923
X3.6193Y-3.9073
X3.6193Y-4.1435
X3.6587Y-3.7104
X3.6587Y-4.0254
X3.698Y-3.5136
X3.698Y-3.8285
X3.7075Y-4.2134
X3.7075Y-4.4496
X3.7075Y-4.5677
X3.7374Y-3.6317
X3.7374Y-4.3797
X3.7665Y-3.4654
X3.7768Y-3.986
X3.7768Y-4.1829
X3.8161Y-3.7104
X3.8555Y-4.3404
X3.865Y-3.5441
X3.8949Y-3.6317
X3.8949Y-3.7892
X3.8949Y-4.4585
X3.9343Y-3.5136
X3.9343Y-3.986
X3.9343Y-4.1829
X3.9736Y-3.7104
X3.9736Y-4.301
X4.013Y-3.5923
X4.013Y-4.0648
X4.013Y-4.4191
X4.0917Y-3.6711
X4.0917Y-3.986
X4.0917Y-4.3404
X4.111Y-4.2429
X4.1311Y-3.7892
X4.1311Y-4.4585
X4.1504Y-4.5185
X4.1705Y-3.5923
X4.1705Y-4.1829
X4.2098Y-3.7104
X4.2098Y-4.301
X4.2492Y-4.4191
X4.2788Y-3.8202
X4.2886Y-3.6317
X4.2886Y-4.1435
X4.328Y-4.2616
X4.3673Y-4.0648
X4.3673Y-4.3797
X4.4067Y-4.1829
X4.4461Y-3.986
X4.4461Y-4.301
X4.4854Y-4.1041
X4.5248Y-4.2222
X4.5248Y-4.3797
X4.5642Y-3.8679
X4.5642Y-4.0254
X4.5933Y-4.5185
X4.6035Y-4.1435
X4.6035Y-4.301
X4.6035Y-4.4585
X4.6429Y-3.7892
X4.6429Y-3.9467
X4.6823Y-4.0648
X4.6823Y-4.2222
X4.6823Y-4.3797
X4.7047Y-3.7402
X4.7441Y-3.7205
X4.7606Y-4.5185
X4.761Y-4.1435
X4.761Y-4.301
X4.761Y-4.4585
X4.8398Y-4.2222
X4.8398Y-4.3797
X4.9185Y-4.1435
X4.9185Y-4.301
X4.9972Y-4.2222
X4.9972Y-4.3797
X5.0366Y-4.1041
X5.0756Y-4.5185
X5.076Y-4.301
X5.076Y-4.4585
X5.1154Y-3.986
X5.1346Y-4.3413
X5.1839Y-3.7803
X5.1937Y-4.1051
X5.1941Y-4.1829
X5.1941Y-4.3404
X5.2134Y-4.5185
X5.2335Y-4.4585
X5.2728Y-3.9073
X5.2728Y-4.1041
X5.2728Y-4.2616
X5.3122Y-4.3797
X5.315Y-3.8583
X5.3315Y-3.6327
X5.3516Y-4.1829
X5.3909Y-4.301
X5.4303Y-4.0648
X5.4352Y-3.8561
X5.4697Y-4.2222
X5.4697Y-4.3797
X5.5091Y-3.7892
X5.5185Y-4.5185
X5.5484Y-4.0254
X5.5484Y-4.301
X5.5851Y-3.6645
X5.5878Y-4.1435
X5.6272Y-4.3797
X5.6563Y-3.8295
X5.6665Y-3.9467
X5.6665Y-4.2222
X5.7059Y-4.0648
X5.7059Y-4.4585
X5.7453Y-4.301
X5.7528Y-3.6543
X5.7846Y-3.986
X5.7846Y-4.1435
X5.8236Y-3.7114
X5.824Y-4.3797
X5.8634Y-4.0648
X5.8634Y-4.2222
X5.8925Y-3.7803
X5.9028Y-4.4585
X5.9051Y-3.6551
X5.9421Y-3.986
X5.9421Y-4.1435
X5.9421Y-4.301
X5.9811Y-3.8295
X6.0209Y-4.0648
X6.0209Y-4.2222
X6.0209Y-4.3797
X6.0602Y-3.7892
X6.0996Y-4.301
X6.0996Y-4.4585
X6.1287Y-3.6425
X6.1583Y-4.2134
X6.1651Y-3.9703
X6.1681Y-4.3807
X6.178Y-4.5185
X6.2177Y-3.7892
X6.2177Y-4.1829
X6.2451Y-3.6639
X6.2571Y-3.9073
X6.2571Y-4.301
X6.3358Y-3.7498
X6.3358Y-4.0648
X6.3358Y-4.2222
X6.3358Y-4.3797
X6.3945Y-4.5185
X6.4142Y-3.6622
X6.4146Y-3.8285
X6.4146Y-3.986
X6.4146Y-4.1435
X6.4146Y-4.301
X6.4146Y-4.4585
X6.4933Y-3.7498
X6.4933Y-4.2222
X6.4933Y-4.3797
X6.572Y-4.301
X6.572Y-4.4585
X6.5913Y-4.5185
X6.6114Y-4.1829
X6.6508Y-4.3797
X6.6902Y-4.2616
X6.7689Y-4.1829
X6.7689Y-4.3404
X6.8476Y-3.7498
X6.8476Y-4.2616
X6.8476Y-4.4191
X6.8768Y-4.5185
X6.887Y-4.1041
X6.9264Y-3.8285
X6.9264Y-3.986
X6.9264Y-4.3404
X6.9457Y-3.6524
X6.9657Y-4.1829
X7.0051Y-3.9073
X7.0051Y-4.0648
X7.0445Y-3.7892
X7.0445Y-4.2616
X7.0445Y-4.4191
X7.0539Y-4.5185
X7.0638Y-3.6524
X7.0839Y-3.986
X7.0839Y-4.1435
X7.1232Y-3.8679
X7.1232Y-4.3404
X7.1626Y-4.0648
X7.1626Y-4.2222
X7.1626Y-4.4585
X7.172Y-3.6524
X7.202Y-3.7892
X7.202Y-3.9467
X7.2413Y-4.1435
X7.2413Y-4.3797
X7.2705Y-3.6524
X7.2807Y-3.8679
X7.2807Y-4.0254
X7.2807Y-4.2616
X7.3201Y-4.4585
X7.3492Y-4.5185
X7.3594Y-3.7892
X7.3594Y-3.9467
X7.3594Y-4.1829
T2
X4.5055Y-2.7961
X4.5055Y-3.2291
X4.5332Y-2.7292
X4.5332Y-2.8629
X4.5332Y-3.1623
X4.5332Y-3.2959
X4.6Y-2.7016
X4.6Y-2.8906
X4.6Y-3.1346
X4.6Y-3.3236
X4.6668Y-2.7292
X4.6668Y-2.8629
X4.6668Y-3.1623
X4.6668Y-3.2959
X4.6945Y-2.7961
X4.6945Y-3.2291
T3
X3.1967Y-3.9083
X3.2425Y-3.7976
X3.2425Y-4.0189
X3.3531Y-3.7518
X3.3531Y-4.0648
X3.4638Y-3.7976
X3.4638Y-4.0189
X3.5096Y-3.9083
X3.9841Y-4.8433
X4.0299Y-4.7326
X4.0299Y-4.954
X4.1406Y-4.6868
X4.1406Y-4.9998
X4.2512Y-4.7326
X4.2512Y-4.954
X4.297Y-4.8433
X4.7321Y-3.9083
X4.7779Y-3.7976
X4.7779Y-4.0189
X4.8886Y-3.7518
X4.8886Y-4.0648
X4.9992Y-3.7976
X4.9992Y-4.0189
X5.0451Y-3.9083
X5.7852Y-4.8433
X5.8311Y-4.7326
X5.8311Y-4.954
X5.9417Y-4.6868
X5.9417Y-4.9998
X6.0524Y-4.7326
X6.0524Y-4.954
X6.0982Y-4.8433
X6.5333Y-3.9083
X6.5791Y-3.7976
X6.5791Y-4.0189
X6.6898Y-3.7518
X6.6898Y-4.0648
X6.8004Y-3.7976
X6.8004Y-4.0189
X6.8463Y-3.9083
X7.675Y-4.8433
X7.7208Y-4.7326
X7.7208Y-4.954
X7.8315Y-4.6868
X7.8315Y-4.9998
X7.9422Y-4.7326
X7.9422Y-4.954
X7.988Y-4.8433
T4
X5.7941Y-3.8984
X5.8441Y-3.8984
X5.8941Y-3.8984
T5
X3.7665Y-3.8984
X3.865Y-3.8984
X3.9634Y-3.8984
X4.0618Y-3.8984
X4.1602Y-3.8984
X4.2587Y-3.8984
X4.3571Y-3.8984
X4.4555Y-3.8984
T6
X4.6Y-2.7961
X4.6Y-3.2291
T7
X3.3531Y-3.9083
X4.1406Y-4.8433
X4.8886Y-3.9083
X5.9417Y-4.8433
X6.6898Y-3.9083
X7.8315Y-4.8433
T8
X5.2051Y-3.0323
X7.6051Y-3.0323
T0
M30
