%TF.GenerationSoftware,KiCad,Pcbnew,(5.1.9)-1*%
%TF.CreationDate,2021-02-05T08:05:51+01:00*%
%TF.ProjectId,Spotwelderix,53706f74-7765-46c6-9465-7269782e6b69,rev?*%
%TF.SameCoordinates,Original*%
%TF.FileFunction,Soldermask,Bot*%
%TF.FilePolarity,Negative*%
%FSLAX46Y46*%
G04 Gerber Fmt 4.6, Leading zero omitted, Abs format (unit mm)*
G04 Created by KiCad (PCBNEW (5.1.9)-1) date 2021-02-05 08:05:51*
%MOMM*%
%LPD*%
G01*
G04 APERTURE LIST*
%ADD10O,1.700000X1.950000*%
%ADD11C,0.900000*%
%ADD12C,10.600000*%
%ADD13O,1.905000X2.000000*%
%ADD14R,1.905000X2.000000*%
%ADD15O,3.500000X3.500000*%
%ADD16O,1.700000X2.000000*%
%ADD17C,2.000000*%
%ADD18R,2.000000X2.000000*%
%ADD19C,0.800000*%
%ADD20C,6.400000*%
%ADD21O,1.050000X1.500000*%
%ADD22R,1.050000X1.500000*%
G04 APERTURE END LIST*
D10*
%TO.C,P1*%
X95400000Y-99200000D03*
X97900000Y-99200000D03*
X100400000Y-99200000D03*
X102900000Y-99200000D03*
X105400000Y-99200000D03*
X107900000Y-99200000D03*
X110400000Y-99200000D03*
X112900000Y-99200000D03*
G36*
G01*
X116250000Y-98475000D02*
X116250000Y-99925000D01*
G75*
G02*
X116000000Y-100175000I-250000J0D01*
G01*
X114800000Y-100175000D01*
G75*
G02*
X114550000Y-99925000I0J250000D01*
G01*
X114550000Y-98475000D01*
G75*
G02*
X114800000Y-98225000I250000J0D01*
G01*
X116000000Y-98225000D01*
G75*
G02*
X116250000Y-98475000I0J-250000D01*
G01*
G37*
%TD*%
D11*
%TO.C,H6*%
X174310749Y-96389251D03*
X171500000Y-95225000D03*
X168689251Y-96389251D03*
X167525000Y-99200000D03*
X168689251Y-102010749D03*
X171500000Y-103175000D03*
X174310749Y-102010749D03*
X175475000Y-99200000D03*
D12*
X171500000Y-99200000D03*
%TD*%
D13*
%TO.C,Q10*%
X154080000Y-97600000D03*
X151540000Y-97600000D03*
D14*
X149000000Y-97600000D03*
D15*
X151540000Y-114260000D03*
%TD*%
D16*
%TO.C,J1*%
X162700000Y-99100000D03*
G36*
G01*
X159350000Y-99850000D02*
X159350000Y-98350000D01*
G75*
G02*
X159600000Y-98100000I250000J0D01*
G01*
X160800000Y-98100000D01*
G75*
G02*
X161050000Y-98350000I0J-250000D01*
G01*
X161050000Y-99850000D01*
G75*
G02*
X160800000Y-100100000I-250000J0D01*
G01*
X159600000Y-100100000D01*
G75*
G02*
X159350000Y-99850000I0J250000D01*
G01*
G37*
%TD*%
D17*
%TO.C,C14*%
X143200000Y-100200000D03*
D18*
X138200000Y-100200000D03*
%TD*%
D19*
%TO.C,H7*%
X118537056Y-80322944D03*
X116840000Y-79620000D03*
X115142944Y-80322944D03*
X114440000Y-82020000D03*
X115142944Y-83717056D03*
X116840000Y-84420000D03*
X118537056Y-83717056D03*
X119240000Y-82020000D03*
D20*
X116840000Y-82020000D03*
%TD*%
D19*
%TO.C,H2*%
X118537056Y-69322944D03*
X116840000Y-68620000D03*
X115142944Y-69322944D03*
X114440000Y-71020000D03*
X115142944Y-72717056D03*
X116840000Y-73420000D03*
X118537056Y-72717056D03*
X119240000Y-71020000D03*
D20*
X116840000Y-71020000D03*
%TD*%
D11*
%TO.C,H5*%
X126980749Y-96459251D03*
X124170000Y-95295000D03*
X121359251Y-96459251D03*
X120195000Y-99270000D03*
X121359251Y-102080749D03*
X124170000Y-103245000D03*
X126980749Y-102080749D03*
X128145000Y-99270000D03*
D12*
X124170000Y-99270000D03*
%TD*%
D11*
%TO.C,H4*%
X86710749Y-96459251D03*
X83900000Y-95295000D03*
X81089251Y-96459251D03*
X79925000Y-99270000D03*
X81089251Y-102080749D03*
X83900000Y-103245000D03*
X86710749Y-102080749D03*
X87875000Y-99270000D03*
D12*
X83900000Y-99270000D03*
%TD*%
D11*
%TO.C,H3*%
X153730749Y-120209251D03*
X150920000Y-119045000D03*
X148109251Y-120209251D03*
X146945000Y-123020000D03*
X148109251Y-125830749D03*
X150920000Y-126995000D03*
X153730749Y-125830749D03*
X154895000Y-123020000D03*
D12*
X150920000Y-123020000D03*
%TD*%
D11*
%TO.C,H1*%
X107980749Y-120209251D03*
X105170000Y-119045000D03*
X102359251Y-120209251D03*
X101195000Y-123020000D03*
X102359251Y-125830749D03*
X105170000Y-126995000D03*
X107980749Y-125830749D03*
X109145000Y-123020000D03*
D12*
X105170000Y-123020000D03*
%TD*%
%TO.C,F1*%
G36*
G01*
X202675000Y-71767500D02*
X202675000Y-82272500D01*
G75*
G02*
X197922500Y-87025000I-4752500J0D01*
G01*
X188417500Y-87025000D01*
G75*
G02*
X183665000Y-82272500I0J4752500D01*
G01*
X183665000Y-71767500D01*
G75*
G02*
X188417500Y-67015000I4752500J0D01*
G01*
X197922500Y-67015000D01*
G75*
G02*
X202675000Y-71767500I0J-4752500D01*
G01*
G37*
G36*
G01*
X141715000Y-71767500D02*
X141715000Y-82272500D01*
G75*
G02*
X136962500Y-87025000I-4752500J0D01*
G01*
X127457500Y-87025000D01*
G75*
G02*
X122705000Y-82272500I0J4752500D01*
G01*
X122705000Y-71767500D01*
G75*
G02*
X127457500Y-67015000I4752500J0D01*
G01*
X136962500Y-67015000D01*
G75*
G02*
X141715000Y-71767500I0J-4752500D01*
G01*
G37*
%TD*%
D11*
%TO.C,J4*%
X201730749Y-120209251D03*
X198920000Y-119045000D03*
X196109251Y-120209251D03*
X194945000Y-123020000D03*
X196109251Y-125830749D03*
X198920000Y-126995000D03*
X201730749Y-125830749D03*
X202895000Y-123020000D03*
D12*
X198920000Y-123020000D03*
%TD*%
D21*
%TO.C,U1*%
X132670000Y-99400000D03*
X133940000Y-99400000D03*
D22*
X131400000Y-99400000D03*
%TD*%
M02*
