%TF.GenerationSoftware,KiCad,Pcbnew,(5.1.9)-1*%
%TF.CreationDate,2021-01-31T20:50:21+01:00*%
%TF.ProjectId,Spotwelderix,53706f74-7765-46c6-9465-7269782e6b69,rev?*%
%TF.SameCoordinates,Original*%
%TF.FileFunction,Paste,Top*%
%TF.FilePolarity,Positive*%
%FSLAX46Y46*%
G04 Gerber Fmt 4.6, Leading zero omitted, Abs format (unit mm)*
G04 Created by KiCad (PCBNEW (5.1.9)-1) date 2021-01-31 20:50:21*
%MOMM*%
%LPD*%
G01*
G04 APERTURE LIST*
%ADD10R,0.650000X1.525000*%
%ADD11R,5.250000X4.550000*%
%ADD12R,1.100000X4.600000*%
%ADD13R,4.600000X1.100000*%
%ADD14R,4.550000X5.250000*%
%ADD15R,2.950000X1.495000*%
%ADD16R,0.700000X1.495000*%
G04 APERTURE END LIST*
%TO.C,C13*%
G36*
G01*
X101070001Y-105395000D02*
X99769999Y-105395000D01*
G75*
G02*
X99520000Y-105145001I0J249999D01*
G01*
X99520000Y-104494999D01*
G75*
G02*
X99769999Y-104245000I249999J0D01*
G01*
X101070001Y-104245000D01*
G75*
G02*
X101320000Y-104494999I0J-249999D01*
G01*
X101320000Y-105145001D01*
G75*
G02*
X101070001Y-105395000I-249999J0D01*
G01*
G37*
G36*
G01*
X101070001Y-108345000D02*
X99769999Y-108345000D01*
G75*
G02*
X99520000Y-108095001I0J249999D01*
G01*
X99520000Y-107444999D01*
G75*
G02*
X99769999Y-107195000I249999J0D01*
G01*
X101070001Y-107195000D01*
G75*
G02*
X101320000Y-107444999I0J-249999D01*
G01*
X101320000Y-108095001D01*
G75*
G02*
X101070001Y-108345000I-249999J0D01*
G01*
G37*
%TD*%
%TO.C,C12*%
G36*
G01*
X132820001Y-97895000D02*
X131519999Y-97895000D01*
G75*
G02*
X131270000Y-97645001I0J249999D01*
G01*
X131270000Y-96994999D01*
G75*
G02*
X131519999Y-96745000I249999J0D01*
G01*
X132820001Y-96745000D01*
G75*
G02*
X133070000Y-96994999I0J-249999D01*
G01*
X133070000Y-97645001D01*
G75*
G02*
X132820001Y-97895000I-249999J0D01*
G01*
G37*
G36*
G01*
X132820001Y-100845000D02*
X131519999Y-100845000D01*
G75*
G02*
X131270000Y-100595001I0J249999D01*
G01*
X131270000Y-99944999D01*
G75*
G02*
X131519999Y-99695000I249999J0D01*
G01*
X132820001Y-99695000D01*
G75*
G02*
X133070000Y-99944999I0J-249999D01*
G01*
X133070000Y-100595001D01*
G75*
G02*
X132820001Y-100845000I-249999J0D01*
G01*
G37*
%TD*%
%TO.C,C11*%
G36*
G01*
X161820001Y-102595000D02*
X160519999Y-102595000D01*
G75*
G02*
X160270000Y-102345001I0J249999D01*
G01*
X160270000Y-101694999D01*
G75*
G02*
X160519999Y-101445000I249999J0D01*
G01*
X161820001Y-101445000D01*
G75*
G02*
X162070000Y-101694999I0J-249999D01*
G01*
X162070000Y-102345001D01*
G75*
G02*
X161820001Y-102595000I-249999J0D01*
G01*
G37*
G36*
G01*
X161820001Y-105545000D02*
X160519999Y-105545000D01*
G75*
G02*
X160270000Y-105295001I0J249999D01*
G01*
X160270000Y-104644999D01*
G75*
G02*
X160519999Y-104395000I249999J0D01*
G01*
X161820001Y-104395000D01*
G75*
G02*
X162070000Y-104644999I0J-249999D01*
G01*
X162070000Y-105295001D01*
G75*
G02*
X161820001Y-105545000I-249999J0D01*
G01*
G37*
%TD*%
%TO.C,R4*%
G36*
G01*
X160719999Y-99507500D02*
X161620001Y-99507500D01*
G75*
G02*
X161870000Y-99757499I0J-249999D01*
G01*
X161870000Y-100282501D01*
G75*
G02*
X161620001Y-100532500I-249999J0D01*
G01*
X160719999Y-100532500D01*
G75*
G02*
X160470000Y-100282501I0J249999D01*
G01*
X160470000Y-99757499D01*
G75*
G02*
X160719999Y-99507500I249999J0D01*
G01*
G37*
G36*
G01*
X160719999Y-97682500D02*
X161620001Y-97682500D01*
G75*
G02*
X161870000Y-97932499I0J-249999D01*
G01*
X161870000Y-98457501D01*
G75*
G02*
X161620001Y-98707500I-249999J0D01*
G01*
X160719999Y-98707500D01*
G75*
G02*
X160470000Y-98457501I0J249999D01*
G01*
X160470000Y-97932499D01*
G75*
G02*
X160719999Y-97682500I249999J0D01*
G01*
G37*
%TD*%
%TO.C,R3*%
G36*
G01*
X102969999Y-104170000D02*
X103870001Y-104170000D01*
G75*
G02*
X104120000Y-104419999I0J-249999D01*
G01*
X104120000Y-104945001D01*
G75*
G02*
X103870001Y-105195000I-249999J0D01*
G01*
X102969999Y-105195000D01*
G75*
G02*
X102720000Y-104945001I0J249999D01*
G01*
X102720000Y-104419999D01*
G75*
G02*
X102969999Y-104170000I249999J0D01*
G01*
G37*
G36*
G01*
X102969999Y-102345000D02*
X103870001Y-102345000D01*
G75*
G02*
X104120000Y-102594999I0J-249999D01*
G01*
X104120000Y-103120001D01*
G75*
G02*
X103870001Y-103370000I-249999J0D01*
G01*
X102969999Y-103370000D01*
G75*
G02*
X102720000Y-103120001I0J249999D01*
G01*
X102720000Y-102594999D01*
G75*
G02*
X102969999Y-102345000I249999J0D01*
G01*
G37*
%TD*%
%TO.C,R2*%
G36*
G01*
X139719999Y-99257500D02*
X140620001Y-99257500D01*
G75*
G02*
X140870000Y-99507499I0J-249999D01*
G01*
X140870000Y-100032501D01*
G75*
G02*
X140620001Y-100282500I-249999J0D01*
G01*
X139719999Y-100282500D01*
G75*
G02*
X139470000Y-100032501I0J249999D01*
G01*
X139470000Y-99507499D01*
G75*
G02*
X139719999Y-99257500I249999J0D01*
G01*
G37*
G36*
G01*
X139719999Y-97432500D02*
X140620001Y-97432500D01*
G75*
G02*
X140870000Y-97682499I0J-249999D01*
G01*
X140870000Y-98207501D01*
G75*
G02*
X140620001Y-98457500I-249999J0D01*
G01*
X139719999Y-98457500D01*
G75*
G02*
X139470000Y-98207501I0J249999D01*
G01*
X139470000Y-97682499D01*
G75*
G02*
X139719999Y-97432500I249999J0D01*
G01*
G37*
%TD*%
D10*
%TO.C,IC3*%
X157710000Y-104444000D03*
X156440000Y-104444000D03*
X155170000Y-104444000D03*
X153900000Y-104444000D03*
X153900000Y-99020000D03*
X155170000Y-99020000D03*
X156440000Y-99020000D03*
X157710000Y-99020000D03*
%TD*%
%TO.C,IC2*%
X98075000Y-108732000D03*
X96805000Y-108732000D03*
X95535000Y-108732000D03*
X94265000Y-108732000D03*
X94265000Y-103308000D03*
X95535000Y-103308000D03*
X96805000Y-103308000D03*
X98075000Y-103308000D03*
%TD*%
D11*
%TO.C,Q8*%
X125170000Y-121562000D03*
X130720000Y-126412000D03*
X130720000Y-121562000D03*
X125170000Y-126412000D03*
D12*
X125405000Y-114837000D03*
X130485000Y-114837000D03*
%TD*%
D11*
%TO.C,Q7*%
X159620000Y-121562000D03*
X165170000Y-126412000D03*
X165170000Y-121562000D03*
X159620000Y-126412000D03*
D12*
X159855000Y-114837000D03*
X164935000Y-114837000D03*
%TD*%
D11*
%TO.C,Q6*%
X183620000Y-121562000D03*
X189170000Y-126412000D03*
X189170000Y-121562000D03*
X183620000Y-126412000D03*
D12*
X183855000Y-114837000D03*
X188935000Y-114837000D03*
%TD*%
D11*
%TO.C,Q5*%
X91170000Y-121562000D03*
X96720000Y-126412000D03*
X96720000Y-121562000D03*
X91170000Y-126412000D03*
D12*
X91405000Y-114837000D03*
X96485000Y-114837000D03*
%TD*%
D11*
%TO.C,Q4*%
X136620000Y-121562000D03*
X142170000Y-126412000D03*
X142170000Y-121562000D03*
X136620000Y-126412000D03*
D12*
X136855000Y-114837000D03*
X141935000Y-114837000D03*
%TD*%
D11*
%TO.C,Q3*%
X79620000Y-121562000D03*
X85170000Y-126412000D03*
X85170000Y-121562000D03*
X79620000Y-126412000D03*
D12*
X79855000Y-114837000D03*
X84935000Y-114837000D03*
%TD*%
D11*
%TO.C,Q2*%
X171620000Y-121562000D03*
X177170000Y-126412000D03*
X177170000Y-121562000D03*
X171620000Y-126412000D03*
D12*
X171855000Y-114837000D03*
X176935000Y-114837000D03*
%TD*%
D11*
%TO.C,Q1*%
X113620000Y-121562000D03*
X119170000Y-126412000D03*
X119170000Y-121562000D03*
X113620000Y-126412000D03*
D12*
X113855000Y-114837000D03*
X118935000Y-114837000D03*
%TD*%
%TO.C,C1*%
G36*
G01*
X175769999Y-93670000D02*
X177070001Y-93670000D01*
G75*
G02*
X177320000Y-93919999I0J-249999D01*
G01*
X177320000Y-94570001D01*
G75*
G02*
X177070001Y-94820000I-249999J0D01*
G01*
X175769999Y-94820000D01*
G75*
G02*
X175520000Y-94570001I0J249999D01*
G01*
X175520000Y-93919999D01*
G75*
G02*
X175769999Y-93670000I249999J0D01*
G01*
G37*
G36*
G01*
X175769999Y-90720000D02*
X177070001Y-90720000D01*
G75*
G02*
X177320000Y-90969999I0J-249999D01*
G01*
X177320000Y-91620001D01*
G75*
G02*
X177070001Y-91870000I-249999J0D01*
G01*
X175769999Y-91870000D01*
G75*
G02*
X175520000Y-91620001I0J249999D01*
G01*
X175520000Y-90969999D01*
G75*
G02*
X175769999Y-90720000I249999J0D01*
G01*
G37*
%TD*%
%TO.C,C2*%
G36*
G01*
X153403999Y-90995000D02*
X154704001Y-90995000D01*
G75*
G02*
X154954000Y-91244999I0J-249999D01*
G01*
X154954000Y-91895001D01*
G75*
G02*
X154704001Y-92145000I-249999J0D01*
G01*
X153403999Y-92145000D01*
G75*
G02*
X153154000Y-91895001I0J249999D01*
G01*
X153154000Y-91244999D01*
G75*
G02*
X153403999Y-90995000I249999J0D01*
G01*
G37*
G36*
G01*
X153403999Y-93945000D02*
X154704001Y-93945000D01*
G75*
G02*
X154954000Y-94194999I0J-249999D01*
G01*
X154954000Y-94845001D01*
G75*
G02*
X154704001Y-95095000I-249999J0D01*
G01*
X153403999Y-95095000D01*
G75*
G02*
X153154000Y-94845001I0J249999D01*
G01*
X153154000Y-94194999D01*
G75*
G02*
X153403999Y-93945000I249999J0D01*
G01*
G37*
%TD*%
%TO.C,C3*%
G36*
G01*
X181519999Y-93645000D02*
X182820001Y-93645000D01*
G75*
G02*
X183070000Y-93894999I0J-249999D01*
G01*
X183070000Y-94545001D01*
G75*
G02*
X182820001Y-94795000I-249999J0D01*
G01*
X181519999Y-94795000D01*
G75*
G02*
X181270000Y-94545001I0J249999D01*
G01*
X181270000Y-93894999D01*
G75*
G02*
X181519999Y-93645000I249999J0D01*
G01*
G37*
G36*
G01*
X181519999Y-90695000D02*
X182820001Y-90695000D01*
G75*
G02*
X183070000Y-90944999I0J-249999D01*
G01*
X183070000Y-91595001D01*
G75*
G02*
X182820001Y-91845000I-249999J0D01*
G01*
X181519999Y-91845000D01*
G75*
G02*
X181270000Y-91595001I0J249999D01*
G01*
X181270000Y-90944999D01*
G75*
G02*
X181519999Y-90695000I249999J0D01*
G01*
G37*
%TD*%
%TO.C,C4*%
G36*
G01*
X162269999Y-90995000D02*
X163570001Y-90995000D01*
G75*
G02*
X163820000Y-91244999I0J-249999D01*
G01*
X163820000Y-91895001D01*
G75*
G02*
X163570001Y-92145000I-249999J0D01*
G01*
X162269999Y-92145000D01*
G75*
G02*
X162020000Y-91895001I0J249999D01*
G01*
X162020000Y-91244999D01*
G75*
G02*
X162269999Y-90995000I249999J0D01*
G01*
G37*
G36*
G01*
X162269999Y-93945000D02*
X163570001Y-93945000D01*
G75*
G02*
X163820000Y-94194999I0J-249999D01*
G01*
X163820000Y-94845001D01*
G75*
G02*
X163570001Y-95095000I-249999J0D01*
G01*
X162269999Y-95095000D01*
G75*
G02*
X162020000Y-94845001I0J249999D01*
G01*
X162020000Y-94194999D01*
G75*
G02*
X162269999Y-93945000I249999J0D01*
G01*
G37*
%TD*%
%TO.C,C5*%
G36*
G01*
X157975999Y-93945000D02*
X159276001Y-93945000D01*
G75*
G02*
X159526000Y-94194999I0J-249999D01*
G01*
X159526000Y-94845001D01*
G75*
G02*
X159276001Y-95095000I-249999J0D01*
G01*
X157975999Y-95095000D01*
G75*
G02*
X157726000Y-94845001I0J249999D01*
G01*
X157726000Y-94194999D01*
G75*
G02*
X157975999Y-93945000I249999J0D01*
G01*
G37*
G36*
G01*
X157975999Y-90995000D02*
X159276001Y-90995000D01*
G75*
G02*
X159526000Y-91244999I0J-249999D01*
G01*
X159526000Y-91895001D01*
G75*
G02*
X159276001Y-92145000I-249999J0D01*
G01*
X157975999Y-92145000D01*
G75*
G02*
X157726000Y-91895001I0J249999D01*
G01*
X157726000Y-91244999D01*
G75*
G02*
X157975999Y-90995000I249999J0D01*
G01*
G37*
%TD*%
%TO.C,C6*%
G36*
G01*
X145470998Y-90995000D02*
X146771000Y-90995000D01*
G75*
G02*
X147020999Y-91244999I0J-249999D01*
G01*
X147020999Y-91895001D01*
G75*
G02*
X146771000Y-92145000I-249999J0D01*
G01*
X145470998Y-92145000D01*
G75*
G02*
X145220999Y-91895001I0J249999D01*
G01*
X145220999Y-91244999D01*
G75*
G02*
X145470998Y-90995000I249999J0D01*
G01*
G37*
G36*
G01*
X145470998Y-93945000D02*
X146771000Y-93945000D01*
G75*
G02*
X147020999Y-94194999I0J-249999D01*
G01*
X147020999Y-94845001D01*
G75*
G02*
X146771000Y-95095000I-249999J0D01*
G01*
X145470998Y-95095000D01*
G75*
G02*
X145220999Y-94845001I0J249999D01*
G01*
X145220999Y-94194999D01*
G75*
G02*
X145470998Y-93945000I249999J0D01*
G01*
G37*
%TD*%
%TO.C,C7*%
G36*
G01*
X184019999Y-93645000D02*
X185320001Y-93645000D01*
G75*
G02*
X185570000Y-93894999I0J-249999D01*
G01*
X185570000Y-94545001D01*
G75*
G02*
X185320001Y-94795000I-249999J0D01*
G01*
X184019999Y-94795000D01*
G75*
G02*
X183770000Y-94545001I0J249999D01*
G01*
X183770000Y-93894999D01*
G75*
G02*
X184019999Y-93645000I249999J0D01*
G01*
G37*
G36*
G01*
X184019999Y-90695000D02*
X185320001Y-90695000D01*
G75*
G02*
X185570000Y-90944999I0J-249999D01*
G01*
X185570000Y-91595001D01*
G75*
G02*
X185320001Y-91845000I-249999J0D01*
G01*
X184019999Y-91845000D01*
G75*
G02*
X183770000Y-91595001I0J249999D01*
G01*
X183770000Y-90944999D01*
G75*
G02*
X184019999Y-90695000I249999J0D01*
G01*
G37*
%TD*%
%TO.C,C8*%
G36*
G01*
X149339999Y-90995000D02*
X150640001Y-90995000D01*
G75*
G02*
X150890000Y-91244999I0J-249999D01*
G01*
X150890000Y-91895001D01*
G75*
G02*
X150640001Y-92145000I-249999J0D01*
G01*
X149339999Y-92145000D01*
G75*
G02*
X149090000Y-91895001I0J249999D01*
G01*
X149090000Y-91244999D01*
G75*
G02*
X149339999Y-90995000I249999J0D01*
G01*
G37*
G36*
G01*
X149339999Y-93945000D02*
X150640001Y-93945000D01*
G75*
G02*
X150890000Y-94194999I0J-249999D01*
G01*
X150890000Y-94845001D01*
G75*
G02*
X150640001Y-95095000I-249999J0D01*
G01*
X149339999Y-95095000D01*
G75*
G02*
X149090000Y-94845001I0J249999D01*
G01*
X149090000Y-94194999D01*
G75*
G02*
X149339999Y-93945000I249999J0D01*
G01*
G37*
%TD*%
%TO.C,C9*%
G36*
G01*
X178769999Y-93645000D02*
X180070001Y-93645000D01*
G75*
G02*
X180320000Y-93894999I0J-249999D01*
G01*
X180320000Y-94545001D01*
G75*
G02*
X180070001Y-94795000I-249999J0D01*
G01*
X178769999Y-94795000D01*
G75*
G02*
X178520000Y-94545001I0J249999D01*
G01*
X178520000Y-93894999D01*
G75*
G02*
X178769999Y-93645000I249999J0D01*
G01*
G37*
G36*
G01*
X178769999Y-90695000D02*
X180070001Y-90695000D01*
G75*
G02*
X180320000Y-90944999I0J-249999D01*
G01*
X180320000Y-91595001D01*
G75*
G02*
X180070001Y-91845000I-249999J0D01*
G01*
X178769999Y-91845000D01*
G75*
G02*
X178520000Y-91595001I0J249999D01*
G01*
X178520000Y-90944999D01*
G75*
G02*
X178769999Y-90695000I249999J0D01*
G01*
G37*
%TD*%
%TO.C,C10*%
G36*
G01*
X141211999Y-90995000D02*
X142512001Y-90995000D01*
G75*
G02*
X142762000Y-91244999I0J-249999D01*
G01*
X142762000Y-91895001D01*
G75*
G02*
X142512001Y-92145000I-249999J0D01*
G01*
X141211999Y-92145000D01*
G75*
G02*
X140962000Y-91895001I0J249999D01*
G01*
X140962000Y-91244999D01*
G75*
G02*
X141211999Y-90995000I249999J0D01*
G01*
G37*
G36*
G01*
X141211999Y-93945000D02*
X142512001Y-93945000D01*
G75*
G02*
X142762000Y-94194999I0J-249999D01*
G01*
X142762000Y-94845001D01*
G75*
G02*
X142512001Y-95095000I-249999J0D01*
G01*
X141211999Y-95095000D01*
G75*
G02*
X140962000Y-94845001I0J249999D01*
G01*
X140962000Y-94194999D01*
G75*
G02*
X141211999Y-93945000I249999J0D01*
G01*
G37*
%TD*%
D13*
%TO.C,D1*%
X189020000Y-103980000D03*
X189020000Y-109060000D03*
D14*
X200595000Y-109295000D03*
X195745000Y-103745000D03*
X200595000Y-103745000D03*
X195745000Y-109295000D03*
%TD*%
D13*
%TO.C,D3*%
X189043000Y-92480000D03*
X189043000Y-97560000D03*
D14*
X200618000Y-97795000D03*
X195768000Y-92245000D03*
X200618000Y-92245000D03*
X195768000Y-97795000D03*
%TD*%
D10*
%TO.C,IC1*%
X138075000Y-96308000D03*
X136805000Y-96308000D03*
X135535000Y-96308000D03*
X134265000Y-96308000D03*
X134265000Y-101732000D03*
X135535000Y-101732000D03*
X136805000Y-101732000D03*
X138075000Y-101732000D03*
%TD*%
D15*
%TO.C,R1*%
X111770000Y-90073000D03*
D16*
X109445000Y-90073000D03*
X109445000Y-87967000D03*
D15*
X111770000Y-87967000D03*
%TD*%
M02*
