M48
; DRILL file {KiCad (5.1.9)-1} date 02/05/21 08:09:50
; FORMAT={-:-/ absolute / inch / decimal}
; #@! TF.CreationDate,2021-02-05T08:09:50+01:00
; #@! TF.GenerationSoftware,Kicad,Pcbnew,(5.1.9)-1
; #@! TF.FileFunction,Plated,1,2,PTH
FMAT,2
INCH
T1C0.0157
T2C0.0315
T3C0.0374
T4C0.0394
T5C0.0787
T6C0.1260
%
G90
G05
T1
X1.9724Y-0.9134
X2.0846Y-2.3248
X2.1437Y-1.0256
X2.1496Y-1.3622
X2.2697Y-1.6122
X2.2736Y-1.3327
X2.2776Y-2.0354
X2.31Y-2.2854
X2.315Y-2.4626
X2.3248Y-2.1969
X2.3346Y-2.0413
X2.4774Y-1.2224
X2.4843Y-1.7008
X2.5059Y-1.3091
X2.563Y-2.4016
X2.5772Y-1.4631
X2.5846Y-2.3307
X2.6102Y-2.002
X2.6831Y-1.5354
X2.7165Y-1.252
X2.7185Y-1.5925
X2.7598Y-2.1063
X2.7913Y-2.9272
X2.8435Y-1.467
X3.2185Y-1.9744
T2
X1.9803Y-1.2024
X1.9803Y-1.3024
X1.9803Y-1.4024
X1.9803Y-1.5024
X1.9803Y-1.6024
X1.9803Y-1.7024
X1.9803Y-1.8024
X1.9803Y-1.9024
X1.9803Y-2.0024
X1.9803Y-2.1024
X1.9803Y-2.2024
X1.9803Y-2.3024
X1.9803Y-2.4024
X1.9803Y-2.5024
X1.9803Y-2.6024
X1.9803Y-2.7024
X1.9803Y-2.8024
X1.9803Y-2.9024
X1.9803Y-3.0024
X2.9803Y-1.2024
X2.9803Y-1.3024
X2.9803Y-1.4024
X2.9803Y-1.5024
X2.9803Y-1.6024
X2.9803Y-1.7024
X2.9803Y-1.8024
X2.9803Y-1.9024
X2.9803Y-2.0024
X2.9803Y-2.1024
X2.9803Y-2.2024
X2.9803Y-2.3024
X2.9803Y-2.4024
X2.9803Y-2.5024
X2.9803Y-2.6024
X2.9803Y-2.7024
X2.9803Y-2.8024
X2.9803Y-2.9024
X2.9803Y-3.0024
T3
X0.9547Y-0.9646
X1.0531Y-0.9646
X1.1516Y-0.9646
X1.1654Y-1.6614
X1.1654Y-1.7598
X1.1654Y-1.8583
X1.1654Y-1.9567
X1.1654Y-2.0551
X1.1654Y-2.1535
X1.1654Y-2.252
X1.1654Y-2.3504
X1.25Y-0.9646
X1.3681Y-2.6909
X1.4665Y-2.6909
X1.565Y-2.6909
X1.6634Y-2.6909
X1.7618Y-2.6909
X2.2205Y-0.9626
X2.3189Y-0.9626
X2.4173Y-0.9626
X2.5157Y-0.9626
X2.6142Y-0.9626
X2.7126Y-0.9626
X2.811Y-0.9626
X2.9094Y-0.9626
X3.0079Y-0.9626
X3.2185Y-1.6122
X3.2185Y-1.7106
X3.2185Y-1.8091
T4
X1.4587Y-1.4724
X1.4941Y-1.8543
X1.4941Y-2.4252
X1.5925Y-2.4252
X1.6909Y-1.8543
X1.6909Y-2.4252
X1.7382Y-0.9311
X1.7382Y-1.128
X1.7579Y-1.4724
T6
X1.0256Y-1.3287
X1.0315Y-2.8189
X3.2067Y-1.3287
X3.2106Y-2.9173
T5
G00X1.372Y-2.1398
M15
G01X1.372Y-2.1201
M16
G05
G00X1.813Y-2.1398
M15
G01X1.813Y-2.1201
M16
G05
T0
M30
