%TF.GenerationSoftware,KiCad,Pcbnew,(5.1.9)-1*%
%TF.CreationDate,2021-02-05T08:09:49+01:00*%
%TF.ProjectId,Spotwelderix-controlboard,53706f74-7765-46c6-9465-7269782d636f,v01*%
%TF.SameCoordinates,Original*%
%TF.FileFunction,Legend,Top*%
%TF.FilePolarity,Positive*%
%FSLAX46Y46*%
G04 Gerber Fmt 4.6, Leading zero omitted, Abs format (unit mm)*
G04 Created by KiCad (PCBNEW (5.1.9)-1) date 2021-02-05 08:09:49*
%MOMM*%
%LPD*%
G01*
G04 APERTURE LIST*
%ADD10C,0.100000*%
%ADD11C,0.300000*%
%ADD12C,0.120000*%
%ADD13C,0.150000*%
G04 APERTURE END LIST*
D10*
X84702380Y-37242857D02*
X84702380Y-37719047D01*
X83702380Y-37719047D01*
X84178571Y-36909523D02*
X84178571Y-36576190D01*
X84702380Y-36433333D02*
X84702380Y-36909523D01*
X83702380Y-36909523D01*
X83702380Y-36433333D01*
X84702380Y-36004761D02*
X83702380Y-36004761D01*
X83702380Y-35766666D01*
X83750000Y-35623809D01*
X83845238Y-35528571D01*
X83940476Y-35480952D01*
X84130952Y-35433333D01*
X84273809Y-35433333D01*
X84464285Y-35480952D01*
X84559523Y-35528571D01*
X84654761Y-35623809D01*
X84702380Y-35766666D01*
X84702380Y-36004761D01*
X21242857Y-77128571D02*
X21576190Y-77128571D01*
X21719047Y-77652380D02*
X21242857Y-77652380D01*
X21242857Y-76652380D01*
X21719047Y-76652380D01*
X22052380Y-77652380D02*
X22576190Y-76985714D01*
X22052380Y-76985714D02*
X22576190Y-77652380D01*
X22814285Y-76985714D02*
X23195238Y-76985714D01*
X22957142Y-76652380D02*
X22957142Y-77509523D01*
X23004761Y-77604761D01*
X23100000Y-77652380D01*
X23195238Y-77652380D01*
X23528571Y-77652380D02*
X23528571Y-76652380D01*
X23909523Y-76652380D01*
X24004761Y-76700000D01*
X24052380Y-76747619D01*
X24100000Y-76842857D01*
X24100000Y-76985714D01*
X24052380Y-77080952D01*
X24004761Y-77128571D01*
X23909523Y-77176190D01*
X23528571Y-77176190D01*
X24433333Y-76985714D02*
X24623809Y-77652380D01*
X24814285Y-77176190D01*
X25004761Y-77652380D01*
X25195238Y-76985714D01*
X25576190Y-77652380D02*
X25576190Y-76985714D01*
X25576190Y-77176190D02*
X25623809Y-77080952D01*
X25671428Y-77033333D01*
X25766666Y-76985714D01*
X25861904Y-76985714D01*
X26195238Y-77271428D02*
X26957142Y-77271428D01*
X27766666Y-77128571D02*
X27433333Y-77128571D01*
X27433333Y-77652380D02*
X27433333Y-76652380D01*
X27909523Y-76652380D01*
X28147619Y-76985714D02*
X28528571Y-76985714D01*
X28290476Y-76652380D02*
X28290476Y-77509523D01*
X28338095Y-77604761D01*
X28433333Y-77652380D01*
X28528571Y-77652380D01*
X28814285Y-77604761D02*
X28957142Y-77652380D01*
X29195238Y-77652380D01*
X29290476Y-77604761D01*
X29338095Y-77557142D01*
X29385714Y-77461904D01*
X29385714Y-77366666D01*
X29338095Y-77271428D01*
X29290476Y-77223809D01*
X29195238Y-77176190D01*
X29004761Y-77128571D01*
X28909523Y-77080952D01*
X28861904Y-77033333D01*
X28814285Y-76938095D01*
X28814285Y-76842857D01*
X28861904Y-76747619D01*
X28909523Y-76700000D01*
X29004761Y-76652380D01*
X29242857Y-76652380D01*
X29385714Y-76700000D01*
X29719047Y-76985714D02*
X29909523Y-77652380D01*
X30100000Y-77176190D01*
X30290476Y-77652380D01*
X30480952Y-76985714D01*
X30719047Y-76985714D02*
X31099999Y-76985714D01*
X30861904Y-76652380D02*
X30861904Y-77509523D01*
X30909523Y-77604761D01*
X31004761Y-77652380D01*
X31099999Y-77652380D01*
X21297619Y-64002380D02*
X21297619Y-63002380D01*
X21535714Y-63002380D01*
X21678571Y-63050000D01*
X21773809Y-63145238D01*
X21821428Y-63240476D01*
X21869047Y-63430952D01*
X21869047Y-63573809D01*
X21821428Y-63764285D01*
X21773809Y-63859523D01*
X21678571Y-63954761D01*
X21535714Y-64002380D01*
X21297619Y-64002380D01*
X22297619Y-64002380D02*
X22297619Y-63335714D01*
X22297619Y-63002380D02*
X22250000Y-63050000D01*
X22297619Y-63097619D01*
X22345238Y-63050000D01*
X22297619Y-63002380D01*
X22297619Y-63097619D01*
X22726190Y-63954761D02*
X22821428Y-64002380D01*
X23011904Y-64002380D01*
X23107142Y-63954761D01*
X23154761Y-63859523D01*
X23154761Y-63811904D01*
X23107142Y-63716666D01*
X23011904Y-63669047D01*
X22869047Y-63669047D01*
X22773809Y-63621428D01*
X22726190Y-63526190D01*
X22726190Y-63478571D01*
X22773809Y-63383333D01*
X22869047Y-63335714D01*
X23011904Y-63335714D01*
X23107142Y-63383333D01*
X23583333Y-63335714D02*
X23583333Y-64335714D01*
X23583333Y-63383333D02*
X23678571Y-63335714D01*
X23869047Y-63335714D01*
X23964285Y-63383333D01*
X24011904Y-63430952D01*
X24059523Y-63526190D01*
X24059523Y-63811904D01*
X24011904Y-63907142D01*
X23964285Y-63954761D01*
X23869047Y-64002380D01*
X23678571Y-64002380D01*
X23583333Y-63954761D01*
X24630952Y-64002380D02*
X24535714Y-63954761D01*
X24488095Y-63859523D01*
X24488095Y-63002380D01*
X25440476Y-64002380D02*
X25440476Y-63478571D01*
X25392857Y-63383333D01*
X25297619Y-63335714D01*
X25107142Y-63335714D01*
X25011904Y-63383333D01*
X25440476Y-63954761D02*
X25345238Y-64002380D01*
X25107142Y-64002380D01*
X25011904Y-63954761D01*
X24964285Y-63859523D01*
X24964285Y-63764285D01*
X25011904Y-63669047D01*
X25107142Y-63621428D01*
X25345238Y-63621428D01*
X25440476Y-63573809D01*
X25821428Y-63335714D02*
X26059523Y-64002380D01*
X26297619Y-63335714D02*
X26059523Y-64002380D01*
X25964285Y-64240476D01*
X25916666Y-64288095D01*
X25821428Y-64335714D01*
D11*
X48857142Y-79150000D02*
X49571428Y-79150000D01*
X48714285Y-79578571D02*
X49214285Y-78078571D01*
X49714285Y-79578571D01*
X50214285Y-78578571D02*
X50214285Y-79578571D01*
X50214285Y-78721428D02*
X50285714Y-78650000D01*
X50428571Y-78578571D01*
X50642857Y-78578571D01*
X50785714Y-78650000D01*
X50857142Y-78792857D01*
X50857142Y-79578571D01*
X51357142Y-78578571D02*
X51928571Y-78578571D01*
X51571428Y-78078571D02*
X51571428Y-79364285D01*
X51642857Y-79507142D01*
X51785714Y-79578571D01*
X51928571Y-79578571D01*
X53000000Y-79507142D02*
X52857142Y-79578571D01*
X52571428Y-79578571D01*
X52428571Y-79507142D01*
X52357142Y-79364285D01*
X52357142Y-78792857D01*
X52428571Y-78650000D01*
X52571428Y-78578571D01*
X52857142Y-78578571D01*
X53000000Y-78650000D01*
X53071428Y-78792857D01*
X53071428Y-78935714D01*
X52357142Y-79078571D01*
X53714285Y-78578571D02*
X53714285Y-79578571D01*
X53714285Y-78721428D02*
X53785714Y-78650000D01*
X53928571Y-78578571D01*
X54142857Y-78578571D01*
X54285714Y-78650000D01*
X54357142Y-78792857D01*
X54357142Y-79578571D01*
X55071428Y-78578571D02*
X55071428Y-79578571D01*
X55071428Y-78721428D02*
X55142857Y-78650000D01*
X55285714Y-78578571D01*
X55499999Y-78578571D01*
X55642857Y-78650000D01*
X55714285Y-78792857D01*
X55714285Y-79578571D01*
X57071428Y-79578571D02*
X57071428Y-78792857D01*
X57000000Y-78650000D01*
X56857142Y-78578571D01*
X56571428Y-78578571D01*
X56428571Y-78650000D01*
X57071428Y-79507142D02*
X56928571Y-79578571D01*
X56571428Y-79578571D01*
X56428571Y-79507142D01*
X56357142Y-79364285D01*
X56357142Y-79221428D01*
X56428571Y-79078571D01*
X56571428Y-79007142D01*
X56928571Y-79007142D01*
X57071428Y-78935714D01*
X83157142Y-69204285D02*
X83228571Y-68998928D01*
X83228571Y-68641785D01*
X83157142Y-68490000D01*
X83085714Y-68409642D01*
X82942857Y-68320357D01*
X82800000Y-68302500D01*
X82657142Y-68356071D01*
X82585714Y-68418571D01*
X82514285Y-68552500D01*
X82442857Y-68829285D01*
X82371428Y-68963214D01*
X82300000Y-69025714D01*
X82157142Y-69079285D01*
X82014285Y-69061428D01*
X81871428Y-68972142D01*
X81800000Y-68891785D01*
X81728571Y-68740000D01*
X81728571Y-68382857D01*
X81800000Y-68177500D01*
X82228571Y-67588214D02*
X83728571Y-67775714D01*
X82300000Y-67597142D02*
X82228571Y-67445357D01*
X82228571Y-67159642D01*
X82300000Y-67025714D01*
X82371428Y-66963214D01*
X82514285Y-66909642D01*
X82942857Y-66963214D01*
X83085714Y-67052500D01*
X83157142Y-67132857D01*
X83228571Y-67284642D01*
X83228571Y-67570357D01*
X83157142Y-67704285D01*
X83228571Y-66141785D02*
X83157142Y-66275714D01*
X83085714Y-66338214D01*
X82942857Y-66391785D01*
X82514285Y-66338214D01*
X82371428Y-66248928D01*
X82300000Y-66168571D01*
X82228571Y-66016785D01*
X82228571Y-65802500D01*
X82300000Y-65668571D01*
X82371428Y-65606071D01*
X82514285Y-65552500D01*
X82942857Y-65606071D01*
X83085714Y-65695357D01*
X83157142Y-65775714D01*
X83228571Y-65927500D01*
X83228571Y-66141785D01*
X82228571Y-65088214D02*
X82228571Y-64516785D01*
X81728571Y-64811428D02*
X83014285Y-64972142D01*
X83157142Y-64918571D01*
X83228571Y-64784642D01*
X83228571Y-64641785D01*
X82228571Y-64159642D02*
X83228571Y-63998928D01*
X82514285Y-63623928D01*
X83228571Y-63427500D01*
X82228571Y-63016785D01*
X83157142Y-61990000D02*
X83228571Y-62141785D01*
X83228571Y-62427500D01*
X83157142Y-62561428D01*
X83014285Y-62615000D01*
X82442857Y-62543571D01*
X82300000Y-62454285D01*
X82228571Y-62302500D01*
X82228571Y-62016785D01*
X82300000Y-61882857D01*
X82442857Y-61829285D01*
X82585714Y-61847142D01*
X82728571Y-62579285D01*
X83228571Y-61070357D02*
X83157142Y-61204285D01*
X83014285Y-61257857D01*
X81728571Y-61097142D01*
X83228571Y-59856071D02*
X81728571Y-59668571D01*
X83157142Y-59847142D02*
X83228571Y-59998928D01*
X83228571Y-60284642D01*
X83157142Y-60418571D01*
X83085714Y-60481071D01*
X82942857Y-60534642D01*
X82514285Y-60481071D01*
X82371428Y-60391785D01*
X82300000Y-60311428D01*
X82228571Y-60159642D01*
X82228571Y-59873928D01*
X82300000Y-59740000D01*
X83157142Y-58561428D02*
X83228571Y-58713214D01*
X83228571Y-58998928D01*
X83157142Y-59132857D01*
X83014285Y-59186428D01*
X82442857Y-59115000D01*
X82300000Y-59025714D01*
X82228571Y-58873928D01*
X82228571Y-58588214D01*
X82300000Y-58454285D01*
X82442857Y-58400714D01*
X82585714Y-58418571D01*
X82728571Y-59150714D01*
X83228571Y-57856071D02*
X82228571Y-57731071D01*
X82514285Y-57766785D02*
X82371428Y-57677500D01*
X82300000Y-57597142D01*
X82228571Y-57445357D01*
X82228571Y-57302500D01*
X83228571Y-56927500D02*
X82228571Y-56802500D01*
X81728571Y-56740000D02*
X81800000Y-56820357D01*
X81871428Y-56757857D01*
X81800000Y-56677500D01*
X81728571Y-56740000D01*
X81871428Y-56757857D01*
X83228571Y-56356071D02*
X82228571Y-55445357D01*
X82228571Y-56231071D02*
X83228571Y-55570357D01*
X82228571Y-53873928D02*
X83228571Y-53641785D01*
X82228571Y-53159642D01*
X81728571Y-52240000D02*
X81728571Y-52097142D01*
X81800000Y-51963214D01*
X81871428Y-51900714D01*
X82014285Y-51847142D01*
X82300000Y-51811428D01*
X82657142Y-51856071D01*
X82942857Y-51963214D01*
X83085714Y-52052500D01*
X83157142Y-52132857D01*
X83228571Y-52284642D01*
X83228571Y-52427500D01*
X83157142Y-52561428D01*
X83085714Y-52623928D01*
X82942857Y-52677500D01*
X82657142Y-52713214D01*
X82300000Y-52668571D01*
X82014285Y-52561428D01*
X81871428Y-52472142D01*
X81800000Y-52391785D01*
X81728571Y-52240000D01*
X83228571Y-50498928D02*
X83228571Y-51356071D01*
X83228571Y-50927500D02*
X81728571Y-50740000D01*
X81942857Y-50909642D01*
X82085714Y-51070357D01*
X82157142Y-51222142D01*
D12*
%TO.C,ENC1*%
X40450000Y-54600000D02*
X40450000Y-53600000D01*
X39950000Y-54100000D02*
X40950000Y-54100000D01*
X44150000Y-47400000D02*
X46750000Y-47400000D01*
X39150000Y-47400000D02*
X41750000Y-47400000D01*
X34150000Y-47400000D02*
X36750000Y-47400000D01*
X36350000Y-61300000D02*
X36650000Y-61600000D01*
X36350000Y-61900000D02*
X36350000Y-61300000D01*
X36650000Y-61600000D02*
X36350000Y-61900000D01*
X34150000Y-60800000D02*
X36650000Y-60800000D01*
X34150000Y-56000000D02*
X34150000Y-60800000D01*
X46750000Y-60800000D02*
X43950000Y-60800000D01*
X46750000Y-55900000D02*
X46750000Y-60800000D01*
X46750000Y-47400000D02*
X46750000Y-52300000D01*
X34150000Y-52300000D02*
X34150000Y-47400000D01*
X43450000Y-54100000D02*
G75*
G03*
X43450000Y-54100000I-3000000J0D01*
G01*
%TO.C,U1*%
X67733333Y-82440000D02*
X77199999Y-82440000D01*
X67733333Y-82080000D02*
X67733333Y-82440000D01*
X58266667Y-82080000D02*
X67733333Y-82080000D01*
X58266667Y-82440000D02*
X58266667Y-82080000D01*
X48800000Y-82440000D02*
X58266667Y-82440000D01*
X48800001Y-26900000D02*
X48800000Y-82440000D01*
X77200000Y-26900000D02*
X48800001Y-26900000D01*
X77199999Y-82440000D02*
X77200000Y-26900000D01*
%TO.C,P1*%
X31700000Y-42500000D02*
X31100000Y-42200000D01*
X31700000Y-41900000D02*
X31700000Y-42500000D01*
X31100000Y-42200000D02*
X31700000Y-41900000D01*
X26400000Y-59950000D02*
X26400000Y-59450000D01*
X20900000Y-59950000D02*
X26400000Y-59950000D01*
X20900000Y-59450000D02*
X20900000Y-59950000D01*
X26400000Y-59450000D02*
X20900000Y-59450000D01*
X26400000Y-57450000D02*
X26400000Y-56950000D01*
X20900000Y-57450000D02*
X26400000Y-57450000D01*
X20900000Y-56950000D02*
X20900000Y-57450000D01*
X26400000Y-56950000D02*
X20900000Y-56950000D01*
X26400000Y-54950000D02*
X26400000Y-54450000D01*
X20900000Y-54950000D02*
X26400000Y-54950000D01*
X20900000Y-54450000D02*
X20900000Y-54950000D01*
X26400000Y-54450000D02*
X20900000Y-54450000D01*
X26400000Y-52450000D02*
X26400000Y-51950000D01*
X20900000Y-52450000D02*
X26400000Y-52450000D01*
X20900000Y-51950000D02*
X20900000Y-52450000D01*
X26400000Y-51950000D02*
X20900000Y-51950000D01*
X26400000Y-49950000D02*
X26400000Y-49450000D01*
X20900000Y-49950000D02*
X26400000Y-49950000D01*
X20900000Y-49450000D02*
X20900000Y-49950000D01*
X26400000Y-49450000D02*
X20900000Y-49450000D01*
X26400000Y-47450000D02*
X26400000Y-46950000D01*
X20900000Y-47450000D02*
X26400000Y-47450000D01*
X20900000Y-46950000D02*
X20900000Y-47450000D01*
X26400000Y-46950000D02*
X20900000Y-46950000D01*
X26400000Y-44950000D02*
X26400000Y-44450000D01*
X20900000Y-44950000D02*
X26400000Y-44950000D01*
X20900000Y-44450000D02*
X20900000Y-44950000D01*
X26400000Y-44450000D02*
X20900000Y-44450000D01*
X26400000Y-42450000D02*
X26400000Y-41950000D01*
X20900000Y-42450000D02*
X26400000Y-42450000D01*
X20900000Y-41950000D02*
X20900000Y-42450000D01*
X26400000Y-41950000D02*
X20900000Y-41950000D01*
X27510000Y-60840000D02*
X27510000Y-50950000D01*
X32010000Y-60840000D02*
X27510000Y-60840000D01*
X32010000Y-62260000D02*
X32010000Y-60840000D01*
X20290000Y-62260000D02*
X32010000Y-62260000D01*
X20290000Y-50950000D02*
X20290000Y-62260000D01*
X27510000Y-41060000D02*
X27510000Y-50950000D01*
X32010000Y-41060000D02*
X27510000Y-41060000D01*
X32010000Y-39640000D02*
X32010000Y-41060000D01*
X20290000Y-39640000D02*
X32010000Y-39640000D01*
X20290000Y-50950000D02*
X20290000Y-39640000D01*
%TO.C,R14*%
X29710436Y-67235000D02*
X30164564Y-67235000D01*
X29710436Y-65765000D02*
X30164564Y-65765000D01*
%TO.C,R12*%
X79285436Y-56835000D02*
X79739564Y-56835000D01*
X79285436Y-55365000D02*
X79739564Y-55365000D01*
%TO.C,R11*%
X45910436Y-65235000D02*
X46364564Y-65235000D01*
X45910436Y-63765000D02*
X46364564Y-63765000D01*
%TO.C,Q5*%
X55860000Y-33480000D02*
X54400000Y-33480000D01*
X55860000Y-30320000D02*
X53700000Y-30320000D01*
X55860000Y-30320000D02*
X55860000Y-31250000D01*
X55860000Y-33480000D02*
X55860000Y-32550000D01*
%TO.C,Q2*%
X60190000Y-43770000D02*
X61650000Y-43770000D01*
X60190000Y-46930000D02*
X62350000Y-46930000D01*
X60190000Y-46930000D02*
X60190000Y-46000000D01*
X60190000Y-43770000D02*
X60190000Y-44700000D01*
%TO.C,Q1*%
X54040000Y-60870000D02*
X55500000Y-60870000D01*
X54040000Y-64030000D02*
X56200000Y-64030000D01*
X54040000Y-64030000D02*
X54040000Y-63100000D01*
X54040000Y-60870000D02*
X54040000Y-61800000D01*
%TO.C,J1*%
X35050000Y-66250000D02*
X34750000Y-66850000D01*
X34450000Y-66250000D02*
X35050000Y-66250000D01*
X34750000Y-66850000D02*
X34450000Y-66250000D01*
X45000000Y-71550000D02*
X44500000Y-71550000D01*
X45000000Y-77050000D02*
X45000000Y-71550000D01*
X44500000Y-77050000D02*
X45000000Y-77050000D01*
X44500000Y-71550000D02*
X44500000Y-77050000D01*
X42500000Y-71550000D02*
X42000000Y-71550000D01*
X42500000Y-77050000D02*
X42500000Y-71550000D01*
X42000000Y-77050000D02*
X42500000Y-77050000D01*
X42000000Y-71550000D02*
X42000000Y-77050000D01*
X40000000Y-71550000D02*
X39500000Y-71550000D01*
X40000000Y-77050000D02*
X40000000Y-71550000D01*
X39500000Y-77050000D02*
X40000000Y-77050000D01*
X39500000Y-71550000D02*
X39500000Y-77050000D01*
X37500000Y-71550000D02*
X37000000Y-71550000D01*
X37500000Y-77050000D02*
X37500000Y-71550000D01*
X37000000Y-77050000D02*
X37500000Y-77050000D01*
X37000000Y-71550000D02*
X37000000Y-77050000D01*
X35000000Y-71550000D02*
X34500000Y-71550000D01*
X35000000Y-77050000D02*
X35000000Y-71550000D01*
X34500000Y-77050000D02*
X35000000Y-77050000D01*
X34500000Y-71550000D02*
X34500000Y-77050000D01*
X45890000Y-70440000D02*
X39750000Y-70440000D01*
X45890000Y-65940000D02*
X45890000Y-70440000D01*
X47310000Y-65940000D02*
X45890000Y-65940000D01*
X47310000Y-77660000D02*
X47310000Y-65940000D01*
X39750000Y-77660000D02*
X47310000Y-77660000D01*
X33610000Y-70440000D02*
X39750000Y-70440000D01*
X33610000Y-65940000D02*
X33610000Y-70440000D01*
X32190000Y-65940000D02*
X33610000Y-65940000D01*
X32190000Y-77660000D02*
X32190000Y-65940000D01*
X39750000Y-77660000D02*
X32190000Y-77660000D01*
%TO.C,C7*%
X29688748Y-64935000D02*
X30211252Y-64935000D01*
X29688748Y-63465000D02*
X30211252Y-63465000D01*
%TO.C,J2*%
X84500000Y-38100000D02*
X83250000Y-38100000D01*
X84500000Y-39350000D02*
X84500000Y-38100000D01*
X79000000Y-47750000D02*
X79000000Y-43450000D01*
X81950000Y-47750000D02*
X79000000Y-47750000D01*
X81950000Y-48500000D02*
X81950000Y-47750000D01*
X79000000Y-39150000D02*
X79000000Y-43450000D01*
X81950000Y-39150000D02*
X79000000Y-39150000D01*
X81950000Y-38400000D02*
X81950000Y-39150000D01*
X84200000Y-48500000D02*
X84200000Y-46700000D01*
X83450000Y-48500000D02*
X84200000Y-48500000D01*
X83450000Y-46700000D02*
X83450000Y-48500000D01*
X84200000Y-46700000D02*
X83450000Y-46700000D01*
X84200000Y-40200000D02*
X84200000Y-38400000D01*
X83450000Y-40200000D02*
X84200000Y-40200000D01*
X83450000Y-38400000D02*
X83450000Y-40200000D01*
X84200000Y-38400000D02*
X83450000Y-38400000D01*
X84200000Y-45200000D02*
X84200000Y-41700000D01*
X83450000Y-45200000D02*
X84200000Y-45200000D01*
X83450000Y-41700000D02*
X83450000Y-45200000D01*
X84200000Y-41700000D02*
X83450000Y-41700000D01*
X84210000Y-48510000D02*
X84210000Y-38390000D01*
X78240000Y-48510000D02*
X84210000Y-48510000D01*
X78240000Y-38390000D02*
X78240000Y-48510000D01*
X84210000Y-38390000D02*
X78240000Y-38390000D01*
%TO.C,D3*%
X41800000Y-26300000D02*
X36400000Y-26300000D01*
X41800000Y-23000000D02*
X36400000Y-23000000D01*
X41800000Y-26300000D02*
X41800000Y-23000000D01*
%TO.C,D2*%
X53300000Y-26200000D02*
X53300000Y-22900000D01*
X53300000Y-22900000D02*
X47900000Y-22900000D01*
X53300000Y-26200000D02*
X47900000Y-26200000D01*
%TO.C,BZ1*%
X48450000Y-37400000D02*
G75*
G03*
X48450000Y-37400000I-7600000J0D01*
G01*
%TO.C,R1*%
X56064564Y-50785000D02*
X55610436Y-50785000D01*
X56064564Y-49315000D02*
X55610436Y-49315000D01*
%TO.C,C5*%
X60913748Y-60040000D02*
X62336252Y-60040000D01*
X60913748Y-61860000D02*
X62336252Y-61860000D01*
%TO.C,R3*%
X55977064Y-58785000D02*
X55522936Y-58785000D01*
X55977064Y-57315000D02*
X55522936Y-57315000D01*
%TO.C,C3*%
X61011252Y-58785000D02*
X60488748Y-58785000D01*
X61011252Y-57315000D02*
X60488748Y-57315000D01*
%TO.C,C2*%
X60438748Y-53315000D02*
X60961252Y-53315000D01*
X60438748Y-54785000D02*
X60961252Y-54785000D01*
%TO.C,C1*%
X61011252Y-50785000D02*
X60488748Y-50785000D01*
X61011252Y-49315000D02*
X60488748Y-49315000D01*
%TO.C,R2*%
X56064564Y-54785000D02*
X55610436Y-54785000D01*
X56064564Y-53315000D02*
X55610436Y-53315000D01*
%TO.C,R6*%
X68163000Y-31671436D02*
X68163000Y-32125564D01*
X66693000Y-31671436D02*
X66693000Y-32125564D01*
%TO.C,C6*%
X79238748Y-51535000D02*
X79761252Y-51535000D01*
X79238748Y-50065000D02*
X79761252Y-50065000D01*
%TO.C,R9*%
X70923000Y-36122436D02*
X70923000Y-36576564D01*
X69453000Y-36122436D02*
X69453000Y-36576564D01*
%TO.C,U3*%
X68190000Y-69525000D02*
X68190000Y-68025000D01*
X68190000Y-68025000D02*
X66380000Y-68025000D01*
X66380000Y-68025000D02*
X66380000Y-62900000D01*
X57790000Y-69525000D02*
X57790000Y-68025000D01*
X57790000Y-68025000D02*
X59600000Y-68025000D01*
X59600000Y-68025000D02*
X59600000Y-66925000D01*
%TO.C,R8*%
X70923000Y-31620936D02*
X70923000Y-32075064D01*
X69453000Y-31620936D02*
X69453000Y-32075064D01*
%TO.C,R7*%
X68163000Y-36022436D02*
X68163000Y-36476564D01*
X66693000Y-36022436D02*
X66693000Y-36476564D01*
%TO.C,ENC1*%
D13*
X31478571Y-62114285D02*
X31478571Y-61780952D01*
X32002380Y-61638095D02*
X32002380Y-62114285D01*
X31002380Y-62114285D01*
X31002380Y-61638095D01*
X32002380Y-61209523D02*
X31002380Y-61209523D01*
X32002380Y-60638095D01*
X31002380Y-60638095D01*
X31907142Y-59590476D02*
X31954761Y-59638095D01*
X32002380Y-59780952D01*
X32002380Y-59876190D01*
X31954761Y-60019047D01*
X31859523Y-60114285D01*
X31764285Y-60161904D01*
X31573809Y-60209523D01*
X31430952Y-60209523D01*
X31240476Y-60161904D01*
X31145238Y-60114285D01*
X31050000Y-60019047D01*
X31002380Y-59876190D01*
X31002380Y-59780952D01*
X31050000Y-59638095D01*
X31097619Y-59590476D01*
X32002380Y-58638095D02*
X32002380Y-59209523D01*
X32002380Y-58923809D02*
X31002380Y-58923809D01*
X31145238Y-59019047D01*
X31240476Y-59114285D01*
X31288095Y-59209523D01*
%TO.C,U1*%
X49488095Y-27302380D02*
X49488095Y-28111904D01*
X49535714Y-28207142D01*
X49583333Y-28254761D01*
X49678571Y-28302380D01*
X49869047Y-28302380D01*
X49964285Y-28254761D01*
X50011904Y-28207142D01*
X50059523Y-28111904D01*
X50059523Y-27302380D01*
X51059523Y-28302380D02*
X50488095Y-28302380D01*
X50773809Y-28302380D02*
X50773809Y-27302380D01*
X50678571Y-27445238D01*
X50583333Y-27540476D01*
X50488095Y-27588095D01*
%TO.C,P1*%
X33602380Y-43238095D02*
X32602380Y-43238095D01*
X32602380Y-42857142D01*
X32650000Y-42761904D01*
X32697619Y-42714285D01*
X32792857Y-42666666D01*
X32935714Y-42666666D01*
X33030952Y-42714285D01*
X33078571Y-42761904D01*
X33126190Y-42857142D01*
X33126190Y-43238095D01*
X33602380Y-41714285D02*
X33602380Y-42285714D01*
X33602380Y-42000000D02*
X32602380Y-42000000D01*
X32745238Y-42095238D01*
X32840476Y-42190476D01*
X32888095Y-42285714D01*
%TO.C,R14*%
X29557142Y-68702380D02*
X29223809Y-68226190D01*
X28985714Y-68702380D02*
X28985714Y-67702380D01*
X29366666Y-67702380D01*
X29461904Y-67750000D01*
X29509523Y-67797619D01*
X29557142Y-67892857D01*
X29557142Y-68035714D01*
X29509523Y-68130952D01*
X29461904Y-68178571D01*
X29366666Y-68226190D01*
X28985714Y-68226190D01*
X30509523Y-68702380D02*
X29938095Y-68702380D01*
X30223809Y-68702380D02*
X30223809Y-67702380D01*
X30128571Y-67845238D01*
X30033333Y-67940476D01*
X29938095Y-67988095D01*
X31366666Y-68035714D02*
X31366666Y-68702380D01*
X31128571Y-67654761D02*
X30890476Y-68369047D01*
X31509523Y-68369047D01*
%TO.C,R12*%
X78869642Y-54902380D02*
X78536309Y-54426190D01*
X78298214Y-54902380D02*
X78298214Y-53902380D01*
X78679166Y-53902380D01*
X78774404Y-53950000D01*
X78822023Y-53997619D01*
X78869642Y-54092857D01*
X78869642Y-54235714D01*
X78822023Y-54330952D01*
X78774404Y-54378571D01*
X78679166Y-54426190D01*
X78298214Y-54426190D01*
X79822023Y-54902380D02*
X79250595Y-54902380D01*
X79536309Y-54902380D02*
X79536309Y-53902380D01*
X79441071Y-54045238D01*
X79345833Y-54140476D01*
X79250595Y-54188095D01*
X80202976Y-53997619D02*
X80250595Y-53950000D01*
X80345833Y-53902380D01*
X80583928Y-53902380D01*
X80679166Y-53950000D01*
X80726785Y-53997619D01*
X80774404Y-54092857D01*
X80774404Y-54188095D01*
X80726785Y-54330952D01*
X80155357Y-54902380D01*
X80774404Y-54902380D01*
%TO.C,R11*%
X45494642Y-63302380D02*
X45161309Y-62826190D01*
X44923214Y-63302380D02*
X44923214Y-62302380D01*
X45304166Y-62302380D01*
X45399404Y-62350000D01*
X45447023Y-62397619D01*
X45494642Y-62492857D01*
X45494642Y-62635714D01*
X45447023Y-62730952D01*
X45399404Y-62778571D01*
X45304166Y-62826190D01*
X44923214Y-62826190D01*
X46447023Y-63302380D02*
X45875595Y-63302380D01*
X46161309Y-63302380D02*
X46161309Y-62302380D01*
X46066071Y-62445238D01*
X45970833Y-62540476D01*
X45875595Y-62588095D01*
X47399404Y-63302380D02*
X46827976Y-63302380D01*
X47113690Y-63302380D02*
X47113690Y-62302380D01*
X47018452Y-62445238D01*
X46923214Y-62540476D01*
X46827976Y-62588095D01*
%TO.C,Q5*%
X56604761Y-35097619D02*
X56509523Y-35050000D01*
X56414285Y-34954761D01*
X56271428Y-34811904D01*
X56176190Y-34764285D01*
X56080952Y-34764285D01*
X56128571Y-35002380D02*
X56033333Y-34954761D01*
X55938095Y-34859523D01*
X55890476Y-34669047D01*
X55890476Y-34335714D01*
X55938095Y-34145238D01*
X56033333Y-34050000D01*
X56128571Y-34002380D01*
X56319047Y-34002380D01*
X56414285Y-34050000D01*
X56509523Y-34145238D01*
X56557142Y-34335714D01*
X56557142Y-34669047D01*
X56509523Y-34859523D01*
X56414285Y-34954761D01*
X56319047Y-35002380D01*
X56128571Y-35002380D01*
X57461904Y-34002380D02*
X56985714Y-34002380D01*
X56938095Y-34478571D01*
X56985714Y-34430952D01*
X57080952Y-34383333D01*
X57319047Y-34383333D01*
X57414285Y-34430952D01*
X57461904Y-34478571D01*
X57509523Y-34573809D01*
X57509523Y-34811904D01*
X57461904Y-34907142D01*
X57414285Y-34954761D01*
X57319047Y-35002380D01*
X57080952Y-35002380D01*
X56985714Y-34954761D01*
X56938095Y-34907142D01*
%TO.C,Q2*%
X60854761Y-48397619D02*
X60759523Y-48350000D01*
X60664285Y-48254761D01*
X60521428Y-48111904D01*
X60426190Y-48064285D01*
X60330952Y-48064285D01*
X60378571Y-48302380D02*
X60283333Y-48254761D01*
X60188095Y-48159523D01*
X60140476Y-47969047D01*
X60140476Y-47635714D01*
X60188095Y-47445238D01*
X60283333Y-47350000D01*
X60378571Y-47302380D01*
X60569047Y-47302380D01*
X60664285Y-47350000D01*
X60759523Y-47445238D01*
X60807142Y-47635714D01*
X60807142Y-47969047D01*
X60759523Y-48159523D01*
X60664285Y-48254761D01*
X60569047Y-48302380D01*
X60378571Y-48302380D01*
X61188095Y-47397619D02*
X61235714Y-47350000D01*
X61330952Y-47302380D01*
X61569047Y-47302380D01*
X61664285Y-47350000D01*
X61711904Y-47397619D01*
X61759523Y-47492857D01*
X61759523Y-47588095D01*
X61711904Y-47730952D01*
X61140476Y-48302380D01*
X61759523Y-48302380D01*
%TO.C,Q1*%
X54704761Y-65497619D02*
X54609523Y-65450000D01*
X54514285Y-65354761D01*
X54371428Y-65211904D01*
X54276190Y-65164285D01*
X54180952Y-65164285D01*
X54228571Y-65402380D02*
X54133333Y-65354761D01*
X54038095Y-65259523D01*
X53990476Y-65069047D01*
X53990476Y-64735714D01*
X54038095Y-64545238D01*
X54133333Y-64450000D01*
X54228571Y-64402380D01*
X54419047Y-64402380D01*
X54514285Y-64450000D01*
X54609523Y-64545238D01*
X54657142Y-64735714D01*
X54657142Y-65069047D01*
X54609523Y-65259523D01*
X54514285Y-65354761D01*
X54419047Y-65402380D01*
X54228571Y-65402380D01*
X55609523Y-65402380D02*
X55038095Y-65402380D01*
X55323809Y-65402380D02*
X55323809Y-64402380D01*
X55228571Y-64545238D01*
X55133333Y-64640476D01*
X55038095Y-64688095D01*
%TO.C,J1*%
X35116666Y-64402380D02*
X35116666Y-65116666D01*
X35069047Y-65259523D01*
X34973809Y-65354761D01*
X34830952Y-65402380D01*
X34735714Y-65402380D01*
X36116666Y-65402380D02*
X35545238Y-65402380D01*
X35830952Y-65402380D02*
X35830952Y-64402380D01*
X35735714Y-64545238D01*
X35640476Y-64640476D01*
X35545238Y-64688095D01*
%TO.C,C7*%
X32383333Y-64507142D02*
X32335714Y-64554761D01*
X32192857Y-64602380D01*
X32097619Y-64602380D01*
X31954761Y-64554761D01*
X31859523Y-64459523D01*
X31811904Y-64364285D01*
X31764285Y-64173809D01*
X31764285Y-64030952D01*
X31811904Y-63840476D01*
X31859523Y-63745238D01*
X31954761Y-63650000D01*
X32097619Y-63602380D01*
X32192857Y-63602380D01*
X32335714Y-63650000D01*
X32383333Y-63697619D01*
X32716666Y-63602380D02*
X33383333Y-63602380D01*
X32954761Y-64602380D01*
%TO.C,J2*%
X78352380Y-37383333D02*
X79066666Y-37383333D01*
X79209523Y-37430952D01*
X79304761Y-37526190D01*
X79352380Y-37669047D01*
X79352380Y-37764285D01*
X78447619Y-36954761D02*
X78400000Y-36907142D01*
X78352380Y-36811904D01*
X78352380Y-36573809D01*
X78400000Y-36478571D01*
X78447619Y-36430952D01*
X78542857Y-36383333D01*
X78638095Y-36383333D01*
X78780952Y-36430952D01*
X79352380Y-37002380D01*
X79352380Y-36383333D01*
%TO.C,D3*%
X42461904Y-23402380D02*
X42461904Y-22402380D01*
X42700000Y-22402380D01*
X42842857Y-22450000D01*
X42938095Y-22545238D01*
X42985714Y-22640476D01*
X43033333Y-22830952D01*
X43033333Y-22973809D01*
X42985714Y-23164285D01*
X42938095Y-23259523D01*
X42842857Y-23354761D01*
X42700000Y-23402380D01*
X42461904Y-23402380D01*
X43366666Y-22402380D02*
X43985714Y-22402380D01*
X43652380Y-22783333D01*
X43795238Y-22783333D01*
X43890476Y-22830952D01*
X43938095Y-22878571D01*
X43985714Y-22973809D01*
X43985714Y-23211904D01*
X43938095Y-23307142D01*
X43890476Y-23354761D01*
X43795238Y-23402380D01*
X43509523Y-23402380D01*
X43414285Y-23354761D01*
X43366666Y-23307142D01*
%TO.C,D2*%
X54261904Y-24902380D02*
X54261904Y-23902380D01*
X54500000Y-23902380D01*
X54642857Y-23950000D01*
X54738095Y-24045238D01*
X54785714Y-24140476D01*
X54833333Y-24330952D01*
X54833333Y-24473809D01*
X54785714Y-24664285D01*
X54738095Y-24759523D01*
X54642857Y-24854761D01*
X54500000Y-24902380D01*
X54261904Y-24902380D01*
X55214285Y-23997619D02*
X55261904Y-23950000D01*
X55357142Y-23902380D01*
X55595238Y-23902380D01*
X55690476Y-23950000D01*
X55738095Y-23997619D01*
X55785714Y-24092857D01*
X55785714Y-24188095D01*
X55738095Y-24330952D01*
X55166666Y-24902380D01*
X55785714Y-24902380D01*
%TO.C,BZ1*%
X34391047Y-30216571D02*
X34533904Y-30264190D01*
X34581523Y-30311809D01*
X34629142Y-30407047D01*
X34629142Y-30549904D01*
X34581523Y-30645142D01*
X34533904Y-30692761D01*
X34438666Y-30740380D01*
X34057714Y-30740380D01*
X34057714Y-29740380D01*
X34391047Y-29740380D01*
X34486285Y-29788000D01*
X34533904Y-29835619D01*
X34581523Y-29930857D01*
X34581523Y-30026095D01*
X34533904Y-30121333D01*
X34486285Y-30168952D01*
X34391047Y-30216571D01*
X34057714Y-30216571D01*
X34962476Y-29740380D02*
X35629142Y-29740380D01*
X34962476Y-30740380D01*
X35629142Y-30740380D01*
X36533904Y-30740380D02*
X35962476Y-30740380D01*
X36248190Y-30740380D02*
X36248190Y-29740380D01*
X36152952Y-29883238D01*
X36057714Y-29978476D01*
X35962476Y-30026095D01*
X36659047Y-34931428D02*
X37420952Y-34931428D01*
X37040000Y-35312380D02*
X37040000Y-34550476D01*
%TO.C,R1*%
X52583333Y-50502380D02*
X52250000Y-50026190D01*
X52011904Y-50502380D02*
X52011904Y-49502380D01*
X52392857Y-49502380D01*
X52488095Y-49550000D01*
X52535714Y-49597619D01*
X52583333Y-49692857D01*
X52583333Y-49835714D01*
X52535714Y-49930952D01*
X52488095Y-49978571D01*
X52392857Y-50026190D01*
X52011904Y-50026190D01*
X53535714Y-50502380D02*
X52964285Y-50502380D01*
X53250000Y-50502380D02*
X53250000Y-49502380D01*
X53154761Y-49645238D01*
X53059523Y-49740476D01*
X52964285Y-49788095D01*
%TO.C,C5*%
X64733333Y-61207142D02*
X64685714Y-61254761D01*
X64542857Y-61302380D01*
X64447619Y-61302380D01*
X64304761Y-61254761D01*
X64209523Y-61159523D01*
X64161904Y-61064285D01*
X64114285Y-60873809D01*
X64114285Y-60730952D01*
X64161904Y-60540476D01*
X64209523Y-60445238D01*
X64304761Y-60350000D01*
X64447619Y-60302380D01*
X64542857Y-60302380D01*
X64685714Y-60350000D01*
X64733333Y-60397619D01*
X65638095Y-60302380D02*
X65161904Y-60302380D01*
X65114285Y-60778571D01*
X65161904Y-60730952D01*
X65257142Y-60683333D01*
X65495238Y-60683333D01*
X65590476Y-60730952D01*
X65638095Y-60778571D01*
X65685714Y-60873809D01*
X65685714Y-61111904D01*
X65638095Y-61207142D01*
X65590476Y-61254761D01*
X65495238Y-61302380D01*
X65257142Y-61302380D01*
X65161904Y-61254761D01*
X65114285Y-61207142D01*
%TO.C,R3*%
X52583333Y-58502380D02*
X52250000Y-58026190D01*
X52011904Y-58502380D02*
X52011904Y-57502380D01*
X52392857Y-57502380D01*
X52488095Y-57550000D01*
X52535714Y-57597619D01*
X52583333Y-57692857D01*
X52583333Y-57835714D01*
X52535714Y-57930952D01*
X52488095Y-57978571D01*
X52392857Y-58026190D01*
X52011904Y-58026190D01*
X52916666Y-57502380D02*
X53535714Y-57502380D01*
X53202380Y-57883333D01*
X53345238Y-57883333D01*
X53440476Y-57930952D01*
X53488095Y-57978571D01*
X53535714Y-58073809D01*
X53535714Y-58311904D01*
X53488095Y-58407142D01*
X53440476Y-58454761D01*
X53345238Y-58502380D01*
X53059523Y-58502380D01*
X52964285Y-58454761D01*
X52916666Y-58407142D01*
%TO.C,C3*%
X63083333Y-58607142D02*
X63035714Y-58654761D01*
X62892857Y-58702380D01*
X62797619Y-58702380D01*
X62654761Y-58654761D01*
X62559523Y-58559523D01*
X62511904Y-58464285D01*
X62464285Y-58273809D01*
X62464285Y-58130952D01*
X62511904Y-57940476D01*
X62559523Y-57845238D01*
X62654761Y-57750000D01*
X62797619Y-57702380D01*
X62892857Y-57702380D01*
X63035714Y-57750000D01*
X63083333Y-57797619D01*
X63416666Y-57702380D02*
X64035714Y-57702380D01*
X63702380Y-58083333D01*
X63845238Y-58083333D01*
X63940476Y-58130952D01*
X63988095Y-58178571D01*
X64035714Y-58273809D01*
X64035714Y-58511904D01*
X63988095Y-58607142D01*
X63940476Y-58654761D01*
X63845238Y-58702380D01*
X63559523Y-58702380D01*
X63464285Y-58654761D01*
X63416666Y-58607142D01*
%TO.C,C2*%
X63131333Y-54907142D02*
X63083714Y-54954761D01*
X62940857Y-55002380D01*
X62845619Y-55002380D01*
X62702761Y-54954761D01*
X62607523Y-54859523D01*
X62559904Y-54764285D01*
X62512285Y-54573809D01*
X62512285Y-54430952D01*
X62559904Y-54240476D01*
X62607523Y-54145238D01*
X62702761Y-54050000D01*
X62845619Y-54002380D01*
X62940857Y-54002380D01*
X63083714Y-54050000D01*
X63131333Y-54097619D01*
X63512285Y-54097619D02*
X63559904Y-54050000D01*
X63655142Y-54002380D01*
X63893238Y-54002380D01*
X63988476Y-54050000D01*
X64036095Y-54097619D01*
X64083714Y-54192857D01*
X64083714Y-54288095D01*
X64036095Y-54430952D01*
X63464666Y-55002380D01*
X64083714Y-55002380D01*
%TO.C,C1*%
X63385333Y-50415142D02*
X63337714Y-50462761D01*
X63194857Y-50510380D01*
X63099619Y-50510380D01*
X62956761Y-50462761D01*
X62861523Y-50367523D01*
X62813904Y-50272285D01*
X62766285Y-50081809D01*
X62766285Y-49938952D01*
X62813904Y-49748476D01*
X62861523Y-49653238D01*
X62956761Y-49558000D01*
X63099619Y-49510380D01*
X63194857Y-49510380D01*
X63337714Y-49558000D01*
X63385333Y-49605619D01*
X64337714Y-50510380D02*
X63766285Y-50510380D01*
X64052000Y-50510380D02*
X64052000Y-49510380D01*
X63956761Y-49653238D01*
X63861523Y-49748476D01*
X63766285Y-49796095D01*
%TO.C,R2*%
X52583333Y-54502380D02*
X52250000Y-54026190D01*
X52011904Y-54502380D02*
X52011904Y-53502380D01*
X52392857Y-53502380D01*
X52488095Y-53550000D01*
X52535714Y-53597619D01*
X52583333Y-53692857D01*
X52583333Y-53835714D01*
X52535714Y-53930952D01*
X52488095Y-53978571D01*
X52392857Y-54026190D01*
X52011904Y-54026190D01*
X52964285Y-53597619D02*
X53011904Y-53550000D01*
X53107142Y-53502380D01*
X53345238Y-53502380D01*
X53440476Y-53550000D01*
X53488095Y-53597619D01*
X53535714Y-53692857D01*
X53535714Y-53788095D01*
X53488095Y-53930952D01*
X52916666Y-54502380D01*
X53535714Y-54502380D01*
%TO.C,R6*%
X66052380Y-32066666D02*
X65576190Y-32400000D01*
X66052380Y-32638095D02*
X65052380Y-32638095D01*
X65052380Y-32257142D01*
X65100000Y-32161904D01*
X65147619Y-32114285D01*
X65242857Y-32066666D01*
X65385714Y-32066666D01*
X65480952Y-32114285D01*
X65528571Y-32161904D01*
X65576190Y-32257142D01*
X65576190Y-32638095D01*
X65052380Y-31209523D02*
X65052380Y-31400000D01*
X65100000Y-31495238D01*
X65147619Y-31542857D01*
X65290476Y-31638095D01*
X65480952Y-31685714D01*
X65861904Y-31685714D01*
X65957142Y-31638095D01*
X66004761Y-31590476D01*
X66052380Y-31495238D01*
X66052380Y-31304761D01*
X66004761Y-31209523D01*
X65957142Y-31161904D01*
X65861904Y-31114285D01*
X65623809Y-31114285D01*
X65528571Y-31161904D01*
X65480952Y-31209523D01*
X65433333Y-31304761D01*
X65433333Y-31495238D01*
X65480952Y-31590476D01*
X65528571Y-31638095D01*
X65623809Y-31685714D01*
%TO.C,H3*%
X77788095Y-78252380D02*
X77788095Y-77252380D01*
X77788095Y-77728571D02*
X78359523Y-77728571D01*
X78359523Y-78252380D02*
X78359523Y-77252380D01*
X78740476Y-77252380D02*
X79359523Y-77252380D01*
X79026190Y-77633333D01*
X79169047Y-77633333D01*
X79264285Y-77680952D01*
X79311904Y-77728571D01*
X79359523Y-77823809D01*
X79359523Y-78061904D01*
X79311904Y-78157142D01*
X79264285Y-78204761D01*
X79169047Y-78252380D01*
X78883333Y-78252380D01*
X78788095Y-78204761D01*
X78740476Y-78157142D01*
%TO.C,C6*%
X79383333Y-53007142D02*
X79335714Y-53054761D01*
X79192857Y-53102380D01*
X79097619Y-53102380D01*
X78954761Y-53054761D01*
X78859523Y-52959523D01*
X78811904Y-52864285D01*
X78764285Y-52673809D01*
X78764285Y-52530952D01*
X78811904Y-52340476D01*
X78859523Y-52245238D01*
X78954761Y-52150000D01*
X79097619Y-52102380D01*
X79192857Y-52102380D01*
X79335714Y-52150000D01*
X79383333Y-52197619D01*
X80240476Y-52102380D02*
X80050000Y-52102380D01*
X79954761Y-52150000D01*
X79907142Y-52197619D01*
X79811904Y-52340476D01*
X79764285Y-52530952D01*
X79764285Y-52911904D01*
X79811904Y-53007142D01*
X79859523Y-53054761D01*
X79954761Y-53102380D01*
X80145238Y-53102380D01*
X80240476Y-53054761D01*
X80288095Y-53007142D01*
X80335714Y-52911904D01*
X80335714Y-52673809D01*
X80288095Y-52578571D01*
X80240476Y-52530952D01*
X80145238Y-52483333D01*
X79954761Y-52483333D01*
X79859523Y-52530952D01*
X79811904Y-52578571D01*
X79764285Y-52673809D01*
%TO.C,H1*%
X25438095Y-68252380D02*
X25438095Y-67252380D01*
X25438095Y-67728571D02*
X26009523Y-67728571D01*
X26009523Y-68252380D02*
X26009523Y-67252380D01*
X27009523Y-68252380D02*
X26438095Y-68252380D01*
X26723809Y-68252380D02*
X26723809Y-67252380D01*
X26628571Y-67395238D01*
X26533333Y-67490476D01*
X26438095Y-67538095D01*
%TO.C,H4*%
X21478095Y-36450380D02*
X21478095Y-35450380D01*
X21478095Y-35926571D02*
X22049523Y-35926571D01*
X22049523Y-36450380D02*
X22049523Y-35450380D01*
X22954285Y-35783714D02*
X22954285Y-36450380D01*
X22716190Y-35402761D02*
X22478095Y-36117047D01*
X23097142Y-36117047D01*
%TO.C,H2*%
X79788095Y-30252380D02*
X79788095Y-29252380D01*
X79788095Y-29728571D02*
X80359523Y-29728571D01*
X80359523Y-30252380D02*
X80359523Y-29252380D01*
X80788095Y-29347619D02*
X80835714Y-29300000D01*
X80930952Y-29252380D01*
X81169047Y-29252380D01*
X81264285Y-29300000D01*
X81311904Y-29347619D01*
X81359523Y-29442857D01*
X81359523Y-29538095D01*
X81311904Y-29680952D01*
X80740476Y-30252380D01*
X81359523Y-30252380D01*
%TO.C,R9*%
X72452380Y-36466666D02*
X71976190Y-36800000D01*
X72452380Y-37038095D02*
X71452380Y-37038095D01*
X71452380Y-36657142D01*
X71500000Y-36561904D01*
X71547619Y-36514285D01*
X71642857Y-36466666D01*
X71785714Y-36466666D01*
X71880952Y-36514285D01*
X71928571Y-36561904D01*
X71976190Y-36657142D01*
X71976190Y-37038095D01*
X72452380Y-35990476D02*
X72452380Y-35800000D01*
X72404761Y-35704761D01*
X72357142Y-35657142D01*
X72214285Y-35561904D01*
X72023809Y-35514285D01*
X71642857Y-35514285D01*
X71547619Y-35561904D01*
X71500000Y-35609523D01*
X71452380Y-35704761D01*
X71452380Y-35895238D01*
X71500000Y-35990476D01*
X71547619Y-36038095D01*
X71642857Y-36085714D01*
X71880952Y-36085714D01*
X71976190Y-36038095D01*
X72023809Y-35990476D01*
X72071428Y-35895238D01*
X72071428Y-35704761D01*
X72023809Y-35609523D01*
X71976190Y-35561904D01*
X71880952Y-35514285D01*
%TO.C,U3*%
X69073380Y-79282904D02*
X69882904Y-79282904D01*
X69978142Y-79235285D01*
X70025761Y-79187666D01*
X70073380Y-79092428D01*
X70073380Y-78901952D01*
X70025761Y-78806714D01*
X69978142Y-78759095D01*
X69882904Y-78711476D01*
X69073380Y-78711476D01*
X69073380Y-78330523D02*
X69073380Y-77711476D01*
X69454333Y-78044809D01*
X69454333Y-77901952D01*
X69501952Y-77806714D01*
X69549571Y-77759095D01*
X69644809Y-77711476D01*
X69882904Y-77711476D01*
X69978142Y-77759095D01*
X70025761Y-77806714D01*
X70073380Y-77901952D01*
X70073380Y-78187666D01*
X70025761Y-78282904D01*
X69978142Y-78330523D01*
%TO.C,R8*%
X72502380Y-31966666D02*
X72026190Y-32300000D01*
X72502380Y-32538095D02*
X71502380Y-32538095D01*
X71502380Y-32157142D01*
X71550000Y-32061904D01*
X71597619Y-32014285D01*
X71692857Y-31966666D01*
X71835714Y-31966666D01*
X71930952Y-32014285D01*
X71978571Y-32061904D01*
X72026190Y-32157142D01*
X72026190Y-32538095D01*
X71930952Y-31395238D02*
X71883333Y-31490476D01*
X71835714Y-31538095D01*
X71740476Y-31585714D01*
X71692857Y-31585714D01*
X71597619Y-31538095D01*
X71550000Y-31490476D01*
X71502380Y-31395238D01*
X71502380Y-31204761D01*
X71550000Y-31109523D01*
X71597619Y-31061904D01*
X71692857Y-31014285D01*
X71740476Y-31014285D01*
X71835714Y-31061904D01*
X71883333Y-31109523D01*
X71930952Y-31204761D01*
X71930952Y-31395238D01*
X71978571Y-31490476D01*
X72026190Y-31538095D01*
X72121428Y-31585714D01*
X72311904Y-31585714D01*
X72407142Y-31538095D01*
X72454761Y-31490476D01*
X72502380Y-31395238D01*
X72502380Y-31204761D01*
X72454761Y-31109523D01*
X72407142Y-31061904D01*
X72311904Y-31014285D01*
X72121428Y-31014285D01*
X72026190Y-31061904D01*
X71978571Y-31109523D01*
X71930952Y-31204761D01*
%TO.C,R7*%
X66002380Y-36416666D02*
X65526190Y-36750000D01*
X66002380Y-36988095D02*
X65002380Y-36988095D01*
X65002380Y-36607142D01*
X65050000Y-36511904D01*
X65097619Y-36464285D01*
X65192857Y-36416666D01*
X65335714Y-36416666D01*
X65430952Y-36464285D01*
X65478571Y-36511904D01*
X65526190Y-36607142D01*
X65526190Y-36988095D01*
X65002380Y-36083333D02*
X65002380Y-35416666D01*
X66002380Y-35845238D01*
%TD*%
M02*
