%TF.GenerationSoftware,KiCad,Pcbnew,(5.1.9)-1*%
%TF.CreationDate,2021-02-05T08:09:48+01:00*%
%TF.ProjectId,Spotwelderix-controlboard,53706f74-7765-46c6-9465-7269782d636f,v01*%
%TF.SameCoordinates,Original*%
%TF.FileFunction,Copper,L2,Bot*%
%TF.FilePolarity,Positive*%
%FSLAX46Y46*%
G04 Gerber Fmt 4.6, Leading zero omitted, Abs format (unit mm)*
G04 Created by KiCad (PCBNEW (5.1.9)-1) date 2021-02-05 08:09:48*
%MOMM*%
%LPD*%
G01*
G04 APERTURE LIST*
%TA.AperFunction,ComponentPad*%
%ADD10R,2.000000X2.000000*%
%TD*%
%TA.AperFunction,ComponentPad*%
%ADD11C,2.000000*%
%TD*%
%TA.AperFunction,ComponentPad*%
%ADD12R,2.500000X3.000000*%
%TD*%
%TA.AperFunction,ComponentPad*%
%ADD13O,2.000000X1.200000*%
%TD*%
%TA.AperFunction,ComponentPad*%
%ADD14O,1.950000X1.700000*%
%TD*%
%TA.AperFunction,ComponentPad*%
%ADD15O,1.700000X1.950000*%
%TD*%
%TA.AperFunction,ConnectorPad*%
%ADD16C,5.600000*%
%TD*%
%TA.AperFunction,ComponentPad*%
%ADD17C,3.600000*%
%TD*%
%TA.AperFunction,ViaPad*%
%ADD18C,0.800000*%
%TD*%
%TA.AperFunction,Conductor*%
%ADD19C,0.500000*%
%TD*%
%TA.AperFunction,Conductor*%
%ADD20C,0.250000*%
%TD*%
%TA.AperFunction,Conductor*%
%ADD21C,0.254000*%
%TD*%
%TA.AperFunction,Conductor*%
%ADD22C,0.100000*%
%TD*%
G04 APERTURE END LIST*
D10*
%TO.P,ENC1,A*%
%TO.N,Net-(ENC1-PadA)*%
X37950000Y-61600000D03*
D11*
%TO.P,ENC1,C*%
%TO.N,GND*%
X40450000Y-61600000D03*
%TO.P,ENC1,B*%
%TO.N,Net-(ENC1-PadB)*%
X42950000Y-61600000D03*
D12*
%TO.P,ENC1,MP*%
%TO.N,N/C*%
X34850000Y-54100000D03*
X46050000Y-54100000D03*
D11*
%TO.P,ENC1,S1*%
%TO.N,GND*%
X37950000Y-47100000D03*
%TO.P,ENC1,S2*%
%TO.N,Net-(ENC1-PadS2)*%
X42950000Y-47100000D03*
%TD*%
D13*
%TO.P,U1,19*%
%TO.N,+5V*%
X75700000Y-30540000D03*
%TO.P,U1,20*%
%TO.N,Net-(U1-Pad20)*%
X50300000Y-30540000D03*
%TO.P,U1,18*%
%TO.N,GND*%
X75700000Y-33080000D03*
%TO.P,U1,21*%
%TO.N,Net-(U1-Pad21)*%
X50300000Y-33080000D03*
%TO.P,U1,17*%
%TO.N,Net-(U1-Pad17)*%
X75700000Y-35620000D03*
%TO.P,U1,22*%
%TO.N,Net-(U1-Pad22)*%
X50300000Y-35620000D03*
%TO.P,U1,16*%
%TO.N,Net-(U1-Pad16)*%
X75700000Y-38160000D03*
%TO.P,U1,23*%
%TO.N,Net-(U1-Pad23)*%
X50300000Y-38160000D03*
%TO.P,U1,15*%
%TO.N,Dallas*%
X75700000Y-40700000D03*
%TO.P,U1,24*%
%TO.N,ChargerEna*%
X50300000Y-40700000D03*
%TO.P,U1,14*%
%TO.N,GND*%
X75700000Y-43240000D03*
%TO.P,U1,25*%
%TO.N,Net-(U1-Pad25)*%
X50300000Y-43240000D03*
%TO.P,U1,13*%
%TO.N,LED*%
X75700000Y-45780000D03*
%TO.P,U1,26*%
%TO.N,FootSwitch*%
X50300000Y-45780000D03*
%TO.P,U1,12*%
%TO.N,Gate_logic*%
X75700000Y-48320000D03*
%TO.P,U1,27*%
%TO.N,Net-(P1-Pad3)*%
X50300000Y-48320000D03*
%TO.P,U1,11*%
%TO.N,FAN*%
X75700000Y-50860000D03*
%TO.P,U1,28*%
%TO.N,Net-(P1-Pad4)*%
X50300000Y-50860000D03*
%TO.P,U1,10*%
%TO.N,BUZZ*%
X75700000Y-53400000D03*
%TO.P,U1,29*%
%TO.N,Net-(P1-Pad5)*%
X50300000Y-53400000D03*
%TO.P,U1,9*%
%TO.N,ExtPWRADC*%
X75700000Y-55940000D03*
%TO.P,U1,30*%
%TO.N,Net-(P1-Pad6)*%
X50300000Y-55940000D03*
%TO.P,U1,8*%
%TO.N,Shuntvoltage*%
X75700000Y-58480000D03*
%TO.P,U1,31*%
%TO.N,Net-(P1-Pad7)*%
X50300000Y-58480000D03*
%TO.P,U1,7*%
%TO.N,VCC_ADC*%
X75700000Y-61020000D03*
%TO.P,U1,32*%
%TO.N,Net-(U1-Pad32)*%
X50300000Y-61020000D03*
%TO.P,U1,6*%
%TO.N,ProbeADC*%
X75700000Y-63560000D03*
%TO.P,U1,33*%
%TO.N,Net-(P1-Pad8)*%
X50300000Y-63560000D03*
%TO.P,U1,5*%
%TO.N,Vbat_ADC*%
X75700000Y-66100000D03*
%TO.P,U1,34*%
%TO.N,Net-(U1-Pad34)*%
X50300000Y-66100000D03*
%TO.P,U1,4*%
%TO.N,UI_RotEnc_A*%
X75700000Y-68640000D03*
%TO.P,U1,35*%
%TO.N,Net-(U1-Pad35)*%
X50300000Y-68640000D03*
%TO.P,U1,3*%
%TO.N,UI_RotEnc_B*%
X75700000Y-71180000D03*
%TO.P,U1,36*%
%TO.N,EnableSupply*%
X50300000Y-71180000D03*
%TO.P,U1,2*%
%TO.N,Net-(U1-Pad2)*%
X75700000Y-73720000D03*
%TO.P,U1,37*%
%TO.N,UI_RotEnc_Push*%
X50300000Y-73720000D03*
%TO.P,U1,1*%
%TO.N,+3V3*%
X75700000Y-76260000D03*
%TO.P,U1,38*%
%TO.N,GND*%
X50300000Y-76260000D03*
%TD*%
D14*
%TO.P,P1,8*%
%TO.N,Net-(P1-Pad8)*%
X29600000Y-59700000D03*
%TO.P,P1,7*%
%TO.N,Net-(P1-Pad7)*%
X29600000Y-57200000D03*
%TO.P,P1,6*%
%TO.N,Net-(P1-Pad6)*%
X29600000Y-54700000D03*
%TO.P,P1,5*%
%TO.N,Net-(P1-Pad5)*%
X29600000Y-52200000D03*
%TO.P,P1,4*%
%TO.N,Net-(P1-Pad4)*%
X29600000Y-49700000D03*
%TO.P,P1,3*%
%TO.N,Net-(P1-Pad3)*%
X29600000Y-47200000D03*
%TO.P,P1,2*%
%TO.N,GND*%
X29600000Y-44700000D03*
%TO.P,P1,1*%
%TO.N,+3V3*%
%TA.AperFunction,ComponentPad*%
G36*
G01*
X28875000Y-41350000D02*
X30325000Y-41350000D01*
G75*
G02*
X30575000Y-41600000I0J-250000D01*
G01*
X30575000Y-42800000D01*
G75*
G02*
X30325000Y-43050000I-250000J0D01*
G01*
X28875000Y-43050000D01*
G75*
G02*
X28625000Y-42800000I0J250000D01*
G01*
X28625000Y-41600000D01*
G75*
G02*
X28875000Y-41350000I250000J0D01*
G01*
G37*
%TD.AperFunction*%
%TD*%
D15*
%TO.P,P2,9*%
%TO.N,Shuntvoltage*%
X56400000Y-24450000D03*
%TO.P,P2,8*%
%TO.N,+5V*%
X58900000Y-24450000D03*
%TO.P,P2,7*%
%TO.N,EnableSupply*%
X61400000Y-24450000D03*
%TO.P,P2,6*%
%TO.N,Vbat_ADC*%
X63900000Y-24450000D03*
%TO.P,P2,5*%
%TO.N,Probe*%
X66400000Y-24450000D03*
%TO.P,P2,4*%
%TO.N,Dallas*%
X68900000Y-24450000D03*
%TO.P,P2,3*%
%TO.N,Gate_logic*%
X71400000Y-24450000D03*
%TO.P,P2,2*%
%TO.N,VCC*%
X73900000Y-24450000D03*
%TO.P,P2,1*%
%TO.N,GND*%
%TA.AperFunction,ComponentPad*%
G36*
G01*
X77250000Y-23725000D02*
X77250000Y-25175000D01*
G75*
G02*
X77000000Y-25425000I-250000J0D01*
G01*
X75800000Y-25425000D01*
G75*
G02*
X75550000Y-25175000I0J250000D01*
G01*
X75550000Y-23725000D01*
G75*
G02*
X75800000Y-23475000I250000J0D01*
G01*
X77000000Y-23475000D01*
G75*
G02*
X77250000Y-23725000I0J-250000D01*
G01*
G37*
%TD.AperFunction*%
%TD*%
%TO.P,J3,4*%
%TO.N,FAN_GND*%
X24250000Y-24500000D03*
%TO.P,J3,3*%
%TO.N,VCC*%
X26750000Y-24500000D03*
%TO.P,J3,2*%
%TO.N,GND*%
X29250000Y-24500000D03*
%TO.P,J3,1*%
%TO.N,ExtPower*%
%TA.AperFunction,ComponentPad*%
G36*
G01*
X32600000Y-23775000D02*
X32600000Y-25225000D01*
G75*
G02*
X32350000Y-25475000I-250000J0D01*
G01*
X31150000Y-25475000D01*
G75*
G02*
X30900000Y-25225000I0J250000D01*
G01*
X30900000Y-23775000D01*
G75*
G02*
X31150000Y-23525000I250000J0D01*
G01*
X32350000Y-23525000D01*
G75*
G02*
X32600000Y-23775000I0J-250000D01*
G01*
G37*
%TD.AperFunction*%
%TD*%
%TO.P,J1,5*%
%TO.N,Net-(J1-Pad5)*%
X44750000Y-68350000D03*
%TO.P,J1,4*%
%TO.N,Net-(J1-Pad4)*%
X42250000Y-68350000D03*
%TO.P,J1,3*%
%TO.N,ExtPower*%
X39750000Y-68350000D03*
%TO.P,J1,2*%
%TO.N,GND*%
X37250000Y-68350000D03*
%TO.P,J1,1*%
%TO.N,Net-(J1-Pad1)*%
%TA.AperFunction,ComponentPad*%
G36*
G01*
X33900000Y-69075000D02*
X33900000Y-67625000D01*
G75*
G02*
X34150000Y-67375000I250000J0D01*
G01*
X35350000Y-67375000D01*
G75*
G02*
X35600000Y-67625000I0J-250000D01*
G01*
X35600000Y-69075000D01*
G75*
G02*
X35350000Y-69325000I-250000J0D01*
G01*
X34150000Y-69325000D01*
G75*
G02*
X33900000Y-69075000I0J250000D01*
G01*
G37*
%TD.AperFunction*%
%TD*%
D14*
%TO.P,J2,3*%
%TO.N,LED*%
X81750000Y-45950000D03*
%TO.P,J2,2*%
%TO.N,GND*%
X81750000Y-43450000D03*
%TO.P,J2,1*%
%TO.N,+5V*%
%TA.AperFunction,ComponentPad*%
G36*
G01*
X81025000Y-40100000D02*
X82475000Y-40100000D01*
G75*
G02*
X82725000Y-40350000I0J-250000D01*
G01*
X82725000Y-41550000D01*
G75*
G02*
X82475000Y-41800000I-250000J0D01*
G01*
X81025000Y-41800000D01*
G75*
G02*
X80775000Y-41550000I0J250000D01*
G01*
X80775000Y-40350000D01*
G75*
G02*
X81025000Y-40100000I250000J0D01*
G01*
G37*
%TD.AperFunction*%
%TD*%
D11*
%TO.P,BZ1,2*%
%TO.N,Net-(BZ1-Pad2)*%
X44650000Y-37400000D03*
D10*
%TO.P,BZ1,1*%
%TO.N,+5V*%
X37050000Y-37400000D03*
%TD*%
D11*
%TO.P,C4,2*%
%TO.N,GND*%
X44150000Y-23650000D03*
D10*
%TO.P,C4,1*%
%TO.N,VCC*%
X44150000Y-28650000D03*
%TD*%
D16*
%TO.P,H3,1*%
%TO.N,N/C*%
X81550000Y-74100000D03*
D17*
X81550000Y-74100000D03*
%TD*%
D16*
%TO.P,H1,1*%
%TO.N,N/C*%
X26200000Y-71600000D03*
D17*
X26200000Y-71600000D03*
%TD*%
D16*
%TO.P,H4,1*%
%TO.N,N/C*%
X26050000Y-33750000D03*
D17*
X26050000Y-33750000D03*
%TD*%
D16*
%TO.P,H2,1*%
%TO.N,N/C*%
X81450000Y-33750000D03*
D17*
X81450000Y-33750000D03*
%TD*%
D18*
%TO.N,+5V*%
X58800000Y-62550000D03*
%TO.N,GND*%
X54600000Y-34600000D03*
X63100000Y-43200000D03*
X65462000Y-37162000D03*
X72225000Y-37262000D03*
X70900000Y-74350000D03*
X58675000Y-58050000D03*
X59050000Y-55800000D03*
X59300000Y-51850000D03*
X81750000Y-50150000D03*
X65100000Y-61000000D03*
%TO.N,Dallas*%
X69000000Y-31800000D03*
%TO.N,UI_RotEnc_Push*%
X57850000Y-51700000D03*
%TO.N,FAN_GND*%
X54450000Y-26050000D03*
X50100000Y-23200000D03*
%TO.N,Shuntvoltage*%
X70100000Y-53500000D03*
X62925000Y-31050000D03*
%TO.N,EnableSupply*%
X57650000Y-40950000D03*
X57750000Y-33850000D03*
%TO.N,Vbat_ADC*%
X63650000Y-33250000D03*
%TO.N,ChargerEna*%
X52950000Y-59050000D03*
%TO.N,ProbeADC*%
X68150000Y-39000000D03*
%TO.N,VCC_ADC*%
X69050000Y-40450000D03*
%TO.N,ExtPWRADC*%
X65650000Y-59200000D03*
X66300000Y-50850000D03*
%TD*%
D19*
%TO.N,+5V*%
X56249999Y-27100001D02*
X58900000Y-24450000D01*
X51713640Y-27100001D02*
X56249999Y-27100001D01*
X41413641Y-37400000D02*
X51713640Y-27100001D01*
X37050000Y-37400000D02*
X41413641Y-37400000D01*
X83275010Y-42475010D02*
X81750000Y-40950000D01*
X83275010Y-60551349D02*
X83275010Y-42475010D01*
X76576349Y-67250010D02*
X83275010Y-60551349D01*
X63500010Y-67250010D02*
X76576349Y-67250010D01*
X58800000Y-62550000D02*
X63500010Y-67250010D01*
X77800010Y-28439990D02*
X75700000Y-30540000D01*
X77800010Y-23393622D02*
X77800010Y-28439990D01*
X77331378Y-22924990D02*
X77800010Y-23393622D01*
X60425010Y-22924990D02*
X77331378Y-22924990D01*
X58900000Y-24450000D02*
X60425010Y-22924990D01*
%TO.N,VCC*%
X73504913Y-24450000D02*
X73900000Y-24450000D01*
X30900000Y-28650000D02*
X44150000Y-28650000D01*
X26750000Y-24500000D02*
X30900000Y-28650000D01*
D20*
%TO.N,Net-(P1-Pad8)*%
X29600000Y-59700000D02*
X29600000Y-59450000D01*
X29600000Y-59450000D02*
X31900000Y-57150000D01*
X44721839Y-57150000D02*
X44771839Y-57200000D01*
X31900000Y-57150000D02*
X44721839Y-57150000D01*
X44771839Y-57200000D02*
X47300000Y-57200000D01*
X47300000Y-60560000D02*
X50300000Y-63560000D01*
X47300000Y-57200000D02*
X47300000Y-60560000D01*
%TO.N,Net-(P1-Pad7)*%
X30825000Y-57200000D02*
X31550000Y-56475000D01*
X29600000Y-57200000D02*
X30825000Y-57200000D01*
X31550000Y-56475000D02*
X48075000Y-56475000D01*
X50080000Y-58480000D02*
X50300000Y-58480000D01*
X48075000Y-56475000D02*
X50080000Y-58480000D01*
%TO.N,Net-(P1-Pad6)*%
X50264999Y-55975001D02*
X50300000Y-55940000D01*
X30875001Y-55975001D02*
X50264999Y-55975001D01*
X29600000Y-54700000D02*
X30875001Y-55975001D01*
%TO.N,Net-(P1-Pad5)*%
X49485002Y-53400000D02*
X50300000Y-53400000D01*
X48285002Y-52200000D02*
X49485002Y-53400000D01*
X29600000Y-52200000D02*
X48285002Y-52200000D01*
%TO.N,Net-(P1-Pad4)*%
X29600000Y-49700000D02*
X31300000Y-49700000D01*
X31300000Y-49700000D02*
X31850000Y-49150000D01*
X48590000Y-49150000D02*
X50300000Y-50860000D01*
X31850000Y-49150000D02*
X48590000Y-49150000D01*
%TO.N,Net-(P1-Pad3)*%
X50044999Y-48575001D02*
X50300000Y-48320000D01*
X30975001Y-48575001D02*
X50044999Y-48575001D01*
X29600000Y-47200000D02*
X30975001Y-48575001D01*
D19*
%TO.N,+3V3*%
X29600000Y-42200000D02*
X28000000Y-42200000D01*
X22849999Y-47350001D02*
X22849999Y-76949999D01*
X28000000Y-42200000D02*
X22849999Y-47350001D01*
X74549990Y-77410010D02*
X75700000Y-76260000D01*
X23310010Y-77410010D02*
X74549990Y-77410010D01*
X22849999Y-76949999D02*
X23310010Y-77410010D01*
D20*
%TO.N,Dallas*%
X69000000Y-24550000D02*
X68900000Y-24450000D01*
X69000000Y-31800000D02*
X69000000Y-24550000D01*
%TO.N,Gate_logic*%
X71400000Y-44020000D02*
X75700000Y-48320000D01*
X71400000Y-24450000D02*
X71400000Y-44020000D01*
%TO.N,UI_RotEnc_Push*%
X57850000Y-66170000D02*
X50300000Y-73720000D01*
X57850000Y-51700000D02*
X57850000Y-66170000D01*
%TO.N,FAN_GND*%
X51600000Y-23200000D02*
X50100000Y-23200000D01*
X54450000Y-26050000D02*
X51600000Y-23200000D01*
%TO.N,Shuntvoltage*%
X70100000Y-53500000D02*
X70100000Y-38150000D01*
X70025000Y-38150000D02*
X62925000Y-31050000D01*
X70100000Y-38150000D02*
X70025000Y-38150000D01*
%TO.N,EnableSupply*%
X53675001Y-67804999D02*
X53675001Y-66624999D01*
X50300000Y-71180000D02*
X53675001Y-67804999D01*
X56150000Y-64150000D02*
X56150000Y-43750000D01*
X53675001Y-66624999D02*
X56150000Y-64150000D01*
X56150000Y-42450000D02*
X57650000Y-40950000D01*
X56150000Y-43750000D02*
X56150000Y-42450000D01*
X61400000Y-30200000D02*
X61400000Y-24450000D01*
X57750000Y-33850000D02*
X61400000Y-30200000D01*
%TO.N,Vbat_ADC*%
X75700000Y-66100000D02*
X67250000Y-57650000D01*
X67250000Y-36850000D02*
X63650000Y-33250000D01*
X67250000Y-57650000D02*
X67250000Y-36850000D01*
%TO.N,ChargerEna*%
X50300000Y-41531839D02*
X50300000Y-40700000D01*
X52950000Y-44181839D02*
X50300000Y-41531839D01*
X52950000Y-59050000D02*
X52950000Y-44181839D01*
%TO.N,ProbeADC*%
X68150000Y-56010000D02*
X75700000Y-63560000D01*
X68150000Y-39000000D02*
X68150000Y-56010000D01*
%TO.N,VCC_ADC*%
X69050000Y-54370000D02*
X75700000Y-61020000D01*
X69050000Y-40450000D02*
X69050000Y-54370000D01*
%TO.N,ExtPWRADC*%
X65650000Y-59200000D02*
X65650000Y-57500000D01*
X66300000Y-56850000D02*
X66300000Y-50850000D01*
X65650000Y-57500000D02*
X66300000Y-56850000D01*
%TD*%
D21*
%TO.N,GND*%
X84940000Y-73535454D02*
X84852994Y-73098048D01*
X84594057Y-72472918D01*
X84218138Y-71910315D01*
X83739685Y-71431862D01*
X83177082Y-71055943D01*
X82551952Y-70797006D01*
X81888318Y-70665000D01*
X81211682Y-70665000D01*
X80548048Y-70797006D01*
X79922918Y-71055943D01*
X79360315Y-71431862D01*
X78881862Y-71910315D01*
X78505943Y-72472918D01*
X78247006Y-73098048D01*
X78115000Y-73761682D01*
X78115000Y-74438318D01*
X78247006Y-75101952D01*
X78505943Y-75727082D01*
X78881862Y-76289685D01*
X79360315Y-76768138D01*
X79922918Y-77144057D01*
X80548048Y-77402994D01*
X81211682Y-77535000D01*
X81888318Y-77535000D01*
X82551952Y-77402994D01*
X83177082Y-77144057D01*
X83739685Y-76768138D01*
X84218138Y-76289685D01*
X84594057Y-75727082D01*
X84852994Y-75101952D01*
X84940000Y-74664546D01*
X84940000Y-79340000D01*
X20660000Y-79340000D01*
X20660000Y-47350001D01*
X21960718Y-47350001D01*
X21964999Y-47393470D01*
X21965000Y-76906520D01*
X21960718Y-76949999D01*
X21977804Y-77123489D01*
X22028411Y-77290312D01*
X22110589Y-77444058D01*
X22193467Y-77545045D01*
X22193470Y-77545048D01*
X22221183Y-77578816D01*
X22254951Y-77606529D01*
X22653476Y-78005054D01*
X22681193Y-78038827D01*
X22815951Y-78149421D01*
X22969697Y-78231599D01*
X23136520Y-78282205D01*
X23266533Y-78295010D01*
X23266541Y-78295010D01*
X23310010Y-78299291D01*
X23353479Y-78295010D01*
X74506521Y-78295010D01*
X74549990Y-78299291D01*
X74593459Y-78295010D01*
X74593467Y-78295010D01*
X74723480Y-78282205D01*
X74890303Y-78231599D01*
X75044049Y-78149421D01*
X75178807Y-78038827D01*
X75206524Y-78005054D01*
X75716578Y-77495000D01*
X76160665Y-77495000D01*
X76342102Y-77477130D01*
X76574901Y-77406511D01*
X76789449Y-77291833D01*
X76977502Y-77137502D01*
X77131833Y-76949449D01*
X77246511Y-76734901D01*
X77317130Y-76502102D01*
X77340975Y-76260000D01*
X77317130Y-76017898D01*
X77246511Y-75785099D01*
X77131833Y-75570551D01*
X76977502Y-75382498D01*
X76789449Y-75228167D01*
X76574901Y-75113489D01*
X76342102Y-75042870D01*
X76160665Y-75025000D01*
X75239335Y-75025000D01*
X75057898Y-75042870D01*
X74825099Y-75113489D01*
X74610551Y-75228167D01*
X74422498Y-75382498D01*
X74268167Y-75570551D01*
X74153489Y-75785099D01*
X74082870Y-76017898D01*
X74059025Y-76260000D01*
X74082870Y-76502102D01*
X74089819Y-76525010D01*
X51859042Y-76525010D01*
X51768731Y-76387000D01*
X50427000Y-76387000D01*
X50427000Y-76407000D01*
X50173000Y-76407000D01*
X50173000Y-76387000D01*
X48831269Y-76387000D01*
X48740958Y-76525010D01*
X23734999Y-76525010D01*
X23734999Y-75942391D01*
X48706538Y-75942391D01*
X48831269Y-76133000D01*
X50173000Y-76133000D01*
X50173000Y-75025000D01*
X50427000Y-75025000D01*
X50427000Y-76133000D01*
X51768731Y-76133000D01*
X51893462Y-75942391D01*
X51889591Y-75904718D01*
X51797421Y-75679467D01*
X51663078Y-75476526D01*
X51491725Y-75303693D01*
X51289946Y-75167610D01*
X51065496Y-75073507D01*
X50827000Y-75025000D01*
X50427000Y-75025000D01*
X50173000Y-75025000D01*
X49773000Y-75025000D01*
X49534504Y-75073507D01*
X49310054Y-75167610D01*
X49108275Y-75303693D01*
X48936922Y-75476526D01*
X48802579Y-75679467D01*
X48710409Y-75904718D01*
X48706538Y-75942391D01*
X23734999Y-75942391D01*
X23734999Y-73992822D01*
X24010315Y-74268138D01*
X24572918Y-74644057D01*
X25198048Y-74902994D01*
X25861682Y-75035000D01*
X26538318Y-75035000D01*
X27201952Y-74902994D01*
X27827082Y-74644057D01*
X28389685Y-74268138D01*
X28868138Y-73789685D01*
X29244057Y-73227082D01*
X29502994Y-72601952D01*
X29635000Y-71938318D01*
X29635000Y-71261682D01*
X29502994Y-70598048D01*
X29244057Y-69972918D01*
X28868138Y-69410315D01*
X28389685Y-68931862D01*
X27827082Y-68555943D01*
X27201952Y-68297006D01*
X26538318Y-68165000D01*
X25861682Y-68165000D01*
X25198048Y-68297006D01*
X24572918Y-68555943D01*
X24010315Y-68931862D01*
X23734999Y-69207178D01*
X23734999Y-67625000D01*
X33261928Y-67625000D01*
X33261928Y-69075000D01*
X33278992Y-69248254D01*
X33329528Y-69414850D01*
X33411595Y-69568386D01*
X33522038Y-69702962D01*
X33656614Y-69813405D01*
X33810150Y-69895472D01*
X33976746Y-69946008D01*
X34150000Y-69963072D01*
X35350000Y-69963072D01*
X35523254Y-69946008D01*
X35689850Y-69895472D01*
X35843386Y-69813405D01*
X35977962Y-69702962D01*
X36088405Y-69568386D01*
X36144714Y-69463039D01*
X36160951Y-69484429D01*
X36378807Y-69677496D01*
X36630142Y-69824352D01*
X36893110Y-69916476D01*
X37123000Y-69795155D01*
X37123000Y-68477000D01*
X37103000Y-68477000D01*
X37103000Y-68223000D01*
X37123000Y-68223000D01*
X37123000Y-66904845D01*
X37377000Y-66904845D01*
X37377000Y-68223000D01*
X37397000Y-68223000D01*
X37397000Y-68477000D01*
X37377000Y-68477000D01*
X37377000Y-69795155D01*
X37606890Y-69916476D01*
X37869858Y-69824352D01*
X38121193Y-69677496D01*
X38339049Y-69484429D01*
X38495538Y-69278278D01*
X38509294Y-69304014D01*
X38694866Y-69530134D01*
X38920987Y-69715706D01*
X39178967Y-69853599D01*
X39458890Y-69938513D01*
X39750000Y-69967185D01*
X40041111Y-69938513D01*
X40321034Y-69853599D01*
X40579014Y-69715706D01*
X40805134Y-69530134D01*
X40990706Y-69304014D01*
X41000000Y-69286626D01*
X41009294Y-69304014D01*
X41194866Y-69530134D01*
X41420987Y-69715706D01*
X41678967Y-69853599D01*
X41958890Y-69938513D01*
X42250000Y-69967185D01*
X42541111Y-69938513D01*
X42821034Y-69853599D01*
X43079014Y-69715706D01*
X43305134Y-69530134D01*
X43490706Y-69304014D01*
X43500000Y-69286626D01*
X43509294Y-69304014D01*
X43694866Y-69530134D01*
X43920987Y-69715706D01*
X44178967Y-69853599D01*
X44458890Y-69938513D01*
X44750000Y-69967185D01*
X45041111Y-69938513D01*
X45321034Y-69853599D01*
X45579014Y-69715706D01*
X45805134Y-69530134D01*
X45990706Y-69304014D01*
X46128599Y-69046033D01*
X46213513Y-68766110D01*
X46235000Y-68547949D01*
X46235000Y-68152050D01*
X46213513Y-67933889D01*
X46128599Y-67653966D01*
X45990706Y-67395986D01*
X45805134Y-67169866D01*
X45579013Y-66984294D01*
X45321033Y-66846401D01*
X45041110Y-66761487D01*
X44750000Y-66732815D01*
X44458889Y-66761487D01*
X44178966Y-66846401D01*
X43920986Y-66984294D01*
X43694866Y-67169866D01*
X43509294Y-67395987D01*
X43500000Y-67413374D01*
X43490706Y-67395986D01*
X43305134Y-67169866D01*
X43079013Y-66984294D01*
X42821033Y-66846401D01*
X42541110Y-66761487D01*
X42250000Y-66732815D01*
X41958889Y-66761487D01*
X41678966Y-66846401D01*
X41420986Y-66984294D01*
X41194866Y-67169866D01*
X41009294Y-67395987D01*
X41000000Y-67413374D01*
X40990706Y-67395986D01*
X40805134Y-67169866D01*
X40579013Y-66984294D01*
X40321033Y-66846401D01*
X40041110Y-66761487D01*
X39750000Y-66732815D01*
X39458889Y-66761487D01*
X39178966Y-66846401D01*
X38920986Y-66984294D01*
X38694866Y-67169866D01*
X38509294Y-67395987D01*
X38495538Y-67421722D01*
X38339049Y-67215571D01*
X38121193Y-67022504D01*
X37869858Y-66875648D01*
X37606890Y-66783524D01*
X37377000Y-66904845D01*
X37123000Y-66904845D01*
X36893110Y-66783524D01*
X36630142Y-66875648D01*
X36378807Y-67022504D01*
X36160951Y-67215571D01*
X36144714Y-67236961D01*
X36088405Y-67131614D01*
X35977962Y-66997038D01*
X35843386Y-66886595D01*
X35689850Y-66804528D01*
X35523254Y-66753992D01*
X35350000Y-66736928D01*
X34150000Y-66736928D01*
X33976746Y-66753992D01*
X33810150Y-66804528D01*
X33656614Y-66886595D01*
X33522038Y-66997038D01*
X33411595Y-67131614D01*
X33329528Y-67285150D01*
X33278992Y-67451746D01*
X33261928Y-67625000D01*
X23734999Y-67625000D01*
X23734999Y-66100000D01*
X48659025Y-66100000D01*
X48682870Y-66342102D01*
X48753489Y-66574901D01*
X48868167Y-66789449D01*
X49022498Y-66977502D01*
X49210551Y-67131833D01*
X49425099Y-67246511D01*
X49657898Y-67317130D01*
X49839335Y-67335000D01*
X50760665Y-67335000D01*
X50942102Y-67317130D01*
X51174901Y-67246511D01*
X51389449Y-67131833D01*
X51577502Y-66977502D01*
X51731833Y-66789449D01*
X51846511Y-66574901D01*
X51917130Y-66342102D01*
X51940975Y-66100000D01*
X51917130Y-65857898D01*
X51846511Y-65625099D01*
X51731833Y-65410551D01*
X51577502Y-65222498D01*
X51389449Y-65068167D01*
X51174901Y-64953489D01*
X50942102Y-64882870D01*
X50760665Y-64865000D01*
X49839335Y-64865000D01*
X49657898Y-64882870D01*
X49425099Y-64953489D01*
X49210551Y-65068167D01*
X49022498Y-65222498D01*
X48868167Y-65410551D01*
X48753489Y-65625099D01*
X48682870Y-65857898D01*
X48659025Y-66100000D01*
X23734999Y-66100000D01*
X23734999Y-47716579D01*
X24251578Y-47200000D01*
X27982815Y-47200000D01*
X28011487Y-47491111D01*
X28096401Y-47771034D01*
X28234294Y-48029014D01*
X28419866Y-48255134D01*
X28645986Y-48440706D01*
X28663374Y-48450000D01*
X28645986Y-48459294D01*
X28419866Y-48644866D01*
X28234294Y-48870986D01*
X28096401Y-49128966D01*
X28011487Y-49408889D01*
X27982815Y-49700000D01*
X28011487Y-49991111D01*
X28096401Y-50271034D01*
X28234294Y-50529014D01*
X28419866Y-50755134D01*
X28645986Y-50940706D01*
X28663374Y-50950000D01*
X28645986Y-50959294D01*
X28419866Y-51144866D01*
X28234294Y-51370986D01*
X28096401Y-51628966D01*
X28011487Y-51908889D01*
X27982815Y-52200000D01*
X28011487Y-52491111D01*
X28096401Y-52771034D01*
X28234294Y-53029014D01*
X28419866Y-53255134D01*
X28645986Y-53440706D01*
X28663374Y-53450000D01*
X28645986Y-53459294D01*
X28419866Y-53644866D01*
X28234294Y-53870986D01*
X28096401Y-54128966D01*
X28011487Y-54408889D01*
X27982815Y-54700000D01*
X28011487Y-54991111D01*
X28096401Y-55271034D01*
X28234294Y-55529014D01*
X28419866Y-55755134D01*
X28645986Y-55940706D01*
X28663374Y-55950000D01*
X28645986Y-55959294D01*
X28419866Y-56144866D01*
X28234294Y-56370986D01*
X28096401Y-56628966D01*
X28011487Y-56908889D01*
X27982815Y-57200000D01*
X28011487Y-57491111D01*
X28096401Y-57771034D01*
X28234294Y-58029014D01*
X28419866Y-58255134D01*
X28645986Y-58440706D01*
X28663374Y-58450000D01*
X28645986Y-58459294D01*
X28419866Y-58644866D01*
X28234294Y-58870986D01*
X28096401Y-59128966D01*
X28011487Y-59408889D01*
X27982815Y-59700000D01*
X28011487Y-59991111D01*
X28096401Y-60271034D01*
X28234294Y-60529014D01*
X28419866Y-60755134D01*
X28645986Y-60940706D01*
X28903966Y-61078599D01*
X29183889Y-61163513D01*
X29402050Y-61185000D01*
X29797950Y-61185000D01*
X30016111Y-61163513D01*
X30296034Y-61078599D01*
X30554014Y-60940706D01*
X30780134Y-60755134D01*
X30907449Y-60600000D01*
X36311928Y-60600000D01*
X36311928Y-62600000D01*
X36324188Y-62724482D01*
X36360498Y-62844180D01*
X36419463Y-62954494D01*
X36498815Y-63051185D01*
X36595506Y-63130537D01*
X36705820Y-63189502D01*
X36825518Y-63225812D01*
X36950000Y-63238072D01*
X38950000Y-63238072D01*
X39074482Y-63225812D01*
X39194180Y-63189502D01*
X39304494Y-63130537D01*
X39401185Y-63051185D01*
X39480537Y-62954494D01*
X39535976Y-62850777D01*
X39589956Y-62999814D01*
X39879571Y-63140704D01*
X40191108Y-63222384D01*
X40512595Y-63241718D01*
X40831675Y-63197961D01*
X41136088Y-63092795D01*
X41310044Y-62999814D01*
X41405808Y-62735413D01*
X40450000Y-61779605D01*
X40435858Y-61793748D01*
X40256253Y-61614143D01*
X40270395Y-61600000D01*
X40629605Y-61600000D01*
X41585413Y-62555808D01*
X41615075Y-62545065D01*
X41680013Y-62642252D01*
X41907748Y-62869987D01*
X42175537Y-63048918D01*
X42473088Y-63172168D01*
X42788967Y-63235000D01*
X43111033Y-63235000D01*
X43426912Y-63172168D01*
X43724463Y-63048918D01*
X43992252Y-62869987D01*
X44219987Y-62642252D01*
X44398918Y-62374463D01*
X44522168Y-62076912D01*
X44585000Y-61761033D01*
X44585000Y-61438967D01*
X44522168Y-61123088D01*
X44398918Y-60825537D01*
X44219987Y-60557748D01*
X43992252Y-60330013D01*
X43724463Y-60151082D01*
X43426912Y-60027832D01*
X43111033Y-59965000D01*
X42788967Y-59965000D01*
X42473088Y-60027832D01*
X42175537Y-60151082D01*
X41907748Y-60330013D01*
X41680013Y-60557748D01*
X41615075Y-60654935D01*
X41585413Y-60644192D01*
X40629605Y-61600000D01*
X40270395Y-61600000D01*
X40256253Y-61585858D01*
X40435858Y-61406253D01*
X40450000Y-61420395D01*
X41405808Y-60464587D01*
X41310044Y-60200186D01*
X41020429Y-60059296D01*
X40708892Y-59977616D01*
X40387405Y-59958282D01*
X40068325Y-60002039D01*
X39763912Y-60107205D01*
X39589956Y-60200186D01*
X39535976Y-60349223D01*
X39480537Y-60245506D01*
X39401185Y-60148815D01*
X39304494Y-60069463D01*
X39194180Y-60010498D01*
X39074482Y-59974188D01*
X38950000Y-59961928D01*
X36950000Y-59961928D01*
X36825518Y-59974188D01*
X36705820Y-60010498D01*
X36595506Y-60069463D01*
X36498815Y-60148815D01*
X36419463Y-60245506D01*
X36360498Y-60355820D01*
X36324188Y-60475518D01*
X36311928Y-60600000D01*
X30907449Y-60600000D01*
X30965706Y-60529014D01*
X31103599Y-60271034D01*
X31188513Y-59991111D01*
X31217185Y-59700000D01*
X31188513Y-59408889D01*
X31103599Y-59128966D01*
X31066062Y-59058739D01*
X32214802Y-57910000D01*
X44494275Y-57910000D01*
X44622853Y-57949003D01*
X44734506Y-57960000D01*
X44734514Y-57960000D01*
X44771839Y-57963676D01*
X44809164Y-57960000D01*
X46540000Y-57960000D01*
X46540001Y-60522668D01*
X46536324Y-60560000D01*
X46540001Y-60597333D01*
X46550998Y-60708986D01*
X46564180Y-60752442D01*
X46594454Y-60852246D01*
X46665026Y-60984276D01*
X46736201Y-61071002D01*
X46760000Y-61100001D01*
X46788998Y-61123799D01*
X48752746Y-63087548D01*
X48682870Y-63317898D01*
X48659025Y-63560000D01*
X48682870Y-63802102D01*
X48753489Y-64034901D01*
X48868167Y-64249449D01*
X49022498Y-64437502D01*
X49210551Y-64591833D01*
X49425099Y-64706511D01*
X49657898Y-64777130D01*
X49839335Y-64795000D01*
X50760665Y-64795000D01*
X50942102Y-64777130D01*
X51174901Y-64706511D01*
X51389449Y-64591833D01*
X51577502Y-64437502D01*
X51731833Y-64249449D01*
X51846511Y-64034901D01*
X51917130Y-63802102D01*
X51940975Y-63560000D01*
X51917130Y-63317898D01*
X51846511Y-63085099D01*
X51731833Y-62870551D01*
X51577502Y-62682498D01*
X51389449Y-62528167D01*
X51174901Y-62413489D01*
X50942102Y-62342870D01*
X50760665Y-62325000D01*
X50139802Y-62325000D01*
X50069802Y-62255000D01*
X50760665Y-62255000D01*
X50942102Y-62237130D01*
X51174901Y-62166511D01*
X51389449Y-62051833D01*
X51577502Y-61897502D01*
X51731833Y-61709449D01*
X51846511Y-61494901D01*
X51917130Y-61262102D01*
X51940975Y-61020000D01*
X51917130Y-60777898D01*
X51846511Y-60545099D01*
X51731833Y-60330551D01*
X51577502Y-60142498D01*
X51389449Y-59988167D01*
X51174901Y-59873489D01*
X50942102Y-59802870D01*
X50760665Y-59785000D01*
X49839335Y-59785000D01*
X49657898Y-59802870D01*
X49425099Y-59873489D01*
X49210551Y-59988167D01*
X49022498Y-60142498D01*
X48868167Y-60330551D01*
X48753489Y-60545099D01*
X48682870Y-60777898D01*
X48674785Y-60859984D01*
X48060000Y-60245199D01*
X48060000Y-57534801D01*
X48701542Y-58176344D01*
X48682870Y-58237898D01*
X48659025Y-58480000D01*
X48682870Y-58722102D01*
X48753489Y-58954901D01*
X48868167Y-59169449D01*
X49022498Y-59357502D01*
X49210551Y-59511833D01*
X49425099Y-59626511D01*
X49657898Y-59697130D01*
X49839335Y-59715000D01*
X50760665Y-59715000D01*
X50942102Y-59697130D01*
X51174901Y-59626511D01*
X51389449Y-59511833D01*
X51577502Y-59357502D01*
X51731833Y-59169449D01*
X51846511Y-58954901D01*
X51917130Y-58722102D01*
X51940975Y-58480000D01*
X51917130Y-58237898D01*
X51846511Y-58005099D01*
X51731833Y-57790551D01*
X51577502Y-57602498D01*
X51389449Y-57448167D01*
X51174901Y-57333489D01*
X50942102Y-57262870D01*
X50760665Y-57245000D01*
X49919802Y-57245000D01*
X49849802Y-57175000D01*
X50760665Y-57175000D01*
X50942102Y-57157130D01*
X51174901Y-57086511D01*
X51389449Y-56971833D01*
X51577502Y-56817502D01*
X51731833Y-56629449D01*
X51846511Y-56414901D01*
X51917130Y-56182102D01*
X51940975Y-55940000D01*
X51917130Y-55697898D01*
X51846511Y-55465099D01*
X51731833Y-55250551D01*
X51577502Y-55062498D01*
X51389449Y-54908167D01*
X51174901Y-54793489D01*
X50942102Y-54722870D01*
X50760665Y-54705000D01*
X49839335Y-54705000D01*
X49657898Y-54722870D01*
X49425099Y-54793489D01*
X49210551Y-54908167D01*
X49022498Y-55062498D01*
X48897342Y-55215001D01*
X47938072Y-55215001D01*
X47938072Y-52960000D01*
X47970201Y-52960000D01*
X48696180Y-53685980D01*
X48753489Y-53874901D01*
X48868167Y-54089449D01*
X49022498Y-54277502D01*
X49210551Y-54431833D01*
X49425099Y-54546511D01*
X49657898Y-54617130D01*
X49839335Y-54635000D01*
X50760665Y-54635000D01*
X50942102Y-54617130D01*
X51174901Y-54546511D01*
X51389449Y-54431833D01*
X51577502Y-54277502D01*
X51731833Y-54089449D01*
X51846511Y-53874901D01*
X51917130Y-53642102D01*
X51940975Y-53400000D01*
X51917130Y-53157898D01*
X51846511Y-52925099D01*
X51731833Y-52710551D01*
X51577502Y-52522498D01*
X51389449Y-52368167D01*
X51174901Y-52253489D01*
X50942102Y-52182870D01*
X50760665Y-52165000D01*
X49839335Y-52165000D01*
X49657898Y-52182870D01*
X49425099Y-52253489D01*
X49417405Y-52257602D01*
X48848806Y-51689003D01*
X48825003Y-51659999D01*
X48709278Y-51565026D01*
X48577249Y-51494454D01*
X48433988Y-51450997D01*
X48322335Y-51440000D01*
X48322324Y-51440000D01*
X48285002Y-51436324D01*
X48247680Y-51440000D01*
X31002595Y-51440000D01*
X30965706Y-51370986D01*
X30780134Y-51144866D01*
X30554014Y-50959294D01*
X30536626Y-50950000D01*
X30554014Y-50940706D01*
X30780134Y-50755134D01*
X30965706Y-50529014D01*
X31002595Y-50460000D01*
X31262678Y-50460000D01*
X31300000Y-50463676D01*
X31337322Y-50460000D01*
X31337333Y-50460000D01*
X31448986Y-50449003D01*
X31592247Y-50405546D01*
X31724276Y-50334974D01*
X31840001Y-50240001D01*
X31863803Y-50210998D01*
X32164802Y-49910000D01*
X48275199Y-49910000D01*
X48752746Y-50387548D01*
X48682870Y-50617898D01*
X48659025Y-50860000D01*
X48682870Y-51102102D01*
X48753489Y-51334901D01*
X48868167Y-51549449D01*
X49022498Y-51737502D01*
X49210551Y-51891833D01*
X49425099Y-52006511D01*
X49657898Y-52077130D01*
X49839335Y-52095000D01*
X50760665Y-52095000D01*
X50942102Y-52077130D01*
X51174901Y-52006511D01*
X51389449Y-51891833D01*
X51577502Y-51737502D01*
X51731833Y-51549449D01*
X51846511Y-51334901D01*
X51917130Y-51102102D01*
X51940975Y-50860000D01*
X51917130Y-50617898D01*
X51846511Y-50385099D01*
X51731833Y-50170551D01*
X51577502Y-49982498D01*
X51389449Y-49828167D01*
X51174901Y-49713489D01*
X50942102Y-49642870D01*
X50760665Y-49625000D01*
X50139802Y-49625000D01*
X50069802Y-49555000D01*
X50760665Y-49555000D01*
X50942102Y-49537130D01*
X51174901Y-49466511D01*
X51389449Y-49351833D01*
X51577502Y-49197502D01*
X51731833Y-49009449D01*
X51846511Y-48794901D01*
X51917130Y-48562102D01*
X51940975Y-48320000D01*
X51917130Y-48077898D01*
X51846511Y-47845099D01*
X51731833Y-47630551D01*
X51577502Y-47442498D01*
X51389449Y-47288167D01*
X51174901Y-47173489D01*
X50942102Y-47102870D01*
X50760665Y-47085000D01*
X49839335Y-47085000D01*
X49657898Y-47102870D01*
X49425099Y-47173489D01*
X49210551Y-47288167D01*
X49022498Y-47442498D01*
X48868167Y-47630551D01*
X48769577Y-47815001D01*
X44423548Y-47815001D01*
X44522168Y-47576912D01*
X44585000Y-47261033D01*
X44585000Y-46938967D01*
X44522168Y-46623088D01*
X44398918Y-46325537D01*
X44219987Y-46057748D01*
X43992252Y-45830013D01*
X43917403Y-45780000D01*
X48659025Y-45780000D01*
X48682870Y-46022102D01*
X48753489Y-46254901D01*
X48868167Y-46469449D01*
X49022498Y-46657502D01*
X49210551Y-46811833D01*
X49425099Y-46926511D01*
X49657898Y-46997130D01*
X49839335Y-47015000D01*
X50760665Y-47015000D01*
X50942102Y-46997130D01*
X51174901Y-46926511D01*
X51389449Y-46811833D01*
X51577502Y-46657502D01*
X51731833Y-46469449D01*
X51846511Y-46254901D01*
X51917130Y-46022102D01*
X51940975Y-45780000D01*
X51917130Y-45537898D01*
X51846511Y-45305099D01*
X51731833Y-45090551D01*
X51577502Y-44902498D01*
X51389449Y-44748167D01*
X51174901Y-44633489D01*
X50942102Y-44562870D01*
X50760665Y-44545000D01*
X49839335Y-44545000D01*
X49657898Y-44562870D01*
X49425099Y-44633489D01*
X49210551Y-44748167D01*
X49022498Y-44902498D01*
X48868167Y-45090551D01*
X48753489Y-45305099D01*
X48682870Y-45537898D01*
X48659025Y-45780000D01*
X43917403Y-45780000D01*
X43724463Y-45651082D01*
X43426912Y-45527832D01*
X43111033Y-45465000D01*
X42788967Y-45465000D01*
X42473088Y-45527832D01*
X42175537Y-45651082D01*
X41907748Y-45830013D01*
X41680013Y-46057748D01*
X41501082Y-46325537D01*
X41377832Y-46623088D01*
X41315000Y-46938967D01*
X41315000Y-47261033D01*
X41377832Y-47576912D01*
X41476452Y-47815001D01*
X39420374Y-47815001D01*
X39490704Y-47670429D01*
X39572384Y-47358892D01*
X39591718Y-47037405D01*
X39547961Y-46718325D01*
X39442795Y-46413912D01*
X39349814Y-46239956D01*
X39085413Y-46144192D01*
X38129605Y-47100000D01*
X38143748Y-47114143D01*
X37964143Y-47293748D01*
X37950000Y-47279605D01*
X37935858Y-47293748D01*
X37756253Y-47114143D01*
X37770395Y-47100000D01*
X36814587Y-46144192D01*
X36550186Y-46239956D01*
X36409296Y-46529571D01*
X36327616Y-46841108D01*
X36308282Y-47162595D01*
X36352039Y-47481675D01*
X36457205Y-47786088D01*
X36472659Y-47815001D01*
X31289803Y-47815001D01*
X31136704Y-47661902D01*
X31188513Y-47491111D01*
X31217185Y-47200000D01*
X31188513Y-46908889D01*
X31103599Y-46628966D01*
X30965706Y-46370986D01*
X30780134Y-46144866D01*
X30560464Y-45964587D01*
X36994192Y-45964587D01*
X37950000Y-46920395D01*
X38905808Y-45964587D01*
X38810044Y-45700186D01*
X38520429Y-45559296D01*
X38208892Y-45477616D01*
X37887405Y-45458282D01*
X37568325Y-45502039D01*
X37263912Y-45607205D01*
X37089956Y-45700186D01*
X36994192Y-45964587D01*
X30560464Y-45964587D01*
X30554014Y-45959294D01*
X30528278Y-45945538D01*
X30734429Y-45789049D01*
X30927496Y-45571193D01*
X31074352Y-45319858D01*
X31166476Y-45056890D01*
X31045155Y-44827000D01*
X29727000Y-44827000D01*
X29727000Y-44847000D01*
X29473000Y-44847000D01*
X29473000Y-44827000D01*
X28154845Y-44827000D01*
X28033524Y-45056890D01*
X28125648Y-45319858D01*
X28272504Y-45571193D01*
X28465571Y-45789049D01*
X28671722Y-45945538D01*
X28645986Y-45959294D01*
X28419866Y-46144866D01*
X28234294Y-46370986D01*
X28096401Y-46628966D01*
X28011487Y-46908889D01*
X27982815Y-47200000D01*
X24251578Y-47200000D01*
X28146330Y-43305249D01*
X28247038Y-43427962D01*
X28381614Y-43538405D01*
X28486961Y-43594714D01*
X28465571Y-43610951D01*
X28272504Y-43828807D01*
X28125648Y-44080142D01*
X28033524Y-44343110D01*
X28154845Y-44573000D01*
X29473000Y-44573000D01*
X29473000Y-44553000D01*
X29727000Y-44553000D01*
X29727000Y-44573000D01*
X31045155Y-44573000D01*
X31166476Y-44343110D01*
X31074352Y-44080142D01*
X30927496Y-43828807D01*
X30734429Y-43610951D01*
X30713039Y-43594714D01*
X30818386Y-43538405D01*
X30952962Y-43427962D01*
X31063405Y-43293386D01*
X31145472Y-43139850D01*
X31196008Y-42973254D01*
X31213072Y-42800000D01*
X31213072Y-41600000D01*
X31196008Y-41426746D01*
X31145472Y-41260150D01*
X31063405Y-41106614D01*
X30952962Y-40972038D01*
X30818386Y-40861595D01*
X30664850Y-40779528D01*
X30498254Y-40728992D01*
X30325000Y-40711928D01*
X28875000Y-40711928D01*
X28701746Y-40728992D01*
X28535150Y-40779528D01*
X28381614Y-40861595D01*
X28247038Y-40972038D01*
X28136595Y-41106614D01*
X28054528Y-41260150D01*
X28038051Y-41314467D01*
X27999999Y-41310719D01*
X27956533Y-41315000D01*
X27956523Y-41315000D01*
X27826510Y-41327805D01*
X27659687Y-41378411D01*
X27505941Y-41460589D01*
X27505939Y-41460590D01*
X27505940Y-41460590D01*
X27404953Y-41543468D01*
X27404951Y-41543470D01*
X27371183Y-41571183D01*
X27343470Y-41604951D01*
X22254955Y-46693467D01*
X22221182Y-46721184D01*
X22110588Y-46855943D01*
X22028410Y-47009689D01*
X21977804Y-47176512D01*
X21964999Y-47306525D01*
X21964999Y-47306532D01*
X21960718Y-47350001D01*
X20660000Y-47350001D01*
X20660000Y-40700000D01*
X48659025Y-40700000D01*
X48682870Y-40942102D01*
X48753489Y-41174901D01*
X48868167Y-41389449D01*
X49022498Y-41577502D01*
X49210551Y-41731833D01*
X49425099Y-41846511D01*
X49641535Y-41912166D01*
X49665026Y-41956115D01*
X49688732Y-41985000D01*
X49715181Y-42017228D01*
X49657898Y-42022870D01*
X49425099Y-42093489D01*
X49210551Y-42208167D01*
X49022498Y-42362498D01*
X48868167Y-42550551D01*
X48753489Y-42765099D01*
X48682870Y-42997898D01*
X48659025Y-43240000D01*
X48682870Y-43482102D01*
X48753489Y-43714901D01*
X48868167Y-43929449D01*
X49022498Y-44117502D01*
X49210551Y-44271833D01*
X49425099Y-44386511D01*
X49657898Y-44457130D01*
X49839335Y-44475000D01*
X50760665Y-44475000D01*
X50942102Y-44457130D01*
X51174901Y-44386511D01*
X51389449Y-44271833D01*
X51577502Y-44117502D01*
X51682690Y-43989330D01*
X52190001Y-44496642D01*
X52190000Y-58346289D01*
X52146063Y-58390226D01*
X52032795Y-58559744D01*
X51954774Y-58748102D01*
X51915000Y-58948061D01*
X51915000Y-59151939D01*
X51954774Y-59351898D01*
X52032795Y-59540256D01*
X52146063Y-59709774D01*
X52290226Y-59853937D01*
X52459744Y-59967205D01*
X52648102Y-60045226D01*
X52848061Y-60085000D01*
X53051939Y-60085000D01*
X53251898Y-60045226D01*
X53440256Y-59967205D01*
X53609774Y-59853937D01*
X53753937Y-59709774D01*
X53867205Y-59540256D01*
X53945226Y-59351898D01*
X53985000Y-59151939D01*
X53985000Y-58948061D01*
X53945226Y-58748102D01*
X53867205Y-58559744D01*
X53753937Y-58390226D01*
X53710000Y-58346289D01*
X53710000Y-44219162D01*
X53713676Y-44181839D01*
X53710000Y-44144516D01*
X53710000Y-44144506D01*
X53699003Y-44032853D01*
X53655546Y-43889592D01*
X53645616Y-43871015D01*
X53584974Y-43757562D01*
X53513799Y-43670836D01*
X53490001Y-43641838D01*
X53461003Y-43618040D01*
X51491250Y-41648287D01*
X51577502Y-41577502D01*
X51731833Y-41389449D01*
X51846511Y-41174901D01*
X51917130Y-40942102D01*
X51940975Y-40700000D01*
X51917130Y-40457898D01*
X51846511Y-40225099D01*
X51731833Y-40010551D01*
X51577502Y-39822498D01*
X51389449Y-39668167D01*
X51174901Y-39553489D01*
X50942102Y-39482870D01*
X50760665Y-39465000D01*
X49839335Y-39465000D01*
X49657898Y-39482870D01*
X49425099Y-39553489D01*
X49210551Y-39668167D01*
X49022498Y-39822498D01*
X48868167Y-40010551D01*
X48753489Y-40225099D01*
X48682870Y-40457898D01*
X48659025Y-40700000D01*
X20660000Y-40700000D01*
X20660000Y-33411682D01*
X22615000Y-33411682D01*
X22615000Y-34088318D01*
X22747006Y-34751952D01*
X23005943Y-35377082D01*
X23381862Y-35939685D01*
X23860315Y-36418138D01*
X24422918Y-36794057D01*
X25048048Y-37052994D01*
X25711682Y-37185000D01*
X26388318Y-37185000D01*
X27051952Y-37052994D01*
X27677082Y-36794057D01*
X28239685Y-36418138D01*
X28257823Y-36400000D01*
X35411928Y-36400000D01*
X35411928Y-38400000D01*
X35424188Y-38524482D01*
X35460498Y-38644180D01*
X35519463Y-38754494D01*
X35598815Y-38851185D01*
X35695506Y-38930537D01*
X35805820Y-38989502D01*
X35925518Y-39025812D01*
X36050000Y-39038072D01*
X38050000Y-39038072D01*
X38174482Y-39025812D01*
X38294180Y-38989502D01*
X38404494Y-38930537D01*
X38501185Y-38851185D01*
X38580537Y-38754494D01*
X38639502Y-38644180D01*
X38675812Y-38524482D01*
X38688072Y-38400000D01*
X38688072Y-38285000D01*
X41370172Y-38285000D01*
X41413641Y-38289281D01*
X41457110Y-38285000D01*
X41457118Y-38285000D01*
X41587131Y-38272195D01*
X41753954Y-38221589D01*
X41907700Y-38139411D01*
X42042458Y-38028817D01*
X42070175Y-37995044D01*
X43061866Y-37003353D01*
X43015000Y-37238967D01*
X43015000Y-37561033D01*
X43077832Y-37876912D01*
X43201082Y-38174463D01*
X43380013Y-38442252D01*
X43607748Y-38669987D01*
X43875537Y-38848918D01*
X44173088Y-38972168D01*
X44488967Y-39035000D01*
X44811033Y-39035000D01*
X45126912Y-38972168D01*
X45424463Y-38848918D01*
X45692252Y-38669987D01*
X45919987Y-38442252D01*
X46098918Y-38174463D01*
X46104908Y-38160000D01*
X48659025Y-38160000D01*
X48682870Y-38402102D01*
X48753489Y-38634901D01*
X48868167Y-38849449D01*
X49022498Y-39037502D01*
X49210551Y-39191833D01*
X49425099Y-39306511D01*
X49657898Y-39377130D01*
X49839335Y-39395000D01*
X50760665Y-39395000D01*
X50942102Y-39377130D01*
X51174901Y-39306511D01*
X51389449Y-39191833D01*
X51577502Y-39037502D01*
X51731833Y-38849449D01*
X51846511Y-38634901D01*
X51917130Y-38402102D01*
X51940975Y-38160000D01*
X51917130Y-37917898D01*
X51846511Y-37685099D01*
X51731833Y-37470551D01*
X51577502Y-37282498D01*
X51389449Y-37128167D01*
X51174901Y-37013489D01*
X50942102Y-36942870D01*
X50760665Y-36925000D01*
X49839335Y-36925000D01*
X49657898Y-36942870D01*
X49425099Y-37013489D01*
X49210551Y-37128167D01*
X49022498Y-37282498D01*
X48868167Y-37470551D01*
X48753489Y-37685099D01*
X48682870Y-37917898D01*
X48659025Y-38160000D01*
X46104908Y-38160000D01*
X46222168Y-37876912D01*
X46285000Y-37561033D01*
X46285000Y-37238967D01*
X46222168Y-36923088D01*
X46098918Y-36625537D01*
X45919987Y-36357748D01*
X45692252Y-36130013D01*
X45424463Y-35951082D01*
X45126912Y-35827832D01*
X44811033Y-35765000D01*
X44488967Y-35765000D01*
X44253353Y-35811866D01*
X44445219Y-35620000D01*
X48659025Y-35620000D01*
X48682870Y-35862102D01*
X48753489Y-36094901D01*
X48868167Y-36309449D01*
X49022498Y-36497502D01*
X49210551Y-36651833D01*
X49425099Y-36766511D01*
X49657898Y-36837130D01*
X49839335Y-36855000D01*
X50760665Y-36855000D01*
X50942102Y-36837130D01*
X51174901Y-36766511D01*
X51389449Y-36651833D01*
X51577502Y-36497502D01*
X51731833Y-36309449D01*
X51846511Y-36094901D01*
X51917130Y-35862102D01*
X51940975Y-35620000D01*
X51917130Y-35377898D01*
X51846511Y-35145099D01*
X51731833Y-34930551D01*
X51577502Y-34742498D01*
X51389449Y-34588167D01*
X51174901Y-34473489D01*
X50942102Y-34402870D01*
X50760665Y-34385000D01*
X49839335Y-34385000D01*
X49657898Y-34402870D01*
X49425099Y-34473489D01*
X49210551Y-34588167D01*
X49022498Y-34742498D01*
X48868167Y-34930551D01*
X48753489Y-35145099D01*
X48682870Y-35377898D01*
X48659025Y-35620000D01*
X44445219Y-35620000D01*
X46985219Y-33080000D01*
X48659025Y-33080000D01*
X48682870Y-33322102D01*
X48753489Y-33554901D01*
X48868167Y-33769449D01*
X49022498Y-33957502D01*
X49210551Y-34111833D01*
X49425099Y-34226511D01*
X49657898Y-34297130D01*
X49839335Y-34315000D01*
X50760665Y-34315000D01*
X50942102Y-34297130D01*
X51174901Y-34226511D01*
X51389449Y-34111833D01*
X51577502Y-33957502D01*
X51731833Y-33769449D01*
X51846511Y-33554901D01*
X51917130Y-33322102D01*
X51940975Y-33080000D01*
X51917130Y-32837898D01*
X51846511Y-32605099D01*
X51731833Y-32390551D01*
X51577502Y-32202498D01*
X51389449Y-32048167D01*
X51174901Y-31933489D01*
X50942102Y-31862870D01*
X50760665Y-31845000D01*
X49839335Y-31845000D01*
X49657898Y-31862870D01*
X49425099Y-31933489D01*
X49210551Y-32048167D01*
X49022498Y-32202498D01*
X48868167Y-32390551D01*
X48753489Y-32605099D01*
X48682870Y-32837898D01*
X48659025Y-33080000D01*
X46985219Y-33080000D01*
X48856883Y-31208337D01*
X48868167Y-31229449D01*
X49022498Y-31417502D01*
X49210551Y-31571833D01*
X49425099Y-31686511D01*
X49657898Y-31757130D01*
X49839335Y-31775000D01*
X50760665Y-31775000D01*
X50942102Y-31757130D01*
X51174901Y-31686511D01*
X51389449Y-31571833D01*
X51577502Y-31417502D01*
X51731833Y-31229449D01*
X51846511Y-31014901D01*
X51917130Y-30782102D01*
X51940975Y-30540000D01*
X51917130Y-30297898D01*
X51846511Y-30065099D01*
X51731833Y-29850551D01*
X51577502Y-29662498D01*
X51389449Y-29508167D01*
X51174901Y-29393489D01*
X50942102Y-29322870D01*
X50760665Y-29305000D01*
X50760220Y-29305000D01*
X52080219Y-27985001D01*
X56206530Y-27985001D01*
X56249999Y-27989282D01*
X56293468Y-27985001D01*
X56293476Y-27985001D01*
X56423489Y-27972196D01*
X56590312Y-27921590D01*
X56744058Y-27839412D01*
X56878816Y-27728818D01*
X56906533Y-27695045D01*
X58573731Y-26027848D01*
X58608889Y-26038513D01*
X58900000Y-26067185D01*
X59191110Y-26038513D01*
X59471033Y-25953599D01*
X59729013Y-25815706D01*
X59955134Y-25630134D01*
X60140706Y-25404014D01*
X60150000Y-25386626D01*
X60159294Y-25404013D01*
X60344866Y-25630134D01*
X60570986Y-25815706D01*
X60640001Y-25852595D01*
X60640000Y-29885198D01*
X57710199Y-32815000D01*
X57648061Y-32815000D01*
X57448102Y-32854774D01*
X57259744Y-32932795D01*
X57090226Y-33046063D01*
X56946063Y-33190226D01*
X56832795Y-33359744D01*
X56754774Y-33548102D01*
X56715000Y-33748061D01*
X56715000Y-33951939D01*
X56754774Y-34151898D01*
X56832795Y-34340256D01*
X56946063Y-34509774D01*
X57090226Y-34653937D01*
X57259744Y-34767205D01*
X57448102Y-34845226D01*
X57648061Y-34885000D01*
X57851939Y-34885000D01*
X58051898Y-34845226D01*
X58240256Y-34767205D01*
X58409774Y-34653937D01*
X58553937Y-34509774D01*
X58667205Y-34340256D01*
X58745226Y-34151898D01*
X58785000Y-33951939D01*
X58785000Y-33889801D01*
X61911004Y-30763798D01*
X61929705Y-30748451D01*
X61890000Y-30948061D01*
X61890000Y-31151939D01*
X61929774Y-31351898D01*
X62007795Y-31540256D01*
X62121063Y-31709774D01*
X62265226Y-31853937D01*
X62434744Y-31967205D01*
X62623102Y-32045226D01*
X62823061Y-32085000D01*
X62885199Y-32085000D01*
X63143708Y-32343510D01*
X62990226Y-32446063D01*
X62846063Y-32590226D01*
X62732795Y-32759744D01*
X62654774Y-32948102D01*
X62615000Y-33148061D01*
X62615000Y-33351939D01*
X62654774Y-33551898D01*
X62732795Y-33740256D01*
X62846063Y-33909774D01*
X62990226Y-34053937D01*
X63159744Y-34167205D01*
X63348102Y-34245226D01*
X63548061Y-34285000D01*
X63610199Y-34285000D01*
X66490001Y-37164803D01*
X66490000Y-49832516D01*
X66401939Y-49815000D01*
X66198061Y-49815000D01*
X65998102Y-49854774D01*
X65809744Y-49932795D01*
X65640226Y-50046063D01*
X65496063Y-50190226D01*
X65382795Y-50359744D01*
X65304774Y-50548102D01*
X65265000Y-50748061D01*
X65265000Y-50951939D01*
X65304774Y-51151898D01*
X65382795Y-51340256D01*
X65496063Y-51509774D01*
X65540001Y-51553712D01*
X65540000Y-56535198D01*
X65138998Y-56936201D01*
X65110000Y-56959999D01*
X65086202Y-56988997D01*
X65086201Y-56988998D01*
X65015026Y-57075724D01*
X64944454Y-57207754D01*
X64916780Y-57298986D01*
X64901614Y-57348985D01*
X64900998Y-57351015D01*
X64886324Y-57500000D01*
X64890001Y-57537332D01*
X64890000Y-58496289D01*
X64846063Y-58540226D01*
X64732795Y-58709744D01*
X64654774Y-58898102D01*
X64615000Y-59098061D01*
X64615000Y-59301939D01*
X64654774Y-59501898D01*
X64732795Y-59690256D01*
X64846063Y-59859774D01*
X64990226Y-60003937D01*
X65159744Y-60117205D01*
X65348102Y-60195226D01*
X65548061Y-60235000D01*
X65751939Y-60235000D01*
X65951898Y-60195226D01*
X66140256Y-60117205D01*
X66309774Y-60003937D01*
X66453937Y-59859774D01*
X66567205Y-59690256D01*
X66645226Y-59501898D01*
X66685000Y-59301939D01*
X66685000Y-59098061D01*
X66645226Y-58898102D01*
X66567205Y-58709744D01*
X66453937Y-58540226D01*
X66410000Y-58496289D01*
X66410000Y-57814801D01*
X66494256Y-57730545D01*
X66500997Y-57798985D01*
X66539003Y-57924276D01*
X66544454Y-57942246D01*
X66615026Y-58074276D01*
X66654871Y-58122826D01*
X66709999Y-58190001D01*
X66739003Y-58213804D01*
X74152746Y-65627548D01*
X74082870Y-65857898D01*
X74059025Y-66100000D01*
X74082870Y-66342102D01*
X74089819Y-66365010D01*
X63866589Y-66365010D01*
X59806535Y-62304957D01*
X59795226Y-62248102D01*
X59717205Y-62059744D01*
X59603937Y-61890226D01*
X59459774Y-61746063D01*
X59290256Y-61632795D01*
X59101898Y-61554774D01*
X58901939Y-61515000D01*
X58698061Y-61515000D01*
X58610000Y-61532516D01*
X58610000Y-52403711D01*
X58653937Y-52359774D01*
X58767205Y-52190256D01*
X58845226Y-52001898D01*
X58885000Y-51801939D01*
X58885000Y-51598061D01*
X58845226Y-51398102D01*
X58767205Y-51209744D01*
X58653937Y-51040226D01*
X58509774Y-50896063D01*
X58340256Y-50782795D01*
X58151898Y-50704774D01*
X57951939Y-50665000D01*
X57748061Y-50665000D01*
X57548102Y-50704774D01*
X57359744Y-50782795D01*
X57190226Y-50896063D01*
X57046063Y-51040226D01*
X56932795Y-51209744D01*
X56910000Y-51264776D01*
X56910000Y-42764801D01*
X57689802Y-41985000D01*
X57751939Y-41985000D01*
X57951898Y-41945226D01*
X58140256Y-41867205D01*
X58309774Y-41753937D01*
X58453937Y-41609774D01*
X58567205Y-41440256D01*
X58645226Y-41251898D01*
X58685000Y-41051939D01*
X58685000Y-40848061D01*
X58645226Y-40648102D01*
X58567205Y-40459744D01*
X58453937Y-40290226D01*
X58309774Y-40146063D01*
X58140256Y-40032795D01*
X57951898Y-39954774D01*
X57751939Y-39915000D01*
X57548061Y-39915000D01*
X57348102Y-39954774D01*
X57159744Y-40032795D01*
X56990226Y-40146063D01*
X56846063Y-40290226D01*
X56732795Y-40459744D01*
X56654774Y-40648102D01*
X56615000Y-40848061D01*
X56615000Y-40910198D01*
X55638998Y-41886201D01*
X55610000Y-41909999D01*
X55586202Y-41938997D01*
X55586201Y-41938998D01*
X55515026Y-42025724D01*
X55444454Y-42157754D01*
X55400998Y-42301015D01*
X55386324Y-42450000D01*
X55390001Y-42487332D01*
X55390000Y-43787332D01*
X55390001Y-43787342D01*
X55390000Y-63835198D01*
X53163999Y-66061200D01*
X53135001Y-66084998D01*
X53111203Y-66113996D01*
X53111202Y-66113997D01*
X53040027Y-66200723D01*
X52969455Y-66332753D01*
X52951409Y-66392246D01*
X52925999Y-66476013D01*
X52916259Y-66574901D01*
X52911325Y-66624999D01*
X52915002Y-66662331D01*
X52915001Y-67490197D01*
X51925215Y-68479984D01*
X51917130Y-68397898D01*
X51846511Y-68165099D01*
X51731833Y-67950551D01*
X51577502Y-67762498D01*
X51389449Y-67608167D01*
X51174901Y-67493489D01*
X50942102Y-67422870D01*
X50760665Y-67405000D01*
X49839335Y-67405000D01*
X49657898Y-67422870D01*
X49425099Y-67493489D01*
X49210551Y-67608167D01*
X49022498Y-67762498D01*
X48868167Y-67950551D01*
X48753489Y-68165099D01*
X48682870Y-68397898D01*
X48659025Y-68640000D01*
X48682870Y-68882102D01*
X48753489Y-69114901D01*
X48868167Y-69329449D01*
X49022498Y-69517502D01*
X49210551Y-69671833D01*
X49425099Y-69786511D01*
X49657898Y-69857130D01*
X49839335Y-69875000D01*
X50530199Y-69875000D01*
X50460199Y-69945000D01*
X49839335Y-69945000D01*
X49657898Y-69962870D01*
X49425099Y-70033489D01*
X49210551Y-70148167D01*
X49022498Y-70302498D01*
X48868167Y-70490551D01*
X48753489Y-70705099D01*
X48682870Y-70937898D01*
X48659025Y-71180000D01*
X48682870Y-71422102D01*
X48753489Y-71654901D01*
X48868167Y-71869449D01*
X49022498Y-72057502D01*
X49210551Y-72211833D01*
X49425099Y-72326511D01*
X49657898Y-72397130D01*
X49839335Y-72415000D01*
X50530199Y-72415000D01*
X50460199Y-72485000D01*
X49839335Y-72485000D01*
X49657898Y-72502870D01*
X49425099Y-72573489D01*
X49210551Y-72688167D01*
X49022498Y-72842498D01*
X48868167Y-73030551D01*
X48753489Y-73245099D01*
X48682870Y-73477898D01*
X48659025Y-73720000D01*
X48682870Y-73962102D01*
X48753489Y-74194901D01*
X48868167Y-74409449D01*
X49022498Y-74597502D01*
X49210551Y-74751833D01*
X49425099Y-74866511D01*
X49657898Y-74937130D01*
X49839335Y-74955000D01*
X50760665Y-74955000D01*
X50942102Y-74937130D01*
X51174901Y-74866511D01*
X51389449Y-74751833D01*
X51577502Y-74597502D01*
X51731833Y-74409449D01*
X51846511Y-74194901D01*
X51917130Y-73962102D01*
X51940975Y-73720000D01*
X74059025Y-73720000D01*
X74082870Y-73962102D01*
X74153489Y-74194901D01*
X74268167Y-74409449D01*
X74422498Y-74597502D01*
X74610551Y-74751833D01*
X74825099Y-74866511D01*
X75057898Y-74937130D01*
X75239335Y-74955000D01*
X76160665Y-74955000D01*
X76342102Y-74937130D01*
X76574901Y-74866511D01*
X76789449Y-74751833D01*
X76977502Y-74597502D01*
X77131833Y-74409449D01*
X77246511Y-74194901D01*
X77317130Y-73962102D01*
X77340975Y-73720000D01*
X77317130Y-73477898D01*
X77246511Y-73245099D01*
X77131833Y-73030551D01*
X76977502Y-72842498D01*
X76789449Y-72688167D01*
X76574901Y-72573489D01*
X76342102Y-72502870D01*
X76160665Y-72485000D01*
X75239335Y-72485000D01*
X75057898Y-72502870D01*
X74825099Y-72573489D01*
X74610551Y-72688167D01*
X74422498Y-72842498D01*
X74268167Y-73030551D01*
X74153489Y-73245099D01*
X74082870Y-73477898D01*
X74059025Y-73720000D01*
X51940975Y-73720000D01*
X51917130Y-73477898D01*
X51847254Y-73247548D01*
X53914802Y-71180000D01*
X74059025Y-71180000D01*
X74082870Y-71422102D01*
X74153489Y-71654901D01*
X74268167Y-71869449D01*
X74422498Y-72057502D01*
X74610551Y-72211833D01*
X74825099Y-72326511D01*
X75057898Y-72397130D01*
X75239335Y-72415000D01*
X76160665Y-72415000D01*
X76342102Y-72397130D01*
X76574901Y-72326511D01*
X76789449Y-72211833D01*
X76977502Y-72057502D01*
X77131833Y-71869449D01*
X77246511Y-71654901D01*
X77317130Y-71422102D01*
X77340975Y-71180000D01*
X77317130Y-70937898D01*
X77246511Y-70705099D01*
X77131833Y-70490551D01*
X76977502Y-70302498D01*
X76789449Y-70148167D01*
X76574901Y-70033489D01*
X76342102Y-69962870D01*
X76160665Y-69945000D01*
X75239335Y-69945000D01*
X75057898Y-69962870D01*
X74825099Y-70033489D01*
X74610551Y-70148167D01*
X74422498Y-70302498D01*
X74268167Y-70490551D01*
X74153489Y-70705099D01*
X74082870Y-70937898D01*
X74059025Y-71180000D01*
X53914802Y-71180000D01*
X58361008Y-66733795D01*
X58390001Y-66710001D01*
X58413795Y-66681008D01*
X58413799Y-66681004D01*
X58484973Y-66594277D01*
X58522390Y-66524276D01*
X58555546Y-66462247D01*
X58599003Y-66318986D01*
X58610000Y-66207333D01*
X58610000Y-66207324D01*
X58613676Y-66170001D01*
X58610000Y-66132678D01*
X58610000Y-63611578D01*
X62843480Y-67845059D01*
X62871193Y-67878827D01*
X62904961Y-67906540D01*
X62904963Y-67906542D01*
X63005950Y-67989420D01*
X63005951Y-67989421D01*
X63159697Y-68071599D01*
X63326520Y-68122205D01*
X63456533Y-68135010D01*
X63456541Y-68135010D01*
X63500010Y-68139291D01*
X63543479Y-68135010D01*
X74169572Y-68135010D01*
X74153489Y-68165099D01*
X74082870Y-68397898D01*
X74059025Y-68640000D01*
X74082870Y-68882102D01*
X74153489Y-69114901D01*
X74268167Y-69329449D01*
X74422498Y-69517502D01*
X74610551Y-69671833D01*
X74825099Y-69786511D01*
X75057898Y-69857130D01*
X75239335Y-69875000D01*
X76160665Y-69875000D01*
X76342102Y-69857130D01*
X76574901Y-69786511D01*
X76789449Y-69671833D01*
X76977502Y-69517502D01*
X77131833Y-69329449D01*
X77246511Y-69114901D01*
X77317130Y-68882102D01*
X77340975Y-68640000D01*
X77317130Y-68397898D01*
X77246511Y-68165099D01*
X77131833Y-67950551D01*
X77126174Y-67943655D01*
X77205166Y-67878827D01*
X77232883Y-67845054D01*
X83870061Y-61207877D01*
X83903827Y-61180166D01*
X84014421Y-61045408D01*
X84096599Y-60891662D01*
X84147205Y-60724839D01*
X84160010Y-60594826D01*
X84160010Y-60594816D01*
X84164291Y-60551350D01*
X84160010Y-60507884D01*
X84160010Y-42518479D01*
X84164291Y-42475010D01*
X84160010Y-42431541D01*
X84160010Y-42431533D01*
X84147205Y-42301520D01*
X84096599Y-42134697D01*
X84014421Y-41980951D01*
X83931542Y-41879963D01*
X83931540Y-41879961D01*
X83903827Y-41846193D01*
X83870059Y-41818480D01*
X83363072Y-41311493D01*
X83363072Y-40350000D01*
X83346008Y-40176746D01*
X83295472Y-40010150D01*
X83213405Y-39856614D01*
X83102962Y-39722038D01*
X82968386Y-39611595D01*
X82814850Y-39529528D01*
X82648254Y-39478992D01*
X82475000Y-39461928D01*
X81025000Y-39461928D01*
X80851746Y-39478992D01*
X80685150Y-39529528D01*
X80531614Y-39611595D01*
X80397038Y-39722038D01*
X80286595Y-39856614D01*
X80204528Y-40010150D01*
X80153992Y-40176746D01*
X80136928Y-40350000D01*
X80136928Y-41550000D01*
X80153992Y-41723254D01*
X80204528Y-41889850D01*
X80286595Y-42043386D01*
X80397038Y-42177962D01*
X80531614Y-42288405D01*
X80636961Y-42344714D01*
X80615571Y-42360951D01*
X80422504Y-42578807D01*
X80275648Y-42830142D01*
X80183524Y-43093110D01*
X80304845Y-43323000D01*
X81623000Y-43323000D01*
X81623000Y-43303000D01*
X81877000Y-43303000D01*
X81877000Y-43323000D01*
X81897000Y-43323000D01*
X81897000Y-43577000D01*
X81877000Y-43577000D01*
X81877000Y-43597000D01*
X81623000Y-43597000D01*
X81623000Y-43577000D01*
X80304845Y-43577000D01*
X80183524Y-43806890D01*
X80275648Y-44069858D01*
X80422504Y-44321193D01*
X80615571Y-44539049D01*
X80821722Y-44695538D01*
X80795986Y-44709294D01*
X80569866Y-44894866D01*
X80384294Y-45120986D01*
X80246401Y-45378966D01*
X80161487Y-45658889D01*
X80132815Y-45950000D01*
X80161487Y-46241111D01*
X80246401Y-46521034D01*
X80384294Y-46779014D01*
X80569866Y-47005134D01*
X80795986Y-47190706D01*
X81053966Y-47328599D01*
X81333889Y-47413513D01*
X81552050Y-47435000D01*
X81947950Y-47435000D01*
X82166111Y-47413513D01*
X82390011Y-47345594D01*
X82390010Y-60184770D01*
X77143118Y-65431663D01*
X77131833Y-65410551D01*
X76977502Y-65222498D01*
X76789449Y-65068167D01*
X76574901Y-64953489D01*
X76342102Y-64882870D01*
X76160665Y-64865000D01*
X75539802Y-64865000D01*
X75469802Y-64795000D01*
X76160665Y-64795000D01*
X76342102Y-64777130D01*
X76574901Y-64706511D01*
X76789449Y-64591833D01*
X76977502Y-64437502D01*
X77131833Y-64249449D01*
X77246511Y-64034901D01*
X77317130Y-63802102D01*
X77340975Y-63560000D01*
X77317130Y-63317898D01*
X77246511Y-63085099D01*
X77131833Y-62870551D01*
X76977502Y-62682498D01*
X76789449Y-62528167D01*
X76574901Y-62413489D01*
X76342102Y-62342870D01*
X76160665Y-62325000D01*
X75539803Y-62325000D01*
X75469803Y-62255000D01*
X76160665Y-62255000D01*
X76342102Y-62237130D01*
X76574901Y-62166511D01*
X76789449Y-62051833D01*
X76977502Y-61897502D01*
X77131833Y-61709449D01*
X77246511Y-61494901D01*
X77317130Y-61262102D01*
X77340975Y-61020000D01*
X77317130Y-60777898D01*
X77246511Y-60545099D01*
X77131833Y-60330551D01*
X76977502Y-60142498D01*
X76789449Y-59988167D01*
X76574901Y-59873489D01*
X76342102Y-59802870D01*
X76160665Y-59785000D01*
X75539802Y-59785000D01*
X75469802Y-59715000D01*
X76160665Y-59715000D01*
X76342102Y-59697130D01*
X76574901Y-59626511D01*
X76789449Y-59511833D01*
X76977502Y-59357502D01*
X77131833Y-59169449D01*
X77246511Y-58954901D01*
X77317130Y-58722102D01*
X77340975Y-58480000D01*
X77317130Y-58237898D01*
X77246511Y-58005099D01*
X77131833Y-57790551D01*
X76977502Y-57602498D01*
X76789449Y-57448167D01*
X76574901Y-57333489D01*
X76342102Y-57262870D01*
X76160665Y-57245000D01*
X75239335Y-57245000D01*
X75057898Y-57262870D01*
X74825099Y-57333489D01*
X74610551Y-57448167D01*
X74422498Y-57602498D01*
X74268167Y-57790551D01*
X74153489Y-58005099D01*
X74082870Y-58237898D01*
X74074785Y-58319984D01*
X71694801Y-55940000D01*
X74059025Y-55940000D01*
X74082870Y-56182102D01*
X74153489Y-56414901D01*
X74268167Y-56629449D01*
X74422498Y-56817502D01*
X74610551Y-56971833D01*
X74825099Y-57086511D01*
X75057898Y-57157130D01*
X75239335Y-57175000D01*
X76160665Y-57175000D01*
X76342102Y-57157130D01*
X76574901Y-57086511D01*
X76789449Y-56971833D01*
X76977502Y-56817502D01*
X77131833Y-56629449D01*
X77246511Y-56414901D01*
X77317130Y-56182102D01*
X77340975Y-55940000D01*
X77317130Y-55697898D01*
X77246511Y-55465099D01*
X77131833Y-55250551D01*
X76977502Y-55062498D01*
X76789449Y-54908167D01*
X76574901Y-54793489D01*
X76342102Y-54722870D01*
X76160665Y-54705000D01*
X75239335Y-54705000D01*
X75057898Y-54722870D01*
X74825099Y-54793489D01*
X74610551Y-54908167D01*
X74422498Y-55062498D01*
X74268167Y-55250551D01*
X74153489Y-55465099D01*
X74082870Y-55697898D01*
X74059025Y-55940000D01*
X71694801Y-55940000D01*
X70275224Y-54520423D01*
X70401898Y-54495226D01*
X70590256Y-54417205D01*
X70759774Y-54303937D01*
X70903937Y-54159774D01*
X71017205Y-53990256D01*
X71095226Y-53801898D01*
X71135000Y-53601939D01*
X71135000Y-53400000D01*
X74059025Y-53400000D01*
X74082870Y-53642102D01*
X74153489Y-53874901D01*
X74268167Y-54089449D01*
X74422498Y-54277502D01*
X74610551Y-54431833D01*
X74825099Y-54546511D01*
X75057898Y-54617130D01*
X75239335Y-54635000D01*
X76160665Y-54635000D01*
X76342102Y-54617130D01*
X76574901Y-54546511D01*
X76789449Y-54431833D01*
X76977502Y-54277502D01*
X77131833Y-54089449D01*
X77246511Y-53874901D01*
X77317130Y-53642102D01*
X77340975Y-53400000D01*
X77317130Y-53157898D01*
X77246511Y-52925099D01*
X77131833Y-52710551D01*
X76977502Y-52522498D01*
X76789449Y-52368167D01*
X76574901Y-52253489D01*
X76342102Y-52182870D01*
X76160665Y-52165000D01*
X75239335Y-52165000D01*
X75057898Y-52182870D01*
X74825099Y-52253489D01*
X74610551Y-52368167D01*
X74422498Y-52522498D01*
X74268167Y-52710551D01*
X74153489Y-52925099D01*
X74082870Y-53157898D01*
X74059025Y-53400000D01*
X71135000Y-53400000D01*
X71135000Y-53398061D01*
X71095226Y-53198102D01*
X71017205Y-53009744D01*
X70903937Y-52840226D01*
X70860000Y-52796289D01*
X70860000Y-50860000D01*
X74059025Y-50860000D01*
X74082870Y-51102102D01*
X74153489Y-51334901D01*
X74268167Y-51549449D01*
X74422498Y-51737502D01*
X74610551Y-51891833D01*
X74825099Y-52006511D01*
X75057898Y-52077130D01*
X75239335Y-52095000D01*
X76160665Y-52095000D01*
X76342102Y-52077130D01*
X76574901Y-52006511D01*
X76789449Y-51891833D01*
X76977502Y-51737502D01*
X77131833Y-51549449D01*
X77246511Y-51334901D01*
X77317130Y-51102102D01*
X77340975Y-50860000D01*
X77317130Y-50617898D01*
X77246511Y-50385099D01*
X77131833Y-50170551D01*
X76977502Y-49982498D01*
X76789449Y-49828167D01*
X76574901Y-49713489D01*
X76342102Y-49642870D01*
X76160665Y-49625000D01*
X75239335Y-49625000D01*
X75057898Y-49642870D01*
X74825099Y-49713489D01*
X74610551Y-49828167D01*
X74422498Y-49982498D01*
X74268167Y-50170551D01*
X74153489Y-50385099D01*
X74082870Y-50617898D01*
X74059025Y-50860000D01*
X70860000Y-50860000D01*
X70860000Y-44560001D01*
X70888998Y-44583799D01*
X74152746Y-47847548D01*
X74082870Y-48077898D01*
X74059025Y-48320000D01*
X74082870Y-48562102D01*
X74153489Y-48794901D01*
X74268167Y-49009449D01*
X74422498Y-49197502D01*
X74610551Y-49351833D01*
X74825099Y-49466511D01*
X75057898Y-49537130D01*
X75239335Y-49555000D01*
X76160665Y-49555000D01*
X76342102Y-49537130D01*
X76574901Y-49466511D01*
X76789449Y-49351833D01*
X76977502Y-49197502D01*
X77131833Y-49009449D01*
X77246511Y-48794901D01*
X77317130Y-48562102D01*
X77340975Y-48320000D01*
X77317130Y-48077898D01*
X77246511Y-47845099D01*
X77131833Y-47630551D01*
X76977502Y-47442498D01*
X76789449Y-47288167D01*
X76574901Y-47173489D01*
X76342102Y-47102870D01*
X76160665Y-47085000D01*
X75539802Y-47085000D01*
X75469802Y-47015000D01*
X76160665Y-47015000D01*
X76342102Y-46997130D01*
X76574901Y-46926511D01*
X76789449Y-46811833D01*
X76977502Y-46657502D01*
X77131833Y-46469449D01*
X77246511Y-46254901D01*
X77317130Y-46022102D01*
X77340975Y-45780000D01*
X77317130Y-45537898D01*
X77246511Y-45305099D01*
X77131833Y-45090551D01*
X76977502Y-44902498D01*
X76789449Y-44748167D01*
X76574901Y-44633489D01*
X76342102Y-44562870D01*
X76160665Y-44545000D01*
X75239335Y-44545000D01*
X75057898Y-44562870D01*
X74825099Y-44633489D01*
X74610551Y-44748167D01*
X74422498Y-44902498D01*
X74268167Y-45090551D01*
X74153489Y-45305099D01*
X74082870Y-45537898D01*
X74074785Y-45619984D01*
X72160000Y-43705199D01*
X72160000Y-43557609D01*
X74106538Y-43557609D01*
X74110409Y-43595282D01*
X74202579Y-43820533D01*
X74336922Y-44023474D01*
X74508275Y-44196307D01*
X74710054Y-44332390D01*
X74934504Y-44426493D01*
X75173000Y-44475000D01*
X75573000Y-44475000D01*
X75573000Y-43367000D01*
X75827000Y-43367000D01*
X75827000Y-44475000D01*
X76227000Y-44475000D01*
X76465496Y-44426493D01*
X76689946Y-44332390D01*
X76891725Y-44196307D01*
X77063078Y-44023474D01*
X77197421Y-43820533D01*
X77289591Y-43595282D01*
X77293462Y-43557609D01*
X77168731Y-43367000D01*
X75827000Y-43367000D01*
X75573000Y-43367000D01*
X74231269Y-43367000D01*
X74106538Y-43557609D01*
X72160000Y-43557609D01*
X72160000Y-42922391D01*
X74106538Y-42922391D01*
X74231269Y-43113000D01*
X75573000Y-43113000D01*
X75573000Y-42005000D01*
X75827000Y-42005000D01*
X75827000Y-43113000D01*
X77168731Y-43113000D01*
X77293462Y-42922391D01*
X77289591Y-42884718D01*
X77197421Y-42659467D01*
X77063078Y-42456526D01*
X76891725Y-42283693D01*
X76689946Y-42147610D01*
X76465496Y-42053507D01*
X76227000Y-42005000D01*
X75827000Y-42005000D01*
X75573000Y-42005000D01*
X75173000Y-42005000D01*
X74934504Y-42053507D01*
X74710054Y-42147610D01*
X74508275Y-42283693D01*
X74336922Y-42456526D01*
X74202579Y-42659467D01*
X74110409Y-42884718D01*
X74106538Y-42922391D01*
X72160000Y-42922391D01*
X72160000Y-40700000D01*
X74059025Y-40700000D01*
X74082870Y-40942102D01*
X74153489Y-41174901D01*
X74268167Y-41389449D01*
X74422498Y-41577502D01*
X74610551Y-41731833D01*
X74825099Y-41846511D01*
X75057898Y-41917130D01*
X75239335Y-41935000D01*
X76160665Y-41935000D01*
X76342102Y-41917130D01*
X76574901Y-41846511D01*
X76789449Y-41731833D01*
X76977502Y-41577502D01*
X77131833Y-41389449D01*
X77246511Y-41174901D01*
X77317130Y-40942102D01*
X77340975Y-40700000D01*
X77317130Y-40457898D01*
X77246511Y-40225099D01*
X77131833Y-40010551D01*
X76977502Y-39822498D01*
X76789449Y-39668167D01*
X76574901Y-39553489D01*
X76342102Y-39482870D01*
X76160665Y-39465000D01*
X75239335Y-39465000D01*
X75057898Y-39482870D01*
X74825099Y-39553489D01*
X74610551Y-39668167D01*
X74422498Y-39822498D01*
X74268167Y-40010551D01*
X74153489Y-40225099D01*
X74082870Y-40457898D01*
X74059025Y-40700000D01*
X72160000Y-40700000D01*
X72160000Y-38160000D01*
X74059025Y-38160000D01*
X74082870Y-38402102D01*
X74153489Y-38634901D01*
X74268167Y-38849449D01*
X74422498Y-39037502D01*
X74610551Y-39191833D01*
X74825099Y-39306511D01*
X75057898Y-39377130D01*
X75239335Y-39395000D01*
X76160665Y-39395000D01*
X76342102Y-39377130D01*
X76574901Y-39306511D01*
X76789449Y-39191833D01*
X76977502Y-39037502D01*
X77131833Y-38849449D01*
X77246511Y-38634901D01*
X77317130Y-38402102D01*
X77340975Y-38160000D01*
X77317130Y-37917898D01*
X77246511Y-37685099D01*
X77131833Y-37470551D01*
X76977502Y-37282498D01*
X76789449Y-37128167D01*
X76574901Y-37013489D01*
X76342102Y-36942870D01*
X76160665Y-36925000D01*
X75239335Y-36925000D01*
X75057898Y-36942870D01*
X74825099Y-37013489D01*
X74610551Y-37128167D01*
X74422498Y-37282498D01*
X74268167Y-37470551D01*
X74153489Y-37685099D01*
X74082870Y-37917898D01*
X74059025Y-38160000D01*
X72160000Y-38160000D01*
X72160000Y-35620000D01*
X74059025Y-35620000D01*
X74082870Y-35862102D01*
X74153489Y-36094901D01*
X74268167Y-36309449D01*
X74422498Y-36497502D01*
X74610551Y-36651833D01*
X74825099Y-36766511D01*
X75057898Y-36837130D01*
X75239335Y-36855000D01*
X76160665Y-36855000D01*
X76342102Y-36837130D01*
X76574901Y-36766511D01*
X76789449Y-36651833D01*
X76977502Y-36497502D01*
X77131833Y-36309449D01*
X77246511Y-36094901D01*
X77317130Y-35862102D01*
X77340975Y-35620000D01*
X77317130Y-35377898D01*
X77246511Y-35145099D01*
X77131833Y-34930551D01*
X76977502Y-34742498D01*
X76789449Y-34588167D01*
X76574901Y-34473489D01*
X76342102Y-34402870D01*
X76160665Y-34385000D01*
X75239335Y-34385000D01*
X75057898Y-34402870D01*
X74825099Y-34473489D01*
X74610551Y-34588167D01*
X74422498Y-34742498D01*
X74268167Y-34930551D01*
X74153489Y-35145099D01*
X74082870Y-35377898D01*
X74059025Y-35620000D01*
X72160000Y-35620000D01*
X72160000Y-33397609D01*
X74106538Y-33397609D01*
X74110409Y-33435282D01*
X74202579Y-33660533D01*
X74336922Y-33863474D01*
X74508275Y-34036307D01*
X74710054Y-34172390D01*
X74934504Y-34266493D01*
X75173000Y-34315000D01*
X75573000Y-34315000D01*
X75573000Y-33207000D01*
X75827000Y-33207000D01*
X75827000Y-34315000D01*
X76227000Y-34315000D01*
X76465496Y-34266493D01*
X76689946Y-34172390D01*
X76891725Y-34036307D01*
X77063078Y-33863474D01*
X77197421Y-33660533D01*
X77289591Y-33435282D01*
X77292015Y-33411682D01*
X78015000Y-33411682D01*
X78015000Y-34088318D01*
X78147006Y-34751952D01*
X78405943Y-35377082D01*
X78781862Y-35939685D01*
X79260315Y-36418138D01*
X79822918Y-36794057D01*
X80448048Y-37052994D01*
X81111682Y-37185000D01*
X81788318Y-37185000D01*
X82451952Y-37052994D01*
X83077082Y-36794057D01*
X83639685Y-36418138D01*
X84118138Y-35939685D01*
X84494057Y-35377082D01*
X84752994Y-34751952D01*
X84885000Y-34088318D01*
X84885000Y-33411682D01*
X84752994Y-32748048D01*
X84494057Y-32122918D01*
X84118138Y-31560315D01*
X83639685Y-31081862D01*
X83077082Y-30705943D01*
X82451952Y-30447006D01*
X81788318Y-30315000D01*
X81111682Y-30315000D01*
X80448048Y-30447006D01*
X79822918Y-30705943D01*
X79260315Y-31081862D01*
X78781862Y-31560315D01*
X78405943Y-32122918D01*
X78147006Y-32748048D01*
X78015000Y-33411682D01*
X77292015Y-33411682D01*
X77293462Y-33397609D01*
X77168731Y-33207000D01*
X75827000Y-33207000D01*
X75573000Y-33207000D01*
X74231269Y-33207000D01*
X74106538Y-33397609D01*
X72160000Y-33397609D01*
X72160000Y-32762391D01*
X74106538Y-32762391D01*
X74231269Y-32953000D01*
X75573000Y-32953000D01*
X75573000Y-31845000D01*
X75827000Y-31845000D01*
X75827000Y-32953000D01*
X77168731Y-32953000D01*
X77293462Y-32762391D01*
X77289591Y-32724718D01*
X77197421Y-32499467D01*
X77063078Y-32296526D01*
X76891725Y-32123693D01*
X76689946Y-31987610D01*
X76465496Y-31893507D01*
X76227000Y-31845000D01*
X75827000Y-31845000D01*
X75573000Y-31845000D01*
X75173000Y-31845000D01*
X74934504Y-31893507D01*
X74710054Y-31987610D01*
X74508275Y-32123693D01*
X74336922Y-32296526D01*
X74202579Y-32499467D01*
X74110409Y-32724718D01*
X74106538Y-32762391D01*
X72160000Y-32762391D01*
X72160000Y-25852594D01*
X72229013Y-25815706D01*
X72455134Y-25630134D01*
X72640706Y-25404014D01*
X72650000Y-25386626D01*
X72659294Y-25404013D01*
X72844866Y-25630134D01*
X73070986Y-25815706D01*
X73328966Y-25953599D01*
X73608889Y-26038513D01*
X73900000Y-26067185D01*
X74191110Y-26038513D01*
X74471033Y-25953599D01*
X74729013Y-25815706D01*
X74949945Y-25634392D01*
X74960498Y-25669180D01*
X75019463Y-25779494D01*
X75098815Y-25876185D01*
X75195506Y-25955537D01*
X75305820Y-26014502D01*
X75425518Y-26050812D01*
X75550000Y-26063072D01*
X76114250Y-26060000D01*
X76273000Y-25901250D01*
X76273000Y-24577000D01*
X76253000Y-24577000D01*
X76253000Y-24323000D01*
X76273000Y-24323000D01*
X76273000Y-24303000D01*
X76527000Y-24303000D01*
X76527000Y-24323000D01*
X76547000Y-24323000D01*
X76547000Y-24577000D01*
X76527000Y-24577000D01*
X76527000Y-25901250D01*
X76685750Y-26060000D01*
X76915011Y-26061248D01*
X76915011Y-28073410D01*
X75683422Y-29305000D01*
X75239335Y-29305000D01*
X75057898Y-29322870D01*
X74825099Y-29393489D01*
X74610551Y-29508167D01*
X74422498Y-29662498D01*
X74268167Y-29850551D01*
X74153489Y-30065099D01*
X74082870Y-30297898D01*
X74059025Y-30540000D01*
X74082870Y-30782102D01*
X74153489Y-31014901D01*
X74268167Y-31229449D01*
X74422498Y-31417502D01*
X74610551Y-31571833D01*
X74825099Y-31686511D01*
X75057898Y-31757130D01*
X75239335Y-31775000D01*
X76160665Y-31775000D01*
X76342102Y-31757130D01*
X76574901Y-31686511D01*
X76789449Y-31571833D01*
X76977502Y-31417502D01*
X77131833Y-31229449D01*
X77246511Y-31014901D01*
X77317130Y-30782102D01*
X77340975Y-30540000D01*
X77317130Y-30297898D01*
X77288398Y-30203181D01*
X78395059Y-29096520D01*
X78428827Y-29068807D01*
X78539421Y-28934049D01*
X78621599Y-28780304D01*
X78672205Y-28613480D01*
X78685010Y-28483467D01*
X78685010Y-28483459D01*
X78689291Y-28439990D01*
X78685010Y-28396521D01*
X78685010Y-23437091D01*
X78689291Y-23393622D01*
X78685010Y-23350153D01*
X78685010Y-23350145D01*
X78672205Y-23220132D01*
X78621599Y-23053309D01*
X78539421Y-22899563D01*
X78428827Y-22764805D01*
X78395055Y-22737089D01*
X77987912Y-22329946D01*
X77960195Y-22296173D01*
X77825437Y-22185579D01*
X77671691Y-22103401D01*
X77504868Y-22052795D01*
X77374855Y-22039990D01*
X77374847Y-22039990D01*
X77331378Y-22035709D01*
X77287909Y-22039990D01*
X60468479Y-22039990D01*
X60425010Y-22035709D01*
X60381541Y-22039990D01*
X60381533Y-22039990D01*
X60251520Y-22052795D01*
X60084697Y-22103401D01*
X59984036Y-22157205D01*
X59930951Y-22185579D01*
X59829963Y-22268458D01*
X59829961Y-22268460D01*
X59796193Y-22296173D01*
X59768480Y-22329941D01*
X59226269Y-22872152D01*
X59191111Y-22861487D01*
X58900000Y-22832815D01*
X58608890Y-22861487D01*
X58328967Y-22946401D01*
X58070987Y-23084294D01*
X57844866Y-23269866D01*
X57659294Y-23495986D01*
X57650000Y-23513374D01*
X57640706Y-23495986D01*
X57455134Y-23269866D01*
X57229014Y-23084294D01*
X56971034Y-22946401D01*
X56691111Y-22861487D01*
X56400000Y-22832815D01*
X56108890Y-22861487D01*
X55828967Y-22946401D01*
X55570987Y-23084294D01*
X55344866Y-23269866D01*
X55159294Y-23495986D01*
X55021401Y-23753966D01*
X54936487Y-24033889D01*
X54915000Y-24252050D01*
X54915000Y-24647949D01*
X54936487Y-24866110D01*
X55021401Y-25146033D01*
X55055476Y-25209782D01*
X54940256Y-25132795D01*
X54751898Y-25054774D01*
X54551939Y-25015000D01*
X54489802Y-25015000D01*
X52163804Y-22689003D01*
X52140001Y-22659999D01*
X52024276Y-22565026D01*
X51892247Y-22494454D01*
X51748986Y-22450997D01*
X51637333Y-22440000D01*
X51637322Y-22440000D01*
X51600000Y-22436324D01*
X51562678Y-22440000D01*
X50803711Y-22440000D01*
X50759774Y-22396063D01*
X50590256Y-22282795D01*
X50401898Y-22204774D01*
X50201939Y-22165000D01*
X49998061Y-22165000D01*
X49798102Y-22204774D01*
X49609744Y-22282795D01*
X49440226Y-22396063D01*
X49296063Y-22540226D01*
X49182795Y-22709744D01*
X49104774Y-22898102D01*
X49065000Y-23098061D01*
X49065000Y-23301939D01*
X49104774Y-23501898D01*
X49182795Y-23690256D01*
X49296063Y-23859774D01*
X49440226Y-24003937D01*
X49609744Y-24117205D01*
X49798102Y-24195226D01*
X49998061Y-24235000D01*
X50201939Y-24235000D01*
X50401898Y-24195226D01*
X50590256Y-24117205D01*
X50759774Y-24003937D01*
X50803711Y-23960000D01*
X51285199Y-23960000D01*
X53415000Y-26089802D01*
X53415000Y-26151939D01*
X53427544Y-26215001D01*
X51757105Y-26215001D01*
X51713639Y-26210720D01*
X51670173Y-26215001D01*
X51670163Y-26215001D01*
X51540150Y-26227806D01*
X51373327Y-26278412D01*
X51219581Y-26360590D01*
X51219579Y-26360591D01*
X51219580Y-26360591D01*
X51118593Y-26443469D01*
X51118591Y-26443471D01*
X51084823Y-26471184D01*
X51057110Y-26504952D01*
X41047063Y-36515000D01*
X38688072Y-36515000D01*
X38688072Y-36400000D01*
X38675812Y-36275518D01*
X38639502Y-36155820D01*
X38580537Y-36045506D01*
X38501185Y-35948815D01*
X38404494Y-35869463D01*
X38294180Y-35810498D01*
X38174482Y-35774188D01*
X38050000Y-35761928D01*
X36050000Y-35761928D01*
X35925518Y-35774188D01*
X35805820Y-35810498D01*
X35695506Y-35869463D01*
X35598815Y-35948815D01*
X35519463Y-36045506D01*
X35460498Y-36155820D01*
X35424188Y-36275518D01*
X35411928Y-36400000D01*
X28257823Y-36400000D01*
X28718138Y-35939685D01*
X29094057Y-35377082D01*
X29352994Y-34751952D01*
X29485000Y-34088318D01*
X29485000Y-33411682D01*
X29352994Y-32748048D01*
X29094057Y-32122918D01*
X28718138Y-31560315D01*
X28239685Y-31081862D01*
X27677082Y-30705943D01*
X27051952Y-30447006D01*
X26388318Y-30315000D01*
X25711682Y-30315000D01*
X25048048Y-30447006D01*
X24422918Y-30705943D01*
X23860315Y-31081862D01*
X23381862Y-31560315D01*
X23005943Y-32122918D01*
X22747006Y-32748048D01*
X22615000Y-33411682D01*
X20660000Y-33411682D01*
X20660000Y-24302050D01*
X22765000Y-24302050D01*
X22765000Y-24697949D01*
X22786487Y-24916110D01*
X22871401Y-25196033D01*
X23009294Y-25454013D01*
X23194866Y-25680134D01*
X23420986Y-25865706D01*
X23678966Y-26003599D01*
X23958889Y-26088513D01*
X24250000Y-26117185D01*
X24541110Y-26088513D01*
X24821033Y-26003599D01*
X25079013Y-25865706D01*
X25305134Y-25680134D01*
X25490706Y-25454014D01*
X25500000Y-25436626D01*
X25509294Y-25454013D01*
X25694866Y-25680134D01*
X25920986Y-25865706D01*
X26178966Y-26003599D01*
X26458889Y-26088513D01*
X26750000Y-26117185D01*
X27041110Y-26088513D01*
X27076269Y-26077848D01*
X30243470Y-29245049D01*
X30271183Y-29278817D01*
X30304951Y-29306530D01*
X30304953Y-29306532D01*
X30324861Y-29322870D01*
X30405941Y-29389411D01*
X30559687Y-29471589D01*
X30726510Y-29522195D01*
X30856523Y-29535000D01*
X30856533Y-29535000D01*
X30899999Y-29539281D01*
X30943465Y-29535000D01*
X42511928Y-29535000D01*
X42511928Y-29650000D01*
X42524188Y-29774482D01*
X42560498Y-29894180D01*
X42619463Y-30004494D01*
X42698815Y-30101185D01*
X42795506Y-30180537D01*
X42905820Y-30239502D01*
X43025518Y-30275812D01*
X43150000Y-30288072D01*
X45150000Y-30288072D01*
X45274482Y-30275812D01*
X45394180Y-30239502D01*
X45504494Y-30180537D01*
X45601185Y-30101185D01*
X45680537Y-30004494D01*
X45739502Y-29894180D01*
X45775812Y-29774482D01*
X45788072Y-29650000D01*
X45788072Y-27650000D01*
X45775812Y-27525518D01*
X45739502Y-27405820D01*
X45680537Y-27295506D01*
X45601185Y-27198815D01*
X45504494Y-27119463D01*
X45394180Y-27060498D01*
X45274482Y-27024188D01*
X45150000Y-27011928D01*
X43150000Y-27011928D01*
X43025518Y-27024188D01*
X42905820Y-27060498D01*
X42795506Y-27119463D01*
X42698815Y-27198815D01*
X42619463Y-27295506D01*
X42560498Y-27405820D01*
X42524188Y-27525518D01*
X42511928Y-27650000D01*
X42511928Y-27765000D01*
X31266579Y-27765000D01*
X29524658Y-26023079D01*
X29606890Y-26066476D01*
X29869858Y-25974352D01*
X30121193Y-25827496D01*
X30339049Y-25634429D01*
X30355286Y-25613039D01*
X30411595Y-25718386D01*
X30522038Y-25852962D01*
X30656614Y-25963405D01*
X30810150Y-26045472D01*
X30976746Y-26096008D01*
X31150000Y-26113072D01*
X32350000Y-26113072D01*
X32523254Y-26096008D01*
X32689850Y-26045472D01*
X32843386Y-25963405D01*
X32977962Y-25852962D01*
X33088405Y-25718386D01*
X33170472Y-25564850D01*
X33221008Y-25398254D01*
X33238072Y-25225000D01*
X33238072Y-24785413D01*
X43194192Y-24785413D01*
X43289956Y-25049814D01*
X43579571Y-25190704D01*
X43891108Y-25272384D01*
X44212595Y-25291718D01*
X44531675Y-25247961D01*
X44836088Y-25142795D01*
X45010044Y-25049814D01*
X45105808Y-24785413D01*
X44150000Y-23829605D01*
X43194192Y-24785413D01*
X33238072Y-24785413D01*
X33238072Y-23775000D01*
X33231926Y-23712595D01*
X42508282Y-23712595D01*
X42552039Y-24031675D01*
X42657205Y-24336088D01*
X42750186Y-24510044D01*
X43014587Y-24605808D01*
X43970395Y-23650000D01*
X44329605Y-23650000D01*
X45285413Y-24605808D01*
X45549814Y-24510044D01*
X45690704Y-24220429D01*
X45772384Y-23908892D01*
X45791718Y-23587405D01*
X45747961Y-23268325D01*
X45642795Y-22963912D01*
X45549814Y-22789956D01*
X45285413Y-22694192D01*
X44329605Y-23650000D01*
X43970395Y-23650000D01*
X43014587Y-22694192D01*
X42750186Y-22789956D01*
X42609296Y-23079571D01*
X42527616Y-23391108D01*
X42508282Y-23712595D01*
X33231926Y-23712595D01*
X33221008Y-23601746D01*
X33170472Y-23435150D01*
X33088405Y-23281614D01*
X32977962Y-23147038D01*
X32843386Y-23036595D01*
X32689850Y-22954528D01*
X32523254Y-22903992D01*
X32350000Y-22886928D01*
X31150000Y-22886928D01*
X30976746Y-22903992D01*
X30810150Y-22954528D01*
X30656614Y-23036595D01*
X30522038Y-23147038D01*
X30411595Y-23281614D01*
X30355286Y-23386961D01*
X30339049Y-23365571D01*
X30121193Y-23172504D01*
X29869858Y-23025648D01*
X29606890Y-22933524D01*
X29377000Y-23054845D01*
X29377000Y-24373000D01*
X29397000Y-24373000D01*
X29397000Y-24627000D01*
X29377000Y-24627000D01*
X29377000Y-24647000D01*
X29123000Y-24647000D01*
X29123000Y-24627000D01*
X29103000Y-24627000D01*
X29103000Y-24373000D01*
X29123000Y-24373000D01*
X29123000Y-23054845D01*
X28893110Y-22933524D01*
X28630142Y-23025648D01*
X28378807Y-23172504D01*
X28160951Y-23365571D01*
X28004462Y-23571722D01*
X27990706Y-23545986D01*
X27805134Y-23319866D01*
X27579014Y-23134294D01*
X27321034Y-22996401D01*
X27041111Y-22911487D01*
X26750000Y-22882815D01*
X26458890Y-22911487D01*
X26178967Y-22996401D01*
X25920987Y-23134294D01*
X25694866Y-23319866D01*
X25509294Y-23545986D01*
X25500000Y-23563374D01*
X25490706Y-23545986D01*
X25305134Y-23319866D01*
X25079014Y-23134294D01*
X24821034Y-22996401D01*
X24541111Y-22911487D01*
X24250000Y-22882815D01*
X23958890Y-22911487D01*
X23678967Y-22996401D01*
X23420987Y-23134294D01*
X23194866Y-23319866D01*
X23009294Y-23545986D01*
X22871401Y-23803966D01*
X22786487Y-24083889D01*
X22765000Y-24302050D01*
X20660000Y-24302050D01*
X20660000Y-22514587D01*
X43194192Y-22514587D01*
X44150000Y-23470395D01*
X45105808Y-22514587D01*
X45010044Y-22250186D01*
X44720429Y-22109296D01*
X44408892Y-22027616D01*
X44087405Y-22008282D01*
X43768325Y-22052039D01*
X43463912Y-22157205D01*
X43289956Y-22250186D01*
X43194192Y-22514587D01*
X20660000Y-22514587D01*
X20660000Y-20660000D01*
X84940001Y-20660000D01*
X84940000Y-73535454D01*
%TA.AperFunction,Conductor*%
D22*
G36*
X84940000Y-73535454D02*
G01*
X84852994Y-73098048D01*
X84594057Y-72472918D01*
X84218138Y-71910315D01*
X83739685Y-71431862D01*
X83177082Y-71055943D01*
X82551952Y-70797006D01*
X81888318Y-70665000D01*
X81211682Y-70665000D01*
X80548048Y-70797006D01*
X79922918Y-71055943D01*
X79360315Y-71431862D01*
X78881862Y-71910315D01*
X78505943Y-72472918D01*
X78247006Y-73098048D01*
X78115000Y-73761682D01*
X78115000Y-74438318D01*
X78247006Y-75101952D01*
X78505943Y-75727082D01*
X78881862Y-76289685D01*
X79360315Y-76768138D01*
X79922918Y-77144057D01*
X80548048Y-77402994D01*
X81211682Y-77535000D01*
X81888318Y-77535000D01*
X82551952Y-77402994D01*
X83177082Y-77144057D01*
X83739685Y-76768138D01*
X84218138Y-76289685D01*
X84594057Y-75727082D01*
X84852994Y-75101952D01*
X84940000Y-74664546D01*
X84940000Y-79340000D01*
X20660000Y-79340000D01*
X20660000Y-47350001D01*
X21960718Y-47350001D01*
X21964999Y-47393470D01*
X21965000Y-76906520D01*
X21960718Y-76949999D01*
X21977804Y-77123489D01*
X22028411Y-77290312D01*
X22110589Y-77444058D01*
X22193467Y-77545045D01*
X22193470Y-77545048D01*
X22221183Y-77578816D01*
X22254951Y-77606529D01*
X22653476Y-78005054D01*
X22681193Y-78038827D01*
X22815951Y-78149421D01*
X22969697Y-78231599D01*
X23136520Y-78282205D01*
X23266533Y-78295010D01*
X23266541Y-78295010D01*
X23310010Y-78299291D01*
X23353479Y-78295010D01*
X74506521Y-78295010D01*
X74549990Y-78299291D01*
X74593459Y-78295010D01*
X74593467Y-78295010D01*
X74723480Y-78282205D01*
X74890303Y-78231599D01*
X75044049Y-78149421D01*
X75178807Y-78038827D01*
X75206524Y-78005054D01*
X75716578Y-77495000D01*
X76160665Y-77495000D01*
X76342102Y-77477130D01*
X76574901Y-77406511D01*
X76789449Y-77291833D01*
X76977502Y-77137502D01*
X77131833Y-76949449D01*
X77246511Y-76734901D01*
X77317130Y-76502102D01*
X77340975Y-76260000D01*
X77317130Y-76017898D01*
X77246511Y-75785099D01*
X77131833Y-75570551D01*
X76977502Y-75382498D01*
X76789449Y-75228167D01*
X76574901Y-75113489D01*
X76342102Y-75042870D01*
X76160665Y-75025000D01*
X75239335Y-75025000D01*
X75057898Y-75042870D01*
X74825099Y-75113489D01*
X74610551Y-75228167D01*
X74422498Y-75382498D01*
X74268167Y-75570551D01*
X74153489Y-75785099D01*
X74082870Y-76017898D01*
X74059025Y-76260000D01*
X74082870Y-76502102D01*
X74089819Y-76525010D01*
X51859042Y-76525010D01*
X51768731Y-76387000D01*
X50427000Y-76387000D01*
X50427000Y-76407000D01*
X50173000Y-76407000D01*
X50173000Y-76387000D01*
X48831269Y-76387000D01*
X48740958Y-76525010D01*
X23734999Y-76525010D01*
X23734999Y-75942391D01*
X48706538Y-75942391D01*
X48831269Y-76133000D01*
X50173000Y-76133000D01*
X50173000Y-75025000D01*
X50427000Y-75025000D01*
X50427000Y-76133000D01*
X51768731Y-76133000D01*
X51893462Y-75942391D01*
X51889591Y-75904718D01*
X51797421Y-75679467D01*
X51663078Y-75476526D01*
X51491725Y-75303693D01*
X51289946Y-75167610D01*
X51065496Y-75073507D01*
X50827000Y-75025000D01*
X50427000Y-75025000D01*
X50173000Y-75025000D01*
X49773000Y-75025000D01*
X49534504Y-75073507D01*
X49310054Y-75167610D01*
X49108275Y-75303693D01*
X48936922Y-75476526D01*
X48802579Y-75679467D01*
X48710409Y-75904718D01*
X48706538Y-75942391D01*
X23734999Y-75942391D01*
X23734999Y-73992822D01*
X24010315Y-74268138D01*
X24572918Y-74644057D01*
X25198048Y-74902994D01*
X25861682Y-75035000D01*
X26538318Y-75035000D01*
X27201952Y-74902994D01*
X27827082Y-74644057D01*
X28389685Y-74268138D01*
X28868138Y-73789685D01*
X29244057Y-73227082D01*
X29502994Y-72601952D01*
X29635000Y-71938318D01*
X29635000Y-71261682D01*
X29502994Y-70598048D01*
X29244057Y-69972918D01*
X28868138Y-69410315D01*
X28389685Y-68931862D01*
X27827082Y-68555943D01*
X27201952Y-68297006D01*
X26538318Y-68165000D01*
X25861682Y-68165000D01*
X25198048Y-68297006D01*
X24572918Y-68555943D01*
X24010315Y-68931862D01*
X23734999Y-69207178D01*
X23734999Y-67625000D01*
X33261928Y-67625000D01*
X33261928Y-69075000D01*
X33278992Y-69248254D01*
X33329528Y-69414850D01*
X33411595Y-69568386D01*
X33522038Y-69702962D01*
X33656614Y-69813405D01*
X33810150Y-69895472D01*
X33976746Y-69946008D01*
X34150000Y-69963072D01*
X35350000Y-69963072D01*
X35523254Y-69946008D01*
X35689850Y-69895472D01*
X35843386Y-69813405D01*
X35977962Y-69702962D01*
X36088405Y-69568386D01*
X36144714Y-69463039D01*
X36160951Y-69484429D01*
X36378807Y-69677496D01*
X36630142Y-69824352D01*
X36893110Y-69916476D01*
X37123000Y-69795155D01*
X37123000Y-68477000D01*
X37103000Y-68477000D01*
X37103000Y-68223000D01*
X37123000Y-68223000D01*
X37123000Y-66904845D01*
X37377000Y-66904845D01*
X37377000Y-68223000D01*
X37397000Y-68223000D01*
X37397000Y-68477000D01*
X37377000Y-68477000D01*
X37377000Y-69795155D01*
X37606890Y-69916476D01*
X37869858Y-69824352D01*
X38121193Y-69677496D01*
X38339049Y-69484429D01*
X38495538Y-69278278D01*
X38509294Y-69304014D01*
X38694866Y-69530134D01*
X38920987Y-69715706D01*
X39178967Y-69853599D01*
X39458890Y-69938513D01*
X39750000Y-69967185D01*
X40041111Y-69938513D01*
X40321034Y-69853599D01*
X40579014Y-69715706D01*
X40805134Y-69530134D01*
X40990706Y-69304014D01*
X41000000Y-69286626D01*
X41009294Y-69304014D01*
X41194866Y-69530134D01*
X41420987Y-69715706D01*
X41678967Y-69853599D01*
X41958890Y-69938513D01*
X42250000Y-69967185D01*
X42541111Y-69938513D01*
X42821034Y-69853599D01*
X43079014Y-69715706D01*
X43305134Y-69530134D01*
X43490706Y-69304014D01*
X43500000Y-69286626D01*
X43509294Y-69304014D01*
X43694866Y-69530134D01*
X43920987Y-69715706D01*
X44178967Y-69853599D01*
X44458890Y-69938513D01*
X44750000Y-69967185D01*
X45041111Y-69938513D01*
X45321034Y-69853599D01*
X45579014Y-69715706D01*
X45805134Y-69530134D01*
X45990706Y-69304014D01*
X46128599Y-69046033D01*
X46213513Y-68766110D01*
X46235000Y-68547949D01*
X46235000Y-68152050D01*
X46213513Y-67933889D01*
X46128599Y-67653966D01*
X45990706Y-67395986D01*
X45805134Y-67169866D01*
X45579013Y-66984294D01*
X45321033Y-66846401D01*
X45041110Y-66761487D01*
X44750000Y-66732815D01*
X44458889Y-66761487D01*
X44178966Y-66846401D01*
X43920986Y-66984294D01*
X43694866Y-67169866D01*
X43509294Y-67395987D01*
X43500000Y-67413374D01*
X43490706Y-67395986D01*
X43305134Y-67169866D01*
X43079013Y-66984294D01*
X42821033Y-66846401D01*
X42541110Y-66761487D01*
X42250000Y-66732815D01*
X41958889Y-66761487D01*
X41678966Y-66846401D01*
X41420986Y-66984294D01*
X41194866Y-67169866D01*
X41009294Y-67395987D01*
X41000000Y-67413374D01*
X40990706Y-67395986D01*
X40805134Y-67169866D01*
X40579013Y-66984294D01*
X40321033Y-66846401D01*
X40041110Y-66761487D01*
X39750000Y-66732815D01*
X39458889Y-66761487D01*
X39178966Y-66846401D01*
X38920986Y-66984294D01*
X38694866Y-67169866D01*
X38509294Y-67395987D01*
X38495538Y-67421722D01*
X38339049Y-67215571D01*
X38121193Y-67022504D01*
X37869858Y-66875648D01*
X37606890Y-66783524D01*
X37377000Y-66904845D01*
X37123000Y-66904845D01*
X36893110Y-66783524D01*
X36630142Y-66875648D01*
X36378807Y-67022504D01*
X36160951Y-67215571D01*
X36144714Y-67236961D01*
X36088405Y-67131614D01*
X35977962Y-66997038D01*
X35843386Y-66886595D01*
X35689850Y-66804528D01*
X35523254Y-66753992D01*
X35350000Y-66736928D01*
X34150000Y-66736928D01*
X33976746Y-66753992D01*
X33810150Y-66804528D01*
X33656614Y-66886595D01*
X33522038Y-66997038D01*
X33411595Y-67131614D01*
X33329528Y-67285150D01*
X33278992Y-67451746D01*
X33261928Y-67625000D01*
X23734999Y-67625000D01*
X23734999Y-66100000D01*
X48659025Y-66100000D01*
X48682870Y-66342102D01*
X48753489Y-66574901D01*
X48868167Y-66789449D01*
X49022498Y-66977502D01*
X49210551Y-67131833D01*
X49425099Y-67246511D01*
X49657898Y-67317130D01*
X49839335Y-67335000D01*
X50760665Y-67335000D01*
X50942102Y-67317130D01*
X51174901Y-67246511D01*
X51389449Y-67131833D01*
X51577502Y-66977502D01*
X51731833Y-66789449D01*
X51846511Y-66574901D01*
X51917130Y-66342102D01*
X51940975Y-66100000D01*
X51917130Y-65857898D01*
X51846511Y-65625099D01*
X51731833Y-65410551D01*
X51577502Y-65222498D01*
X51389449Y-65068167D01*
X51174901Y-64953489D01*
X50942102Y-64882870D01*
X50760665Y-64865000D01*
X49839335Y-64865000D01*
X49657898Y-64882870D01*
X49425099Y-64953489D01*
X49210551Y-65068167D01*
X49022498Y-65222498D01*
X48868167Y-65410551D01*
X48753489Y-65625099D01*
X48682870Y-65857898D01*
X48659025Y-66100000D01*
X23734999Y-66100000D01*
X23734999Y-47716579D01*
X24251578Y-47200000D01*
X27982815Y-47200000D01*
X28011487Y-47491111D01*
X28096401Y-47771034D01*
X28234294Y-48029014D01*
X28419866Y-48255134D01*
X28645986Y-48440706D01*
X28663374Y-48450000D01*
X28645986Y-48459294D01*
X28419866Y-48644866D01*
X28234294Y-48870986D01*
X28096401Y-49128966D01*
X28011487Y-49408889D01*
X27982815Y-49700000D01*
X28011487Y-49991111D01*
X28096401Y-50271034D01*
X28234294Y-50529014D01*
X28419866Y-50755134D01*
X28645986Y-50940706D01*
X28663374Y-50950000D01*
X28645986Y-50959294D01*
X28419866Y-51144866D01*
X28234294Y-51370986D01*
X28096401Y-51628966D01*
X28011487Y-51908889D01*
X27982815Y-52200000D01*
X28011487Y-52491111D01*
X28096401Y-52771034D01*
X28234294Y-53029014D01*
X28419866Y-53255134D01*
X28645986Y-53440706D01*
X28663374Y-53450000D01*
X28645986Y-53459294D01*
X28419866Y-53644866D01*
X28234294Y-53870986D01*
X28096401Y-54128966D01*
X28011487Y-54408889D01*
X27982815Y-54700000D01*
X28011487Y-54991111D01*
X28096401Y-55271034D01*
X28234294Y-55529014D01*
X28419866Y-55755134D01*
X28645986Y-55940706D01*
X28663374Y-55950000D01*
X28645986Y-55959294D01*
X28419866Y-56144866D01*
X28234294Y-56370986D01*
X28096401Y-56628966D01*
X28011487Y-56908889D01*
X27982815Y-57200000D01*
X28011487Y-57491111D01*
X28096401Y-57771034D01*
X28234294Y-58029014D01*
X28419866Y-58255134D01*
X28645986Y-58440706D01*
X28663374Y-58450000D01*
X28645986Y-58459294D01*
X28419866Y-58644866D01*
X28234294Y-58870986D01*
X28096401Y-59128966D01*
X28011487Y-59408889D01*
X27982815Y-59700000D01*
X28011487Y-59991111D01*
X28096401Y-60271034D01*
X28234294Y-60529014D01*
X28419866Y-60755134D01*
X28645986Y-60940706D01*
X28903966Y-61078599D01*
X29183889Y-61163513D01*
X29402050Y-61185000D01*
X29797950Y-61185000D01*
X30016111Y-61163513D01*
X30296034Y-61078599D01*
X30554014Y-60940706D01*
X30780134Y-60755134D01*
X30907449Y-60600000D01*
X36311928Y-60600000D01*
X36311928Y-62600000D01*
X36324188Y-62724482D01*
X36360498Y-62844180D01*
X36419463Y-62954494D01*
X36498815Y-63051185D01*
X36595506Y-63130537D01*
X36705820Y-63189502D01*
X36825518Y-63225812D01*
X36950000Y-63238072D01*
X38950000Y-63238072D01*
X39074482Y-63225812D01*
X39194180Y-63189502D01*
X39304494Y-63130537D01*
X39401185Y-63051185D01*
X39480537Y-62954494D01*
X39535976Y-62850777D01*
X39589956Y-62999814D01*
X39879571Y-63140704D01*
X40191108Y-63222384D01*
X40512595Y-63241718D01*
X40831675Y-63197961D01*
X41136088Y-63092795D01*
X41310044Y-62999814D01*
X41405808Y-62735413D01*
X40450000Y-61779605D01*
X40435858Y-61793748D01*
X40256253Y-61614143D01*
X40270395Y-61600000D01*
X40629605Y-61600000D01*
X41585413Y-62555808D01*
X41615075Y-62545065D01*
X41680013Y-62642252D01*
X41907748Y-62869987D01*
X42175537Y-63048918D01*
X42473088Y-63172168D01*
X42788967Y-63235000D01*
X43111033Y-63235000D01*
X43426912Y-63172168D01*
X43724463Y-63048918D01*
X43992252Y-62869987D01*
X44219987Y-62642252D01*
X44398918Y-62374463D01*
X44522168Y-62076912D01*
X44585000Y-61761033D01*
X44585000Y-61438967D01*
X44522168Y-61123088D01*
X44398918Y-60825537D01*
X44219987Y-60557748D01*
X43992252Y-60330013D01*
X43724463Y-60151082D01*
X43426912Y-60027832D01*
X43111033Y-59965000D01*
X42788967Y-59965000D01*
X42473088Y-60027832D01*
X42175537Y-60151082D01*
X41907748Y-60330013D01*
X41680013Y-60557748D01*
X41615075Y-60654935D01*
X41585413Y-60644192D01*
X40629605Y-61600000D01*
X40270395Y-61600000D01*
X40256253Y-61585858D01*
X40435858Y-61406253D01*
X40450000Y-61420395D01*
X41405808Y-60464587D01*
X41310044Y-60200186D01*
X41020429Y-60059296D01*
X40708892Y-59977616D01*
X40387405Y-59958282D01*
X40068325Y-60002039D01*
X39763912Y-60107205D01*
X39589956Y-60200186D01*
X39535976Y-60349223D01*
X39480537Y-60245506D01*
X39401185Y-60148815D01*
X39304494Y-60069463D01*
X39194180Y-60010498D01*
X39074482Y-59974188D01*
X38950000Y-59961928D01*
X36950000Y-59961928D01*
X36825518Y-59974188D01*
X36705820Y-60010498D01*
X36595506Y-60069463D01*
X36498815Y-60148815D01*
X36419463Y-60245506D01*
X36360498Y-60355820D01*
X36324188Y-60475518D01*
X36311928Y-60600000D01*
X30907449Y-60600000D01*
X30965706Y-60529014D01*
X31103599Y-60271034D01*
X31188513Y-59991111D01*
X31217185Y-59700000D01*
X31188513Y-59408889D01*
X31103599Y-59128966D01*
X31066062Y-59058739D01*
X32214802Y-57910000D01*
X44494275Y-57910000D01*
X44622853Y-57949003D01*
X44734506Y-57960000D01*
X44734514Y-57960000D01*
X44771839Y-57963676D01*
X44809164Y-57960000D01*
X46540000Y-57960000D01*
X46540001Y-60522668D01*
X46536324Y-60560000D01*
X46540001Y-60597333D01*
X46550998Y-60708986D01*
X46564180Y-60752442D01*
X46594454Y-60852246D01*
X46665026Y-60984276D01*
X46736201Y-61071002D01*
X46760000Y-61100001D01*
X46788998Y-61123799D01*
X48752746Y-63087548D01*
X48682870Y-63317898D01*
X48659025Y-63560000D01*
X48682870Y-63802102D01*
X48753489Y-64034901D01*
X48868167Y-64249449D01*
X49022498Y-64437502D01*
X49210551Y-64591833D01*
X49425099Y-64706511D01*
X49657898Y-64777130D01*
X49839335Y-64795000D01*
X50760665Y-64795000D01*
X50942102Y-64777130D01*
X51174901Y-64706511D01*
X51389449Y-64591833D01*
X51577502Y-64437502D01*
X51731833Y-64249449D01*
X51846511Y-64034901D01*
X51917130Y-63802102D01*
X51940975Y-63560000D01*
X51917130Y-63317898D01*
X51846511Y-63085099D01*
X51731833Y-62870551D01*
X51577502Y-62682498D01*
X51389449Y-62528167D01*
X51174901Y-62413489D01*
X50942102Y-62342870D01*
X50760665Y-62325000D01*
X50139802Y-62325000D01*
X50069802Y-62255000D01*
X50760665Y-62255000D01*
X50942102Y-62237130D01*
X51174901Y-62166511D01*
X51389449Y-62051833D01*
X51577502Y-61897502D01*
X51731833Y-61709449D01*
X51846511Y-61494901D01*
X51917130Y-61262102D01*
X51940975Y-61020000D01*
X51917130Y-60777898D01*
X51846511Y-60545099D01*
X51731833Y-60330551D01*
X51577502Y-60142498D01*
X51389449Y-59988167D01*
X51174901Y-59873489D01*
X50942102Y-59802870D01*
X50760665Y-59785000D01*
X49839335Y-59785000D01*
X49657898Y-59802870D01*
X49425099Y-59873489D01*
X49210551Y-59988167D01*
X49022498Y-60142498D01*
X48868167Y-60330551D01*
X48753489Y-60545099D01*
X48682870Y-60777898D01*
X48674785Y-60859984D01*
X48060000Y-60245199D01*
X48060000Y-57534801D01*
X48701542Y-58176344D01*
X48682870Y-58237898D01*
X48659025Y-58480000D01*
X48682870Y-58722102D01*
X48753489Y-58954901D01*
X48868167Y-59169449D01*
X49022498Y-59357502D01*
X49210551Y-59511833D01*
X49425099Y-59626511D01*
X49657898Y-59697130D01*
X49839335Y-59715000D01*
X50760665Y-59715000D01*
X50942102Y-59697130D01*
X51174901Y-59626511D01*
X51389449Y-59511833D01*
X51577502Y-59357502D01*
X51731833Y-59169449D01*
X51846511Y-58954901D01*
X51917130Y-58722102D01*
X51940975Y-58480000D01*
X51917130Y-58237898D01*
X51846511Y-58005099D01*
X51731833Y-57790551D01*
X51577502Y-57602498D01*
X51389449Y-57448167D01*
X51174901Y-57333489D01*
X50942102Y-57262870D01*
X50760665Y-57245000D01*
X49919802Y-57245000D01*
X49849802Y-57175000D01*
X50760665Y-57175000D01*
X50942102Y-57157130D01*
X51174901Y-57086511D01*
X51389449Y-56971833D01*
X51577502Y-56817502D01*
X51731833Y-56629449D01*
X51846511Y-56414901D01*
X51917130Y-56182102D01*
X51940975Y-55940000D01*
X51917130Y-55697898D01*
X51846511Y-55465099D01*
X51731833Y-55250551D01*
X51577502Y-55062498D01*
X51389449Y-54908167D01*
X51174901Y-54793489D01*
X50942102Y-54722870D01*
X50760665Y-54705000D01*
X49839335Y-54705000D01*
X49657898Y-54722870D01*
X49425099Y-54793489D01*
X49210551Y-54908167D01*
X49022498Y-55062498D01*
X48897342Y-55215001D01*
X47938072Y-55215001D01*
X47938072Y-52960000D01*
X47970201Y-52960000D01*
X48696180Y-53685980D01*
X48753489Y-53874901D01*
X48868167Y-54089449D01*
X49022498Y-54277502D01*
X49210551Y-54431833D01*
X49425099Y-54546511D01*
X49657898Y-54617130D01*
X49839335Y-54635000D01*
X50760665Y-54635000D01*
X50942102Y-54617130D01*
X51174901Y-54546511D01*
X51389449Y-54431833D01*
X51577502Y-54277502D01*
X51731833Y-54089449D01*
X51846511Y-53874901D01*
X51917130Y-53642102D01*
X51940975Y-53400000D01*
X51917130Y-53157898D01*
X51846511Y-52925099D01*
X51731833Y-52710551D01*
X51577502Y-52522498D01*
X51389449Y-52368167D01*
X51174901Y-52253489D01*
X50942102Y-52182870D01*
X50760665Y-52165000D01*
X49839335Y-52165000D01*
X49657898Y-52182870D01*
X49425099Y-52253489D01*
X49417405Y-52257602D01*
X48848806Y-51689003D01*
X48825003Y-51659999D01*
X48709278Y-51565026D01*
X48577249Y-51494454D01*
X48433988Y-51450997D01*
X48322335Y-51440000D01*
X48322324Y-51440000D01*
X48285002Y-51436324D01*
X48247680Y-51440000D01*
X31002595Y-51440000D01*
X30965706Y-51370986D01*
X30780134Y-51144866D01*
X30554014Y-50959294D01*
X30536626Y-50950000D01*
X30554014Y-50940706D01*
X30780134Y-50755134D01*
X30965706Y-50529014D01*
X31002595Y-50460000D01*
X31262678Y-50460000D01*
X31300000Y-50463676D01*
X31337322Y-50460000D01*
X31337333Y-50460000D01*
X31448986Y-50449003D01*
X31592247Y-50405546D01*
X31724276Y-50334974D01*
X31840001Y-50240001D01*
X31863803Y-50210998D01*
X32164802Y-49910000D01*
X48275199Y-49910000D01*
X48752746Y-50387548D01*
X48682870Y-50617898D01*
X48659025Y-50860000D01*
X48682870Y-51102102D01*
X48753489Y-51334901D01*
X48868167Y-51549449D01*
X49022498Y-51737502D01*
X49210551Y-51891833D01*
X49425099Y-52006511D01*
X49657898Y-52077130D01*
X49839335Y-52095000D01*
X50760665Y-52095000D01*
X50942102Y-52077130D01*
X51174901Y-52006511D01*
X51389449Y-51891833D01*
X51577502Y-51737502D01*
X51731833Y-51549449D01*
X51846511Y-51334901D01*
X51917130Y-51102102D01*
X51940975Y-50860000D01*
X51917130Y-50617898D01*
X51846511Y-50385099D01*
X51731833Y-50170551D01*
X51577502Y-49982498D01*
X51389449Y-49828167D01*
X51174901Y-49713489D01*
X50942102Y-49642870D01*
X50760665Y-49625000D01*
X50139802Y-49625000D01*
X50069802Y-49555000D01*
X50760665Y-49555000D01*
X50942102Y-49537130D01*
X51174901Y-49466511D01*
X51389449Y-49351833D01*
X51577502Y-49197502D01*
X51731833Y-49009449D01*
X51846511Y-48794901D01*
X51917130Y-48562102D01*
X51940975Y-48320000D01*
X51917130Y-48077898D01*
X51846511Y-47845099D01*
X51731833Y-47630551D01*
X51577502Y-47442498D01*
X51389449Y-47288167D01*
X51174901Y-47173489D01*
X50942102Y-47102870D01*
X50760665Y-47085000D01*
X49839335Y-47085000D01*
X49657898Y-47102870D01*
X49425099Y-47173489D01*
X49210551Y-47288167D01*
X49022498Y-47442498D01*
X48868167Y-47630551D01*
X48769577Y-47815001D01*
X44423548Y-47815001D01*
X44522168Y-47576912D01*
X44585000Y-47261033D01*
X44585000Y-46938967D01*
X44522168Y-46623088D01*
X44398918Y-46325537D01*
X44219987Y-46057748D01*
X43992252Y-45830013D01*
X43917403Y-45780000D01*
X48659025Y-45780000D01*
X48682870Y-46022102D01*
X48753489Y-46254901D01*
X48868167Y-46469449D01*
X49022498Y-46657502D01*
X49210551Y-46811833D01*
X49425099Y-46926511D01*
X49657898Y-46997130D01*
X49839335Y-47015000D01*
X50760665Y-47015000D01*
X50942102Y-46997130D01*
X51174901Y-46926511D01*
X51389449Y-46811833D01*
X51577502Y-46657502D01*
X51731833Y-46469449D01*
X51846511Y-46254901D01*
X51917130Y-46022102D01*
X51940975Y-45780000D01*
X51917130Y-45537898D01*
X51846511Y-45305099D01*
X51731833Y-45090551D01*
X51577502Y-44902498D01*
X51389449Y-44748167D01*
X51174901Y-44633489D01*
X50942102Y-44562870D01*
X50760665Y-44545000D01*
X49839335Y-44545000D01*
X49657898Y-44562870D01*
X49425099Y-44633489D01*
X49210551Y-44748167D01*
X49022498Y-44902498D01*
X48868167Y-45090551D01*
X48753489Y-45305099D01*
X48682870Y-45537898D01*
X48659025Y-45780000D01*
X43917403Y-45780000D01*
X43724463Y-45651082D01*
X43426912Y-45527832D01*
X43111033Y-45465000D01*
X42788967Y-45465000D01*
X42473088Y-45527832D01*
X42175537Y-45651082D01*
X41907748Y-45830013D01*
X41680013Y-46057748D01*
X41501082Y-46325537D01*
X41377832Y-46623088D01*
X41315000Y-46938967D01*
X41315000Y-47261033D01*
X41377832Y-47576912D01*
X41476452Y-47815001D01*
X39420374Y-47815001D01*
X39490704Y-47670429D01*
X39572384Y-47358892D01*
X39591718Y-47037405D01*
X39547961Y-46718325D01*
X39442795Y-46413912D01*
X39349814Y-46239956D01*
X39085413Y-46144192D01*
X38129605Y-47100000D01*
X38143748Y-47114143D01*
X37964143Y-47293748D01*
X37950000Y-47279605D01*
X37935858Y-47293748D01*
X37756253Y-47114143D01*
X37770395Y-47100000D01*
X36814587Y-46144192D01*
X36550186Y-46239956D01*
X36409296Y-46529571D01*
X36327616Y-46841108D01*
X36308282Y-47162595D01*
X36352039Y-47481675D01*
X36457205Y-47786088D01*
X36472659Y-47815001D01*
X31289803Y-47815001D01*
X31136704Y-47661902D01*
X31188513Y-47491111D01*
X31217185Y-47200000D01*
X31188513Y-46908889D01*
X31103599Y-46628966D01*
X30965706Y-46370986D01*
X30780134Y-46144866D01*
X30560464Y-45964587D01*
X36994192Y-45964587D01*
X37950000Y-46920395D01*
X38905808Y-45964587D01*
X38810044Y-45700186D01*
X38520429Y-45559296D01*
X38208892Y-45477616D01*
X37887405Y-45458282D01*
X37568325Y-45502039D01*
X37263912Y-45607205D01*
X37089956Y-45700186D01*
X36994192Y-45964587D01*
X30560464Y-45964587D01*
X30554014Y-45959294D01*
X30528278Y-45945538D01*
X30734429Y-45789049D01*
X30927496Y-45571193D01*
X31074352Y-45319858D01*
X31166476Y-45056890D01*
X31045155Y-44827000D01*
X29727000Y-44827000D01*
X29727000Y-44847000D01*
X29473000Y-44847000D01*
X29473000Y-44827000D01*
X28154845Y-44827000D01*
X28033524Y-45056890D01*
X28125648Y-45319858D01*
X28272504Y-45571193D01*
X28465571Y-45789049D01*
X28671722Y-45945538D01*
X28645986Y-45959294D01*
X28419866Y-46144866D01*
X28234294Y-46370986D01*
X28096401Y-46628966D01*
X28011487Y-46908889D01*
X27982815Y-47200000D01*
X24251578Y-47200000D01*
X28146330Y-43305249D01*
X28247038Y-43427962D01*
X28381614Y-43538405D01*
X28486961Y-43594714D01*
X28465571Y-43610951D01*
X28272504Y-43828807D01*
X28125648Y-44080142D01*
X28033524Y-44343110D01*
X28154845Y-44573000D01*
X29473000Y-44573000D01*
X29473000Y-44553000D01*
X29727000Y-44553000D01*
X29727000Y-44573000D01*
X31045155Y-44573000D01*
X31166476Y-44343110D01*
X31074352Y-44080142D01*
X30927496Y-43828807D01*
X30734429Y-43610951D01*
X30713039Y-43594714D01*
X30818386Y-43538405D01*
X30952962Y-43427962D01*
X31063405Y-43293386D01*
X31145472Y-43139850D01*
X31196008Y-42973254D01*
X31213072Y-42800000D01*
X31213072Y-41600000D01*
X31196008Y-41426746D01*
X31145472Y-41260150D01*
X31063405Y-41106614D01*
X30952962Y-40972038D01*
X30818386Y-40861595D01*
X30664850Y-40779528D01*
X30498254Y-40728992D01*
X30325000Y-40711928D01*
X28875000Y-40711928D01*
X28701746Y-40728992D01*
X28535150Y-40779528D01*
X28381614Y-40861595D01*
X28247038Y-40972038D01*
X28136595Y-41106614D01*
X28054528Y-41260150D01*
X28038051Y-41314467D01*
X27999999Y-41310719D01*
X27956533Y-41315000D01*
X27956523Y-41315000D01*
X27826510Y-41327805D01*
X27659687Y-41378411D01*
X27505941Y-41460589D01*
X27505939Y-41460590D01*
X27505940Y-41460590D01*
X27404953Y-41543468D01*
X27404951Y-41543470D01*
X27371183Y-41571183D01*
X27343470Y-41604951D01*
X22254955Y-46693467D01*
X22221182Y-46721184D01*
X22110588Y-46855943D01*
X22028410Y-47009689D01*
X21977804Y-47176512D01*
X21964999Y-47306525D01*
X21964999Y-47306532D01*
X21960718Y-47350001D01*
X20660000Y-47350001D01*
X20660000Y-40700000D01*
X48659025Y-40700000D01*
X48682870Y-40942102D01*
X48753489Y-41174901D01*
X48868167Y-41389449D01*
X49022498Y-41577502D01*
X49210551Y-41731833D01*
X49425099Y-41846511D01*
X49641535Y-41912166D01*
X49665026Y-41956115D01*
X49688732Y-41985000D01*
X49715181Y-42017228D01*
X49657898Y-42022870D01*
X49425099Y-42093489D01*
X49210551Y-42208167D01*
X49022498Y-42362498D01*
X48868167Y-42550551D01*
X48753489Y-42765099D01*
X48682870Y-42997898D01*
X48659025Y-43240000D01*
X48682870Y-43482102D01*
X48753489Y-43714901D01*
X48868167Y-43929449D01*
X49022498Y-44117502D01*
X49210551Y-44271833D01*
X49425099Y-44386511D01*
X49657898Y-44457130D01*
X49839335Y-44475000D01*
X50760665Y-44475000D01*
X50942102Y-44457130D01*
X51174901Y-44386511D01*
X51389449Y-44271833D01*
X51577502Y-44117502D01*
X51682690Y-43989330D01*
X52190001Y-44496642D01*
X52190000Y-58346289D01*
X52146063Y-58390226D01*
X52032795Y-58559744D01*
X51954774Y-58748102D01*
X51915000Y-58948061D01*
X51915000Y-59151939D01*
X51954774Y-59351898D01*
X52032795Y-59540256D01*
X52146063Y-59709774D01*
X52290226Y-59853937D01*
X52459744Y-59967205D01*
X52648102Y-60045226D01*
X52848061Y-60085000D01*
X53051939Y-60085000D01*
X53251898Y-60045226D01*
X53440256Y-59967205D01*
X53609774Y-59853937D01*
X53753937Y-59709774D01*
X53867205Y-59540256D01*
X53945226Y-59351898D01*
X53985000Y-59151939D01*
X53985000Y-58948061D01*
X53945226Y-58748102D01*
X53867205Y-58559744D01*
X53753937Y-58390226D01*
X53710000Y-58346289D01*
X53710000Y-44219162D01*
X53713676Y-44181839D01*
X53710000Y-44144516D01*
X53710000Y-44144506D01*
X53699003Y-44032853D01*
X53655546Y-43889592D01*
X53645616Y-43871015D01*
X53584974Y-43757562D01*
X53513799Y-43670836D01*
X53490001Y-43641838D01*
X53461003Y-43618040D01*
X51491250Y-41648287D01*
X51577502Y-41577502D01*
X51731833Y-41389449D01*
X51846511Y-41174901D01*
X51917130Y-40942102D01*
X51940975Y-40700000D01*
X51917130Y-40457898D01*
X51846511Y-40225099D01*
X51731833Y-40010551D01*
X51577502Y-39822498D01*
X51389449Y-39668167D01*
X51174901Y-39553489D01*
X50942102Y-39482870D01*
X50760665Y-39465000D01*
X49839335Y-39465000D01*
X49657898Y-39482870D01*
X49425099Y-39553489D01*
X49210551Y-39668167D01*
X49022498Y-39822498D01*
X48868167Y-40010551D01*
X48753489Y-40225099D01*
X48682870Y-40457898D01*
X48659025Y-40700000D01*
X20660000Y-40700000D01*
X20660000Y-33411682D01*
X22615000Y-33411682D01*
X22615000Y-34088318D01*
X22747006Y-34751952D01*
X23005943Y-35377082D01*
X23381862Y-35939685D01*
X23860315Y-36418138D01*
X24422918Y-36794057D01*
X25048048Y-37052994D01*
X25711682Y-37185000D01*
X26388318Y-37185000D01*
X27051952Y-37052994D01*
X27677082Y-36794057D01*
X28239685Y-36418138D01*
X28257823Y-36400000D01*
X35411928Y-36400000D01*
X35411928Y-38400000D01*
X35424188Y-38524482D01*
X35460498Y-38644180D01*
X35519463Y-38754494D01*
X35598815Y-38851185D01*
X35695506Y-38930537D01*
X35805820Y-38989502D01*
X35925518Y-39025812D01*
X36050000Y-39038072D01*
X38050000Y-39038072D01*
X38174482Y-39025812D01*
X38294180Y-38989502D01*
X38404494Y-38930537D01*
X38501185Y-38851185D01*
X38580537Y-38754494D01*
X38639502Y-38644180D01*
X38675812Y-38524482D01*
X38688072Y-38400000D01*
X38688072Y-38285000D01*
X41370172Y-38285000D01*
X41413641Y-38289281D01*
X41457110Y-38285000D01*
X41457118Y-38285000D01*
X41587131Y-38272195D01*
X41753954Y-38221589D01*
X41907700Y-38139411D01*
X42042458Y-38028817D01*
X42070175Y-37995044D01*
X43061866Y-37003353D01*
X43015000Y-37238967D01*
X43015000Y-37561033D01*
X43077832Y-37876912D01*
X43201082Y-38174463D01*
X43380013Y-38442252D01*
X43607748Y-38669987D01*
X43875537Y-38848918D01*
X44173088Y-38972168D01*
X44488967Y-39035000D01*
X44811033Y-39035000D01*
X45126912Y-38972168D01*
X45424463Y-38848918D01*
X45692252Y-38669987D01*
X45919987Y-38442252D01*
X46098918Y-38174463D01*
X46104908Y-38160000D01*
X48659025Y-38160000D01*
X48682870Y-38402102D01*
X48753489Y-38634901D01*
X48868167Y-38849449D01*
X49022498Y-39037502D01*
X49210551Y-39191833D01*
X49425099Y-39306511D01*
X49657898Y-39377130D01*
X49839335Y-39395000D01*
X50760665Y-39395000D01*
X50942102Y-39377130D01*
X51174901Y-39306511D01*
X51389449Y-39191833D01*
X51577502Y-39037502D01*
X51731833Y-38849449D01*
X51846511Y-38634901D01*
X51917130Y-38402102D01*
X51940975Y-38160000D01*
X51917130Y-37917898D01*
X51846511Y-37685099D01*
X51731833Y-37470551D01*
X51577502Y-37282498D01*
X51389449Y-37128167D01*
X51174901Y-37013489D01*
X50942102Y-36942870D01*
X50760665Y-36925000D01*
X49839335Y-36925000D01*
X49657898Y-36942870D01*
X49425099Y-37013489D01*
X49210551Y-37128167D01*
X49022498Y-37282498D01*
X48868167Y-37470551D01*
X48753489Y-37685099D01*
X48682870Y-37917898D01*
X48659025Y-38160000D01*
X46104908Y-38160000D01*
X46222168Y-37876912D01*
X46285000Y-37561033D01*
X46285000Y-37238967D01*
X46222168Y-36923088D01*
X46098918Y-36625537D01*
X45919987Y-36357748D01*
X45692252Y-36130013D01*
X45424463Y-35951082D01*
X45126912Y-35827832D01*
X44811033Y-35765000D01*
X44488967Y-35765000D01*
X44253353Y-35811866D01*
X44445219Y-35620000D01*
X48659025Y-35620000D01*
X48682870Y-35862102D01*
X48753489Y-36094901D01*
X48868167Y-36309449D01*
X49022498Y-36497502D01*
X49210551Y-36651833D01*
X49425099Y-36766511D01*
X49657898Y-36837130D01*
X49839335Y-36855000D01*
X50760665Y-36855000D01*
X50942102Y-36837130D01*
X51174901Y-36766511D01*
X51389449Y-36651833D01*
X51577502Y-36497502D01*
X51731833Y-36309449D01*
X51846511Y-36094901D01*
X51917130Y-35862102D01*
X51940975Y-35620000D01*
X51917130Y-35377898D01*
X51846511Y-35145099D01*
X51731833Y-34930551D01*
X51577502Y-34742498D01*
X51389449Y-34588167D01*
X51174901Y-34473489D01*
X50942102Y-34402870D01*
X50760665Y-34385000D01*
X49839335Y-34385000D01*
X49657898Y-34402870D01*
X49425099Y-34473489D01*
X49210551Y-34588167D01*
X49022498Y-34742498D01*
X48868167Y-34930551D01*
X48753489Y-35145099D01*
X48682870Y-35377898D01*
X48659025Y-35620000D01*
X44445219Y-35620000D01*
X46985219Y-33080000D01*
X48659025Y-33080000D01*
X48682870Y-33322102D01*
X48753489Y-33554901D01*
X48868167Y-33769449D01*
X49022498Y-33957502D01*
X49210551Y-34111833D01*
X49425099Y-34226511D01*
X49657898Y-34297130D01*
X49839335Y-34315000D01*
X50760665Y-34315000D01*
X50942102Y-34297130D01*
X51174901Y-34226511D01*
X51389449Y-34111833D01*
X51577502Y-33957502D01*
X51731833Y-33769449D01*
X51846511Y-33554901D01*
X51917130Y-33322102D01*
X51940975Y-33080000D01*
X51917130Y-32837898D01*
X51846511Y-32605099D01*
X51731833Y-32390551D01*
X51577502Y-32202498D01*
X51389449Y-32048167D01*
X51174901Y-31933489D01*
X50942102Y-31862870D01*
X50760665Y-31845000D01*
X49839335Y-31845000D01*
X49657898Y-31862870D01*
X49425099Y-31933489D01*
X49210551Y-32048167D01*
X49022498Y-32202498D01*
X48868167Y-32390551D01*
X48753489Y-32605099D01*
X48682870Y-32837898D01*
X48659025Y-33080000D01*
X46985219Y-33080000D01*
X48856883Y-31208337D01*
X48868167Y-31229449D01*
X49022498Y-31417502D01*
X49210551Y-31571833D01*
X49425099Y-31686511D01*
X49657898Y-31757130D01*
X49839335Y-31775000D01*
X50760665Y-31775000D01*
X50942102Y-31757130D01*
X51174901Y-31686511D01*
X51389449Y-31571833D01*
X51577502Y-31417502D01*
X51731833Y-31229449D01*
X51846511Y-31014901D01*
X51917130Y-30782102D01*
X51940975Y-30540000D01*
X51917130Y-30297898D01*
X51846511Y-30065099D01*
X51731833Y-29850551D01*
X51577502Y-29662498D01*
X51389449Y-29508167D01*
X51174901Y-29393489D01*
X50942102Y-29322870D01*
X50760665Y-29305000D01*
X50760220Y-29305000D01*
X52080219Y-27985001D01*
X56206530Y-27985001D01*
X56249999Y-27989282D01*
X56293468Y-27985001D01*
X56293476Y-27985001D01*
X56423489Y-27972196D01*
X56590312Y-27921590D01*
X56744058Y-27839412D01*
X56878816Y-27728818D01*
X56906533Y-27695045D01*
X58573731Y-26027848D01*
X58608889Y-26038513D01*
X58900000Y-26067185D01*
X59191110Y-26038513D01*
X59471033Y-25953599D01*
X59729013Y-25815706D01*
X59955134Y-25630134D01*
X60140706Y-25404014D01*
X60150000Y-25386626D01*
X60159294Y-25404013D01*
X60344866Y-25630134D01*
X60570986Y-25815706D01*
X60640001Y-25852595D01*
X60640000Y-29885198D01*
X57710199Y-32815000D01*
X57648061Y-32815000D01*
X57448102Y-32854774D01*
X57259744Y-32932795D01*
X57090226Y-33046063D01*
X56946063Y-33190226D01*
X56832795Y-33359744D01*
X56754774Y-33548102D01*
X56715000Y-33748061D01*
X56715000Y-33951939D01*
X56754774Y-34151898D01*
X56832795Y-34340256D01*
X56946063Y-34509774D01*
X57090226Y-34653937D01*
X57259744Y-34767205D01*
X57448102Y-34845226D01*
X57648061Y-34885000D01*
X57851939Y-34885000D01*
X58051898Y-34845226D01*
X58240256Y-34767205D01*
X58409774Y-34653937D01*
X58553937Y-34509774D01*
X58667205Y-34340256D01*
X58745226Y-34151898D01*
X58785000Y-33951939D01*
X58785000Y-33889801D01*
X61911004Y-30763798D01*
X61929705Y-30748451D01*
X61890000Y-30948061D01*
X61890000Y-31151939D01*
X61929774Y-31351898D01*
X62007795Y-31540256D01*
X62121063Y-31709774D01*
X62265226Y-31853937D01*
X62434744Y-31967205D01*
X62623102Y-32045226D01*
X62823061Y-32085000D01*
X62885199Y-32085000D01*
X63143708Y-32343510D01*
X62990226Y-32446063D01*
X62846063Y-32590226D01*
X62732795Y-32759744D01*
X62654774Y-32948102D01*
X62615000Y-33148061D01*
X62615000Y-33351939D01*
X62654774Y-33551898D01*
X62732795Y-33740256D01*
X62846063Y-33909774D01*
X62990226Y-34053937D01*
X63159744Y-34167205D01*
X63348102Y-34245226D01*
X63548061Y-34285000D01*
X63610199Y-34285000D01*
X66490001Y-37164803D01*
X66490000Y-49832516D01*
X66401939Y-49815000D01*
X66198061Y-49815000D01*
X65998102Y-49854774D01*
X65809744Y-49932795D01*
X65640226Y-50046063D01*
X65496063Y-50190226D01*
X65382795Y-50359744D01*
X65304774Y-50548102D01*
X65265000Y-50748061D01*
X65265000Y-50951939D01*
X65304774Y-51151898D01*
X65382795Y-51340256D01*
X65496063Y-51509774D01*
X65540001Y-51553712D01*
X65540000Y-56535198D01*
X65138998Y-56936201D01*
X65110000Y-56959999D01*
X65086202Y-56988997D01*
X65086201Y-56988998D01*
X65015026Y-57075724D01*
X64944454Y-57207754D01*
X64916780Y-57298986D01*
X64901614Y-57348985D01*
X64900998Y-57351015D01*
X64886324Y-57500000D01*
X64890001Y-57537332D01*
X64890000Y-58496289D01*
X64846063Y-58540226D01*
X64732795Y-58709744D01*
X64654774Y-58898102D01*
X64615000Y-59098061D01*
X64615000Y-59301939D01*
X64654774Y-59501898D01*
X64732795Y-59690256D01*
X64846063Y-59859774D01*
X64990226Y-60003937D01*
X65159744Y-60117205D01*
X65348102Y-60195226D01*
X65548061Y-60235000D01*
X65751939Y-60235000D01*
X65951898Y-60195226D01*
X66140256Y-60117205D01*
X66309774Y-60003937D01*
X66453937Y-59859774D01*
X66567205Y-59690256D01*
X66645226Y-59501898D01*
X66685000Y-59301939D01*
X66685000Y-59098061D01*
X66645226Y-58898102D01*
X66567205Y-58709744D01*
X66453937Y-58540226D01*
X66410000Y-58496289D01*
X66410000Y-57814801D01*
X66494256Y-57730545D01*
X66500997Y-57798985D01*
X66539003Y-57924276D01*
X66544454Y-57942246D01*
X66615026Y-58074276D01*
X66654871Y-58122826D01*
X66709999Y-58190001D01*
X66739003Y-58213804D01*
X74152746Y-65627548D01*
X74082870Y-65857898D01*
X74059025Y-66100000D01*
X74082870Y-66342102D01*
X74089819Y-66365010D01*
X63866589Y-66365010D01*
X59806535Y-62304957D01*
X59795226Y-62248102D01*
X59717205Y-62059744D01*
X59603937Y-61890226D01*
X59459774Y-61746063D01*
X59290256Y-61632795D01*
X59101898Y-61554774D01*
X58901939Y-61515000D01*
X58698061Y-61515000D01*
X58610000Y-61532516D01*
X58610000Y-52403711D01*
X58653937Y-52359774D01*
X58767205Y-52190256D01*
X58845226Y-52001898D01*
X58885000Y-51801939D01*
X58885000Y-51598061D01*
X58845226Y-51398102D01*
X58767205Y-51209744D01*
X58653937Y-51040226D01*
X58509774Y-50896063D01*
X58340256Y-50782795D01*
X58151898Y-50704774D01*
X57951939Y-50665000D01*
X57748061Y-50665000D01*
X57548102Y-50704774D01*
X57359744Y-50782795D01*
X57190226Y-50896063D01*
X57046063Y-51040226D01*
X56932795Y-51209744D01*
X56910000Y-51264776D01*
X56910000Y-42764801D01*
X57689802Y-41985000D01*
X57751939Y-41985000D01*
X57951898Y-41945226D01*
X58140256Y-41867205D01*
X58309774Y-41753937D01*
X58453937Y-41609774D01*
X58567205Y-41440256D01*
X58645226Y-41251898D01*
X58685000Y-41051939D01*
X58685000Y-40848061D01*
X58645226Y-40648102D01*
X58567205Y-40459744D01*
X58453937Y-40290226D01*
X58309774Y-40146063D01*
X58140256Y-40032795D01*
X57951898Y-39954774D01*
X57751939Y-39915000D01*
X57548061Y-39915000D01*
X57348102Y-39954774D01*
X57159744Y-40032795D01*
X56990226Y-40146063D01*
X56846063Y-40290226D01*
X56732795Y-40459744D01*
X56654774Y-40648102D01*
X56615000Y-40848061D01*
X56615000Y-40910198D01*
X55638998Y-41886201D01*
X55610000Y-41909999D01*
X55586202Y-41938997D01*
X55586201Y-41938998D01*
X55515026Y-42025724D01*
X55444454Y-42157754D01*
X55400998Y-42301015D01*
X55386324Y-42450000D01*
X55390001Y-42487332D01*
X55390000Y-43787332D01*
X55390001Y-43787342D01*
X55390000Y-63835198D01*
X53163999Y-66061200D01*
X53135001Y-66084998D01*
X53111203Y-66113996D01*
X53111202Y-66113997D01*
X53040027Y-66200723D01*
X52969455Y-66332753D01*
X52951409Y-66392246D01*
X52925999Y-66476013D01*
X52916259Y-66574901D01*
X52911325Y-66624999D01*
X52915002Y-66662331D01*
X52915001Y-67490197D01*
X51925215Y-68479984D01*
X51917130Y-68397898D01*
X51846511Y-68165099D01*
X51731833Y-67950551D01*
X51577502Y-67762498D01*
X51389449Y-67608167D01*
X51174901Y-67493489D01*
X50942102Y-67422870D01*
X50760665Y-67405000D01*
X49839335Y-67405000D01*
X49657898Y-67422870D01*
X49425099Y-67493489D01*
X49210551Y-67608167D01*
X49022498Y-67762498D01*
X48868167Y-67950551D01*
X48753489Y-68165099D01*
X48682870Y-68397898D01*
X48659025Y-68640000D01*
X48682870Y-68882102D01*
X48753489Y-69114901D01*
X48868167Y-69329449D01*
X49022498Y-69517502D01*
X49210551Y-69671833D01*
X49425099Y-69786511D01*
X49657898Y-69857130D01*
X49839335Y-69875000D01*
X50530199Y-69875000D01*
X50460199Y-69945000D01*
X49839335Y-69945000D01*
X49657898Y-69962870D01*
X49425099Y-70033489D01*
X49210551Y-70148167D01*
X49022498Y-70302498D01*
X48868167Y-70490551D01*
X48753489Y-70705099D01*
X48682870Y-70937898D01*
X48659025Y-71180000D01*
X48682870Y-71422102D01*
X48753489Y-71654901D01*
X48868167Y-71869449D01*
X49022498Y-72057502D01*
X49210551Y-72211833D01*
X49425099Y-72326511D01*
X49657898Y-72397130D01*
X49839335Y-72415000D01*
X50530199Y-72415000D01*
X50460199Y-72485000D01*
X49839335Y-72485000D01*
X49657898Y-72502870D01*
X49425099Y-72573489D01*
X49210551Y-72688167D01*
X49022498Y-72842498D01*
X48868167Y-73030551D01*
X48753489Y-73245099D01*
X48682870Y-73477898D01*
X48659025Y-73720000D01*
X48682870Y-73962102D01*
X48753489Y-74194901D01*
X48868167Y-74409449D01*
X49022498Y-74597502D01*
X49210551Y-74751833D01*
X49425099Y-74866511D01*
X49657898Y-74937130D01*
X49839335Y-74955000D01*
X50760665Y-74955000D01*
X50942102Y-74937130D01*
X51174901Y-74866511D01*
X51389449Y-74751833D01*
X51577502Y-74597502D01*
X51731833Y-74409449D01*
X51846511Y-74194901D01*
X51917130Y-73962102D01*
X51940975Y-73720000D01*
X74059025Y-73720000D01*
X74082870Y-73962102D01*
X74153489Y-74194901D01*
X74268167Y-74409449D01*
X74422498Y-74597502D01*
X74610551Y-74751833D01*
X74825099Y-74866511D01*
X75057898Y-74937130D01*
X75239335Y-74955000D01*
X76160665Y-74955000D01*
X76342102Y-74937130D01*
X76574901Y-74866511D01*
X76789449Y-74751833D01*
X76977502Y-74597502D01*
X77131833Y-74409449D01*
X77246511Y-74194901D01*
X77317130Y-73962102D01*
X77340975Y-73720000D01*
X77317130Y-73477898D01*
X77246511Y-73245099D01*
X77131833Y-73030551D01*
X76977502Y-72842498D01*
X76789449Y-72688167D01*
X76574901Y-72573489D01*
X76342102Y-72502870D01*
X76160665Y-72485000D01*
X75239335Y-72485000D01*
X75057898Y-72502870D01*
X74825099Y-72573489D01*
X74610551Y-72688167D01*
X74422498Y-72842498D01*
X74268167Y-73030551D01*
X74153489Y-73245099D01*
X74082870Y-73477898D01*
X74059025Y-73720000D01*
X51940975Y-73720000D01*
X51917130Y-73477898D01*
X51847254Y-73247548D01*
X53914802Y-71180000D01*
X74059025Y-71180000D01*
X74082870Y-71422102D01*
X74153489Y-71654901D01*
X74268167Y-71869449D01*
X74422498Y-72057502D01*
X74610551Y-72211833D01*
X74825099Y-72326511D01*
X75057898Y-72397130D01*
X75239335Y-72415000D01*
X76160665Y-72415000D01*
X76342102Y-72397130D01*
X76574901Y-72326511D01*
X76789449Y-72211833D01*
X76977502Y-72057502D01*
X77131833Y-71869449D01*
X77246511Y-71654901D01*
X77317130Y-71422102D01*
X77340975Y-71180000D01*
X77317130Y-70937898D01*
X77246511Y-70705099D01*
X77131833Y-70490551D01*
X76977502Y-70302498D01*
X76789449Y-70148167D01*
X76574901Y-70033489D01*
X76342102Y-69962870D01*
X76160665Y-69945000D01*
X75239335Y-69945000D01*
X75057898Y-69962870D01*
X74825099Y-70033489D01*
X74610551Y-70148167D01*
X74422498Y-70302498D01*
X74268167Y-70490551D01*
X74153489Y-70705099D01*
X74082870Y-70937898D01*
X74059025Y-71180000D01*
X53914802Y-71180000D01*
X58361008Y-66733795D01*
X58390001Y-66710001D01*
X58413795Y-66681008D01*
X58413799Y-66681004D01*
X58484973Y-66594277D01*
X58522390Y-66524276D01*
X58555546Y-66462247D01*
X58599003Y-66318986D01*
X58610000Y-66207333D01*
X58610000Y-66207324D01*
X58613676Y-66170001D01*
X58610000Y-66132678D01*
X58610000Y-63611578D01*
X62843480Y-67845059D01*
X62871193Y-67878827D01*
X62904961Y-67906540D01*
X62904963Y-67906542D01*
X63005950Y-67989420D01*
X63005951Y-67989421D01*
X63159697Y-68071599D01*
X63326520Y-68122205D01*
X63456533Y-68135010D01*
X63456541Y-68135010D01*
X63500010Y-68139291D01*
X63543479Y-68135010D01*
X74169572Y-68135010D01*
X74153489Y-68165099D01*
X74082870Y-68397898D01*
X74059025Y-68640000D01*
X74082870Y-68882102D01*
X74153489Y-69114901D01*
X74268167Y-69329449D01*
X74422498Y-69517502D01*
X74610551Y-69671833D01*
X74825099Y-69786511D01*
X75057898Y-69857130D01*
X75239335Y-69875000D01*
X76160665Y-69875000D01*
X76342102Y-69857130D01*
X76574901Y-69786511D01*
X76789449Y-69671833D01*
X76977502Y-69517502D01*
X77131833Y-69329449D01*
X77246511Y-69114901D01*
X77317130Y-68882102D01*
X77340975Y-68640000D01*
X77317130Y-68397898D01*
X77246511Y-68165099D01*
X77131833Y-67950551D01*
X77126174Y-67943655D01*
X77205166Y-67878827D01*
X77232883Y-67845054D01*
X83870061Y-61207877D01*
X83903827Y-61180166D01*
X84014421Y-61045408D01*
X84096599Y-60891662D01*
X84147205Y-60724839D01*
X84160010Y-60594826D01*
X84160010Y-60594816D01*
X84164291Y-60551350D01*
X84160010Y-60507884D01*
X84160010Y-42518479D01*
X84164291Y-42475010D01*
X84160010Y-42431541D01*
X84160010Y-42431533D01*
X84147205Y-42301520D01*
X84096599Y-42134697D01*
X84014421Y-41980951D01*
X83931542Y-41879963D01*
X83931540Y-41879961D01*
X83903827Y-41846193D01*
X83870059Y-41818480D01*
X83363072Y-41311493D01*
X83363072Y-40350000D01*
X83346008Y-40176746D01*
X83295472Y-40010150D01*
X83213405Y-39856614D01*
X83102962Y-39722038D01*
X82968386Y-39611595D01*
X82814850Y-39529528D01*
X82648254Y-39478992D01*
X82475000Y-39461928D01*
X81025000Y-39461928D01*
X80851746Y-39478992D01*
X80685150Y-39529528D01*
X80531614Y-39611595D01*
X80397038Y-39722038D01*
X80286595Y-39856614D01*
X80204528Y-40010150D01*
X80153992Y-40176746D01*
X80136928Y-40350000D01*
X80136928Y-41550000D01*
X80153992Y-41723254D01*
X80204528Y-41889850D01*
X80286595Y-42043386D01*
X80397038Y-42177962D01*
X80531614Y-42288405D01*
X80636961Y-42344714D01*
X80615571Y-42360951D01*
X80422504Y-42578807D01*
X80275648Y-42830142D01*
X80183524Y-43093110D01*
X80304845Y-43323000D01*
X81623000Y-43323000D01*
X81623000Y-43303000D01*
X81877000Y-43303000D01*
X81877000Y-43323000D01*
X81897000Y-43323000D01*
X81897000Y-43577000D01*
X81877000Y-43577000D01*
X81877000Y-43597000D01*
X81623000Y-43597000D01*
X81623000Y-43577000D01*
X80304845Y-43577000D01*
X80183524Y-43806890D01*
X80275648Y-44069858D01*
X80422504Y-44321193D01*
X80615571Y-44539049D01*
X80821722Y-44695538D01*
X80795986Y-44709294D01*
X80569866Y-44894866D01*
X80384294Y-45120986D01*
X80246401Y-45378966D01*
X80161487Y-45658889D01*
X80132815Y-45950000D01*
X80161487Y-46241111D01*
X80246401Y-46521034D01*
X80384294Y-46779014D01*
X80569866Y-47005134D01*
X80795986Y-47190706D01*
X81053966Y-47328599D01*
X81333889Y-47413513D01*
X81552050Y-47435000D01*
X81947950Y-47435000D01*
X82166111Y-47413513D01*
X82390011Y-47345594D01*
X82390010Y-60184770D01*
X77143118Y-65431663D01*
X77131833Y-65410551D01*
X76977502Y-65222498D01*
X76789449Y-65068167D01*
X76574901Y-64953489D01*
X76342102Y-64882870D01*
X76160665Y-64865000D01*
X75539802Y-64865000D01*
X75469802Y-64795000D01*
X76160665Y-64795000D01*
X76342102Y-64777130D01*
X76574901Y-64706511D01*
X76789449Y-64591833D01*
X76977502Y-64437502D01*
X77131833Y-64249449D01*
X77246511Y-64034901D01*
X77317130Y-63802102D01*
X77340975Y-63560000D01*
X77317130Y-63317898D01*
X77246511Y-63085099D01*
X77131833Y-62870551D01*
X76977502Y-62682498D01*
X76789449Y-62528167D01*
X76574901Y-62413489D01*
X76342102Y-62342870D01*
X76160665Y-62325000D01*
X75539803Y-62325000D01*
X75469803Y-62255000D01*
X76160665Y-62255000D01*
X76342102Y-62237130D01*
X76574901Y-62166511D01*
X76789449Y-62051833D01*
X76977502Y-61897502D01*
X77131833Y-61709449D01*
X77246511Y-61494901D01*
X77317130Y-61262102D01*
X77340975Y-61020000D01*
X77317130Y-60777898D01*
X77246511Y-60545099D01*
X77131833Y-60330551D01*
X76977502Y-60142498D01*
X76789449Y-59988167D01*
X76574901Y-59873489D01*
X76342102Y-59802870D01*
X76160665Y-59785000D01*
X75539802Y-59785000D01*
X75469802Y-59715000D01*
X76160665Y-59715000D01*
X76342102Y-59697130D01*
X76574901Y-59626511D01*
X76789449Y-59511833D01*
X76977502Y-59357502D01*
X77131833Y-59169449D01*
X77246511Y-58954901D01*
X77317130Y-58722102D01*
X77340975Y-58480000D01*
X77317130Y-58237898D01*
X77246511Y-58005099D01*
X77131833Y-57790551D01*
X76977502Y-57602498D01*
X76789449Y-57448167D01*
X76574901Y-57333489D01*
X76342102Y-57262870D01*
X76160665Y-57245000D01*
X75239335Y-57245000D01*
X75057898Y-57262870D01*
X74825099Y-57333489D01*
X74610551Y-57448167D01*
X74422498Y-57602498D01*
X74268167Y-57790551D01*
X74153489Y-58005099D01*
X74082870Y-58237898D01*
X74074785Y-58319984D01*
X71694801Y-55940000D01*
X74059025Y-55940000D01*
X74082870Y-56182102D01*
X74153489Y-56414901D01*
X74268167Y-56629449D01*
X74422498Y-56817502D01*
X74610551Y-56971833D01*
X74825099Y-57086511D01*
X75057898Y-57157130D01*
X75239335Y-57175000D01*
X76160665Y-57175000D01*
X76342102Y-57157130D01*
X76574901Y-57086511D01*
X76789449Y-56971833D01*
X76977502Y-56817502D01*
X77131833Y-56629449D01*
X77246511Y-56414901D01*
X77317130Y-56182102D01*
X77340975Y-55940000D01*
X77317130Y-55697898D01*
X77246511Y-55465099D01*
X77131833Y-55250551D01*
X76977502Y-55062498D01*
X76789449Y-54908167D01*
X76574901Y-54793489D01*
X76342102Y-54722870D01*
X76160665Y-54705000D01*
X75239335Y-54705000D01*
X75057898Y-54722870D01*
X74825099Y-54793489D01*
X74610551Y-54908167D01*
X74422498Y-55062498D01*
X74268167Y-55250551D01*
X74153489Y-55465099D01*
X74082870Y-55697898D01*
X74059025Y-55940000D01*
X71694801Y-55940000D01*
X70275224Y-54520423D01*
X70401898Y-54495226D01*
X70590256Y-54417205D01*
X70759774Y-54303937D01*
X70903937Y-54159774D01*
X71017205Y-53990256D01*
X71095226Y-53801898D01*
X71135000Y-53601939D01*
X71135000Y-53400000D01*
X74059025Y-53400000D01*
X74082870Y-53642102D01*
X74153489Y-53874901D01*
X74268167Y-54089449D01*
X74422498Y-54277502D01*
X74610551Y-54431833D01*
X74825099Y-54546511D01*
X75057898Y-54617130D01*
X75239335Y-54635000D01*
X76160665Y-54635000D01*
X76342102Y-54617130D01*
X76574901Y-54546511D01*
X76789449Y-54431833D01*
X76977502Y-54277502D01*
X77131833Y-54089449D01*
X77246511Y-53874901D01*
X77317130Y-53642102D01*
X77340975Y-53400000D01*
X77317130Y-53157898D01*
X77246511Y-52925099D01*
X77131833Y-52710551D01*
X76977502Y-52522498D01*
X76789449Y-52368167D01*
X76574901Y-52253489D01*
X76342102Y-52182870D01*
X76160665Y-52165000D01*
X75239335Y-52165000D01*
X75057898Y-52182870D01*
X74825099Y-52253489D01*
X74610551Y-52368167D01*
X74422498Y-52522498D01*
X74268167Y-52710551D01*
X74153489Y-52925099D01*
X74082870Y-53157898D01*
X74059025Y-53400000D01*
X71135000Y-53400000D01*
X71135000Y-53398061D01*
X71095226Y-53198102D01*
X71017205Y-53009744D01*
X70903937Y-52840226D01*
X70860000Y-52796289D01*
X70860000Y-50860000D01*
X74059025Y-50860000D01*
X74082870Y-51102102D01*
X74153489Y-51334901D01*
X74268167Y-51549449D01*
X74422498Y-51737502D01*
X74610551Y-51891833D01*
X74825099Y-52006511D01*
X75057898Y-52077130D01*
X75239335Y-52095000D01*
X76160665Y-52095000D01*
X76342102Y-52077130D01*
X76574901Y-52006511D01*
X76789449Y-51891833D01*
X76977502Y-51737502D01*
X77131833Y-51549449D01*
X77246511Y-51334901D01*
X77317130Y-51102102D01*
X77340975Y-50860000D01*
X77317130Y-50617898D01*
X77246511Y-50385099D01*
X77131833Y-50170551D01*
X76977502Y-49982498D01*
X76789449Y-49828167D01*
X76574901Y-49713489D01*
X76342102Y-49642870D01*
X76160665Y-49625000D01*
X75239335Y-49625000D01*
X75057898Y-49642870D01*
X74825099Y-49713489D01*
X74610551Y-49828167D01*
X74422498Y-49982498D01*
X74268167Y-50170551D01*
X74153489Y-50385099D01*
X74082870Y-50617898D01*
X74059025Y-50860000D01*
X70860000Y-50860000D01*
X70860000Y-44560001D01*
X70888998Y-44583799D01*
X74152746Y-47847548D01*
X74082870Y-48077898D01*
X74059025Y-48320000D01*
X74082870Y-48562102D01*
X74153489Y-48794901D01*
X74268167Y-49009449D01*
X74422498Y-49197502D01*
X74610551Y-49351833D01*
X74825099Y-49466511D01*
X75057898Y-49537130D01*
X75239335Y-49555000D01*
X76160665Y-49555000D01*
X76342102Y-49537130D01*
X76574901Y-49466511D01*
X76789449Y-49351833D01*
X76977502Y-49197502D01*
X77131833Y-49009449D01*
X77246511Y-48794901D01*
X77317130Y-48562102D01*
X77340975Y-48320000D01*
X77317130Y-48077898D01*
X77246511Y-47845099D01*
X77131833Y-47630551D01*
X76977502Y-47442498D01*
X76789449Y-47288167D01*
X76574901Y-47173489D01*
X76342102Y-47102870D01*
X76160665Y-47085000D01*
X75539802Y-47085000D01*
X75469802Y-47015000D01*
X76160665Y-47015000D01*
X76342102Y-46997130D01*
X76574901Y-46926511D01*
X76789449Y-46811833D01*
X76977502Y-46657502D01*
X77131833Y-46469449D01*
X77246511Y-46254901D01*
X77317130Y-46022102D01*
X77340975Y-45780000D01*
X77317130Y-45537898D01*
X77246511Y-45305099D01*
X77131833Y-45090551D01*
X76977502Y-44902498D01*
X76789449Y-44748167D01*
X76574901Y-44633489D01*
X76342102Y-44562870D01*
X76160665Y-44545000D01*
X75239335Y-44545000D01*
X75057898Y-44562870D01*
X74825099Y-44633489D01*
X74610551Y-44748167D01*
X74422498Y-44902498D01*
X74268167Y-45090551D01*
X74153489Y-45305099D01*
X74082870Y-45537898D01*
X74074785Y-45619984D01*
X72160000Y-43705199D01*
X72160000Y-43557609D01*
X74106538Y-43557609D01*
X74110409Y-43595282D01*
X74202579Y-43820533D01*
X74336922Y-44023474D01*
X74508275Y-44196307D01*
X74710054Y-44332390D01*
X74934504Y-44426493D01*
X75173000Y-44475000D01*
X75573000Y-44475000D01*
X75573000Y-43367000D01*
X75827000Y-43367000D01*
X75827000Y-44475000D01*
X76227000Y-44475000D01*
X76465496Y-44426493D01*
X76689946Y-44332390D01*
X76891725Y-44196307D01*
X77063078Y-44023474D01*
X77197421Y-43820533D01*
X77289591Y-43595282D01*
X77293462Y-43557609D01*
X77168731Y-43367000D01*
X75827000Y-43367000D01*
X75573000Y-43367000D01*
X74231269Y-43367000D01*
X74106538Y-43557609D01*
X72160000Y-43557609D01*
X72160000Y-42922391D01*
X74106538Y-42922391D01*
X74231269Y-43113000D01*
X75573000Y-43113000D01*
X75573000Y-42005000D01*
X75827000Y-42005000D01*
X75827000Y-43113000D01*
X77168731Y-43113000D01*
X77293462Y-42922391D01*
X77289591Y-42884718D01*
X77197421Y-42659467D01*
X77063078Y-42456526D01*
X76891725Y-42283693D01*
X76689946Y-42147610D01*
X76465496Y-42053507D01*
X76227000Y-42005000D01*
X75827000Y-42005000D01*
X75573000Y-42005000D01*
X75173000Y-42005000D01*
X74934504Y-42053507D01*
X74710054Y-42147610D01*
X74508275Y-42283693D01*
X74336922Y-42456526D01*
X74202579Y-42659467D01*
X74110409Y-42884718D01*
X74106538Y-42922391D01*
X72160000Y-42922391D01*
X72160000Y-40700000D01*
X74059025Y-40700000D01*
X74082870Y-40942102D01*
X74153489Y-41174901D01*
X74268167Y-41389449D01*
X74422498Y-41577502D01*
X74610551Y-41731833D01*
X74825099Y-41846511D01*
X75057898Y-41917130D01*
X75239335Y-41935000D01*
X76160665Y-41935000D01*
X76342102Y-41917130D01*
X76574901Y-41846511D01*
X76789449Y-41731833D01*
X76977502Y-41577502D01*
X77131833Y-41389449D01*
X77246511Y-41174901D01*
X77317130Y-40942102D01*
X77340975Y-40700000D01*
X77317130Y-40457898D01*
X77246511Y-40225099D01*
X77131833Y-40010551D01*
X76977502Y-39822498D01*
X76789449Y-39668167D01*
X76574901Y-39553489D01*
X76342102Y-39482870D01*
X76160665Y-39465000D01*
X75239335Y-39465000D01*
X75057898Y-39482870D01*
X74825099Y-39553489D01*
X74610551Y-39668167D01*
X74422498Y-39822498D01*
X74268167Y-40010551D01*
X74153489Y-40225099D01*
X74082870Y-40457898D01*
X74059025Y-40700000D01*
X72160000Y-40700000D01*
X72160000Y-38160000D01*
X74059025Y-38160000D01*
X74082870Y-38402102D01*
X74153489Y-38634901D01*
X74268167Y-38849449D01*
X74422498Y-39037502D01*
X74610551Y-39191833D01*
X74825099Y-39306511D01*
X75057898Y-39377130D01*
X75239335Y-39395000D01*
X76160665Y-39395000D01*
X76342102Y-39377130D01*
X76574901Y-39306511D01*
X76789449Y-39191833D01*
X76977502Y-39037502D01*
X77131833Y-38849449D01*
X77246511Y-38634901D01*
X77317130Y-38402102D01*
X77340975Y-38160000D01*
X77317130Y-37917898D01*
X77246511Y-37685099D01*
X77131833Y-37470551D01*
X76977502Y-37282498D01*
X76789449Y-37128167D01*
X76574901Y-37013489D01*
X76342102Y-36942870D01*
X76160665Y-36925000D01*
X75239335Y-36925000D01*
X75057898Y-36942870D01*
X74825099Y-37013489D01*
X74610551Y-37128167D01*
X74422498Y-37282498D01*
X74268167Y-37470551D01*
X74153489Y-37685099D01*
X74082870Y-37917898D01*
X74059025Y-38160000D01*
X72160000Y-38160000D01*
X72160000Y-35620000D01*
X74059025Y-35620000D01*
X74082870Y-35862102D01*
X74153489Y-36094901D01*
X74268167Y-36309449D01*
X74422498Y-36497502D01*
X74610551Y-36651833D01*
X74825099Y-36766511D01*
X75057898Y-36837130D01*
X75239335Y-36855000D01*
X76160665Y-36855000D01*
X76342102Y-36837130D01*
X76574901Y-36766511D01*
X76789449Y-36651833D01*
X76977502Y-36497502D01*
X77131833Y-36309449D01*
X77246511Y-36094901D01*
X77317130Y-35862102D01*
X77340975Y-35620000D01*
X77317130Y-35377898D01*
X77246511Y-35145099D01*
X77131833Y-34930551D01*
X76977502Y-34742498D01*
X76789449Y-34588167D01*
X76574901Y-34473489D01*
X76342102Y-34402870D01*
X76160665Y-34385000D01*
X75239335Y-34385000D01*
X75057898Y-34402870D01*
X74825099Y-34473489D01*
X74610551Y-34588167D01*
X74422498Y-34742498D01*
X74268167Y-34930551D01*
X74153489Y-35145099D01*
X74082870Y-35377898D01*
X74059025Y-35620000D01*
X72160000Y-35620000D01*
X72160000Y-33397609D01*
X74106538Y-33397609D01*
X74110409Y-33435282D01*
X74202579Y-33660533D01*
X74336922Y-33863474D01*
X74508275Y-34036307D01*
X74710054Y-34172390D01*
X74934504Y-34266493D01*
X75173000Y-34315000D01*
X75573000Y-34315000D01*
X75573000Y-33207000D01*
X75827000Y-33207000D01*
X75827000Y-34315000D01*
X76227000Y-34315000D01*
X76465496Y-34266493D01*
X76689946Y-34172390D01*
X76891725Y-34036307D01*
X77063078Y-33863474D01*
X77197421Y-33660533D01*
X77289591Y-33435282D01*
X77292015Y-33411682D01*
X78015000Y-33411682D01*
X78015000Y-34088318D01*
X78147006Y-34751952D01*
X78405943Y-35377082D01*
X78781862Y-35939685D01*
X79260315Y-36418138D01*
X79822918Y-36794057D01*
X80448048Y-37052994D01*
X81111682Y-37185000D01*
X81788318Y-37185000D01*
X82451952Y-37052994D01*
X83077082Y-36794057D01*
X83639685Y-36418138D01*
X84118138Y-35939685D01*
X84494057Y-35377082D01*
X84752994Y-34751952D01*
X84885000Y-34088318D01*
X84885000Y-33411682D01*
X84752994Y-32748048D01*
X84494057Y-32122918D01*
X84118138Y-31560315D01*
X83639685Y-31081862D01*
X83077082Y-30705943D01*
X82451952Y-30447006D01*
X81788318Y-30315000D01*
X81111682Y-30315000D01*
X80448048Y-30447006D01*
X79822918Y-30705943D01*
X79260315Y-31081862D01*
X78781862Y-31560315D01*
X78405943Y-32122918D01*
X78147006Y-32748048D01*
X78015000Y-33411682D01*
X77292015Y-33411682D01*
X77293462Y-33397609D01*
X77168731Y-33207000D01*
X75827000Y-33207000D01*
X75573000Y-33207000D01*
X74231269Y-33207000D01*
X74106538Y-33397609D01*
X72160000Y-33397609D01*
X72160000Y-32762391D01*
X74106538Y-32762391D01*
X74231269Y-32953000D01*
X75573000Y-32953000D01*
X75573000Y-31845000D01*
X75827000Y-31845000D01*
X75827000Y-32953000D01*
X77168731Y-32953000D01*
X77293462Y-32762391D01*
X77289591Y-32724718D01*
X77197421Y-32499467D01*
X77063078Y-32296526D01*
X76891725Y-32123693D01*
X76689946Y-31987610D01*
X76465496Y-31893507D01*
X76227000Y-31845000D01*
X75827000Y-31845000D01*
X75573000Y-31845000D01*
X75173000Y-31845000D01*
X74934504Y-31893507D01*
X74710054Y-31987610D01*
X74508275Y-32123693D01*
X74336922Y-32296526D01*
X74202579Y-32499467D01*
X74110409Y-32724718D01*
X74106538Y-32762391D01*
X72160000Y-32762391D01*
X72160000Y-25852594D01*
X72229013Y-25815706D01*
X72455134Y-25630134D01*
X72640706Y-25404014D01*
X72650000Y-25386626D01*
X72659294Y-25404013D01*
X72844866Y-25630134D01*
X73070986Y-25815706D01*
X73328966Y-25953599D01*
X73608889Y-26038513D01*
X73900000Y-26067185D01*
X74191110Y-26038513D01*
X74471033Y-25953599D01*
X74729013Y-25815706D01*
X74949945Y-25634392D01*
X74960498Y-25669180D01*
X75019463Y-25779494D01*
X75098815Y-25876185D01*
X75195506Y-25955537D01*
X75305820Y-26014502D01*
X75425518Y-26050812D01*
X75550000Y-26063072D01*
X76114250Y-26060000D01*
X76273000Y-25901250D01*
X76273000Y-24577000D01*
X76253000Y-24577000D01*
X76253000Y-24323000D01*
X76273000Y-24323000D01*
X76273000Y-24303000D01*
X76527000Y-24303000D01*
X76527000Y-24323000D01*
X76547000Y-24323000D01*
X76547000Y-24577000D01*
X76527000Y-24577000D01*
X76527000Y-25901250D01*
X76685750Y-26060000D01*
X76915011Y-26061248D01*
X76915011Y-28073410D01*
X75683422Y-29305000D01*
X75239335Y-29305000D01*
X75057898Y-29322870D01*
X74825099Y-29393489D01*
X74610551Y-29508167D01*
X74422498Y-29662498D01*
X74268167Y-29850551D01*
X74153489Y-30065099D01*
X74082870Y-30297898D01*
X74059025Y-30540000D01*
X74082870Y-30782102D01*
X74153489Y-31014901D01*
X74268167Y-31229449D01*
X74422498Y-31417502D01*
X74610551Y-31571833D01*
X74825099Y-31686511D01*
X75057898Y-31757130D01*
X75239335Y-31775000D01*
X76160665Y-31775000D01*
X76342102Y-31757130D01*
X76574901Y-31686511D01*
X76789449Y-31571833D01*
X76977502Y-31417502D01*
X77131833Y-31229449D01*
X77246511Y-31014901D01*
X77317130Y-30782102D01*
X77340975Y-30540000D01*
X77317130Y-30297898D01*
X77288398Y-30203181D01*
X78395059Y-29096520D01*
X78428827Y-29068807D01*
X78539421Y-28934049D01*
X78621599Y-28780304D01*
X78672205Y-28613480D01*
X78685010Y-28483467D01*
X78685010Y-28483459D01*
X78689291Y-28439990D01*
X78685010Y-28396521D01*
X78685010Y-23437091D01*
X78689291Y-23393622D01*
X78685010Y-23350153D01*
X78685010Y-23350145D01*
X78672205Y-23220132D01*
X78621599Y-23053309D01*
X78539421Y-22899563D01*
X78428827Y-22764805D01*
X78395055Y-22737089D01*
X77987912Y-22329946D01*
X77960195Y-22296173D01*
X77825437Y-22185579D01*
X77671691Y-22103401D01*
X77504868Y-22052795D01*
X77374855Y-22039990D01*
X77374847Y-22039990D01*
X77331378Y-22035709D01*
X77287909Y-22039990D01*
X60468479Y-22039990D01*
X60425010Y-22035709D01*
X60381541Y-22039990D01*
X60381533Y-22039990D01*
X60251520Y-22052795D01*
X60084697Y-22103401D01*
X59984036Y-22157205D01*
X59930951Y-22185579D01*
X59829963Y-22268458D01*
X59829961Y-22268460D01*
X59796193Y-22296173D01*
X59768480Y-22329941D01*
X59226269Y-22872152D01*
X59191111Y-22861487D01*
X58900000Y-22832815D01*
X58608890Y-22861487D01*
X58328967Y-22946401D01*
X58070987Y-23084294D01*
X57844866Y-23269866D01*
X57659294Y-23495986D01*
X57650000Y-23513374D01*
X57640706Y-23495986D01*
X57455134Y-23269866D01*
X57229014Y-23084294D01*
X56971034Y-22946401D01*
X56691111Y-22861487D01*
X56400000Y-22832815D01*
X56108890Y-22861487D01*
X55828967Y-22946401D01*
X55570987Y-23084294D01*
X55344866Y-23269866D01*
X55159294Y-23495986D01*
X55021401Y-23753966D01*
X54936487Y-24033889D01*
X54915000Y-24252050D01*
X54915000Y-24647949D01*
X54936487Y-24866110D01*
X55021401Y-25146033D01*
X55055476Y-25209782D01*
X54940256Y-25132795D01*
X54751898Y-25054774D01*
X54551939Y-25015000D01*
X54489802Y-25015000D01*
X52163804Y-22689003D01*
X52140001Y-22659999D01*
X52024276Y-22565026D01*
X51892247Y-22494454D01*
X51748986Y-22450997D01*
X51637333Y-22440000D01*
X51637322Y-22440000D01*
X51600000Y-22436324D01*
X51562678Y-22440000D01*
X50803711Y-22440000D01*
X50759774Y-22396063D01*
X50590256Y-22282795D01*
X50401898Y-22204774D01*
X50201939Y-22165000D01*
X49998061Y-22165000D01*
X49798102Y-22204774D01*
X49609744Y-22282795D01*
X49440226Y-22396063D01*
X49296063Y-22540226D01*
X49182795Y-22709744D01*
X49104774Y-22898102D01*
X49065000Y-23098061D01*
X49065000Y-23301939D01*
X49104774Y-23501898D01*
X49182795Y-23690256D01*
X49296063Y-23859774D01*
X49440226Y-24003937D01*
X49609744Y-24117205D01*
X49798102Y-24195226D01*
X49998061Y-24235000D01*
X50201939Y-24235000D01*
X50401898Y-24195226D01*
X50590256Y-24117205D01*
X50759774Y-24003937D01*
X50803711Y-23960000D01*
X51285199Y-23960000D01*
X53415000Y-26089802D01*
X53415000Y-26151939D01*
X53427544Y-26215001D01*
X51757105Y-26215001D01*
X51713639Y-26210720D01*
X51670173Y-26215001D01*
X51670163Y-26215001D01*
X51540150Y-26227806D01*
X51373327Y-26278412D01*
X51219581Y-26360590D01*
X51219579Y-26360591D01*
X51219580Y-26360591D01*
X51118593Y-26443469D01*
X51118591Y-26443471D01*
X51084823Y-26471184D01*
X51057110Y-26504952D01*
X41047063Y-36515000D01*
X38688072Y-36515000D01*
X38688072Y-36400000D01*
X38675812Y-36275518D01*
X38639502Y-36155820D01*
X38580537Y-36045506D01*
X38501185Y-35948815D01*
X38404494Y-35869463D01*
X38294180Y-35810498D01*
X38174482Y-35774188D01*
X38050000Y-35761928D01*
X36050000Y-35761928D01*
X35925518Y-35774188D01*
X35805820Y-35810498D01*
X35695506Y-35869463D01*
X35598815Y-35948815D01*
X35519463Y-36045506D01*
X35460498Y-36155820D01*
X35424188Y-36275518D01*
X35411928Y-36400000D01*
X28257823Y-36400000D01*
X28718138Y-35939685D01*
X29094057Y-35377082D01*
X29352994Y-34751952D01*
X29485000Y-34088318D01*
X29485000Y-33411682D01*
X29352994Y-32748048D01*
X29094057Y-32122918D01*
X28718138Y-31560315D01*
X28239685Y-31081862D01*
X27677082Y-30705943D01*
X27051952Y-30447006D01*
X26388318Y-30315000D01*
X25711682Y-30315000D01*
X25048048Y-30447006D01*
X24422918Y-30705943D01*
X23860315Y-31081862D01*
X23381862Y-31560315D01*
X23005943Y-32122918D01*
X22747006Y-32748048D01*
X22615000Y-33411682D01*
X20660000Y-33411682D01*
X20660000Y-24302050D01*
X22765000Y-24302050D01*
X22765000Y-24697949D01*
X22786487Y-24916110D01*
X22871401Y-25196033D01*
X23009294Y-25454013D01*
X23194866Y-25680134D01*
X23420986Y-25865706D01*
X23678966Y-26003599D01*
X23958889Y-26088513D01*
X24250000Y-26117185D01*
X24541110Y-26088513D01*
X24821033Y-26003599D01*
X25079013Y-25865706D01*
X25305134Y-25680134D01*
X25490706Y-25454014D01*
X25500000Y-25436626D01*
X25509294Y-25454013D01*
X25694866Y-25680134D01*
X25920986Y-25865706D01*
X26178966Y-26003599D01*
X26458889Y-26088513D01*
X26750000Y-26117185D01*
X27041110Y-26088513D01*
X27076269Y-26077848D01*
X30243470Y-29245049D01*
X30271183Y-29278817D01*
X30304951Y-29306530D01*
X30304953Y-29306532D01*
X30324861Y-29322870D01*
X30405941Y-29389411D01*
X30559687Y-29471589D01*
X30726510Y-29522195D01*
X30856523Y-29535000D01*
X30856533Y-29535000D01*
X30899999Y-29539281D01*
X30943465Y-29535000D01*
X42511928Y-29535000D01*
X42511928Y-29650000D01*
X42524188Y-29774482D01*
X42560498Y-29894180D01*
X42619463Y-30004494D01*
X42698815Y-30101185D01*
X42795506Y-30180537D01*
X42905820Y-30239502D01*
X43025518Y-30275812D01*
X43150000Y-30288072D01*
X45150000Y-30288072D01*
X45274482Y-30275812D01*
X45394180Y-30239502D01*
X45504494Y-30180537D01*
X45601185Y-30101185D01*
X45680537Y-30004494D01*
X45739502Y-29894180D01*
X45775812Y-29774482D01*
X45788072Y-29650000D01*
X45788072Y-27650000D01*
X45775812Y-27525518D01*
X45739502Y-27405820D01*
X45680537Y-27295506D01*
X45601185Y-27198815D01*
X45504494Y-27119463D01*
X45394180Y-27060498D01*
X45274482Y-27024188D01*
X45150000Y-27011928D01*
X43150000Y-27011928D01*
X43025518Y-27024188D01*
X42905820Y-27060498D01*
X42795506Y-27119463D01*
X42698815Y-27198815D01*
X42619463Y-27295506D01*
X42560498Y-27405820D01*
X42524188Y-27525518D01*
X42511928Y-27650000D01*
X42511928Y-27765000D01*
X31266579Y-27765000D01*
X29524658Y-26023079D01*
X29606890Y-26066476D01*
X29869858Y-25974352D01*
X30121193Y-25827496D01*
X30339049Y-25634429D01*
X30355286Y-25613039D01*
X30411595Y-25718386D01*
X30522038Y-25852962D01*
X30656614Y-25963405D01*
X30810150Y-26045472D01*
X30976746Y-26096008D01*
X31150000Y-26113072D01*
X32350000Y-26113072D01*
X32523254Y-26096008D01*
X32689850Y-26045472D01*
X32843386Y-25963405D01*
X32977962Y-25852962D01*
X33088405Y-25718386D01*
X33170472Y-25564850D01*
X33221008Y-25398254D01*
X33238072Y-25225000D01*
X33238072Y-24785413D01*
X43194192Y-24785413D01*
X43289956Y-25049814D01*
X43579571Y-25190704D01*
X43891108Y-25272384D01*
X44212595Y-25291718D01*
X44531675Y-25247961D01*
X44836088Y-25142795D01*
X45010044Y-25049814D01*
X45105808Y-24785413D01*
X44150000Y-23829605D01*
X43194192Y-24785413D01*
X33238072Y-24785413D01*
X33238072Y-23775000D01*
X33231926Y-23712595D01*
X42508282Y-23712595D01*
X42552039Y-24031675D01*
X42657205Y-24336088D01*
X42750186Y-24510044D01*
X43014587Y-24605808D01*
X43970395Y-23650000D01*
X44329605Y-23650000D01*
X45285413Y-24605808D01*
X45549814Y-24510044D01*
X45690704Y-24220429D01*
X45772384Y-23908892D01*
X45791718Y-23587405D01*
X45747961Y-23268325D01*
X45642795Y-22963912D01*
X45549814Y-22789956D01*
X45285413Y-22694192D01*
X44329605Y-23650000D01*
X43970395Y-23650000D01*
X43014587Y-22694192D01*
X42750186Y-22789956D01*
X42609296Y-23079571D01*
X42527616Y-23391108D01*
X42508282Y-23712595D01*
X33231926Y-23712595D01*
X33221008Y-23601746D01*
X33170472Y-23435150D01*
X33088405Y-23281614D01*
X32977962Y-23147038D01*
X32843386Y-23036595D01*
X32689850Y-22954528D01*
X32523254Y-22903992D01*
X32350000Y-22886928D01*
X31150000Y-22886928D01*
X30976746Y-22903992D01*
X30810150Y-22954528D01*
X30656614Y-23036595D01*
X30522038Y-23147038D01*
X30411595Y-23281614D01*
X30355286Y-23386961D01*
X30339049Y-23365571D01*
X30121193Y-23172504D01*
X29869858Y-23025648D01*
X29606890Y-22933524D01*
X29377000Y-23054845D01*
X29377000Y-24373000D01*
X29397000Y-24373000D01*
X29397000Y-24627000D01*
X29377000Y-24627000D01*
X29377000Y-24647000D01*
X29123000Y-24647000D01*
X29123000Y-24627000D01*
X29103000Y-24627000D01*
X29103000Y-24373000D01*
X29123000Y-24373000D01*
X29123000Y-23054845D01*
X28893110Y-22933524D01*
X28630142Y-23025648D01*
X28378807Y-23172504D01*
X28160951Y-23365571D01*
X28004462Y-23571722D01*
X27990706Y-23545986D01*
X27805134Y-23319866D01*
X27579014Y-23134294D01*
X27321034Y-22996401D01*
X27041111Y-22911487D01*
X26750000Y-22882815D01*
X26458890Y-22911487D01*
X26178967Y-22996401D01*
X25920987Y-23134294D01*
X25694866Y-23319866D01*
X25509294Y-23545986D01*
X25500000Y-23563374D01*
X25490706Y-23545986D01*
X25305134Y-23319866D01*
X25079014Y-23134294D01*
X24821034Y-22996401D01*
X24541111Y-22911487D01*
X24250000Y-22882815D01*
X23958890Y-22911487D01*
X23678967Y-22996401D01*
X23420987Y-23134294D01*
X23194866Y-23319866D01*
X23009294Y-23545986D01*
X22871401Y-23803966D01*
X22786487Y-24083889D01*
X22765000Y-24302050D01*
X20660000Y-24302050D01*
X20660000Y-22514587D01*
X43194192Y-22514587D01*
X44150000Y-23470395D01*
X45105808Y-22514587D01*
X45010044Y-22250186D01*
X44720429Y-22109296D01*
X44408892Y-22027616D01*
X44087405Y-22008282D01*
X43768325Y-22052039D01*
X43463912Y-22157205D01*
X43289956Y-22250186D01*
X43194192Y-22514587D01*
X20660000Y-22514587D01*
X20660000Y-20660000D01*
X84940001Y-20660000D01*
X84940000Y-73535454D01*
G37*
%TD.AperFunction*%
%TD*%
M02*
