%TF.GenerationSoftware,KiCad,Pcbnew,(5.1.9)-1*%
%TF.CreationDate,2021-02-05T08:09:49+01:00*%
%TF.ProjectId,Spotwelderix-controlboard,53706f74-7765-46c6-9465-7269782d636f,v01*%
%TF.SameCoordinates,Original*%
%TF.FileFunction,Soldermask,Bot*%
%TF.FilePolarity,Negative*%
%FSLAX46Y46*%
G04 Gerber Fmt 4.6, Leading zero omitted, Abs format (unit mm)*
G04 Created by KiCad (PCBNEW (5.1.9)-1) date 2021-02-05 08:09:49*
%MOMM*%
%LPD*%
G01*
G04 APERTURE LIST*
%ADD10R,2.000000X2.000000*%
%ADD11C,2.000000*%
%ADD12R,2.500000X3.000000*%
%ADD13O,2.000000X1.200000*%
%ADD14O,1.950000X1.700000*%
%ADD15O,1.700000X1.950000*%
%ADD16C,5.600000*%
%ADD17C,3.600000*%
G04 APERTURE END LIST*
D10*
%TO.C,ENC1*%
X37950000Y-61600000D03*
D11*
X40450000Y-61600000D03*
X42950000Y-61600000D03*
D12*
X34850000Y-54100000D03*
X46050000Y-54100000D03*
D11*
X37950000Y-47100000D03*
X42950000Y-47100000D03*
%TD*%
D13*
%TO.C,U1*%
X75700000Y-30540000D03*
X50300000Y-30540000D03*
X75700000Y-33080000D03*
X50300000Y-33080000D03*
X75700000Y-35620000D03*
X50300000Y-35620000D03*
X75700000Y-38160000D03*
X50300000Y-38160000D03*
X75700000Y-40700000D03*
X50300000Y-40700000D03*
X75700000Y-43240000D03*
X50300000Y-43240000D03*
X75700000Y-45780000D03*
X50300000Y-45780000D03*
X75700000Y-48320000D03*
X50300000Y-48320000D03*
X75700000Y-50860000D03*
X50300000Y-50860000D03*
X75700000Y-53400000D03*
X50300000Y-53400000D03*
X75700000Y-55940000D03*
X50300000Y-55940000D03*
X75700000Y-58480000D03*
X50300000Y-58480000D03*
X75700000Y-61020000D03*
X50300000Y-61020000D03*
X75700000Y-63560000D03*
X50300000Y-63560000D03*
X75700000Y-66100000D03*
X50300000Y-66100000D03*
X75700000Y-68640000D03*
X50300000Y-68640000D03*
X75700000Y-71180000D03*
X50300000Y-71180000D03*
X75700000Y-73720000D03*
X50300000Y-73720000D03*
X75700000Y-76260000D03*
X50300000Y-76260000D03*
%TD*%
D14*
%TO.C,P1*%
X29600000Y-59700000D03*
X29600000Y-57200000D03*
X29600000Y-54700000D03*
X29600000Y-52200000D03*
X29600000Y-49700000D03*
X29600000Y-47200000D03*
X29600000Y-44700000D03*
G36*
G01*
X28875000Y-41350000D02*
X30325000Y-41350000D01*
G75*
G02*
X30575000Y-41600000I0J-250000D01*
G01*
X30575000Y-42800000D01*
G75*
G02*
X30325000Y-43050000I-250000J0D01*
G01*
X28875000Y-43050000D01*
G75*
G02*
X28625000Y-42800000I0J250000D01*
G01*
X28625000Y-41600000D01*
G75*
G02*
X28875000Y-41350000I250000J0D01*
G01*
G37*
%TD*%
D15*
%TO.C,P2*%
X56400000Y-24450000D03*
X58900000Y-24450000D03*
X61400000Y-24450000D03*
X63900000Y-24450000D03*
X66400000Y-24450000D03*
X68900000Y-24450000D03*
X71400000Y-24450000D03*
X73900000Y-24450000D03*
G36*
G01*
X77250000Y-23725000D02*
X77250000Y-25175000D01*
G75*
G02*
X77000000Y-25425000I-250000J0D01*
G01*
X75800000Y-25425000D01*
G75*
G02*
X75550000Y-25175000I0J250000D01*
G01*
X75550000Y-23725000D01*
G75*
G02*
X75800000Y-23475000I250000J0D01*
G01*
X77000000Y-23475000D01*
G75*
G02*
X77250000Y-23725000I0J-250000D01*
G01*
G37*
%TD*%
%TO.C,J3*%
X24250000Y-24500000D03*
X26750000Y-24500000D03*
X29250000Y-24500000D03*
G36*
G01*
X32600000Y-23775000D02*
X32600000Y-25225000D01*
G75*
G02*
X32350000Y-25475000I-250000J0D01*
G01*
X31150000Y-25475000D01*
G75*
G02*
X30900000Y-25225000I0J250000D01*
G01*
X30900000Y-23775000D01*
G75*
G02*
X31150000Y-23525000I250000J0D01*
G01*
X32350000Y-23525000D01*
G75*
G02*
X32600000Y-23775000I0J-250000D01*
G01*
G37*
%TD*%
%TO.C,J1*%
X44750000Y-68350000D03*
X42250000Y-68350000D03*
X39750000Y-68350000D03*
X37250000Y-68350000D03*
G36*
G01*
X33900000Y-69075000D02*
X33900000Y-67625000D01*
G75*
G02*
X34150000Y-67375000I250000J0D01*
G01*
X35350000Y-67375000D01*
G75*
G02*
X35600000Y-67625000I0J-250000D01*
G01*
X35600000Y-69075000D01*
G75*
G02*
X35350000Y-69325000I-250000J0D01*
G01*
X34150000Y-69325000D01*
G75*
G02*
X33900000Y-69075000I0J250000D01*
G01*
G37*
%TD*%
D14*
%TO.C,J2*%
X81750000Y-45950000D03*
X81750000Y-43450000D03*
G36*
G01*
X81025000Y-40100000D02*
X82475000Y-40100000D01*
G75*
G02*
X82725000Y-40350000I0J-250000D01*
G01*
X82725000Y-41550000D01*
G75*
G02*
X82475000Y-41800000I-250000J0D01*
G01*
X81025000Y-41800000D01*
G75*
G02*
X80775000Y-41550000I0J250000D01*
G01*
X80775000Y-40350000D01*
G75*
G02*
X81025000Y-40100000I250000J0D01*
G01*
G37*
%TD*%
D11*
%TO.C,BZ1*%
X44650000Y-37400000D03*
D10*
X37050000Y-37400000D03*
%TD*%
D11*
%TO.C,C4*%
X44150000Y-23650000D03*
D10*
X44150000Y-28650000D03*
%TD*%
D16*
%TO.C,H3*%
X81550000Y-74100000D03*
D17*
X81550000Y-74100000D03*
%TD*%
D16*
%TO.C,H1*%
X26200000Y-71600000D03*
D17*
X26200000Y-71600000D03*
%TD*%
D16*
%TO.C,H4*%
X26050000Y-33750000D03*
D17*
X26050000Y-33750000D03*
%TD*%
D16*
%TO.C,H2*%
X81450000Y-33750000D03*
D17*
X81450000Y-33750000D03*
%TD*%
M02*
