%TF.GenerationSoftware,KiCad,Pcbnew,(5.1.9)-1*%
%TF.CreationDate,2021-02-05T08:09:48+01:00*%
%TF.ProjectId,Spotwelderix-controlboard,53706f74-7765-46c6-9465-7269782d636f,v01*%
%TF.SameCoordinates,Original*%
%TF.FileFunction,Copper,L1,Top*%
%TF.FilePolarity,Positive*%
%FSLAX46Y46*%
G04 Gerber Fmt 4.6, Leading zero omitted, Abs format (unit mm)*
G04 Created by KiCad (PCBNEW (5.1.9)-1) date 2021-02-05 08:09:48*
%MOMM*%
%LPD*%
G01*
G04 APERTURE LIST*
%TA.AperFunction,ComponentPad*%
%ADD10R,2.000000X2.000000*%
%TD*%
%TA.AperFunction,ComponentPad*%
%ADD11C,2.000000*%
%TD*%
%TA.AperFunction,ComponentPad*%
%ADD12R,2.500000X3.000000*%
%TD*%
%TA.AperFunction,ComponentPad*%
%ADD13O,2.000000X1.200000*%
%TD*%
%TA.AperFunction,ComponentPad*%
%ADD14O,1.950000X1.700000*%
%TD*%
%TA.AperFunction,SMDPad,CuDef*%
%ADD15R,0.900000X0.800000*%
%TD*%
%TA.AperFunction,ComponentPad*%
%ADD16O,1.700000X1.950000*%
%TD*%
%TA.AperFunction,SMDPad,CuDef*%
%ADD17R,2.500000X1.800000*%
%TD*%
%TA.AperFunction,ConnectorPad*%
%ADD18C,5.600000*%
%TD*%
%TA.AperFunction,ComponentPad*%
%ADD19C,3.600000*%
%TD*%
%TA.AperFunction,SMDPad,CuDef*%
%ADD20R,10.800000X9.400000*%
%TD*%
%TA.AperFunction,SMDPad,CuDef*%
%ADD21R,1.100000X4.600000*%
%TD*%
%TA.AperFunction,ViaPad*%
%ADD22C,0.800000*%
%TD*%
%TA.AperFunction,Conductor*%
%ADD23C,0.250000*%
%TD*%
%TA.AperFunction,Conductor*%
%ADD24C,0.500000*%
%TD*%
%TA.AperFunction,Conductor*%
%ADD25C,0.254000*%
%TD*%
%TA.AperFunction,Conductor*%
%ADD26C,0.100000*%
%TD*%
G04 APERTURE END LIST*
D10*
%TO.P,ENC1,A*%
%TO.N,Net-(ENC1-PadA)*%
X37950000Y-61600000D03*
D11*
%TO.P,ENC1,C*%
%TO.N,GND*%
X40450000Y-61600000D03*
%TO.P,ENC1,B*%
%TO.N,Net-(ENC1-PadB)*%
X42950000Y-61600000D03*
D12*
%TO.P,ENC1,MP*%
%TO.N,N/C*%
X34850000Y-54100000D03*
X46050000Y-54100000D03*
D11*
%TO.P,ENC1,S1*%
%TO.N,GND*%
X37950000Y-47100000D03*
%TO.P,ENC1,S2*%
%TO.N,Net-(ENC1-PadS2)*%
X42950000Y-47100000D03*
%TD*%
D13*
%TO.P,U1,19*%
%TO.N,+5V*%
X75700000Y-30540000D03*
%TO.P,U1,20*%
%TO.N,Net-(U1-Pad20)*%
X50300000Y-30540000D03*
%TO.P,U1,18*%
%TO.N,GND*%
X75700000Y-33080000D03*
%TO.P,U1,21*%
%TO.N,Net-(U1-Pad21)*%
X50300000Y-33080000D03*
%TO.P,U1,17*%
%TO.N,Net-(U1-Pad17)*%
X75700000Y-35620000D03*
%TO.P,U1,22*%
%TO.N,Net-(U1-Pad22)*%
X50300000Y-35620000D03*
%TO.P,U1,16*%
%TO.N,Net-(U1-Pad16)*%
X75700000Y-38160000D03*
%TO.P,U1,23*%
%TO.N,Net-(U1-Pad23)*%
X50300000Y-38160000D03*
%TO.P,U1,15*%
%TO.N,Dallas*%
X75700000Y-40700000D03*
%TO.P,U1,24*%
%TO.N,ChargerEna*%
X50300000Y-40700000D03*
%TO.P,U1,14*%
%TO.N,GND*%
X75700000Y-43240000D03*
%TO.P,U1,25*%
%TO.N,Net-(U1-Pad25)*%
X50300000Y-43240000D03*
%TO.P,U1,13*%
%TO.N,LED*%
X75700000Y-45780000D03*
%TO.P,U1,26*%
%TO.N,FootSwitch*%
X50300000Y-45780000D03*
%TO.P,U1,12*%
%TO.N,Gate_logic*%
X75700000Y-48320000D03*
%TO.P,U1,27*%
%TO.N,Net-(P1-Pad3)*%
X50300000Y-48320000D03*
%TO.P,U1,11*%
%TO.N,FAN*%
X75700000Y-50860000D03*
%TO.P,U1,28*%
%TO.N,Net-(P1-Pad4)*%
X50300000Y-50860000D03*
%TO.P,U1,10*%
%TO.N,BUZZ*%
X75700000Y-53400000D03*
%TO.P,U1,29*%
%TO.N,Net-(P1-Pad5)*%
X50300000Y-53400000D03*
%TO.P,U1,9*%
%TO.N,ExtPWRADC*%
X75700000Y-55940000D03*
%TO.P,U1,30*%
%TO.N,Net-(P1-Pad6)*%
X50300000Y-55940000D03*
%TO.P,U1,8*%
%TO.N,Shuntvoltage*%
X75700000Y-58480000D03*
%TO.P,U1,31*%
%TO.N,Net-(P1-Pad7)*%
X50300000Y-58480000D03*
%TO.P,U1,7*%
%TO.N,VCC_ADC*%
X75700000Y-61020000D03*
%TO.P,U1,32*%
%TO.N,Net-(U1-Pad32)*%
X50300000Y-61020000D03*
%TO.P,U1,6*%
%TO.N,ProbeADC*%
X75700000Y-63560000D03*
%TO.P,U1,33*%
%TO.N,Net-(P1-Pad8)*%
X50300000Y-63560000D03*
%TO.P,U1,5*%
%TO.N,Vbat_ADC*%
X75700000Y-66100000D03*
%TO.P,U1,34*%
%TO.N,Net-(U1-Pad34)*%
X50300000Y-66100000D03*
%TO.P,U1,4*%
%TO.N,UI_RotEnc_A*%
X75700000Y-68640000D03*
%TO.P,U1,35*%
%TO.N,Net-(U1-Pad35)*%
X50300000Y-68640000D03*
%TO.P,U1,3*%
%TO.N,UI_RotEnc_B*%
X75700000Y-71180000D03*
%TO.P,U1,36*%
%TO.N,EnableSupply*%
X50300000Y-71180000D03*
%TO.P,U1,2*%
%TO.N,Net-(U1-Pad2)*%
X75700000Y-73720000D03*
%TO.P,U1,37*%
%TO.N,UI_RotEnc_Push*%
X50300000Y-73720000D03*
%TO.P,U1,1*%
%TO.N,+3V3*%
X75700000Y-76260000D03*
%TO.P,U1,38*%
%TO.N,GND*%
X50300000Y-76260000D03*
%TD*%
D14*
%TO.P,P1,8*%
%TO.N,Net-(P1-Pad8)*%
X29600000Y-59700000D03*
%TO.P,P1,7*%
%TO.N,Net-(P1-Pad7)*%
X29600000Y-57200000D03*
%TO.P,P1,6*%
%TO.N,Net-(P1-Pad6)*%
X29600000Y-54700000D03*
%TO.P,P1,5*%
%TO.N,Net-(P1-Pad5)*%
X29600000Y-52200000D03*
%TO.P,P1,4*%
%TO.N,Net-(P1-Pad4)*%
X29600000Y-49700000D03*
%TO.P,P1,3*%
%TO.N,Net-(P1-Pad3)*%
X29600000Y-47200000D03*
%TO.P,P1,2*%
%TO.N,GND*%
X29600000Y-44700000D03*
%TO.P,P1,1*%
%TO.N,+3V3*%
%TA.AperFunction,ComponentPad*%
G36*
G01*
X28875000Y-41350000D02*
X30325000Y-41350000D01*
G75*
G02*
X30575000Y-41600000I0J-250000D01*
G01*
X30575000Y-42800000D01*
G75*
G02*
X30325000Y-43050000I-250000J0D01*
G01*
X28875000Y-43050000D01*
G75*
G02*
X28625000Y-42800000I0J250000D01*
G01*
X28625000Y-41600000D01*
G75*
G02*
X28875000Y-41350000I250000J0D01*
G01*
G37*
%TD.AperFunction*%
%TD*%
%TO.P,R14,2*%
%TO.N,Net-(J1-Pad1)*%
%TA.AperFunction,SMDPad,CuDef*%
G36*
G01*
X30337500Y-66950001D02*
X30337500Y-66049999D01*
G75*
G02*
X30587499Y-65800000I249999J0D01*
G01*
X31112501Y-65800000D01*
G75*
G02*
X31362500Y-66049999I0J-249999D01*
G01*
X31362500Y-66950001D01*
G75*
G02*
X31112501Y-67200000I-249999J0D01*
G01*
X30587499Y-67200000D01*
G75*
G02*
X30337500Y-66950001I0J249999D01*
G01*
G37*
%TD.AperFunction*%
%TO.P,R14,1*%
%TO.N,FootSwitch*%
%TA.AperFunction,SMDPad,CuDef*%
G36*
G01*
X28512500Y-66950001D02*
X28512500Y-66049999D01*
G75*
G02*
X28762499Y-65800000I249999J0D01*
G01*
X29287501Y-65800000D01*
G75*
G02*
X29537500Y-66049999I0J-249999D01*
G01*
X29537500Y-66950001D01*
G75*
G02*
X29287501Y-67200000I-249999J0D01*
G01*
X28762499Y-67200000D01*
G75*
G02*
X28512500Y-66950001I0J249999D01*
G01*
G37*
%TD.AperFunction*%
%TD*%
%TO.P,R12,2*%
%TO.N,GND*%
%TA.AperFunction,SMDPad,CuDef*%
G36*
G01*
X79912500Y-56550001D02*
X79912500Y-55649999D01*
G75*
G02*
X80162499Y-55400000I249999J0D01*
G01*
X80687501Y-55400000D01*
G75*
G02*
X80937500Y-55649999I0J-249999D01*
G01*
X80937500Y-56550001D01*
G75*
G02*
X80687501Y-56800000I-249999J0D01*
G01*
X80162499Y-56800000D01*
G75*
G02*
X79912500Y-56550001I0J249999D01*
G01*
G37*
%TD.AperFunction*%
%TO.P,R12,1*%
%TO.N,ExtPWRADC*%
%TA.AperFunction,SMDPad,CuDef*%
G36*
G01*
X78087500Y-56550001D02*
X78087500Y-55649999D01*
G75*
G02*
X78337499Y-55400000I249999J0D01*
G01*
X78862501Y-55400000D01*
G75*
G02*
X79112500Y-55649999I0J-249999D01*
G01*
X79112500Y-56550001D01*
G75*
G02*
X78862501Y-56800000I-249999J0D01*
G01*
X78337499Y-56800000D01*
G75*
G02*
X78087500Y-56550001I0J249999D01*
G01*
G37*
%TD.AperFunction*%
%TD*%
%TO.P,R11,2*%
%TO.N,ExtPWRADC*%
%TA.AperFunction,SMDPad,CuDef*%
G36*
G01*
X46537500Y-64950001D02*
X46537500Y-64049999D01*
G75*
G02*
X46787499Y-63800000I249999J0D01*
G01*
X47312501Y-63800000D01*
G75*
G02*
X47562500Y-64049999I0J-249999D01*
G01*
X47562500Y-64950001D01*
G75*
G02*
X47312501Y-65200000I-249999J0D01*
G01*
X46787499Y-65200000D01*
G75*
G02*
X46537500Y-64950001I0J249999D01*
G01*
G37*
%TD.AperFunction*%
%TO.P,R11,1*%
%TO.N,ExtPower*%
%TA.AperFunction,SMDPad,CuDef*%
G36*
G01*
X44712500Y-64950001D02*
X44712500Y-64049999D01*
G75*
G02*
X44962499Y-63800000I249999J0D01*
G01*
X45487501Y-63800000D01*
G75*
G02*
X45737500Y-64049999I0J-249999D01*
G01*
X45737500Y-64950001D01*
G75*
G02*
X45487501Y-65200000I-249999J0D01*
G01*
X44962499Y-65200000D01*
G75*
G02*
X44712500Y-64950001I0J249999D01*
G01*
G37*
%TD.AperFunction*%
%TD*%
D15*
%TO.P,Q5,3*%
%TO.N,FAN_GND*%
X56100000Y-31900000D03*
%TO.P,Q5,2*%
%TO.N,GND*%
X54100000Y-32850000D03*
%TO.P,Q5,1*%
%TO.N,FAN*%
X54100000Y-30950000D03*
%TD*%
%TO.P,Q2,3*%
%TO.N,Net-(BZ1-Pad2)*%
X59950000Y-45350000D03*
%TO.P,Q2,2*%
%TO.N,GND*%
X61950000Y-44400000D03*
%TO.P,Q2,1*%
%TO.N,BUZZ*%
X61950000Y-46300000D03*
%TD*%
%TO.P,Q1,3*%
%TO.N,Net-(J1-Pad4)*%
X53800000Y-62450000D03*
%TO.P,Q1,2*%
%TO.N,GND*%
X55800000Y-61500000D03*
%TO.P,Q1,1*%
%TO.N,ChargerEna*%
X55800000Y-63400000D03*
%TD*%
D16*
%TO.P,P2,9*%
%TO.N,Shuntvoltage*%
X56400000Y-24450000D03*
%TO.P,P2,8*%
%TO.N,+5V*%
X58900000Y-24450000D03*
%TO.P,P2,7*%
%TO.N,EnableSupply*%
X61400000Y-24450000D03*
%TO.P,P2,6*%
%TO.N,Vbat_ADC*%
X63900000Y-24450000D03*
%TO.P,P2,5*%
%TO.N,Probe*%
X66400000Y-24450000D03*
%TO.P,P2,4*%
%TO.N,Dallas*%
X68900000Y-24450000D03*
%TO.P,P2,3*%
%TO.N,Gate_logic*%
X71400000Y-24450000D03*
%TO.P,P2,2*%
%TO.N,VCC*%
X73900000Y-24450000D03*
%TO.P,P2,1*%
%TO.N,GND*%
%TA.AperFunction,ComponentPad*%
G36*
G01*
X77250000Y-23725000D02*
X77250000Y-25175000D01*
G75*
G02*
X77000000Y-25425000I-250000J0D01*
G01*
X75800000Y-25425000D01*
G75*
G02*
X75550000Y-25175000I0J250000D01*
G01*
X75550000Y-23725000D01*
G75*
G02*
X75800000Y-23475000I250000J0D01*
G01*
X77000000Y-23475000D01*
G75*
G02*
X77250000Y-23725000I0J-250000D01*
G01*
G37*
%TD.AperFunction*%
%TD*%
%TO.P,J3,4*%
%TO.N,FAN_GND*%
X24250000Y-24500000D03*
%TO.P,J3,3*%
%TO.N,VCC*%
X26750000Y-24500000D03*
%TO.P,J3,2*%
%TO.N,GND*%
X29250000Y-24500000D03*
%TO.P,J3,1*%
%TO.N,ExtPower*%
%TA.AperFunction,ComponentPad*%
G36*
G01*
X32600000Y-23775000D02*
X32600000Y-25225000D01*
G75*
G02*
X32350000Y-25475000I-250000J0D01*
G01*
X31150000Y-25475000D01*
G75*
G02*
X30900000Y-25225000I0J250000D01*
G01*
X30900000Y-23775000D01*
G75*
G02*
X31150000Y-23525000I250000J0D01*
G01*
X32350000Y-23525000D01*
G75*
G02*
X32600000Y-23775000I0J-250000D01*
G01*
G37*
%TD.AperFunction*%
%TD*%
%TO.P,J1,5*%
%TO.N,Net-(J1-Pad5)*%
X44750000Y-68350000D03*
%TO.P,J1,4*%
%TO.N,Net-(J1-Pad4)*%
X42250000Y-68350000D03*
%TO.P,J1,3*%
%TO.N,ExtPower*%
X39750000Y-68350000D03*
%TO.P,J1,2*%
%TO.N,GND*%
X37250000Y-68350000D03*
%TO.P,J1,1*%
%TO.N,Net-(J1-Pad1)*%
%TA.AperFunction,ComponentPad*%
G36*
G01*
X33900000Y-69075000D02*
X33900000Y-67625000D01*
G75*
G02*
X34150000Y-67375000I250000J0D01*
G01*
X35350000Y-67375000D01*
G75*
G02*
X35600000Y-67625000I0J-250000D01*
G01*
X35600000Y-69075000D01*
G75*
G02*
X35350000Y-69325000I-250000J0D01*
G01*
X34150000Y-69325000D01*
G75*
G02*
X33900000Y-69075000I0J250000D01*
G01*
G37*
%TD.AperFunction*%
%TD*%
%TO.P,C7,2*%
%TO.N,GND*%
%TA.AperFunction,SMDPad,CuDef*%
G36*
G01*
X30400000Y-64675000D02*
X30400000Y-63725000D01*
G75*
G02*
X30650000Y-63475000I250000J0D01*
G01*
X31150000Y-63475000D01*
G75*
G02*
X31400000Y-63725000I0J-250000D01*
G01*
X31400000Y-64675000D01*
G75*
G02*
X31150000Y-64925000I-250000J0D01*
G01*
X30650000Y-64925000D01*
G75*
G02*
X30400000Y-64675000I0J250000D01*
G01*
G37*
%TD.AperFunction*%
%TO.P,C7,1*%
%TO.N,FootSwitch*%
%TA.AperFunction,SMDPad,CuDef*%
G36*
G01*
X28500000Y-64675000D02*
X28500000Y-63725000D01*
G75*
G02*
X28750000Y-63475000I250000J0D01*
G01*
X29250000Y-63475000D01*
G75*
G02*
X29500000Y-63725000I0J-250000D01*
G01*
X29500000Y-64675000D01*
G75*
G02*
X29250000Y-64925000I-250000J0D01*
G01*
X28750000Y-64925000D01*
G75*
G02*
X28500000Y-64675000I0J250000D01*
G01*
G37*
%TD.AperFunction*%
%TD*%
D14*
%TO.P,J2,3*%
%TO.N,LED*%
X81750000Y-45950000D03*
%TO.P,J2,2*%
%TO.N,GND*%
X81750000Y-43450000D03*
%TO.P,J2,1*%
%TO.N,+5V*%
%TA.AperFunction,ComponentPad*%
G36*
G01*
X81025000Y-40100000D02*
X82475000Y-40100000D01*
G75*
G02*
X82725000Y-40350000I0J-250000D01*
G01*
X82725000Y-41550000D01*
G75*
G02*
X82475000Y-41800000I-250000J0D01*
G01*
X81025000Y-41800000D01*
G75*
G02*
X80775000Y-41550000I0J250000D01*
G01*
X80775000Y-40350000D01*
G75*
G02*
X81025000Y-40100000I250000J0D01*
G01*
G37*
%TD.AperFunction*%
%TD*%
D17*
%TO.P,D3,2*%
%TO.N,ExtPower*%
X36400000Y-24650000D03*
%TO.P,D3,1*%
%TO.N,VCC*%
X40400000Y-24650000D03*
%TD*%
%TO.P,D2,2*%
%TO.N,FAN_GND*%
X47900000Y-24550000D03*
%TO.P,D2,1*%
%TO.N,VCC*%
X51900000Y-24550000D03*
%TD*%
D11*
%TO.P,BZ1,2*%
%TO.N,Net-(BZ1-Pad2)*%
X44650000Y-37400000D03*
D10*
%TO.P,BZ1,1*%
%TO.N,+5V*%
X37050000Y-37400000D03*
%TD*%
D11*
%TO.P,C4,2*%
%TO.N,GND*%
X44150000Y-23650000D03*
D10*
%TO.P,C4,1*%
%TO.N,VCC*%
X44150000Y-28650000D03*
%TD*%
%TO.P,R1,2*%
%TO.N,Net-(ENC1-PadS2)*%
%TA.AperFunction,SMDPad,CuDef*%
G36*
G01*
X55437500Y-49599999D02*
X55437500Y-50500001D01*
G75*
G02*
X55187501Y-50750000I-249999J0D01*
G01*
X54662499Y-50750000D01*
G75*
G02*
X54412500Y-50500001I0J249999D01*
G01*
X54412500Y-49599999D01*
G75*
G02*
X54662499Y-49350000I249999J0D01*
G01*
X55187501Y-49350000D01*
G75*
G02*
X55437500Y-49599999I0J-249999D01*
G01*
G37*
%TD.AperFunction*%
%TO.P,R1,1*%
%TO.N,UI_RotEnc_Push*%
%TA.AperFunction,SMDPad,CuDef*%
G36*
G01*
X57262500Y-49599999D02*
X57262500Y-50500001D01*
G75*
G02*
X57012501Y-50750000I-249999J0D01*
G01*
X56487499Y-50750000D01*
G75*
G02*
X56237500Y-50500001I0J249999D01*
G01*
X56237500Y-49599999D01*
G75*
G02*
X56487499Y-49350000I249999J0D01*
G01*
X57012501Y-49350000D01*
G75*
G02*
X57262500Y-49599999I0J-249999D01*
G01*
G37*
%TD.AperFunction*%
%TD*%
%TO.P,C5,2*%
%TO.N,GND*%
%TA.AperFunction,SMDPad,CuDef*%
G36*
G01*
X62525000Y-61600001D02*
X62525000Y-60299999D01*
G75*
G02*
X62774999Y-60050000I249999J0D01*
G01*
X63425001Y-60050000D01*
G75*
G02*
X63675000Y-60299999I0J-249999D01*
G01*
X63675000Y-61600001D01*
G75*
G02*
X63425001Y-61850000I-249999J0D01*
G01*
X62774999Y-61850000D01*
G75*
G02*
X62525000Y-61600001I0J249999D01*
G01*
G37*
%TD.AperFunction*%
%TO.P,C5,1*%
%TO.N,+5V*%
%TA.AperFunction,SMDPad,CuDef*%
G36*
G01*
X59575000Y-61600001D02*
X59575000Y-60299999D01*
G75*
G02*
X59824999Y-60050000I249999J0D01*
G01*
X60475001Y-60050000D01*
G75*
G02*
X60725000Y-60299999I0J-249999D01*
G01*
X60725000Y-61600001D01*
G75*
G02*
X60475001Y-61850000I-249999J0D01*
G01*
X59824999Y-61850000D01*
G75*
G02*
X59575000Y-61600001I0J249999D01*
G01*
G37*
%TD.AperFunction*%
%TD*%
%TO.P,R3,2*%
%TO.N,Net-(ENC1-PadB)*%
%TA.AperFunction,SMDPad,CuDef*%
G36*
G01*
X55350000Y-57599999D02*
X55350000Y-58500001D01*
G75*
G02*
X55100001Y-58750000I-249999J0D01*
G01*
X54574999Y-58750000D01*
G75*
G02*
X54325000Y-58500001I0J249999D01*
G01*
X54325000Y-57599999D01*
G75*
G02*
X54574999Y-57350000I249999J0D01*
G01*
X55100001Y-57350000D01*
G75*
G02*
X55350000Y-57599999I0J-249999D01*
G01*
G37*
%TD.AperFunction*%
%TO.P,R3,1*%
%TO.N,UI_RotEnc_B*%
%TA.AperFunction,SMDPad,CuDef*%
G36*
G01*
X57175000Y-57599999D02*
X57175000Y-58500001D01*
G75*
G02*
X56925001Y-58750000I-249999J0D01*
G01*
X56399999Y-58750000D01*
G75*
G02*
X56150000Y-58500001I0J249999D01*
G01*
X56150000Y-57599999D01*
G75*
G02*
X56399999Y-57350000I249999J0D01*
G01*
X56925001Y-57350000D01*
G75*
G02*
X57175000Y-57599999I0J-249999D01*
G01*
G37*
%TD.AperFunction*%
%TD*%
%TO.P,C3,2*%
%TO.N,GND*%
%TA.AperFunction,SMDPad,CuDef*%
G36*
G01*
X60300000Y-57575000D02*
X60300000Y-58525000D01*
G75*
G02*
X60050000Y-58775000I-250000J0D01*
G01*
X59550000Y-58775000D01*
G75*
G02*
X59300000Y-58525000I0J250000D01*
G01*
X59300000Y-57575000D01*
G75*
G02*
X59550000Y-57325000I250000J0D01*
G01*
X60050000Y-57325000D01*
G75*
G02*
X60300000Y-57575000I0J-250000D01*
G01*
G37*
%TD.AperFunction*%
%TO.P,C3,1*%
%TO.N,UI_RotEnc_B*%
%TA.AperFunction,SMDPad,CuDef*%
G36*
G01*
X62200000Y-57575000D02*
X62200000Y-58525000D01*
G75*
G02*
X61950000Y-58775000I-250000J0D01*
G01*
X61450000Y-58775000D01*
G75*
G02*
X61200000Y-58525000I0J250000D01*
G01*
X61200000Y-57575000D01*
G75*
G02*
X61450000Y-57325000I250000J0D01*
G01*
X61950000Y-57325000D01*
G75*
G02*
X62200000Y-57575000I0J-250000D01*
G01*
G37*
%TD.AperFunction*%
%TD*%
%TO.P,C2,2*%
%TO.N,UI_RotEnc_A*%
%TA.AperFunction,SMDPad,CuDef*%
G36*
G01*
X61150000Y-54525000D02*
X61150000Y-53575000D01*
G75*
G02*
X61400000Y-53325000I250000J0D01*
G01*
X61900000Y-53325000D01*
G75*
G02*
X62150000Y-53575000I0J-250000D01*
G01*
X62150000Y-54525000D01*
G75*
G02*
X61900000Y-54775000I-250000J0D01*
G01*
X61400000Y-54775000D01*
G75*
G02*
X61150000Y-54525000I0J250000D01*
G01*
G37*
%TD.AperFunction*%
%TO.P,C2,1*%
%TO.N,GND*%
%TA.AperFunction,SMDPad,CuDef*%
G36*
G01*
X59250000Y-54525000D02*
X59250000Y-53575000D01*
G75*
G02*
X59500000Y-53325000I250000J0D01*
G01*
X60000000Y-53325000D01*
G75*
G02*
X60250000Y-53575000I0J-250000D01*
G01*
X60250000Y-54525000D01*
G75*
G02*
X60000000Y-54775000I-250000J0D01*
G01*
X59500000Y-54775000D01*
G75*
G02*
X59250000Y-54525000I0J250000D01*
G01*
G37*
%TD.AperFunction*%
%TD*%
%TO.P,C1,2*%
%TO.N,GND*%
%TA.AperFunction,SMDPad,CuDef*%
G36*
G01*
X60300000Y-49575000D02*
X60300000Y-50525000D01*
G75*
G02*
X60050000Y-50775000I-250000J0D01*
G01*
X59550000Y-50775000D01*
G75*
G02*
X59300000Y-50525000I0J250000D01*
G01*
X59300000Y-49575000D01*
G75*
G02*
X59550000Y-49325000I250000J0D01*
G01*
X60050000Y-49325000D01*
G75*
G02*
X60300000Y-49575000I0J-250000D01*
G01*
G37*
%TD.AperFunction*%
%TO.P,C1,1*%
%TO.N,UI_RotEnc_Push*%
%TA.AperFunction,SMDPad,CuDef*%
G36*
G01*
X62200000Y-49575000D02*
X62200000Y-50525000D01*
G75*
G02*
X61950000Y-50775000I-250000J0D01*
G01*
X61450000Y-50775000D01*
G75*
G02*
X61200000Y-50525000I0J250000D01*
G01*
X61200000Y-49575000D01*
G75*
G02*
X61450000Y-49325000I250000J0D01*
G01*
X61950000Y-49325000D01*
G75*
G02*
X62200000Y-49575000I0J-250000D01*
G01*
G37*
%TD.AperFunction*%
%TD*%
%TO.P,R2,2*%
%TO.N,Net-(ENC1-PadA)*%
%TA.AperFunction,SMDPad,CuDef*%
G36*
G01*
X55437500Y-53599999D02*
X55437500Y-54500001D01*
G75*
G02*
X55187501Y-54750000I-249999J0D01*
G01*
X54662499Y-54750000D01*
G75*
G02*
X54412500Y-54500001I0J249999D01*
G01*
X54412500Y-53599999D01*
G75*
G02*
X54662499Y-53350000I249999J0D01*
G01*
X55187501Y-53350000D01*
G75*
G02*
X55437500Y-53599999I0J-249999D01*
G01*
G37*
%TD.AperFunction*%
%TO.P,R2,1*%
%TO.N,UI_RotEnc_A*%
%TA.AperFunction,SMDPad,CuDef*%
G36*
G01*
X57262500Y-53599999D02*
X57262500Y-54500001D01*
G75*
G02*
X57012501Y-54750000I-249999J0D01*
G01*
X56487499Y-54750000D01*
G75*
G02*
X56237500Y-54500001I0J249999D01*
G01*
X56237500Y-53599999D01*
G75*
G02*
X56487499Y-53350000I249999J0D01*
G01*
X57012501Y-53350000D01*
G75*
G02*
X57262500Y-53599999I0J-249999D01*
G01*
G37*
%TD.AperFunction*%
%TD*%
%TO.P,R6,2*%
%TO.N,ProbeADC*%
%TA.AperFunction,SMDPad,CuDef*%
G36*
G01*
X66977999Y-32298500D02*
X67878001Y-32298500D01*
G75*
G02*
X68128000Y-32548499I0J-249999D01*
G01*
X68128000Y-33073501D01*
G75*
G02*
X67878001Y-33323500I-249999J0D01*
G01*
X66977999Y-33323500D01*
G75*
G02*
X66728000Y-33073501I0J249999D01*
G01*
X66728000Y-32548499D01*
G75*
G02*
X66977999Y-32298500I249999J0D01*
G01*
G37*
%TD.AperFunction*%
%TO.P,R6,1*%
%TO.N,Probe*%
%TA.AperFunction,SMDPad,CuDef*%
G36*
G01*
X66977999Y-30473500D02*
X67878001Y-30473500D01*
G75*
G02*
X68128000Y-30723499I0J-249999D01*
G01*
X68128000Y-31248501D01*
G75*
G02*
X67878001Y-31498500I-249999J0D01*
G01*
X66977999Y-31498500D01*
G75*
G02*
X66728000Y-31248501I0J249999D01*
G01*
X66728000Y-30723499D01*
G75*
G02*
X66977999Y-30473500I249999J0D01*
G01*
G37*
%TD.AperFunction*%
%TD*%
D18*
%TO.P,H3,1*%
%TO.N,N/C*%
X81550000Y-74100000D03*
D19*
X81550000Y-74100000D03*
%TD*%
%TO.P,C6,2*%
%TO.N,GND*%
%TA.AperFunction,SMDPad,CuDef*%
G36*
G01*
X79950000Y-51275000D02*
X79950000Y-50325000D01*
G75*
G02*
X80200000Y-50075000I250000J0D01*
G01*
X80700000Y-50075000D01*
G75*
G02*
X80950000Y-50325000I0J-250000D01*
G01*
X80950000Y-51275000D01*
G75*
G02*
X80700000Y-51525000I-250000J0D01*
G01*
X80200000Y-51525000D01*
G75*
G02*
X79950000Y-51275000I0J250000D01*
G01*
G37*
%TD.AperFunction*%
%TO.P,C6,1*%
%TO.N,Gate_logic*%
%TA.AperFunction,SMDPad,CuDef*%
G36*
G01*
X78050000Y-51275000D02*
X78050000Y-50325000D01*
G75*
G02*
X78300000Y-50075000I250000J0D01*
G01*
X78800000Y-50075000D01*
G75*
G02*
X79050000Y-50325000I0J-250000D01*
G01*
X79050000Y-51275000D01*
G75*
G02*
X78800000Y-51525000I-250000J0D01*
G01*
X78300000Y-51525000D01*
G75*
G02*
X78050000Y-51275000I0J250000D01*
G01*
G37*
%TD.AperFunction*%
%TD*%
D18*
%TO.P,H1,1*%
%TO.N,N/C*%
X26200000Y-71600000D03*
D19*
X26200000Y-71600000D03*
%TD*%
D18*
%TO.P,H4,1*%
%TO.N,N/C*%
X26050000Y-33750000D03*
D19*
X26050000Y-33750000D03*
%TD*%
D18*
%TO.P,H2,1*%
%TO.N,N/C*%
X81450000Y-33750000D03*
D19*
X81450000Y-33750000D03*
%TD*%
%TO.P,R9,2*%
%TO.N,GND*%
%TA.AperFunction,SMDPad,CuDef*%
G36*
G01*
X69737999Y-36749500D02*
X70638001Y-36749500D01*
G75*
G02*
X70888000Y-36999499I0J-249999D01*
G01*
X70888000Y-37524501D01*
G75*
G02*
X70638001Y-37774500I-249999J0D01*
G01*
X69737999Y-37774500D01*
G75*
G02*
X69488000Y-37524501I0J249999D01*
G01*
X69488000Y-36999499D01*
G75*
G02*
X69737999Y-36749500I249999J0D01*
G01*
G37*
%TD.AperFunction*%
%TO.P,R9,1*%
%TO.N,VCC_ADC*%
%TA.AperFunction,SMDPad,CuDef*%
G36*
G01*
X69737999Y-34924500D02*
X70638001Y-34924500D01*
G75*
G02*
X70888000Y-35174499I0J-249999D01*
G01*
X70888000Y-35699501D01*
G75*
G02*
X70638001Y-35949500I-249999J0D01*
G01*
X69737999Y-35949500D01*
G75*
G02*
X69488000Y-35699501I0J249999D01*
G01*
X69488000Y-35174499D01*
G75*
G02*
X69737999Y-34924500I249999J0D01*
G01*
G37*
%TD.AperFunction*%
%TD*%
D20*
%TO.P,U3,2*%
%TO.N,GND*%
X62990000Y-74350000D03*
D21*
%TO.P,U3,3*%
%TO.N,+5V*%
X60450000Y-65200000D03*
%TO.P,U3,2*%
%TO.N,GND*%
X62990000Y-65200000D03*
%TO.P,U3,1*%
%TO.N,VCC*%
X65530000Y-65200000D03*
%TD*%
%TO.P,R8,2*%
%TO.N,VCC_ADC*%
%TA.AperFunction,SMDPad,CuDef*%
G36*
G01*
X69737999Y-32248000D02*
X70638001Y-32248000D01*
G75*
G02*
X70888000Y-32497999I0J-249999D01*
G01*
X70888000Y-33023001D01*
G75*
G02*
X70638001Y-33273000I-249999J0D01*
G01*
X69737999Y-33273000D01*
G75*
G02*
X69488000Y-33023001I0J249999D01*
G01*
X69488000Y-32497999D01*
G75*
G02*
X69737999Y-32248000I249999J0D01*
G01*
G37*
%TD.AperFunction*%
%TO.P,R8,1*%
%TO.N,VCC*%
%TA.AperFunction,SMDPad,CuDef*%
G36*
G01*
X69737999Y-30423000D02*
X70638001Y-30423000D01*
G75*
G02*
X70888000Y-30672999I0J-249999D01*
G01*
X70888000Y-31198001D01*
G75*
G02*
X70638001Y-31448000I-249999J0D01*
G01*
X69737999Y-31448000D01*
G75*
G02*
X69488000Y-31198001I0J249999D01*
G01*
X69488000Y-30672999D01*
G75*
G02*
X69737999Y-30423000I249999J0D01*
G01*
G37*
%TD.AperFunction*%
%TD*%
%TO.P,R7,2*%
%TO.N,GND*%
%TA.AperFunction,SMDPad,CuDef*%
G36*
G01*
X66977999Y-36649500D02*
X67878001Y-36649500D01*
G75*
G02*
X68128000Y-36899499I0J-249999D01*
G01*
X68128000Y-37424501D01*
G75*
G02*
X67878001Y-37674500I-249999J0D01*
G01*
X66977999Y-37674500D01*
G75*
G02*
X66728000Y-37424501I0J249999D01*
G01*
X66728000Y-36899499D01*
G75*
G02*
X66977999Y-36649500I249999J0D01*
G01*
G37*
%TD.AperFunction*%
%TO.P,R7,1*%
%TO.N,ProbeADC*%
%TA.AperFunction,SMDPad,CuDef*%
G36*
G01*
X66977999Y-34824500D02*
X67878001Y-34824500D01*
G75*
G02*
X68128000Y-35074499I0J-249999D01*
G01*
X68128000Y-35599501D01*
G75*
G02*
X67878001Y-35849500I-249999J0D01*
G01*
X66977999Y-35849500D01*
G75*
G02*
X66728000Y-35599501I0J249999D01*
G01*
X66728000Y-35074499D01*
G75*
G02*
X66977999Y-34824500I249999J0D01*
G01*
G37*
%TD.AperFunction*%
%TD*%
D22*
%TO.N,+5V*%
X58800000Y-62550000D03*
%TO.N,GND*%
X54600000Y-34600000D03*
X63100000Y-43200000D03*
X65462000Y-37162000D03*
X72225000Y-37262000D03*
X70900000Y-74350000D03*
X58675000Y-58050000D03*
X59050000Y-55800000D03*
X59300000Y-51850000D03*
X81750000Y-50150000D03*
X65100000Y-61000000D03*
%TO.N,Dallas*%
X69000000Y-31800000D03*
%TO.N,UI_RotEnc_Push*%
X57850000Y-51700000D03*
%TO.N,FAN_GND*%
X54450000Y-26050000D03*
X50100000Y-23200000D03*
%TO.N,Shuntvoltage*%
X70100000Y-53500000D03*
X62925000Y-31050000D03*
%TO.N,EnableSupply*%
X57650000Y-40950000D03*
X57750000Y-33850000D03*
%TO.N,Vbat_ADC*%
X63650000Y-33250000D03*
%TO.N,ChargerEna*%
X52950000Y-59050000D03*
%TO.N,ProbeADC*%
X68150000Y-39000000D03*
%TO.N,VCC_ADC*%
X69050000Y-40450000D03*
%TO.N,ExtPWRADC*%
X65650000Y-59200000D03*
X66300000Y-50850000D03*
%TD*%
D23*
%TO.N,Net-(BZ1-Pad2)*%
X47024990Y-39774990D02*
X44650000Y-37400000D01*
X54374990Y-39774990D02*
X47024990Y-39774990D01*
X59950000Y-45350000D02*
X54374990Y-39774990D01*
D24*
%TO.N,+5V*%
X78099999Y-37299999D02*
X81750000Y-40950000D01*
X78099999Y-31439999D02*
X78099999Y-37299999D01*
X77200000Y-30540000D02*
X78099999Y-31439999D01*
X75700000Y-30540000D02*
X77200000Y-30540000D01*
X60450000Y-61250000D02*
X60150000Y-60950000D01*
X60450000Y-65200000D02*
X60450000Y-61250000D01*
X60150000Y-61200000D02*
X58800000Y-62550000D01*
X60150000Y-60950000D02*
X60150000Y-61200000D01*
%TO.N,GND*%
X34200000Y-65300000D02*
X37250000Y-68350000D01*
X54100000Y-34100000D02*
X54600000Y-34600000D01*
X54100000Y-32850000D02*
X54100000Y-34100000D01*
X61950000Y-44400000D02*
X61950000Y-44350000D01*
X61950000Y-44350000D02*
X63100000Y-43200000D01*
X67428000Y-37162000D02*
X65462000Y-37162000D01*
X70188000Y-37262000D02*
X72038000Y-37262000D01*
X72038000Y-37262000D02*
X72225000Y-37262000D01*
X62990000Y-61060000D02*
X63100000Y-60950000D01*
X62990000Y-65200000D02*
X62990000Y-61060000D01*
X61080000Y-76260000D02*
X62990000Y-74350000D01*
X50300000Y-76260000D02*
X61080000Y-76260000D01*
X62990000Y-74350000D02*
X70900000Y-74350000D01*
X59800000Y-58050000D02*
X58675000Y-58050000D01*
X59750000Y-55100000D02*
X59050000Y-55800000D01*
X59750000Y-54050000D02*
X59750000Y-55100000D01*
X59800000Y-51350000D02*
X59300000Y-51850000D01*
X59800000Y-50050000D02*
X59800000Y-51350000D01*
X80425000Y-50825000D02*
X80450000Y-50800000D01*
X80425000Y-56100000D02*
X80425000Y-50825000D01*
X81100000Y-50800000D02*
X81750000Y-50150000D01*
X80450000Y-50800000D02*
X81100000Y-50800000D01*
X65050000Y-60950000D02*
X65100000Y-61000000D01*
X63100000Y-60950000D02*
X65050000Y-60950000D01*
X33100000Y-64200000D02*
X34200000Y-65300000D01*
X30900000Y-64200000D02*
X33100000Y-64200000D01*
X55800000Y-60925000D02*
X58675000Y-58050000D01*
X55800000Y-61500000D02*
X55800000Y-60925000D01*
%TO.N,VCC*%
X73900000Y-27223500D02*
X70188000Y-30935500D01*
X73900000Y-24450000D02*
X73900000Y-27223500D01*
X44150000Y-28650000D02*
X47400000Y-28650000D01*
X51140008Y-75109990D02*
X48290010Y-75109990D01*
X57149999Y-69099999D02*
X51140008Y-75109990D01*
X64430001Y-69099999D02*
X57149999Y-69099999D01*
X65530000Y-68000000D02*
X64430001Y-69099999D01*
X65530000Y-65200000D02*
X65530000Y-68000000D01*
X48290010Y-75109990D02*
X45500000Y-77900000D01*
X22699999Y-73058001D02*
X22699999Y-28550001D01*
X22699999Y-28550001D02*
X26750000Y-24500000D01*
X27541998Y-77900000D02*
X22699999Y-73058001D01*
X45500000Y-77900000D02*
X27541998Y-77900000D01*
X40400000Y-24900000D02*
X44150000Y-28650000D01*
X40400000Y-24650000D02*
X40400000Y-24900000D01*
X72374990Y-22924990D02*
X73900000Y-24450000D01*
X53525010Y-22924990D02*
X72374990Y-22924990D01*
X51900000Y-24550000D02*
X53525010Y-22924990D01*
X51500000Y-24550000D02*
X47400000Y-28650000D01*
X51900000Y-24550000D02*
X51500000Y-24550000D01*
D23*
%TO.N,Probe*%
X66400000Y-29958000D02*
X67428000Y-30986000D01*
X66400000Y-24450000D02*
X66400000Y-29958000D01*
%TO.N,Dallas*%
X69073010Y-31873010D02*
X69000000Y-31800000D01*
X70826200Y-31873010D02*
X69073010Y-31873010D01*
X74374990Y-35421800D02*
X70826200Y-31873010D01*
X74374990Y-39374990D02*
X74374990Y-35421800D01*
X75700000Y-40700000D02*
X74374990Y-39374990D01*
%TO.N,Gate_logic*%
X76070000Y-48320000D02*
X75700000Y-48320000D01*
X78550000Y-50800000D02*
X76070000Y-48320000D01*
%TO.N,FAN*%
X56621839Y-30950000D02*
X54100000Y-30950000D01*
X75700000Y-50028161D02*
X56621839Y-30950000D01*
X75700000Y-50860000D02*
X75700000Y-50028161D01*
D24*
%TO.N,BUZZ*%
X68600000Y-46300000D02*
X75700000Y-53400000D01*
X61950000Y-46300000D02*
X68600000Y-46300000D01*
D23*
%TO.N,UI_RotEnc_Push*%
X57900010Y-48899990D02*
X56750000Y-50050000D01*
X60549990Y-48899990D02*
X57900010Y-48899990D01*
X61700000Y-50050000D02*
X60549990Y-48899990D01*
X56750000Y-50600000D02*
X57850000Y-51700000D01*
X56750000Y-50050000D02*
X56750000Y-50600000D01*
%TO.N,UI_RotEnc_A*%
X61650000Y-54050000D02*
X62700000Y-54050000D01*
X74300000Y-67240000D02*
X75700000Y-68640000D01*
X74300000Y-65650000D02*
X74300000Y-67240000D01*
X62700000Y-54050000D02*
X74300000Y-65650000D01*
X57900010Y-52899990D02*
X56750000Y-54050000D01*
X60499990Y-52899990D02*
X57900010Y-52899990D01*
X61650000Y-54050000D02*
X60499990Y-52899990D01*
%TO.N,UI_RotEnc_B*%
X57812510Y-56899990D02*
X56662500Y-58050000D01*
X60549990Y-56899990D02*
X57812510Y-56899990D01*
X61700000Y-58050000D02*
X60549990Y-56899990D01*
X73500000Y-65700000D02*
X73500000Y-68980000D01*
X61700000Y-58050000D02*
X65850000Y-58050000D01*
X65850000Y-58050000D02*
X73500000Y-65700000D01*
X73500000Y-68980000D02*
X75700000Y-71180000D01*
D24*
%TO.N,ExtPower*%
X27949990Y-36808012D02*
X31900000Y-32858002D01*
X27949990Y-67268878D02*
X27949990Y-36808012D01*
X30556122Y-69875010D02*
X27949990Y-67268878D01*
X38224990Y-69875010D02*
X30556122Y-69875010D01*
X39750000Y-68350000D02*
X38224990Y-69875010D01*
X31900000Y-32858002D02*
X31900000Y-24650000D01*
X41275010Y-69875010D02*
X39750000Y-68350000D01*
X45329903Y-69875010D02*
X41275010Y-69875010D01*
X46150010Y-69054903D02*
X45329903Y-69875010D01*
X46150010Y-67645097D02*
X46150010Y-69054903D01*
X45225000Y-66720087D02*
X46150010Y-67645097D01*
X45225000Y-64500000D02*
X45225000Y-66720087D01*
X31900000Y-24650000D02*
X31750000Y-24500000D01*
X36400000Y-24650000D02*
X31900000Y-24650000D01*
D23*
%TO.N,LED*%
X75870000Y-45950000D02*
X75700000Y-45780000D01*
X81750000Y-45950000D02*
X75870000Y-45950000D01*
%TO.N,FAN_GND*%
X53614998Y-31900000D02*
X53100000Y-31385002D01*
X56100000Y-31900000D02*
X53614998Y-31900000D01*
X26525001Y-22224999D02*
X24250000Y-24500000D01*
X45574999Y-22224999D02*
X26525001Y-22224999D01*
X47900000Y-24550000D02*
X45574999Y-22224999D01*
X53100000Y-29400000D02*
X53100000Y-31385002D01*
X47900000Y-24550000D02*
X48250000Y-24550000D01*
X53100000Y-27400000D02*
X54450000Y-26050000D01*
X53100000Y-29400000D02*
X53100000Y-27400000D01*
X49250000Y-23200000D02*
X47900000Y-24550000D01*
X50100000Y-23200000D02*
X49250000Y-23200000D01*
%TO.N,Net-(ENC1-PadA)*%
X42684990Y-56865010D02*
X37950000Y-61600000D01*
X52109990Y-56865010D02*
X42684990Y-56865010D01*
X54925000Y-54050000D02*
X52109990Y-56865010D01*
%TO.N,Net-(ENC1-PadB)*%
X46995010Y-57554990D02*
X42950000Y-61600000D01*
X54342490Y-57554990D02*
X46995010Y-57554990D01*
X54837500Y-58050000D02*
X54342490Y-57554990D01*
%TO.N,Net-(ENC1-PadS2)*%
X45895010Y-49245010D02*
X43800000Y-47150000D01*
X54120010Y-49245010D02*
X45895010Y-49245010D01*
X54925000Y-50050000D02*
X54120010Y-49245010D01*
%TO.N,FootSwitch*%
X29000000Y-66475000D02*
X29025000Y-66500000D01*
X29000000Y-64100000D02*
X29000000Y-66475000D01*
X50194999Y-45674999D02*
X50300000Y-45780000D01*
X37265999Y-45674999D02*
X50194999Y-45674999D01*
X33274999Y-49665999D02*
X37265999Y-45674999D01*
X33274999Y-59925001D02*
X33274999Y-49665999D01*
X29000000Y-64200000D02*
X33274999Y-59925001D01*
%TO.N,Net-(J1-Pad4)*%
X45607888Y-62450000D02*
X53800000Y-62450000D01*
X42250000Y-65807888D02*
X45607888Y-62450000D01*
X42250000Y-68350000D02*
X42250000Y-65807888D01*
%TO.N,Net-(J1-Pad1)*%
X34300000Y-67900000D02*
X34750000Y-68350000D01*
X32900000Y-66500000D02*
X34750000Y-68350000D01*
X30850000Y-66500000D02*
X32900000Y-66500000D01*
%TO.N,Shuntvoltage*%
X75080000Y-58480000D02*
X70100000Y-53500000D01*
X75700000Y-58480000D02*
X75080000Y-58480000D01*
X56400000Y-24525000D02*
X56400000Y-24450000D01*
X62925000Y-31050000D02*
X56400000Y-24525000D01*
%TO.N,EnableSupply*%
X57650000Y-33950000D02*
X57750000Y-33850000D01*
X57650000Y-40950000D02*
X57650000Y-33950000D01*
%TO.N,Vbat_ADC*%
X63650000Y-24700000D02*
X63900000Y-24450000D01*
X63650000Y-33250000D02*
X63650000Y-24700000D01*
%TO.N,ChargerEna*%
X54924999Y-61024999D02*
X52950000Y-59050000D01*
X54924999Y-62524999D02*
X54924999Y-61024999D01*
X55800000Y-63400000D02*
X54924999Y-62524999D01*
%TO.N,ProbeADC*%
X67428000Y-32811000D02*
X67428000Y-35337000D01*
X68553010Y-38596990D02*
X68150000Y-39000000D01*
X68553010Y-36462010D02*
X68553010Y-38596990D01*
X67428000Y-35337000D02*
X68553010Y-36462010D01*
%TO.N,VCC_ADC*%
X70188000Y-32760500D02*
X70188000Y-35437000D01*
X69050000Y-36575000D02*
X69050000Y-40450000D01*
X70188000Y-35437000D02*
X69050000Y-36575000D01*
%TO.N,ExtPWRADC*%
X70610000Y-50850000D02*
X75700000Y-55940000D01*
X66300000Y-50850000D02*
X70610000Y-50850000D01*
X75860000Y-56100000D02*
X75700000Y-55940000D01*
X78600000Y-56100000D02*
X75860000Y-56100000D01*
X59970388Y-59200000D02*
X60300000Y-59200000D01*
X57974999Y-62660003D02*
X57974999Y-61195389D01*
X56135002Y-64500000D02*
X57974999Y-62660003D01*
X47050000Y-64500000D02*
X56135002Y-64500000D01*
X60300000Y-59200000D02*
X65650000Y-59200000D01*
X57974999Y-61195389D02*
X59970388Y-59200000D01*
%TD*%
D25*
%TO.N,+5V*%
X84940000Y-73535454D02*
X84852994Y-73098048D01*
X84594057Y-72472918D01*
X84218138Y-71910315D01*
X83739685Y-71431862D01*
X83177082Y-71055943D01*
X82551952Y-70797006D01*
X81888318Y-70665000D01*
X81211682Y-70665000D01*
X80548048Y-70797006D01*
X79922918Y-71055943D01*
X79360315Y-71431862D01*
X78881862Y-71910315D01*
X78505943Y-72472918D01*
X78247006Y-73098048D01*
X78115000Y-73761682D01*
X78115000Y-74438318D01*
X78247006Y-75101952D01*
X78505943Y-75727082D01*
X78881862Y-76289685D01*
X79360315Y-76768138D01*
X79922918Y-77144057D01*
X80548048Y-77402994D01*
X81211682Y-77535000D01*
X81888318Y-77535000D01*
X82551952Y-77402994D01*
X83177082Y-77144057D01*
X83739685Y-76768138D01*
X84218138Y-76289685D01*
X84594057Y-75727082D01*
X84852994Y-75101952D01*
X84940000Y-74664546D01*
X84940000Y-79340000D01*
X68955010Y-79340000D01*
X68979502Y-79294180D01*
X69015812Y-79174482D01*
X69028072Y-79050000D01*
X69028072Y-76260000D01*
X74059025Y-76260000D01*
X74082870Y-76502102D01*
X74153489Y-76734901D01*
X74268167Y-76949449D01*
X74422498Y-77137502D01*
X74610551Y-77291833D01*
X74825099Y-77406511D01*
X75057898Y-77477130D01*
X75239335Y-77495000D01*
X76160665Y-77495000D01*
X76342102Y-77477130D01*
X76574901Y-77406511D01*
X76789449Y-77291833D01*
X76977502Y-77137502D01*
X77131833Y-76949449D01*
X77246511Y-76734901D01*
X77317130Y-76502102D01*
X77340975Y-76260000D01*
X77317130Y-76017898D01*
X77246511Y-75785099D01*
X77131833Y-75570551D01*
X76977502Y-75382498D01*
X76789449Y-75228167D01*
X76574901Y-75113489D01*
X76342102Y-75042870D01*
X76160665Y-75025000D01*
X75239335Y-75025000D01*
X75057898Y-75042870D01*
X74825099Y-75113489D01*
X74610551Y-75228167D01*
X74422498Y-75382498D01*
X74268167Y-75570551D01*
X74153489Y-75785099D01*
X74082870Y-76017898D01*
X74059025Y-76260000D01*
X69028072Y-76260000D01*
X69028072Y-75235000D01*
X70361546Y-75235000D01*
X70409744Y-75267205D01*
X70598102Y-75345226D01*
X70798061Y-75385000D01*
X71001939Y-75385000D01*
X71201898Y-75345226D01*
X71390256Y-75267205D01*
X71559774Y-75153937D01*
X71703937Y-75009774D01*
X71817205Y-74840256D01*
X71895226Y-74651898D01*
X71935000Y-74451939D01*
X71935000Y-74248061D01*
X71895226Y-74048102D01*
X71817205Y-73859744D01*
X71723832Y-73720000D01*
X74059025Y-73720000D01*
X74082870Y-73962102D01*
X74153489Y-74194901D01*
X74268167Y-74409449D01*
X74422498Y-74597502D01*
X74610551Y-74751833D01*
X74825099Y-74866511D01*
X75057898Y-74937130D01*
X75239335Y-74955000D01*
X76160665Y-74955000D01*
X76342102Y-74937130D01*
X76574901Y-74866511D01*
X76789449Y-74751833D01*
X76977502Y-74597502D01*
X77131833Y-74409449D01*
X77246511Y-74194901D01*
X77317130Y-73962102D01*
X77340975Y-73720000D01*
X77317130Y-73477898D01*
X77246511Y-73245099D01*
X77131833Y-73030551D01*
X76977502Y-72842498D01*
X76789449Y-72688167D01*
X76574901Y-72573489D01*
X76342102Y-72502870D01*
X76160665Y-72485000D01*
X75239335Y-72485000D01*
X75057898Y-72502870D01*
X74825099Y-72573489D01*
X74610551Y-72688167D01*
X74422498Y-72842498D01*
X74268167Y-73030551D01*
X74153489Y-73245099D01*
X74082870Y-73477898D01*
X74059025Y-73720000D01*
X71723832Y-73720000D01*
X71703937Y-73690226D01*
X71559774Y-73546063D01*
X71390256Y-73432795D01*
X71201898Y-73354774D01*
X71001939Y-73315000D01*
X70798061Y-73315000D01*
X70598102Y-73354774D01*
X70409744Y-73432795D01*
X70361546Y-73465000D01*
X69028072Y-73465000D01*
X69028072Y-69650000D01*
X69015812Y-69525518D01*
X68979502Y-69405820D01*
X68920537Y-69295506D01*
X68841185Y-69198815D01*
X68744494Y-69119463D01*
X68634180Y-69060498D01*
X68514482Y-69024188D01*
X68390000Y-69011928D01*
X65769651Y-69011928D01*
X66125049Y-68656530D01*
X66158817Y-68628817D01*
X66218804Y-68555724D01*
X66269411Y-68494059D01*
X66351589Y-68340314D01*
X66402195Y-68173490D01*
X66403705Y-68158160D01*
X66415000Y-68043477D01*
X66415000Y-68043469D01*
X66415261Y-68040817D01*
X66434494Y-68030537D01*
X66531185Y-67951185D01*
X66610537Y-67854494D01*
X66669502Y-67744180D01*
X66705812Y-67624482D01*
X66718072Y-67500000D01*
X66718072Y-62900000D01*
X66705812Y-62775518D01*
X66669502Y-62655820D01*
X66610537Y-62545506D01*
X66531185Y-62448815D01*
X66434494Y-62369463D01*
X66324180Y-62310498D01*
X66204482Y-62274188D01*
X66080000Y-62261928D01*
X64980000Y-62261928D01*
X64855518Y-62274188D01*
X64735820Y-62310498D01*
X64625506Y-62369463D01*
X64528815Y-62448815D01*
X64449463Y-62545506D01*
X64390498Y-62655820D01*
X64354188Y-62775518D01*
X64341928Y-62900000D01*
X64341928Y-67500000D01*
X64354188Y-67624482D01*
X64390498Y-67744180D01*
X64440568Y-67837853D01*
X64063423Y-68214999D01*
X57193468Y-68214999D01*
X57149999Y-68210718D01*
X57106530Y-68214999D01*
X57106522Y-68214999D01*
X56976509Y-68227804D01*
X56809686Y-68278410D01*
X56685055Y-68345026D01*
X56655940Y-68360588D01*
X56554952Y-68443467D01*
X56554950Y-68443469D01*
X56521182Y-68471182D01*
X56493469Y-68504950D01*
X51814050Y-73184369D01*
X51731833Y-73030551D01*
X51577502Y-72842498D01*
X51389449Y-72688167D01*
X51174901Y-72573489D01*
X50942102Y-72502870D01*
X50760665Y-72485000D01*
X49839335Y-72485000D01*
X49657898Y-72502870D01*
X49425099Y-72573489D01*
X49210551Y-72688167D01*
X49022498Y-72842498D01*
X48868167Y-73030551D01*
X48753489Y-73245099D01*
X48682870Y-73477898D01*
X48659025Y-73720000D01*
X48682870Y-73962102D01*
X48753489Y-74194901D01*
X48769572Y-74224990D01*
X48333479Y-74224990D01*
X48290010Y-74220709D01*
X48246541Y-74224990D01*
X48246533Y-74224990D01*
X48131316Y-74236338D01*
X48116519Y-74237795D01*
X48082678Y-74248061D01*
X47949697Y-74288401D01*
X47795951Y-74370579D01*
X47795949Y-74370580D01*
X47795950Y-74370580D01*
X47694963Y-74453458D01*
X47694961Y-74453460D01*
X47661193Y-74481173D01*
X47633480Y-74514941D01*
X45133422Y-77015000D01*
X27908577Y-77015000D01*
X25928577Y-75035000D01*
X26538318Y-75035000D01*
X27201952Y-74902994D01*
X27827082Y-74644057D01*
X28389685Y-74268138D01*
X28868138Y-73789685D01*
X29244057Y-73227082D01*
X29502994Y-72601952D01*
X29635000Y-71938318D01*
X29635000Y-71261682D01*
X29618753Y-71180000D01*
X48659025Y-71180000D01*
X48682870Y-71422102D01*
X48753489Y-71654901D01*
X48868167Y-71869449D01*
X49022498Y-72057502D01*
X49210551Y-72211833D01*
X49425099Y-72326511D01*
X49657898Y-72397130D01*
X49839335Y-72415000D01*
X50760665Y-72415000D01*
X50942102Y-72397130D01*
X51174901Y-72326511D01*
X51389449Y-72211833D01*
X51577502Y-72057502D01*
X51731833Y-71869449D01*
X51846511Y-71654901D01*
X51917130Y-71422102D01*
X51940975Y-71180000D01*
X51917130Y-70937898D01*
X51846511Y-70705099D01*
X51731833Y-70490551D01*
X51577502Y-70302498D01*
X51389449Y-70148167D01*
X51174901Y-70033489D01*
X50942102Y-69962870D01*
X50760665Y-69945000D01*
X49839335Y-69945000D01*
X49657898Y-69962870D01*
X49425099Y-70033489D01*
X49210551Y-70148167D01*
X49022498Y-70302498D01*
X48868167Y-70490551D01*
X48753489Y-70705099D01*
X48682870Y-70937898D01*
X48659025Y-71180000D01*
X29618753Y-71180000D01*
X29502994Y-70598048D01*
X29244057Y-69972918D01*
X28925104Y-69495570D01*
X29899592Y-70470059D01*
X29927305Y-70503827D01*
X29961073Y-70531540D01*
X29961075Y-70531542D01*
X30032574Y-70590220D01*
X30062063Y-70614421D01*
X30215809Y-70696599D01*
X30382632Y-70747205D01*
X30512645Y-70760010D01*
X30512655Y-70760010D01*
X30556121Y-70764291D01*
X30599587Y-70760010D01*
X38181521Y-70760010D01*
X38224990Y-70764291D01*
X38268459Y-70760010D01*
X38268467Y-70760010D01*
X38398480Y-70747205D01*
X38565303Y-70696599D01*
X38719049Y-70614421D01*
X38853807Y-70503827D01*
X38881524Y-70470054D01*
X39423731Y-69927848D01*
X39458890Y-69938513D01*
X39750000Y-69967185D01*
X40041111Y-69938513D01*
X40076269Y-69927848D01*
X40618480Y-70470059D01*
X40646193Y-70503827D01*
X40679961Y-70531540D01*
X40679963Y-70531542D01*
X40761001Y-70598048D01*
X40780951Y-70614421D01*
X40934697Y-70696599D01*
X41101520Y-70747205D01*
X41231533Y-70760010D01*
X41231541Y-70760010D01*
X41275010Y-70764291D01*
X41318479Y-70760010D01*
X45286434Y-70760010D01*
X45329903Y-70764291D01*
X45373372Y-70760010D01*
X45373380Y-70760010D01*
X45503393Y-70747205D01*
X45670216Y-70696599D01*
X45823962Y-70614421D01*
X45958720Y-70503827D01*
X45986437Y-70470054D01*
X46745059Y-69711433D01*
X46778827Y-69683720D01*
X46889421Y-69548962D01*
X46971599Y-69395216D01*
X47022205Y-69228393D01*
X47035010Y-69098380D01*
X47035010Y-69098370D01*
X47039291Y-69054904D01*
X47035010Y-69011438D01*
X47035010Y-68640000D01*
X48659025Y-68640000D01*
X48682870Y-68882102D01*
X48753489Y-69114901D01*
X48868167Y-69329449D01*
X49022498Y-69517502D01*
X49210551Y-69671833D01*
X49425099Y-69786511D01*
X49657898Y-69857130D01*
X49839335Y-69875000D01*
X50760665Y-69875000D01*
X50942102Y-69857130D01*
X51174901Y-69786511D01*
X51389449Y-69671833D01*
X51577502Y-69517502D01*
X51731833Y-69329449D01*
X51846511Y-69114901D01*
X51917130Y-68882102D01*
X51940975Y-68640000D01*
X51917130Y-68397898D01*
X51846511Y-68165099D01*
X51731833Y-67950551D01*
X51577502Y-67762498D01*
X51389449Y-67608167D01*
X51187083Y-67500000D01*
X59261928Y-67500000D01*
X59274188Y-67624482D01*
X59310498Y-67744180D01*
X59369463Y-67854494D01*
X59448815Y-67951185D01*
X59545506Y-68030537D01*
X59655820Y-68089502D01*
X59775518Y-68125812D01*
X59900000Y-68138072D01*
X60164250Y-68135000D01*
X60323000Y-67976250D01*
X60323000Y-65327000D01*
X60577000Y-65327000D01*
X60577000Y-67976250D01*
X60735750Y-68135000D01*
X61000000Y-68138072D01*
X61124482Y-68125812D01*
X61244180Y-68089502D01*
X61354494Y-68030537D01*
X61451185Y-67951185D01*
X61530537Y-67854494D01*
X61589502Y-67744180D01*
X61625812Y-67624482D01*
X61638072Y-67500000D01*
X61635000Y-65485750D01*
X61476250Y-65327000D01*
X60577000Y-65327000D01*
X60323000Y-65327000D01*
X59423750Y-65327000D01*
X59265000Y-65485750D01*
X59261928Y-67500000D01*
X51187083Y-67500000D01*
X51174901Y-67493489D01*
X50942102Y-67422870D01*
X50760665Y-67405000D01*
X49839335Y-67405000D01*
X49657898Y-67422870D01*
X49425099Y-67493489D01*
X49210551Y-67608167D01*
X49022498Y-67762498D01*
X48868167Y-67950551D01*
X48753489Y-68165099D01*
X48682870Y-68397898D01*
X48659025Y-68640000D01*
X47035010Y-68640000D01*
X47035010Y-67688566D01*
X47039291Y-67645097D01*
X47035010Y-67601628D01*
X47035010Y-67601620D01*
X47022205Y-67471607D01*
X46997142Y-67388986D01*
X46971599Y-67304783D01*
X46889421Y-67151038D01*
X46806542Y-67050050D01*
X46806540Y-67050048D01*
X46778827Y-67016280D01*
X46745060Y-66988568D01*
X46110000Y-66353509D01*
X46110000Y-65582445D01*
X46115462Y-65577962D01*
X46137500Y-65551109D01*
X46159538Y-65577962D01*
X46294113Y-65688405D01*
X46447649Y-65770472D01*
X46614245Y-65821008D01*
X46787499Y-65838072D01*
X47312501Y-65838072D01*
X47485755Y-65821008D01*
X47652351Y-65770472D01*
X47805887Y-65688405D01*
X47940462Y-65577962D01*
X48050905Y-65443387D01*
X48132972Y-65289851D01*
X48142027Y-65260000D01*
X48991721Y-65260000D01*
X48868167Y-65410551D01*
X48753489Y-65625099D01*
X48682870Y-65857898D01*
X48659025Y-66100000D01*
X48682870Y-66342102D01*
X48753489Y-66574901D01*
X48868167Y-66789449D01*
X49022498Y-66977502D01*
X49210551Y-67131833D01*
X49425099Y-67246511D01*
X49657898Y-67317130D01*
X49839335Y-67335000D01*
X50760665Y-67335000D01*
X50942102Y-67317130D01*
X51174901Y-67246511D01*
X51389449Y-67131833D01*
X51577502Y-66977502D01*
X51731833Y-66789449D01*
X51846511Y-66574901D01*
X51917130Y-66342102D01*
X51940975Y-66100000D01*
X51917130Y-65857898D01*
X51846511Y-65625099D01*
X51731833Y-65410551D01*
X51608279Y-65260000D01*
X56097680Y-65260000D01*
X56135002Y-65263676D01*
X56172324Y-65260000D01*
X56172335Y-65260000D01*
X56283988Y-65249003D01*
X56427249Y-65205546D01*
X56559278Y-65134974D01*
X56675003Y-65040001D01*
X56698806Y-65010997D01*
X58486003Y-63223801D01*
X58515000Y-63200004D01*
X58609973Y-63084279D01*
X58680545Y-62952250D01*
X58724002Y-62808989D01*
X58734999Y-62697336D01*
X58734999Y-62697328D01*
X58738675Y-62660003D01*
X58734999Y-62622678D01*
X58734999Y-61510190D01*
X58939651Y-61305538D01*
X58936928Y-61850000D01*
X58949188Y-61974482D01*
X58985498Y-62094180D01*
X59044463Y-62204494D01*
X59123815Y-62301185D01*
X59220506Y-62380537D01*
X59330820Y-62439502D01*
X59431415Y-62470017D01*
X59369463Y-62545506D01*
X59310498Y-62655820D01*
X59274188Y-62775518D01*
X59261928Y-62900000D01*
X59265000Y-64914250D01*
X59423750Y-65073000D01*
X60323000Y-65073000D01*
X60323000Y-65053000D01*
X60577000Y-65053000D01*
X60577000Y-65073000D01*
X61476250Y-65073000D01*
X61635000Y-64914250D01*
X61638072Y-62900000D01*
X61625812Y-62775518D01*
X61589502Y-62655820D01*
X61530537Y-62545506D01*
X61451185Y-62448815D01*
X61354494Y-62369463D01*
X61244180Y-62310498D01*
X61183619Y-62292127D01*
X61255537Y-62204494D01*
X61314502Y-62094180D01*
X61350812Y-61974482D01*
X61363072Y-61850000D01*
X61360000Y-61235750D01*
X61201250Y-61077000D01*
X60277000Y-61077000D01*
X60277000Y-61097000D01*
X60023000Y-61097000D01*
X60023000Y-61077000D01*
X60003000Y-61077000D01*
X60003000Y-60823000D01*
X60023000Y-60823000D01*
X60023000Y-60803000D01*
X60277000Y-60803000D01*
X60277000Y-60823000D01*
X61201250Y-60823000D01*
X61360000Y-60664250D01*
X61363072Y-60050000D01*
X61354208Y-59960000D01*
X61954608Y-59960000D01*
X61954528Y-59960149D01*
X61903992Y-60126745D01*
X61886928Y-60299999D01*
X61886928Y-61600001D01*
X61903992Y-61773255D01*
X61954528Y-61939851D01*
X62036595Y-62093387D01*
X62105001Y-62176740D01*
X62105001Y-62359043D01*
X62085506Y-62369463D01*
X61988815Y-62448815D01*
X61909463Y-62545506D01*
X61850498Y-62655820D01*
X61814188Y-62775518D01*
X61801928Y-62900000D01*
X61801928Y-67500000D01*
X61814188Y-67624482D01*
X61850498Y-67744180D01*
X61909463Y-67854494D01*
X61988815Y-67951185D01*
X62085506Y-68030537D01*
X62195820Y-68089502D01*
X62315518Y-68125812D01*
X62440000Y-68138072D01*
X63540000Y-68138072D01*
X63664482Y-68125812D01*
X63784180Y-68089502D01*
X63894494Y-68030537D01*
X63991185Y-67951185D01*
X64070537Y-67854494D01*
X64129502Y-67744180D01*
X64165812Y-67624482D01*
X64178072Y-67500000D01*
X64178072Y-62900000D01*
X64165812Y-62775518D01*
X64129502Y-62655820D01*
X64070537Y-62545506D01*
X63991185Y-62448815D01*
X63894494Y-62369463D01*
X63877388Y-62360320D01*
X63918387Y-62338405D01*
X64052962Y-62227962D01*
X64163405Y-62093387D01*
X64245472Y-61939851D01*
X64277278Y-61835000D01*
X64486715Y-61835000D01*
X64609744Y-61917205D01*
X64798102Y-61995226D01*
X64998061Y-62035000D01*
X65201939Y-62035000D01*
X65401898Y-61995226D01*
X65590256Y-61917205D01*
X65759774Y-61803937D01*
X65903937Y-61659774D01*
X66017205Y-61490256D01*
X66095226Y-61301898D01*
X66135000Y-61101939D01*
X66135000Y-60898061D01*
X66095226Y-60698102D01*
X66017205Y-60509744D01*
X65903937Y-60340226D01*
X65790951Y-60227240D01*
X65951898Y-60195226D01*
X66140256Y-60117205D01*
X66309774Y-60003937D01*
X66453937Y-59859774D01*
X66506423Y-59781224D01*
X72740000Y-66014802D01*
X72740001Y-68942668D01*
X72736324Y-68980000D01*
X72740001Y-69017333D01*
X72744253Y-69060498D01*
X72750998Y-69128985D01*
X72794454Y-69272246D01*
X72865026Y-69404276D01*
X72936201Y-69491002D01*
X72960000Y-69520001D01*
X72988998Y-69543799D01*
X74152746Y-70707548D01*
X74082870Y-70937898D01*
X74059025Y-71180000D01*
X74082870Y-71422102D01*
X74153489Y-71654901D01*
X74268167Y-71869449D01*
X74422498Y-72057502D01*
X74610551Y-72211833D01*
X74825099Y-72326511D01*
X75057898Y-72397130D01*
X75239335Y-72415000D01*
X76160665Y-72415000D01*
X76342102Y-72397130D01*
X76574901Y-72326511D01*
X76789449Y-72211833D01*
X76977502Y-72057502D01*
X77131833Y-71869449D01*
X77246511Y-71654901D01*
X77317130Y-71422102D01*
X77340975Y-71180000D01*
X77317130Y-70937898D01*
X77246511Y-70705099D01*
X77131833Y-70490551D01*
X76977502Y-70302498D01*
X76789449Y-70148167D01*
X76574901Y-70033489D01*
X76342102Y-69962870D01*
X76160665Y-69945000D01*
X75539802Y-69945000D01*
X75469802Y-69875000D01*
X76160665Y-69875000D01*
X76342102Y-69857130D01*
X76574901Y-69786511D01*
X76789449Y-69671833D01*
X76977502Y-69517502D01*
X77131833Y-69329449D01*
X77246511Y-69114901D01*
X77317130Y-68882102D01*
X77340975Y-68640000D01*
X77317130Y-68397898D01*
X77246511Y-68165099D01*
X77131833Y-67950551D01*
X76977502Y-67762498D01*
X76789449Y-67608167D01*
X76574901Y-67493489D01*
X76342102Y-67422870D01*
X76160665Y-67405000D01*
X75539802Y-67405000D01*
X75469801Y-67335000D01*
X76160665Y-67335000D01*
X76342102Y-67317130D01*
X76574901Y-67246511D01*
X76789449Y-67131833D01*
X76977502Y-66977502D01*
X77131833Y-66789449D01*
X77246511Y-66574901D01*
X77317130Y-66342102D01*
X77340975Y-66100000D01*
X77317130Y-65857898D01*
X77246511Y-65625099D01*
X77131833Y-65410551D01*
X76977502Y-65222498D01*
X76789449Y-65068167D01*
X76574901Y-64953489D01*
X76342102Y-64882870D01*
X76160665Y-64865000D01*
X75239335Y-64865000D01*
X75057898Y-64882870D01*
X74825099Y-64953489D01*
X74729428Y-65004626D01*
X73284802Y-63560000D01*
X74059025Y-63560000D01*
X74082870Y-63802102D01*
X74153489Y-64034901D01*
X74268167Y-64249449D01*
X74422498Y-64437502D01*
X74610551Y-64591833D01*
X74825099Y-64706511D01*
X75057898Y-64777130D01*
X75239335Y-64795000D01*
X76160665Y-64795000D01*
X76342102Y-64777130D01*
X76574901Y-64706511D01*
X76789449Y-64591833D01*
X76977502Y-64437502D01*
X77131833Y-64249449D01*
X77246511Y-64034901D01*
X77317130Y-63802102D01*
X77340975Y-63560000D01*
X77317130Y-63317898D01*
X77246511Y-63085099D01*
X77131833Y-62870551D01*
X76977502Y-62682498D01*
X76789449Y-62528167D01*
X76574901Y-62413489D01*
X76342102Y-62342870D01*
X76160665Y-62325000D01*
X75239335Y-62325000D01*
X75057898Y-62342870D01*
X74825099Y-62413489D01*
X74610551Y-62528167D01*
X74422498Y-62682498D01*
X74268167Y-62870551D01*
X74153489Y-63085099D01*
X74082870Y-63317898D01*
X74059025Y-63560000D01*
X73284802Y-63560000D01*
X70744802Y-61020000D01*
X74059025Y-61020000D01*
X74082870Y-61262102D01*
X74153489Y-61494901D01*
X74268167Y-61709449D01*
X74422498Y-61897502D01*
X74610551Y-62051833D01*
X74825099Y-62166511D01*
X75057898Y-62237130D01*
X75239335Y-62255000D01*
X76160665Y-62255000D01*
X76342102Y-62237130D01*
X76574901Y-62166511D01*
X76789449Y-62051833D01*
X76977502Y-61897502D01*
X77131833Y-61709449D01*
X77246511Y-61494901D01*
X77317130Y-61262102D01*
X77340975Y-61020000D01*
X77317130Y-60777898D01*
X77246511Y-60545099D01*
X77131833Y-60330551D01*
X76977502Y-60142498D01*
X76789449Y-59988167D01*
X76574901Y-59873489D01*
X76342102Y-59802870D01*
X76160665Y-59785000D01*
X75239335Y-59785000D01*
X75057898Y-59802870D01*
X74825099Y-59873489D01*
X74610551Y-59988167D01*
X74422498Y-60142498D01*
X74268167Y-60330551D01*
X74153489Y-60545099D01*
X74082870Y-60777898D01*
X74059025Y-61020000D01*
X70744802Y-61020000D01*
X63263804Y-53539003D01*
X63240001Y-53509999D01*
X63124276Y-53415026D01*
X62992247Y-53344454D01*
X62848986Y-53300997D01*
X62737333Y-53290000D01*
X62737322Y-53290000D01*
X62737104Y-53289978D01*
X62720472Y-53235150D01*
X62638405Y-53081614D01*
X62527962Y-52947038D01*
X62393386Y-52836595D01*
X62239850Y-52754528D01*
X62073254Y-52703992D01*
X61900000Y-52686928D01*
X61400000Y-52686928D01*
X61365161Y-52690359D01*
X61063794Y-52388993D01*
X61039991Y-52359989D01*
X60924266Y-52265016D01*
X60792237Y-52194444D01*
X60648976Y-52150987D01*
X60537323Y-52139990D01*
X60537312Y-52139990D01*
X60499990Y-52136314D01*
X60462668Y-52139990D01*
X60297595Y-52139990D01*
X60306535Y-52095043D01*
X60395044Y-52006534D01*
X60428817Y-51978817D01*
X60539411Y-51844059D01*
X60621589Y-51690313D01*
X60672195Y-51523490D01*
X60685000Y-51393477D01*
X60685000Y-51393469D01*
X60689281Y-51350000D01*
X60685000Y-51306531D01*
X60685000Y-51144386D01*
X60750000Y-51065183D01*
X60822038Y-51152962D01*
X60956614Y-51263405D01*
X61110150Y-51345472D01*
X61276746Y-51396008D01*
X61450000Y-51413072D01*
X61950000Y-51413072D01*
X62123254Y-51396008D01*
X62289850Y-51345472D01*
X62443386Y-51263405D01*
X62577962Y-51152962D01*
X62688405Y-51018386D01*
X62770472Y-50864850D01*
X62821008Y-50698254D01*
X62838072Y-50525000D01*
X62838072Y-49575000D01*
X62821008Y-49401746D01*
X62770472Y-49235150D01*
X62688405Y-49081614D01*
X62577962Y-48947038D01*
X62443386Y-48836595D01*
X62289850Y-48754528D01*
X62123254Y-48703992D01*
X61950000Y-48686928D01*
X61450000Y-48686928D01*
X61415161Y-48690359D01*
X61113794Y-48388993D01*
X61089991Y-48359989D01*
X60974266Y-48265016D01*
X60842237Y-48194444D01*
X60698976Y-48150987D01*
X60587323Y-48139990D01*
X60587312Y-48139990D01*
X60549990Y-48136314D01*
X60512668Y-48139990D01*
X57937335Y-48139990D01*
X57900010Y-48136314D01*
X57862685Y-48139990D01*
X57862677Y-48139990D01*
X57751024Y-48150987D01*
X57607763Y-48194444D01*
X57475734Y-48265016D01*
X57360009Y-48359989D01*
X57336211Y-48388987D01*
X57013201Y-48711997D01*
X57012501Y-48711928D01*
X56487499Y-48711928D01*
X56314245Y-48728992D01*
X56147649Y-48779528D01*
X55994113Y-48861595D01*
X55859538Y-48972038D01*
X55837500Y-48998891D01*
X55815462Y-48972038D01*
X55680887Y-48861595D01*
X55527351Y-48779528D01*
X55360755Y-48728992D01*
X55187501Y-48711928D01*
X54665689Y-48711928D01*
X54660011Y-48705009D01*
X54544286Y-48610036D01*
X54412257Y-48539464D01*
X54268996Y-48496007D01*
X54157343Y-48485010D01*
X54157332Y-48485010D01*
X54120010Y-48481334D01*
X54082688Y-48485010D01*
X51924723Y-48485010D01*
X51940975Y-48320000D01*
X51917130Y-48077898D01*
X51846511Y-47845099D01*
X51731833Y-47630551D01*
X51577502Y-47442498D01*
X51389449Y-47288167D01*
X51174901Y-47173489D01*
X50942102Y-47102870D01*
X50760665Y-47085000D01*
X49839335Y-47085000D01*
X49657898Y-47102870D01*
X49425099Y-47173489D01*
X49210551Y-47288167D01*
X49022498Y-47442498D01*
X48868167Y-47630551D01*
X48753489Y-47845099D01*
X48682870Y-48077898D01*
X48659025Y-48320000D01*
X48675277Y-48485010D01*
X46209812Y-48485010D01*
X44565442Y-46840641D01*
X44522168Y-46623088D01*
X44444259Y-46434999D01*
X48849753Y-46434999D01*
X48868167Y-46469449D01*
X49022498Y-46657502D01*
X49210551Y-46811833D01*
X49425099Y-46926511D01*
X49657898Y-46997130D01*
X49839335Y-47015000D01*
X50760665Y-47015000D01*
X50942102Y-46997130D01*
X51174901Y-46926511D01*
X51389449Y-46811833D01*
X51577502Y-46657502D01*
X51731833Y-46469449D01*
X51846511Y-46254901D01*
X51917130Y-46022102D01*
X51940975Y-45780000D01*
X51917130Y-45537898D01*
X51846511Y-45305099D01*
X51731833Y-45090551D01*
X51577502Y-44902498D01*
X51389449Y-44748167D01*
X51174901Y-44633489D01*
X50942102Y-44562870D01*
X50760665Y-44545000D01*
X49839335Y-44545000D01*
X49657898Y-44562870D01*
X49425099Y-44633489D01*
X49210551Y-44748167D01*
X49022498Y-44902498D01*
X49012239Y-44914999D01*
X37303321Y-44914999D01*
X37265998Y-44911323D01*
X37228675Y-44914999D01*
X37228666Y-44914999D01*
X37117013Y-44925996D01*
X36973752Y-44969453D01*
X36841723Y-45040025D01*
X36725998Y-45134998D01*
X36702200Y-45163996D01*
X32763997Y-49102200D01*
X32734999Y-49125998D01*
X32711201Y-49154996D01*
X32711200Y-49154997D01*
X32640025Y-49241723D01*
X32569453Y-49373753D01*
X32555066Y-49421183D01*
X32525997Y-49517013D01*
X32517441Y-49603884D01*
X32511323Y-49665999D01*
X32515000Y-49703331D01*
X32514999Y-59610199D01*
X29284839Y-62840359D01*
X29250000Y-62836928D01*
X28834990Y-62836928D01*
X28834990Y-61041731D01*
X28903966Y-61078599D01*
X29183889Y-61163513D01*
X29402050Y-61185000D01*
X29797950Y-61185000D01*
X30016111Y-61163513D01*
X30296034Y-61078599D01*
X30554014Y-60940706D01*
X30780134Y-60755134D01*
X30965706Y-60529014D01*
X31103599Y-60271034D01*
X31188513Y-59991111D01*
X31217185Y-59700000D01*
X31188513Y-59408889D01*
X31103599Y-59128966D01*
X30965706Y-58870986D01*
X30780134Y-58644866D01*
X30554014Y-58459294D01*
X30536626Y-58450000D01*
X30554014Y-58440706D01*
X30780134Y-58255134D01*
X30965706Y-58029014D01*
X31103599Y-57771034D01*
X31188513Y-57491111D01*
X31217185Y-57200000D01*
X31188513Y-56908889D01*
X31103599Y-56628966D01*
X30965706Y-56370986D01*
X30780134Y-56144866D01*
X30554014Y-55959294D01*
X30536626Y-55950000D01*
X30554014Y-55940706D01*
X30780134Y-55755134D01*
X30965706Y-55529014D01*
X31103599Y-55271034D01*
X31188513Y-54991111D01*
X31217185Y-54700000D01*
X31188513Y-54408889D01*
X31103599Y-54128966D01*
X30965706Y-53870986D01*
X30780134Y-53644866D01*
X30554014Y-53459294D01*
X30536626Y-53450000D01*
X30554014Y-53440706D01*
X30780134Y-53255134D01*
X30965706Y-53029014D01*
X31103599Y-52771034D01*
X31188513Y-52491111D01*
X31217185Y-52200000D01*
X31188513Y-51908889D01*
X31103599Y-51628966D01*
X30965706Y-51370986D01*
X30780134Y-51144866D01*
X30554014Y-50959294D01*
X30536626Y-50950000D01*
X30554014Y-50940706D01*
X30780134Y-50755134D01*
X30965706Y-50529014D01*
X31103599Y-50271034D01*
X31188513Y-49991111D01*
X31217185Y-49700000D01*
X31188513Y-49408889D01*
X31103599Y-49128966D01*
X30965706Y-48870986D01*
X30780134Y-48644866D01*
X30554014Y-48459294D01*
X30536626Y-48450000D01*
X30554014Y-48440706D01*
X30780134Y-48255134D01*
X30965706Y-48029014D01*
X31103599Y-47771034D01*
X31188513Y-47491111D01*
X31217185Y-47200000D01*
X31188513Y-46908889D01*
X31103599Y-46628966D01*
X30965706Y-46370986D01*
X30780134Y-46144866D01*
X30554014Y-45959294D01*
X30536626Y-45950000D01*
X30554014Y-45940706D01*
X30780134Y-45755134D01*
X30965706Y-45529014D01*
X31103599Y-45271034D01*
X31188513Y-44991111D01*
X31217185Y-44700000D01*
X31188513Y-44408889D01*
X31103599Y-44128966D01*
X30965706Y-43870986D01*
X30780134Y-43644866D01*
X30716663Y-43592777D01*
X30818386Y-43538405D01*
X30952962Y-43427962D01*
X31063405Y-43293386D01*
X31091940Y-43240000D01*
X48659025Y-43240000D01*
X48682870Y-43482102D01*
X48753489Y-43714901D01*
X48868167Y-43929449D01*
X49022498Y-44117502D01*
X49210551Y-44271833D01*
X49425099Y-44386511D01*
X49657898Y-44457130D01*
X49839335Y-44475000D01*
X50760665Y-44475000D01*
X50942102Y-44457130D01*
X51174901Y-44386511D01*
X51389449Y-44271833D01*
X51577502Y-44117502D01*
X51731833Y-43929449D01*
X51846511Y-43714901D01*
X51917130Y-43482102D01*
X51940975Y-43240000D01*
X51917130Y-42997898D01*
X51846511Y-42765099D01*
X51731833Y-42550551D01*
X51577502Y-42362498D01*
X51389449Y-42208167D01*
X51174901Y-42093489D01*
X50942102Y-42022870D01*
X50760665Y-42005000D01*
X49839335Y-42005000D01*
X49657898Y-42022870D01*
X49425099Y-42093489D01*
X49210551Y-42208167D01*
X49022498Y-42362498D01*
X48868167Y-42550551D01*
X48753489Y-42765099D01*
X48682870Y-42997898D01*
X48659025Y-43240000D01*
X31091940Y-43240000D01*
X31145472Y-43139850D01*
X31196008Y-42973254D01*
X31213072Y-42800000D01*
X31213072Y-41600000D01*
X31196008Y-41426746D01*
X31145472Y-41260150D01*
X31063405Y-41106614D01*
X30952962Y-40972038D01*
X30818386Y-40861595D01*
X30664850Y-40779528D01*
X30498254Y-40728992D01*
X30325000Y-40711928D01*
X28875000Y-40711928D01*
X28834990Y-40715869D01*
X28834990Y-38400000D01*
X35411928Y-38400000D01*
X35424188Y-38524482D01*
X35460498Y-38644180D01*
X35519463Y-38754494D01*
X35598815Y-38851185D01*
X35695506Y-38930537D01*
X35805820Y-38989502D01*
X35925518Y-39025812D01*
X36050000Y-39038072D01*
X36764250Y-39035000D01*
X36923000Y-38876250D01*
X36923000Y-37527000D01*
X37177000Y-37527000D01*
X37177000Y-38876250D01*
X37335750Y-39035000D01*
X38050000Y-39038072D01*
X38174482Y-39025812D01*
X38294180Y-38989502D01*
X38404494Y-38930537D01*
X38501185Y-38851185D01*
X38580537Y-38754494D01*
X38639502Y-38644180D01*
X38675812Y-38524482D01*
X38688072Y-38400000D01*
X38685000Y-37685750D01*
X38526250Y-37527000D01*
X37177000Y-37527000D01*
X36923000Y-37527000D01*
X35573750Y-37527000D01*
X35415000Y-37685750D01*
X35411928Y-38400000D01*
X28834990Y-38400000D01*
X28834990Y-37174590D01*
X29609580Y-36400000D01*
X35411928Y-36400000D01*
X35415000Y-37114250D01*
X35573750Y-37273000D01*
X36923000Y-37273000D01*
X36923000Y-35923750D01*
X37177000Y-35923750D01*
X37177000Y-37273000D01*
X38526250Y-37273000D01*
X38685000Y-37114250D01*
X38688072Y-36400000D01*
X38675812Y-36275518D01*
X38639502Y-36155820D01*
X38580537Y-36045506D01*
X38501185Y-35948815D01*
X38404494Y-35869463D01*
X38294180Y-35810498D01*
X38174482Y-35774188D01*
X38050000Y-35761928D01*
X37335750Y-35765000D01*
X37177000Y-35923750D01*
X36923000Y-35923750D01*
X36764250Y-35765000D01*
X36050000Y-35761928D01*
X35925518Y-35774188D01*
X35805820Y-35810498D01*
X35695506Y-35869463D01*
X35598815Y-35948815D01*
X35519463Y-36045506D01*
X35460498Y-36155820D01*
X35424188Y-36275518D01*
X35411928Y-36400000D01*
X29609580Y-36400000D01*
X30389580Y-35620000D01*
X48659025Y-35620000D01*
X48682870Y-35862102D01*
X48753489Y-36094901D01*
X48868167Y-36309449D01*
X49022498Y-36497502D01*
X49210551Y-36651833D01*
X49425099Y-36766511D01*
X49657898Y-36837130D01*
X49839335Y-36855000D01*
X50760665Y-36855000D01*
X50942102Y-36837130D01*
X51174901Y-36766511D01*
X51389449Y-36651833D01*
X51577502Y-36497502D01*
X51731833Y-36309449D01*
X51846511Y-36094901D01*
X51917130Y-35862102D01*
X51940975Y-35620000D01*
X51917130Y-35377898D01*
X51846511Y-35145099D01*
X51731833Y-34930551D01*
X51577502Y-34742498D01*
X51389449Y-34588167D01*
X51174901Y-34473489D01*
X50942102Y-34402870D01*
X50760665Y-34385000D01*
X49839335Y-34385000D01*
X49657898Y-34402870D01*
X49425099Y-34473489D01*
X49210551Y-34588167D01*
X49022498Y-34742498D01*
X48868167Y-34930551D01*
X48753489Y-35145099D01*
X48682870Y-35377898D01*
X48659025Y-35620000D01*
X30389580Y-35620000D01*
X32495050Y-33514530D01*
X32528817Y-33486819D01*
X32600901Y-33398986D01*
X32639411Y-33352061D01*
X32693963Y-33250000D01*
X32721589Y-33198315D01*
X32757480Y-33080000D01*
X48659025Y-33080000D01*
X48682870Y-33322102D01*
X48753489Y-33554901D01*
X48868167Y-33769449D01*
X49022498Y-33957502D01*
X49210551Y-34111833D01*
X49425099Y-34226511D01*
X49657898Y-34297130D01*
X49839335Y-34315000D01*
X50760665Y-34315000D01*
X50942102Y-34297130D01*
X51174901Y-34226511D01*
X51389449Y-34111833D01*
X51577502Y-33957502D01*
X51731833Y-33769449D01*
X51846511Y-33554901D01*
X51917130Y-33322102D01*
X51940975Y-33080000D01*
X51917130Y-32837898D01*
X51846511Y-32605099D01*
X51731833Y-32390551D01*
X51577502Y-32202498D01*
X51389449Y-32048167D01*
X51174901Y-31933489D01*
X50942102Y-31862870D01*
X50760665Y-31845000D01*
X49839335Y-31845000D01*
X49657898Y-31862870D01*
X49425099Y-31933489D01*
X49210551Y-32048167D01*
X49022498Y-32202498D01*
X48868167Y-32390551D01*
X48753489Y-32605099D01*
X48682870Y-32837898D01*
X48659025Y-33080000D01*
X32757480Y-33080000D01*
X32772195Y-33031492D01*
X32785000Y-32901479D01*
X32785000Y-32901471D01*
X32789281Y-32858002D01*
X32785000Y-32814533D01*
X32785000Y-30540000D01*
X48659025Y-30540000D01*
X48682870Y-30782102D01*
X48753489Y-31014901D01*
X48868167Y-31229449D01*
X49022498Y-31417502D01*
X49210551Y-31571833D01*
X49425099Y-31686511D01*
X49657898Y-31757130D01*
X49839335Y-31775000D01*
X50760665Y-31775000D01*
X50942102Y-31757130D01*
X51174901Y-31686511D01*
X51389449Y-31571833D01*
X51577502Y-31417502D01*
X51731833Y-31229449D01*
X51846511Y-31014901D01*
X51917130Y-30782102D01*
X51940975Y-30540000D01*
X51917130Y-30297898D01*
X51846511Y-30065099D01*
X51731833Y-29850551D01*
X51577502Y-29662498D01*
X51389449Y-29508167D01*
X51174901Y-29393489D01*
X50942102Y-29322870D01*
X50760665Y-29305000D01*
X49839335Y-29305000D01*
X49657898Y-29322870D01*
X49425099Y-29393489D01*
X49210551Y-29508167D01*
X49022498Y-29662498D01*
X48868167Y-29850551D01*
X48753489Y-30065099D01*
X48682870Y-30297898D01*
X48659025Y-30540000D01*
X32785000Y-30540000D01*
X32785000Y-25994613D01*
X32843386Y-25963405D01*
X32977962Y-25852962D01*
X33088405Y-25718386D01*
X33170472Y-25564850D01*
X33179527Y-25535000D01*
X34511928Y-25535000D01*
X34511928Y-25550000D01*
X34524188Y-25674482D01*
X34560498Y-25794180D01*
X34619463Y-25904494D01*
X34698815Y-26001185D01*
X34795506Y-26080537D01*
X34905820Y-26139502D01*
X35025518Y-26175812D01*
X35150000Y-26188072D01*
X37650000Y-26188072D01*
X37774482Y-26175812D01*
X37894180Y-26139502D01*
X38004494Y-26080537D01*
X38101185Y-26001185D01*
X38180537Y-25904494D01*
X38239502Y-25794180D01*
X38275812Y-25674482D01*
X38288072Y-25550000D01*
X38288072Y-23750000D01*
X38275812Y-23625518D01*
X38239502Y-23505820D01*
X38180537Y-23395506D01*
X38101185Y-23298815D01*
X38004494Y-23219463D01*
X37894180Y-23160498D01*
X37774482Y-23124188D01*
X37650000Y-23111928D01*
X35150000Y-23111928D01*
X35025518Y-23124188D01*
X34905820Y-23160498D01*
X34795506Y-23219463D01*
X34698815Y-23298815D01*
X34619463Y-23395506D01*
X34560498Y-23505820D01*
X34524188Y-23625518D01*
X34511928Y-23750000D01*
X34511928Y-23765000D01*
X33237087Y-23765000D01*
X33221008Y-23601746D01*
X33170472Y-23435150D01*
X33088405Y-23281614D01*
X32977962Y-23147038D01*
X32843386Y-23036595D01*
X32746857Y-22984999D01*
X42655741Y-22984999D01*
X42577832Y-23173088D01*
X42515000Y-23488967D01*
X42515000Y-23811033D01*
X42577832Y-24126912D01*
X42701082Y-24424463D01*
X42880013Y-24692252D01*
X43107748Y-24919987D01*
X43375537Y-25098918D01*
X43673088Y-25222168D01*
X43988967Y-25285000D01*
X44311033Y-25285000D01*
X44626912Y-25222168D01*
X44924463Y-25098918D01*
X45192252Y-24919987D01*
X45419987Y-24692252D01*
X45598918Y-24424463D01*
X45722168Y-24126912D01*
X45785000Y-23811033D01*
X45785000Y-23509801D01*
X46011928Y-23736729D01*
X46011928Y-25450000D01*
X46024188Y-25574482D01*
X46060498Y-25694180D01*
X46119463Y-25804494D01*
X46198815Y-25901185D01*
X46295506Y-25980537D01*
X46405820Y-26039502D01*
X46525518Y-26075812D01*
X46650000Y-26088072D01*
X48710350Y-26088072D01*
X47033422Y-27765000D01*
X45788072Y-27765000D01*
X45788072Y-27650000D01*
X45775812Y-27525518D01*
X45739502Y-27405820D01*
X45680537Y-27295506D01*
X45601185Y-27198815D01*
X45504494Y-27119463D01*
X45394180Y-27060498D01*
X45274482Y-27024188D01*
X45150000Y-27011928D01*
X43763507Y-27011928D01*
X42288072Y-25536494D01*
X42288072Y-23750000D01*
X42275812Y-23625518D01*
X42239502Y-23505820D01*
X42180537Y-23395506D01*
X42101185Y-23298815D01*
X42004494Y-23219463D01*
X41894180Y-23160498D01*
X41774482Y-23124188D01*
X41650000Y-23111928D01*
X39150000Y-23111928D01*
X39025518Y-23124188D01*
X38905820Y-23160498D01*
X38795506Y-23219463D01*
X38698815Y-23298815D01*
X38619463Y-23395506D01*
X38560498Y-23505820D01*
X38524188Y-23625518D01*
X38511928Y-23750000D01*
X38511928Y-25550000D01*
X38524188Y-25674482D01*
X38560498Y-25794180D01*
X38619463Y-25904494D01*
X38698815Y-26001185D01*
X38795506Y-26080537D01*
X38905820Y-26139502D01*
X39025518Y-26175812D01*
X39150000Y-26188072D01*
X40436494Y-26188072D01*
X42511928Y-28263507D01*
X42511928Y-29650000D01*
X42524188Y-29774482D01*
X42560498Y-29894180D01*
X42619463Y-30004494D01*
X42698815Y-30101185D01*
X42795506Y-30180537D01*
X42905820Y-30239502D01*
X43025518Y-30275812D01*
X43150000Y-30288072D01*
X45150000Y-30288072D01*
X45274482Y-30275812D01*
X45394180Y-30239502D01*
X45504494Y-30180537D01*
X45601185Y-30101185D01*
X45680537Y-30004494D01*
X45739502Y-29894180D01*
X45775812Y-29774482D01*
X45788072Y-29650000D01*
X45788072Y-29535000D01*
X47356531Y-29535000D01*
X47400000Y-29539281D01*
X47443469Y-29535000D01*
X47443477Y-29535000D01*
X47573490Y-29522195D01*
X47740313Y-29471589D01*
X47894059Y-29389411D01*
X48028817Y-29278817D01*
X48056534Y-29245044D01*
X51213507Y-26088072D01*
X53150000Y-26088072D01*
X53274482Y-26075812D01*
X53382002Y-26043196D01*
X52588998Y-26836201D01*
X52560000Y-26859999D01*
X52536202Y-26888997D01*
X52536201Y-26888998D01*
X52465026Y-26975724D01*
X52394454Y-27107754D01*
X52350998Y-27251015D01*
X52336324Y-27400000D01*
X52340001Y-27437332D01*
X52340000Y-29362667D01*
X52340000Y-29362668D01*
X52340001Y-31347670D01*
X52336324Y-31385002D01*
X52340001Y-31422335D01*
X52350998Y-31533988D01*
X52355794Y-31549799D01*
X52394454Y-31677248D01*
X52465026Y-31809278D01*
X52536201Y-31896004D01*
X52560000Y-31925003D01*
X52588998Y-31948801D01*
X53018945Y-32378749D01*
X53011928Y-32450000D01*
X53011928Y-33250000D01*
X53024188Y-33374482D01*
X53060498Y-33494180D01*
X53119463Y-33604494D01*
X53198815Y-33701185D01*
X53215001Y-33714468D01*
X53215001Y-34056522D01*
X53210719Y-34100000D01*
X53227805Y-34273490D01*
X53278412Y-34440313D01*
X53360590Y-34594059D01*
X53443468Y-34695046D01*
X53443471Y-34695049D01*
X53471184Y-34728817D01*
X53504952Y-34756530D01*
X53593465Y-34845043D01*
X53604774Y-34901898D01*
X53682795Y-35090256D01*
X53796063Y-35259774D01*
X53940226Y-35403937D01*
X54109744Y-35517205D01*
X54298102Y-35595226D01*
X54498061Y-35635000D01*
X54701939Y-35635000D01*
X54901898Y-35595226D01*
X55090256Y-35517205D01*
X55259774Y-35403937D01*
X55403937Y-35259774D01*
X55517205Y-35090256D01*
X55595226Y-34901898D01*
X55635000Y-34701939D01*
X55635000Y-34498061D01*
X55595226Y-34298102D01*
X55517205Y-34109744D01*
X55403937Y-33940226D01*
X55259774Y-33796063D01*
X55090256Y-33682795D01*
X55035045Y-33659926D01*
X55080537Y-33604494D01*
X55139502Y-33494180D01*
X55175812Y-33374482D01*
X55188072Y-33250000D01*
X55188072Y-32738095D01*
X55198815Y-32751185D01*
X55295506Y-32830537D01*
X55405820Y-32889502D01*
X55525518Y-32925812D01*
X55650000Y-32938072D01*
X56550000Y-32938072D01*
X56674482Y-32925812D01*
X56794180Y-32889502D01*
X56904494Y-32830537D01*
X57001185Y-32751185D01*
X57080537Y-32654494D01*
X57139502Y-32544180D01*
X57139901Y-32542863D01*
X57451196Y-32854158D01*
X57448102Y-32854774D01*
X57259744Y-32932795D01*
X57090226Y-33046063D01*
X56946063Y-33190226D01*
X56832795Y-33359744D01*
X56754774Y-33548102D01*
X56715000Y-33748061D01*
X56715000Y-33951939D01*
X56754774Y-34151898D01*
X56832795Y-34340256D01*
X56890001Y-34425871D01*
X56890000Y-40246289D01*
X56846063Y-40290226D01*
X56732795Y-40459744D01*
X56654774Y-40648102D01*
X56615000Y-40848061D01*
X56615000Y-40940199D01*
X54938794Y-39263993D01*
X54914991Y-39234989D01*
X54799266Y-39140016D01*
X54667237Y-39069444D01*
X54523976Y-39025987D01*
X54412323Y-39014990D01*
X54412312Y-39014990D01*
X54374990Y-39011314D01*
X54337668Y-39014990D01*
X51595977Y-39014990D01*
X51731833Y-38849449D01*
X51846511Y-38634901D01*
X51917130Y-38402102D01*
X51940975Y-38160000D01*
X51917130Y-37917898D01*
X51846511Y-37685099D01*
X51731833Y-37470551D01*
X51577502Y-37282498D01*
X51389449Y-37128167D01*
X51174901Y-37013489D01*
X50942102Y-36942870D01*
X50760665Y-36925000D01*
X49839335Y-36925000D01*
X49657898Y-36942870D01*
X49425099Y-37013489D01*
X49210551Y-37128167D01*
X49022498Y-37282498D01*
X48868167Y-37470551D01*
X48753489Y-37685099D01*
X48682870Y-37917898D01*
X48659025Y-38160000D01*
X48682870Y-38402102D01*
X48753489Y-38634901D01*
X48868167Y-38849449D01*
X49004023Y-39014990D01*
X47339792Y-39014990D01*
X46216177Y-37891376D01*
X46222168Y-37876912D01*
X46285000Y-37561033D01*
X46285000Y-37238967D01*
X46222168Y-36923088D01*
X46098918Y-36625537D01*
X45919987Y-36357748D01*
X45692252Y-36130013D01*
X45424463Y-35951082D01*
X45126912Y-35827832D01*
X44811033Y-35765000D01*
X44488967Y-35765000D01*
X44173088Y-35827832D01*
X43875537Y-35951082D01*
X43607748Y-36130013D01*
X43380013Y-36357748D01*
X43201082Y-36625537D01*
X43077832Y-36923088D01*
X43015000Y-37238967D01*
X43015000Y-37561033D01*
X43077832Y-37876912D01*
X43201082Y-38174463D01*
X43380013Y-38442252D01*
X43607748Y-38669987D01*
X43875537Y-38848918D01*
X44173088Y-38972168D01*
X44488967Y-39035000D01*
X44811033Y-39035000D01*
X45126912Y-38972168D01*
X45141376Y-38966177D01*
X46461190Y-40285992D01*
X46484989Y-40314991D01*
X46513987Y-40338789D01*
X46600713Y-40409964D01*
X46690391Y-40457898D01*
X46732743Y-40480536D01*
X46876004Y-40523993D01*
X46987657Y-40534990D01*
X46987666Y-40534990D01*
X47024989Y-40538666D01*
X47062312Y-40534990D01*
X48675277Y-40534990D01*
X48659025Y-40700000D01*
X48682870Y-40942102D01*
X48753489Y-41174901D01*
X48868167Y-41389449D01*
X49022498Y-41577502D01*
X49210551Y-41731833D01*
X49425099Y-41846511D01*
X49657898Y-41917130D01*
X49839335Y-41935000D01*
X50760665Y-41935000D01*
X50942102Y-41917130D01*
X51174901Y-41846511D01*
X51389449Y-41731833D01*
X51577502Y-41577502D01*
X51731833Y-41389449D01*
X51846511Y-41174901D01*
X51917130Y-40942102D01*
X51940975Y-40700000D01*
X51924723Y-40534990D01*
X54060189Y-40534990D01*
X58861928Y-45336730D01*
X58861928Y-45750000D01*
X58874188Y-45874482D01*
X58910498Y-45994180D01*
X58969463Y-46104494D01*
X59048815Y-46201185D01*
X59145506Y-46280537D01*
X59255820Y-46339502D01*
X59375518Y-46375812D01*
X59500000Y-46388072D01*
X60400000Y-46388072D01*
X60524482Y-46375812D01*
X60644180Y-46339502D01*
X60754494Y-46280537D01*
X60851185Y-46201185D01*
X60861928Y-46188095D01*
X60861928Y-46700000D01*
X60874188Y-46824482D01*
X60910498Y-46944180D01*
X60969463Y-47054494D01*
X61048815Y-47151185D01*
X61145506Y-47230537D01*
X61255820Y-47289502D01*
X61375518Y-47325812D01*
X61500000Y-47338072D01*
X62400000Y-47338072D01*
X62524482Y-47325812D01*
X62644180Y-47289502D01*
X62754494Y-47230537D01*
X62809981Y-47185000D01*
X68233422Y-47185000D01*
X74111602Y-53063181D01*
X74082870Y-53157898D01*
X74074785Y-53239984D01*
X71173804Y-50339003D01*
X71150001Y-50309999D01*
X71034276Y-50215026D01*
X70902247Y-50144454D01*
X70758986Y-50100997D01*
X70647333Y-50090000D01*
X70647322Y-50090000D01*
X70610000Y-50086324D01*
X70572678Y-50090000D01*
X67003711Y-50090000D01*
X66959774Y-50046063D01*
X66790256Y-49932795D01*
X66601898Y-49854774D01*
X66401939Y-49815000D01*
X66198061Y-49815000D01*
X65998102Y-49854774D01*
X65809744Y-49932795D01*
X65640226Y-50046063D01*
X65496063Y-50190226D01*
X65382795Y-50359744D01*
X65304774Y-50548102D01*
X65265000Y-50748061D01*
X65265000Y-50951939D01*
X65304774Y-51151898D01*
X65382795Y-51340256D01*
X65496063Y-51509774D01*
X65640226Y-51653937D01*
X65809744Y-51767205D01*
X65998102Y-51845226D01*
X66198061Y-51885000D01*
X66401939Y-51885000D01*
X66601898Y-51845226D01*
X66790256Y-51767205D01*
X66959774Y-51653937D01*
X67003711Y-51610000D01*
X70295199Y-51610000D01*
X74152746Y-55467548D01*
X74082870Y-55697898D01*
X74059025Y-55940000D01*
X74082870Y-56182102D01*
X74153489Y-56414901D01*
X74226733Y-56551931D01*
X71135000Y-53460199D01*
X71135000Y-53398061D01*
X71095226Y-53198102D01*
X71017205Y-53009744D01*
X70903937Y-52840226D01*
X70759774Y-52696063D01*
X70590256Y-52582795D01*
X70401898Y-52504774D01*
X70201939Y-52465000D01*
X69998061Y-52465000D01*
X69798102Y-52504774D01*
X69609744Y-52582795D01*
X69440226Y-52696063D01*
X69296063Y-52840226D01*
X69182795Y-53009744D01*
X69104774Y-53198102D01*
X69065000Y-53398061D01*
X69065000Y-53601939D01*
X69104774Y-53801898D01*
X69182795Y-53990256D01*
X69296063Y-54159774D01*
X69440226Y-54303937D01*
X69609744Y-54417205D01*
X69798102Y-54495226D01*
X69998061Y-54535000D01*
X70060199Y-54535000D01*
X74064906Y-58539708D01*
X74082870Y-58722102D01*
X74153489Y-58954901D01*
X74268167Y-59169449D01*
X74422498Y-59357502D01*
X74610551Y-59511833D01*
X74825099Y-59626511D01*
X75057898Y-59697130D01*
X75239335Y-59715000D01*
X76160665Y-59715000D01*
X76342102Y-59697130D01*
X76574901Y-59626511D01*
X76789449Y-59511833D01*
X76977502Y-59357502D01*
X77131833Y-59169449D01*
X77246511Y-58954901D01*
X77317130Y-58722102D01*
X77340975Y-58480000D01*
X77317130Y-58237898D01*
X77246511Y-58005099D01*
X77131833Y-57790551D01*
X76977502Y-57602498D01*
X76789449Y-57448167D01*
X76574901Y-57333489D01*
X76342102Y-57262870D01*
X76160665Y-57245000D01*
X75239335Y-57245000D01*
X75057898Y-57262870D01*
X74965654Y-57290852D01*
X74688069Y-57013267D01*
X74825099Y-57086511D01*
X75057898Y-57157130D01*
X75239335Y-57175000D01*
X76160665Y-57175000D01*
X76342102Y-57157130D01*
X76574901Y-57086511D01*
X76789449Y-56971833D01*
X76925718Y-56860000D01*
X77507973Y-56860000D01*
X77517028Y-56889851D01*
X77599095Y-57043387D01*
X77709538Y-57177962D01*
X77844113Y-57288405D01*
X77997649Y-57370472D01*
X78164245Y-57421008D01*
X78337499Y-57438072D01*
X78862501Y-57438072D01*
X79035755Y-57421008D01*
X79202351Y-57370472D01*
X79355887Y-57288405D01*
X79490462Y-57177962D01*
X79512500Y-57151109D01*
X79534538Y-57177962D01*
X79669113Y-57288405D01*
X79822649Y-57370472D01*
X79989245Y-57421008D01*
X80162499Y-57438072D01*
X80687501Y-57438072D01*
X80860755Y-57421008D01*
X81027351Y-57370472D01*
X81180887Y-57288405D01*
X81315462Y-57177962D01*
X81425905Y-57043387D01*
X81507972Y-56889851D01*
X81558508Y-56723255D01*
X81575572Y-56550001D01*
X81575572Y-55649999D01*
X81558508Y-55476745D01*
X81507972Y-55310149D01*
X81425905Y-55156613D01*
X81315462Y-55022038D01*
X81310000Y-55017555D01*
X81310000Y-51917703D01*
X81327962Y-51902962D01*
X81438405Y-51768386D01*
X81520472Y-51614850D01*
X81533544Y-51571756D01*
X81594059Y-51539411D01*
X81728817Y-51428817D01*
X81756534Y-51395044D01*
X81995043Y-51156535D01*
X82051898Y-51145226D01*
X82240256Y-51067205D01*
X82409774Y-50953937D01*
X82553937Y-50809774D01*
X82667205Y-50640256D01*
X82745226Y-50451898D01*
X82785000Y-50251939D01*
X82785000Y-50048061D01*
X82745226Y-49848102D01*
X82667205Y-49659744D01*
X82553937Y-49490226D01*
X82409774Y-49346063D01*
X82240256Y-49232795D01*
X82051898Y-49154774D01*
X81851939Y-49115000D01*
X81648061Y-49115000D01*
X81448102Y-49154774D01*
X81259744Y-49232795D01*
X81090226Y-49346063D01*
X80956918Y-49479371D01*
X80873254Y-49453992D01*
X80700000Y-49436928D01*
X80200000Y-49436928D01*
X80026746Y-49453992D01*
X79860150Y-49504528D01*
X79706614Y-49586595D01*
X79572038Y-49697038D01*
X79500000Y-49784817D01*
X79427962Y-49697038D01*
X79293386Y-49586595D01*
X79139850Y-49504528D01*
X78973254Y-49453992D01*
X78800000Y-49436928D01*
X78300000Y-49436928D01*
X78265161Y-49440359D01*
X77323386Y-48498585D01*
X77340975Y-48320000D01*
X77317130Y-48077898D01*
X77246511Y-47845099D01*
X77131833Y-47630551D01*
X76977502Y-47442498D01*
X76789449Y-47288167D01*
X76574901Y-47173489D01*
X76342102Y-47102870D01*
X76160665Y-47085000D01*
X75239335Y-47085000D01*
X75057898Y-47102870D01*
X74825099Y-47173489D01*
X74610551Y-47288167D01*
X74422498Y-47442498D01*
X74317310Y-47570670D01*
X72526640Y-45780000D01*
X74059025Y-45780000D01*
X74082870Y-46022102D01*
X74153489Y-46254901D01*
X74268167Y-46469449D01*
X74422498Y-46657502D01*
X74610551Y-46811833D01*
X74825099Y-46926511D01*
X75057898Y-46997130D01*
X75239335Y-47015000D01*
X76160665Y-47015000D01*
X76342102Y-46997130D01*
X76574901Y-46926511D01*
X76789449Y-46811833D01*
X76913533Y-46710000D01*
X80347405Y-46710000D01*
X80384294Y-46779014D01*
X80569866Y-47005134D01*
X80795986Y-47190706D01*
X81053966Y-47328599D01*
X81333889Y-47413513D01*
X81552050Y-47435000D01*
X81947950Y-47435000D01*
X82166111Y-47413513D01*
X82446034Y-47328599D01*
X82704014Y-47190706D01*
X82930134Y-47005134D01*
X83115706Y-46779014D01*
X83253599Y-46521034D01*
X83338513Y-46241111D01*
X83367185Y-45950000D01*
X83338513Y-45658889D01*
X83253599Y-45378966D01*
X83115706Y-45120986D01*
X82930134Y-44894866D01*
X82704014Y-44709294D01*
X82686626Y-44700000D01*
X82704014Y-44690706D01*
X82930134Y-44505134D01*
X83115706Y-44279014D01*
X83253599Y-44021034D01*
X83338513Y-43741111D01*
X83367185Y-43450000D01*
X83338513Y-43158889D01*
X83253599Y-42878966D01*
X83115706Y-42620986D01*
X82934392Y-42400055D01*
X82969180Y-42389502D01*
X83079494Y-42330537D01*
X83176185Y-42251185D01*
X83255537Y-42154494D01*
X83314502Y-42044180D01*
X83350812Y-41924482D01*
X83363072Y-41800000D01*
X83360000Y-41235750D01*
X83201250Y-41077000D01*
X81877000Y-41077000D01*
X81877000Y-41097000D01*
X81623000Y-41097000D01*
X81623000Y-41077000D01*
X80298750Y-41077000D01*
X80140000Y-41235750D01*
X80136928Y-41800000D01*
X80149188Y-41924482D01*
X80185498Y-42044180D01*
X80244463Y-42154494D01*
X80323815Y-42251185D01*
X80420506Y-42330537D01*
X80530820Y-42389502D01*
X80565608Y-42400055D01*
X80384294Y-42620986D01*
X80246401Y-42878966D01*
X80161487Y-43158889D01*
X80132815Y-43450000D01*
X80161487Y-43741111D01*
X80246401Y-44021034D01*
X80384294Y-44279014D01*
X80569866Y-44505134D01*
X80795986Y-44690706D01*
X80813374Y-44700000D01*
X80795986Y-44709294D01*
X80569866Y-44894866D01*
X80384294Y-45120986D01*
X80347405Y-45190000D01*
X77184989Y-45190000D01*
X77131833Y-45090551D01*
X76977502Y-44902498D01*
X76789449Y-44748167D01*
X76574901Y-44633489D01*
X76342102Y-44562870D01*
X76160665Y-44545000D01*
X75239335Y-44545000D01*
X75057898Y-44562870D01*
X74825099Y-44633489D01*
X74610551Y-44748167D01*
X74422498Y-44902498D01*
X74268167Y-45090551D01*
X74153489Y-45305099D01*
X74082870Y-45537898D01*
X74059025Y-45780000D01*
X72526640Y-45780000D01*
X69986640Y-43240000D01*
X74059025Y-43240000D01*
X74082870Y-43482102D01*
X74153489Y-43714901D01*
X74268167Y-43929449D01*
X74422498Y-44117502D01*
X74610551Y-44271833D01*
X74825099Y-44386511D01*
X75057898Y-44457130D01*
X75239335Y-44475000D01*
X76160665Y-44475000D01*
X76342102Y-44457130D01*
X76574901Y-44386511D01*
X76789449Y-44271833D01*
X76977502Y-44117502D01*
X77131833Y-43929449D01*
X77246511Y-43714901D01*
X77317130Y-43482102D01*
X77340975Y-43240000D01*
X77317130Y-42997898D01*
X77246511Y-42765099D01*
X77131833Y-42550551D01*
X76977502Y-42362498D01*
X76789449Y-42208167D01*
X76574901Y-42093489D01*
X76342102Y-42022870D01*
X76160665Y-42005000D01*
X75239335Y-42005000D01*
X75057898Y-42022870D01*
X74825099Y-42093489D01*
X74610551Y-42208167D01*
X74422498Y-42362498D01*
X74268167Y-42550551D01*
X74153489Y-42765099D01*
X74082870Y-42997898D01*
X74059025Y-43240000D01*
X69986640Y-43240000D01*
X57185643Y-30439003D01*
X57161840Y-30409999D01*
X57046115Y-30315026D01*
X56914086Y-30244454D01*
X56770825Y-30200997D01*
X56659172Y-30190000D01*
X56659161Y-30190000D01*
X56621839Y-30186324D01*
X56584517Y-30190000D01*
X55076018Y-30190000D01*
X55001185Y-30098815D01*
X54904494Y-30019463D01*
X54794180Y-29960498D01*
X54674482Y-29924188D01*
X54550000Y-29911928D01*
X53860000Y-29911928D01*
X53860000Y-27714801D01*
X54489802Y-27085000D01*
X54551939Y-27085000D01*
X54751898Y-27045226D01*
X54940256Y-26967205D01*
X55109774Y-26853937D01*
X55253937Y-26709774D01*
X55367205Y-26540256D01*
X55445226Y-26351898D01*
X55485000Y-26151939D01*
X55485000Y-25948061D01*
X55445226Y-25748102D01*
X55422883Y-25694161D01*
X55570986Y-25815706D01*
X55828966Y-25953599D01*
X56108889Y-26038513D01*
X56400000Y-26067185D01*
X56691110Y-26038513D01*
X56804358Y-26004159D01*
X61890000Y-31089803D01*
X61890000Y-31151939D01*
X61929774Y-31351898D01*
X62007795Y-31540256D01*
X62121063Y-31709774D01*
X62265226Y-31853937D01*
X62434744Y-31967205D01*
X62623102Y-32045226D01*
X62823061Y-32085000D01*
X62890000Y-32085000D01*
X62890000Y-32546289D01*
X62846063Y-32590226D01*
X62732795Y-32759744D01*
X62654774Y-32948102D01*
X62615000Y-33148061D01*
X62615000Y-33351939D01*
X62654774Y-33551898D01*
X62732795Y-33740256D01*
X62846063Y-33909774D01*
X62990226Y-34053937D01*
X63159744Y-34167205D01*
X63348102Y-34245226D01*
X63548061Y-34285000D01*
X63751939Y-34285000D01*
X63951898Y-34245226D01*
X64140256Y-34167205D01*
X64309774Y-34053937D01*
X64453937Y-33909774D01*
X64567205Y-33740256D01*
X64645226Y-33551898D01*
X64685000Y-33351939D01*
X64685000Y-33148061D01*
X64645226Y-32948102D01*
X64567205Y-32759744D01*
X64453937Y-32590226D01*
X64410000Y-32546289D01*
X64410000Y-25972113D01*
X64471033Y-25953599D01*
X64729013Y-25815706D01*
X64955134Y-25630134D01*
X65140706Y-25404014D01*
X65150000Y-25386626D01*
X65159294Y-25404013D01*
X65344866Y-25630134D01*
X65570986Y-25815706D01*
X65640000Y-25852595D01*
X65640001Y-29920668D01*
X65636324Y-29958000D01*
X65640001Y-29995333D01*
X65650998Y-30106986D01*
X65664180Y-30150442D01*
X65694454Y-30250246D01*
X65765026Y-30382276D01*
X65836201Y-30469002D01*
X65860000Y-30498001D01*
X65888998Y-30521799D01*
X66089997Y-30722798D01*
X66089928Y-30723499D01*
X66089928Y-31248501D01*
X66106992Y-31421755D01*
X66157528Y-31588351D01*
X66239595Y-31741887D01*
X66350038Y-31876462D01*
X66376891Y-31898500D01*
X66350038Y-31920538D01*
X66239595Y-32055113D01*
X66157528Y-32208649D01*
X66106992Y-32375245D01*
X66089928Y-32548499D01*
X66089928Y-33073501D01*
X66106992Y-33246755D01*
X66157528Y-33413351D01*
X66239595Y-33566887D01*
X66350038Y-33701462D01*
X66484613Y-33811905D01*
X66638149Y-33893972D01*
X66668000Y-33903027D01*
X66668001Y-34244973D01*
X66638149Y-34254028D01*
X66484613Y-34336095D01*
X66350038Y-34446538D01*
X66239595Y-34581113D01*
X66157528Y-34734649D01*
X66106992Y-34901245D01*
X66089928Y-35074499D01*
X66089928Y-35599501D01*
X66106992Y-35772755D01*
X66157528Y-35939351D01*
X66239595Y-36092887D01*
X66350038Y-36227462D01*
X66376891Y-36249500D01*
X66350038Y-36271538D01*
X66345555Y-36277000D01*
X66000454Y-36277000D01*
X65952256Y-36244795D01*
X65763898Y-36166774D01*
X65563939Y-36127000D01*
X65360061Y-36127000D01*
X65160102Y-36166774D01*
X64971744Y-36244795D01*
X64802226Y-36358063D01*
X64658063Y-36502226D01*
X64544795Y-36671744D01*
X64466774Y-36860102D01*
X64427000Y-37060061D01*
X64427000Y-37263939D01*
X64466774Y-37463898D01*
X64544795Y-37652256D01*
X64658063Y-37821774D01*
X64802226Y-37965937D01*
X64971744Y-38079205D01*
X65160102Y-38157226D01*
X65360061Y-38197000D01*
X65563939Y-38197000D01*
X65763898Y-38157226D01*
X65952256Y-38079205D01*
X66000454Y-38047000D01*
X66345555Y-38047000D01*
X66350038Y-38052462D01*
X66484613Y-38162905D01*
X66638149Y-38244972D01*
X66804745Y-38295508D01*
X66977999Y-38312572D01*
X67373717Y-38312572D01*
X67346063Y-38340226D01*
X67232795Y-38509744D01*
X67154774Y-38698102D01*
X67115000Y-38898061D01*
X67115000Y-39101939D01*
X67154774Y-39301898D01*
X67232795Y-39490256D01*
X67346063Y-39659774D01*
X67490226Y-39803937D01*
X67659744Y-39917205D01*
X67848102Y-39995226D01*
X68048061Y-40035000D01*
X68101623Y-40035000D01*
X68054774Y-40148102D01*
X68015000Y-40348061D01*
X68015000Y-40551939D01*
X68054774Y-40751898D01*
X68132795Y-40940256D01*
X68246063Y-41109774D01*
X68390226Y-41253937D01*
X68559744Y-41367205D01*
X68748102Y-41445226D01*
X68948061Y-41485000D01*
X69151939Y-41485000D01*
X69351898Y-41445226D01*
X69540256Y-41367205D01*
X69709774Y-41253937D01*
X69853937Y-41109774D01*
X69967205Y-40940256D01*
X70045226Y-40751898D01*
X70085000Y-40551939D01*
X70085000Y-40348061D01*
X70045226Y-40148102D01*
X69967205Y-39959744D01*
X69853937Y-39790226D01*
X69810000Y-39746289D01*
X69810000Y-38412572D01*
X70638001Y-38412572D01*
X70811255Y-38395508D01*
X70977851Y-38344972D01*
X71131387Y-38262905D01*
X71265962Y-38152462D01*
X71270445Y-38147000D01*
X71686546Y-38147000D01*
X71734744Y-38179205D01*
X71923102Y-38257226D01*
X72123061Y-38297000D01*
X72326939Y-38297000D01*
X72526898Y-38257226D01*
X72715256Y-38179205D01*
X72884774Y-38065937D01*
X73028937Y-37921774D01*
X73142205Y-37752256D01*
X73220226Y-37563898D01*
X73260000Y-37363939D01*
X73260000Y-37160061D01*
X73220226Y-36960102D01*
X73142205Y-36771744D01*
X73028937Y-36602226D01*
X72884774Y-36458063D01*
X72715256Y-36344795D01*
X72526898Y-36266774D01*
X72326939Y-36227000D01*
X72123061Y-36227000D01*
X71923102Y-36266774D01*
X71734744Y-36344795D01*
X71686546Y-36377000D01*
X71270445Y-36377000D01*
X71265962Y-36371538D01*
X71239109Y-36349500D01*
X71265962Y-36327462D01*
X71376405Y-36192887D01*
X71458472Y-36039351D01*
X71509008Y-35872755D01*
X71526072Y-35699501D01*
X71526072Y-35174499D01*
X71509008Y-35001245D01*
X71458472Y-34834649D01*
X71376405Y-34681113D01*
X71265962Y-34546538D01*
X71131387Y-34436095D01*
X70977851Y-34354028D01*
X70948000Y-34344973D01*
X70948000Y-33852527D01*
X70977851Y-33843472D01*
X71131387Y-33761405D01*
X71265962Y-33650962D01*
X71376405Y-33516387D01*
X71382804Y-33504415D01*
X73614991Y-35736603D01*
X73614990Y-39337667D01*
X73611314Y-39374990D01*
X73614990Y-39412312D01*
X73614990Y-39412322D01*
X73625987Y-39523975D01*
X73669444Y-39667236D01*
X73740016Y-39799266D01*
X73779861Y-39847816D01*
X73834989Y-39914991D01*
X73863993Y-39938794D01*
X74152746Y-40227548D01*
X74082870Y-40457898D01*
X74059025Y-40700000D01*
X74082870Y-40942102D01*
X74153489Y-41174901D01*
X74268167Y-41389449D01*
X74422498Y-41577502D01*
X74610551Y-41731833D01*
X74825099Y-41846511D01*
X75057898Y-41917130D01*
X75239335Y-41935000D01*
X76160665Y-41935000D01*
X76342102Y-41917130D01*
X76574901Y-41846511D01*
X76789449Y-41731833D01*
X76977502Y-41577502D01*
X77131833Y-41389449D01*
X77246511Y-41174901D01*
X77317130Y-40942102D01*
X77340975Y-40700000D01*
X77317130Y-40457898D01*
X77246511Y-40225099D01*
X77179645Y-40100000D01*
X80136928Y-40100000D01*
X80140000Y-40664250D01*
X80298750Y-40823000D01*
X81623000Y-40823000D01*
X81623000Y-39623750D01*
X81877000Y-39623750D01*
X81877000Y-40823000D01*
X83201250Y-40823000D01*
X83360000Y-40664250D01*
X83363072Y-40100000D01*
X83350812Y-39975518D01*
X83314502Y-39855820D01*
X83255537Y-39745506D01*
X83176185Y-39648815D01*
X83079494Y-39569463D01*
X82969180Y-39510498D01*
X82849482Y-39474188D01*
X82725000Y-39461928D01*
X82035750Y-39465000D01*
X81877000Y-39623750D01*
X81623000Y-39623750D01*
X81464250Y-39465000D01*
X80775000Y-39461928D01*
X80650518Y-39474188D01*
X80530820Y-39510498D01*
X80420506Y-39569463D01*
X80323815Y-39648815D01*
X80244463Y-39745506D01*
X80185498Y-39855820D01*
X80149188Y-39975518D01*
X80136928Y-40100000D01*
X77179645Y-40100000D01*
X77131833Y-40010551D01*
X76977502Y-39822498D01*
X76789449Y-39668167D01*
X76574901Y-39553489D01*
X76342102Y-39482870D01*
X76160665Y-39465000D01*
X75539801Y-39465000D01*
X75469801Y-39395000D01*
X76160665Y-39395000D01*
X76342102Y-39377130D01*
X76574901Y-39306511D01*
X76789449Y-39191833D01*
X76977502Y-39037502D01*
X77131833Y-38849449D01*
X77246511Y-38634901D01*
X77317130Y-38402102D01*
X77340975Y-38160000D01*
X77317130Y-37917898D01*
X77246511Y-37685099D01*
X77131833Y-37470551D01*
X76977502Y-37282498D01*
X76789449Y-37128167D01*
X76574901Y-37013489D01*
X76342102Y-36942870D01*
X76160665Y-36925000D01*
X75239335Y-36925000D01*
X75134990Y-36935277D01*
X75134990Y-36844723D01*
X75239335Y-36855000D01*
X76160665Y-36855000D01*
X76342102Y-36837130D01*
X76574901Y-36766511D01*
X76789449Y-36651833D01*
X76977502Y-36497502D01*
X77131833Y-36309449D01*
X77246511Y-36094901D01*
X77317130Y-35862102D01*
X77340975Y-35620000D01*
X77317130Y-35377898D01*
X77246511Y-35145099D01*
X77131833Y-34930551D01*
X76977502Y-34742498D01*
X76789449Y-34588167D01*
X76574901Y-34473489D01*
X76342102Y-34402870D01*
X76160665Y-34385000D01*
X75239335Y-34385000D01*
X75057898Y-34402870D01*
X74825099Y-34473489D01*
X74614206Y-34586214D01*
X73107992Y-33080000D01*
X74059025Y-33080000D01*
X74082870Y-33322102D01*
X74153489Y-33554901D01*
X74268167Y-33769449D01*
X74422498Y-33957502D01*
X74610551Y-34111833D01*
X74825099Y-34226511D01*
X75057898Y-34297130D01*
X75239335Y-34315000D01*
X76160665Y-34315000D01*
X76342102Y-34297130D01*
X76574901Y-34226511D01*
X76789449Y-34111833D01*
X76977502Y-33957502D01*
X77131833Y-33769449D01*
X77246511Y-33554901D01*
X77289956Y-33411682D01*
X78015000Y-33411682D01*
X78015000Y-34088318D01*
X78147006Y-34751952D01*
X78405943Y-35377082D01*
X78781862Y-35939685D01*
X79260315Y-36418138D01*
X79822918Y-36794057D01*
X80448048Y-37052994D01*
X81111682Y-37185000D01*
X81788318Y-37185000D01*
X82451952Y-37052994D01*
X83077082Y-36794057D01*
X83639685Y-36418138D01*
X84118138Y-35939685D01*
X84494057Y-35377082D01*
X84752994Y-34751952D01*
X84885000Y-34088318D01*
X84885000Y-33411682D01*
X84752994Y-32748048D01*
X84494057Y-32122918D01*
X84118138Y-31560315D01*
X83639685Y-31081862D01*
X83077082Y-30705943D01*
X82451952Y-30447006D01*
X81788318Y-30315000D01*
X81111682Y-30315000D01*
X80448048Y-30447006D01*
X79822918Y-30705943D01*
X79260315Y-31081862D01*
X78781862Y-31560315D01*
X78405943Y-32122918D01*
X78147006Y-32748048D01*
X78015000Y-33411682D01*
X77289956Y-33411682D01*
X77317130Y-33322102D01*
X77340975Y-33080000D01*
X77317130Y-32837898D01*
X77246511Y-32605099D01*
X77131833Y-32390551D01*
X76977502Y-32202498D01*
X76789449Y-32048167D01*
X76574901Y-31933489D01*
X76342102Y-31862870D01*
X76160665Y-31845000D01*
X75239335Y-31845000D01*
X75057898Y-31862870D01*
X74825099Y-31933489D01*
X74610551Y-32048167D01*
X74422498Y-32202498D01*
X74268167Y-32390551D01*
X74153489Y-32605099D01*
X74082870Y-32837898D01*
X74059025Y-33080000D01*
X73107992Y-33080000D01*
X71483462Y-31455471D01*
X71509008Y-31371255D01*
X71526072Y-31198001D01*
X71526072Y-30857609D01*
X74106538Y-30857609D01*
X74110409Y-30895282D01*
X74202579Y-31120533D01*
X74336922Y-31323474D01*
X74508275Y-31496307D01*
X74710054Y-31632390D01*
X74934504Y-31726493D01*
X75173000Y-31775000D01*
X75573000Y-31775000D01*
X75573000Y-30667000D01*
X75827000Y-30667000D01*
X75827000Y-31775000D01*
X76227000Y-31775000D01*
X76465496Y-31726493D01*
X76689946Y-31632390D01*
X76891725Y-31496307D01*
X77063078Y-31323474D01*
X77197421Y-31120533D01*
X77289591Y-30895282D01*
X77293462Y-30857609D01*
X77168731Y-30667000D01*
X75827000Y-30667000D01*
X75573000Y-30667000D01*
X74231269Y-30667000D01*
X74106538Y-30857609D01*
X71526072Y-30857609D01*
X71526072Y-30849006D01*
X72152687Y-30222391D01*
X74106538Y-30222391D01*
X74231269Y-30413000D01*
X75573000Y-30413000D01*
X75573000Y-29305000D01*
X75827000Y-29305000D01*
X75827000Y-30413000D01*
X77168731Y-30413000D01*
X77293462Y-30222391D01*
X77289591Y-30184718D01*
X77197421Y-29959467D01*
X77063078Y-29756526D01*
X76891725Y-29583693D01*
X76689946Y-29447610D01*
X76465496Y-29353507D01*
X76227000Y-29305000D01*
X75827000Y-29305000D01*
X75573000Y-29305000D01*
X75173000Y-29305000D01*
X74934504Y-29353507D01*
X74710054Y-29447610D01*
X74508275Y-29583693D01*
X74336922Y-29756526D01*
X74202579Y-29959467D01*
X74110409Y-30184718D01*
X74106538Y-30222391D01*
X72152687Y-30222391D01*
X74495049Y-27880030D01*
X74528817Y-27852317D01*
X74639411Y-27717559D01*
X74721589Y-27563813D01*
X74772195Y-27396990D01*
X74785000Y-27266977D01*
X74785000Y-27266969D01*
X74789281Y-27223500D01*
X74785000Y-27180031D01*
X74785000Y-25769759D01*
X74955134Y-25630134D01*
X75007223Y-25566663D01*
X75061595Y-25668386D01*
X75172038Y-25802962D01*
X75306614Y-25913405D01*
X75460150Y-25995472D01*
X75626746Y-26046008D01*
X75800000Y-26063072D01*
X77000000Y-26063072D01*
X77173254Y-26046008D01*
X77339850Y-25995472D01*
X77493386Y-25913405D01*
X77627962Y-25802962D01*
X77738405Y-25668386D01*
X77820472Y-25514850D01*
X77871008Y-25348254D01*
X77888072Y-25175000D01*
X77888072Y-23725000D01*
X77871008Y-23551746D01*
X77820472Y-23385150D01*
X77738405Y-23231614D01*
X77627962Y-23097038D01*
X77493386Y-22986595D01*
X77339850Y-22904528D01*
X77173254Y-22853992D01*
X77000000Y-22836928D01*
X75800000Y-22836928D01*
X75626746Y-22853992D01*
X75460150Y-22904528D01*
X75306614Y-22986595D01*
X75172038Y-23097038D01*
X75061595Y-23231614D01*
X75007223Y-23333337D01*
X74955134Y-23269866D01*
X74729014Y-23084294D01*
X74471034Y-22946401D01*
X74191111Y-22861487D01*
X73900000Y-22832815D01*
X73608890Y-22861487D01*
X73573731Y-22872152D01*
X73031524Y-22329946D01*
X73003807Y-22296173D01*
X72869049Y-22185579D01*
X72715303Y-22103401D01*
X72548480Y-22052795D01*
X72418467Y-22039990D01*
X72418459Y-22039990D01*
X72374990Y-22035709D01*
X72331521Y-22039990D01*
X53568475Y-22039990D01*
X53525009Y-22035709D01*
X53481543Y-22039990D01*
X53481533Y-22039990D01*
X53351520Y-22052795D01*
X53184697Y-22103401D01*
X53030951Y-22185579D01*
X53030949Y-22185580D01*
X53030950Y-22185580D01*
X52929963Y-22268458D01*
X52929961Y-22268460D01*
X52896193Y-22296173D01*
X52868480Y-22329941D01*
X52186493Y-23011928D01*
X51117867Y-23011928D01*
X51095226Y-22898102D01*
X51017205Y-22709744D01*
X50903937Y-22540226D01*
X50759774Y-22396063D01*
X50590256Y-22282795D01*
X50401898Y-22204774D01*
X50201939Y-22165000D01*
X49998061Y-22165000D01*
X49798102Y-22204774D01*
X49609744Y-22282795D01*
X49440226Y-22396063D01*
X49396289Y-22440000D01*
X49287322Y-22440000D01*
X49249999Y-22436324D01*
X49212676Y-22440000D01*
X49212667Y-22440000D01*
X49101014Y-22450997D01*
X48957753Y-22494454D01*
X48825724Y-22565026D01*
X48709999Y-22659999D01*
X48686201Y-22688997D01*
X48363270Y-23011928D01*
X47436730Y-23011928D01*
X46138803Y-21714002D01*
X46115000Y-21684998D01*
X45999275Y-21590025D01*
X45867246Y-21519453D01*
X45723985Y-21475996D01*
X45612332Y-21464999D01*
X45612321Y-21464999D01*
X45574999Y-21461323D01*
X45537677Y-21464999D01*
X26562323Y-21464999D01*
X26525000Y-21461323D01*
X26487677Y-21464999D01*
X26487668Y-21464999D01*
X26376015Y-21475996D01*
X26232754Y-21519453D01*
X26100725Y-21590025D01*
X25985000Y-21684998D01*
X25961202Y-21713996D01*
X24711902Y-22963296D01*
X24541111Y-22911487D01*
X24250000Y-22882815D01*
X23958890Y-22911487D01*
X23678967Y-22996401D01*
X23420987Y-23134294D01*
X23194866Y-23319866D01*
X23009294Y-23545986D01*
X22871401Y-23803966D01*
X22786487Y-24083889D01*
X22765000Y-24302050D01*
X22765000Y-24697949D01*
X22786487Y-24916110D01*
X22871401Y-25196033D01*
X23009294Y-25454013D01*
X23194866Y-25680134D01*
X23420986Y-25865706D01*
X23678966Y-26003599D01*
X23921309Y-26077113D01*
X22104950Y-27893471D01*
X22071183Y-27921184D01*
X22043470Y-27954952D01*
X22043467Y-27954955D01*
X21960589Y-28055942D01*
X21878411Y-28209688D01*
X21827804Y-28376511D01*
X21810718Y-28550001D01*
X21815000Y-28593480D01*
X21814999Y-73014532D01*
X21810718Y-73058001D01*
X21814999Y-73101470D01*
X21814999Y-73101477D01*
X21827804Y-73231490D01*
X21878410Y-73398313D01*
X21960588Y-73552059D01*
X22071182Y-73686818D01*
X22104955Y-73714535D01*
X26885468Y-78495049D01*
X26913181Y-78528817D01*
X26946949Y-78556530D01*
X26946951Y-78556532D01*
X27047939Y-78639411D01*
X27201684Y-78721589D01*
X27368508Y-78772195D01*
X27498521Y-78785000D01*
X27498529Y-78785000D01*
X27541998Y-78789281D01*
X27585467Y-78785000D01*
X45456531Y-78785000D01*
X45500000Y-78789281D01*
X45543469Y-78785000D01*
X45543477Y-78785000D01*
X45673490Y-78772195D01*
X45840313Y-78721589D01*
X45994059Y-78639411D01*
X46128817Y-78528817D01*
X46156534Y-78495044D01*
X48656589Y-75994990D01*
X48689819Y-75994990D01*
X48682870Y-76017898D01*
X48659025Y-76260000D01*
X48682870Y-76502102D01*
X48753489Y-76734901D01*
X48868167Y-76949449D01*
X49022498Y-77137502D01*
X49210551Y-77291833D01*
X49425099Y-77406511D01*
X49657898Y-77477130D01*
X49839335Y-77495000D01*
X50760665Y-77495000D01*
X50942102Y-77477130D01*
X51174901Y-77406511D01*
X51389449Y-77291833D01*
X51568366Y-77145000D01*
X56951928Y-77145000D01*
X56951928Y-79050000D01*
X56964188Y-79174482D01*
X57000498Y-79294180D01*
X57024990Y-79340000D01*
X20660000Y-79340000D01*
X20660000Y-20660000D01*
X84940001Y-20660000D01*
X84940000Y-73535454D01*
%TA.AperFunction,Conductor*%
D26*
G36*
X84940000Y-73535454D02*
G01*
X84852994Y-73098048D01*
X84594057Y-72472918D01*
X84218138Y-71910315D01*
X83739685Y-71431862D01*
X83177082Y-71055943D01*
X82551952Y-70797006D01*
X81888318Y-70665000D01*
X81211682Y-70665000D01*
X80548048Y-70797006D01*
X79922918Y-71055943D01*
X79360315Y-71431862D01*
X78881862Y-71910315D01*
X78505943Y-72472918D01*
X78247006Y-73098048D01*
X78115000Y-73761682D01*
X78115000Y-74438318D01*
X78247006Y-75101952D01*
X78505943Y-75727082D01*
X78881862Y-76289685D01*
X79360315Y-76768138D01*
X79922918Y-77144057D01*
X80548048Y-77402994D01*
X81211682Y-77535000D01*
X81888318Y-77535000D01*
X82551952Y-77402994D01*
X83177082Y-77144057D01*
X83739685Y-76768138D01*
X84218138Y-76289685D01*
X84594057Y-75727082D01*
X84852994Y-75101952D01*
X84940000Y-74664546D01*
X84940000Y-79340000D01*
X68955010Y-79340000D01*
X68979502Y-79294180D01*
X69015812Y-79174482D01*
X69028072Y-79050000D01*
X69028072Y-76260000D01*
X74059025Y-76260000D01*
X74082870Y-76502102D01*
X74153489Y-76734901D01*
X74268167Y-76949449D01*
X74422498Y-77137502D01*
X74610551Y-77291833D01*
X74825099Y-77406511D01*
X75057898Y-77477130D01*
X75239335Y-77495000D01*
X76160665Y-77495000D01*
X76342102Y-77477130D01*
X76574901Y-77406511D01*
X76789449Y-77291833D01*
X76977502Y-77137502D01*
X77131833Y-76949449D01*
X77246511Y-76734901D01*
X77317130Y-76502102D01*
X77340975Y-76260000D01*
X77317130Y-76017898D01*
X77246511Y-75785099D01*
X77131833Y-75570551D01*
X76977502Y-75382498D01*
X76789449Y-75228167D01*
X76574901Y-75113489D01*
X76342102Y-75042870D01*
X76160665Y-75025000D01*
X75239335Y-75025000D01*
X75057898Y-75042870D01*
X74825099Y-75113489D01*
X74610551Y-75228167D01*
X74422498Y-75382498D01*
X74268167Y-75570551D01*
X74153489Y-75785099D01*
X74082870Y-76017898D01*
X74059025Y-76260000D01*
X69028072Y-76260000D01*
X69028072Y-75235000D01*
X70361546Y-75235000D01*
X70409744Y-75267205D01*
X70598102Y-75345226D01*
X70798061Y-75385000D01*
X71001939Y-75385000D01*
X71201898Y-75345226D01*
X71390256Y-75267205D01*
X71559774Y-75153937D01*
X71703937Y-75009774D01*
X71817205Y-74840256D01*
X71895226Y-74651898D01*
X71935000Y-74451939D01*
X71935000Y-74248061D01*
X71895226Y-74048102D01*
X71817205Y-73859744D01*
X71723832Y-73720000D01*
X74059025Y-73720000D01*
X74082870Y-73962102D01*
X74153489Y-74194901D01*
X74268167Y-74409449D01*
X74422498Y-74597502D01*
X74610551Y-74751833D01*
X74825099Y-74866511D01*
X75057898Y-74937130D01*
X75239335Y-74955000D01*
X76160665Y-74955000D01*
X76342102Y-74937130D01*
X76574901Y-74866511D01*
X76789449Y-74751833D01*
X76977502Y-74597502D01*
X77131833Y-74409449D01*
X77246511Y-74194901D01*
X77317130Y-73962102D01*
X77340975Y-73720000D01*
X77317130Y-73477898D01*
X77246511Y-73245099D01*
X77131833Y-73030551D01*
X76977502Y-72842498D01*
X76789449Y-72688167D01*
X76574901Y-72573489D01*
X76342102Y-72502870D01*
X76160665Y-72485000D01*
X75239335Y-72485000D01*
X75057898Y-72502870D01*
X74825099Y-72573489D01*
X74610551Y-72688167D01*
X74422498Y-72842498D01*
X74268167Y-73030551D01*
X74153489Y-73245099D01*
X74082870Y-73477898D01*
X74059025Y-73720000D01*
X71723832Y-73720000D01*
X71703937Y-73690226D01*
X71559774Y-73546063D01*
X71390256Y-73432795D01*
X71201898Y-73354774D01*
X71001939Y-73315000D01*
X70798061Y-73315000D01*
X70598102Y-73354774D01*
X70409744Y-73432795D01*
X70361546Y-73465000D01*
X69028072Y-73465000D01*
X69028072Y-69650000D01*
X69015812Y-69525518D01*
X68979502Y-69405820D01*
X68920537Y-69295506D01*
X68841185Y-69198815D01*
X68744494Y-69119463D01*
X68634180Y-69060498D01*
X68514482Y-69024188D01*
X68390000Y-69011928D01*
X65769651Y-69011928D01*
X66125049Y-68656530D01*
X66158817Y-68628817D01*
X66218804Y-68555724D01*
X66269411Y-68494059D01*
X66351589Y-68340314D01*
X66402195Y-68173490D01*
X66403705Y-68158160D01*
X66415000Y-68043477D01*
X66415000Y-68043469D01*
X66415261Y-68040817D01*
X66434494Y-68030537D01*
X66531185Y-67951185D01*
X66610537Y-67854494D01*
X66669502Y-67744180D01*
X66705812Y-67624482D01*
X66718072Y-67500000D01*
X66718072Y-62900000D01*
X66705812Y-62775518D01*
X66669502Y-62655820D01*
X66610537Y-62545506D01*
X66531185Y-62448815D01*
X66434494Y-62369463D01*
X66324180Y-62310498D01*
X66204482Y-62274188D01*
X66080000Y-62261928D01*
X64980000Y-62261928D01*
X64855518Y-62274188D01*
X64735820Y-62310498D01*
X64625506Y-62369463D01*
X64528815Y-62448815D01*
X64449463Y-62545506D01*
X64390498Y-62655820D01*
X64354188Y-62775518D01*
X64341928Y-62900000D01*
X64341928Y-67500000D01*
X64354188Y-67624482D01*
X64390498Y-67744180D01*
X64440568Y-67837853D01*
X64063423Y-68214999D01*
X57193468Y-68214999D01*
X57149999Y-68210718D01*
X57106530Y-68214999D01*
X57106522Y-68214999D01*
X56976509Y-68227804D01*
X56809686Y-68278410D01*
X56685055Y-68345026D01*
X56655940Y-68360588D01*
X56554952Y-68443467D01*
X56554950Y-68443469D01*
X56521182Y-68471182D01*
X56493469Y-68504950D01*
X51814050Y-73184369D01*
X51731833Y-73030551D01*
X51577502Y-72842498D01*
X51389449Y-72688167D01*
X51174901Y-72573489D01*
X50942102Y-72502870D01*
X50760665Y-72485000D01*
X49839335Y-72485000D01*
X49657898Y-72502870D01*
X49425099Y-72573489D01*
X49210551Y-72688167D01*
X49022498Y-72842498D01*
X48868167Y-73030551D01*
X48753489Y-73245099D01*
X48682870Y-73477898D01*
X48659025Y-73720000D01*
X48682870Y-73962102D01*
X48753489Y-74194901D01*
X48769572Y-74224990D01*
X48333479Y-74224990D01*
X48290010Y-74220709D01*
X48246541Y-74224990D01*
X48246533Y-74224990D01*
X48131316Y-74236338D01*
X48116519Y-74237795D01*
X48082678Y-74248061D01*
X47949697Y-74288401D01*
X47795951Y-74370579D01*
X47795949Y-74370580D01*
X47795950Y-74370580D01*
X47694963Y-74453458D01*
X47694961Y-74453460D01*
X47661193Y-74481173D01*
X47633480Y-74514941D01*
X45133422Y-77015000D01*
X27908577Y-77015000D01*
X25928577Y-75035000D01*
X26538318Y-75035000D01*
X27201952Y-74902994D01*
X27827082Y-74644057D01*
X28389685Y-74268138D01*
X28868138Y-73789685D01*
X29244057Y-73227082D01*
X29502994Y-72601952D01*
X29635000Y-71938318D01*
X29635000Y-71261682D01*
X29618753Y-71180000D01*
X48659025Y-71180000D01*
X48682870Y-71422102D01*
X48753489Y-71654901D01*
X48868167Y-71869449D01*
X49022498Y-72057502D01*
X49210551Y-72211833D01*
X49425099Y-72326511D01*
X49657898Y-72397130D01*
X49839335Y-72415000D01*
X50760665Y-72415000D01*
X50942102Y-72397130D01*
X51174901Y-72326511D01*
X51389449Y-72211833D01*
X51577502Y-72057502D01*
X51731833Y-71869449D01*
X51846511Y-71654901D01*
X51917130Y-71422102D01*
X51940975Y-71180000D01*
X51917130Y-70937898D01*
X51846511Y-70705099D01*
X51731833Y-70490551D01*
X51577502Y-70302498D01*
X51389449Y-70148167D01*
X51174901Y-70033489D01*
X50942102Y-69962870D01*
X50760665Y-69945000D01*
X49839335Y-69945000D01*
X49657898Y-69962870D01*
X49425099Y-70033489D01*
X49210551Y-70148167D01*
X49022498Y-70302498D01*
X48868167Y-70490551D01*
X48753489Y-70705099D01*
X48682870Y-70937898D01*
X48659025Y-71180000D01*
X29618753Y-71180000D01*
X29502994Y-70598048D01*
X29244057Y-69972918D01*
X28925104Y-69495570D01*
X29899592Y-70470059D01*
X29927305Y-70503827D01*
X29961073Y-70531540D01*
X29961075Y-70531542D01*
X30032574Y-70590220D01*
X30062063Y-70614421D01*
X30215809Y-70696599D01*
X30382632Y-70747205D01*
X30512645Y-70760010D01*
X30512655Y-70760010D01*
X30556121Y-70764291D01*
X30599587Y-70760010D01*
X38181521Y-70760010D01*
X38224990Y-70764291D01*
X38268459Y-70760010D01*
X38268467Y-70760010D01*
X38398480Y-70747205D01*
X38565303Y-70696599D01*
X38719049Y-70614421D01*
X38853807Y-70503827D01*
X38881524Y-70470054D01*
X39423731Y-69927848D01*
X39458890Y-69938513D01*
X39750000Y-69967185D01*
X40041111Y-69938513D01*
X40076269Y-69927848D01*
X40618480Y-70470059D01*
X40646193Y-70503827D01*
X40679961Y-70531540D01*
X40679963Y-70531542D01*
X40761001Y-70598048D01*
X40780951Y-70614421D01*
X40934697Y-70696599D01*
X41101520Y-70747205D01*
X41231533Y-70760010D01*
X41231541Y-70760010D01*
X41275010Y-70764291D01*
X41318479Y-70760010D01*
X45286434Y-70760010D01*
X45329903Y-70764291D01*
X45373372Y-70760010D01*
X45373380Y-70760010D01*
X45503393Y-70747205D01*
X45670216Y-70696599D01*
X45823962Y-70614421D01*
X45958720Y-70503827D01*
X45986437Y-70470054D01*
X46745059Y-69711433D01*
X46778827Y-69683720D01*
X46889421Y-69548962D01*
X46971599Y-69395216D01*
X47022205Y-69228393D01*
X47035010Y-69098380D01*
X47035010Y-69098370D01*
X47039291Y-69054904D01*
X47035010Y-69011438D01*
X47035010Y-68640000D01*
X48659025Y-68640000D01*
X48682870Y-68882102D01*
X48753489Y-69114901D01*
X48868167Y-69329449D01*
X49022498Y-69517502D01*
X49210551Y-69671833D01*
X49425099Y-69786511D01*
X49657898Y-69857130D01*
X49839335Y-69875000D01*
X50760665Y-69875000D01*
X50942102Y-69857130D01*
X51174901Y-69786511D01*
X51389449Y-69671833D01*
X51577502Y-69517502D01*
X51731833Y-69329449D01*
X51846511Y-69114901D01*
X51917130Y-68882102D01*
X51940975Y-68640000D01*
X51917130Y-68397898D01*
X51846511Y-68165099D01*
X51731833Y-67950551D01*
X51577502Y-67762498D01*
X51389449Y-67608167D01*
X51187083Y-67500000D01*
X59261928Y-67500000D01*
X59274188Y-67624482D01*
X59310498Y-67744180D01*
X59369463Y-67854494D01*
X59448815Y-67951185D01*
X59545506Y-68030537D01*
X59655820Y-68089502D01*
X59775518Y-68125812D01*
X59900000Y-68138072D01*
X60164250Y-68135000D01*
X60323000Y-67976250D01*
X60323000Y-65327000D01*
X60577000Y-65327000D01*
X60577000Y-67976250D01*
X60735750Y-68135000D01*
X61000000Y-68138072D01*
X61124482Y-68125812D01*
X61244180Y-68089502D01*
X61354494Y-68030537D01*
X61451185Y-67951185D01*
X61530537Y-67854494D01*
X61589502Y-67744180D01*
X61625812Y-67624482D01*
X61638072Y-67500000D01*
X61635000Y-65485750D01*
X61476250Y-65327000D01*
X60577000Y-65327000D01*
X60323000Y-65327000D01*
X59423750Y-65327000D01*
X59265000Y-65485750D01*
X59261928Y-67500000D01*
X51187083Y-67500000D01*
X51174901Y-67493489D01*
X50942102Y-67422870D01*
X50760665Y-67405000D01*
X49839335Y-67405000D01*
X49657898Y-67422870D01*
X49425099Y-67493489D01*
X49210551Y-67608167D01*
X49022498Y-67762498D01*
X48868167Y-67950551D01*
X48753489Y-68165099D01*
X48682870Y-68397898D01*
X48659025Y-68640000D01*
X47035010Y-68640000D01*
X47035010Y-67688566D01*
X47039291Y-67645097D01*
X47035010Y-67601628D01*
X47035010Y-67601620D01*
X47022205Y-67471607D01*
X46997142Y-67388986D01*
X46971599Y-67304783D01*
X46889421Y-67151038D01*
X46806542Y-67050050D01*
X46806540Y-67050048D01*
X46778827Y-67016280D01*
X46745060Y-66988568D01*
X46110000Y-66353509D01*
X46110000Y-65582445D01*
X46115462Y-65577962D01*
X46137500Y-65551109D01*
X46159538Y-65577962D01*
X46294113Y-65688405D01*
X46447649Y-65770472D01*
X46614245Y-65821008D01*
X46787499Y-65838072D01*
X47312501Y-65838072D01*
X47485755Y-65821008D01*
X47652351Y-65770472D01*
X47805887Y-65688405D01*
X47940462Y-65577962D01*
X48050905Y-65443387D01*
X48132972Y-65289851D01*
X48142027Y-65260000D01*
X48991721Y-65260000D01*
X48868167Y-65410551D01*
X48753489Y-65625099D01*
X48682870Y-65857898D01*
X48659025Y-66100000D01*
X48682870Y-66342102D01*
X48753489Y-66574901D01*
X48868167Y-66789449D01*
X49022498Y-66977502D01*
X49210551Y-67131833D01*
X49425099Y-67246511D01*
X49657898Y-67317130D01*
X49839335Y-67335000D01*
X50760665Y-67335000D01*
X50942102Y-67317130D01*
X51174901Y-67246511D01*
X51389449Y-67131833D01*
X51577502Y-66977502D01*
X51731833Y-66789449D01*
X51846511Y-66574901D01*
X51917130Y-66342102D01*
X51940975Y-66100000D01*
X51917130Y-65857898D01*
X51846511Y-65625099D01*
X51731833Y-65410551D01*
X51608279Y-65260000D01*
X56097680Y-65260000D01*
X56135002Y-65263676D01*
X56172324Y-65260000D01*
X56172335Y-65260000D01*
X56283988Y-65249003D01*
X56427249Y-65205546D01*
X56559278Y-65134974D01*
X56675003Y-65040001D01*
X56698806Y-65010997D01*
X58486003Y-63223801D01*
X58515000Y-63200004D01*
X58609973Y-63084279D01*
X58680545Y-62952250D01*
X58724002Y-62808989D01*
X58734999Y-62697336D01*
X58734999Y-62697328D01*
X58738675Y-62660003D01*
X58734999Y-62622678D01*
X58734999Y-61510190D01*
X58939651Y-61305538D01*
X58936928Y-61850000D01*
X58949188Y-61974482D01*
X58985498Y-62094180D01*
X59044463Y-62204494D01*
X59123815Y-62301185D01*
X59220506Y-62380537D01*
X59330820Y-62439502D01*
X59431415Y-62470017D01*
X59369463Y-62545506D01*
X59310498Y-62655820D01*
X59274188Y-62775518D01*
X59261928Y-62900000D01*
X59265000Y-64914250D01*
X59423750Y-65073000D01*
X60323000Y-65073000D01*
X60323000Y-65053000D01*
X60577000Y-65053000D01*
X60577000Y-65073000D01*
X61476250Y-65073000D01*
X61635000Y-64914250D01*
X61638072Y-62900000D01*
X61625812Y-62775518D01*
X61589502Y-62655820D01*
X61530537Y-62545506D01*
X61451185Y-62448815D01*
X61354494Y-62369463D01*
X61244180Y-62310498D01*
X61183619Y-62292127D01*
X61255537Y-62204494D01*
X61314502Y-62094180D01*
X61350812Y-61974482D01*
X61363072Y-61850000D01*
X61360000Y-61235750D01*
X61201250Y-61077000D01*
X60277000Y-61077000D01*
X60277000Y-61097000D01*
X60023000Y-61097000D01*
X60023000Y-61077000D01*
X60003000Y-61077000D01*
X60003000Y-60823000D01*
X60023000Y-60823000D01*
X60023000Y-60803000D01*
X60277000Y-60803000D01*
X60277000Y-60823000D01*
X61201250Y-60823000D01*
X61360000Y-60664250D01*
X61363072Y-60050000D01*
X61354208Y-59960000D01*
X61954608Y-59960000D01*
X61954528Y-59960149D01*
X61903992Y-60126745D01*
X61886928Y-60299999D01*
X61886928Y-61600001D01*
X61903992Y-61773255D01*
X61954528Y-61939851D01*
X62036595Y-62093387D01*
X62105001Y-62176740D01*
X62105001Y-62359043D01*
X62085506Y-62369463D01*
X61988815Y-62448815D01*
X61909463Y-62545506D01*
X61850498Y-62655820D01*
X61814188Y-62775518D01*
X61801928Y-62900000D01*
X61801928Y-67500000D01*
X61814188Y-67624482D01*
X61850498Y-67744180D01*
X61909463Y-67854494D01*
X61988815Y-67951185D01*
X62085506Y-68030537D01*
X62195820Y-68089502D01*
X62315518Y-68125812D01*
X62440000Y-68138072D01*
X63540000Y-68138072D01*
X63664482Y-68125812D01*
X63784180Y-68089502D01*
X63894494Y-68030537D01*
X63991185Y-67951185D01*
X64070537Y-67854494D01*
X64129502Y-67744180D01*
X64165812Y-67624482D01*
X64178072Y-67500000D01*
X64178072Y-62900000D01*
X64165812Y-62775518D01*
X64129502Y-62655820D01*
X64070537Y-62545506D01*
X63991185Y-62448815D01*
X63894494Y-62369463D01*
X63877388Y-62360320D01*
X63918387Y-62338405D01*
X64052962Y-62227962D01*
X64163405Y-62093387D01*
X64245472Y-61939851D01*
X64277278Y-61835000D01*
X64486715Y-61835000D01*
X64609744Y-61917205D01*
X64798102Y-61995226D01*
X64998061Y-62035000D01*
X65201939Y-62035000D01*
X65401898Y-61995226D01*
X65590256Y-61917205D01*
X65759774Y-61803937D01*
X65903937Y-61659774D01*
X66017205Y-61490256D01*
X66095226Y-61301898D01*
X66135000Y-61101939D01*
X66135000Y-60898061D01*
X66095226Y-60698102D01*
X66017205Y-60509744D01*
X65903937Y-60340226D01*
X65790951Y-60227240D01*
X65951898Y-60195226D01*
X66140256Y-60117205D01*
X66309774Y-60003937D01*
X66453937Y-59859774D01*
X66506423Y-59781224D01*
X72740000Y-66014802D01*
X72740001Y-68942668D01*
X72736324Y-68980000D01*
X72740001Y-69017333D01*
X72744253Y-69060498D01*
X72750998Y-69128985D01*
X72794454Y-69272246D01*
X72865026Y-69404276D01*
X72936201Y-69491002D01*
X72960000Y-69520001D01*
X72988998Y-69543799D01*
X74152746Y-70707548D01*
X74082870Y-70937898D01*
X74059025Y-71180000D01*
X74082870Y-71422102D01*
X74153489Y-71654901D01*
X74268167Y-71869449D01*
X74422498Y-72057502D01*
X74610551Y-72211833D01*
X74825099Y-72326511D01*
X75057898Y-72397130D01*
X75239335Y-72415000D01*
X76160665Y-72415000D01*
X76342102Y-72397130D01*
X76574901Y-72326511D01*
X76789449Y-72211833D01*
X76977502Y-72057502D01*
X77131833Y-71869449D01*
X77246511Y-71654901D01*
X77317130Y-71422102D01*
X77340975Y-71180000D01*
X77317130Y-70937898D01*
X77246511Y-70705099D01*
X77131833Y-70490551D01*
X76977502Y-70302498D01*
X76789449Y-70148167D01*
X76574901Y-70033489D01*
X76342102Y-69962870D01*
X76160665Y-69945000D01*
X75539802Y-69945000D01*
X75469802Y-69875000D01*
X76160665Y-69875000D01*
X76342102Y-69857130D01*
X76574901Y-69786511D01*
X76789449Y-69671833D01*
X76977502Y-69517502D01*
X77131833Y-69329449D01*
X77246511Y-69114901D01*
X77317130Y-68882102D01*
X77340975Y-68640000D01*
X77317130Y-68397898D01*
X77246511Y-68165099D01*
X77131833Y-67950551D01*
X76977502Y-67762498D01*
X76789449Y-67608167D01*
X76574901Y-67493489D01*
X76342102Y-67422870D01*
X76160665Y-67405000D01*
X75539802Y-67405000D01*
X75469801Y-67335000D01*
X76160665Y-67335000D01*
X76342102Y-67317130D01*
X76574901Y-67246511D01*
X76789449Y-67131833D01*
X76977502Y-66977502D01*
X77131833Y-66789449D01*
X77246511Y-66574901D01*
X77317130Y-66342102D01*
X77340975Y-66100000D01*
X77317130Y-65857898D01*
X77246511Y-65625099D01*
X77131833Y-65410551D01*
X76977502Y-65222498D01*
X76789449Y-65068167D01*
X76574901Y-64953489D01*
X76342102Y-64882870D01*
X76160665Y-64865000D01*
X75239335Y-64865000D01*
X75057898Y-64882870D01*
X74825099Y-64953489D01*
X74729428Y-65004626D01*
X73284802Y-63560000D01*
X74059025Y-63560000D01*
X74082870Y-63802102D01*
X74153489Y-64034901D01*
X74268167Y-64249449D01*
X74422498Y-64437502D01*
X74610551Y-64591833D01*
X74825099Y-64706511D01*
X75057898Y-64777130D01*
X75239335Y-64795000D01*
X76160665Y-64795000D01*
X76342102Y-64777130D01*
X76574901Y-64706511D01*
X76789449Y-64591833D01*
X76977502Y-64437502D01*
X77131833Y-64249449D01*
X77246511Y-64034901D01*
X77317130Y-63802102D01*
X77340975Y-63560000D01*
X77317130Y-63317898D01*
X77246511Y-63085099D01*
X77131833Y-62870551D01*
X76977502Y-62682498D01*
X76789449Y-62528167D01*
X76574901Y-62413489D01*
X76342102Y-62342870D01*
X76160665Y-62325000D01*
X75239335Y-62325000D01*
X75057898Y-62342870D01*
X74825099Y-62413489D01*
X74610551Y-62528167D01*
X74422498Y-62682498D01*
X74268167Y-62870551D01*
X74153489Y-63085099D01*
X74082870Y-63317898D01*
X74059025Y-63560000D01*
X73284802Y-63560000D01*
X70744802Y-61020000D01*
X74059025Y-61020000D01*
X74082870Y-61262102D01*
X74153489Y-61494901D01*
X74268167Y-61709449D01*
X74422498Y-61897502D01*
X74610551Y-62051833D01*
X74825099Y-62166511D01*
X75057898Y-62237130D01*
X75239335Y-62255000D01*
X76160665Y-62255000D01*
X76342102Y-62237130D01*
X76574901Y-62166511D01*
X76789449Y-62051833D01*
X76977502Y-61897502D01*
X77131833Y-61709449D01*
X77246511Y-61494901D01*
X77317130Y-61262102D01*
X77340975Y-61020000D01*
X77317130Y-60777898D01*
X77246511Y-60545099D01*
X77131833Y-60330551D01*
X76977502Y-60142498D01*
X76789449Y-59988167D01*
X76574901Y-59873489D01*
X76342102Y-59802870D01*
X76160665Y-59785000D01*
X75239335Y-59785000D01*
X75057898Y-59802870D01*
X74825099Y-59873489D01*
X74610551Y-59988167D01*
X74422498Y-60142498D01*
X74268167Y-60330551D01*
X74153489Y-60545099D01*
X74082870Y-60777898D01*
X74059025Y-61020000D01*
X70744802Y-61020000D01*
X63263804Y-53539003D01*
X63240001Y-53509999D01*
X63124276Y-53415026D01*
X62992247Y-53344454D01*
X62848986Y-53300997D01*
X62737333Y-53290000D01*
X62737322Y-53290000D01*
X62737104Y-53289978D01*
X62720472Y-53235150D01*
X62638405Y-53081614D01*
X62527962Y-52947038D01*
X62393386Y-52836595D01*
X62239850Y-52754528D01*
X62073254Y-52703992D01*
X61900000Y-52686928D01*
X61400000Y-52686928D01*
X61365161Y-52690359D01*
X61063794Y-52388993D01*
X61039991Y-52359989D01*
X60924266Y-52265016D01*
X60792237Y-52194444D01*
X60648976Y-52150987D01*
X60537323Y-52139990D01*
X60537312Y-52139990D01*
X60499990Y-52136314D01*
X60462668Y-52139990D01*
X60297595Y-52139990D01*
X60306535Y-52095043D01*
X60395044Y-52006534D01*
X60428817Y-51978817D01*
X60539411Y-51844059D01*
X60621589Y-51690313D01*
X60672195Y-51523490D01*
X60685000Y-51393477D01*
X60685000Y-51393469D01*
X60689281Y-51350000D01*
X60685000Y-51306531D01*
X60685000Y-51144386D01*
X60750000Y-51065183D01*
X60822038Y-51152962D01*
X60956614Y-51263405D01*
X61110150Y-51345472D01*
X61276746Y-51396008D01*
X61450000Y-51413072D01*
X61950000Y-51413072D01*
X62123254Y-51396008D01*
X62289850Y-51345472D01*
X62443386Y-51263405D01*
X62577962Y-51152962D01*
X62688405Y-51018386D01*
X62770472Y-50864850D01*
X62821008Y-50698254D01*
X62838072Y-50525000D01*
X62838072Y-49575000D01*
X62821008Y-49401746D01*
X62770472Y-49235150D01*
X62688405Y-49081614D01*
X62577962Y-48947038D01*
X62443386Y-48836595D01*
X62289850Y-48754528D01*
X62123254Y-48703992D01*
X61950000Y-48686928D01*
X61450000Y-48686928D01*
X61415161Y-48690359D01*
X61113794Y-48388993D01*
X61089991Y-48359989D01*
X60974266Y-48265016D01*
X60842237Y-48194444D01*
X60698976Y-48150987D01*
X60587323Y-48139990D01*
X60587312Y-48139990D01*
X60549990Y-48136314D01*
X60512668Y-48139990D01*
X57937335Y-48139990D01*
X57900010Y-48136314D01*
X57862685Y-48139990D01*
X57862677Y-48139990D01*
X57751024Y-48150987D01*
X57607763Y-48194444D01*
X57475734Y-48265016D01*
X57360009Y-48359989D01*
X57336211Y-48388987D01*
X57013201Y-48711997D01*
X57012501Y-48711928D01*
X56487499Y-48711928D01*
X56314245Y-48728992D01*
X56147649Y-48779528D01*
X55994113Y-48861595D01*
X55859538Y-48972038D01*
X55837500Y-48998891D01*
X55815462Y-48972038D01*
X55680887Y-48861595D01*
X55527351Y-48779528D01*
X55360755Y-48728992D01*
X55187501Y-48711928D01*
X54665689Y-48711928D01*
X54660011Y-48705009D01*
X54544286Y-48610036D01*
X54412257Y-48539464D01*
X54268996Y-48496007D01*
X54157343Y-48485010D01*
X54157332Y-48485010D01*
X54120010Y-48481334D01*
X54082688Y-48485010D01*
X51924723Y-48485010D01*
X51940975Y-48320000D01*
X51917130Y-48077898D01*
X51846511Y-47845099D01*
X51731833Y-47630551D01*
X51577502Y-47442498D01*
X51389449Y-47288167D01*
X51174901Y-47173489D01*
X50942102Y-47102870D01*
X50760665Y-47085000D01*
X49839335Y-47085000D01*
X49657898Y-47102870D01*
X49425099Y-47173489D01*
X49210551Y-47288167D01*
X49022498Y-47442498D01*
X48868167Y-47630551D01*
X48753489Y-47845099D01*
X48682870Y-48077898D01*
X48659025Y-48320000D01*
X48675277Y-48485010D01*
X46209812Y-48485010D01*
X44565442Y-46840641D01*
X44522168Y-46623088D01*
X44444259Y-46434999D01*
X48849753Y-46434999D01*
X48868167Y-46469449D01*
X49022498Y-46657502D01*
X49210551Y-46811833D01*
X49425099Y-46926511D01*
X49657898Y-46997130D01*
X49839335Y-47015000D01*
X50760665Y-47015000D01*
X50942102Y-46997130D01*
X51174901Y-46926511D01*
X51389449Y-46811833D01*
X51577502Y-46657502D01*
X51731833Y-46469449D01*
X51846511Y-46254901D01*
X51917130Y-46022102D01*
X51940975Y-45780000D01*
X51917130Y-45537898D01*
X51846511Y-45305099D01*
X51731833Y-45090551D01*
X51577502Y-44902498D01*
X51389449Y-44748167D01*
X51174901Y-44633489D01*
X50942102Y-44562870D01*
X50760665Y-44545000D01*
X49839335Y-44545000D01*
X49657898Y-44562870D01*
X49425099Y-44633489D01*
X49210551Y-44748167D01*
X49022498Y-44902498D01*
X49012239Y-44914999D01*
X37303321Y-44914999D01*
X37265998Y-44911323D01*
X37228675Y-44914999D01*
X37228666Y-44914999D01*
X37117013Y-44925996D01*
X36973752Y-44969453D01*
X36841723Y-45040025D01*
X36725998Y-45134998D01*
X36702200Y-45163996D01*
X32763997Y-49102200D01*
X32734999Y-49125998D01*
X32711201Y-49154996D01*
X32711200Y-49154997D01*
X32640025Y-49241723D01*
X32569453Y-49373753D01*
X32555066Y-49421183D01*
X32525997Y-49517013D01*
X32517441Y-49603884D01*
X32511323Y-49665999D01*
X32515000Y-49703331D01*
X32514999Y-59610199D01*
X29284839Y-62840359D01*
X29250000Y-62836928D01*
X28834990Y-62836928D01*
X28834990Y-61041731D01*
X28903966Y-61078599D01*
X29183889Y-61163513D01*
X29402050Y-61185000D01*
X29797950Y-61185000D01*
X30016111Y-61163513D01*
X30296034Y-61078599D01*
X30554014Y-60940706D01*
X30780134Y-60755134D01*
X30965706Y-60529014D01*
X31103599Y-60271034D01*
X31188513Y-59991111D01*
X31217185Y-59700000D01*
X31188513Y-59408889D01*
X31103599Y-59128966D01*
X30965706Y-58870986D01*
X30780134Y-58644866D01*
X30554014Y-58459294D01*
X30536626Y-58450000D01*
X30554014Y-58440706D01*
X30780134Y-58255134D01*
X30965706Y-58029014D01*
X31103599Y-57771034D01*
X31188513Y-57491111D01*
X31217185Y-57200000D01*
X31188513Y-56908889D01*
X31103599Y-56628966D01*
X30965706Y-56370986D01*
X30780134Y-56144866D01*
X30554014Y-55959294D01*
X30536626Y-55950000D01*
X30554014Y-55940706D01*
X30780134Y-55755134D01*
X30965706Y-55529014D01*
X31103599Y-55271034D01*
X31188513Y-54991111D01*
X31217185Y-54700000D01*
X31188513Y-54408889D01*
X31103599Y-54128966D01*
X30965706Y-53870986D01*
X30780134Y-53644866D01*
X30554014Y-53459294D01*
X30536626Y-53450000D01*
X30554014Y-53440706D01*
X30780134Y-53255134D01*
X30965706Y-53029014D01*
X31103599Y-52771034D01*
X31188513Y-52491111D01*
X31217185Y-52200000D01*
X31188513Y-51908889D01*
X31103599Y-51628966D01*
X30965706Y-51370986D01*
X30780134Y-51144866D01*
X30554014Y-50959294D01*
X30536626Y-50950000D01*
X30554014Y-50940706D01*
X30780134Y-50755134D01*
X30965706Y-50529014D01*
X31103599Y-50271034D01*
X31188513Y-49991111D01*
X31217185Y-49700000D01*
X31188513Y-49408889D01*
X31103599Y-49128966D01*
X30965706Y-48870986D01*
X30780134Y-48644866D01*
X30554014Y-48459294D01*
X30536626Y-48450000D01*
X30554014Y-48440706D01*
X30780134Y-48255134D01*
X30965706Y-48029014D01*
X31103599Y-47771034D01*
X31188513Y-47491111D01*
X31217185Y-47200000D01*
X31188513Y-46908889D01*
X31103599Y-46628966D01*
X30965706Y-46370986D01*
X30780134Y-46144866D01*
X30554014Y-45959294D01*
X30536626Y-45950000D01*
X30554014Y-45940706D01*
X30780134Y-45755134D01*
X30965706Y-45529014D01*
X31103599Y-45271034D01*
X31188513Y-44991111D01*
X31217185Y-44700000D01*
X31188513Y-44408889D01*
X31103599Y-44128966D01*
X30965706Y-43870986D01*
X30780134Y-43644866D01*
X30716663Y-43592777D01*
X30818386Y-43538405D01*
X30952962Y-43427962D01*
X31063405Y-43293386D01*
X31091940Y-43240000D01*
X48659025Y-43240000D01*
X48682870Y-43482102D01*
X48753489Y-43714901D01*
X48868167Y-43929449D01*
X49022498Y-44117502D01*
X49210551Y-44271833D01*
X49425099Y-44386511D01*
X49657898Y-44457130D01*
X49839335Y-44475000D01*
X50760665Y-44475000D01*
X50942102Y-44457130D01*
X51174901Y-44386511D01*
X51389449Y-44271833D01*
X51577502Y-44117502D01*
X51731833Y-43929449D01*
X51846511Y-43714901D01*
X51917130Y-43482102D01*
X51940975Y-43240000D01*
X51917130Y-42997898D01*
X51846511Y-42765099D01*
X51731833Y-42550551D01*
X51577502Y-42362498D01*
X51389449Y-42208167D01*
X51174901Y-42093489D01*
X50942102Y-42022870D01*
X50760665Y-42005000D01*
X49839335Y-42005000D01*
X49657898Y-42022870D01*
X49425099Y-42093489D01*
X49210551Y-42208167D01*
X49022498Y-42362498D01*
X48868167Y-42550551D01*
X48753489Y-42765099D01*
X48682870Y-42997898D01*
X48659025Y-43240000D01*
X31091940Y-43240000D01*
X31145472Y-43139850D01*
X31196008Y-42973254D01*
X31213072Y-42800000D01*
X31213072Y-41600000D01*
X31196008Y-41426746D01*
X31145472Y-41260150D01*
X31063405Y-41106614D01*
X30952962Y-40972038D01*
X30818386Y-40861595D01*
X30664850Y-40779528D01*
X30498254Y-40728992D01*
X30325000Y-40711928D01*
X28875000Y-40711928D01*
X28834990Y-40715869D01*
X28834990Y-38400000D01*
X35411928Y-38400000D01*
X35424188Y-38524482D01*
X35460498Y-38644180D01*
X35519463Y-38754494D01*
X35598815Y-38851185D01*
X35695506Y-38930537D01*
X35805820Y-38989502D01*
X35925518Y-39025812D01*
X36050000Y-39038072D01*
X36764250Y-39035000D01*
X36923000Y-38876250D01*
X36923000Y-37527000D01*
X37177000Y-37527000D01*
X37177000Y-38876250D01*
X37335750Y-39035000D01*
X38050000Y-39038072D01*
X38174482Y-39025812D01*
X38294180Y-38989502D01*
X38404494Y-38930537D01*
X38501185Y-38851185D01*
X38580537Y-38754494D01*
X38639502Y-38644180D01*
X38675812Y-38524482D01*
X38688072Y-38400000D01*
X38685000Y-37685750D01*
X38526250Y-37527000D01*
X37177000Y-37527000D01*
X36923000Y-37527000D01*
X35573750Y-37527000D01*
X35415000Y-37685750D01*
X35411928Y-38400000D01*
X28834990Y-38400000D01*
X28834990Y-37174590D01*
X29609580Y-36400000D01*
X35411928Y-36400000D01*
X35415000Y-37114250D01*
X35573750Y-37273000D01*
X36923000Y-37273000D01*
X36923000Y-35923750D01*
X37177000Y-35923750D01*
X37177000Y-37273000D01*
X38526250Y-37273000D01*
X38685000Y-37114250D01*
X38688072Y-36400000D01*
X38675812Y-36275518D01*
X38639502Y-36155820D01*
X38580537Y-36045506D01*
X38501185Y-35948815D01*
X38404494Y-35869463D01*
X38294180Y-35810498D01*
X38174482Y-35774188D01*
X38050000Y-35761928D01*
X37335750Y-35765000D01*
X37177000Y-35923750D01*
X36923000Y-35923750D01*
X36764250Y-35765000D01*
X36050000Y-35761928D01*
X35925518Y-35774188D01*
X35805820Y-35810498D01*
X35695506Y-35869463D01*
X35598815Y-35948815D01*
X35519463Y-36045506D01*
X35460498Y-36155820D01*
X35424188Y-36275518D01*
X35411928Y-36400000D01*
X29609580Y-36400000D01*
X30389580Y-35620000D01*
X48659025Y-35620000D01*
X48682870Y-35862102D01*
X48753489Y-36094901D01*
X48868167Y-36309449D01*
X49022498Y-36497502D01*
X49210551Y-36651833D01*
X49425099Y-36766511D01*
X49657898Y-36837130D01*
X49839335Y-36855000D01*
X50760665Y-36855000D01*
X50942102Y-36837130D01*
X51174901Y-36766511D01*
X51389449Y-36651833D01*
X51577502Y-36497502D01*
X51731833Y-36309449D01*
X51846511Y-36094901D01*
X51917130Y-35862102D01*
X51940975Y-35620000D01*
X51917130Y-35377898D01*
X51846511Y-35145099D01*
X51731833Y-34930551D01*
X51577502Y-34742498D01*
X51389449Y-34588167D01*
X51174901Y-34473489D01*
X50942102Y-34402870D01*
X50760665Y-34385000D01*
X49839335Y-34385000D01*
X49657898Y-34402870D01*
X49425099Y-34473489D01*
X49210551Y-34588167D01*
X49022498Y-34742498D01*
X48868167Y-34930551D01*
X48753489Y-35145099D01*
X48682870Y-35377898D01*
X48659025Y-35620000D01*
X30389580Y-35620000D01*
X32495050Y-33514530D01*
X32528817Y-33486819D01*
X32600901Y-33398986D01*
X32639411Y-33352061D01*
X32693963Y-33250000D01*
X32721589Y-33198315D01*
X32757480Y-33080000D01*
X48659025Y-33080000D01*
X48682870Y-33322102D01*
X48753489Y-33554901D01*
X48868167Y-33769449D01*
X49022498Y-33957502D01*
X49210551Y-34111833D01*
X49425099Y-34226511D01*
X49657898Y-34297130D01*
X49839335Y-34315000D01*
X50760665Y-34315000D01*
X50942102Y-34297130D01*
X51174901Y-34226511D01*
X51389449Y-34111833D01*
X51577502Y-33957502D01*
X51731833Y-33769449D01*
X51846511Y-33554901D01*
X51917130Y-33322102D01*
X51940975Y-33080000D01*
X51917130Y-32837898D01*
X51846511Y-32605099D01*
X51731833Y-32390551D01*
X51577502Y-32202498D01*
X51389449Y-32048167D01*
X51174901Y-31933489D01*
X50942102Y-31862870D01*
X50760665Y-31845000D01*
X49839335Y-31845000D01*
X49657898Y-31862870D01*
X49425099Y-31933489D01*
X49210551Y-32048167D01*
X49022498Y-32202498D01*
X48868167Y-32390551D01*
X48753489Y-32605099D01*
X48682870Y-32837898D01*
X48659025Y-33080000D01*
X32757480Y-33080000D01*
X32772195Y-33031492D01*
X32785000Y-32901479D01*
X32785000Y-32901471D01*
X32789281Y-32858002D01*
X32785000Y-32814533D01*
X32785000Y-30540000D01*
X48659025Y-30540000D01*
X48682870Y-30782102D01*
X48753489Y-31014901D01*
X48868167Y-31229449D01*
X49022498Y-31417502D01*
X49210551Y-31571833D01*
X49425099Y-31686511D01*
X49657898Y-31757130D01*
X49839335Y-31775000D01*
X50760665Y-31775000D01*
X50942102Y-31757130D01*
X51174901Y-31686511D01*
X51389449Y-31571833D01*
X51577502Y-31417502D01*
X51731833Y-31229449D01*
X51846511Y-31014901D01*
X51917130Y-30782102D01*
X51940975Y-30540000D01*
X51917130Y-30297898D01*
X51846511Y-30065099D01*
X51731833Y-29850551D01*
X51577502Y-29662498D01*
X51389449Y-29508167D01*
X51174901Y-29393489D01*
X50942102Y-29322870D01*
X50760665Y-29305000D01*
X49839335Y-29305000D01*
X49657898Y-29322870D01*
X49425099Y-29393489D01*
X49210551Y-29508167D01*
X49022498Y-29662498D01*
X48868167Y-29850551D01*
X48753489Y-30065099D01*
X48682870Y-30297898D01*
X48659025Y-30540000D01*
X32785000Y-30540000D01*
X32785000Y-25994613D01*
X32843386Y-25963405D01*
X32977962Y-25852962D01*
X33088405Y-25718386D01*
X33170472Y-25564850D01*
X33179527Y-25535000D01*
X34511928Y-25535000D01*
X34511928Y-25550000D01*
X34524188Y-25674482D01*
X34560498Y-25794180D01*
X34619463Y-25904494D01*
X34698815Y-26001185D01*
X34795506Y-26080537D01*
X34905820Y-26139502D01*
X35025518Y-26175812D01*
X35150000Y-26188072D01*
X37650000Y-26188072D01*
X37774482Y-26175812D01*
X37894180Y-26139502D01*
X38004494Y-26080537D01*
X38101185Y-26001185D01*
X38180537Y-25904494D01*
X38239502Y-25794180D01*
X38275812Y-25674482D01*
X38288072Y-25550000D01*
X38288072Y-23750000D01*
X38275812Y-23625518D01*
X38239502Y-23505820D01*
X38180537Y-23395506D01*
X38101185Y-23298815D01*
X38004494Y-23219463D01*
X37894180Y-23160498D01*
X37774482Y-23124188D01*
X37650000Y-23111928D01*
X35150000Y-23111928D01*
X35025518Y-23124188D01*
X34905820Y-23160498D01*
X34795506Y-23219463D01*
X34698815Y-23298815D01*
X34619463Y-23395506D01*
X34560498Y-23505820D01*
X34524188Y-23625518D01*
X34511928Y-23750000D01*
X34511928Y-23765000D01*
X33237087Y-23765000D01*
X33221008Y-23601746D01*
X33170472Y-23435150D01*
X33088405Y-23281614D01*
X32977962Y-23147038D01*
X32843386Y-23036595D01*
X32746857Y-22984999D01*
X42655741Y-22984999D01*
X42577832Y-23173088D01*
X42515000Y-23488967D01*
X42515000Y-23811033D01*
X42577832Y-24126912D01*
X42701082Y-24424463D01*
X42880013Y-24692252D01*
X43107748Y-24919987D01*
X43375537Y-25098918D01*
X43673088Y-25222168D01*
X43988967Y-25285000D01*
X44311033Y-25285000D01*
X44626912Y-25222168D01*
X44924463Y-25098918D01*
X45192252Y-24919987D01*
X45419987Y-24692252D01*
X45598918Y-24424463D01*
X45722168Y-24126912D01*
X45785000Y-23811033D01*
X45785000Y-23509801D01*
X46011928Y-23736729D01*
X46011928Y-25450000D01*
X46024188Y-25574482D01*
X46060498Y-25694180D01*
X46119463Y-25804494D01*
X46198815Y-25901185D01*
X46295506Y-25980537D01*
X46405820Y-26039502D01*
X46525518Y-26075812D01*
X46650000Y-26088072D01*
X48710350Y-26088072D01*
X47033422Y-27765000D01*
X45788072Y-27765000D01*
X45788072Y-27650000D01*
X45775812Y-27525518D01*
X45739502Y-27405820D01*
X45680537Y-27295506D01*
X45601185Y-27198815D01*
X45504494Y-27119463D01*
X45394180Y-27060498D01*
X45274482Y-27024188D01*
X45150000Y-27011928D01*
X43763507Y-27011928D01*
X42288072Y-25536494D01*
X42288072Y-23750000D01*
X42275812Y-23625518D01*
X42239502Y-23505820D01*
X42180537Y-23395506D01*
X42101185Y-23298815D01*
X42004494Y-23219463D01*
X41894180Y-23160498D01*
X41774482Y-23124188D01*
X41650000Y-23111928D01*
X39150000Y-23111928D01*
X39025518Y-23124188D01*
X38905820Y-23160498D01*
X38795506Y-23219463D01*
X38698815Y-23298815D01*
X38619463Y-23395506D01*
X38560498Y-23505820D01*
X38524188Y-23625518D01*
X38511928Y-23750000D01*
X38511928Y-25550000D01*
X38524188Y-25674482D01*
X38560498Y-25794180D01*
X38619463Y-25904494D01*
X38698815Y-26001185D01*
X38795506Y-26080537D01*
X38905820Y-26139502D01*
X39025518Y-26175812D01*
X39150000Y-26188072D01*
X40436494Y-26188072D01*
X42511928Y-28263507D01*
X42511928Y-29650000D01*
X42524188Y-29774482D01*
X42560498Y-29894180D01*
X42619463Y-30004494D01*
X42698815Y-30101185D01*
X42795506Y-30180537D01*
X42905820Y-30239502D01*
X43025518Y-30275812D01*
X43150000Y-30288072D01*
X45150000Y-30288072D01*
X45274482Y-30275812D01*
X45394180Y-30239502D01*
X45504494Y-30180537D01*
X45601185Y-30101185D01*
X45680537Y-30004494D01*
X45739502Y-29894180D01*
X45775812Y-29774482D01*
X45788072Y-29650000D01*
X45788072Y-29535000D01*
X47356531Y-29535000D01*
X47400000Y-29539281D01*
X47443469Y-29535000D01*
X47443477Y-29535000D01*
X47573490Y-29522195D01*
X47740313Y-29471589D01*
X47894059Y-29389411D01*
X48028817Y-29278817D01*
X48056534Y-29245044D01*
X51213507Y-26088072D01*
X53150000Y-26088072D01*
X53274482Y-26075812D01*
X53382002Y-26043196D01*
X52588998Y-26836201D01*
X52560000Y-26859999D01*
X52536202Y-26888997D01*
X52536201Y-26888998D01*
X52465026Y-26975724D01*
X52394454Y-27107754D01*
X52350998Y-27251015D01*
X52336324Y-27400000D01*
X52340001Y-27437332D01*
X52340000Y-29362667D01*
X52340000Y-29362668D01*
X52340001Y-31347670D01*
X52336324Y-31385002D01*
X52340001Y-31422335D01*
X52350998Y-31533988D01*
X52355794Y-31549799D01*
X52394454Y-31677248D01*
X52465026Y-31809278D01*
X52536201Y-31896004D01*
X52560000Y-31925003D01*
X52588998Y-31948801D01*
X53018945Y-32378749D01*
X53011928Y-32450000D01*
X53011928Y-33250000D01*
X53024188Y-33374482D01*
X53060498Y-33494180D01*
X53119463Y-33604494D01*
X53198815Y-33701185D01*
X53215001Y-33714468D01*
X53215001Y-34056522D01*
X53210719Y-34100000D01*
X53227805Y-34273490D01*
X53278412Y-34440313D01*
X53360590Y-34594059D01*
X53443468Y-34695046D01*
X53443471Y-34695049D01*
X53471184Y-34728817D01*
X53504952Y-34756530D01*
X53593465Y-34845043D01*
X53604774Y-34901898D01*
X53682795Y-35090256D01*
X53796063Y-35259774D01*
X53940226Y-35403937D01*
X54109744Y-35517205D01*
X54298102Y-35595226D01*
X54498061Y-35635000D01*
X54701939Y-35635000D01*
X54901898Y-35595226D01*
X55090256Y-35517205D01*
X55259774Y-35403937D01*
X55403937Y-35259774D01*
X55517205Y-35090256D01*
X55595226Y-34901898D01*
X55635000Y-34701939D01*
X55635000Y-34498061D01*
X55595226Y-34298102D01*
X55517205Y-34109744D01*
X55403937Y-33940226D01*
X55259774Y-33796063D01*
X55090256Y-33682795D01*
X55035045Y-33659926D01*
X55080537Y-33604494D01*
X55139502Y-33494180D01*
X55175812Y-33374482D01*
X55188072Y-33250000D01*
X55188072Y-32738095D01*
X55198815Y-32751185D01*
X55295506Y-32830537D01*
X55405820Y-32889502D01*
X55525518Y-32925812D01*
X55650000Y-32938072D01*
X56550000Y-32938072D01*
X56674482Y-32925812D01*
X56794180Y-32889502D01*
X56904494Y-32830537D01*
X57001185Y-32751185D01*
X57080537Y-32654494D01*
X57139502Y-32544180D01*
X57139901Y-32542863D01*
X57451196Y-32854158D01*
X57448102Y-32854774D01*
X57259744Y-32932795D01*
X57090226Y-33046063D01*
X56946063Y-33190226D01*
X56832795Y-33359744D01*
X56754774Y-33548102D01*
X56715000Y-33748061D01*
X56715000Y-33951939D01*
X56754774Y-34151898D01*
X56832795Y-34340256D01*
X56890001Y-34425871D01*
X56890000Y-40246289D01*
X56846063Y-40290226D01*
X56732795Y-40459744D01*
X56654774Y-40648102D01*
X56615000Y-40848061D01*
X56615000Y-40940199D01*
X54938794Y-39263993D01*
X54914991Y-39234989D01*
X54799266Y-39140016D01*
X54667237Y-39069444D01*
X54523976Y-39025987D01*
X54412323Y-39014990D01*
X54412312Y-39014990D01*
X54374990Y-39011314D01*
X54337668Y-39014990D01*
X51595977Y-39014990D01*
X51731833Y-38849449D01*
X51846511Y-38634901D01*
X51917130Y-38402102D01*
X51940975Y-38160000D01*
X51917130Y-37917898D01*
X51846511Y-37685099D01*
X51731833Y-37470551D01*
X51577502Y-37282498D01*
X51389449Y-37128167D01*
X51174901Y-37013489D01*
X50942102Y-36942870D01*
X50760665Y-36925000D01*
X49839335Y-36925000D01*
X49657898Y-36942870D01*
X49425099Y-37013489D01*
X49210551Y-37128167D01*
X49022498Y-37282498D01*
X48868167Y-37470551D01*
X48753489Y-37685099D01*
X48682870Y-37917898D01*
X48659025Y-38160000D01*
X48682870Y-38402102D01*
X48753489Y-38634901D01*
X48868167Y-38849449D01*
X49004023Y-39014990D01*
X47339792Y-39014990D01*
X46216177Y-37891376D01*
X46222168Y-37876912D01*
X46285000Y-37561033D01*
X46285000Y-37238967D01*
X46222168Y-36923088D01*
X46098918Y-36625537D01*
X45919987Y-36357748D01*
X45692252Y-36130013D01*
X45424463Y-35951082D01*
X45126912Y-35827832D01*
X44811033Y-35765000D01*
X44488967Y-35765000D01*
X44173088Y-35827832D01*
X43875537Y-35951082D01*
X43607748Y-36130013D01*
X43380013Y-36357748D01*
X43201082Y-36625537D01*
X43077832Y-36923088D01*
X43015000Y-37238967D01*
X43015000Y-37561033D01*
X43077832Y-37876912D01*
X43201082Y-38174463D01*
X43380013Y-38442252D01*
X43607748Y-38669987D01*
X43875537Y-38848918D01*
X44173088Y-38972168D01*
X44488967Y-39035000D01*
X44811033Y-39035000D01*
X45126912Y-38972168D01*
X45141376Y-38966177D01*
X46461190Y-40285992D01*
X46484989Y-40314991D01*
X46513987Y-40338789D01*
X46600713Y-40409964D01*
X46690391Y-40457898D01*
X46732743Y-40480536D01*
X46876004Y-40523993D01*
X46987657Y-40534990D01*
X46987666Y-40534990D01*
X47024989Y-40538666D01*
X47062312Y-40534990D01*
X48675277Y-40534990D01*
X48659025Y-40700000D01*
X48682870Y-40942102D01*
X48753489Y-41174901D01*
X48868167Y-41389449D01*
X49022498Y-41577502D01*
X49210551Y-41731833D01*
X49425099Y-41846511D01*
X49657898Y-41917130D01*
X49839335Y-41935000D01*
X50760665Y-41935000D01*
X50942102Y-41917130D01*
X51174901Y-41846511D01*
X51389449Y-41731833D01*
X51577502Y-41577502D01*
X51731833Y-41389449D01*
X51846511Y-41174901D01*
X51917130Y-40942102D01*
X51940975Y-40700000D01*
X51924723Y-40534990D01*
X54060189Y-40534990D01*
X58861928Y-45336730D01*
X58861928Y-45750000D01*
X58874188Y-45874482D01*
X58910498Y-45994180D01*
X58969463Y-46104494D01*
X59048815Y-46201185D01*
X59145506Y-46280537D01*
X59255820Y-46339502D01*
X59375518Y-46375812D01*
X59500000Y-46388072D01*
X60400000Y-46388072D01*
X60524482Y-46375812D01*
X60644180Y-46339502D01*
X60754494Y-46280537D01*
X60851185Y-46201185D01*
X60861928Y-46188095D01*
X60861928Y-46700000D01*
X60874188Y-46824482D01*
X60910498Y-46944180D01*
X60969463Y-47054494D01*
X61048815Y-47151185D01*
X61145506Y-47230537D01*
X61255820Y-47289502D01*
X61375518Y-47325812D01*
X61500000Y-47338072D01*
X62400000Y-47338072D01*
X62524482Y-47325812D01*
X62644180Y-47289502D01*
X62754494Y-47230537D01*
X62809981Y-47185000D01*
X68233422Y-47185000D01*
X74111602Y-53063181D01*
X74082870Y-53157898D01*
X74074785Y-53239984D01*
X71173804Y-50339003D01*
X71150001Y-50309999D01*
X71034276Y-50215026D01*
X70902247Y-50144454D01*
X70758986Y-50100997D01*
X70647333Y-50090000D01*
X70647322Y-50090000D01*
X70610000Y-50086324D01*
X70572678Y-50090000D01*
X67003711Y-50090000D01*
X66959774Y-50046063D01*
X66790256Y-49932795D01*
X66601898Y-49854774D01*
X66401939Y-49815000D01*
X66198061Y-49815000D01*
X65998102Y-49854774D01*
X65809744Y-49932795D01*
X65640226Y-50046063D01*
X65496063Y-50190226D01*
X65382795Y-50359744D01*
X65304774Y-50548102D01*
X65265000Y-50748061D01*
X65265000Y-50951939D01*
X65304774Y-51151898D01*
X65382795Y-51340256D01*
X65496063Y-51509774D01*
X65640226Y-51653937D01*
X65809744Y-51767205D01*
X65998102Y-51845226D01*
X66198061Y-51885000D01*
X66401939Y-51885000D01*
X66601898Y-51845226D01*
X66790256Y-51767205D01*
X66959774Y-51653937D01*
X67003711Y-51610000D01*
X70295199Y-51610000D01*
X74152746Y-55467548D01*
X74082870Y-55697898D01*
X74059025Y-55940000D01*
X74082870Y-56182102D01*
X74153489Y-56414901D01*
X74226733Y-56551931D01*
X71135000Y-53460199D01*
X71135000Y-53398061D01*
X71095226Y-53198102D01*
X71017205Y-53009744D01*
X70903937Y-52840226D01*
X70759774Y-52696063D01*
X70590256Y-52582795D01*
X70401898Y-52504774D01*
X70201939Y-52465000D01*
X69998061Y-52465000D01*
X69798102Y-52504774D01*
X69609744Y-52582795D01*
X69440226Y-52696063D01*
X69296063Y-52840226D01*
X69182795Y-53009744D01*
X69104774Y-53198102D01*
X69065000Y-53398061D01*
X69065000Y-53601939D01*
X69104774Y-53801898D01*
X69182795Y-53990256D01*
X69296063Y-54159774D01*
X69440226Y-54303937D01*
X69609744Y-54417205D01*
X69798102Y-54495226D01*
X69998061Y-54535000D01*
X70060199Y-54535000D01*
X74064906Y-58539708D01*
X74082870Y-58722102D01*
X74153489Y-58954901D01*
X74268167Y-59169449D01*
X74422498Y-59357502D01*
X74610551Y-59511833D01*
X74825099Y-59626511D01*
X75057898Y-59697130D01*
X75239335Y-59715000D01*
X76160665Y-59715000D01*
X76342102Y-59697130D01*
X76574901Y-59626511D01*
X76789449Y-59511833D01*
X76977502Y-59357502D01*
X77131833Y-59169449D01*
X77246511Y-58954901D01*
X77317130Y-58722102D01*
X77340975Y-58480000D01*
X77317130Y-58237898D01*
X77246511Y-58005099D01*
X77131833Y-57790551D01*
X76977502Y-57602498D01*
X76789449Y-57448167D01*
X76574901Y-57333489D01*
X76342102Y-57262870D01*
X76160665Y-57245000D01*
X75239335Y-57245000D01*
X75057898Y-57262870D01*
X74965654Y-57290852D01*
X74688069Y-57013267D01*
X74825099Y-57086511D01*
X75057898Y-57157130D01*
X75239335Y-57175000D01*
X76160665Y-57175000D01*
X76342102Y-57157130D01*
X76574901Y-57086511D01*
X76789449Y-56971833D01*
X76925718Y-56860000D01*
X77507973Y-56860000D01*
X77517028Y-56889851D01*
X77599095Y-57043387D01*
X77709538Y-57177962D01*
X77844113Y-57288405D01*
X77997649Y-57370472D01*
X78164245Y-57421008D01*
X78337499Y-57438072D01*
X78862501Y-57438072D01*
X79035755Y-57421008D01*
X79202351Y-57370472D01*
X79355887Y-57288405D01*
X79490462Y-57177962D01*
X79512500Y-57151109D01*
X79534538Y-57177962D01*
X79669113Y-57288405D01*
X79822649Y-57370472D01*
X79989245Y-57421008D01*
X80162499Y-57438072D01*
X80687501Y-57438072D01*
X80860755Y-57421008D01*
X81027351Y-57370472D01*
X81180887Y-57288405D01*
X81315462Y-57177962D01*
X81425905Y-57043387D01*
X81507972Y-56889851D01*
X81558508Y-56723255D01*
X81575572Y-56550001D01*
X81575572Y-55649999D01*
X81558508Y-55476745D01*
X81507972Y-55310149D01*
X81425905Y-55156613D01*
X81315462Y-55022038D01*
X81310000Y-55017555D01*
X81310000Y-51917703D01*
X81327962Y-51902962D01*
X81438405Y-51768386D01*
X81520472Y-51614850D01*
X81533544Y-51571756D01*
X81594059Y-51539411D01*
X81728817Y-51428817D01*
X81756534Y-51395044D01*
X81995043Y-51156535D01*
X82051898Y-51145226D01*
X82240256Y-51067205D01*
X82409774Y-50953937D01*
X82553937Y-50809774D01*
X82667205Y-50640256D01*
X82745226Y-50451898D01*
X82785000Y-50251939D01*
X82785000Y-50048061D01*
X82745226Y-49848102D01*
X82667205Y-49659744D01*
X82553937Y-49490226D01*
X82409774Y-49346063D01*
X82240256Y-49232795D01*
X82051898Y-49154774D01*
X81851939Y-49115000D01*
X81648061Y-49115000D01*
X81448102Y-49154774D01*
X81259744Y-49232795D01*
X81090226Y-49346063D01*
X80956918Y-49479371D01*
X80873254Y-49453992D01*
X80700000Y-49436928D01*
X80200000Y-49436928D01*
X80026746Y-49453992D01*
X79860150Y-49504528D01*
X79706614Y-49586595D01*
X79572038Y-49697038D01*
X79500000Y-49784817D01*
X79427962Y-49697038D01*
X79293386Y-49586595D01*
X79139850Y-49504528D01*
X78973254Y-49453992D01*
X78800000Y-49436928D01*
X78300000Y-49436928D01*
X78265161Y-49440359D01*
X77323386Y-48498585D01*
X77340975Y-48320000D01*
X77317130Y-48077898D01*
X77246511Y-47845099D01*
X77131833Y-47630551D01*
X76977502Y-47442498D01*
X76789449Y-47288167D01*
X76574901Y-47173489D01*
X76342102Y-47102870D01*
X76160665Y-47085000D01*
X75239335Y-47085000D01*
X75057898Y-47102870D01*
X74825099Y-47173489D01*
X74610551Y-47288167D01*
X74422498Y-47442498D01*
X74317310Y-47570670D01*
X72526640Y-45780000D01*
X74059025Y-45780000D01*
X74082870Y-46022102D01*
X74153489Y-46254901D01*
X74268167Y-46469449D01*
X74422498Y-46657502D01*
X74610551Y-46811833D01*
X74825099Y-46926511D01*
X75057898Y-46997130D01*
X75239335Y-47015000D01*
X76160665Y-47015000D01*
X76342102Y-46997130D01*
X76574901Y-46926511D01*
X76789449Y-46811833D01*
X76913533Y-46710000D01*
X80347405Y-46710000D01*
X80384294Y-46779014D01*
X80569866Y-47005134D01*
X80795986Y-47190706D01*
X81053966Y-47328599D01*
X81333889Y-47413513D01*
X81552050Y-47435000D01*
X81947950Y-47435000D01*
X82166111Y-47413513D01*
X82446034Y-47328599D01*
X82704014Y-47190706D01*
X82930134Y-47005134D01*
X83115706Y-46779014D01*
X83253599Y-46521034D01*
X83338513Y-46241111D01*
X83367185Y-45950000D01*
X83338513Y-45658889D01*
X83253599Y-45378966D01*
X83115706Y-45120986D01*
X82930134Y-44894866D01*
X82704014Y-44709294D01*
X82686626Y-44700000D01*
X82704014Y-44690706D01*
X82930134Y-44505134D01*
X83115706Y-44279014D01*
X83253599Y-44021034D01*
X83338513Y-43741111D01*
X83367185Y-43450000D01*
X83338513Y-43158889D01*
X83253599Y-42878966D01*
X83115706Y-42620986D01*
X82934392Y-42400055D01*
X82969180Y-42389502D01*
X83079494Y-42330537D01*
X83176185Y-42251185D01*
X83255537Y-42154494D01*
X83314502Y-42044180D01*
X83350812Y-41924482D01*
X83363072Y-41800000D01*
X83360000Y-41235750D01*
X83201250Y-41077000D01*
X81877000Y-41077000D01*
X81877000Y-41097000D01*
X81623000Y-41097000D01*
X81623000Y-41077000D01*
X80298750Y-41077000D01*
X80140000Y-41235750D01*
X80136928Y-41800000D01*
X80149188Y-41924482D01*
X80185498Y-42044180D01*
X80244463Y-42154494D01*
X80323815Y-42251185D01*
X80420506Y-42330537D01*
X80530820Y-42389502D01*
X80565608Y-42400055D01*
X80384294Y-42620986D01*
X80246401Y-42878966D01*
X80161487Y-43158889D01*
X80132815Y-43450000D01*
X80161487Y-43741111D01*
X80246401Y-44021034D01*
X80384294Y-44279014D01*
X80569866Y-44505134D01*
X80795986Y-44690706D01*
X80813374Y-44700000D01*
X80795986Y-44709294D01*
X80569866Y-44894866D01*
X80384294Y-45120986D01*
X80347405Y-45190000D01*
X77184989Y-45190000D01*
X77131833Y-45090551D01*
X76977502Y-44902498D01*
X76789449Y-44748167D01*
X76574901Y-44633489D01*
X76342102Y-44562870D01*
X76160665Y-44545000D01*
X75239335Y-44545000D01*
X75057898Y-44562870D01*
X74825099Y-44633489D01*
X74610551Y-44748167D01*
X74422498Y-44902498D01*
X74268167Y-45090551D01*
X74153489Y-45305099D01*
X74082870Y-45537898D01*
X74059025Y-45780000D01*
X72526640Y-45780000D01*
X69986640Y-43240000D01*
X74059025Y-43240000D01*
X74082870Y-43482102D01*
X74153489Y-43714901D01*
X74268167Y-43929449D01*
X74422498Y-44117502D01*
X74610551Y-44271833D01*
X74825099Y-44386511D01*
X75057898Y-44457130D01*
X75239335Y-44475000D01*
X76160665Y-44475000D01*
X76342102Y-44457130D01*
X76574901Y-44386511D01*
X76789449Y-44271833D01*
X76977502Y-44117502D01*
X77131833Y-43929449D01*
X77246511Y-43714901D01*
X77317130Y-43482102D01*
X77340975Y-43240000D01*
X77317130Y-42997898D01*
X77246511Y-42765099D01*
X77131833Y-42550551D01*
X76977502Y-42362498D01*
X76789449Y-42208167D01*
X76574901Y-42093489D01*
X76342102Y-42022870D01*
X76160665Y-42005000D01*
X75239335Y-42005000D01*
X75057898Y-42022870D01*
X74825099Y-42093489D01*
X74610551Y-42208167D01*
X74422498Y-42362498D01*
X74268167Y-42550551D01*
X74153489Y-42765099D01*
X74082870Y-42997898D01*
X74059025Y-43240000D01*
X69986640Y-43240000D01*
X57185643Y-30439003D01*
X57161840Y-30409999D01*
X57046115Y-30315026D01*
X56914086Y-30244454D01*
X56770825Y-30200997D01*
X56659172Y-30190000D01*
X56659161Y-30190000D01*
X56621839Y-30186324D01*
X56584517Y-30190000D01*
X55076018Y-30190000D01*
X55001185Y-30098815D01*
X54904494Y-30019463D01*
X54794180Y-29960498D01*
X54674482Y-29924188D01*
X54550000Y-29911928D01*
X53860000Y-29911928D01*
X53860000Y-27714801D01*
X54489802Y-27085000D01*
X54551939Y-27085000D01*
X54751898Y-27045226D01*
X54940256Y-26967205D01*
X55109774Y-26853937D01*
X55253937Y-26709774D01*
X55367205Y-26540256D01*
X55445226Y-26351898D01*
X55485000Y-26151939D01*
X55485000Y-25948061D01*
X55445226Y-25748102D01*
X55422883Y-25694161D01*
X55570986Y-25815706D01*
X55828966Y-25953599D01*
X56108889Y-26038513D01*
X56400000Y-26067185D01*
X56691110Y-26038513D01*
X56804358Y-26004159D01*
X61890000Y-31089803D01*
X61890000Y-31151939D01*
X61929774Y-31351898D01*
X62007795Y-31540256D01*
X62121063Y-31709774D01*
X62265226Y-31853937D01*
X62434744Y-31967205D01*
X62623102Y-32045226D01*
X62823061Y-32085000D01*
X62890000Y-32085000D01*
X62890000Y-32546289D01*
X62846063Y-32590226D01*
X62732795Y-32759744D01*
X62654774Y-32948102D01*
X62615000Y-33148061D01*
X62615000Y-33351939D01*
X62654774Y-33551898D01*
X62732795Y-33740256D01*
X62846063Y-33909774D01*
X62990226Y-34053937D01*
X63159744Y-34167205D01*
X63348102Y-34245226D01*
X63548061Y-34285000D01*
X63751939Y-34285000D01*
X63951898Y-34245226D01*
X64140256Y-34167205D01*
X64309774Y-34053937D01*
X64453937Y-33909774D01*
X64567205Y-33740256D01*
X64645226Y-33551898D01*
X64685000Y-33351939D01*
X64685000Y-33148061D01*
X64645226Y-32948102D01*
X64567205Y-32759744D01*
X64453937Y-32590226D01*
X64410000Y-32546289D01*
X64410000Y-25972113D01*
X64471033Y-25953599D01*
X64729013Y-25815706D01*
X64955134Y-25630134D01*
X65140706Y-25404014D01*
X65150000Y-25386626D01*
X65159294Y-25404013D01*
X65344866Y-25630134D01*
X65570986Y-25815706D01*
X65640000Y-25852595D01*
X65640001Y-29920668D01*
X65636324Y-29958000D01*
X65640001Y-29995333D01*
X65650998Y-30106986D01*
X65664180Y-30150442D01*
X65694454Y-30250246D01*
X65765026Y-30382276D01*
X65836201Y-30469002D01*
X65860000Y-30498001D01*
X65888998Y-30521799D01*
X66089997Y-30722798D01*
X66089928Y-30723499D01*
X66089928Y-31248501D01*
X66106992Y-31421755D01*
X66157528Y-31588351D01*
X66239595Y-31741887D01*
X66350038Y-31876462D01*
X66376891Y-31898500D01*
X66350038Y-31920538D01*
X66239595Y-32055113D01*
X66157528Y-32208649D01*
X66106992Y-32375245D01*
X66089928Y-32548499D01*
X66089928Y-33073501D01*
X66106992Y-33246755D01*
X66157528Y-33413351D01*
X66239595Y-33566887D01*
X66350038Y-33701462D01*
X66484613Y-33811905D01*
X66638149Y-33893972D01*
X66668000Y-33903027D01*
X66668001Y-34244973D01*
X66638149Y-34254028D01*
X66484613Y-34336095D01*
X66350038Y-34446538D01*
X66239595Y-34581113D01*
X66157528Y-34734649D01*
X66106992Y-34901245D01*
X66089928Y-35074499D01*
X66089928Y-35599501D01*
X66106992Y-35772755D01*
X66157528Y-35939351D01*
X66239595Y-36092887D01*
X66350038Y-36227462D01*
X66376891Y-36249500D01*
X66350038Y-36271538D01*
X66345555Y-36277000D01*
X66000454Y-36277000D01*
X65952256Y-36244795D01*
X65763898Y-36166774D01*
X65563939Y-36127000D01*
X65360061Y-36127000D01*
X65160102Y-36166774D01*
X64971744Y-36244795D01*
X64802226Y-36358063D01*
X64658063Y-36502226D01*
X64544795Y-36671744D01*
X64466774Y-36860102D01*
X64427000Y-37060061D01*
X64427000Y-37263939D01*
X64466774Y-37463898D01*
X64544795Y-37652256D01*
X64658063Y-37821774D01*
X64802226Y-37965937D01*
X64971744Y-38079205D01*
X65160102Y-38157226D01*
X65360061Y-38197000D01*
X65563939Y-38197000D01*
X65763898Y-38157226D01*
X65952256Y-38079205D01*
X66000454Y-38047000D01*
X66345555Y-38047000D01*
X66350038Y-38052462D01*
X66484613Y-38162905D01*
X66638149Y-38244972D01*
X66804745Y-38295508D01*
X66977999Y-38312572D01*
X67373717Y-38312572D01*
X67346063Y-38340226D01*
X67232795Y-38509744D01*
X67154774Y-38698102D01*
X67115000Y-38898061D01*
X67115000Y-39101939D01*
X67154774Y-39301898D01*
X67232795Y-39490256D01*
X67346063Y-39659774D01*
X67490226Y-39803937D01*
X67659744Y-39917205D01*
X67848102Y-39995226D01*
X68048061Y-40035000D01*
X68101623Y-40035000D01*
X68054774Y-40148102D01*
X68015000Y-40348061D01*
X68015000Y-40551939D01*
X68054774Y-40751898D01*
X68132795Y-40940256D01*
X68246063Y-41109774D01*
X68390226Y-41253937D01*
X68559744Y-41367205D01*
X68748102Y-41445226D01*
X68948061Y-41485000D01*
X69151939Y-41485000D01*
X69351898Y-41445226D01*
X69540256Y-41367205D01*
X69709774Y-41253937D01*
X69853937Y-41109774D01*
X69967205Y-40940256D01*
X70045226Y-40751898D01*
X70085000Y-40551939D01*
X70085000Y-40348061D01*
X70045226Y-40148102D01*
X69967205Y-39959744D01*
X69853937Y-39790226D01*
X69810000Y-39746289D01*
X69810000Y-38412572D01*
X70638001Y-38412572D01*
X70811255Y-38395508D01*
X70977851Y-38344972D01*
X71131387Y-38262905D01*
X71265962Y-38152462D01*
X71270445Y-38147000D01*
X71686546Y-38147000D01*
X71734744Y-38179205D01*
X71923102Y-38257226D01*
X72123061Y-38297000D01*
X72326939Y-38297000D01*
X72526898Y-38257226D01*
X72715256Y-38179205D01*
X72884774Y-38065937D01*
X73028937Y-37921774D01*
X73142205Y-37752256D01*
X73220226Y-37563898D01*
X73260000Y-37363939D01*
X73260000Y-37160061D01*
X73220226Y-36960102D01*
X73142205Y-36771744D01*
X73028937Y-36602226D01*
X72884774Y-36458063D01*
X72715256Y-36344795D01*
X72526898Y-36266774D01*
X72326939Y-36227000D01*
X72123061Y-36227000D01*
X71923102Y-36266774D01*
X71734744Y-36344795D01*
X71686546Y-36377000D01*
X71270445Y-36377000D01*
X71265962Y-36371538D01*
X71239109Y-36349500D01*
X71265962Y-36327462D01*
X71376405Y-36192887D01*
X71458472Y-36039351D01*
X71509008Y-35872755D01*
X71526072Y-35699501D01*
X71526072Y-35174499D01*
X71509008Y-35001245D01*
X71458472Y-34834649D01*
X71376405Y-34681113D01*
X71265962Y-34546538D01*
X71131387Y-34436095D01*
X70977851Y-34354028D01*
X70948000Y-34344973D01*
X70948000Y-33852527D01*
X70977851Y-33843472D01*
X71131387Y-33761405D01*
X71265962Y-33650962D01*
X71376405Y-33516387D01*
X71382804Y-33504415D01*
X73614991Y-35736603D01*
X73614990Y-39337667D01*
X73611314Y-39374990D01*
X73614990Y-39412312D01*
X73614990Y-39412322D01*
X73625987Y-39523975D01*
X73669444Y-39667236D01*
X73740016Y-39799266D01*
X73779861Y-39847816D01*
X73834989Y-39914991D01*
X73863993Y-39938794D01*
X74152746Y-40227548D01*
X74082870Y-40457898D01*
X74059025Y-40700000D01*
X74082870Y-40942102D01*
X74153489Y-41174901D01*
X74268167Y-41389449D01*
X74422498Y-41577502D01*
X74610551Y-41731833D01*
X74825099Y-41846511D01*
X75057898Y-41917130D01*
X75239335Y-41935000D01*
X76160665Y-41935000D01*
X76342102Y-41917130D01*
X76574901Y-41846511D01*
X76789449Y-41731833D01*
X76977502Y-41577502D01*
X77131833Y-41389449D01*
X77246511Y-41174901D01*
X77317130Y-40942102D01*
X77340975Y-40700000D01*
X77317130Y-40457898D01*
X77246511Y-40225099D01*
X77179645Y-40100000D01*
X80136928Y-40100000D01*
X80140000Y-40664250D01*
X80298750Y-40823000D01*
X81623000Y-40823000D01*
X81623000Y-39623750D01*
X81877000Y-39623750D01*
X81877000Y-40823000D01*
X83201250Y-40823000D01*
X83360000Y-40664250D01*
X83363072Y-40100000D01*
X83350812Y-39975518D01*
X83314502Y-39855820D01*
X83255537Y-39745506D01*
X83176185Y-39648815D01*
X83079494Y-39569463D01*
X82969180Y-39510498D01*
X82849482Y-39474188D01*
X82725000Y-39461928D01*
X82035750Y-39465000D01*
X81877000Y-39623750D01*
X81623000Y-39623750D01*
X81464250Y-39465000D01*
X80775000Y-39461928D01*
X80650518Y-39474188D01*
X80530820Y-39510498D01*
X80420506Y-39569463D01*
X80323815Y-39648815D01*
X80244463Y-39745506D01*
X80185498Y-39855820D01*
X80149188Y-39975518D01*
X80136928Y-40100000D01*
X77179645Y-40100000D01*
X77131833Y-40010551D01*
X76977502Y-39822498D01*
X76789449Y-39668167D01*
X76574901Y-39553489D01*
X76342102Y-39482870D01*
X76160665Y-39465000D01*
X75539801Y-39465000D01*
X75469801Y-39395000D01*
X76160665Y-39395000D01*
X76342102Y-39377130D01*
X76574901Y-39306511D01*
X76789449Y-39191833D01*
X76977502Y-39037502D01*
X77131833Y-38849449D01*
X77246511Y-38634901D01*
X77317130Y-38402102D01*
X77340975Y-38160000D01*
X77317130Y-37917898D01*
X77246511Y-37685099D01*
X77131833Y-37470551D01*
X76977502Y-37282498D01*
X76789449Y-37128167D01*
X76574901Y-37013489D01*
X76342102Y-36942870D01*
X76160665Y-36925000D01*
X75239335Y-36925000D01*
X75134990Y-36935277D01*
X75134990Y-36844723D01*
X75239335Y-36855000D01*
X76160665Y-36855000D01*
X76342102Y-36837130D01*
X76574901Y-36766511D01*
X76789449Y-36651833D01*
X76977502Y-36497502D01*
X77131833Y-36309449D01*
X77246511Y-36094901D01*
X77317130Y-35862102D01*
X77340975Y-35620000D01*
X77317130Y-35377898D01*
X77246511Y-35145099D01*
X77131833Y-34930551D01*
X76977502Y-34742498D01*
X76789449Y-34588167D01*
X76574901Y-34473489D01*
X76342102Y-34402870D01*
X76160665Y-34385000D01*
X75239335Y-34385000D01*
X75057898Y-34402870D01*
X74825099Y-34473489D01*
X74614206Y-34586214D01*
X73107992Y-33080000D01*
X74059025Y-33080000D01*
X74082870Y-33322102D01*
X74153489Y-33554901D01*
X74268167Y-33769449D01*
X74422498Y-33957502D01*
X74610551Y-34111833D01*
X74825099Y-34226511D01*
X75057898Y-34297130D01*
X75239335Y-34315000D01*
X76160665Y-34315000D01*
X76342102Y-34297130D01*
X76574901Y-34226511D01*
X76789449Y-34111833D01*
X76977502Y-33957502D01*
X77131833Y-33769449D01*
X77246511Y-33554901D01*
X77289956Y-33411682D01*
X78015000Y-33411682D01*
X78015000Y-34088318D01*
X78147006Y-34751952D01*
X78405943Y-35377082D01*
X78781862Y-35939685D01*
X79260315Y-36418138D01*
X79822918Y-36794057D01*
X80448048Y-37052994D01*
X81111682Y-37185000D01*
X81788318Y-37185000D01*
X82451952Y-37052994D01*
X83077082Y-36794057D01*
X83639685Y-36418138D01*
X84118138Y-35939685D01*
X84494057Y-35377082D01*
X84752994Y-34751952D01*
X84885000Y-34088318D01*
X84885000Y-33411682D01*
X84752994Y-32748048D01*
X84494057Y-32122918D01*
X84118138Y-31560315D01*
X83639685Y-31081862D01*
X83077082Y-30705943D01*
X82451952Y-30447006D01*
X81788318Y-30315000D01*
X81111682Y-30315000D01*
X80448048Y-30447006D01*
X79822918Y-30705943D01*
X79260315Y-31081862D01*
X78781862Y-31560315D01*
X78405943Y-32122918D01*
X78147006Y-32748048D01*
X78015000Y-33411682D01*
X77289956Y-33411682D01*
X77317130Y-33322102D01*
X77340975Y-33080000D01*
X77317130Y-32837898D01*
X77246511Y-32605099D01*
X77131833Y-32390551D01*
X76977502Y-32202498D01*
X76789449Y-32048167D01*
X76574901Y-31933489D01*
X76342102Y-31862870D01*
X76160665Y-31845000D01*
X75239335Y-31845000D01*
X75057898Y-31862870D01*
X74825099Y-31933489D01*
X74610551Y-32048167D01*
X74422498Y-32202498D01*
X74268167Y-32390551D01*
X74153489Y-32605099D01*
X74082870Y-32837898D01*
X74059025Y-33080000D01*
X73107992Y-33080000D01*
X71483462Y-31455471D01*
X71509008Y-31371255D01*
X71526072Y-31198001D01*
X71526072Y-30857609D01*
X74106538Y-30857609D01*
X74110409Y-30895282D01*
X74202579Y-31120533D01*
X74336922Y-31323474D01*
X74508275Y-31496307D01*
X74710054Y-31632390D01*
X74934504Y-31726493D01*
X75173000Y-31775000D01*
X75573000Y-31775000D01*
X75573000Y-30667000D01*
X75827000Y-30667000D01*
X75827000Y-31775000D01*
X76227000Y-31775000D01*
X76465496Y-31726493D01*
X76689946Y-31632390D01*
X76891725Y-31496307D01*
X77063078Y-31323474D01*
X77197421Y-31120533D01*
X77289591Y-30895282D01*
X77293462Y-30857609D01*
X77168731Y-30667000D01*
X75827000Y-30667000D01*
X75573000Y-30667000D01*
X74231269Y-30667000D01*
X74106538Y-30857609D01*
X71526072Y-30857609D01*
X71526072Y-30849006D01*
X72152687Y-30222391D01*
X74106538Y-30222391D01*
X74231269Y-30413000D01*
X75573000Y-30413000D01*
X75573000Y-29305000D01*
X75827000Y-29305000D01*
X75827000Y-30413000D01*
X77168731Y-30413000D01*
X77293462Y-30222391D01*
X77289591Y-30184718D01*
X77197421Y-29959467D01*
X77063078Y-29756526D01*
X76891725Y-29583693D01*
X76689946Y-29447610D01*
X76465496Y-29353507D01*
X76227000Y-29305000D01*
X75827000Y-29305000D01*
X75573000Y-29305000D01*
X75173000Y-29305000D01*
X74934504Y-29353507D01*
X74710054Y-29447610D01*
X74508275Y-29583693D01*
X74336922Y-29756526D01*
X74202579Y-29959467D01*
X74110409Y-30184718D01*
X74106538Y-30222391D01*
X72152687Y-30222391D01*
X74495049Y-27880030D01*
X74528817Y-27852317D01*
X74639411Y-27717559D01*
X74721589Y-27563813D01*
X74772195Y-27396990D01*
X74785000Y-27266977D01*
X74785000Y-27266969D01*
X74789281Y-27223500D01*
X74785000Y-27180031D01*
X74785000Y-25769759D01*
X74955134Y-25630134D01*
X75007223Y-25566663D01*
X75061595Y-25668386D01*
X75172038Y-25802962D01*
X75306614Y-25913405D01*
X75460150Y-25995472D01*
X75626746Y-26046008D01*
X75800000Y-26063072D01*
X77000000Y-26063072D01*
X77173254Y-26046008D01*
X77339850Y-25995472D01*
X77493386Y-25913405D01*
X77627962Y-25802962D01*
X77738405Y-25668386D01*
X77820472Y-25514850D01*
X77871008Y-25348254D01*
X77888072Y-25175000D01*
X77888072Y-23725000D01*
X77871008Y-23551746D01*
X77820472Y-23385150D01*
X77738405Y-23231614D01*
X77627962Y-23097038D01*
X77493386Y-22986595D01*
X77339850Y-22904528D01*
X77173254Y-22853992D01*
X77000000Y-22836928D01*
X75800000Y-22836928D01*
X75626746Y-22853992D01*
X75460150Y-22904528D01*
X75306614Y-22986595D01*
X75172038Y-23097038D01*
X75061595Y-23231614D01*
X75007223Y-23333337D01*
X74955134Y-23269866D01*
X74729014Y-23084294D01*
X74471034Y-22946401D01*
X74191111Y-22861487D01*
X73900000Y-22832815D01*
X73608890Y-22861487D01*
X73573731Y-22872152D01*
X73031524Y-22329946D01*
X73003807Y-22296173D01*
X72869049Y-22185579D01*
X72715303Y-22103401D01*
X72548480Y-22052795D01*
X72418467Y-22039990D01*
X72418459Y-22039990D01*
X72374990Y-22035709D01*
X72331521Y-22039990D01*
X53568475Y-22039990D01*
X53525009Y-22035709D01*
X53481543Y-22039990D01*
X53481533Y-22039990D01*
X53351520Y-22052795D01*
X53184697Y-22103401D01*
X53030951Y-22185579D01*
X53030949Y-22185580D01*
X53030950Y-22185580D01*
X52929963Y-22268458D01*
X52929961Y-22268460D01*
X52896193Y-22296173D01*
X52868480Y-22329941D01*
X52186493Y-23011928D01*
X51117867Y-23011928D01*
X51095226Y-22898102D01*
X51017205Y-22709744D01*
X50903937Y-22540226D01*
X50759774Y-22396063D01*
X50590256Y-22282795D01*
X50401898Y-22204774D01*
X50201939Y-22165000D01*
X49998061Y-22165000D01*
X49798102Y-22204774D01*
X49609744Y-22282795D01*
X49440226Y-22396063D01*
X49396289Y-22440000D01*
X49287322Y-22440000D01*
X49249999Y-22436324D01*
X49212676Y-22440000D01*
X49212667Y-22440000D01*
X49101014Y-22450997D01*
X48957753Y-22494454D01*
X48825724Y-22565026D01*
X48709999Y-22659999D01*
X48686201Y-22688997D01*
X48363270Y-23011928D01*
X47436730Y-23011928D01*
X46138803Y-21714002D01*
X46115000Y-21684998D01*
X45999275Y-21590025D01*
X45867246Y-21519453D01*
X45723985Y-21475996D01*
X45612332Y-21464999D01*
X45612321Y-21464999D01*
X45574999Y-21461323D01*
X45537677Y-21464999D01*
X26562323Y-21464999D01*
X26525000Y-21461323D01*
X26487677Y-21464999D01*
X26487668Y-21464999D01*
X26376015Y-21475996D01*
X26232754Y-21519453D01*
X26100725Y-21590025D01*
X25985000Y-21684998D01*
X25961202Y-21713996D01*
X24711902Y-22963296D01*
X24541111Y-22911487D01*
X24250000Y-22882815D01*
X23958890Y-22911487D01*
X23678967Y-22996401D01*
X23420987Y-23134294D01*
X23194866Y-23319866D01*
X23009294Y-23545986D01*
X22871401Y-23803966D01*
X22786487Y-24083889D01*
X22765000Y-24302050D01*
X22765000Y-24697949D01*
X22786487Y-24916110D01*
X22871401Y-25196033D01*
X23009294Y-25454013D01*
X23194866Y-25680134D01*
X23420986Y-25865706D01*
X23678966Y-26003599D01*
X23921309Y-26077113D01*
X22104950Y-27893471D01*
X22071183Y-27921184D01*
X22043470Y-27954952D01*
X22043467Y-27954955D01*
X21960589Y-28055942D01*
X21878411Y-28209688D01*
X21827804Y-28376511D01*
X21810718Y-28550001D01*
X21815000Y-28593480D01*
X21814999Y-73014532D01*
X21810718Y-73058001D01*
X21814999Y-73101470D01*
X21814999Y-73101477D01*
X21827804Y-73231490D01*
X21878410Y-73398313D01*
X21960588Y-73552059D01*
X22071182Y-73686818D01*
X22104955Y-73714535D01*
X26885468Y-78495049D01*
X26913181Y-78528817D01*
X26946949Y-78556530D01*
X26946951Y-78556532D01*
X27047939Y-78639411D01*
X27201684Y-78721589D01*
X27368508Y-78772195D01*
X27498521Y-78785000D01*
X27498529Y-78785000D01*
X27541998Y-78789281D01*
X27585467Y-78785000D01*
X45456531Y-78785000D01*
X45500000Y-78789281D01*
X45543469Y-78785000D01*
X45543477Y-78785000D01*
X45673490Y-78772195D01*
X45840313Y-78721589D01*
X45994059Y-78639411D01*
X46128817Y-78528817D01*
X46156534Y-78495044D01*
X48656589Y-75994990D01*
X48689819Y-75994990D01*
X48682870Y-76017898D01*
X48659025Y-76260000D01*
X48682870Y-76502102D01*
X48753489Y-76734901D01*
X48868167Y-76949449D01*
X49022498Y-77137502D01*
X49210551Y-77291833D01*
X49425099Y-77406511D01*
X49657898Y-77477130D01*
X49839335Y-77495000D01*
X50760665Y-77495000D01*
X50942102Y-77477130D01*
X51174901Y-77406511D01*
X51389449Y-77291833D01*
X51568366Y-77145000D01*
X56951928Y-77145000D01*
X56951928Y-79050000D01*
X56964188Y-79174482D01*
X57000498Y-79294180D01*
X57024990Y-79340000D01*
X20660000Y-79340000D01*
X20660000Y-20660000D01*
X84940001Y-20660000D01*
X84940000Y-73535454D01*
G37*
%TD.AperFunction*%
D25*
X59027000Y-24323000D02*
X59047000Y-24323000D01*
X59047000Y-24577000D01*
X59027000Y-24577000D01*
X59027000Y-24597000D01*
X58773000Y-24597000D01*
X58773000Y-24577000D01*
X58753000Y-24577000D01*
X58753000Y-24323000D01*
X58773000Y-24323000D01*
X58773000Y-24303000D01*
X59027000Y-24303000D01*
X59027000Y-24323000D01*
%TA.AperFunction,Conductor*%
D26*
G36*
X59027000Y-24323000D02*
G01*
X59047000Y-24323000D01*
X59047000Y-24577000D01*
X59027000Y-24577000D01*
X59027000Y-24597000D01*
X58773000Y-24597000D01*
X58773000Y-24577000D01*
X58753000Y-24577000D01*
X58753000Y-24323000D01*
X58773000Y-24323000D01*
X58773000Y-24303000D01*
X59027000Y-24303000D01*
X59027000Y-24323000D01*
G37*
%TD.AperFunction*%
%TD*%
M02*
